<?xml version="1.0" encoding="utf-8"?>
<!-- Generator: Adobe Illustrator 25.0.1, SVG Export Plug-In . SVG Version: 6.00 Build 0)  -->
<svg version="1.1" id="Layer_1" xmlns="http://www.w3.org/2000/svg" xmlns:xlink="http://www.w3.org/1999/xlink" x="0px" y="0px"
	 viewBox="0 0 100 100" style="enable-background:new 0 0 100 100;" xml:space="preserve">
<style type="text/css">
	.st0{fill:#FFCE00;}
</style>
<ellipse class="st0" cx="50" cy="50" rx="50" ry="50"/>
<g>
	<g>
		<g>
			<path d="M64.5,42c-0.4-0.3-1,0.1-0.9,0.7c0.7,4.4,4.5,7.8,8.8,7.8c4.5,0,8.1-3.4,8.8-7.8c0.1-0.6-0.4-1-0.9-0.7
				c-2.2,1.5-5.1,2.4-8.1,2.4C69.6,44.5,66.8,43.6,64.5,42z"/>
		</g>
	</g>
	<g>
		<g>
			<path d="M19.6,42c-0.4-0.3-1,0.1-0.9,0.7c0.7,4.4,4.5,7.8,8.8,7.8c4.5,0,8.1-3.4,8.8-7.8c0.1-0.6-0.4-1-0.9-0.7
				c-2.2,1.5-5.1,2.4-8.1,2.4C24.5,44.5,21.8,43.6,19.6,42z"/>
		</g>
	</g>
</g>
<g>
	<g>
		<path d="M17.3,37.3c-0.4,0-0.7-0.1-0.9-0.2c-0.9-0.6-1.2-1.8-0.7-2.6c3.2-5.4,9-9,14.6-8.9c1.1,0,1.9,0.9,1.9,2
			c0,1.1-0.8,1.9-1.9,1.9c-0.1,0-0.1,0-0.2,0c-4.2,0-8.7,2.8-11.1,7C18.6,37,17.9,37.3,17.3,37.3z"/>
	</g>
	<g>
		<path d="M82.7,37.3c-0.7,0-1.3-0.4-1.6-0.9c-2.5-4.2-7-7-11.1-7c0,0-0.1,0-0.2,0c-1.1,0-1.9-0.8-1.9-1.9c0-1.1,0.8-1.9,1.9-2
			c5.5-0.1,11.5,3.5,14.6,8.9c0.6,0.9,0.2,2.1-0.7,2.6C83.4,37.2,83,37.3,82.7,37.3z"/>
	</g>
</g>
<g>
	<g>
		<path d="M66.3,75.8c-1,0-1.8-0.3-2.4-1c-3.4-3.2-8.1-5-13.1-5.2c-5.5-0.3-10.9,1.6-14.6,5.2c-1.5,1.5-3.7,1.3-5.2-0.2
			c-1.5-1.5-1.3-3.7,0.2-5.2c5-4.9,12.3-7.5,19.9-7.1c6.8,0.3,13.1,2.8,17.8,7.1c1.5,1.5,1.6,3.7,0.2,5.2
			C68.2,75.3,67.3,75.8,66.3,75.8z"/>
	</g>
</g>
</svg>
