<?xml version="1.0" encoding="utf-8"?>
<!-- Generator: Adobe Illustrator 25.0.1, SVG Export Plug-In . SVG Version: 6.00 Build 0)  -->
<svg version="1.1" id="Layer_1" xmlns="http://www.w3.org/2000/svg" xmlns:xlink="http://www.w3.org/1999/xlink" x="0px" y="0px"
	 viewBox="0 0 100 100" style="enable-background:new 0 0 100 100;" xml:space="preserve">
<style type="text/css">
	.st0{fill:#FF330B;}
	.st1{stroke:#000000;stroke-width:1.5;stroke-miterlimit:10;}
</style>
<path class="st0" d="M100,50c0,27.6-22.4,50-50,50S0,77.6,0,50S22.4,0,50,0S100,22.4,100,50z"/>
<g>
	<g>
		<g>
			<g>
				<path d="M34,49.3c0,5.4-3.1,9.9-6.9,9.9s-6.9-4.5-6.9-9.9s3.1-9.9,6.9-9.9C30.8,39.4,34,43.9,34,49.3z"/>
			</g>
		</g>
	</g>
	<g>
		<g>
			<g>
				<path d="M79.8,49.3c0,5.4-3.1,9.9-6.9,9.9S66,54.7,66,49.3s3.1-9.9,6.9-9.9S79.8,43.9,79.8,49.3z"/>
			</g>
		</g>
	</g>
</g>
<g>
	<g>
		<g>
			<path class="st1" d="M39.8,43.5c-0.8,0-1.7-0.6-1.9-1.4c-2.1-7.1-9.1-12.5-17.7-13.4c-1.1-0.1-1.8-1.1-1.7-2.2
				c0.1-1.1,1.1-1.8,2.2-1.7c10,1.1,18.4,7.6,21,16.2c0.3,1-0.3,2.1-1.4,2.5C40.1,43.5,39.9,43.5,39.8,43.5z"/>
		</g>
	</g>
	<g>
		<g>
			<path class="st1" d="M60.2,43.5c-0.1,0-0.4,0-0.6-0.1c-1-0.3-1.7-1.4-1.4-2.5c2.5-8.6,10.9-15.1,21-16.2c1.1-0.1,2.1,0.7,2.2,1.7
				c0.1,1.1-0.7,2.1-1.7,2.2c-8.6,1-15.6,6.5-17.7,13.6C61.9,43,61.1,43.5,60.2,43.5z"/>
		</g>
	</g>
</g>
<g>
	<path d="M33.1,79.3c-0.6,0-1.1-0.2-1.6-0.8l-4.2-4.7c-1-1-1-2.8-0.1-3.9s2.4-1.1,3.4-0.1l2.6,2.9l6.8-7.6c0.9-1,2.3-1,3.3,0
		l6.8,7.6l6.8-7.6c0.9-1,2.3-1,3.3,0l6.8,7.6l2.6-2.9c1-1,2.4-1,3.4,0.1c0.9,1.1,0.9,2.8-0.1,3.9l-4.2,4.7c-0.9,1-2.3,1-3.3,0
		l-6.8-7.6l-6.8,7.6c-0.9,1-2.3,1-3.3,0l-6.8-7.6l-6.8,7.6C34.3,79,33.7,79.3,33.1,79.3z"/>
</g>
</svg>
