<?xml version="1.0" encoding="utf-8"?>
<!-- Generator: Adobe Illustrator 25.0.1, SVG Export Plug-In . SVG Version: 6.00 Build 0)  -->
<svg version="1.1" id="Layer_1" xmlns="http://www.w3.org/2000/svg" xmlns:xlink="http://www.w3.org/1999/xlink" x="0px" y="0px"
	 viewBox="0 0 100 100" style="enable-background:new 0 0 100 100;" xml:space="preserve">
<style type="text/css">
	.st0{fill:#FFCE00;}
</style>
<ellipse class="st0" cx="50" cy="50" rx="50" ry="50"/>
<g>
	<path d="M73.7,69.3H26.2c-1.4,0-2.5-1.5-2.5-3.4c0-2,1.1-3.4,2.5-3.4h47.5c1.5,0,2.5,1.5,2.5,3.4C76.4,67.8,75.2,69.3,73.7,69.3z"
		/>
</g>
<g>
	<path d="M78.4,41.5c0,4.1-3.4,7.5-7.5,7.5s-7.5-3.4-7.5-7.5c0-4.1,3.4-7.5,7.5-7.5C75,34,78.4,37.4,78.4,41.5z"/>
</g>
<g>
	<path d="M36.6,41.5c0,4.1-3.4,7.5-7.5,7.5s-7.5-3.4-7.5-7.5S25,34,29.1,34S36.6,37.4,36.6,41.5z"/>
</g>
</svg>
