<?xml version="1.0" encoding="utf-8"?>
<!-- Generator: Adobe Illustrator 25.0.1, SVG Export Plug-In . SVG Version: 6.00 Build 0)  -->
<svg version="1.1" id="Layer_1" xmlns="http://www.w3.org/2000/svg" xmlns:xlink="http://www.w3.org/1999/xlink" x="0px" y="0px"
	 viewBox="0 0 100 100" style="enable-background:new 0 0 100 100;" xml:space="preserve">
<style type="text/css">
	.st0{fill:#FFCE00;}
</style>
<ellipse class="st0" cx="50" cy="50" rx="50" ry="50"/>
<g>
	<g>
		<g>
			<path d="M50.3,79.7c-10.2,0-20.2-7.5-27.6-15.5c-1.2-1.3-1.2-3.5-0.1-4.9c1.1-1.4,3-1.4,4.3-0.1c6.3,6.7,14.8,10.7,23.6,10.7
				c8.4,0,16.8-3.6,23-10c1.2-1.3,3.2-1.1,4.3,0.3c1.1,1.4,1,3.6-0.2,4.9C69.8,72.5,60.3,79.7,50.3,79.7z"/>
		</g>
	</g>
</g>
<g>
	<path d="M78.5,37.9c0,4.1-3.4,7.5-7.5,7.5s-7.5-3.4-7.5-7.5s3.4-7.5,7.5-7.5C75.1,30.4,78.5,33.8,78.5,37.9z"/>
</g>
<g>
	<path d="M36.7,37.9c0,4.1-3.4,7.5-7.5,7.5s-7.5-3.4-7.5-7.5s3.4-7.5,7.5-7.5S36.7,33.8,36.7,37.9z"/>
</g>
</svg>
