<?xml version="1.0" encoding="utf-8"?>
<!-- Generator: Adobe Illustrator 25.0.1, SVG Export Plug-In . SVG Version: 6.00 Build 0)  -->
<svg version="1.1" id="Layer_1" xmlns="http://www.w3.org/2000/svg" xmlns:xlink="http://www.w3.org/1999/xlink" x="0px" y="0px"
	 viewBox="0 0 100 100" style="enable-background:new 0 0 100 100;" xml:space="preserve">
<style type="text/css">
	.st0{fill:#FF7F0B;}
	.st1{stroke:#000000;stroke-width:1.5;stroke-miterlimit:10;}
</style>
<path class="st0" d="M100,50c0,27.6-22.4,50-50,50S0,77.6,0,50S22.4,0,50,0S100,22.4,100,50z"/>
<g>
	<g>
		<g>
			<path class="st1" d="M75.4,56c-0.2,0-0.4,0-0.6-0.1l-12.4-3.6c-0.7-0.2-1.3-0.8-1.4-1.6c-0.1-0.8,0.4-1.5,1.1-1.9
				c0,0,9.7-5,12.5-6.5c0.9-0.5,2.1-0.1,2.6,0.8c0.5,0.9,0.1,2.1-0.8,2.6C74.8,46.5,71,48.5,68,50l7.8,2.3c1.1,0.4,1.6,1.4,1.3,2.3
				C76.9,55.4,76.2,56,75.4,56z"/>
		</g>
	</g>
	<g>
		<g>
			<path class="st1" d="M24.8,56c-0.8,0-1.6-0.6-1.9-1.4c-0.4-1.1,0.2-2.1,1.3-2.3L32,50c-3-1.5-6.8-3.5-8.4-4.3
				c-0.9-0.5-1.3-1.6-0.8-2.6s1.6-1.3,2.6-0.8c2.9,1.5,12.5,6.5,12.5,6.5c0.7,0.4,1.1,1.1,1.1,1.9c-0.1,0.8-0.6,1.4-1.4,1.6
				l-12.4,3.6C25.2,55.9,25.1,56,24.8,56z"/>
		</g>
	</g>
</g>
<g>
	<path class="st1" d="M77.5,36.1c-0.1,0-0.2,0-0.3,0c-9.4-1.5-14.1-9-14.3-9.4c-0.6-0.9-0.2-2.1,0.6-2.5c0.9-0.6,2.1-0.2,2.5,0.6
		l0,0c0,0.1,4,6.5,11.7,7.6c1,0.1,1.7,1.2,1.6,2.2S78.4,36.1,77.5,36.1z"/>
</g>
<g>
	<path class="st1" d="M21.5,36.1c-0.9,0-1.7-0.7-1.9-1.6c-0.1-1,0.6-2,1.6-2.2c7.6-1.2,11.7-7.5,11.7-7.6c0.6-0.9,1.7-1.2,2.5-0.6
		c0.9,0.6,1.2,1.7,0.6,2.5c-0.2,0.3-5,8-14.3,9.4C21.8,36.1,21.7,36.1,21.5,36.1z"/>
</g>
<g>
	<g>
		<path d="M66.3,76.6c-1,0-1.8-0.3-2.4-1c-3.4-3.2-8.1-5-13.1-5.2c-5.5-0.3-10.9,1.6-14.6,5.2c-1.5,1.5-3.7,1.3-5.2-0.2
			s-1.3-3.7,0.2-5.2c5-4.9,12.3-7.5,19.9-7.1c6.8,0.3,13.1,2.8,17.8,7.1c1.5,1.5,1.6,3.7,0.2,5.2C68.2,76.1,67.3,76.6,66.3,76.6z"/>
	</g>
</g>
</svg>
