<?xml version="1.0" encoding="utf-8"?>
<!-- Generator: Adobe Illustrator 25.0.1, SVG Export Plug-In . SVG Version: 6.00 Build 0)  -->
<svg version="1.1" id="Layer_1" xmlns="http://www.w3.org/2000/svg" xmlns:xlink="http://www.w3.org/1999/xlink" x="0px" y="0px"
	 viewBox="0 0 100 100" style="enable-background:new 0 0 100 100;" xml:space="preserve">
<style type="text/css">
	.st0{fill:#FFCE00;}
	.st1{fill:#261F11;}
	.st2{fill:#483D23;}
	.st3{fill:#FFFFFF;}
	.st4{fill:#CC342F;}
</style>
<ellipse class="st0" cx="50" cy="50" rx="50" ry="50"/>
<g>
	<g>
		<g>
			<path class="st1" d="M58.7,29.3c-3.2,1.1-7.1,1.2-8.7,1.3c-1.6,0-5.5-0.2-8.7-1.3c-6.1-2-15.9-3.3-23.3-3.1
				c-5.5,0.1-11.2,0.9-14.8,1.6c-1.6,0.3-2.6,1.9-2.2,3.4l0.4,1.6c0.2,1,1,1.7,1.9,2c0.5,0.2,0.9,0.5,1.1,1c0.6,1.7,4.1,11.9,6,15.7
				c1.5,3.1,5.7,5.7,15.4,5.8c13.8,0.1,18.5-9,20.7-14.9c0.2-0.6,0.6-1.8,0.9-2.9c0.4-1.6,1.4-3.2,1.9-3.5c0.3-0.1,0.6-0.2,0.9-0.2
				c0.3,0,0.6,0.1,0.9,0.2c0.4,0.2,1.4,1.8,1.9,3.5c0.3,1.1,0.7,2.3,0.9,2.9c2.2,5.9,7,15,20.7,14.9c9.7,0,13.8-2.7,15.4-5.8
				c1.9-3.8,5.3-14,6-15.7c0.2-0.6,0.7-0.9,1.1-1c0.9-0.3,1.7-1,1.9-2l0.4-1.6c0.4-1.6-0.6-3.1-2.2-3.4c-3.6-0.7-9.3-1.5-14.8-1.6
				C74.6,26,64.8,27.3,58.7,29.3z"/>
		</g>
		<g>
			<path class="st2" d="M56.5,38.4c0.3,6.7,6.8,13.1,12.9,14.5c8.9,2.2,15.6,0.2,19.5-8c1.1-2.5,3.6-7.9,3.4-10.7
				c-0.3-5-6.6-4.1-10.7-4.2C81.1,30,56.1,29.3,56.5,38.4z"/>
		</g>
		<g>
			<path class="st2" d="M43.8,38.4C43.5,45.1,37,51.5,30.9,53c-8.9,2.2-15.6,0.2-19.4-8c-1.1-2.5-3.6-7.9-3.4-10.7
				c0.3-5,6.6-4.1,10.7-4.2C19.2,30,44.2,29.3,43.8,38.4z"/>
		</g>
	</g>
</g>
<g>
	<g>
		<path d="M24.6,64.2c-1.5,0-2.5,1.4-2.1,2.9c2.6,9.5,13.9,16.7,27.5,16.7c13.7,0,25-7.3,27.6-16.9c0.4-1.4-0.7-2.7-2.2-2.7
			C75.4,64.2,24.6,64.2,24.6,64.2z"/>
	</g>
	<g>
		<g>
			<path class="st3" d="M50,69.5c7.4,0,14.2-2,19.6-5.2H30.4C35.8,67.5,42.6,69.5,50,69.5z"/>
		</g>
		<g>
			<path class="st4" d="M50.5,74.6c-5.2,0-10,2.7-13.4,7.1c4,1.4,8.3,2.1,12.7,2.1c4.8,0,9.5-0.9,13.8-2.7
				C60.2,77.1,55.6,74.6,50.5,74.6z"/>
		</g>
	</g>
</g>
</svg>
