<?xml version="1.0" encoding="utf-8"?>
<!-- Generator: Adobe Illustrator 25.0.1, SVG Export Plug-In . SVG Version: 6.00 Build 0)  -->
<svg version="1.1" id="Layer_1" xmlns="http://www.w3.org/2000/svg" xmlns:xlink="http://www.w3.org/1999/xlink" x="0px" y="0px"
	 viewBox="0 0 100 100" style="enable-background:new 0 0 100 100;" xml:space="preserve">
<style type="text/css">
	.st0{fill:#FFCE00;}
	.st1{fill:#61C0EB;}
</style>
<path class="st0" d="M100,50c0,27.6-22.4,50-50,50S0,77.6,0,50S22.4,0,50,0S100,22.4,100,50z"/>
<g>
	<g>
		<g>
			<g>
				<path d="M36,49.4c0,4.8-2.8,8.8-6.1,8.8s-6.1-4-6.1-8.8s2.8-8.8,6.1-8.8C33.3,40.6,36,44.6,36,49.4z"/>
			</g>
		</g>
	</g>
	<g>
		<g>
			<g>
				<path d="M76.2,49.4c0,4.8-2.8,8.8-6.1,8.8c-3.4,0-6.1-4-6.1-8.8s2.8-8.8,6.1-8.8C73.5,40.6,76.2,44.6,76.2,49.4z"/>
			</g>
		</g>
	</g>
</g>
<g>
	<g>
		<path d="M69.6,78.7c1.7,0.4,2.8-2.2,1.7-3.7c-4.9-7.1-12.4-11.7-20.8-11.7s-16,4.6-20.8,11.7c-1.1,1.7,0,4.1,1.7,3.7
			c5.7-1.1,12.3-1.8,19.2-1.8C57.4,76.9,63.9,77.5,69.6,78.7z"/>
	</g>
</g>
<g>
	<g>
		<path d="M80,36.4c-0.1,0-0.2,0-0.4,0C70,34.9,65.2,27.2,65,26.8c-0.6-0.9-0.2-2.1,0.6-2.6c0.9-0.6,2.1-0.2,2.6,0.6
			c0.1,0.1,4.1,6.6,12,7.8c1.1,0.1,1.8,1.2,1.7,2.3C81.8,35.7,80.9,36.4,80,36.4z"/>
	</g>
	<g>
		<path d="M20.7,36.4c-0.9,0-1.8-0.7-1.9-1.7c-0.1-1.1,0.6-2,1.7-2.3c7.8-1.2,12-7.7,12-7.8c0.6-0.9,1.8-1.2,2.6-0.6
			c0.9,0.6,1.2,1.8,0.6,2.6c-0.2,0.4-5.1,8.2-14.7,9.6C20.8,36.3,20.8,36.4,20.7,36.4z"/>
	</g>
</g>
<g>
	<path class="st1" d="M25.5,74.2c0,2.8-2.3,5-5,5s-5-2.3-5-5c0-2.1,2.9-7.1,4.3-9.4c0.4-0.5,1.1-0.5,1.4,0
		C22.6,67,25.5,72.1,25.5,74.2z"/>
</g>
</svg>
