<?xml version="1.0" encoding="utf-8"?>
<!-- Generator: Adobe Illustrator 25.0.1, SVG Export Plug-In . SVG Version: 6.00 Build 0)  -->
<svg version="1.1" id="Layer_1" focusable="false" xmlns="http://www.w3.org/2000/svg" xmlns:xlink="http://www.w3.org/1999/xlink"
	 x="0px" y="0px" viewBox="0 0 24 24" style="enable-background:new 0 0 24 24;" xml:space="preserve">
<style type="text/css">
	.st0{fill:#FFFFFF;}
</style>
<path class="st0" d="M10.1,0h3.8C14.5,0,15,0.5,15,1.1V9h4.1c0.8,0,1.3,1,0.7,1.6l-7.1,7.1c-0.4,0.4-0.9,0.4-1.3,0l-7.1-7.1
	C3.6,10,4.1,9,4.9,9H9V1.1C9,0.5,9.5,0,10.1,0z M24,17.6v5.2c0,0.6-0.5,1.1-1.1,1.1H1.1C0.5,24,0,23.5,0,22.9v-5.2
	c0-0.6,0.5-1.1,1.1-1.1H8l2.3,2.3c0.9,0.9,2.5,0.9,3.4,0l2.3-2.3h6.9C23.5,16.5,24,17,24,17.6z M18.2,21.8c0-0.5-0.4-0.9-0.9-0.9
	s-0.9,0.4-0.9,0.9s0.4,0.9,0.9,0.9S18.2,22.3,18.2,21.8z M21.2,21.8c0-0.5-0.4-0.9-0.9-0.9s-0.9,0.4-0.9,0.9s0.4,0.9,0.9,0.9
	S21.2,22.3,21.2,21.8z"/>
</svg>
