<?xml version="1.0" encoding="utf-8"?>
<!-- Generator: Adobe Illustrator 25.0.1, SVG Export Plug-In . SVG Version: 6.00 Build 0)  -->
<svg version="1.1" id="Layer_1" xmlns="http://www.w3.org/2000/svg" xmlns:xlink="http://www.w3.org/1999/xlink" x="0px" y="0px"
	 viewBox="0 0 39 13" style="enable-background:new 0 0 39 13;" xml:space="preserve">
<style type="text/css">
	.st0{fill:#0073DE;}
</style>
<g>
	<path class="st0" d="M0.4,4.8c0-0.7,0-1.3-0.1-1.8h1.1l0.1,1.1h0c0.4-0.6,1-1.2,2.1-1.2c0.9,0,1.6,0.6,1.9,1.4h0
		C5.8,3.8,6,3.5,6.3,3.3C6.7,3,7.2,2.8,7.8,2.8c0.9,0,2.2,0.6,2.2,2.9v4H8.8V5.9c0-1.3-0.5-2.1-1.5-2.1C6.7,3.8,6.1,4.4,5.9,5
		C5.9,5.1,5.8,5.3,5.8,5.6v4.2H4.6V5.7c0-1.1-0.5-1.9-1.4-1.9c-0.8,0-1.3,0.6-1.5,1.2C1.6,5.2,1.6,5.5,1.6,5.7v4.1H0.4V4.8z"/>
	<path class="st0" d="M12,4.8C12,4.1,12,3.5,12,3h1.1l0.1,1.1h0c0.4-0.6,1-1.2,2.1-1.2c0.9,0,1.6,0.6,1.9,1.4h0
		c0.2-0.4,0.5-0.7,0.8-0.9c0.4-0.3,0.9-0.5,1.5-0.5c0.9,0,2.2,0.6,2.2,2.9v4h-1.2V5.9c0-1.3-0.5-2.1-1.5-2.1c-0.7,0-1.2,0.5-1.5,1.1
		c-0.1,0.2-0.1,0.4-0.1,0.6v4.2h-1.2V5.7c0-1.1-0.5-1.9-1.4-1.9c-0.8,0-1.3,0.6-1.5,1.2c-0.1,0.2-0.1,0.4-0.1,0.6v4.1H12V4.8z"/>
	<path class="st0" d="M25,0.3v4h4.6v-4h1.2v9.4h-1.2V5.3H25v4.4h-1.2V0.3H25z"/>
	<path class="st0" d="M38.7,3c0,0.5-0.1,1-0.1,1.9v3.9c0,1.6-0.3,2.5-1,3.1c-0.7,0.6-1.6,0.8-2.5,0.8c-0.8,0-1.7-0.2-2.3-0.6
		l0.3-0.9c0.4,0.3,1.1,0.5,2,0.5c1.3,0,2.2-0.7,2.2-2.4V8.6h0c-0.4,0.6-1.1,1.1-2.2,1.1c-1.7,0-2.9-1.4-2.9-3.3
		c0-2.3,1.5-3.6,3.1-3.6c1.2,0,1.8,0.6,2.1,1.2h0l0.1-1H38.7z M37.4,5.7c0-0.2,0-0.4-0.1-0.6c-0.2-0.7-0.8-1.3-1.7-1.3
		c-1.2,0-2,1-2,2.6c0,1.3,0.7,2.4,2,2.4c0.8,0,1.4-0.5,1.7-1.3c0.1-0.2,0.1-0.4,0.1-0.7V5.7z"/>
</g>
</svg>
