<svg xmlns="http://www.w3.org/2000/svg" viewBox="0 0 393 512" xmlns:v="https://vecta.io/nano"><path d="M378.9 98.45L295 14.55c-9-9-21.2-14.1-33.9-14.1H48c-26.5.1-48 21.6-48 48.1v416c0 26.5 21.5 48 48 48h297c26.5 0 48-21.5 48-48v-332.1c0-12.7-5.1-25-14.1-34zm-37.8 30.1H265v-76.1l76.1 76.1zM48 464.55v-416h169v104c0 13.3 10.7 24 24 24h104v288H48zm252.6-98.14l-39.7-39.69c-1.66-1.66-3.62-2.93-5.76-3.75 7.93-13.61 12.07-28.97 12.07-45.05 0-49.52-40.29-89.81-89.81-89.81s-89.81 40.29-89.81 89.81 40.29 89.81 89.81 89.81c16.08 0 31.45-4.14 45.05-12.07.82 2.14 2.08 4.1 3.75 5.76l39.69 39.69a16.46 16.46 0 0 0 11.71 4.86 16.33 16.33 0 0 0 11.68-4.86l11.27-11.27c6.45-6.44 6.48-16.94.05-23.43zm-123.19-44.54c-24.24 0-43.96-19.72-43.96-43.96s19.72-43.96 43.96-43.96 43.96 19.72 43.96 43.96-19.72 43.96-43.96 43.96z"/></svg>