<?xml version="1.0" encoding="utf-8"?>
<!-- Generator: Adobe Illustrator 25.0.1, SVG Export Plug-In . SVG Version: 6.00 Build 0)  -->
<svg version="1.1" id="Layer_1" focusable="false" xmlns="http://www.w3.org/2000/svg" xmlns:xlink="http://www.w3.org/1999/xlink"
	 x="0px" y="0px" viewBox="0 0 24 24" style="enable-background:new 0 0 24 24;" xml:space="preserve">
<style type="text/css">
	.st0{fill:#FFFFFF;}
</style>
<path class="st0" d="M13.9,18h-3.8C9.5,18,9,17.5,9,16.9V9H4.9C4.1,9,3.6,8,4.2,7.4l7.1-7.1c0.4-0.4,0.9-0.4,1.3,0l7.1,7.1
	C20.4,8,19.9,9,19.1,9H15v7.9C15,17.5,14.5,18,13.9,18z M24,17.7v5.2c0,0.6-0.5,1.1-1.1,1.1H1.1C0.5,24,0,23.5,0,22.9v-5.2
	c0-0.6,0.5-1.1,1.1-1.1h6.4v0.4c0,1.4,1.2,2.6,2.6,2.6h3.8c1.4,0,2.6-1.2,2.6-2.6v-0.4h6.4C23.5,16.5,24,17,24,17.7z M18.2,21.8
	c0-0.5-0.4-0.9-0.9-0.9s-0.9,0.4-0.9,0.9s0.4,0.9,0.9,0.9S18.2,22.3,18.2,21.8z M21.2,21.8c0-0.5-0.4-0.9-0.9-0.9s-0.9,0.4-0.9,0.9
	s0.4,0.9,0.9,0.9S21.2,22.3,21.2,21.8z"/>
</svg>
