<?xml version="1.0" encoding="utf-8"?>
<!-- Generator: Adobe Illustrator 21.0.0, SVG Export Plug-In . SVG Version: 6.00 Build 0)  -->
<svg version="1.1" id="Layer_1" xmlns="http://www.w3.org/2000/svg" xmlns:xlink="http://www.w3.org/1999/xlink" x="0px" y="0px"
	 viewBox="0 0 500 302" style="enable-background:new 0 0 500 302;" xml:space="preserve">
<style type="text/css">
	.st0{fill-rule:evenodd;clip-rule:evenodd;fill:#EEEEEE;}
	.st1{fill-rule:evenodd;clip-rule:evenodd;fill:#A0D8D5;}
	.st2{fill-rule:evenodd;clip-rule:evenodd;fill:#B5E5E5;}
	.st3{fill-rule:evenodd;clip-rule:evenodd;fill:#00000F;}
	.st4{fill-rule:evenodd;clip-rule:evenodd;fill:#3B405F;}
	.st5{fill-rule:evenodd;clip-rule:evenodd;fill:#101537;}
	.st6{fill-rule:evenodd;clip-rule:evenodd;fill:#5EB9BD;}
	.st7{fill-rule:evenodd;clip-rule:evenodd;fill:#FFFFFF;}
	.st8{fill-rule:evenodd;clip-rule:evenodd;fill:#E4E1E8;}
	.st9{fill-rule:evenodd;clip-rule:evenodd;fill:#D64C47;}
	.st10{fill:#FFFFFF;}
	.st11{font-family:'OpenSans-Bold';}
	.st12{font-size:5.4055px;}
	.st13{font-family:'RobotoCondensed-Bold';}
	.st14{font-size:42.0217px;}
	.st15{fill:#D64C47;}
	.st16{font-size:1.8018px;}
	.st17{fill-rule:evenodd;clip-rule:evenodd;fill:#070725;}
	.st18{fill-rule:evenodd;clip-rule:evenodd;fill:#D58750;}
	.st19{fill-rule:evenodd;clip-rule:evenodd;fill:#B56B41;}
	.st20{fill-rule:evenodd;clip-rule:evenodd;fill:#AEABBA;}
	.st21{fill-rule:evenodd;clip-rule:evenodd;fill:#ED7862;}
	.st22{fill-rule:evenodd;clip-rule:evenodd;fill:#F5AC83;}
	.st23{fill-rule:evenodd;clip-rule:evenodd;fill:#181D3B;}
	.st24{fill-rule:evenodd;clip-rule:evenodd;fill:#F18A00;}
	.st25{fill-rule:evenodd;clip-rule:evenodd;fill:#FCC100;}
	.st26{fill-rule:evenodd;clip-rule:evenodd;fill:#707386;}
	.st27{fill-rule:evenodd;clip-rule:evenodd;fill:#294D3C;}
	.st28{fill-rule:evenodd;clip-rule:evenodd;fill:#4A9075;}
	.st29{fill-rule:evenodd;clip-rule:evenodd;fill:#1B7154;}
	.st30{fill-rule:evenodd;clip-rule:evenodd;fill:#A6C86B;}
	.st31{fill-rule:evenodd;clip-rule:evenodd;fill:#5F9850;}
</style>
<g>
	<g>
		<path class="st0" d="M108.5,210.9H66.2h-1.1c-23.3,0-42.4,19.1-42.4,42.4l0,0c0,23.3,19.1,42.4,42.4,42.4h123.7h21.3h221.2
			c37.7,0,68.6-30.9,68.6-68.6v0c0-37.7-30.9-68.6-68.6-68.6l0,0c-16,0-29-13.1-29-29l0,0c0-16,13.1-29,29-29h34.9
			c16.6,0,30.2-13.6,30.2-30.2l0,0c0-16.6-13.6-30.2-30.2-30.2h-44.2c-6.5,0-11.7-5.3-11.7-11.7l0,0c0-6.5,5.3-11.7,11.7-11.7h7.8
			c4.5,0,8.1-3.6,8.1-8.1l0,0c0-4.5-3.6-8.1-8.1-8.1h-29.2c0,0-11.1,0-21.9,0c-10.8,0-12,12.7-39.1,12.7c-42,0-21,0-63,0
			c-5.8,0-10.6,4.8-10.6,10.6l0,0c0,5.8,4.8,10.6,10.6,10.6h10.2c8.4,0,15.3,6.9,15.3,15.3v0c0,8.4-6.9,15.3-15.3,15.3h-30.6
			c-41.3,0-47.1,10.8-54.3,32.2c-7.2,21.5-44.8,23.2-44.8,23.2h-51.3c-12.7,0-23.1,10.4-23.1,23.1l0,0c0,12.7,10.4,23.1,23.1,23.1
			h2.6c12.2,0,22.2,10,22.2,22.2l0,0C130.7,200.9,120.7,210.9,108.5,210.9L108.5,210.9z"/>
		<circle class="st0" cx="452.7" cy="8.4" r="8.1"/>
		<circle class="st0" cx="248.7" cy="23.6" r="10.2"/>
		<circle class="st0" cx="55.5" cy="142.7" r="19.8"/>
	</g>
	<path class="st1" d="M160.3,254.2c0,0-15.6-8.1-12.8-27.9c2.9-19.8-9.2-26.1-12.3-32c-3.1-5.9,3.8-15.4,3-23.7
		c-0.8-8.3-10.4-10.5-5.9-22c4.5-11.4,0.7-15.8-5.2-28c-5.9-12.2,2.9-30.9,7-30.8c4.2,0.1-0.9,4.5,2.8,12.6
		c3.7,8.1,19.1,10.6,24,17.4c4.8,6.8-3.7,15.8,1.9,25c5.5,9.2,22,6.3,26.3,15.2c4.3,8.9-6,19.6-3,28.9c3,9.3,14.1,14.6,18.8,22.1
		c4.7,7.5,13.4,21.9-0.9,39C189.6,267.3,160.3,254.2,160.3,254.2z"/>
	<g>
		<path class="st2" d="M132.5,106.8c-0.2-0.5,0.1-1.1,0.6-1.3c0.5-0.2,1.1,0.1,1.3,0.6l64.7,168.1l-2.4-0.7L132.5,106.8z"/>
		<path class="st2" d="M147.4,234.1c-0.1-0.8-0.1-1.6-0.2-2.4l42.5,23.9l-3.8-9.8c0,0,0-0.1,0-0.1l-1.9-5l-36-20.2
			c0-0.8,0-1.6-0.1-2.4l34.9,19.6l-3.4-8.8l-33.3-18.7c-0.4-1.1-0.9-2.2-1.4-3.1l33.5,18.8l-1.7-4.4c0,0,0-0.1-0.1-0.1l-7.4-19.2
			l-33.3-18.7c0.2-0.7,0.4-1.3,0.6-2l31.5,17.7l-3.7-9.6l-26.2-14.7c0.1-0.7,0.2-1.5,0.2-2.2l24.9,14l-2.8-7.2c0,0,0-0.1,0-0.1
			l-8.1-20.9l-19.5-10.9c0.2-0.7,0.5-1.3,0.6-2l17.7,9.9l-7-18.3c0,0,0-0.1,0-0.1l-11.6-30.2c-0.2-0.5,0.1-1.1,0.6-1.3
			c0.5-0.2,1.1,0.1,1.3,0.6l10.6,27.4l6-20.6c0.6,0.3,1.2,0.6,1.8,0.9l-6.7,22.8l7.9,20.6c0,0,0,0.1,0,0.1l7.3,19.1l11.6-24.8
			c0.7,0.2,1.3,0.4,2,0.6l-12.5,26.9l2.8,7.3l15.3-32.5c0.7,0.2,1.3,0.5,1.9,0.7l-15.9,33.9l0.2,0.1c0.5,0.3,0.7,0.9,0.4,1.4
			c-0.1,0.1-0.2,0.3-0.3,0.3l4.1,10.7c0,0,0,0.1,0,0.1l6.7,17.3l11.3-24c0.4,0.6,0.9,1.2,1.4,1.8l-11.7,24.9l1.7,4.5l12.5-26.7
			c0.5,0.5,1,1,1.6,1.5l-13.1,27.8l4.4,11.4c0,0,0,0.1,0,0.1l1.2,3.1l16.1-34.2c0.5,0.6,1,1.2,1.4,1.8l-16.4,35l4.6,12
			c0,0,0,0.1,0,0.1l0,0c-0.8,0.3-1.6,0.5-2.4,0.6L147.4,234.1z"/>
	</g>
	<path class="st1" d="M153.1,295.7c-4.3-3.3-8.7-4.9-11.1-7c-4.7-4.3-1.5-15.1-4.9-22.3c-3.4-7.2-12.7-6.1-12.4-17.9
		c0.4-11.7-4.4-14.4-13.7-23.5c-9.3-9.1-7.4-28.7-3.6-30c3.8-1.2,0.6,4.3,6.5,10.5c5.9,6.1,20.6,3.4,27.2,7.9
		c6.5,4.6,1.8,15.4,9.7,21.9c7.9,6.5,21.8-1.4,28.6,5.2c6.8,6.6,0.9,19.5,6.6,27c5.7,7.4,17.4,8.6,24,13.9
		c3.7,2.9,9.3,7.4,12.2,14.4H153.1z"/>
	<path class="st2" d="M184.4,295.7l-9.4-10.9l-36-6.1c0-0.7-0.1-1.3-0.1-2l34.1,5.8l-6.4-7.4l-28.3-4.8c-0.1-0.7-0.3-1.4-0.5-2.1
		l26.9,4.6l-4.8-5.6c0,0,0-0.1-0.1-0.1l-14-16.2l-21-3.6c0-0.7,0-1.4-0.1-2l19.1,3.2l-12.2-14.2c0,0,0-0.1-0.1-0.1l-20.2-23.4
		c-0.4-0.4-0.3-1,0.1-1.4c0.4-0.4,1-0.3,1.4,0.1l18.3,21.3l-1.2-20.5c0.7,0.1,1.3,0.2,2,0.3l1.3,22.7l13.8,16c0,0,0,0,0.1,0.1
		l12.7,14.8l2.4-26.1c0.7,0,1.3-0.1,2-0.1l-2.6,28.2l4.9,5.6l3.3-34.1c0.7,0,1.3,0,2,0l-3.4,35.6l0.3,0c0.5,0.1,0.9,0.6,0.8,1.1
		c0,0.2-0.1,0.3-0.2,0.4l7.2,8.3c0,0,0,0,0.1,0.1l10.7,12.4H184.4L184.4,295.7z M188,295.7l2.3-24.2c0.6,0.4,1.2,0.8,1.8,1.1
		l-2.2,23.1H188L188,295.7z M193.2,295.7l2.1-21.5c0.6,0.3,1.2,0.6,1.9,0.8l-2,20.7H193.2L193.2,295.7z M206,295.7l1.5-16
		c0.6,0.4,1.3,0.8,1.8,1.2l-1.4,14.8H206z"/>
	<path class="st3" d="M3,301.7h461.4c1.6,0,3-1.3,3-3l0,0c0-1.6-1.3-3-3-3H3c-1.6,0-3,1.3-3,3l0,0C0,300.4,1.3,301.7,3,301.7z"/>
	<g>
		<g>
			<path class="st3" d="M306.2,155.7h-49.1c-1.8,0-3.2,1.5-3.2,3.2l0,0c0,1.8,1.5,3.2,3.2,3.2h49.1c1.8,0,3.2-1.5,3.2-3.2l0,0
				C309.4,157.1,308,155.7,306.2,155.7z"/>
			<path class="st4" d="M304.5,132.6c-7.6,0-15.1,0-22.7,0c-0.2,0-0.4,0.2-0.4,0.3l-4.1,28.9c0,0.2,0.1,0.3,0.3,0.3
				c17.6,0,13.5,0,31.1,0c0.2,0,0.3-0.2,0.3-0.3l-4.1-28.9C304.9,132.7,304.7,132.6,304.5,132.6z"/>
			<path class="st4" d="M318.2,155.7h-49.1c-1.8,0-3.2,1.5-3.2,3.2l0,0c0,1.8,1.5,3.2,3.2,3.2h49.1c1.8,0,3.2-1.5,3.2-3.2l0,0
				C321.4,157.1,320,155.7,318.2,155.7z"/>
			<path class="st3" d="M342.9,68.9H234c-0.9,0-1.7,0.8-1.7,1.7v72.8c0,0.9,0.8,1.7,1.7,1.7h108.8c0.9,0,1.7-0.8,1.7-1.7V70.6
				C344.6,69.7,343.8,68.9,342.9,68.9z"/>
			<path class="st4" d="M348.2,68.9H239.4c-0.9,0-1.7,0.8-1.7,1.7v72.8c0,0.9,0.8,1.7,1.7,1.7h108.8c0.9,0,1.7-0.8,1.7-1.7V70.6
				C349.9,69.7,349.1,68.9,348.2,68.9z"/>
			<path class="st5" d="M347.3,70h-107c-0.6,0-1.1,0.5-1.1,1.1v65.6c0,0.4,0.3,0.7,0.7,0.7h107.9c0.4,0,0.7-0.3,0.7-0.7V71.1
				C348.4,70.5,347.9,70,347.3,70z"/>
			<rect x="242.3" y="73.1" class="st6" width="103" height="61.1"/>
			<path class="st5" d="M284.2,148.1l-1.1,7.6h-4.9l1.5-10.6h25.5h1.4l0.4,2.7c-0.5,0-1,0-1.4,0c-7,0-14,0-21,0
				C284.4,147.7,284.3,147.9,284.2,148.1z"/>
			<rect x="242.3" y="73.1" class="st7" width="103.3" height="3.5"/>
			<rect x="242.3" y="130.8" class="st7" width="103.3" height="3.5"/>
			<rect x="243" y="73.9" class="st8" width="25.9" height="2"/>
			<circle class="st9" cx="267.7" cy="74.9" r="0.4"/>
			<circle class="st9" cx="266.3" cy="74.9" r="0.4"/>
			<circle class="st9" cx="265" cy="74.9" r="0.4"/>
			<rect x="270.1" y="73.9" class="st8" width="25.9" height="2"/>
			<circle class="st9" cx="294.8" cy="74.9" r="0.4"/>
			<circle class="st9" cx="293.5" cy="74.9" r="0.4"/>
			<circle class="st9" cx="292.1" cy="74.9" r="0.4"/>
			<text transform="matrix(1 0 0 1 251.5639 114.1734)"><tspan x="0" y="0" class="st10 st11 st12">E</tspan><tspan x="3" y="0" class="st10 st11 st12">RROR </tspan></text>
			<text transform="matrix(1 0 0 1 262.7968 114.1207)"><tspan x="0" y="0" class="st10 st13 st14">4</tspan><tspan x="21.3" y="0" class="st10 st13 st14">04</tspan></text>
			<g>
				<rect x="279.8" y="124" class="st7" width="12.3" height="4.1"/>
				<rect x="295.4" y="124" class="st7" width="12.3" height="4.1"/>
				<text transform="matrix(1 0 0 1 282.3515 126.8258)"><tspan x="0" y="0" class="st15 st11 st16">R</tspan><tspan x="1.2" y="0" class="st15 st11 st16">ELOAD</tspan></text>
				<text transform="matrix(1 0 0 1 298.7841 126.8258)"><tspan x="0" y="0" class="st15 st11 st16">H</tspan><tspan x="1.4" y="0" class="st15 st11 st16">OME</tspan></text>
			</g>
			<path class="st7" d="M250.2,117.4h87.1c0.3,0,0.6,0.2,0.6,0.6l0,0c0,0.3-0.2,0.6-0.6,0.6h-87.1c-0.3,0-0.6-0.2-0.6-0.6l0,0
				C249.7,117.6,249.9,117.4,250.2,117.4z"/>
			<path class="st7" d="M257.1,120h73.4c0.3,0,0.6,0.2,0.6,0.6l0,0c0,0.3-0.2,0.6-0.6,0.6h-73.4c-0.3,0-0.6-0.2-0.6-0.6l0,0
				C256.5,120.2,256.8,120,257.1,120z"/>
		</g>
		<path class="st5" d="M293,152.4h63.8c3.6,0,6.5,2.9,6.5,6.5l0,0c0,3.6-2.9,6.5-6.5,6.5H293c-3.6,0-6.5-2.9-6.5-6.5l0,0
			C286.5,155.3,289.5,152.4,293,152.4z"/>
		<path class="st17" d="M280.8,152.4h29.6c3.6,0,6.5,2.9,6.5,6.5l0,0c0,3.6-2.9,6.5-6.5,6.5h-29.6c-3.6,0-6.5-2.9-6.5-6.5l0,0
			C274.4,155.3,277.3,152.4,280.8,152.4z"/>
	</g>
	<path class="st5" d="M247.9,163h197.9c2,0,3.6,1.6,3.6,3.6v16.9c0,2-1.6,3.6-3.6,3.6H247.9c-2,0-3.6-1.6-3.6-3.6v-16.9
		C244.2,164.7,245.9,163,247.9,163z"/>
	<path class="st3" d="M247.8,163h198.1c1.9,0,3.5,1.6,3.5,3.6v6.7c0,2-1.6,3.6-3.5,3.6H247.8c-1.9,0-3.5-1.6-3.5-3.6v-6.7
		C244.2,164.7,245.8,163,247.8,163z"/>
	<path class="st3" d="M193.5,163.3h54.8c2.1,0,3.8,1.7,3.8,3.8v124.7c0,2.1-1.7,3.8-3.8,3.8h-54.8c-2.1,0-3.8-1.7-3.8-3.8V167.1
		C189.7,165,191.4,163.3,193.5,163.3z"/>
	<path class="st5" d="M247.6,163.3h49c1.9,0,3.4,1.5,3.4,3.4v125.5c0,1.9-1.5,3.4-3.4,3.4h-49c-1.9,0-3.4-1.5-3.4-3.4V166.7
		C244.2,164.8,245.7,163.3,247.6,163.3z"/>
	<path class="st18" d="M245.5,158.9h212.4c0.7,0,1.2,0.6,1.2,1.2v5.8c0,0.7-0.6,1.2-1.2,1.2H245.5c-0.7,0-1.2-0.6-1.2-1.2v-5.8
		C244.2,159.5,244.8,158.9,245.5,158.9z"/>
	<path class="st19" d="M184.6,158.9h60.6c0.7,0,1.2,0.6,1.2,1.2v5.8c0,0.7-0.6,1.2-1.2,1.2h-60.6c-0.7,0-1.2-0.6-1.2-1.2v-5.8
		C183.3,159.5,183.9,158.9,184.6,158.9z"/>
	<path class="st7" d="M251.2,171.3H293c1.5,0,2.8,1.3,2.8,2.8v32.4c0,1.5-1.3,2.8-2.8,2.8h-41.8c-1.5,0-2.8-1.3-2.8-2.8v-32.4
		C248.4,172.6,249.6,171.3,251.2,171.3z"/>
	<path class="st8" d="M295.8,207h-41.2c-1.1,0-2.1-0.6-2.5-1.6c-0.2-0.4-0.3-0.8-0.3-1.2v-32.4c0-0.1,0-0.3,0-0.4h-0.6
		c-1.5,0-2.8,1.3-2.8,2.8v32.4c0,1.5,1.3,2.8,2.8,2.8h0.8h41C294.4,209.3,295.6,208.3,295.8,207z"/>
	<path class="st17" d="M262,173.6h20.2c0.6,0,1.1,0.5,1.1,1.1v0.3c0,0.6-0.5,1.1-1.1,1.1H262c-0.6,0-1.1-0.5-1.1-1.1v-0.3
		C260.9,174.1,261.4,173.6,262,173.6z"/>
	<path class="st7" d="M251.2,211.4H293c1.5,0,2.8,1.3,2.8,2.8v32.4c0,1.5-1.3,2.8-2.8,2.8h-41.8c-1.5,0-2.8-1.3-2.8-2.8v-32.4
		C248.4,212.6,249.6,211.4,251.2,211.4z"/>
	<path class="st8" d="M295.8,247h-41.2c-1.1,0-2.1-0.6-2.5-1.6c-0.2-0.4-0.3-0.8-0.3-1.2v-32.4c0-0.1,0-0.3,0-0.4h-0.6
		c-1.5,0-2.8,1.3-2.8,2.8v32.4c0,1.5,1.3,2.8,2.8,2.8h0.8h41C294.4,249.4,295.6,248.3,295.8,247z"/>
	<path class="st17" d="M262,213.6h20.2c0.6,0,1.1,0.5,1.1,1.1v0.3c0,0.6-0.5,1.1-1.1,1.1H262c-0.6,0-1.1-0.5-1.1-1.1v-0.3
		C260.9,214.1,261.4,213.6,262,213.6z"/>
	<path class="st7" d="M251.2,251.4H293c1.5,0,2.8,1.3,2.8,2.8v32.4c0,1.5-1.3,2.8-2.8,2.8h-41.8c-1.5,0-2.8-1.3-2.8-2.8v-32.4
		C248.4,252.6,249.6,251.4,251.2,251.4z"/>
	<path class="st8" d="M295.8,287h-41.2c-1.1,0-2.1-0.6-2.5-1.6c-0.2-0.4-0.3-0.8-0.3-1.2v-32.4c0-0.1,0-0.3,0-0.4h-0.6
		c-1.5,0-2.8,1.3-2.8,2.8v32.4c0,1.5,1.3,2.8,2.8,2.8h0.8h41C294.4,289.4,295.6,288.4,295.8,287z"/>
	<path class="st17" d="M262,253.6h20.2c0.6,0,1.1,0.5,1.1,1.1v0.3c0,0.6-0.5,1.1-1.1,1.1H262c-0.6,0-1.1-0.5-1.1-1.1v-0.3
		C260.9,254.1,261.4,253.6,262,253.6z"/>
	<g>
		<path class="st20" d="M416.2,163.3h-7.6c-0.2,0-0.3,0.1-0.3,0.3v133.2c0,0.2,0.2,0.3,0.3,0.3h7.6c0.2,0,0.3-0.2,0.3-0.3V163.7
			C416.5,163.5,416.4,163.3,416.2,163.3z"/>
		<path class="st7" d="M416.1,163.3h-2.4c-0.9,0-1.7,0.8-1.7,1.7v130.5c0,0.9,0.8,1.7,1.7,1.7h2.4c0.9,0,1.7-0.8,1.7-1.7V165
			C417.8,164.1,417,163.3,416.1,163.3z"/>
		<path class="st20" d="M451.6,163.3H444c-0.2,0-0.3,0.1-0.3,0.3v133.2c0,0.2,0.1,0.3,0.3,0.3h7.6c0.2,0,0.3-0.2,0.3-0.3V163.7
			C451.9,163.5,451.8,163.3,451.6,163.3z"/>
		<path class="st7" d="M451.5,163.3h-2.4c-0.9,0-1.7,0.8-1.7,1.7v130.5c0,0.9,0.8,1.7,1.7,1.7h2.4c0.9,0,1.7-0.8,1.7-1.7V165
			C453.2,164.1,452.4,163.3,451.5,163.3z"/>
		<path class="st19" d="M334.6,158.9h123.3c0.7,0,1.2,0.6,1.2,1.2v5.8c0,0.7-0.6,1.2-1.2,1.2H342.6
			C340.4,164.1,337.5,161.4,334.6,158.9z"/>
		<path class="st21" d="M379.3,123.1l1.5,2.6c0,0,0.6,3.1-0.3,5.3c-0.9,2.1,10.3,4.5,10.3,4.5l8.7-7l1.9-2.4c0,0-4.1-4.4-4.3-6.3
			C396.9,117.9,379.3,123.1,379.3,123.1z"/>
		<path class="st22" d="M360,147.9c0,0-5.9,4.7-7.9,5.1c-2,0.4-10.9-3.8-12.7-4.2c-1.8-0.5-5.8-0.5-8.6-0.5c-2.8,0-5.8,1.1-7.3,4.2
			c0,0,4.4,0,6,0c1.6,0,7,4.4,12.3,8c5.3,3.6,9.4,6.6,12.9,6.2c3.5-0.4,15.4-9.3,15.4-9.3L360,147.9z"/>
		<path class="st21" d="M341.8,160.4c5.3,3.6,9.4,6.6,12.9,6.2c3.5-0.4,15.4-9.3,15.4-9.3l-10.1-9.4c0,0-1.4,1.1-3,2.3
			c4.3,6.8,2.3,9.7-2.7,11.7c-4,1.6-14.2-4-20.6-7.1C336.1,156.4,339,158.5,341.8,160.4z"/>
		<path class="st17" d="M407.8,203c0,0-30.2-0.3-34,0c-3.7,0.3-7.3,4.3-6.7,10.3c0.6,6.1,9.1,53.4,9.1,53.4s0.6,0.4,1.2,0.6
			c0.7,0.1,6.1,1,6.1,1l0.4-4.4l-3.2-46l27.9-5.1L407.8,203z"/>
		<path class="st9" d="M383.9,264c0,0,0.6,0.2,0.9,1c0.3,0.8,0.9,6,0.8,6.8c-0.1,0.7-1.9,2.2-5.1,3.5c-3.2,1.4-15.3,4.9-15.3,4.9
			l-0.1-0.4c0,0-0.6-0.2-0.8-1c-0.2-0.7-0.2-2.4,0.5-3.3c0.7-0.9,4.6-3.6,5.3-4.2c0.7-0.6,4.3-5.5,4.6-5.8c0.3-0.3,2.2-1.5,4.4-0.3
			C381.2,266.3,383.7,265.9,383.9,264z"/>
		<path class="st7" d="M365,279.8c0,0,12.1-4.4,14.8-5.4c2.7-0.9,5.8-3.5,5.8-3.5s0.4,0.2,0.5,0.5c0.1,0.4,0.2,1.6,0.2,1.9
			c0,0.3-0.1,1.4-1.4,2c-1.3,0.6-18.2,6.5-19,6.8c-0.8,0.3-1.1-1.8-1.1-1.8S364.7,279.9,365,279.8z"/>
		<path class="st23" d="M426.5,184.3c0,0-80.8,9.3-85.2,10.3c-4.4,1-8.1,6.2-6.4,13.4c1.7,7.2,19.8,64.7,19.8,64.7s0.7,0.4,1.6,0.5
			c0.8,0.1,7.4,0.3,7.4,0.3l2.6-2.7l-14.5-51.4l59-3C427.3,213.7,429.6,193.6,426.5,184.3z"/>
		<path class="st9" d="M369.7,190.4c0,0,6.5,4.8,10.3,3.2c3.9-1.6,22.5-33.7,22.5-33.7l-9-32.3c0,0-6,0.2-13.1,1.8l-1.3,1.2
			c0,0-5.3,0.9-8.2,4.2s-12.8,12.1-13.1,12.8c-0.4,0.7,8.5,10.5,10.8,12.1c0,0,1.1,0.4,1.7-0.3l1.1-0.9c0,0,2.4,12.4,2.4,16.1
			c0,3.7,0,3.7,0,3.7s-1.3,9.5-2.2,10.4C370.6,189.7,369.7,190.4,369.7,190.4z"/>
		<path class="st7" d="M398.5,196.6c1.5,0,2.7-1.2,2.7-2.7c0-1.5-1.2-2.7-2.7-2.7h-23.9c-3.3,0-6.2-1.3-8.4-3.5
			c-1.6-1.6-2.7-3.6-3.2-5.8c-1.6,0.6-3.3,1.5-5,2.4c0.8,2.8,2.3,5.2,4.3,7.2c3.1,3.1,7.5,5.1,12.2,5.1H398.5z"/>
		<rect x="398.7" y="218" class="st17" width="6.9" height="56.5"/>
		<rect x="389.6" y="199" class="st3" width="6.7" height="15.3"/>
		<rect x="435.8" y="199" class="st3" width="6.7" height="15.3"/>
		<path class="st4" d="M398.7,232h6.9c2.2,0,4-1.8,4-4v-7.3c0-2.2-1.8-4-4-4h-6.9c-2.2,0-4,1.8-4,4v7.3
			C394.7,230.2,396.5,232,398.7,232z"/>
		<path class="st17" d="M393.2,227H411c0.6,0,1.1-0.5,1.1-1.1v-9.2c0-0.6-0.5-1.1-1.1-1.1h-17.8c-0.6,0-1.1,0.5-1.1,1.1v9.2
			C392.1,226.5,392.6,227,393.2,227z"/>
		<path class="st24" d="M349.4,211.1h55.7c2.1,0,3.8,1.7,3.8,3.8v4.3c0,2.1-1.7,3.8-3.8,3.8h-55.7c-2.1,0-3.8-1.7-3.8-3.8v-4.3
			C345.6,212.8,347.3,211.1,349.4,211.1z"/>
		<path class="st25" d="M389.9,211.1h55.7c2.1,0,3.8,1.7,3.8,3.8v4.3c0,2.1-1.7,3.8-3.8,3.8h-55.7c-2.1,0-3.8-1.7-3.8-3.8v-4.3
			C386.1,212.8,387.8,211.1,389.9,211.1z"/>
		<path class="st4" d="M398.7,270.8h6.9c2.2,0,4,1.8,4,4v7.3c0,2.2-1.8,4-4,4h-6.9c-2.2,0-4-1.8-4-4v-7.3
			C394.7,272.6,396.5,270.8,398.7,270.8z"/>
		<path class="st17" d="M393.7,278.1h16.8c0.9,0,1.6,0.7,1.6,1.6v13.3c0,0.9-0.7,1.6-1.6,1.6h-16.8c-0.9,0-1.6-0.7-1.6-1.6v-13.3
			C392.1,278.8,392.8,278.1,393.7,278.1z"/>
		<path class="st26" d="M420.3,290.6L420.3,290.6c0,2.7-2.2,4.9-4.9,4.9h-26.6c-2.7,0-4.9-2.2-4.9-4.9l0,0c0-2.7,2.2-4.9,4.9-4.9
			h26.6C418.1,285.7,420.3,287.9,420.3,290.6z"/>
		<path class="st5" d="M446.2,295.6L446.2,295.6c0,2.7-2.2,4.9-4.9,4.9h-67.6c-2.7,0-4.9-2.2-4.9-4.9l0,0c0-2.7,2.2-4.9,4.9-4.9
			h67.6C444,290.6,446.2,292.9,446.2,295.6z"/>
		<path class="st3" d="M403.9,295.6L403.9,295.6c0,2.7-2.2,4.9-4.9,4.9h-36c-2.7,0-4.9-2.2-4.9-4.9l0,0c0-2.7,2.2-4.9,4.9-4.9h36
			C401.7,290.6,403.9,292.9,403.9,295.6z"/>
		<path class="st7" d="M388.5,178.4c1.5,0,2.7,1.2,2.7,2.7c0,1.5-1.2,2.7-2.7,2.7h-23.9c-3.3,0-6.2,1.3-8.4,3.5
			c-2.2,2.2-3.5,5.1-3.5,8.4v21.5c0,1.5-1.2,2.7-2.7,2.7c-1.5,0-2.7-1.2-2.7-2.7v-21.5c0-4.8,1.9-9.1,5.1-12.2
			c3.1-3.1,7.5-5.1,12.2-5.1H388.5z"/>
		<path class="st24" d="M441.5,149.5c0-16.3-13.4-29.7-29.7-29.7h-3.9c-16.3,0-29.7,13.4-29.7,29.7c0,11.4,0,32.8,0,44.2
			c0,4.2,3.4,7.6,7.6,7.6h48.1c4.2,0,7.6-3.4,7.6-7.6C441.5,182.3,441.5,160.9,441.5,149.5z"/>
		<path class="st25" d="M449.4,149.5c0-16.3-13.4-29.7-29.7-29.7h-3.9c-16.3,0-29.7,13.4-29.7,29.7c0,11.4,0,32.8,0,44.2
			c0,4.2,3.4,7.6,7.6,7.6h48.1c4.2,0,7.6-3.4,7.6-7.6C449.4,182.3,449.4,160.9,449.4,149.5z"/>
		<path class="st9" d="M365.6,268.7c0,0,1,0,1.7,0.9c0.7,0.9,3,6.8,3.1,7.7c0.1,0.9-2.4,3.2-7,5.7c-4.6,2.6-22.5,10.5-22.5,10.5
			l-0.3-0.5c0,0-1-0.1-1.5-0.9c-0.6-0.8-0.9-2.8-0.1-4.1c0.8-1.3,6.2-5.7,7.1-6.6c1-0.9,5.1-7.8,5.5-8.3c0.4-0.5,3-2.4,6.8-1.7
			C362,272.3,365.8,271,365.6,268.7z"/>
		<path class="st7" d="M340.5,293c0,0,17.7-8.9,21.5-10.8c3.9-1.9,8.1-5.8,8.1-5.8s0.7,0.1,1,0.5c0.2,0.4,0.7,1.8,0.8,2.1
			c0.1,0.3,0.3,1.7-1.6,2.8c-1.9,1.1-26.6,13.3-27.8,13.8c-1.1,0.5-2.2-1.8-2.2-1.8S340.1,293.3,340.5,293z"/>
		<path class="st22" d="M374.2,86.8l2.9-0.7c6.8-1.6,13.8,2.7,15.4,9.5l3.2,13.7c1.6,6.8-2.7,13.8-9.5,15.4l-2.9,0.7
			c-6.9,1.6-13.8-2.7-15.4-9.5l-3.2-13.7C363.1,95.3,367.4,88.4,374.2,86.8z"/>
		<path class="st21" d="M392.8,97.2l2.8,12.1c1.6,6.8-2.7,13.8-9.5,15.4l-2.9,0.7c-2.8,0.7-5.7,0.3-8.2-0.8c0.3,0.1,2.8,1.1,3.3-0.7
			c0.6-1.9-2.7-8.1-2.7-8.1s-0.2-0.4,0.1-0.8c0.3-0.4,2.2-3.8,1.4-7.9c-0.8-4.1,4.5-7,4.5-7l-12.3,3.3v2.5c0,0-1.3-2.8-4.4-3.1
			l-0.2-0.7c-0.8-3.2-0.2-6.5,1.3-9.2C370.1,93.5,383.4,95.2,392.8,97.2z"/>
		<path class="st5" d="M370,109.8c0,0-1.1-0.1-1.5-1.7c-0.4-1.6-0.5-2.1-0.5-2.1s-1.2-1.6-1.9-4.6c0,0-7.3-1-8.7-7.8
			c-1.4-6.7,4.9-13.9,5.8-14.6c0.9-0.7,4.8-2,9.7,0.1c0,0,0.8,0.5,2.4-0.1c1.6-0.6,10.5-3.2,14.9-3.3c4.3-0.1,7.1,4.3,9.1,9.7
			c0,0,0.3-2.2,2.4-2.6c2.2-0.5,1,3.6-0.6,5c0,0,3.7,1.9,4.4,5.9c0.7,4-0.6,21.5-4,25c-3.3,3.5-11.7,5-14.4,5.6
			c-2.7,0.6-8-2.1-10.1-9.5c0,0,1.1-3.6,0.2-6.7c-0.9-3-1.7-5.2-2.8-5.6c-1.1-0.4-3.9,2.5-4.1,3.8c-0.2,1.3,0.3,3.1,0.3,3.1
			S370.4,109.8,370,109.8z"/>
		<path class="st17" d="M370,109.8c0,0-1.1-0.1-1.5-1.7c-0.4-1.6-0.5-2.1-0.5-2.1s-1.2-1.6-1.9-4.6c0,0-7.3-1-8.7-7.8
			c-1.4-6.7,4.9-13.9,5.8-14.6c0,0-6.9,7.5,0.7,11.3c7.6,3.8,18.8,6.3,26.1,5.8c7.3-0.5,12.6-13.2,12.6-13.2
			c0.8,0.8-0.2,3.7-1.5,4.9c0,0,3.7,1.9,4.4,5.9c0.7,4-0.6,21.5-4,25c-3.3,3.5-11.7,5-14.4,5.6c-2.7,0.6-8-2.1-10.1-9.5
			c0,0,1.1-3.6,0.2-6.7c-0.9-3-1.7-5.2-2.8-5.6c-1.1-0.4-3.9,2.5-4.1,3.8c-0.2,1.3,0.3,3.1,0.3,3.1S370.4,109.8,370,109.8z"/>
	</g>
	<g>
		<path class="st27" d="M209.9,199.9c11.7-6.2,14.6,7.3,10.1,18.5c-4.5,11.2-27.8,48.8-29.1,63.7c-0.5,5.8-1.5,5.1-2.5,1.1
			C183.9,263,193.8,208.5,209.9,199.9z"/>
		<g>
			<path class="st28" d="M185.2,148.7c-13.4-12.1-21.8,4.8-19.4,21.1c2.3,16.3,20.7,73.7,17.4,93.8c-1.3,7.8,0.4,7.3,2.9,2.3
				C198.8,240.7,203.6,165.3,185.2,148.7z"/>
			<path class="st29" d="M182.8,269.2c0.3,0.7,0.9,0.4,1.8-0.9c14-46.5-7.8-115.9-7.9-116.2c-0.1-0.4-0.5-0.6-0.9-0.5
				c-0.4,0.1-0.6,0.5-0.5,0.9C175.5,152.8,197.5,223.2,182.8,269.2z"/>
		</g>
		<g>
			<path class="st30" d="M155.9,187.3c-13-5.6-15,9-9.2,20.6c5.8,11.6,33.8,49.7,36.3,65.5c1,6.1,2.1,5.4,2.7,1
				C189,252.4,173.8,195.1,155.9,187.3z"/>
			<path class="st31" d="M184.2,277.7c0.4,0.5,0.8,0.1,1.1-1.1c-1.2-38.1-34.7-84.4-34.8-84.6c-0.2-0.3-0.5-0.3-0.8-0.1
				c-0.3,0.2-0.3,0.5-0.1,0.8C149.7,192.8,183.6,239.8,184.2,277.7z"/>
		</g>
		<g>
			<polygon class="st4" points="174.2,269.2 199.1,269.2 205.6,275.1 200.3,295.6 186.7,295.6 173,295.6 167.7,275.1 			"/>
			<path class="st4" d="M167.7,261.6h37.9c1.1,0,2.1,0.9,2.1,2.1v9.4c0,1.1-0.9,2.1-2.1,2.1h-37.9c-1.1,0-2.1-0.9-2.1-2.1v-9.4
				C165.6,262.5,166.6,261.6,167.7,261.6z"/>
			<polygon class="st5" points="205.6,275.1 204.5,279.3 168.8,279.3 167.7,275.1 			"/>
		</g>
	</g>
</g>
</svg>
