<?xml version="1.0" encoding="utf-8"?>
<!-- Generator: Adobe Illustrator 25.0.1, SVG Export Plug-In . SVG Version: 6.00 Build 0)  -->
<svg version="1.1" id="Layer_1" xmlns="http://www.w3.org/2000/svg" xmlns:xlink="http://www.w3.org/1999/xlink" x="0px" y="0px"
	 viewBox="0 0 14 14" enable-background="new 0 0 14 14" xml:space="preserve">
<path d="M12.89,9.91c-0.53-0.57-1.52-1.42-1.52-4.22c0-2.12-1.49-3.83-3.5-4.24V0.88C7.87,0.39,7.48,0,7,0S6.13,0.39,6.13,0.88v0.57
	c-2.01,0.42-3.5,2.12-3.5,4.24c0,2.8-0.99,3.65-1.52,4.22c-0.16,0.18-0.24,0.39-0.24,0.59c0,0.45,0.35,0.88,0.88,0.88h10.49
	c0.52,0,0.88-0.43,0.88-0.88C13.13,10.29,13.05,10.08,12.89,9.91L12.89,9.91z M2.72,10.06C3.3,9.3,3.94,8.03,3.94,5.7
	c0-0.01,0-0.01,0-0.02C3.94,4,5.31,2.62,7,2.62S10.06,4,10.06,5.69c0,0.01,0,0.01,0,0.02c0,2.33,0.64,3.59,1.22,4.36H2.72z M7,14
	c0.97,0,1.75-0.78,1.75-1.75h-3.5C5.25,13.22,6.03,14,7,14z"/>
</svg>
