<?xml version="1.0" encoding="utf-8"?>
<!-- Generator: Adobe Illustrator 21.0.0, SVG Export Plug-In . SVG Version: 6.00 Build 0)  -->
<svg version="1.1" id="Layer_1" xmlns="http://www.w3.org/2000/svg" xmlns:xlink="http://www.w3.org/1999/xlink" x="0px" y="0px"
	 viewBox="0 0 402 448" style="enable-background:new 0 0 402 448;" xml:space="preserve">
<style type="text/css">
	.st0{fill:none;stroke:#6B6BED;stroke-width:5;stroke-miterlimit:10;}
	.st1{fill:#EE9849;}
	.st2{fill:#E1E1E1;}
	.st3{fill:#1A2E35;}
	.st4{opacity:0.3;}
	.st5{fill:#FFFFFF;}
	.st6{fill:#375A64;}
	.st7{fill:#6B6BED;}
	.st8{opacity:0.2;}
	.st9{fill:none;stroke:#000000;stroke-width:5.000000e-02;stroke-miterlimit:10;}
	.st10{fill:#E55E5E;}
	.st11{fill:#FFC19D;}
	.st12{fill:#FF9C6A;}
</style>
<path class="st0" d="M393,36.4c-0.2-1.4-0.6-2.7-0.9-4c-0.1-0.7-0.4-1.3-0.7-2c-0.2-0.6-0.5-1.3-0.7-1.9c-1.2-2.5-2.5-5-4.3-7.2
	c-0.8-1.2-1.8-2.2-2.7-3.2c-0.5-0.5-1-1-1.5-1.4c-0.5-0.5-1-0.9-1.6-1.4l-1.7-1.2l-0.8-0.6l-0.9-0.5l-1.8-1.1
	c-0.6-0.3-1.2-0.6-1.8-0.9c-4.9-2.3-10.2-3.4-15.4-3.3c-5.2,0.1-10.1,1.4-14.4,3.5c-4.3,2.1-8,5-10.9,8.3c-2.9,3.3-5,7-6.4,10.7
	c-0.2,0.5-0.3,0.9-0.5,1.4c-0.2,0.5-0.3,0.9-0.4,1.4c-0.2,0.9-0.5,1.8-0.7,2.7c-0.2,1.8-0.6,3.6-0.6,5.3c-0.2,6.9,1.6,12.6,3.6,16.6
	c-1.1,3.6-2,6.4-2.6,8.2c-0.3,0.9-0.5,1.6-0.6,2.1c-0.1,0.5-0.2,0.7-0.2,0.7l0,0h0l0,0l0,0l0,0c0,0,0,0,0,0s0.2,0,0.7,0
	c0.5,0,1.2-0.1,2.2-0.1c2-0.1,4.8-0.3,8.5-0.4c3.2,3,8.2,6.4,15,7.9c1.7,0.4,3.5,0.7,5.3,0.8c0.9,0,1.9,0.1,2.8,0.1
	c1,0,1.9-0.1,2.9-0.1c3.9-0.3,8.1-1.4,12.1-3.3c4-1.9,7.8-4.7,11-8.3c3.2-3.6,5.8-8,7.2-13C393.6,47.1,393.9,41.7,393,36.4z"/>
<g>
	<g>
		<g>
			<g>
				<polygon class="st1" points="339.3,41 345,36.1 354.5,45.9 375.9,28.1 380.5,33.7 353,56 				"/>
			</g>
		</g>
	</g>
</g>
<g>
	<g>
		<g>
			<g>
				<g>
					<path class="st2" d="M269.1,310.5L77.3,353.2c-4.7,1-9.3-1.9-10.3-6.5L4.8,67.4c-1-4.7,1.9-9.3,6.5-10.3l191.8-42.7
						c4.7-1,9.3,1.9,10.3,6.5l62.2,279.2C276.7,304.8,273.8,309.5,269.1,310.5z"/>
				</g>
			</g>
		</g>
		<g>
			<g>
				<g>
					<g>
						<path class="st3" d="M269.1,310.5c0,0,0.2-0.1,0.6-0.2c0.4-0.1,1-0.4,1.8-0.8c0.7-0.4,1.6-1.1,2.4-2.1c0.8-1,1.5-2.4,1.8-4
							c0.1-0.8,0.1-1.7,0-2.7c-0.2-0.9-0.4-1.9-0.6-2.9c-0.5-2-1-4.3-1.5-6.7c-1.1-4.8-2.3-10.4-3.7-16.7
							c-5.6-25.2-13.8-61.6-23.8-106.6c-5-22.5-10.5-47.2-16.4-73.6c-3-13.2-6-26.9-9.2-41c-1.6-7-3.2-14.2-4.8-21.4
							c-0.8-3.6-1.6-7.3-2.5-10.9c-0.4-1.8-1.5-3.4-3-4.6c-1.5-1.1-3.3-1.8-5.2-1.8c-0.9,0-1.8,0.2-2.8,0.4
							c-0.9,0.2-1.9,0.4-2.8,0.6c-1.9,0.4-3.7,0.8-5.6,1.3c-3.8,0.8-7.6,1.7-11.4,2.5c-7.6,1.7-15.3,3.4-23.1,5.2
							c-15.6,3.5-31.5,7-47.7,10.6C79.3,42.2,45.8,49.7,11.4,57.3c-2.1,0.5-4,1.8-5.2,3.5c-1.2,1.8-1.7,4-1.3,6.1
							c0.9,4.3,1.9,8.5,2.8,12.8c1.9,8.5,3.8,16.9,5.6,25.3c3.7,16.7,7.4,33.2,11,49.4c7.2,32.4,14.2,63.6,20.8,93.4
							c6.6,29.8,12.9,58,18.8,84.5c0.7,3.3,1.5,6.6,2.2,9.8c0.4,1.6,0.7,3.3,1.1,4.8c0.4,1.6,1.3,3,2.5,4.1c1.2,1.1,2.7,1.8,4.2,2.1
							c0.8,0.1,1.6,0.1,2.4,0.1c0.8-0.1,1.6-0.3,2.3-0.5c3.1-0.7,6.2-1.4,9.3-2.1c12.3-2.7,24.1-5.4,35.3-7.9
							c45-10,81.4-18.1,106.6-23.7c12.6-2.8,22.4-5,29-6.4c3.3-0.7,5.8-1.3,7.5-1.7C268.2,310.7,269.1,310.5,269.1,310.5
							s-0.9,0.2-2.6,0.6c-1.7,0.4-4.2,1-7.5,1.7c-6.6,1.5-16.4,3.7-29,6.5c-25.2,5.6-61.6,13.8-106.6,23.8
							c-11.3,2.5-23,5.1-35.3,7.9c-3.1,0.7-6.2,1.4-9.3,2.1c-0.8,0.2-1.6,0.4-2.4,0.5c-0.8,0.1-1.6,0.1-2.5-0.1
							c-1.6-0.3-3.2-1-4.4-2.2c-1.2-1.1-2.2-2.6-2.6-4.2c-0.4-1.6-0.7-3.2-1.1-4.9c-0.7-3.3-1.5-6.5-2.2-9.8
							c-5.9-26.5-12.2-54.7-18.9-84.5c-6.6-29.8-13.6-61-20.8-93.4c-3.6-16.2-7.3-32.7-11-49.4c-1.9-8.4-3.7-16.8-5.6-25.3
							C6.4,75.6,5.4,71.3,4.5,67c-0.4-2.2,0.1-4.6,1.4-6.4c1.2-1.9,3.2-3.2,5.4-3.7c34.3-7.7,67.9-15.1,100.2-22.3
							c16.2-3.6,32.1-7.1,47.7-10.6c7.8-1.7,15.5-3.5,23.1-5.1c3.8-0.8,7.6-1.7,11.4-2.5c1.9-0.4,3.8-0.8,5.6-1.3
							c0.9-0.2,1.9-0.4,2.8-0.6c0.9-0.2,1.9-0.4,2.9-0.4c2,0,3.9,0.7,5.4,1.9c1.5,1.2,2.6,2.9,3.1,4.8c0.8,3.7,1.6,7.3,2.5,10.9
							c1.6,7.2,3.2,14.4,4.8,21.5c3.1,14.1,6.2,27.8,9.1,41c5.9,26.5,11.4,51.1,16.4,73.6c10,45,18.1,81.4,23.7,106.6
							c1.4,6.3,2.6,11.9,3.7,16.7c0.5,2.4,1,4.7,1.5,6.7c0.2,1,0.5,2,0.6,2.9c0.1,0.9,0.2,1.9,0,2.7c-0.3,1.7-1,3.1-1.8,4.1
							c-0.8,1-1.7,1.7-2.5,2.1c-0.8,0.4-1.4,0.6-1.8,0.8C269.3,310.4,269.1,310.5,269.1,310.5z"/>
					</g>
				</g>
			</g>
		</g>
	</g>
	<g class="st4">
		<g>
			<g>
				<polygon points="87.1,343.3 261.8,303.4 256.3,269.2 246.4,250 79.2,315.6 				"/>
			</g>
		</g>
	</g>
	<g class="st4">
		<g>
			<g>
				<polygon points="160,24.6 166.6,35.5 167.9,41.3 163.4,42.3 				"/>
			</g>
		</g>
	</g>
	<g>
		<g>
			<g>
				<polygon class="st5" points="14.8,69.1 75.4,341.1 265.4,298.7 254.6,250.1 204.8,26.7 				"/>
			</g>
		</g>
		<g>
			<g>
				<g>
					<path class="st3" d="M14.8,69.1c1.4-0.3,74.5-16.7,190-42.5l0.2,0l0,0.2c16.9,75.6,37.9,169.9,60.7,272l0,0l0,0.2l-0.2,0
						c-67.9,15.1-132.4,29.5-190,42.3l-0.2,0l0-0.2C39.5,180.5,15.1,70.7,14.8,69.1c0.4,1.7,24.9,111.4,60.8,272l-0.2-0.1
						c57.6-12.8,122.1-27.2,190-42.4l-0.2,0.2l0,0c-22.7-102.1-43.7-196.4-60.6-272l0.2,0.1C89.3,52.5,16.1,68.7,14.8,69.1z"/>
				</g>
			</g>
		</g>
	</g>
</g>
<g>
	<g>
		<g>
			<g>
				<path class="st3" d="M164.5,44.5L68.3,66l-4.8-21.7c-0.8-3.4,1.4-6.8,4.8-7.5L152.1,18c3.4-0.8,6.8,1.4,7.6,4.8L164.5,44.5z"/>
			</g>
		</g>
	</g>
	<g>
		<g>
			<g>
				<polygon class="st3" points="120.1,14.2 95.6,19.6 103.1,39.9 121.6,35.8 				"/>
			</g>
		</g>
	</g>
	<g>
		<g>
			<g>
				<g>
					<path class="st6" d="M152.1,18c0,0.1-18.7,4.4-41.8,9.5c-23.1,5.2-41.9,9.2-41.9,9.1c0-0.1,18.7-4.4,41.9-9.5
						C133.3,22,152,17.9,152.1,18z"/>
				</g>
			</g>
		</g>
	</g>
	<g>
		<g>
			<g>
				<g>
					<ellipse transform="matrix(0.9761 -0.2175 0.2175 0.9761 -9.7327 15.9317)" class="st6" cx="67.5" cy="52.2" rx="0.2" ry="9"/>
				</g>
			</g>
		</g>
	</g>
	<g>
		<g>
			<g>
				<g>
					
						<ellipse transform="matrix(0.9761 -0.2175 0.2175 0.9761 -2.8808 35.1223)" class="st6" cx="158.1" cy="30.6" rx="0.2" ry="8.2"/>
				</g>
			</g>
		</g>
	</g>
	<g>
		<g>
			<g>
				<g>
					<path class="st6" d="M156.1,43.4c0,0.1-19.2,4.5-43,9.8c-23.8,5.3-43,9.5-43.1,9.4c0-0.1,19.2-4.5,43-9.8
						C136.8,47.5,156,43.3,156.1,43.4z"/>
				</g>
			</g>
		</g>
	</g>
</g>
<g>
	<g>
		<g>
			<ellipse transform="matrix(0.9761 -0.2175 0.2175 0.9761 -26.2261 19.714)" class="st3" cx="76.4" cy="129" rx="29.7" ry="0.2"/>
		</g>
	</g>
</g>
<g>
	<g>
		<g>
			<path class="st3" d="M202.2,111.6c0,0.1-33.9,7.8-75.7,17.1c-41.8,9.3-75.8,16.8-75.8,16.7c0-0.1,33.9-7.8,75.7-17.1
				C168.2,119,202.1,111.5,202.2,111.6z"/>
		</g>
	</g>
</g>
<g>
	<g>
		<g>
			<path class="st3" d="M204.2,121c0,0.1-33.9,7.8-75.7,17.1c-41.8,9.3-75.8,16.8-75.8,16.7c0-0.1,33.9-7.8,75.7-17.1
				C170.3,128.3,204.2,120.9,204.2,121z"/>
		</g>
	</g>
</g>
<g>
	<g>
		<g>
			<path class="st3" d="M206.3,130.3c0,0.1-33.9,7.8-75.7,17.1c-41.8,9.3-75.8,16.8-75.8,16.7c0-0.1,33.9-7.8,75.7-17.1
				C172.4,137.7,206.3,130.2,206.3,130.3z"/>
		</g>
	</g>
</g>
<g>
	<g>
		<g>
			<path class="st3" d="M208.4,139.7c0,0.1-33.9,7.8-75.7,17.1c-41.8,9.3-75.8,16.8-75.8,16.7c0-0.1,33.9-7.8,75.7-17.1
				C174.4,147,208.4,139.6,208.4,139.7z"/>
		</g>
	</g>
</g>
<g>
	<g>
		<g>
			<path class="st3" d="M210.5,149c0,0.1-33.9,7.8-75.7,17.1C92.9,175.4,59,182.9,59,182.8c0-0.1,33.9-7.8,75.7-17.1
				C176.5,156.4,210.5,148.9,210.5,149z"/>
		</g>
	</g>
</g>
<g>
	<g>
		<g>
			<path class="st3" d="M88.4,214.8c0,0,0-0.1-0.1-0.3c-0.1-0.2-0.1-0.5-0.2-0.9c-0.2-0.8-0.5-1.9-0.8-3.3c-0.7-2.9-1.6-7-2.7-11.8
				l0.2,0.1c-4.8,1.1-10.4,2.3-16.4,3.7c0,0.1,0.3-0.5,0.2-0.2l0,0l0,0l0,0l0,0l0,0.1l0,0.1l0.1,0.3l0.1,0.6
				c0.1,0.4,0.2,0.7,0.2,1.1c0.2,0.7,0.3,1.5,0.5,2.2c0.3,1.4,0.6,2.9,0.9,4.2c0.6,2.8,1.2,5.4,1.7,7.7l-0.2-0.1
				c4.9-1,9-1.9,11.9-2.5c1.4-0.3,2.5-0.5,3.4-0.7c0.4-0.1,0.7-0.1,0.9-0.2C88.3,214.8,88.4,214.8,88.4,214.8c0,0-0.1,0-0.3,0.1
				c-0.2,0.1-0.5,0.1-0.9,0.2c-0.8,0.2-1.9,0.5-3.3,0.8c-2.9,0.7-7,1.6-11.9,2.8l-0.2,0l0-0.2c-0.5-2.4-1.1-5-1.7-7.7
				c-0.3-1.4-0.6-2.8-1-4.2c-0.2-0.7-0.3-1.5-0.5-2.2c-0.1-0.4-0.2-0.7-0.2-1.1l-0.1-0.6l-0.1-0.3l0-0.1l0-0.1l0,0l0,0l0,0l0,0
				c-0.1,0.2,0.2-0.3,0.2-0.3c6-1.3,11.6-2.6,16.4-3.6l0.2,0l0,0.2c1.1,4.9,1.9,9,2.6,12c0.3,1.4,0.5,2.5,0.7,3.3
				c0.1,0.4,0.1,0.6,0.2,0.9C88.4,214.7,88.4,214.8,88.4,214.8z"/>
		</g>
	</g>
</g>
<g>
	<g>
		<g>
			
				<rect x="95.5" y="187" transform="matrix(0.9761 -0.2175 0.2175 0.9761 -38.0498 38.1229)" class="st2" width="117.2" height="9.8"/>
		</g>
	</g>
</g>
<g>
	<g>
		<g>
			<path class="st3" d="M94.7,243.3c0,0,0-0.1-0.1-0.3c-0.1-0.2-0.1-0.5-0.2-0.9c-0.2-0.8-0.5-1.9-0.8-3.3c-0.7-2.9-1.6-7-2.7-11.8
				l0.2,0.1c-4.8,1.1-10.4,2.3-16.4,3.7c0,0.1,0.3-0.5,0.2-0.2l0,0l0,0l0,0l0,0l0,0.1l0,0.1L75,231l0.1,0.6c0.1,0.4,0.2,0.7,0.2,1.1
				c0.2,0.7,0.3,1.5,0.5,2.2c0.3,1.4,0.6,2.9,0.9,4.2c0.6,2.8,1.2,5.4,1.7,7.7l-0.2-0.1c4.9-1,9-1.9,11.9-2.5
				c1.4-0.3,2.5-0.5,3.4-0.7c0.4-0.1,0.7-0.1,0.9-0.2C94.6,243.3,94.7,243.3,94.7,243.3c0,0-0.1,0-0.3,0.1c-0.2,0.1-0.5,0.1-0.9,0.2
				c-0.8,0.2-1.9,0.5-3.3,0.8c-2.9,0.7-7,1.6-11.9,2.8l-0.2,0l0-0.2c-0.5-2.4-1.1-5-1.7-7.7c-0.3-1.4-0.6-2.8-1-4.2
				c-0.2-0.7-0.3-1.5-0.5-2.2c-0.1-0.4-0.2-0.7-0.2-1.1l-0.1-0.6l-0.1-0.3l0-0.1l0-0.1l0,0l0,0l0,0l0,0c-0.1,0.2,0.2-0.3,0.2-0.3
				c6-1.3,11.6-2.6,16.4-3.6l0.2,0l0,0.2c1.1,4.9,1.9,9,2.6,12c0.3,1.4,0.5,2.5,0.7,3.3c0.1,0.4,0.1,0.6,0.2,0.9
				C94.7,243.2,94.7,243.3,94.7,243.3z"/>
		</g>
	</g>
</g>
<g>
	<g>
		<g>
			
				<rect x="101.9" y="215.5" transform="matrix(0.9761 -0.2175 0.2175 0.9761 -44.0869 40.1834)" class="st2" width="117.2" height="9.8"/>
		</g>
	</g>
</g>
<g>
	<g>
		<g>
			<path class="st3" d="M101.1,271.7c0,0,0-0.1-0.1-0.3c-0.1-0.2-0.1-0.5-0.2-0.9c-0.2-0.8-0.5-1.9-0.8-3.3c-0.7-2.9-1.6-7-2.7-11.8
				l0.2,0.1c-4.8,1.1-10.4,2.3-16.4,3.7c0,0.1,0.3-0.5,0.2-0.2l0,0l0,0l0,0l0,0l0,0.1l0,0.1l0.1,0.3l0.1,0.6
				c0.1,0.4,0.2,0.7,0.2,1.1c0.2,0.7,0.3,1.5,0.5,2.2c0.3,1.4,0.6,2.9,0.9,4.2c0.6,2.8,1.2,5.4,1.7,7.7l-0.2-0.1
				c4.9-1,9-1.9,11.9-2.5c1.4-0.3,2.5-0.5,3.4-0.7c0.4-0.1,0.7-0.1,0.9-0.2C100.9,271.7,101,271.7,101.1,271.7c0,0-0.1,0-0.3,0.1
				c-0.2,0.1-0.5,0.1-0.9,0.2c-0.8,0.2-1.9,0.5-3.3,0.8c-2.9,0.7-7,1.6-11.9,2.8l-0.2,0l0-0.2c-0.5-2.4-1.1-5-1.7-7.7
				c-0.3-1.4-0.6-2.8-1-4.2c-0.2-0.7-0.3-1.5-0.5-2.2c-0.1-0.4-0.2-0.7-0.2-1.1l-0.1-0.6l-0.1-0.3l0-0.1l0-0.1l0,0l0,0l0,0l0,0
				c-0.1,0.2,0.2-0.3,0.2-0.3c6-1.3,11.6-2.6,16.4-3.6l0.2,0l0,0.2c1.1,4.9,1.9,9,2.6,12c0.3,1.4,0.5,2.5,0.7,3.3
				c0.1,0.4,0.1,0.6,0.2,0.9C101,271.6,101.1,271.7,101.1,271.7z"/>
		</g>
	</g>
</g>
<g>
	<g>
		<g>
			
				<rect x="108.2" y="243.9" transform="matrix(0.9761 -0.2175 0.2175 0.9761 -50.124 42.244)" class="st2" width="117.2" height="9.8"/>
		</g>
	</g>
</g>
<g>
	<g>
		<g>
			<g>
				<g>
					<g>
						<polygon class="st1" points="72.6,208.9 74.3,206.2 79.4,209.1 86,199.2 88.6,200.9 80.1,213.4 						"/>
					</g>
				</g>
			</g>
		</g>
	</g>
</g>
<g>
	<g>
		<g>
			<g>
				<g>
					<g>
						<polygon class="st1" points="78.7,236.4 80.5,233.7 85.6,236.6 92.1,226.7 94.7,228.4 86.2,240.9 						"/>
					</g>
				</g>
			</g>
		</g>
	</g>
</g>
<g>
	<g>
		<g>
			<g>
				<g>
					<g>
						<polygon class="st1" points="85,264.6 86.7,261.9 91.9,264.8 98.4,254.8 101,256.6 92.5,269.1 						"/>
					</g>
				</g>
			</g>
		</g>
	</g>
</g>
<g>
	<g>
		<g>
			
				<ellipse transform="matrix(0.9761 -0.2175 0.2175 0.9761 -63.5354 32.4829)" class="st3" cx="115.8" cy="304.8" rx="22.2" ry="0.2"/>
		</g>
	</g>
</g>
<g>
	<g>
		<g>
			
				<ellipse transform="matrix(0.9761 -0.2175 0.2175 0.9761 -60.9117 39.9398)" class="st3" cx="151" cy="296.6" rx="8.2" ry="0.2"/>
		</g>
	</g>
</g>
<g>
	<g>
		<g>
			
				<ellipse transform="matrix(0.9761 -0.2175 0.2175 0.9761 -55.15 52.4853)" class="st3" cx="210.8" cy="276.7" rx="19.9" ry="0.2"/>
		</g>
	</g>
</g>
<g>
	<g>
		<g>
			<path class="st3" d="M221,298.7c0,0,0.1-0.3,0.2-0.8c0.1-0.5,0.1-1.3-0.1-2.3c-0.3-1-0.8-2.1-1.4-3.4c-0.6-1.3-1.4-2.9-1.4-4.8
				c0-1.9,0.8-3.9,2.5-5.4c1.7-1.5,4.3-2,6.6-1.2c1.2,0.4,2.3,1.1,3.2,2.1c0.4,0.5,0.7,1.2,0.8,1.9c0.1,0.7-0.5,1.5-1.2,1.7
				c-0.7,0.3-1.3,0.3-2,0.5c-0.7,0.1-1.3,0.3-2,0.4c-1.3,0.3-2.7,0.5-4.1,0.7c-2.8,0.4-5.6,0.4-8.2,0c-1.3-0.1-2.6-0.2-3.6,0.6
				c-1,0.7-1.4,1.9-2.2,2.9c-0.4,0.5-0.8,1-1.4,1.2c-0.6,0.3-1.3,0.3-1.8,0.1c-1.2-0.4-2-1.2-2.9-1.7c-0.5-0.3-0.9-0.5-1.4-0.5
				c-0.5,0-1,0.1-1.3,0.3c-0.8,0.5-1.2,1.5-1.7,2.2c-1,1.6-2.8,2.4-4.2,2.4c-1.5,0.1-2.7-0.6-3.5-1.2c-0.8-0.7-1.2-1.4-1.4-1.9
				c-0.2-0.5-0.2-0.8-0.2-0.8c0,0,0.1,0.3,0.3,0.8c0.2,0.5,0.6,1.2,1.4,1.8c0.8,0.6,1.9,1.2,3.4,1.1c1.4-0.1,3-0.8,4-2.4
				c0.5-0.7,0.9-1.7,1.8-2.3c0.4-0.3,1-0.5,1.6-0.4c0.6,0.1,1.1,0.3,1.5,0.6c1,0.5,1.8,1.3,2.9,1.6c0.5,0.2,1.1,0.2,1.6-0.1
				c0.5-0.2,0.9-0.6,1.2-1.1c0.7-1,1.2-2.2,2.2-3c0.5-0.4,1.2-0.6,1.9-0.7c0.7-0.1,1.3,0,2,0c2.6,0.4,5.3,0.3,8.1-0.1
				c1.4-0.2,2.7-0.4,4.1-0.7c0.7-0.1,1.3-0.3,2-0.4c0.6-0.2,1.3-0.2,1.9-0.5c0.6-0.2,1-0.7,0.9-1.3c0-0.6-0.3-1.2-0.7-1.6
				c-0.8-0.9-1.9-1.6-3-2c-2.2-0.7-4.7-0.3-6.3,1.1c-1.6,1.4-2.4,3.3-2.5,5.1c0,1.8,0.7,3.3,1.3,4.7c0.6,1.3,1.1,2.5,1.3,3.5
				c0.2,1,0.2,1.8,0,2.4C221.1,298.5,221,298.7,221,298.7z"/>
		</g>
	</g>
</g>
<g>
	<g>
		<g>
			<path class="st3" d="M241.7,285.9c0,0-0.2,0.1-0.5,0.2c-0.4,0.1-0.9,0.2-1.5,0.4c-1.4,0.3-3.3,0.8-5.6,1.3
				c-4.7,1.1-11.2,2.6-18.4,4.4c-7.1,1.8-13.6,3.6-18.3,4.8c-2.3,0.6-4.2,1.1-5.5,1.5c-0.6,0.2-1.1,0.3-1.5,0.4
				c-0.3,0.1-0.5,0.1-0.5,0.1c0,0,0.2-0.1,0.5-0.2c0.4-0.1,0.9-0.3,1.5-0.5c1.3-0.4,3.2-1,5.5-1.6c4.6-1.4,11.1-3.1,18.2-5
				c7.2-1.8,13.7-3.3,18.4-4.3c2.4-0.5,4.3-0.9,5.6-1.2c0.6-0.1,1.1-0.2,1.5-0.3C241.5,285.9,241.7,285.9,241.7,285.9z"/>
		</g>
	</g>
</g>
<g>
	
		<rect x="82.7" y="75" transform="matrix(0.9761 -0.2175 0.2175 0.9761 -15.0026 28.6085)" class="st2" width="79.6" height="14.9"/>
</g>
<g>
	<g>
		<g>
			<g>
				<g>
					<g>
						<polygon class="st1" points="233.1,303.3 258.2,435.9 281.1,393.5 324.6,419 278.5,289.9 						"/>
					</g>
				</g>
			</g>
		</g>
	</g>
	<g class="st4">
		<g>
			<path class="st1" d="M241.6,347.9c4.6,1,10.1-0.7,13.3-4.1c2.3-2.4,3.8-5.6,6.7-7.2c2.6-1.4,5.8-1.2,8.6-0.4
				c2.8,0.8,5.5,2.1,8.4,2.8c5.6,1.5,11.8,0.5,16.7-2.5l-7.2-20.1l-33.6-4.2l-16,19.2L241.6,347.9z"/>
		</g>
	</g>
	<g>
		<g>
			
				<ellipse transform="matrix(0.9672 -0.254 0.254 0.9672 -81.8935 80.673)" class="st1" cx="271.4" cy="357.4" rx="0.3" ry="31.9"/>
		</g>
	</g>
</g>
<g>
	<g>
		<g>
			<g>
				<g>
					<polygon class="st1" points="236.8,310.2 211.7,442.8 188.8,400.4 145.3,425.9 191.4,296.8 					"/>
				</g>
			</g>
		</g>
	</g>
</g>
<g class="st4">
	<path d="M177.6,335.4c0,0,7.1,5.9,15.7,3.2c8.5-2.7,13.8-3.3,18.4,0c4.6,3.3,17.1,14,17.1,14l2.9-15.3l-16.7-23l-17.5,3.5L185,319
		l-4.6,8.8L177.6,335.4z"/>
</g>
<g>
	<path class="st7" d="M383.9,190.5c0,9.5-12.2,17.7-13.9,26.7c-1.8,9.3,6.2,21.5,2.7,30c-3.6,8.7-18,11.6-23.1,19.3
		c-5.2,7.8-2.4,22.2-9,28.7c-6.6,6.6-21,3.8-28.7,9c-7.7,5.2-10.6,19.5-19.3,23.1c-8.5,3.5-20.7-4.5-30-2.7
		c-9,1.8-17.2,13.9-26.7,13.9c-9.5,0-17.7-12.2-26.7-13.9c-9.3-1.8-21.5,6.2-30,2.7c-8.7-3.6-11.6-18-19.3-23.1
		c-7.8-5.2-22.2-2.4-28.7-9c-6.6-6.6-3.8-21-9-28.7c-5.2-7.7-19.5-10.6-23.1-19.3c-3.5-8.5,4.5-20.7,2.7-30
		c-1.8-9-13.9-17.2-13.9-26.7s12.2-17.7,13.9-26.7c1.8-9.3-6.2-21.5-2.7-30c3.6-8.7,18-11.6,23.1-19.3c5.2-7.8,2.4-22.2,9-28.7
		c6.6-6.6,21-3.8,28.7-9c7.7-5.2,10.6-19.5,19.3-23.1c8.5-3.5,20.7,4.5,30,2.7c9-1.8,17.2-13.9,26.7-13.9s17.7,12.2,26.7,13.9
		c9.3,1.8,21.5-6.2,30-2.7c8.7,3.6,11.6,18,19.3,23.1c7.8,5.2,22.2,2.4,28.7,9c6.6,6.6,3.8,21,9,28.7c5.2,7.7,19.5,10.6,23.1,19.3
		c3.5,8.5-4.5,20.7-2.7,30C371.7,172.8,383.9,181,383.9,190.5z"/>
</g>
<g>
	<g>
		<path class="st3" d="M201.2,107.5c0,0-0.1-0.1-0.3-0.4c-0.2-0.3-0.4-0.7-0.7-1.2c-0.6-1.1-1.4-2.6-2.4-4.6
			c-1.9-3.9-4.4-9.3-6.8-15.5c-2.4-6.2-4.3-11.9-5.5-16c-0.6-2.1-1.1-3.8-1.4-5c-0.1-0.5-0.2-1-0.3-1.4c-0.1-0.3-0.1-0.5-0.1-0.5
			c0,0,0.1,0.2,0.2,0.5c0.1,0.4,0.3,0.8,0.4,1.3c0.4,1.2,0.9,2.9,1.5,4.9c1.3,4.1,3.2,9.8,5.6,16c2.4,6.2,4.8,11.6,6.7,15.5
			c0.9,1.9,1.7,3.5,2.2,4.6c0.2,0.5,0.4,0.9,0.6,1.3C201.1,107.4,201.2,107.5,201.2,107.5z"/>
	</g>
</g>
<g>
	<g>
		<path class="st3" d="M214.3,102.5c0,0-0.2-0.4-0.4-1.1c-0.2-0.7-0.5-1.8-0.8-3.1c-0.7-2.6-1.5-6.2-2.2-10.2
			c-0.7-4-1.3-7.7-1.6-10.4c-0.2-1.3-0.3-2.4-0.3-3.2c-0.1-0.7-0.1-1.2,0-1.2c0,0,0.1,0.4,0.2,1.1c0.1,0.8,0.3,1.9,0.5,3.1
			c0.4,2.6,1,6.3,1.7,10.3c0.7,4,1.5,7.6,2.1,10.2c0.3,1.2,0.5,2.3,0.7,3.1C214.3,102.1,214.4,102.5,214.3,102.5z"/>
	</g>
</g>
<g>
	<g>
		
			<ellipse transform="matrix(0.9997 -2.260141e-02 2.260141e-02 0.9997 -1.638 5.3764)" class="st3" cx="237" cy="75.2" rx="0.3" ry="25.1"/>
	</g>
</g>
<g>
	<g>
		<ellipse transform="matrix(0.2957 -0.9553 0.9553 0.2957 95.4932 308.7467)" class="st3" cx="257.1" cy="89.6" rx="13" ry="0.3"/>
	</g>
</g>
<g>
	<g>
		<path class="st3" d="M270.5,106.1c0,0,0-0.2,0.1-0.5c0.1-0.4,0.3-0.8,0.5-1.3c0.4-1.1,1-2.8,1.8-4.8c1.6-4,3.8-9.6,6.4-15.7
			c2.6-6.1,4.9-11.6,6.7-15.6c0.9-1.9,1.6-3.5,2.1-4.7c0.2-0.5,0.4-0.9,0.6-1.3c0.1-0.3,0.2-0.4,0.2-0.4c0,0,0,0.2-0.1,0.5
			c-0.1,0.4-0.3,0.8-0.5,1.3c-0.5,1.2-1.2,2.8-2,4.7c-1.7,4.1-4,9.5-6.5,15.6c-2.5,6.1-4.8,11.6-6.5,15.6c-0.8,1.9-1.5,3.5-2,4.7
			c-0.2,0.5-0.4,0.9-0.5,1.3C270.6,106,270.6,106.2,270.5,106.1z"/>
	</g>
</g>
<g>
	<g>
		<path class="st3" d="M283,112.7c0,0,0.2-0.4,0.6-1c0.4-0.6,1-1.5,1.7-2.7c1.5-2.2,3.7-5.2,6.2-8.5c2.5-3.2,4.9-6,6.7-8
			c0.9-1,1.6-1.8,2.2-2.3c0.5-0.5,0.8-0.8,0.8-0.8c0,0-0.2,0.4-0.7,0.9c-0.5,0.7-1.2,1.5-2,2.4c-1.7,2.1-4.1,4.9-6.6,8.1
			c-2.5,3.2-4.7,6.2-6.3,8.3c-0.7,1-1.4,1.9-1.9,2.6C283.3,112.4,283.1,112.7,283,112.7z"/>
	</g>
</g>
<g>
	<g>
		<ellipse transform="matrix(0.7322 -0.6811 0.6811 0.7322 9.8777 247.0526)" class="st3" cx="319.1" cy="111" rx="24.4" ry="0.3"/>
	</g>
</g>
<g>
	<g>
		<path class="st3" d="M333,130.7c0,0.1-1.1,0.7-3,1.6c-1.9,1-4.4,2.4-7.3,4c-2.8,1.6-5.4,3-7.3,3.9c-1,0.4-1.7,0.8-2.3,1
			c-0.6,0.2-0.9,0.3-0.9,0.3c0-0.1,1.1-0.7,3-1.6c1.9-1,4.4-2.4,7.3-4c2.8-1.6,5.4-3,7.3-3.9c1-0.4,1.7-0.8,2.3-1
			C332.7,130.8,333,130.6,333,130.7z"/>
	</g>
</g>
<g>
	<g>
		
			<ellipse transform="matrix(0.9433 -0.3321 0.3321 0.9433 -30.5481 121.8546)" class="st3" cx="341.3" cy="150.3" rx="22.4" ry="0.3"/>
	</g>
</g>
<g>
	<g>
		
			<ellipse transform="matrix(9.476908e-02 -0.9955 0.9955 9.476908e-02 122.5537 523.1074)" class="st3" cx="348.9" cy="194.2" rx="0.3" ry="22.9"/>
	</g>
</g>
<g>
	<g>
		
			<ellipse transform="matrix(0.4272 -0.9042 0.9042 0.4272 -15.344 444.2856)" class="st3" cx="343" cy="234.3" rx="0.3" ry="23.5"/>
	</g>
</g>
<g>
	<g>
		
			<ellipse transform="matrix(0.7645 -0.6446 0.6446 0.7645 -100.4822 268.6956)" class="st3" cx="317.5" cy="271.9" rx="0.3" ry="23.6"/>
	</g>
</g>
<g>
	<g>
		<path class="st3" d="M306.5,296c0,0-0.3-0.4-0.8-1.1c-0.5-0.7-1.2-1.8-2.1-3.2c-1.7-2.7-4.1-6.5-6.5-10.7c-2.5-4.3-4.6-8.2-6-11
			c-0.7-1.4-1.3-2.6-1.7-3.4c-0.4-0.8-0.6-1.3-0.6-1.3c0,0,0.3,0.4,0.7,1.2c0.5,0.9,1.1,2,1.9,3.3c1.6,2.8,3.7,6.7,6.2,10.9
			c2.5,4.2,4.7,8.1,6.4,10.8c0.8,1.3,1.4,2.4,2,3.3C306.3,295.5,306.5,295.9,306.5,296z"/>
	</g>
</g>
<g>
	<g>
		<path class="st3" d="M290.1,318.9c0,0-0.1-0.1-0.3-0.4c-0.2-0.3-0.4-0.7-0.7-1.2c-0.6-1.1-1.3-2.6-2.3-4.6
			c-1.8-3.9-4.2-9.4-6.5-15.5c-2.2-6.2-3.9-11.9-5-16c-0.5-2.1-1-3.8-1.2-5c-0.1-0.5-0.2-1-0.3-1.4c-0.1-0.3-0.1-0.5-0.1-0.5
			c0,0,0.1,0.2,0.2,0.5c0.1,0.4,0.2,0.8,0.4,1.3c0.3,1.2,0.8,2.9,1.4,4.9c1.2,4.1,2.9,9.8,5.2,16c2.2,6.2,4.6,11.6,6.3,15.5
			c0.9,1.9,1.6,3.5,2.1,4.6c0.2,0.5,0.4,0.9,0.6,1.3C290.1,318.7,290.2,318.9,290.1,318.9z"/>
	</g>
</g>
<g>
	<g>
		<path class="st3" d="M257.1,302.8c-0.1,0-0.2-1.3-0.4-3.5c-0.2-2.2-0.6-5.1-1.1-8.4c-0.5-3.3-1.2-6.2-1.6-8.3
			c-0.5-2.1-0.8-3.4-0.7-3.4c0,0,0.2,0.3,0.3,0.9c0.2,0.6,0.4,1.4,0.7,2.5c0.6,2.1,1.3,5,1.8,8.3c0.5,3.3,0.9,6.3,1,8.4
			c0.1,1.1,0.1,2,0.1,2.6C257.1,302.5,257.1,302.8,257.1,302.8z"/>
	</g>
</g>
<g>
	<g>
		<path class="st3" d="M235.5,331.6c0,0,0-0.2,0-0.5c0-0.4,0-0.9,0-1.5c0-1.3,0-3.1,0-5.4c0.1-4.6,0.3-10.9,0.7-17.8
			c0.4-7,0.8-13.2,1.2-17.8c0.2-2.3,0.4-4.1,0.5-5.4c0.1-0.6,0.1-1.1,0.2-1.5c0-0.3,0.1-0.5,0.1-0.5c0,0,0,0.2,0,0.5
			c0,0.4,0,0.9-0.1,1.5c-0.1,1.4-0.2,3.2-0.3,5.4c-0.3,4.6-0.6,10.9-1,17.8c-0.4,7-0.6,13.2-0.8,17.8c-0.1,2.2-0.2,4-0.2,5.4
			c0,0.6-0.1,1.1-0.1,1.5C235.5,331.4,235.5,331.6,235.5,331.6z"/>
	</g>
</g>
<g>
	<g>
		<path class="st3" d="M217.9,281.2c0.1,0,0,1-0.3,2.6c-0.3,1.6-0.7,3.7-1.2,6.1c-0.6,2.4-1.1,4.5-1.6,6c-0.5,1.5-0.8,2.4-0.9,2.4
			c-0.1,0,0.1-1,0.5-2.5c0.4-1.7,0.9-3.8,1.4-6c0.5-2.3,1-4.3,1.4-6C217.6,282.2,217.8,281.2,217.9,281.2z"/>
	</g>
</g>
<g>
	<g>
		
			<ellipse transform="matrix(0.6043 -0.7968 0.7968 0.6043 -144.9019 252.2483)" class="st3" cx="181.5" cy="272" rx="7.6" ry="0.3"/>
	</g>
</g>
<g>
	<g>
		
			<ellipse transform="matrix(0.6576 -0.7534 0.7534 0.6576 -150.8659 209.7811)" class="st3" cx="155.3" cy="270.9" rx="21.4" ry="0.3"/>
	</g>
</g>
<g>
	<g>
		
			<ellipse transform="matrix(0.7717 -0.636 0.636 0.7717 -123.2901 154.2324)" class="st3" cx="153.2" cy="248.8" rx="10.2" ry="0.3"/>
	</g>
</g>
<g>
	<g>
		
			<ellipse transform="matrix(0.9009 -0.4341 0.4341 0.9009 -88.0725 80.3512)" class="st3" cx="131.9" cy="233" rx="21.6" ry="0.3"/>
	</g>
</g>
<g>
	<g>
		<path class="st3" d="M147.4,214.3c0,0-0.3,0.1-0.9,0.3c-0.6,0.1-1.4,0.3-2.5,0.5c-2.1,0.4-5,0.8-8.3,1.2c-3.3,0.3-6.2,0.5-8.4,0.5
			c-1.1,0-1.9,0-2.5,0c-0.6,0-0.9,0-0.9-0.1c0-0.1,1.3-0.1,3.5-0.3c2.1-0.1,5.1-0.3,8.3-0.7c3.2-0.3,6.2-0.7,8.3-1
			C146,214.4,147.4,214.2,147.4,214.3z"/>
	</g>
</g>
<g>
	<g>
		<path class="st3" d="M144.2,192.8c0,0-0.6,0-1.7,0c-1.2-0.1-2.8-0.1-4.8-0.2c-4-0.2-9.6-0.4-15.7-0.3c-6.1,0-11.7,0.3-15.7,0.5
			c-1.9,0.1-3.5,0.2-4.8,0.3c-1.1,0.1-1.7,0.1-1.7,0.1c0,0,0.6-0.1,1.7-0.3c1.1-0.1,2.7-0.3,4.7-0.5c4-0.3,9.6-0.6,15.7-0.7
			c6.1,0,11.7,0.2,15.7,0.5c2,0.1,3.6,0.3,4.8,0.4C143.6,192.6,144.2,192.7,144.2,192.8z"/>
	</g>
</g>
<g>
	<g>
		
			<ellipse transform="matrix(0.2688 -0.9632 0.9632 0.2688 -67.2105 251.1163)" class="st3" cx="131.8" cy="169.8" rx="0.3" ry="14.9"/>
	</g>
</g>
<g>
	<g>
		<path class="st3" d="M150.4,158c0,0-0.2,0-0.5-0.1c-0.4-0.1-0.8-0.2-1.3-0.4c-1.1-0.4-2.8-0.9-4.8-1.6c-4-1.5-9.5-3.7-15.4-6.6
			c-5.9-2.9-11-5.9-14.6-8.2c-1.8-1.2-3.3-2.1-4.2-2.8c-0.4-0.3-0.8-0.6-1.1-0.8c-0.3-0.2-0.4-0.3-0.4-0.3c0,0,0.2,0.1,0.4,0.2
			c0.3,0.2,0.7,0.4,1.2,0.7c1,0.6,2.5,1.6,4.3,2.7c3.7,2.2,8.8,5.2,14.7,8c5.9,2.9,11.3,5.2,15.3,6.7c2,0.8,3.6,1.4,4.7,1.8
			c0.5,0.2,0.9,0.4,1.3,0.5C150.2,157.9,150.4,158,150.4,158z"/>
	</g>
</g>
<g>
	<g>
		
			<ellipse transform="matrix(0.5758 -0.8176 0.8176 0.5758 -46.6514 178.4278)" class="st3" cx="148.6" cy="134.2" rx="0.3" ry="13.6"/>
	</g>
</g>
<g>
	<g>
		<path class="st3" d="M139.9,93.4c0,0,0.1,0.1,0.4,0.3c0.3,0.2,0.6,0.5,1,0.9c0.9,0.8,2.2,1.9,3.7,3.3c3.2,2.8,7.4,6.6,12.1,10.8
			c4.7,4.2,9,8,12.2,10.8c1.5,1.3,2.7,2.4,3.7,3.3c0.4,0.4,0.7,0.7,1,0.9c0.2,0.2,0.3,0.3,0.3,0.3c0,0-0.1-0.1-0.4-0.3
			c-0.3-0.2-0.6-0.5-1-0.8c-0.9-0.7-2.2-1.8-3.8-3.1c-3.2-2.7-7.5-6.4-12.3-10.6c-4.7-4.2-9-8.1-12-10.9c-1.5-1.4-2.7-2.6-3.6-3.4
			c-0.4-0.4-0.7-0.7-1-0.9C140,93.6,139.9,93.4,139.9,93.4z"/>
	</g>
</g>
<g>
	<g>
		<path class="st3" d="M171.1,94.3c0,0,0.3,0.2,0.7,0.7c0.4,0.5,1,1.2,1.7,2c1.4,1.7,3.2,4.2,5.2,7c1.9,2.8,3.5,5.4,4.6,7.3
			c0.6,1,1,1.8,1.3,2.3c0.3,0.6,0.4,0.9,0.4,0.9c-0.1,0-0.8-1.1-2-3c-1.2-1.9-2.9-4.4-4.8-7.2c-1.9-2.8-3.7-5.3-5-7.1
			C171.8,95.5,171,94.4,171.1,94.3z"/>
	</g>
</g>
<g class="st8">
	<path d="M131.1,85.8l43.5,38.1l10.8-8.7l-25.2-38.7c0,0-1.9,1.4-7,2.9C148.3,80.8,134,81.2,131.1,85.8z"/>
</g>
<g class="st8">
	<path d="M179.5,53.6l21.2,53.2l13.6-4.3l-4.5-46.1c0,0-2.3,0.5-7.5-0.1C197.3,55.7,185.1,50.9,179.5,53.6z"/>
</g>
<g class="st4">
	<path d="M236.2,42.5l1.4,57.7l12.7,0.6l12.9-44.3c-0.2,0-3.6-0.6-7.5-3.1C251.3,50.6,242.3,42,236.2,42.5z"/>
</g>
<g class="st8">
	<path d="M291.7,53.4l-21.1,53.2l11.5,5.5l29.1-35.9c-0.2-0.1-3-2.4-5.5-6.5C302.8,65.3,298.1,55.2,291.7,53.4z"/>
</g>
<g class="st8">
	<path d="M341.2,86.6l-39.3,41l8.8,11.8l38.4-25.6c0,0-1.6-2.6-2.5-7.5C345.6,101.3,345.5,92.2,341.2,86.6z"/>
</g>
<g class="st8">
	<path d="M372.3,132.9l-52.9,21.8l4.4,13.5l46.1-5c0,0-0.3-1.4,0.3-6.6C370.7,151.5,376,140.3,372.3,132.9z"/>
</g>
<g class="st8">
	<path d="M384,190.5l-57.7,2l-0.5,12.7l44,12.9c0-0.2,0.4-2.7,1.7-5.3C374.8,206.8,384,198.1,384,190.5z"/>
</g>
<g class="st8">
	<path d="M373.4,245.1l-53.1-20.7l-5.4,11.5l36.2,28.7c0.1-0.2,2.2-2.2,6.3-4.8C361.7,257.1,372.1,252.5,373.4,245.1z"/>
</g>
<g class="st8">
	<g>
		<path d="M295.2,244.3l-13.2,11c1,1,18.5,30.8,29.3,49.3c0.1-0.1,0.3-0.2,0.4-0.3c7.1-4.8,19.8-2.9,26.9-7.6L295.2,244.3z"/>
	</g>
	<g>
		<path d="M271,265.2l-19.6,6.7l9.3,53.3c0.6-0.2,1.2-0.4,1.8-0.5c9.3-1.8,21.5,6.2,30,2.7c1.2-0.5,2.2-1.2,3.2-2L271,265.2z"/>
	</g>
	<g>
		<path d="M235.1,338.6l3.1-69.7l-17-4.3l-12.6,60c0.2,0,0.3,0,0.5,0.1C217.9,326.4,225.9,338,235.1,338.6z"/>
	</g>
	<g>
		<path d="M192.4,257.1c0,0-22.4,30.1-34.2,46.2c0.5,0.3,1.1,0.6,1.6,0.9c7.7,5.2,10.6,19.5,19.3,23.1c0.4,0.2,0.8,0.3,1.2,0.4
			l31.3-59.3L192.4,257.1z"/>
	</g>
	<g>
		<path d="M169.4,232.9l-47.9,32.9c0.2,0.2,0.4,0.5,0.5,0.7c5.2,7.8,2.4,22.2,9,28.7c0.6,0.6,1.3,1.1,2,1.6
			c16.9-19.1,47.3-53.3,48.4-54.5L169.4,232.9z"/>
	</g>
	<g>
		<path d="M158.4,209.4l-56.6,9.1c0.9,9.1-6.3,20.5-2.9,28.7c0.2,0.5,0.5,1,0.7,1.4c19.8-9.9,61.2-30.4,62.9-30.5L158.4,209.4z"/>
	</g>
	<g>
		<path d="M155.3,177.9l-53.5-15.4c0,0.5-0.1,0.9-0.2,1.4c-1.8,9-13.9,17.2-13.9,26.7c0,0.6,0.1,1.3,0.2,1.9h65.3L155.3,177.9z"/>
	</g>
	<g>
		<path d="M99.2,133.4c20,10.7,59.1,32.4,59.1,32.4l9.6-18.3l-45.2-34c-0.2,0.4-0.4,0.7-0.6,1C117,122.1,103.1,125.1,99.2,133.4z"/>
	</g>
</g>
<g>
	<g>
		<path class="st3" d="M383.9,190.5c0,0,0-0.2-0.1-0.6c-0.1-0.4,0-1.1-0.3-1.9c-0.3-1.6-1.2-4-3-6.7c-1.7-2.8-4.3-5.8-7-9.8
			c-1.3-2-2.7-4.2-3.4-6.9c-0.7-2.7-0.6-5.7,0-8.7c0.6-3,1.5-6.2,2.3-9.5c0.7-3.3,1.5-6.9,0.8-10.6c-0.4-1.8-1.3-3.6-2.5-5.1
			c-1.2-1.5-2.8-2.8-4.4-3.9c-3.3-2.4-7.1-4.2-10.8-6.7c-1.8-1.2-3.6-2.6-5.1-4.4c-1.5-1.7-2.5-3.9-3.1-6.2
			c-1.3-4.5-1.6-9.4-2.5-14.3c-0.5-2.4-1.2-4.9-2.5-7.1c-1.3-2.2-3.3-3.9-5.7-4.9c-2.4-1.1-5-1.6-7.6-2c-2.7-0.4-5.4-0.7-8.1-1.2
			c-2.7-0.5-5.5-1.1-8-2.5c-2.5-1.4-4.5-3.6-6.2-6c-1.7-2.4-3.1-4.9-4.6-7.5c-1.5-2.5-3.1-5.1-5.2-7.2c-2.1-2.1-4.8-3.7-7.9-3.9
			c-3-0.2-6.1,0.4-9.1,1.1c-3,0.7-6.1,1.6-9.2,2.2c-3.1,0.6-6.5,0.8-9.7-0.2c-3.1-1.1-5.9-3-8.5-4.9c-2.7-2-5.3-4-8.1-5.8
			c-2.8-1.7-6.1-3.1-9.4-2.7l-0.6,0c-0.2,0-0.4,0.1-0.6,0.1c-0.4,0.1-0.8,0.2-1.2,0.3c-0.8,0.3-1.6,0.5-2.4,0.9
			c-1.6,0.7-3,1.6-4.4,2.6c-2.8,1.9-5.5,4.2-8.4,6.2c-1.4,1-3,1.9-4.6,2.7c-1.6,0.7-3.4,1.2-5.2,1.3c-3.6,0.2-7.2-0.6-10.7-1.5
			c-3.5-0.9-7-1.9-10.6-2.2c-1.8-0.2-3.6-0.1-5.4,0.4c-1.8,0.4-3.3,1.4-4.7,2.6c-2.8,2.4-4.7,5.6-6.6,8.8c-1.9,3.2-3.7,6.5-6.3,9.4
			c-1.3,1.4-2.8,2.7-4.5,3.6c-1.7,0.9-3.6,1.4-5.5,1.9c-3.8,0.8-7.6,1.2-11.4,1.9c-3.7,0.7-7.6,1.7-10.4,4.4c-1.3,1.4-2.3,3.1-3,4.9
			c-0.7,1.8-1.1,3.7-1.5,5.7c-0.7,3.9-1,7.8-2,11.7c-0.4,1.9-1.1,3.9-2.1,5.6c-1,1.8-2.4,3.3-4,4.5c-3.2,2.5-6.8,4.4-10.2,6.5
			c-1.7,1.1-3.4,2.2-5,3.4c-1.5,1.3-2.9,2.8-3.9,4.5c-1,1.7-1.4,3.7-1.4,5.8c0,2,0.3,4,0.7,6c0.8,4,2.1,7.9,2.8,12
			c0.4,2,0.5,4.2,0.2,6.3c-0.3,2.1-1.1,4.1-2.1,5.9c-2.1,3.7-4.8,6.9-7.2,10.3c-1.2,1.7-2.3,3.5-3.2,5.3c-0.9,1.9-1.5,3.9-1.5,6
			c0,2.1,0.6,4.1,1.5,6c0.9,1.9,2,3.6,3.2,5.3c2.4,3.4,5.1,6.6,7.2,10.3c1,1.8,1.8,3.8,2.1,5.9c0.3,2.1,0.2,4.2-0.2,6.3
			c-0.7,4.1-1.9,8.1-2.8,12c-0.4,2-0.7,4-0.7,6c0,2,0.4,4,1.4,5.8c0.9,1.8,2.3,3.2,3.9,4.5c1.6,1.3,3.2,2.4,5,3.4
			c3.4,2.1,7,4,10.2,6.5c1.6,1.3,3,2.8,4,4.5c1,1.8,1.7,3.7,2.1,5.6c0.9,3.9,1.3,7.9,2,11.7c0.4,1.9,0.8,3.8,1.5,5.7
			c0.7,1.8,1.6,3.5,3,4.9c2.8,2.7,6.7,3.8,10.4,4.4c3.8,0.7,7.6,1,11.4,1.9c1.9,0.4,3.7,1,5.5,1.9c1.7,0.9,3.2,2.2,4.5,3.6
			c2.5,2.9,4.4,6.2,6.3,9.4c1.9,3.2,3.8,6.4,6.6,8.8c1.4,1.2,2.9,2.2,4.7,2.6c1.7,0.4,3.6,0.5,5.4,0.4c3.6-0.3,7.1-1.4,10.6-2.2
			c3.5-0.9,7-1.7,10.7-1.5c1.8,0.1,3.6,0.6,5.2,1.3c1.6,0.8,3.2,1.7,4.6,2.7c2.9,2,5.6,4.2,8.5,6.2c1.4,0.9,2.9,1.9,4.4,2.6
			c0.8,0.4,1.6,0.6,2.4,0.9c0.4,0.1,0.8,0.2,1.2,0.3c0.2,0,0.4,0.1,0.6,0.1l0.6,0c3.4,0.4,6.6-1,9.4-2.7c2.9-1.7,5.5-3.8,8.1-5.8
			c2.7-1.9,5.4-3.8,8.5-4.9c3.2-1,6.5-0.8,9.7-0.2c3.2,0.6,6.2,1.5,9.2,2.2c3,0.7,6.1,1.3,9.1,1.1c3-0.2,5.8-1.7,7.9-3.9
			c2.1-2.2,3.7-4.7,5.2-7.2c1.5-2.5,2.9-5.1,4.6-7.5c1.7-2.4,3.6-4.6,6.2-6c2.5-1.4,5.3-2,8-2.5c2.7-0.5,5.4-0.8,8.1-1.2
			c2.6-0.4,5.3-1,7.6-2c2.4-1,4.4-2.7,5.7-4.9c1.3-2.2,2-4.6,2.5-7.1c1-4.9,1.3-9.7,2.5-14.3c0.7-2.3,1.6-4.4,3.1-6.2
			c1.5-1.8,3.3-3.1,5.1-4.4c3.7-2.5,7.5-4.3,10.8-6.7c1.6-1.2,3.2-2.4,4.4-3.9c1.2-1.5,2.1-3.2,2.5-5.1c0.4-1.8,0.3-3.7,0.2-5.4
			c-0.2-1.8-0.6-3.5-0.9-5.2c-0.8-3.3-1.7-6.5-2.3-9.5c-0.6-3-0.7-6,0-8.7c0.7-2.7,2.1-4.9,3.4-6.9c2.7-3.9,5.3-7,7-9.8
			c1.8-2.7,2.7-5.1,3-6.7c0.2-0.8,0.2-1.4,0.3-1.9C383.9,190.7,383.9,190.5,383.9,190.5s0,0.2,0,0.6c0,0.4,0,1.1-0.2,1.9
			c-0.3,1.6-1.2,4-3,6.7c-1.7,2.8-4.3,5.9-7,9.8c-1.3,2-2.7,4.2-3.4,6.8c-0.7,2.6-0.6,5.6,0,8.6c0.6,3,1.5,6.2,2.3,9.5
			c0.4,1.7,0.8,3.4,1,5.2c0.2,1.8,0.3,3.7-0.1,5.5c-0.4,1.9-1.3,3.6-2.5,5.2c-1.3,1.5-2.8,2.8-4.5,4c-3.3,2.4-7.2,4.3-10.8,6.7
			c-1.8,1.2-3.6,2.6-5,4.3c-1.5,1.7-2.4,3.8-3.1,6.1c-1.3,4.5-1.5,9.4-2.5,14.3c-0.5,2.4-1.2,4.9-2.5,7.2c-1.3,2.3-3.4,4-5.8,5.1
			c-2.4,1.1-5.1,1.6-7.7,2.1c-2.7,0.4-5.4,0.8-8.1,1.2c-2.7,0.5-5.5,1.1-7.9,2.5c-2.5,1.3-4.4,3.5-6,5.9c-1.6,2.4-3.1,4.9-4.6,7.5
			c-1.5,2.5-3.1,5.1-5.2,7.3c-2.1,2.2-5,3.8-8.1,4c-3.1,0.2-6.2-0.4-9.3-1.1c-3.1-0.7-6.1-1.6-9.2-2.2c-3.1-0.6-6.4-0.8-9.4,0.2
			c-3,1.1-5.8,2.9-8.4,4.9c-2.7,2-5.3,4-8.1,5.8c-0.7,0.4-1.5,0.9-2.2,1.2c-0.4,0.2-0.8,0.4-1.2,0.5l-1.2,0.4
			c-1.6,0.5-3.4,0.8-5.1,0.6l-0.6-0.1c-0.2,0-0.4-0.1-0.6-0.1c-0.4-0.1-0.9-0.2-1.3-0.3c-0.8-0.3-1.7-0.5-2.4-0.9
			c-1.6-0.7-3.1-1.7-4.5-2.6c-2.9-2-5.6-4.2-8.5-6.1c-1.4-1-3-1.9-4.5-2.6c-1.6-0.7-3.3-1.1-5-1.3c-3.5-0.2-7,0.6-10.5,1.5
			c-3.5,0.9-7,1.9-10.7,2.2c-1.8,0.2-3.7,0.1-5.5-0.4c-1.8-0.4-3.5-1.5-4.9-2.7c-2.8-2.5-4.8-5.8-6.7-8.9c-1.9-3.2-3.7-6.5-6.2-9.3
			c-1.3-1.4-2.7-2.6-4.4-3.5c-1.7-0.8-3.5-1.4-5.3-1.8c-3.7-0.8-7.5-1.2-11.4-1.9c-1.9-0.4-3.8-0.8-5.7-1.5c-1.8-0.7-3.6-1.7-5-3.1
			c-1.4-1.4-2.4-3.2-3.1-5.1c-0.7-1.9-1.1-3.8-1.5-5.7c-0.7-3.9-1-7.8-2-11.7c-0.4-1.9-1.1-3.8-2.1-5.5c-1-1.7-2.3-3.2-3.9-4.4
			c-3.1-2.5-6.7-4.4-10.1-6.5c-1.7-1.1-3.4-2.2-5-3.5c-1.6-1.3-3-2.9-4-4.7c-1-1.8-1.5-3.9-1.4-6c0-2.1,0.3-4.1,0.7-6.1
			c0.9-4,2.1-8,2.8-12c0.3-2,0.5-4.1,0.2-6.1c-0.3-2-1.1-3.9-2-5.7c-2-3.6-4.8-6.8-7.2-10.2c-1.2-1.7-2.4-3.5-3.3-5.4
			c-0.9-1.9-1.5-4-1.5-6.2c0-2.2,0.7-4.3,1.6-6.2c0.9-1.9,2-3.7,3.3-5.4c2.4-3.4,5.1-6.6,7.2-10.2c1-1.8,1.8-3.7,2-5.7
			c0.3-2,0.1-4.1-0.2-6.1c-0.7-4.1-1.9-8-2.8-12c-0.4-2-0.7-4.1-0.7-6.1c0-2.1,0.4-4.2,1.5-6c1-1.8,2.4-3.4,4-4.7
			c1.6-1.3,3.3-2.4,5-3.5c3.5-2.1,7-4,10.1-6.5c1.6-1.2,2.9-2.7,3.9-4.4c1-1.7,1.6-3.6,2.1-5.5c0.9-3.8,1.2-7.8,2-11.7
			c0.4-1.9,0.8-3.9,1.5-5.7c0.7-1.8,1.7-3.6,3.1-5.1c1.4-1.4,3.2-2.4,5-3.1c1.8-0.7,3.8-1.1,5.7-1.5c3.8-0.7,7.6-1,11.4-1.9
			c1.8-0.4,3.7-1,5.3-1.8c1.7-0.8,3.1-2.1,4.4-3.5c2.5-2.8,4.3-6.1,6.2-9.3c1.9-3.2,3.9-6.5,6.7-8.9c1.4-1.2,3.1-2.2,4.9-2.7
			c1.8-0.5,3.7-0.5,5.5-0.4c3.7,0.4,7.2,1.4,10.7,2.2c3.5,0.9,7,1.7,10.5,1.5c1.7-0.1,3.5-0.6,5-1.3c1.6-0.7,3.1-1.6,4.5-2.6
			c2.9-2,5.6-4.2,8.5-6.1c1.4-1,2.9-1.9,4.5-2.6c0.8-0.4,1.6-0.6,2.4-0.9c0.4-0.1,0.8-0.2,1.3-0.3c0.2,0,0.4-0.1,0.6-0.1l0.6-0.1
			c1.7-0.2,3.5,0.1,5.1,0.6l1.2,0.4c0.4,0.2,0.8,0.4,1.2,0.5c0.8,0.3,1.5,0.8,2.2,1.2c2.9,1.8,5.5,3.9,8.1,5.8
			c2.6,1.9,5.4,3.8,8.4,4.9c3.1,1,6.3,0.8,9.4,0.2c3.1-0.6,6.2-1.5,9.2-2.2c3-0.7,6.2-1.3,9.3-1.1c3.1,0.2,6,1.8,8.1,4
			c2.1,2.2,3.7,4.8,5.2,7.3c1.5,2.5,2.9,5.1,4.6,7.5c1.6,2.3,3.6,4.5,6,5.9c2.4,1.4,5.2,2,7.9,2.5c2.7,0.5,5.4,0.8,8.1,1.2
			c2.7,0.4,5.3,1,7.7,2.1c2.4,1,4.6,2.8,5.8,5.1c1.3,2.2,2,4.7,2.5,7.2c1,4.9,1.3,9.8,2.5,14.3c0.6,2.2,1.6,4.4,3.1,6.1
			c1.5,1.7,3.2,3.1,5,4.3c3.6,2.4,7.4,4.3,10.8,6.7c1.7,1.2,3.2,2.5,4.5,4c1.2,1.5,2.1,3.3,2.5,5.2c0.4,1.9,0.3,3.7,0.1,5.5
			c-0.2,1.8-0.6,3.5-1,5.2c-0.8,3.3-1.7,6.5-2.3,9.5c-0.6,3-0.7,6,0,8.6c0.7,2.6,2.1,4.8,3.4,6.8c2.7,3.9,5.3,7,7,9.8
			c1.8,2.7,2.7,5.1,3,6.7c0.2,0.8,0.2,1.5,0.2,1.9C383.9,190.3,383.9,190.5,383.9,190.5z"/>
	</g>
</g>
<g>
	<path class="st9" d="M282.6,170.5"/>
</g>
<g>
	<g>
		
			<ellipse transform="matrix(0.2468 -0.9691 0.9691 0.2468 -199.8432 465.512)" class="st3" cx="199.5" cy="361.3" rx="34.4" ry="0.3"/>
	</g>
</g>
<g>
	<circle class="st5" cx="235.8" cy="190.5" r="90.8"/>
</g>
<g>
	<path class="st10" d="M179.9,159.1c-1.3,1.3-8.1,13.8-8.8,24.1c-0.6,10.3,0.9,68.3,0.9,68.3l0.3,3.8c16.3,19.1,75.7,47.5,129.2-0.1
		l0,0l3-35.7l-8.8-75.5l-30.7-7.5l-7.2-11.7l-47.9,11.2l-4.3,10.1L179.9,159.1z"/>
</g>
<g>
	<g>
		<g>
			<g>
				<g>
					<g>
						<g>
							<g>
								<g>
									<g>
										<g>
											<path class="st3" d="M254.5,94.5c2.1-7.8,4.2-15.7,4.9-23.8c0.7-8.1,0.1-16.5-3.2-23.9c-0.5-1.1-4.5-8.7-5.8-8.5
												c-0.9,0.1,1.8,7.2,1.3,8c-3.8,7.5-4.5,16.2-3.4,24.6C249.5,79.2,251.7,86.6,254.5,94.5"/>
										</g>
									</g>
								</g>
							</g>
						</g>
					</g>
				</g>
			</g>
			<g>
				<g>
					<g>
						<path class="st11" d="M253.7,63.5c-0.4-20.4-12.6-37.1-32.9-36.2l-1.9,0.2c-18.9,2-33.1,18.1-32.6,37.1
							c0.4,17.7,1.1,37.2,2.2,46.5c2.3,19.4,22.1,20.4,22.1,20.4c0,0,0.9,12.8,0.9,12.8l8.4,9.1l38.7-24L253.7,63.5z"/>
					</g>
				</g>
			</g>
			<g>
				<g>
					<g>
						<g>
							<g>
								<g>
									<g>
										<g>
											<g>
												<g>
													<path class="st12" d="M210.6,131.7c0,0,12.3-0.6,24.5-10.2c0,0-4.1,17.6-23.7,17.9L210.6,131.7z"/>
												</g>
											</g>
										</g>
									</g>
								</g>
							</g>
						</g>
					</g>
				</g>
			</g>
			<g>
				<g>
					<g>
						<g>
							<g>
								<g>
									<g>
										<g>
											<g>
												<g>
													<g>
														<g>
															<g>
																<g>
																	<g>
																		<g>
																			<path class="st3" d="M197.5,80.5c0.1,1.5,1.4,2.6,3,2.5c1.5-0.1,2.7-1.3,2.6-2.8c-0.1-1.5-1.4-2.6-3-2.5
																				C198.6,77.8,197.4,79,197.5,80.5z"/>
																		</g>
																	</g>
																</g>
															</g>
														</g>
													</g>
												</g>
											</g>
										</g>
									</g>
								</g>
							</g>
						</g>
					</g>
				</g>
			</g>
			<g>
				<g>
					<g>
						<g>
							<g>
								<g>
									<g>
										<g>
											<g>
												<g>
													<g>
														<g>
															<g>
																<g>
																	<g>
																		<g>
																			<g>
																				<path class="st3" d="M191.3,72.3c0.4,0.3,2.3-1.5,5.3-1.8c3-0.3,5.3,1,5.6,0.6c0.1-0.2-0.3-0.8-1.3-1.4
																					c-1-0.6-2.7-1.1-4.5-0.9c-1.9,0.2-3.4,1.1-4.2,1.9C191.4,71.5,191.2,72.2,191.3,72.3z"/>
																			</g>
																		</g>
																	</g>
																</g>
															</g>
														</g>
													</g>
												</g>
											</g>
										</g>
									</g>
								</g>
							</g>
						</g>
					</g>
				</g>
			</g>
			<g>
				<g>
					<g>
						<g>
							<g>
								<g>
									<g>
										<g>
											<g>
												<g>
													<g>
														<g>
															<g>
																<g>
																	<g>
																		<g>
																			<path class="st3" d="M223.9,78.3c0.1,1.5,1.4,2.6,3,2.5c1.5-0.1,2.7-1.3,2.6-2.8c-0.1-1.5-1.4-2.6-3-2.5
																				C225,75.5,223.8,76.8,223.9,78.3z"/>
																		</g>
																	</g>
																</g>
															</g>
														</g>
													</g>
												</g>
											</g>
										</g>
									</g>
								</g>
							</g>
						</g>
					</g>
				</g>
			</g>
			<g>
				<g>
					<g>
						<g>
							<g>
								<g>
									<g>
										<g>
											<g>
												<g>
													<g>
														<g>
															<g>
																<g>
																	<g>
																		<g>
																			<g>
																				<path class="st3" d="M220.7,70.4c0.4,0.3,2.3-1.5,5.3-1.8c3-0.3,5.3,1,5.6,0.6c0.1-0.2-0.3-0.8-1.3-1.4
																					c-1-0.6-2.7-1.1-4.5-0.9c-1.9,0.2-3.4,1.1-4.2,1.9C220.8,69.6,220.5,70.3,220.7,70.4z"/>
																			</g>
																		</g>
																	</g>
																</g>
															</g>
														</g>
													</g>
												</g>
											</g>
										</g>
									</g>
								</g>
							</g>
						</g>
					</g>
				</g>
			</g>
			<g>
				<g>
					<g>
						<g>
							<g>
								<g>
									<g>
										<g>
											<g>
												<g>
													<g>
														<g>
															<g>
																<g>
																	<g>
																		<g>
																			<path class="st3" d="M212.4,94.5c0-0.2-1.9-0.3-4.9-0.4c-0.8,0-1.5-0.1-1.7-0.6c-0.2-0.5,0-1.4,0.3-2.3
																				c0.5-1.9,1.1-3.9,1.6-6c2.3-8.6,3.8-15.6,3.5-15.7c-0.3-0.1-2.5,6.8-4.7,15.4c-0.5,2.1-1.1,4.1-1.5,6.1
																				c-0.2,0.9-0.6,1.9-0.1,3c0.3,0.5,0.9,0.9,1.4,1c0.5,0.1,0.9,0.1,1.3,0C210.6,94.9,212.4,94.7,212.4,94.5z"/>
																		</g>
																	</g>
																</g>
															</g>
														</g>
													</g>
												</g>
											</g>
										</g>
									</g>
								</g>
							</g>
						</g>
					</g>
				</g>
			</g>
			<g>
				<g>
					<g>
						<g>
							<g>
								<g>
									<g>
										<g>
											<g>
												<g>
													<g>
														<g>
															<g>
																<g>
																	<g>
																		<g>
																			<path class="st3" d="M221.4,95.7c-0.5,0-0.2,3.3-2.7,5.9c-2.5,2.6-6,2.6-6,3.1c0,0.2,0.8,0.5,2.3,0.4
																				c1.4-0.1,3.5-0.8,5-2.4c1.5-1.6,2.1-3.6,2-4.9C222.1,96.4,221.7,95.6,221.4,95.7z"/>
																		</g>
																	</g>
																</g>
															</g>
														</g>
													</g>
												</g>
											</g>
										</g>
									</g>
								</g>
							</g>
						</g>
					</g>
				</g>
			</g>
			<g>
				<g>
					<g>
						<g>
							<g>
								<g>
									<g>
										<g>
											<g>
												<g>
													<g>
														<g>
															<path class="st3" d="M219.6,58.3c0.4,0.8,3.3,0.1,6.9,0.1c3.6,0,6.5,0.7,6.9-0.1c0.2-0.4-0.4-1.1-1.6-1.7
																c-1.2-0.7-3.1-1.2-5.2-1.2c-2.1,0-4,0.5-5.2,1.2C220,57.2,219.4,57.9,219.6,58.3z"/>
														</g>
													</g>
												</g>
											</g>
										</g>
									</g>
								</g>
							</g>
						</g>
					</g>
				</g>
			</g>
			<g>
				<g>
					<g>
						<g>
							<g>
								<g>
									<g>
										<g>
											<g>
												<g>
													<g>
														<g>
															<path class="st3" d="M191.5,62.2c0.6,0.6,2.6-0.3,5.1-0.6c2.5-0.4,4.6,0,5-0.8c0.2-0.4-0.2-1-1.2-1.6
																c-1-0.5-2.5-0.9-4.2-0.7c-1.7,0.2-3.1,1-3.9,1.8C191.5,61.2,191.3,61.9,191.5,62.2z"/>
														</g>
													</g>
												</g>
											</g>
										</g>
									</g>
								</g>
							</g>
						</g>
					</g>
				</g>
			</g>
			<g>
				<g>
					<g>
						<g>
							<g>
								<g>
									<g>
										<g>
											<path class="st11" d="M253.7,78.1c0.3-0.2,12.9-5.4,13.9,8c1,13.3-12.6,11.6-12.7,11.2C254.9,96.9,253.7,78.1,253.7,78.1
												z"/>
										</g>
									</g>
								</g>
							</g>
						</g>
					</g>
				</g>
			</g>
			<g>
				<g>
					<g>
						<g>
							<g>
								<g>
									<g>
										<g>
											<g>
												<path class="st12" d="M258.6,91.9c0.1,0,0.2,0.1,0.6,0.3c0.4,0.1,1.1,0.2,1.7-0.1c1.4-0.6,2.4-2.9,2.3-5.4
													c-0.1-1.2-0.4-2.4-0.9-3.3c-0.5-0.9-1.2-1.6-1.9-1.7c-0.7-0.1-1.2,0.3-1.3,0.7c-0.2,0.4,0,0.6-0.1,0.7
													c0,0-0.3-0.2-0.2-0.8c0-0.3,0.2-0.6,0.5-0.9c0.3-0.3,0.8-0.5,1.3-0.4c1,0,2,0.9,2.6,1.9c0.6,1,1,2.3,1.1,3.7
													c0.1,2.7-1.1,5.3-3,6c-0.9,0.3-1.7,0.1-2.2-0.2C258.7,92.2,258.6,91.9,258.6,91.9z"/>
											</g>
										</g>
									</g>
								</g>
							</g>
						</g>
					</g>
				</g>
			</g>
			<g>
				<g>
					<g>
						<g>
							<g>
								<g>
									<g>
										<g>
											<path class="st3" d="M193.5,42c-2.2-1.1,3.8-8.5,8.9-11.2c7.8-4.2,19.9-7.2,27.4-5.6c9.1,2,16.7,5.9,21.7,13.7
												c5,7.8,7.3,17.2,7.6,26.4c0.1,2.8,0,5.8-1.4,8.3c-1.7,3.1-5.1,5.2-4.7,9.2c0.2,1.5-0.2,3-1.1,4.2
												c-2.3,2.8-5.4,0.5-6.9-1.9c-3.3-5-4-11.3-4.6-17.2c-0.5-4.2-0.9-8.6,0-12.7c0.5-2.3,1.4-4.4,1.8-6.7
												c0.4-2.3,0.2-4.8-1.4-6.6c-0.2-0.3-0.6-0.6-1.2-1c-4-3.1-9.3-3.7-14-1.7c-7.3,3.1-19.9,7.9-23.4,5.6
												c-5.1-3.4-6.4-5.7-6.4-5.7L193.5,42z"/>
										</g>
									</g>
								</g>
							</g>
						</g>
					</g>
				</g>
			</g>
		</g>
	</g>
</g>
<g>
	<path class="st10" d="M179.9,159.1c-0.8,1.1-11.7,4.7-15.8,11.6c-4.1,6.9-8.2,37.9-8.2,37.9l-2.6,20.4c5.2,8.2,12.2,19.1,19.6,26.8
		L179.9,159.1z"/>
</g>
<g class="st4">
	<g>
		<path d="M262,189c0.5,4.2,0.9,8.4,2.4,12.3c1.4,3.9,3.9,7.6,7.6,9.7c1.5,0.8,3.3,1.4,4.6,2.6c1.4,1.3,2.1,3.1,3.3,4.6
			c1.5,1.6,3.5,2.6,5.6,3.3c6.1,2.2,12.1,3.2,18.6,3c0.2-2.1,0.2-10,0.4-12.1L262,189z"/>
	</g>
</g>
<g>
	<path class="st10" d="M295.7,144.1c0,0,13.8,4.1,17.8,9.9c4,5.9,11.2,28.6,12.7,32.8c1.5,4.2,0.2,14-2.6,21
		c-2.8,7-7.5,13.1-15.8,14c-8.3,0.9-21.3-3.9-24.2-7c-2.9-3.1-4.2-10.1-4.2-10.1c3.7-0.6,7.3-1.6,10.8-2.7"/>
</g>
<g>
	<g>
		<path class="st3" d="M290.3,202.1c0,0-0.1,0-0.2,0.1c-0.1,0-0.3,0.1-0.5,0.2c-0.5,0.2-1.2,0.4-2.1,0.7c-1.8,0.5-4.5,1.3-8,1.9
			l0.1-0.2c0.3,1.6,0.8,3.3,1.4,5.1c0.3,0.9,0.7,1.8,1.2,2.7c0.5,0.9,1.1,1.8,1.8,2.5c0.8,0.7,1.8,1.3,2.8,1.8c1,0.6,2.1,1,3.2,1.5
			c2.3,0.9,4.7,1.7,7.3,2.3c2.6,0.6,5.4,1,8.2,1.1c0.7,0,1.4-0.1,2.2-0.1c0.7-0.1,1.4-0.2,2.1-0.4c1.4-0.3,2.8-0.9,4.1-1.6
			c2.6-1.5,4.9-3.7,6.6-6.4c1.7-2.7,3-5.7,3.9-8.9c0.7-2.4,1.2-4.9,1.6-7.3c0.3-2.4,0.5-4.9,0.4-7.3c-0.1-1.2-0.3-2.3-0.7-3.4
			c-0.4-1.1-0.7-2.2-1.1-3.3c-0.7-2.2-1.4-4.3-2.1-6.4c-1.4-4.2-2.8-8.1-4.2-11.8c-1.4-3.6-2.8-7.1-4.4-9.9
			c-0.8-1.4-1.9-2.6-3.1-3.5c-1.2-0.9-2.4-1.7-3.5-2.3c-2.3-1.3-4.4-2.2-6.1-3c-1.7-0.7-3.1-1.2-4-1.5c-0.4-0.2-0.8-0.3-1.1-0.4
			c-0.2-0.1-0.4-0.1-0.4-0.1c0,0,0.1,0,0.4,0.1c0.3,0.1,0.6,0.2,1.1,0.3c0.9,0.3,2.3,0.8,4.1,1.5c1.7,0.7,3.8,1.6,6.2,2.9
			c1.2,0.7,2.4,1.4,3.6,2.3c1.2,0.9,2.4,2.1,3.2,3.6c1.7,2.9,3.1,6.3,4.5,10c1.4,3.7,2.8,7.6,4.3,11.8c0.7,2.1,1.4,4.2,2.2,6.4
			c0.4,1.1,0.7,2.2,1.1,3.3c0.4,1.1,0.7,2.3,0.7,3.5c0.2,2.4,0,4.9-0.4,7.4c-0.3,2.5-0.9,5-1.6,7.4c-0.9,3.2-2.2,6.3-4,9
			c-1.7,2.7-4,5.1-6.8,6.6c-1.3,0.8-2.8,1.3-4.3,1.6c-0.7,0.2-1.5,0.3-2.2,0.4c-0.7,0-1.5,0.1-2.2,0.1c-2.9,0-5.7-0.5-8.3-1.1
			c-2.6-0.6-5.1-1.4-7.4-2.4c-1.1-0.5-2.2-1-3.3-1.5c-1-0.6-2-1.1-2.9-1.9c-0.8-0.8-1.4-1.7-1.9-2.6c-0.5-0.9-0.9-1.9-1.2-2.8
			c-0.6-1.8-1.1-3.5-1.4-5.1l0-0.1l0.1,0c3.5-0.6,6.2-1.3,8.1-1.8c0.9-0.3,1.6-0.5,2.1-0.6c0.2-0.1,0.4-0.1,0.5-0.2
			C290.2,202.1,290.3,202.1,290.3,202.1z"/>
	</g>
</g>
<g>
	<g>
		<path class="st3" d="M315.5,194.7c-0.1,0-0.4-1.7-1.6-4.2c-1.1-2.5-3.2-5.9-6.2-8.8c-1.5-1.5-3.2-2.6-4.8-3.4
			c-0.4-0.2-0.8-0.4-1.2-0.5c-0.4-0.2-0.8-0.3-1.2-0.4c-0.8-0.3-1.5-0.3-2.2-0.5c-0.2,0-0.3-0.1-0.5-0.1c-0.2,0-0.3,0-0.5,0
			c-0.3,0-0.6,0-0.9,0c-0.6,0-1,0.1-1.4,0.1c-0.8,0.1-1.2,0.2-1.2,0.1c0,0,0.4-0.1,1.2-0.3c0.4-0.1,0.9-0.2,1.4-0.2
			c0.3,0,0.6,0,0.9,0c0.2,0,0.3,0,0.5,0c0.2,0,0.3,0,0.5,0.1c0.7,0.1,1.5,0.1,2.3,0.4c0.4,0.1,0.8,0.2,1.2,0.4
			c0.4,0.2,0.8,0.4,1.3,0.5c1.7,0.8,3.4,2,5,3.5c3.1,3,5.1,6.5,6.2,9.1c0.3,0.7,0.5,1.2,0.7,1.8c0.2,0.5,0.3,1,0.4,1.4
			C315.5,194.3,315.6,194.7,315.5,194.7z"/>
	</g>
</g>
<g>
	<g>
		<path class="st3" d="M323.1,182.4c-0.1,0-0.5-1.8-2.1-4.2c-1.6-2.4-4.5-5.4-8.8-6.6c-4.2-1.3-8.3-0.9-11.2-0.6
			c-1.4,0.2-2.5,0.3-3.4,0.4c-0.8,0.1-1.3,0.1-1.3,0.1c0,0,0.4-0.1,1.2-0.3c0.8-0.2,2-0.4,3.4-0.6c2.9-0.4,7-0.8,11.4,0.5
			c2.2,0.7,4.1,1.8,5.6,3c1.5,1.3,2.6,2.7,3.4,3.9c0.8,1.3,1.2,2.4,1.5,3.2C323,181.9,323.1,182.4,323.1,182.4z"/>
	</g>
</g>
<g>
	<g>
		<path class="st3" d="M312.7,167.6c0,0.2-3.6-1-8.2-0.8c-4.6,0.2-8.1,1.6-8.1,1.4c0-0.1,0.8-0.5,2.3-0.9c1.4-0.5,3.5-0.9,5.8-1
			c2.3-0.1,4.4,0.2,5.9,0.5C311.8,167.1,312.7,167.5,312.7,167.6z"/>
	</g>
</g>
<g>
	<g>
		<path class="st3" d="M290.4,147.5c0.1,0-0.1,1.4-0.3,3.7c-0.2,2.3-0.2,5.4,0.1,8.8c0.3,3.3,0.9,6.3,1.4,8.4l-0.4,0.1
			c-0.4-1.2-0.7-2.1-0.9-2.7c-0.2-0.7-0.3-1-0.3-1c0,0,0.2,0.3,0.5,1s0.6,1.5,1.1,2.7l-0.4,0.1c-0.6-2.1-1.3-5.1-1.6-8.5
			c-0.3-3.5-0.2-6.6,0.1-8.9c0.1-1.1,0.3-2,0.4-2.7C290.3,147.8,290.3,147.5,290.4,147.5z"/>
	</g>
</g>
<g>
	<g>
		<path class="st11" d="M270.9,121.8c0,0-7.2,0-8.1,8.6c-0.7,6.6,0,13,0,15.9s-1.3,13.2-1.3,13.2s-4.9,4.3-4.8,9.5
			c0.1,5.2,3.8,6.8,3.8,6.8s-2.3,5,2.1,9.5c0,0-2.1,4.8-0.4,8c1.3,2.5,4.3,3.3,4.3,3.3s-2.1,4.7,3,6.7c3,1.2,7.4,0.9,7.4,0.9
			l5.3-0.1l4.7,2.6c0,0,8.1-3.5,8.3-8.3c0.2-4.7,0.2-4.7,0.2-4.7s-2.3-7.8-2.5-10.3c-0.2-2.5,1.9-8.5,0.6-11.1
			c-1.2-2.7-5.6-4.3-5.2-8c0.4-3.8-0.4-5.8-2.3-7.9c-1.9-2.1-10.1-6.2-10.1-6.2s-2.1-6-2.1-10.1C274,136,278.1,123.4,270.9,121.8z"
			/>
	</g>
	<g>
		<g>
			<path class="st12" d="M275.7,151.8c0,0.1-0.7,0.5-2,1.3c-1.3,0.7-3,1.7-5,2.8c-2,1.1-3.7,2-5,2.6s-2.1,1-2.2,1
				c0-0.1,0.7-0.5,2-1.3c1.3-0.7,3-1.7,5-2.8c2-1.1,3.7-2,5-2.6C274.9,152.1,275.7,151.8,275.7,151.8z"/>
		</g>
	</g>
	<g>
		<g>
			<path class="st12" d="M280.4,168c0,0-0.2,0.2-0.6,0.6c-0.4,0.3-1.1,0.8-1.9,1.3c-1.6,1-4,2.3-6.7,3.4c-2.7,1-5.4,1.7-7.3,2
				c-0.9,0.1-1.7,0.2-2.3,0.3c-0.5,0-0.8,0-0.8,0c0-0.1,1.2-0.2,3-0.6c1.9-0.4,4.4-1,7.1-2.1c2.7-1,5.1-2.3,6.7-3.2
				C279.4,168.6,280.4,167.9,280.4,168z"/>
		</g>
	</g>
	<g>
		<g>
			<path class="st12" d="M286.5,162.9c0.1,0-0.1,1-1,1.7c-0.8,0.8-1.8,1-1.8,0.8c-0.1-0.1,0.7-0.5,1.5-1.2
				C286,163.5,286.4,162.8,286.5,162.9z"/>
		</g>
	</g>
	<g>
		<g>
			<path class="st12" d="M283.6,182.2c0,0.1-1.1,0.5-3,1.1c-1.9,0.6-4.5,1.2-7.5,1.7c-3,0.5-5.7,0.7-7.7,0.7c-2,0-3.2,0-3.2-0.1
				c0-0.1,1.2-0.1,3.2-0.3c2-0.1,4.6-0.4,7.6-0.9c2.9-0.5,5.6-1.1,7.5-1.6C282.4,182.4,283.6,182.1,283.6,182.2z"/>
		</g>
	</g>
	<g>
		<g>
			<path class="st12" d="M290.1,181c-0.1,0,0.2-0.6,0.5-1.5c0.3-0.9,0.6-2.3,0.4-3.8c-0.2-1.5-0.8-2.8-1.3-3.6
				c-0.5-0.8-1-1.3-0.9-1.4c0,0,0.6,0.3,1.2,1.2c0.6,0.8,1.3,2.1,1.5,3.7c0.2,1.6-0.1,3-0.6,4C290.6,180.5,290.2,181,290.1,181z"/>
		</g>
	</g>
	<g>
		<g>
			<path class="st12" d="M284,196.6c0,0.1-0.9,0.3-2.5,0.6c-1.6,0.3-3.8,0.5-6.3,0.5c-2.5,0-4.7-0.3-6.3-0.5
				c-1.6-0.3-2.6-0.6-2.5-0.6c0-0.1,1,0.1,2.6,0.2c1.6,0.2,3.8,0.4,6.2,0.4c2.4,0,4.6-0.2,6.2-0.3C283,196.7,284,196.5,284,196.6z"
				/>
		</g>
	</g>
	<g>
		<g>
			<path class="st12" d="M271.3,140.3c0,0.1-0.3,0.3-1,0.6c-0.7,0.2-1.7,0.4-2.7,0.3c-1.1-0.1-2-0.5-2.6-0.9
				c-0.6-0.4-0.9-0.7-0.8-0.8c0.1-0.1,1.5,1,3.5,1.2C269.6,140.9,271.2,140.1,271.3,140.3z"/>
		</g>
	</g>
	<g>
		<g>
			<path class="st12" d="M291.6,181.6c0,0,0.1,0.3,0.1,0.8c0,0.5,0,1.2-0.2,2.1c-0.2,0.9-0.5,1.9-0.8,3c-0.3,1.1-0.6,2.4-0.4,3.6
				c0.2,1.3,1.1,2.3,1.3,3.6c0.2,1.3-0.3,2.3-0.8,3.1c-0.5,0.8-1,1.3-1.3,1.7c-0.3,0.4-0.5,0.5-0.6,0.5c-0.1-0.1,0.7-0.9,1.5-2.4
				c0.4-0.8,0.8-1.8,0.6-2.8c-0.1-1.1-1.1-2.1-1.3-3.6c-0.2-1.4,0.1-2.7,0.4-3.9c0.3-1.1,0.7-2.1,0.9-3
				C291.6,182.7,291.5,181.6,291.6,181.6z"/>
		</g>
	</g>
</g>
<g>
	<g>
		<path class="st3" d="M294.3,187.8c0,0,0.2,0.3,0.3,0.9c0.2,0.6,0.4,1.5,0.6,2.6c0.2,1.1,0.4,2.5,0.5,4c0,1.5-0.1,3.3-0.9,4.9
			c-0.8,1.6-2,2.9-3.1,3.9c-1.1,1-2.2,1.8-3.2,2.5c-0.9,0.6-1.7,1.1-2.3,1.4c-0.6,0.3-0.9,0.5-0.9,0.4c0-0.1,1.2-0.8,3-2.2
			c0.9-0.7,2-1.5,3.1-2.5c1.1-1,2.2-2.3,2.9-3.8c0.7-1.5,0.9-3.2,0.9-4.7c0-1.5-0.2-2.8-0.4-4C294.6,189.2,294.2,187.9,294.3,187.8z
			"/>
	</g>
</g>
<g>
	<g>
		<path class="st3" d="M218.9,154.6c0,0-0.4-0.3-1.2-0.9c-0.8-0.7-1.8-1.5-3-2.5c-0.6-0.5-1.3-1.1-2.1-1.8c-0.4-0.3-0.7-0.6-1.2-0.8
			c-0.4-0.2-0.9-0.3-1.3,0c-0.9,0.5-1.4,1.6-2.2,2.5c-0.7,1-1.4,2-2.2,3c-1.2,1.6-2.4,3.2-3.4,4.6l-0.6,0.9l0.2-1.1
			c0.7-3.6,1.7-6.6,2.5-8.7c0.4-1,0.8-1.9,1-2.4c0.3-0.6,0.4-0.8,0.4-0.8c0,0-0.1,0.3-0.3,0.9c-0.2,0.6-0.5,1.4-0.9,2.5
			c-0.7,2.1-1.6,5.1-2.3,8.7l-0.4-0.2c1.1-1.4,2.2-3,3.4-4.6c0.8-1,1.5-2,2.2-3c0.4-0.5,0.7-0.9,1.1-1.4c0.4-0.5,0.8-0.9,1.3-1.2
			c0.6-0.3,1.3-0.2,1.7,0.1c0.5,0.3,0.9,0.6,1.3,0.9c0.7,0.6,1.4,1.2,2,1.8c1.2,1.1,2.2,1.9,2.9,2.6
			C218.5,154.2,218.9,154.5,218.9,154.6z"/>
	</g>
</g>
<g>
	<g>
		<path class="st3" d="M261.1,146.1c0,0-0.1,0.1-0.4,0.3c-0.3,0.2-0.7,0.6-1.2,0.9c-1.1,0.8-2.6,1.9-4.4,3.3
			c-3.8,2.8-9,6.6-14.7,10.8l-0.2,0.2l-0.1-0.2c-0.1-0.2-0.2-0.4-0.4-0.6c-2.7-4.3-5.2-8.3-7.4-11.7l0.3,0.1
			c-3.5,1.4-6.3,2.9-8.2,4.1c-0.9,0.6-1.7,1-2.2,1.4c-0.5,0.3-0.8,0.5-0.8,0.5c0,0,0.2-0.2,0.7-0.6c0.5-0.4,1.2-0.9,2.1-1.5
			c1.9-1.2,4.6-2.8,8.2-4.3l0.2-0.1l0.1,0.2c2.2,3.4,4.7,7.4,7.4,11.6c0.1,0.2,0.2,0.4,0.4,0.6l-0.4-0.1c5.8-4.2,11-7.9,14.8-10.7
			c1.9-1.3,3.4-2.4,4.5-3.2c0.5-0.3,0.9-0.6,1.2-0.8C260.9,146.2,261.1,146.1,261.1,146.1z"/>
	</g>
</g>
<g>
	<g>
		<path class="st3" d="M171.3,185.9c0,0,0,0.2,0.1,0.7c0,0.5,0,1.2,0.1,2c0,1.8,0.1,4.3,0.1,7.4c0.1,6.3,0.4,15,0.7,24.5
			c0.3,9.6,0.5,18.3,0.5,24.6c0,3.1,0,5.7,0,7.4c0,0.8,0,1.5,0,2c0,0.5,0,0.7-0.1,0.7c0,0,0-0.2-0.1-0.7c0-0.5,0-1.2-0.1-2
			c0-1.8-0.1-4.3-0.1-7.4c-0.1-6.3-0.4-15-0.7-24.6c-0.3-9.6-0.5-18.3-0.5-24.6c0-3.1,0-5.7,0-7.4c0-0.8,0-1.5,0-2
			C171.3,186.1,171.3,185.9,171.3,185.9z"/>
	</g>
</g>
<g>
	<g>
		<path class="st3" d="M219.2,276.2c0,0,0-0.1-0.1-0.3c0-0.2-0.1-0.5-0.1-0.8c-0.1-0.8-0.2-1.9-0.3-3.3c-0.3-2.8-0.6-7-0.9-12.1
			c-0.3-5.1-0.6-11.2-0.8-17.9c-0.1-6.7-0.2-14.2,0-22c0.2-7.8,0.5-15.2,1-21.9c0.5-6.7,1-12.8,1.5-17.9c0.5-5.1,1-9.2,1.4-12
			c0.2-1.4,0.4-2.5,0.5-3.3c0.1-0.3,0.1-0.6,0.1-0.8c0-0.2,0.1-0.3,0.1-0.3c0,0,0,0.1,0,0.3c0,0.2,0,0.5-0.1,0.9
			c-0.1,0.8-0.2,1.9-0.4,3.3c-0.3,2.8-0.8,6.9-1.3,12c-0.5,5.1-1,11.1-1.4,17.9c-0.4,6.7-0.8,14.1-0.9,21.9
			c-0.2,7.8-0.1,15.2,0,21.9c0.1,6.7,0.4,12.8,0.7,17.9c0.3,5.1,0.5,9.2,0.8,12.1c0.1,1.4,0.2,2.5,0.2,3.3c0,0.4,0,0.6,0,0.9
			C219.2,276.1,219.2,276.2,219.2,276.2z"/>
	</g>
</g>
<g>
	<g>
		<path class="st3" d="M189.4,112.5c0,0-0.4,0.2-1.1,0.7c-0.7,0.5-1.8,1.1-3.1,2c-1.4,0.9-3,2.2-4.9,3.6c-1,0.7-1.9,1.6-3,2.5
			c-0.5,0.4-1.1,0.9-1.6,1.4c-0.6,0.5-1.1,1-1.7,1.6c-4.5,4.2-9.7,9.9-14.5,17.4c-0.6,0.9-1.2,1.9-1.8,2.9c-0.6,1-1.1,2-1.7,3
			c-0.5,1-1.2,2.1-1.7,3.2c-0.5,1.1-1,2.2-1.5,3.4c-0.3,0.6-0.5,1.1-0.8,1.7c-0.2,0.6-0.5,1.2-0.7,1.8c-0.5,1.2-0.9,2.4-1.4,3.7
			c-0.7,2.5-1.7,5.1-2.2,7.8c-1.4,5.4-2.2,11.2-2.5,17.2c-0.3,6.1,0,12.4,1.1,18.8c2.1,12.9,7.2,26.3,15.8,38.2
			c8.5,11.9,20.6,22.3,35,29.2c14.4,6.9,31.3,9.8,48.2,8.1c16.9-1.7,32.7-8.4,45.4-18.1c3.2-2.4,6.1-5.1,8.9-7.8
			c0.7-0.7,1.4-1.4,2-2.1c0.7-0.7,1.3-1.4,2-2.2c0.6-0.7,1.3-1.5,1.9-2.2c0.6-0.8,1.2-1.5,1.8-2.3c4.8-6,8.5-12.6,11.5-19.4
			c3-6.7,4.9-13.7,6.1-20.5c0.6-3.4,1-6.8,1.2-10.2c0.1-1.7,0.1-3.4,0.2-5c0-1.7-0.1-3.3-0.2-4.9c0-0.8-0.1-1.6-0.1-2.4
			c0-0.8-0.2-1.6-0.3-2.4c-0.2-1.6-0.4-3.2-0.6-4.7c-0.2-1.6-0.6-3.1-0.9-4.6c-0.3-1.5-0.6-3-1-4.5c-0.4-1.5-0.8-2.9-1.2-4.3
			c-0.2-0.7-0.4-1.4-0.7-2.1c-0.3-0.7-0.5-1.4-0.8-2.1c-0.5-1.4-1-2.7-1.6-4c-0.6-1.3-1.2-2.6-1.8-3.8c-4.8-10-11-18.1-17.3-24.4
			c-6.2-6.3-12.5-10.7-17.8-13.9c-1.3-0.8-2.6-1.5-3.8-2.2c-0.6-0.4-1.2-0.6-1.8-0.9c-0.6-0.3-1.1-0.5-1.7-0.8c-1.1-0.5-2.1-1-3-1.4
			c-0.9-0.5-1.8-0.7-2.5-1c-1.5-0.6-2.7-1-3.5-1.3c-0.8-0.3-1.2-0.5-1.2-0.5s0.4,0.1,1.2,0.4c0.8,0.3,2,0.7,3.5,1.3
			c0.8,0.3,1.6,0.6,2.6,1c0.9,0.4,1.9,0.9,3,1.4c0.5,0.3,1.1,0.5,1.7,0.8c0.6,0.3,1.2,0.5,1.8,0.9c1.2,0.7,2.5,1.4,3.8,2.2
			c5.3,3.2,11.6,7.6,17.9,13.9c6.3,6.3,12.5,14.4,17.4,24.4c0.6,1.3,1.2,2.5,1.8,3.8c0.6,1.3,1,2.7,1.6,4c0.3,0.7,0.5,1.4,0.8,2.1
			c0.3,0.7,0.5,1.4,0.7,2.1c0.4,1.4,0.8,2.9,1.3,4.3c0.5,1.5,0.7,3,1.1,4.5c0.3,1.5,0.7,3.1,0.9,4.6c0.2,1.6,0.4,3.2,0.6,4.8
			c0.1,0.8,0.2,1.6,0.3,2.4c0,0.8,0.1,1.6,0.1,2.4c0.1,1.6,0.2,3.3,0.2,5c-0.1,1.7-0.1,3.4-0.2,5c-0.2,3.4-0.6,6.8-1.2,10.3
			c-1.2,6.9-3.2,13.9-6.1,20.6c-3,6.7-6.7,13.4-11.5,19.5c-0.6,0.8-1.2,1.5-1.8,2.3c-0.6,0.7-1.3,1.5-1.9,2.2
			c-0.6,0.7-1.3,1.5-2,2.2c-0.7,0.7-1.4,1.4-2,2.1c-2.8,2.7-5.8,5.4-9,7.8c-12.7,9.8-28.6,16.5-45.6,18.2c-17,1.8-33.9-1.2-48.4-8.2
			c-14.5-6.9-26.6-17.3-35.2-29.4c-8.7-12-13.8-25.5-15.8-38.4c-1-6.5-1.4-12.8-1-18.9c0.3-6.1,1.1-11.9,2.5-17.3
			c0.6-2.7,1.5-5.3,2.3-7.8c0.4-1.2,0.9-2.5,1.4-3.7c0.2-0.6,0.5-1.2,0.7-1.8c0.2-0.6,0.5-1.2,0.8-1.7c0.5-1.1,1-2.3,1.6-3.4
			c0.5-1.1,1.1-2.1,1.7-3.2c0.6-1,1.1-2.1,1.7-3c0.6-1,1.2-1.9,1.8-2.9c4.8-7.5,10-13.1,14.6-17.4c0.6-0.5,1.1-1.1,1.7-1.5
			c0.6-0.5,1.1-0.9,1.6-1.4c1.1-0.9,2-1.7,3-2.5c2-1.4,3.6-2.6,4.9-3.5c1.4-0.9,2.4-1.5,3.2-2C189,112.7,189.4,112.5,189.4,112.5z"
			/>
	</g>
</g>
</svg>
