<?xml version="1.0" encoding="utf-8"?>
<!-- Generator: Adobe Illustrator 21.0.0, SVG Export Plug-In . SVG Version: 6.00 Build 0)  -->
<svg version="1.1" id="Capa_1" xmlns="http://www.w3.org/2000/svg" xmlns:xlink="http://www.w3.org/1999/xlink" x="0px" y="0px"
	 viewBox="0 0 25.6 25.6" style="enable-background:new 0 0 25.6 25.6;" xml:space="preserve">
<style type="text/css">
	.st0{fill:#122C56;}
	.st1{fill:#E56D00;}
</style>
<path class="st0" d="M18.7,9.9l3.9,1.4L19.4,20c-0.3,0.8-1.9,3.4-3.1,3.9L16,24.7C16,24.9,15.8,25,15.6,25c-0.1,0-0.1,0-0.2,0
	c-0.2-0.1-0.4-0.4-0.3-0.6l0.3-0.7c-0.6-1.1-0.1-4.4,0.1-5L18.7,9.9z"/>
<path class="st0" d="M24.3,0.7C23.2,0.3,22,1.1,21.6,2l-2.3,6.3l3.9,1.4l2.3-6.3C25.8,2.7,25.4,1.1,24.3,0.7z"/>
<path class="st0" d="M17.3,9.6c0.1,0,0.2,0.1,0.3,0.1c0.4,0,0.7-0.2,0.9-0.6L21,2.4c0.2-0.5-0.1-1-0.6-1.2c-0.5-0.2-1,0.1-1.2,0.6
	l-2.5,6.6C16.6,8.9,16.8,9.4,17.3,9.6z"/>
<path class="st1" d="M13.9,23.9c-0.3-0.1-0.6-0.2-1.1-0.2c-0.4-0.1-0.8-0.1-1.1-0.1c0,0-0.1,0-0.1,0c-0.2-0.2-0.6-0.3-1.1-0.3
	c-0.8-0.1-1.4,0.1-1.8,0.1c0-0.1,0.1-0.1,0.1-0.2C9,23.1,9.1,22.9,9,22.7c-0.1-0.1-0.5-0.2-0.9-0.3c-1.2,0-2.1,0.2-3,0.4
	c-0.9,0.2-1.4,0.3-2,0.2c-0.7-0.1-0.8-0.7-0.4-1.2c0.3-0.5,0.8-1.4,2.3-1.8c0.5-0.1,1.2-0.3,1.7-0.2C7.3,20,7.9,20.3,8,20.7
	C8,20.9,8.5,21,9.1,21c0.6,0,1-0.2,0.9-0.3c-0.2-0.7-1.2-1.2-2.6-1.4c-0.8-0.1-2.2-0.1-3.8,0.3c-1.8,0.5-2.4,1.3-2.9,2.1
	c-0.2,0.4-0.8,1.6,1.7,1.9c1.5,0.2,2.8-0.1,3.8-0.3c0.2,0,0.4-0.1,0.5-0.1c-0.2,0.2-0.3,0.5,0.2,0.7c0.7,0.3,1.6,0.3,2.7,0.1
	c0,0,0.1,0,0.1,0c0.1,0.1,0.3,0.2,0.6,0.2c0.4,0.1,0.8,0.1,1.1,0.1c0.1,0,0.3,0,0.4,0c0.2,0,0.3,0.1,0.5,0.1c0.2,0,0.3,0.1,0.6,0.2
	c0.2,0,0.4,0.1,0.6,0.1c0.3,0,0.6,0,0.8-0.1c0.3-0.1,0.2-0.3-0.2-0.4C14.1,24,14,24,13.9,23.9z"/>
</svg>
