<?xml version="1.0" encoding="UTF-8"?>
<svg id="Layer_1" xmlns="http://www.w3.org/2000/svg" version="1.1" viewBox="0 0 662 468">
  <!-- Generator: Adobe Illustrator 29.0.1, SVG Export Plug-In . SVG Version: 2.1.0 Build 192)  -->
  <defs>
    <style>
      .st0, .st1 {
        opacity: .3;
      }

      .st2 {
        fill: #ffa498;
      }

      .st3 {
        fill: #fff;
      }

      .st4 {
        opacity: .15;
      }

      .st4, .st5, .st6, .st7 {
        fill: #213d5d;
      }

      .st5 {
        opacity: .2;
      }

      .st8 {
        fill: #728db7;
      }

      .st9 {
        fill: #4f78a8;
      }

      .st10 {
        fill: #55d2d0;
      }

      .st7 {
        opacity: .1;
      }

      .st1, .st11 {
        fill: #fa7454;
      }

      .st12 {
        fill: #00b2ae;
      }

      .st13 {
        fill: #ffdc89;
      }

      .st14 {
        stroke: #fff;
        stroke-miterlimit: 10;
        stroke-width: .94px;
      }

      .st14, .st15 {
        fill: none;
        stroke-linecap: round;
      }

      .st16 {
        fill: #ffc1b7;
      }

      .st17 {
        fill: #e66762;
      }

      .st15 {
        stroke: #728db7;
        stroke-linejoin: round;
        stroke-width: 2.74px;
      }

      .st18 {
        fill: #3a6592;
      }

      .st19 {
        fill: #ffc309;
      }

      .st20 {
        opacity: .7;
      }
    </style>
  </defs>
  <g>
    <g>
      <g>
        <g>
          <path class="st16" d="M299.25,74.3s36.58-1.44,61.3,17.23c24.72,18.67-44.03,11.49-44.03,11.49l-17.27-28.72Z"/>
          <polygon class="st16" points="321.1 56.35 315.86 80.4 333.46 85.07 339.82 62.81 321.1 56.35"/>
          <path class="st1" d="M335.73,77l4.09-14.19-18.88-6.46-4.02,18.31c6.25.98,12.52,1.69,18.81,2.34Z"/>
        </g>
        <g>
          <g>
            <path class="st16" d="M322.23,26.19s11.85-16.87,28.72-11.85c16.87,5.03,16.51,52.06-3.23,59.24-25.69,9.34-43.44-27.64-25.49-47.39Z"/>
            <path class="st16" d="M319.9,40.12s-1.5-6.75-7.75-4.5,1.25,14.5,6,15.75,1.75-11.25,1.75-11.25Z"/>
          </g>
          <g>
            <path class="st8" d="M342.15,23.37s-2.75,16.5-17.5,17c0,0-1.98,8.29-4.23,12.04l-1.27-14.54s-5.34-4.34-6,1.75c-1.04,9.62,5,11.75,5,11.75,0,0-.75,7.5,1.75,12,0,0-13.25-12.75-9.25-30.75s19-25.75,27.5-21.75,4,12.5,4,12.5Z"/>
            <path class="st8" d="M334.9,12.37s2.5,19.5,19.75,26l-1.25-3.5s16.5,8.25,5,34c0,0,16.5-12.25,13-31s-16.5-33.25-36.5-25.5Z"/>
            <path class="st8" d="M323.65,12.87s-1.75-8.5-13.5-6.75-20,17.25-14.25,32.5-8.75,15.5-8.75,15.5c0,0,13.75,10.25,18-5s4-43,17-34.75"/>
          </g>
        </g>
        <g>
          <g class="st20">
            <path class="st11" d="M348.77,48.82c.17,4.16-.17,8.28-.73,12.39-1.75.3-3.51.57-5.28.69,1.57-.59,3.18-1.07,4.79-1.51,0,0-.35.39-.35.39.23-4.03.65-8.03,1.56-11.97h0Z"/>
          </g>
          <path class="st6" d="M342.5,48.19c-.48,3.8-5.59,4.53-6.95.86-.37-1.01-.27-2.11.12-3.01-.09,4.48,4.42,6.17,6.82,2.15h0Z"/>
          <path class="st6" d="M358.23,53.13c-.43,4.48-6,5.17-7.22.73-.28-1.15-.05-2.33.44-3.3-.08,1.1-.03,2.15.33,3.06,1.54,3.48,4.98,2.62,6.44-.49h0Z"/>
          <path class="st6" d="M346.46,41.48c-3.2-2.67-6.68-2.9-10.46-2.15-.55.11-1.11.24-1.72.29,3.33-3.7,10.66-3.41,12.17,1.86h0Z"/>
          <path class="st6" d="M361.21,46.9c-2.86-3.48-6.19-3.13-10.2-2.19,2.64-4.38,10.32-3.51,10.2,2.19h0Z"/>
          <g class="st20">
            <path class="st11" d="M330.7,58.74c4.4,3.4,9.39,5.75,14.64,7.52-5.58-.34-11.22-3.03-14.64-7.52h0Z"/>
          </g>
        </g>
      </g>
      <g>
        <path class="st10" d="M365.81,94.78c-1.88-2.78-4.16-5.23-6.72-7.37-10.61,5.88-22.96,5.91-34.61,2.24-8.1-2.56-19.52-6.82-22.99-15.76-3.38.29-6.35.73-8.72,1.25-22.73,5.01-25.46,72.63-25.46,72.63,0,0,85.52,47.96,95.17-2.02,3.7-19.14,10.4-40.51,3.33-50.96Z"/>
        <path class="st7" d="M348.24,130.5c-8.47-1.4-16.81-3.07-24.91-6.08-7.49-2.79-15.44-5.95-21.88-10.9-3.93-3.02-7.6-6.39-11.58-9.32-1.44,1.49-3.93,1.78-5.02-.64-1.82-4.07-4.61-7.25-7.83-9.98-8.4,21.61-9.72,54.17-9.72,54.17,0,0,85.52,47.96,95.17-2.02.94-4.85,2.07-9.85,3.12-14.77-5.72.92-11.59.49-17.35-.46Z"/>
      </g>
    </g>
    <g>
      <g>
        <rect class="st3" x="163.61" y="142.5" width="337.89" height="267.57" rx="13.7" ry="13.7"/>
        <path class="st11" d="M501.49,189.07v-32.88c0-7.57-6.13-13.7-13.7-13.7H177.3c-7.57,0-13.7,6.13-13.7,13.7v32.88h337.89Z"/>
        <circle class="st6" cx="205.16" cy="163.04" r="9.59"/>
        <path class="st8" d="M210.18,163.5c0,3.03-2.45,5.48-5.48,5.48h0c-3.03,0-5.48-2.45-5.48-5.48v-26.47c0-3.03,2.45-5.48,5.48-5.48h0c3.03,0,5.48,2.45,5.48,5.48v26.47Z"/>
        <circle class="st6" cx="287.35" cy="163.04" r="9.59"/>
        <circle class="st6" cx="369.53" cy="163.04" r="9.59"/>
        <circle class="st6" cx="451.72" cy="163.04" r="9.59"/>
        <path class="st8" d="M292.37,163.5c0,3.03-2.45,5.48-5.48,5.48h0c-3.03,0-5.48-2.45-5.48-5.48v-26.47c0-3.03,2.45-5.48,5.48-5.48h0c3.03,0,5.48,2.45,5.48,5.48v26.47Z"/>
        <path class="st8" d="M374.56,163.5c0,3.03-2.45,5.48-5.48,5.48h0c-3.03,0-5.48-2.45-5.48-5.48v-26.47c0-3.03,2.45-5.48,5.48-5.48h0c3.03,0,5.48,2.45,5.48,5.48v26.47Z"/>
        <path class="st8" d="M456.75,163.5c0,3.03-2.45,5.48-5.48,5.48h0c-3.03,0-5.48-2.45-5.48-5.48v-26.47c0-3.03,2.45-5.48,5.48-5.48h0c3.03,0,5.48,2.45,5.48,5.48v26.47Z"/>
      </g>
      <g class="st0">
        <rect class="st15" x="176.39" y="200.94" width="311.4" height="190.86"/>
        <line class="st15" x1="220.09" y1="200.94" x2="220.09" y2="389.98"/>
        <line class="st15" x1="264.71" y1="200.94" x2="264.71" y2="389.98"/>
        <line class="st15" x1="309.33" y1="200.94" x2="309.33" y2="389.98"/>
        <line class="st15" x1="353.94" y1="200.94" x2="353.94" y2="389.98"/>
        <line class="st15" x1="398.56" y1="200.94" x2="398.56" y2="389.98"/>
        <line class="st15" x1="443.18" y1="200.94" x2="443.18" y2="389.98"/>
        <line class="st15" x1="176.39" y1="235.64" x2="486.88" y2="235.64"/>
        <line class="st15" x1="176.39" y1="275.52" x2="486.88" y2="275.52"/>
        <line class="st15" x1="176.39" y1="315.4" x2="486.88" y2="315.4"/>
        <line class="st15" x1="176.39" y1="355.27" x2="486.88" y2="355.27"/>
      </g>
      <g>
        <polygon class="st10" points="190.54 223.77 232.55 223.77 236.21 261.21 190.54 263.95 190.54 223.77"/>
        <polygon class="st16" points="302.41 240.21 261.25 240.21 257.67 277.65 302.41 280.39 302.41 240.21"/>
        <polygon class="st16" points="215.66 317.83 174.49 317.83 170.91 355.27 215.66 358.01 215.66 317.83"/>
        <polygon class="st13" points="315.2 361.67 274.03 361.67 270.45 399.11 315.2 401.85 315.2 361.67"/>
        <polygon class="st13" points="387.34 268.52 346.17 268.52 342.59 305.96 387.34 308.7 387.34 268.52"/>
      </g>
      <g>
        <g>
          <path class="st11" d="M320.07,211.36c8.95,3.61,17.03,9.05,25.02,14.38,2.45,1.63,4.74-2.32,2.3-3.94-8.36-5.57-16.76-11.07-26.12-14.84-1.14-.46-2.51.5-2.81,1.59-.36,1.3.45,2.34,1.59,2.81h0Z"/>
          <path class="st11" d="M338.7,205.36c-6.66,4.77-12.93,10.1-18.73,15.88-2.08,2.08,1.14,5.31,3.23,3.23,5.52-5.51,11.46-10.62,17.8-15.17,1-.72,1.48-1.99.82-3.12-.58-.99-2.12-1.54-3.12-.82h0Z"/>
        </g>
        <g>
          <path class="st11" d="M188.57,288.98c8.95,3.61,17.03,9.05,25.02,14.38,2.45,1.63,4.74-2.32,2.3-3.94-8.36-5.57-16.76-11.07-26.12-14.84-1.14-.46-2.51.5-2.81,1.59-.36,1.3.45,2.34,1.59,2.81h0Z"/>
          <path class="st11" d="M207.2,282.98c-6.66,4.77-12.93,10.1-18.73,15.88-2.08,2.08,1.14,5.31,3.23,3.23,5.52-5.51,11.46-10.62,17.8-15.17,1-.72,1.48-1.99.82-3.12-.58-.99-2.12-1.54-3.12-.82h0Z"/>
        </g>
        <g>
          <path class="st11" d="M226.92,290.81c8.95,3.61,17.03,9.05,25.02,14.38,2.45,1.63,4.74-2.32,2.3-3.94-8.36-5.57-16.76-11.07-26.12-14.84-1.14-.46-2.51.5-2.81,1.59-.36,1.3.45,2.34,1.59,2.81h0Z"/>
          <path class="st11" d="M245.55,284.81c-6.66,4.77-12.93,10.1-18.73,15.88-2.08,2.08,1.14,5.31,3.23,3.23,5.52-5.51,11.46-10.62,17.8-15.17,1-.72,1.48-1.99.82-3.12-.58-.99-2.12-1.54-3.12-.82h0Z"/>
        </g>
        <path class="st11" d="M350.04,348.21c2.62-3.74,4.44-8.33,3.95-12.96-.43-4.06-2.34-7.72-5.24-10.57-5.92-5.81-15.08-8.31-23.15-6.62-4.04.84-7.92,2.97-10.57,6.16-2.85,3.43-5.13,8.1-5.2,12.63-.13,8.08,7.65,12.05,14.5,13.61,7.39,1.68,15.31,1.81,22.83.94.82-.09,1.63-.2,2.44-.33,1.22-.19,1.89-1.72,1.59-2.81-.36-1.3-1.58-1.78-2.81-1.59-.17.03-1.15.16-.43.06-.32.04-.64.08-.97.12-.77.09-1.54.16-2.31.22-1.63.13-3.27.2-4.9.23-1.8.03-3.6,0-5.4-.09-.85-.04-1.7-.1-2.54-.18-.46-.04-.92-.09-1.39-.14-.23-.03-.46-.05-.69-.08-.15-.02-.31-.04-.46-.06.23.03.2.03-.08-.01-1.78-.26-3.54-.6-5.28-1.08-.75-.21-1.5-.44-2.23-.7-.39-.14-.77-.28-1.15-.44.47.2-.14-.06-.19-.09-.24-.11-.48-.22-.71-.34-.62-.31-1.23-.66-1.8-1.05-.15-.1-.3-.21-.45-.31-.5-.35.35.3-.11-.08-.31-.26-.62-.53-.91-.82-.24-.24-.47-.5-.69-.76.38.45-.23-.35-.33-.5-.15-.24-.27-.49-.41-.74-.05-.1-.25-.63-.04-.07-.08-.21-.16-.43-.22-.64-.1-.34-.17-.67-.24-1.02-.12-.59.03.5-.02-.11-.01-.18-.03-.37-.04-.55-.01-.32,0-.64,0-.96.01-.2.03-.4.05-.6.03-.27.03-.27,0,0,.02-.14.05-.28.07-.42.44-2.04,1.05-3.56,2.03-5.35s1.81-2.99,3.37-4.37c.66-.59.97-.81,1.88-1.35.38-.23.77-.44,1.16-.64.16-.08.33-.16.5-.24.1-.05.2-.09.3-.14-.21.09-.18.08.07-.02,6.53-2.51,13.99-1.18,19.73,2.91.58.41,1.14.87,1.88,1.58.36.35.7.71,1.03,1.08.14.16.27.32.41.49.17.21.18.22.03.04.08.11.17.22.25.34,1.2,1.73,1.72,2.79,2.13,4.73.03.14.05.27.08.41.03.14.05.28.07.42-.03-.26-.03-.25,0,.03.05.5.07,1.01.07,1.51s-.04,1.04-.11,1.56c.06-.47-.06.28-.06.3-.06.31-.13.62-.2.92-.58,2.32-1.62,4.23-3.04,6.25-.71,1.01-.18,2.54.82,3.12,1.14.67,2.41.19,3.12-.82h0Z"/>
      </g>
    </g>
    <g>
      <g>
        <path class="st16" d="M272.07,108.62l20.66,2.23-2.54,16.53s49.7,4.02,52.88,9.74-2.23,27.02-1.59,5.4c0,0-5.09,26.07-2.86,0,0,0-6.68,24.48-3.5.32,0,0-6.04,20.03-3.5-.64,0,0-63.05,6.16-64.32.43-1.27-5.72,4.77-34.01,4.77-34.01Z"/>
        <path class="st1" d="M291.84,116.62l.89-5.77-20.66-2.23s-.58,2.73-1.35,6.66c7.06.12,14.1.63,21.12,1.33Z"/>
        <path class="st10" d="M294.96,114.35l-25.75-3.5s6.68-35.92,30.2-37.83l-4.45,41.33Z"/>
      </g>
      <g>
        <path class="st16" d="M346.73,119.79l21.47,2.78s-7.35,36.95-8.6,39.93c-1.25,2.98-21.28,44.31-26.68,43.04l-5.4-1.27s-9.22,20.66-1.59-3.81c7.63-24.48,17.48-42.28,17.48-42.28l3.32-38.38Z"/>
        <path class="st1" d="M366.75,129.77c.87-4.28,1.45-7.21,1.45-7.21l-21.47-2.78-.35,4.04c6.74,2.16,13.54,4.12,20.37,5.94Z"/>
        <path class="st10" d="M349.44,101.52l-4.28,18.97,24.13,5.69s2.38-16.75-3.73-29.81c-5.43,1.52-10.82,3.19-16.12,5.16Z"/>
      </g>
    </g>
  </g>
  <g>
    <ellipse class="st4" cx="513.36" cy="451.16" rx="140.63" ry="10.96"/>
    <g>
      <g>
        <g>
          <path class="st16" d="M563.52,180.75l18.1,11.99s-59.64,62.59-68.11,70.83c-8.47,8.24-1.73-2.21-1.73-2.21,0,0-12.94,15.11-2.87-1.19,0,0-13.12,14.46-1.14-2.09,0,0-12.17,9.68,2.5-6.33,0,0-9.37-1.25,3.04-2.81l50.2-68.19Z"/>
          <g>
            <path class="st1" d="M563.52,180.75l18.1,11.99s-59.64,62.59-68.11,70.83c-8.47,8.24-1.73-2.21-1.73-2.21,0,0-12.94,15.11-2.87-1.19,0,0-13.12,14.46-1.14-2.09,0,0-12.17,9.68,2.5-6.33,0,0-9.37-1.25,3.04-2.81l50.2-68.19Z"/>
            <path class="st1" d="M568.2,206.8c7.91-8.28,13.42-14.07,13.42-14.07l-18.1-11.99-11.35,15.42c5.7,2.95,10.88,6.75,16.03,10.64Z"/>
          </g>
        </g>
        <path class="st3" d="M563.29,198.2l-9.13-5.78s9.13-15.22,18.87-20.39l-9.74,26.18Z"/>
      </g>
      <g>
        <path class="st10" d="M578.82,116.23s-7.9-12.57-23.7-9.06c-15.8,3.5-10.05,17.51-18.67,22.25-8.62,4.74-15.56,15.24-5.27,24.1,10.29,8.86-6.67,17.05,17.95,24.51,25.14,7.62,31.84-19.57,31.84-19.57l-2.15-42.23Z"/>
        <path class="st7" d="M578.82,116.23s-7.9-12.57-23.7-9.06c-15.8,3.5-10.05,17.51-18.67,22.25-8.62,4.74-15.56,15.24-5.27,24.1,10.29,8.86-6.67,17.05,17.95,24.51,25.14,7.62,31.84-19.57,31.84-19.57l-2.15-42.23Z"/>
      </g>
    </g>
    <g>
      <g>
        <g>
          <rect class="st12" x="422.32" y="233.37" width="31.93" height="6.36" transform="translate(-26.68 58.06) rotate(-7.36)"/>
          <path class="st10" d="M412.6,210.69h47.49c1.51,0,2.74,1.23,2.74,2.74v18.87c0,1.51-1.23,2.74-2.74,2.74h-47.49c-1.51,0-2.74-1.23-2.74-2.74v-18.87c0-1.51,1.23-2.74,2.74-2.74Z" transform="translate(-24.94 57.7) rotate(-7.36)"/>
          <rect class="st12" x="412.8" y="213.65" width="1.28" height="24.44" transform="translate(-25.51 54.77) rotate(-7.35)"/>
          <rect class="st12" x="415.67" y="213.28" width="1.28" height="24.44" transform="translate(-25.44 55.14) rotate(-7.35)"/>
          <rect class="st12" x="418.54" y="212.91" width="1.28" height="24.44" transform="translate(-25.35 55.47) rotate(-7.35)"/>
          <rect class="st12" x="421.41" y="212.54" width="1.28" height="24.44" transform="translate(-25.3 55.86) rotate(-7.35)"/>
          <rect class="st12" x="424.28" y="212.17" width="1.28" height="24.44" transform="translate(-25.24 56.27) rotate(-7.36)"/>
          <rect class="st12" x="427.14" y="211.79" width="1.28" height="24.44" transform="translate(-25.15 56.59) rotate(-7.35)"/>
          <rect class="st12" x="430.01" y="211.42" width="1.28" height="24.44" transform="translate(-25.1 57) rotate(-7.36)"/>
          <rect class="st12" x="432.88" y="211.05" width="1.28" height="24.44" transform="translate(-25.02 57.36) rotate(-7.36)"/>
          <rect class="st12" x="435.75" y="210.68" width="1.28" height="24.44" transform="translate(-24.94 57.69) rotate(-7.35)"/>
          <rect class="st12" x="438.62" y="210.31" width="1.28" height="24.44" transform="translate(-24.88 58.09) rotate(-7.36)"/>
          <rect class="st12" x="441.49" y="209.94" width="1.28" height="24.44" transform="translate(-24.8 58.42) rotate(-7.35)"/>
          <rect class="st12" x="444.36" y="209.57" width="1.28" height="24.44" transform="translate(-24.74 58.81) rotate(-7.36)"/>
          <rect class="st12" x="447.23" y="209.2" width="1.28" height="24.44" transform="translate(-24.67 59.19) rotate(-7.36)"/>
          <rect class="st12" x="450.1" y="208.83" width="1.28" height="24.44" transform="translate(-24.59 59.51) rotate(-7.35)"/>
          <rect class="st12" x="452.97" y="208.46" width="1.28" height="24.44" transform="translate(-24.52 59.88) rotate(-7.35)"/>
          <rect class="st12" x="455.84" y="208.09" width="1.28" height="24.44" transform="translate(-24.43 60.2) rotate(-7.35)"/>
          <rect class="st12" x="458.71" y="207.72" width="1.28" height="24.44" transform="translate(-24.37 60.61) rotate(-7.35)"/>
        </g>
        <g>
          <rect class="st10" x="374.45" y="246.73" width="17.52" height="11.85" rx="1.33" ry="1.33" transform="translate(-74.69 284.45) rotate(-37.37)"/>
          <rect class="st12" x="377.16" y="250.87" width="1.21" height="11.78" transform="translate(-78.3 282.01) rotate(-37.37)"/>
          <rect class="st12" x="379.32" y="249.22" width="1.21" height="11.78" transform="translate(-76.86 282.93) rotate(-37.37)"/>
          <rect class="st12" x="381.49" y="247.56" width="1.21" height="11.78" transform="translate(-75.41 283.91) rotate(-37.37)"/>
          <rect class="st12" x="383.66" y="245.91" width="1.21" height="11.78" transform="translate(-73.95 284.94) rotate(-37.37)"/>
          <rect class="st12" x="385.83" y="244.25" width="1.21" height="11.78" transform="translate(-72.51 285.89) rotate(-37.37)"/>
          <rect class="st12" x="387.99" y="242.6" width="1.21" height="11.78" transform="translate(-71.06 286.87) rotate(-37.37)"/>
        </g>
      </g>
      <g>
        <path class="st6" d="M442.7,236.43c-58.45,7.55-99.87,61.24-92.32,119.69,7.55,58.45,61.24,99.87,119.69,92.32,58.45-7.55,99.87-61.24,92.32-119.69-7.55-58.45-61.24-99.87-119.69-92.32Z"/>
        <g>
          <circle class="st3" cx="448.23" cy="343.49" r="101.37" transform="translate(-111.6 417.55) rotate(-45)"/>
          <path class="st9" d="M461.91,449.49c-58.45,7.55-112.14-33.87-119.69-92.32-7.55-58.45,33.87-112.15,92.32-119.69,58.45-7.55,112.15,33.87,119.69,92.32,7.55,58.45-33.87,112.15-92.32,119.69ZM435.96,248.43c-52.41,6.77-89.55,54.91-82.79,107.33,6.77,52.41,54.91,89.55,107.33,82.79,52.41-6.77,89.55-54.91,82.79-107.33-6.77-52.41-54.91-89.55-107.33-82.79Z"/>
        </g>
      </g>
      <g>
        <g>
          <path class="st10" d="M461.74,341.13c.65,5-2.89,9.58-7.89,10.23-5,.65-9.58-2.89-10.23-7.89-.65-5,2.89-9.58,7.89-10.23,5-.65,9.58,2.89,10.23,7.89Z"/>
          <rect class="st10" x="444.43" y="270.8" width="6.7" height="71.84" rx="2.74" ry="2.74" transform="translate(-35.59 59.86) rotate(-7.36)"/>
          <rect class="st10" x="449.18" y="336.54" width="44.44" height="6.7" rx="2.74" ry="2.74" transform="translate(-39.64 63.15) rotate(-7.36)"/>
        </g>
        <g>
          <g>
            <path class="st18" d="M444.74,264.14c.17,1.33-.77,2.55-2.1,2.73h0c-1.33.17-2.55-.77-2.73-2.1l-.9-6.94c-.17-1.33.77-2.55,2.1-2.73h0c1.33-.17,2.55.77,2.73,2.1l.9,6.94Z"/>
            <path class="st18" d="M531.6,334.26c-1.33.17-2.55-.77-2.73-2.1h0c-.17-1.33.77-2.55,2.1-2.73l6.94-.9c1.33-.17,2.55.77,2.73,2.1h0c.17,1.33-.77,2.55-2.1,2.73l-6.94.9Z"/>
            <path class="st18" d="M484.48,270.83c-.65,1.18-2.13,1.6-3.31.95h0c-1.18-.65-1.6-2.13-.95-3.31l3.38-6.13c.65-1.18,2.13-1.6,3.31-.95h0c1.18.65,1.6,2.13.95,3.31l-3.38,6.13Z"/>
            <path class="st18" d="M516.76,296.9c-1.01.88-2.55.78-3.44-.23h0c-.88-1.01-.78-2.55.23-3.44l5.28-4.6c1.01-.88,2.55-.78,3.44.23h0c.88,1.01.78,2.55-.23,3.44l-5.28,4.6Z"/>
          </g>
          <g>
            <path class="st18" d="M461.39,421.05c-.17-1.33.77-2.55,2.1-2.73h0c1.33-.17,2.55.77,2.73,2.1l.9,6.94c.17,1.33-.77,2.55-2.1,2.73h0c-1.33.17-2.55-.77-2.73-2.1l-.9-6.94Z"/>
            <path class="st18" d="M524.82,373.93c-1.18-.65-1.6-2.13-.95-3.31h0c.65-1.18,2.13-1.6,3.31-.95l6.13,3.38c1.18.65,1.6,2.13.95,3.31h0c-.65,1.18-2.13,1.6-3.31.95l-6.13-3.38Z"/>
            <path class="st18" d="M498.75,406.22c-.88-1.01-.78-2.55.23-3.44h0c1.01-.88,2.55-.78,3.44.23l4.6,5.28c.88,1.01.78,2.55-.23,3.44h0c-1.01.88-2.55.78-3.44-.23l-4.6-5.28Z"/>
          </g>
          <g>
            <path class="st18" d="M374.61,350.92c1.33-.17,2.55.77,2.73,2.1h0c.17,1.33-.77,2.55-2.1,2.73l-6.94.9c-1.33.17-2.55-.77-2.73-2.1h0c-.17-1.33.77-2.55,2.1-2.73l6.94-.9Z"/>
            <path class="st18" d="M421.73,414.36c.65-1.18,2.13-1.6,3.31-.95h0c1.18.65,1.6,2.13.95,3.31l-3.38,6.13c-.65,1.18-2.13,1.6-3.31.95h0c-1.18-.65-1.6-2.13-.95-3.31l3.38-6.13Z"/>
            <path class="st18" d="M389.44,388.28c1.01-.88,2.55-.78,3.44.23h0c.88,1.01.78,2.55-.23,3.44l-5.28,4.6c-1.01.88-2.55.78-3.44-.23h0c-.88-1.01-.78-2.55.23-3.44l5.28-4.6Z"/>
          </g>
          <g>
            <path class="st18" d="M381.38,311.25c1.18.65,1.6,2.13.95,3.31h0c-.65,1.18-2.13,1.6-3.31.96l-6.13-3.38c-1.18-.65-1.6-2.13-.95-3.31h0c.65-1.18,2.13-1.6,3.31-.95l6.13,3.38Z"/>
            <path class="st18" d="M407.46,278.96c.88,1.01.78,2.55-.23,3.44h0c-1.01.88-2.55.78-3.44-.23l-4.6-5.28c-.88-1.01-.78-2.55.23-3.44h0c1.01-.88,2.55-.78,3.44.23l4.6,5.28Z"/>
          </g>
        </g>
      </g>
    </g>
    <g>
      <g>
        <g>
          <g>
            <path class="st16" d="M609.2,399.17s3.28,46.44,6.07,50.27c2.78,3.84,24.68,9.11,6.64-2.9l9.85-48.7-22.56,1.33Z"/>
            <path class="st5" d="M628.83,412.35l2.94-14.52-22.56,1.33s.62,8.77,1.55,19.01c5.91-2.33,11.91-4.41,18.07-5.82Z"/>
            <path class="st3" d="M614.33,447.35s-.05,2.09,1.19,3.08c1.24.99,26.51,10.71,8.25-2.63,0,0,4.58,5.32-9.44-.45Z"/>
          </g>
          <g>
            <path class="st16" d="M565.19,398.52s-20.55,44.77-22.28,45.75c-3.3,1.87-28.55,4.55-5.03-4.85l9.13-55.26,18.19,14.36Z"/>
            <path class="st5" d="M559.7,410.37c3.16-6.77,5.49-11.85,5.49-11.85l-18.19-14.36-3.01,18.25c5.15,2.82,10.38,5.49,15.71,7.95Z"/>
            <path class="st3" d="M544.06,442.51s-.51,2.03-1.97,2.65c-1.46.62-28.41,3.21-7.24-4.75,0,0-5.84,3.89,9.21,2.1Z"/>
          </g>
        </g>
        <g>
          <path class="st19" d="M580.74,238.79l56.88-15.57s13.08,13.67,14.46,43.1c1.38,29.43-14.66,139.41-14.66,139.41,0,0-14.35,8.51-37.69,2.23l10.25-125.38-40.4,121.26s-17.63-2.4-34.68-12.2l45.83-152.85Z"/>
          <g>
            <path class="st7" d="M639.45,225.5c-1.11-1.52-1.83-2.27-1.83-2.27l-56.88,15.57-1.79,5.97c24.89-2.97,50.65-14.49,60.5-19.27Z"/>
            <path class="st7" d="M574.39,259.98l-39.48,131.67c17.05,9.8,34.68,12.2,34.68,12.2l40.4-121.26c-16.62-5.31-31.07-18.26-35.6-22.61Z"/>
          </g>
        </g>
      </g>
      <g>
        <path class="st3" d="M578.81,240.82s44-8.64,62.18-17.71c0,0-25.65-55.34-42.09-59-16.44-3.65-36.22,15.22-37.14,19.48-4.11,19.19-4.87,35.31,12.78,34.09l4.26,23.13Z"/>
        <polygon class="st3" points="570.9 173.85 567.24 168.37 587.94 159.24 592.2 170.2 570.9 173.85"/>
        <path class="st7" d="M559.49,205.15c.81,8.13,4.85,13.23,15.06,12.53l4.26,23.13s44-8.64,62.18-17.71c0,0-3.95-8.51-9.74-19.08-46.34,14.08-64.65,7.45-71.77,1.13Z"/>
      </g>
      <g>
        <path class="st16" d="M585.51,190.9l20.09,8.22s-49.01,77.93-55.71,87.67c-6.7,9.74-2.13-1.83-2.13-1.83,0,0-9.74,17.35-3.04-.61,0,0-10.05,16.74-1.52-1.83,0,0-10.05,11.87,1.22-6.7,0,0-9.44.61,2.44-3.35l38.66-81.58Z"/>
        <path class="st1" d="M602.76,203.62c1.79-2.85,2.83-4.5,2.83-4.5l-20.09-8.22-1.35,2.86c6.79,2.01,12.81,5.79,18.61,9.86Z"/>
      </g>
      <g>
        <g>
          <path class="st16" d="M577.21,119.02s-27.29-11.29-32.94,14.82c-5.65,26.12,8.71,38.82,23.29,34.12,14.59-4.71,20.94-15.29,22.59-28.7,1.65-13.41-1.41-20-12.94-20.23Z"/>
          <g>
            <path class="st10" d="M615.59,136.36c-6.05-9.81-22.58,2.51-20.48-12.32,2.09-14.83-13.5-22.35-28.86-18.93-11.78,2.62-12.34,15.28-12.34,15.28,0,0-1.4,5.7,5.12,7.53,6.52,1.82,13.73,1.14,11.4,9.35-3.11,8.99-5.35,10.26-.47,15.74,4.89,5.47-3.72,11.86,3.03,17.34,6.75,5.47,17.46-10.49,29.56-4.56,12.1,5.93,15.13-9.35,9.31-14.6-5.82-5.25,9.78-5.02,3.72-14.83Z"/>
            <path class="st10" d="M616.84,161.57c.79-4-.38-8.5-3.77-10.81-.4-.38-.8-.81-1.03-1.42-1.08-4.7,10.24-5.46,3.41-13.75-5.23-6.1-16.43,1.43-20.12-5.16-1.48-3.03-.35-6.28-.82-9.45-1.81-13.16-18.04-16.26-29.01-13.41,13.57-4.86,32.51.79,30.84,17.95-.08,2.11.1,4.82,2.38,5.6,3.7,1.06,8.12-.48,12.1.29,4.4.53,8.46,4.69,8.22,9.27-.3,3.48-4.02,4.94-5.88,7.27-.85,1.37.84,2.28,1.66,3.22,2.46,2.76,3.09,6.93,2.03,10.38h0Z"/>
          </g>
        </g>
        <g>
          <g class="st20">
            <path class="st11" d="M554.11,140.99c-.16,4.04-.81,8.01-1.65,11.96,0,0-.23-.47-.23-.47,1.45.85,2.87,1.73,4.23,2.72-1.68-.59-3.31-1.31-4.91-2.06.55-4.11,1.3-8.18,2.57-12.15h0Z"/>
          </g>
          <path class="st3" d="M551.5,158.81l17.47-2.32s-8.34,8.52-17.47,2.32Z"/>
          <path class="st6" d="M559.08,139.91c.09,1.89.24,4.03,1.74,5.24,1.45.94,3.68.62,4.46-1.06.57-1.1.78-2.45.86-3.8.31,1.32.41,2.76-.13,4.13-.78,2.33-3.93,2.94-5.79,1.51-1.73-1.48-1.7-4.07-1.15-6.02h0Z"/>
          <path class="st6" d="M544.99,140.68c.09,1.89.24,4.03,1.74,5.24,1.45.94,3.68.62,4.46-1.06.57-1.1.78-2.45.86-3.8.31,1.32.41,2.76-.13,4.13-.78,2.33-3.93,2.94-5.79,1.51-1.73-1.48-1.7-4.07-1.15-6.02h0Z"/>
          <path class="st6" d="M556.97,134.78c2.86-4.69,10-3.03,12.23,1.41-.58-.21-1.08-.48-1.58-.73-3.45-1.72-6.86-2.41-10.65-.68h0Z"/>
          <path class="st6" d="M542.86,135.72c1.39-5.53,9.03-4.34,10.42.58-3.62-1.96-6.75-3.18-10.42-.58h0Z"/>
        </g>
      </g>
    </g>
  </g>
  <g>
    <ellipse class="st4" cx="101.57" cy="451.16" rx="93.57" ry="10.96"/>
    <g>
      <g>
        <g>
          <g>
            <path class="st6" d="M68.63,426.12s2.95,17.72,0,18.9c-2.95,1.18-63.78,33.66-15.95-8.86v-12.99l15.95,2.95Z"/>
            <path class="st3" d="M34.59,455.62c-3.01,8.81,31.82-9.72,34.04-10.6.77-.31,1.13-1.73,1.26-3.67-5.22,2.53-27.62,14.08-35.3,14.27Z"/>
          </g>
          <g>
            <path class="st6" d="M122.11,424.79s2.11,17.84,5.28,18.15c3.17.31,70.65,14.52,12.84-12.96l-3.63-12.48-14.49,7.29Z"/>
            <path class="st3" d="M163.03,443.62c5.35,7.62-33.27-.44-35.65-.68-.82-.08-1.57-1.35-2.23-3.17,5.72.98,30.46,5.81,37.88,3.85Z"/>
          </g>
        </g>
        <g>
          <path class="st11" d="M31.43,249.53s-5.32,62.6,17.72,178.36c0,0,5.91,5.32,24.21,1.18,0,0-5.91-127.57-3.54-144.7l7.09,1.77s37.8,132.88,41.93,142.92c0,0,12.4,0,22.44-9.45,0,0-27.76-138.2-33.66-151.19-5.91-12.99-76.19-18.9-76.19-18.9Z"/>
          <path class="st5" d="M83.69,270.05c8.14,1,16.62,1.69,25.07,1.57-.44-1.41-.83-2.49-1.15-3.2-5.91-12.99-76.19-18.9-76.19-18.9,0,0-.22,2.6-.38,7.72,16.97,6.16,34.77,10.61,52.64,12.8Z"/>
          <path class="st5" d="M113.3,288.81l-43.49-4.44,7.09,1.77s37.8,132.88,41.93,142.92c0,0,12.4,0,22.44-9.45,0,0-17.86-88.91-27.97-130.81Z"/>
        </g>
      </g>
      <g>
        <g>
          <path class="st2" d="M90.71,115.61s1.77-9.3-4.21-10.19c-5.98-.89-5.54,19.05,2.21,20.15,7.75,1.11,3.32-10.19,3.32-10.19"/>
          <path class="st2" d="M81.65,160.18s8.39-54.09,18.58-71.59c8.84-15.18,37.65.44,38.54,9.3s-2.88,53.15-17.05,54.93c-14.17,1.77-15.28-5.32-15.28-5.32l3.99-1.77-2.66,17.72-26.11-3.27Z"/>
          <path class="st6" d="M134.78,133.77c-1.26,5.74-3.52,26.22-12.85,25.91-13.51-.44-35.66-3.76-34.33-22.81,1.33-19.05,2.88-21.48,3.32-24.8.44-3.32-1.77-4.87-1.77-4.87,0,0-2.21-22.59,13.29-29.68,15.5-7.09,27.3,5.26,41.47,3.05l-6.48,4.92s7.53.44,13.73-3.1c0,0,1.77,16.83-14.17,18.6-15.95,1.77-28.79-6.64-28.79-6.64,0,0,1.99,13.07-9.08,15.28,0,0-9.74,25.91-2.21,28.13,7.53,2.21,1.77-8.19,9.3-9.08,7.53-.89,23.92.44,22.15,7.53-1.77,7.09-.6,10.67,3.17,6.24,0,0,3.5-9.79,3.25-8.67Z"/>
        </g>
        <g>
          <path class="st3" d="M104.22,134.22l21.48,3.32s-8.64,9.52-21.48-3.32Z"/>
          <path class="st6" d="M117.09,117.12c.06-1.83.07-3.92-1.28-5.2-1.33-1.02-3.51-.89-4.4.69-.63,1.02-.95,2.31-1.13,3.61-.2-1.3-.18-2.7.44-3.99.93-2.19,4.02-2.54,5.72-1.01,1.56,1.56,1.33,4.06.65,5.91h0Z"/>
          <path class="st6" d="M135.14,120.58c.2-1.82.37-3.9-.89-5.28-1.25-1.12-3.44-1.14-4.44.36-.71.97-1.11,2.23-1.39,3.51-.11-1.31.02-2.7.74-3.94,1.09-2.12,4.2-2.23,5.78-.59,1.44,1.67,1.03,4.15.21,5.94h0Z"/>
          <path class="st6" d="M109.62,106.73c2.25-4.3,8.99-4.75,12-1.03,1.02,1.1,1.62,2.56,1.79,4.04-.73-.31-1.28-.69-1.87-1.01-1.29-.67-2.56-1.39-3.96-1.75-2.61-.79-5.07-.47-7.96-.25h0Z"/>
          <path class="st6" d="M128.81,109.79c1.05-2.34,3.91-3.53,6.41-2.79,1.29.38,2.4,1.18,3.12,2.18.73.98,1.12,2.14,1.18,3.35-.58-.28-1.02-.6-1.46-.89-3.05-2.06-5.17-2.5-9.24-1.83h0Z"/>
          <path class="st17" d="M118.54,128.75c2.21-.69,4.45-1.18,6.7-1.6l-.63.65c.07-1.53.16-3.06.3-4.59.41-4.6,1-9.15,2.19-13.65.31,4.64.02,9.22-.46,13.82-.17,1.73-.42,3.45-.68,5.17-2.46.18-4.92.31-7.42.21h0Z"/>
        </g>
      </g>
      <g>
        <g>
          <path class="st2" d="M187.08,242.44s19.66,10.11,18.57,11.74c-1.09,1.64-9.29-2.46-9.29-2.46,0,0,.82,3.55-1.09,3.82,0,0,0,2.73-2.18,2.18,0,0-1.37,2.18-4.37,1.09-3-1.09-8.47-4.1-8.47-4.1l6.83-12.29Z"/>
          <g>
            <path class="st8" d="M83.4,149.28s-22.15-7.53-31.01,8.86c-8.86,16.39-22.59,80.62-24.36,91.69,0,0,25.69,16.39,75.3,15.5l16.39-62.9s16.39,31.45,19.93,35.88c3.54,4.43,43.41,21.26,43.41,21.26l7.53-16.39-35.88-24.36s-13.29-44.74-22.15-50.5c-8.86-5.76-24.8-9.74-24.8-9.74,0,0-1.33,3.54-11.96,2.66s-12.4-11.96-12.4-11.96Z"/>
            <path class="st5" d="M122.09,186.5c-27.1,2.16-54.17,4.72-81.28,6.64-6.16,23.39-11.69,49.92-12.77,56.68,0,0,25.69,16.39,75.3,15.5l14.61-56.09c1.19-7.62,2.34-15.24,4.14-22.73Z"/>
          </g>
        </g>
        <g>
          <g>
            <polygon class="st18" points="79.92 192.69 71.27 274.19 128.49 273.36 136.72 196.8 79.92 192.69"/>
            <line class="st14" x1="73.21" y1="248.94" x2="97.57" y2="274.63"/>
            <line class="st14" x1="103.33" y1="193.57" x2="75.96" y2="218.61"/>
          </g>
          <g>
            <path class="st2" d="M123.39,230.87l-1.95,12.76s14.12,2.2,12.5-1.25c0,0,4.79-2.46.62-4.13,0,0,3.99-1.6-1-2.79,0,0,8.98-1.99-10.17-4.59Z"/>
            <path class="st8" d="M47.01,178.17s4.29,66.95,6.94,67.15c2.65.2,70.29-1.37,70.29-1.37l.59-13.73-49.89-9.98.83-52.35-28.76,10.27Z"/>
          </g>
        </g>
      </g>
    </g>
  </g>
</svg>