<?xml version="1.0" encoding="utf-8"?>
<!-- Generator: Adobe Illustrator 25.0.1, SVG Export Plug-In . SVG Version: 6.00 Build 0)  -->
<svg version="1.1" id="Layer_1" xmlns="http://www.w3.org/2000/svg" xmlns:xlink="http://www.w3.org/1999/xlink" x="0px" y="0px"
	 viewBox="0 0 208.4 292.1" style="enable-background:new 0 0 208.4 292.1;" xml:space="preserve">
<style type="text/css">
	.st0{fill:#E1E1E1;}
	.st1{fill:#1A2E35;}
	.st2{fill:#EE9849;}
	.st3{opacity:0.3;}
	.st4{fill:#6B6BED;}
	.st5{opacity:0.2;}
	.st6{fill:none;stroke:#000000;stroke-width:5.000000e-02;stroke-miterlimit:10;}
	.st7{fill:#FFFFFF;}
	.st8{fill:#E55E5E;}
	.st9{fill:#FFC19D;}
	.st10{fill:#FF9C6A;}
</style>
<g>
	<g>
		<g>
			
				<rect x="8.1" y="114.5" transform="matrix(0.9761 -0.2175 0.2175 0.9761 -24.4827 13.2258)" class="st0" width="79.5" height="6.6"/>
		</g>
	</g>
</g>
<g>
	<g>
		<g>
			
				<rect x="12.4" y="133.8" transform="matrix(0.9761 -0.2175 0.2175 0.9761 -28.582 14.6341)" class="st0" width="79.5" height="6.6"/>
		</g>
	</g>
</g>
<g>
	<g>
		<g>
			
				<ellipse transform="matrix(0.9761 -0.2175 0.2175 0.9761 -39.9805 14.4663)" class="st1" cx="45.7" cy="188.9" rx="5.6" ry="0.1"/>
		</g>
	</g>
</g>
<g>
	<g>
		<g>
			
				<ellipse transform="matrix(0.9761 -0.2175 0.2175 0.9761 -36.0751 22.9676)" class="st1" cx="86.3" cy="175.4" rx="13.5" ry="0.1"/>
		</g>
	</g>
</g>
<g>
	<g>
		<g>
			<path class="st1" d="M93.2,190.3c0,0,0.1-0.2,0.1-0.5c0.1-0.3,0.1-0.9-0.1-1.6c-0.2-0.7-0.5-1.4-0.9-2.3c-0.4-0.9-0.9-2-0.9-3.3
				s0.5-2.6,1.7-3.7c1.2-1,2.9-1.4,4.5-0.8c0.8,0.3,1.6,0.7,2.2,1.4c0.3,0.3,0.5,0.8,0.5,1.3c0.1,0.5-0.3,1-0.8,1.2
				c-0.5,0.2-0.9,0.2-1.4,0.3c-0.5,0.1-0.9,0.2-1.4,0.3c-0.9,0.2-1.8,0.3-2.8,0.5c-1.9,0.3-3.8,0.3-5.6,0c-0.9-0.1-1.8-0.1-2.4,0.4
				c-0.7,0.5-0.9,1.3-1.5,2c-0.3,0.3-0.5,0.7-0.9,0.8c-0.4,0.2-0.9,0.2-1.2,0.1c-0.8-0.3-1.4-0.8-2-1.2c-0.3-0.2-0.6-0.3-0.9-0.3
				s-0.7,0.1-0.9,0.2c-0.5,0.3-0.8,1-1.2,1.5c-0.7,1.1-1.9,1.6-2.8,1.6c-1,0.1-1.8-0.4-2.4-0.8c-0.5-0.5-0.8-0.9-0.9-1.3
				c-0.1-0.3-0.1-0.5-0.1-0.5s0.1,0.2,0.2,0.5c0.1,0.3,0.4,0.8,0.9,1.2c0.5,0.4,1.3,0.8,2.3,0.7c0.9-0.1,2-0.5,2.7-1.6
				c0.3-0.5,0.6-1.2,1.2-1.6c0.3-0.2,0.7-0.3,1.1-0.3c0.4,0.1,0.7,0.2,1,0.4c0.7,0.3,1.2,0.9,2,1.1c0.3,0.1,0.7,0.1,1.1-0.1
				c0.3-0.1,0.6-0.4,0.8-0.7c0.5-0.7,0.8-1.5,1.5-2c0.3-0.3,0.8-0.4,1.3-0.5s0.9,0,1.4,0c1.8,0.3,3.6,0.2,5.5-0.1
				c0.9-0.1,1.8-0.3,2.8-0.5c0.5-0.1,0.9-0.2,1.4-0.3c0.4-0.1,0.9-0.1,1.3-0.3c0.4-0.1,0.7-0.5,0.6-0.9c0-0.4-0.2-0.8-0.5-1.1
				c-0.5-0.6-1.3-1.1-2-1.4c-1.5-0.5-3.2-0.2-4.3,0.7s-1.6,2.2-1.7,3.5c0,1.2,0.5,2.2,0.9,3.2c0.4,0.9,0.7,1.7,0.9,2.4
				c0.1,0.7,0.1,1.2,0,1.6C93.3,190.1,93.2,190.3,93.2,190.3z"/>
		</g>
	</g>
</g>
<g>
	<g>
		<g>
			<path class="st1" d="M107.3,181.6c0,0-0.1,0.1-0.3,0.1c-0.3,0.1-0.6,0.1-1,0.3c-0.9,0.2-2.2,0.5-3.8,0.9c-3.2,0.7-7.6,1.8-12.5,3
				c-4.8,1.2-9.2,2.4-12.4,3.3c-1.6,0.4-2.8,0.7-3.7,1c-0.4,0.1-0.7,0.2-1,0.3c-0.2,0.1-0.3,0.1-0.3,0.1s0.1-0.1,0.3-0.1
				c0.3-0.1,0.6-0.2,1-0.3c0.9-0.3,2.2-0.7,3.7-1.1c3.1-0.9,7.5-2.1,12.3-3.4c4.9-1.2,9.3-2.2,12.5-2.9c1.6-0.3,2.9-0.6,3.8-0.8
				c0.4-0.1,0.7-0.1,1-0.2C107.1,181.6,107.3,181.6,107.3,181.6z"/>
		</g>
	</g>
</g>
<g>
	<g>
		<g>
			<g>
				<g>
					<g>
						<polygon class="st2" points="101.4,193.4 118.5,283.4 134,254.6 163.5,271.9 132.2,184.3 						"/>
					</g>
				</g>
			</g>
		</g>
	</g>
	<g class="st3">
		<g>
			<path class="st2" d="M107.2,223.7c3.1,0.7,6.9-0.5,9-2.8c1.6-1.6,2.6-3.8,4.5-4.9c1.8-0.9,3.9-0.8,5.8-0.3
				c1.9,0.5,3.7,1.4,5.7,1.9c3.8,1,8,0.3,11.3-1.7l-4.9-13.6l-22.8-2.8l-10.9,13L107.2,223.7z"/>
		</g>
	</g>
	<g>
		<g>
			<ellipse transform="matrix(0.9672 -0.254 0.254 0.9672 -54.27 39.9083)" class="st2" cx="127.4" cy="230.1" rx="0.2" ry="21.6"/>
		</g>
	</g>
</g>
<g>
	<g>
		<g>
			<g>
				<g>
					<polygon class="st2" points="103.9,198.1 86.9,288 71.4,259.3 41.9,276.6 73.1,189 					"/>
				</g>
			</g>
		</g>
	</g>
</g>
<g class="st3">
	<path d="M63.8,215.2c0,0,4.8,4,10.7,2.2c5.8-1.8,9.4-2.2,12.5,0c3.1,2.2,11.6,9.5,11.6,9.5l2-10.4l-11.3-15.6l-11.9,2.4l-8.5,0.8
		l-3.1,6L63.8,215.2z"/>
</g>
<g>
	<path class="st4" d="M203.7,116.9c0,6.4-8.3,12-9.4,18.1c-1.2,6.3,4.2,14.6,1.8,20.4c-2.4,5.9-12.2,7.9-15.7,13.1
		c-3.5,5.3-1.6,15.1-6.1,19.5c-4.5,4.5-14.2,2.6-19.5,6.1c-5.2,3.5-7.2,13.2-13.1,15.7c-5.8,2.4-14-3.1-20.4-1.8
		c-6.1,1.2-11.7,9.4-18.1,9.4c-6.4,0-12-8.3-18.1-9.4c-6.3-1.2-14.6,4.2-20.4,1.8C59,207.2,57,197.5,51.8,194
		c-5.3-3.5-15.1-1.6-19.5-6.1c-4.5-4.5-2.6-14.2-6.1-19.5c-3.5-5.2-13.2-7.2-15.7-13.1c-2.4-5.8,3.1-14,1.8-20.4
		c-1.2-6.1-9.4-11.7-9.4-18.1c0-6.4,8.3-12,9.4-18.1c1.2-6.3-4.2-14.6-1.8-20.4c2.4-5.9,12.2-7.9,15.7-13.1
		c3.5-5.3,1.6-15.1,6.1-19.5c4.5-4.5,14.2-2.6,19.5-6.1S59,26.5,64.9,24.1c5.8-2.4,14,3.1,20.4,1.8c6.1-1.2,11.7-9.4,18.1-9.4
		c6.4,0,12,8.3,18.1,9.4c6.3,1.2,14.6-4.2,20.4-1.8c5.9,2.4,7.9,12.2,13.1,15.7c5.3,3.5,15.1,1.6,19.5,6.1
		c4.5,4.5,2.6,14.2,6.1,19.5c3.5,5.2,13.2,7.2,15.7,13.1c2.4,5.8-3.1,14-1.8,20.4C195.5,104.9,203.7,110.4,203.7,116.9z"/>
</g>
<g>
	<g>
		<path class="st1" d="M79.8,60.6c0,0-0.1-0.1-0.2-0.3c-0.1-0.2-0.3-0.5-0.5-0.8c-0.4-0.7-0.9-1.8-1.6-3.1c-1.3-2.6-3-6.3-4.6-10.5
			c-1.6-4.2-2.9-8.1-3.7-10.9c-0.4-1.4-0.7-2.6-0.9-3.4c-0.1-0.3-0.1-0.7-0.2-0.9c-0.1-0.2-0.1-0.3-0.1-0.3s0.1,0.1,0.1,0.3
			c0.1,0.3,0.2,0.5,0.3,0.9c0.3,0.8,0.6,2,1,3.3c0.9,2.8,2.2,6.6,3.8,10.9c1.6,4.2,3.3,7.9,4.5,10.5c0.6,1.3,1.2,2.4,1.5,3.1
			c0.1,0.3,0.3,0.6,0.4,0.9C79.7,60.5,79.8,60.6,79.8,60.6z"/>
	</g>
</g>
<g>
	<g>
		<path class="st1" d="M88.7,57.2c0,0-0.1-0.3-0.3-0.7c-0.1-0.5-0.3-1.2-0.5-2.1c-0.5-1.8-1-4.2-1.5-6.9c-0.5-2.7-0.9-5.2-1.1-7.1
			c-0.1-0.9-0.2-1.6-0.2-2.2c-0.1-0.5-0.1-0.8,0-0.8c0,0,0.1,0.3,0.1,0.7c0.1,0.5,0.2,1.3,0.3,2.1c0.3,1.8,0.7,4.3,1.2,7
			s1,5.2,1.4,6.9c0.2,0.8,0.3,1.6,0.5,2.1C88.7,56.9,88.7,57.2,88.7,57.2z"/>
	</g>
</g>
<g>
	<g>
		
			<ellipse transform="matrix(0.9997 -2.260242e-02 2.260242e-02 0.9997 -0.8469 2.3622)" class="st1" cx="104.1" cy="38.6" rx="0.2" ry="17"/>
	</g>
</g>
<g>
	<g>
		<ellipse transform="matrix(0.2957 -0.9553 0.9553 0.2957 36.6402 146.577)" class="st1" cx="117.7" cy="48.4" rx="8.8" ry="0.2"/>
	</g>
</g>
<g>
	<g>
		<path class="st1" d="M126.8,59.6c0,0,0-0.1,0.1-0.3c0.1-0.3,0.2-0.5,0.3-0.9c0.3-0.7,0.7-1.9,1.2-3.3c1.1-2.7,2.6-6.5,4.3-10.7
			c1.8-4.1,3.3-7.9,4.5-10.6c0.6-1.3,1.1-2.4,1.4-3.2c0.1-0.3,0.3-0.6,0.4-0.9c0.1-0.2,0.1-0.3,0.1-0.3s0,0.1-0.1,0.3
			c-0.1,0.3-0.2,0.5-0.3,0.9c-0.3,0.8-0.8,1.9-1.4,3.2c-1.2,2.8-2.7,6.4-4.4,10.6c-1.7,4.1-3.3,7.9-4.4,10.6c-0.5,1.3-1,2.4-1.4,3.2
			c-0.1,0.3-0.3,0.6-0.3,0.9C126.9,59.5,126.9,59.7,126.8,59.6z"/>
	</g>
</g>
<g>
	<g>
		<path class="st1" d="M135.3,64.1c0,0,0.1-0.3,0.4-0.7c0.3-0.4,0.7-1,1.2-1.8c1-1.5,2.5-3.5,4.2-5.8c1.7-2.2,3.3-4.1,4.5-5.4
			c0.6-0.7,1.1-1.2,1.5-1.6c0.3-0.3,0.5-0.5,0.5-0.5s-0.1,0.3-0.5,0.6c-0.3,0.5-0.8,1-1.4,1.6c-1.2,1.4-2.8,3.3-4.5,5.5
			c-1.7,2.2-3.2,4.2-4.3,5.6c-0.5,0.7-0.9,1.3-1.3,1.8C135.5,63.9,135.4,64.1,135.3,64.1z"/>
	</g>
</g>
<g>
	<g>
		
			<ellipse transform="matrix(0.7322 -0.6811 0.6811 0.7322 -6.534497e-02 125.6884)" class="st1" cx="159.8" cy="62.9" rx="16.6" ry="0.2"/>
	</g>
</g>
<g>
	<g>
		<path class="st1" d="M169.2,76.3c0,0.1-0.7,0.5-2,1.1c-1.3,0.7-3,1.6-5,2.7c-1.9,1.1-3.7,2-5,2.6c-0.7,0.3-1.2,0.5-1.6,0.7
			c-0.4,0.1-0.6,0.2-0.6,0.2c0-0.1,0.7-0.5,2-1.1c1.3-0.7,3-1.6,5-2.7c1.9-1.1,3.7-2,5-2.6c0.7-0.3,1.2-0.5,1.6-0.7
			C169,76.4,169.2,76.2,169.2,76.3z"/>
	</g>
</g>
<g>
	<g>
		
			<ellipse transform="matrix(0.9433 -0.3321 0.3321 0.9433 -19.8283 63.1488)" class="st1" cx="174.9" cy="89.6" rx="15.2" ry="0.2"/>
	</g>
</g>
<g>
	<g>
		
			<ellipse transform="matrix(9.476902e-02 -0.9955 0.9955 9.476902e-02 44.1343 287.2726)" class="st1" cx="180" cy="119.4" rx="0.2" ry="15.5"/>
	</g>
</g>
<g>
	<g>
		
			<ellipse transform="matrix(0.4272 -0.9042 0.9042 0.4272 -31.6727 243.0944)" class="st1" cx="176" cy="146.5" rx="0.2" ry="15.9"/>
	</g>
</g>
<g>
	<g>
		
			<ellipse transform="matrix(0.7645 -0.6446 0.6446 0.7645 -73.5629 142.828)" class="st1" cx="158.7" cy="172.1" rx="0.2" ry="16"/>
	</g>
</g>
<g>
	<g>
		<path class="st1" d="M151.2,188.4c0,0-0.2-0.3-0.5-0.7s-0.8-1.2-1.4-2.2c-1.2-1.8-2.8-4.4-4.4-7.3c-1.7-2.9-3.1-5.6-4.1-7.5
			c-0.5-0.9-0.9-1.8-1.2-2.3c-0.3-0.5-0.4-0.9-0.4-0.9s0.2,0.3,0.5,0.8c0.3,0.6,0.7,1.4,1.3,2.2c1.1,1.9,2.5,4.5,4.2,7.4
			c1.7,2.8,3.2,5.5,4.3,7.3c0.5,0.9,0.9,1.6,1.4,2.2C151.1,188.1,151.2,188.4,151.2,188.4z"/>
	</g>
</g>
<g>
	<g>
		<path class="st1" d="M140.1,204c0,0-0.1-0.1-0.2-0.3c-0.1-0.2-0.3-0.5-0.5-0.8c-0.4-0.7-0.9-1.8-1.6-3.1
			c-1.2-2.6-2.8-6.4-4.4-10.5c-1.5-4.2-2.6-8.1-3.4-10.9c-0.3-1.4-0.7-2.6-0.8-3.4c-0.1-0.3-0.1-0.7-0.2-0.9
			c-0.1-0.2-0.1-0.3-0.1-0.3s0.1,0.1,0.1,0.3c0.1,0.3,0.1,0.5,0.3,0.9c0.2,0.8,0.5,2,0.9,3.3c0.8,2.8,2,6.6,3.5,10.9
			c1.5,4.2,3.1,7.9,4.3,10.5c0.6,1.3,1.1,2.4,1.4,3.1c0.1,0.3,0.3,0.6,0.4,0.9C140.1,203.8,140.2,204,140.1,204z"/>
	</g>
</g>
<g>
	<g>
		<path class="st1" d="M117.7,193.1c-0.1,0-0.1-0.9-0.3-2.4c-0.1-1.5-0.4-3.5-0.7-5.7s-0.8-4.2-1.1-5.6c-0.3-1.4-0.5-2.3-0.5-2.3
			c0,0,0.1,0.2,0.2,0.6c0.1,0.4,0.3,0.9,0.5,1.7c0.4,1.4,0.9,3.4,1.2,5.6c0.3,2.2,0.6,4.3,0.7,5.7c0.1,0.7,0.1,1.4,0.1,1.8
			C117.7,192.9,117.7,193.1,117.7,193.1z"/>
	</g>
</g>
<g>
	<g>
		<path class="st1" d="M103.1,212.6c0,0,0-0.1,0-0.3c0-0.3,0-0.6,0-1c0-0.9,0-2.1,0-3.7c0.1-3.1,0.2-7.4,0.5-12.1
			c0.3-4.7,0.5-9,0.8-12.1c0.1-1.6,0.3-2.8,0.3-3.7c0.1-0.4,0.1-0.7,0.1-1c0-0.2,0.1-0.3,0.1-0.3s0,0.1,0,0.3c0,0.3,0,0.6-0.1,1
			c-0.1,0.9-0.1,2.2-0.2,3.7c-0.2,3.1-0.4,7.4-0.7,12.1c-0.3,4.7-0.4,9-0.5,12.1c-0.1,1.5-0.1,2.7-0.1,3.7c0,0.4-0.1,0.7-0.1,1
			C103.1,212.5,103.1,212.6,103.1,212.6z"/>
	</g>
</g>
<g>
	<g>
		<path class="st1" d="M91.1,178.4c0.1,0,0,0.7-0.2,1.8s-0.5,2.5-0.8,4.1c-0.4,1.6-0.7,3.1-1.1,4.1c-0.3,1-0.5,1.6-0.6,1.6
			c-0.1,0,0.1-0.7,0.3-1.7c0.3-1.2,0.6-2.6,0.9-4.1c0.3-1.6,0.7-2.9,0.9-4.1C90.9,179.1,91.1,178.4,91.1,178.4z"/>
	</g>
</g>
<g>
	<g>
		
			<ellipse transform="matrix(0.6043 -0.7968 0.7968 0.6043 -110.8855 121.0596)" class="st1" cx="66.4" cy="172.2" rx="5.2" ry="0.2"/>
	</g>
</g>
<g>
	<g>
		
			<ellipse transform="matrix(0.6576 -0.7534 0.7534 0.6576 -112.4814 95.3828)" class="st1" cx="48.7" cy="171.4" rx="14.5" ry="0.2"/>
	</g>
</g>
<g>
	<g>
		<ellipse transform="matrix(0.7717 -0.636 0.636 0.7717 -88.705 65.7357)" class="st1" cx="47.2" cy="156.4" rx="6.9" ry="0.2"/>
	</g>
</g>
<g>
	<g>
		
			<ellipse transform="matrix(0.9009 -0.4341 0.4341 0.9009 -59.9999 28.672)" class="st1" cx="32.8" cy="145.7" rx="14.7" ry="0.2"/>
	</g>
</g>
<g>
	<g>
		<path class="st1" d="M43.3,133c0,0-0.2,0.1-0.6,0.2c-0.4,0.1-0.9,0.2-1.7,0.3c-1.4,0.3-3.4,0.5-5.6,0.8c-2.2,0.2-4.2,0.3-5.7,0.3
			c-0.7,0-1.3,0-1.7,0c-0.4,0-0.6,0-0.6-0.1c0-0.1,0.9-0.1,2.4-0.2c1.4-0.1,3.5-0.2,5.6-0.5c2.2-0.2,4.2-0.5,5.6-0.7
			C42.3,133.1,43.3,132.9,43.3,133z"/>
	</g>
</g>
<g>
	<g>
		<path class="st1" d="M41.1,118.4c0,0-0.4,0-1.2,0c-0.8-0.1-1.9-0.1-3.3-0.1c-2.7-0.1-6.5-0.3-10.7-0.2c-4.1,0-7.9,0.2-10.7,0.3
			c-1.3,0.1-2.4,0.1-3.3,0.2c-0.7,0.1-1.2,0.1-1.2,0.1s0.4-0.1,1.2-0.2c0.7-0.1,1.8-0.2,3.2-0.3c2.7-0.2,6.5-0.4,10.7-0.5
			c4.1,0,7.9,0.1,10.7,0.3c1.4,0.1,2.4,0.2,3.3,0.3C40.7,118.3,41.1,118.4,41.1,118.4z"/>
	</g>
</g>
<g>
	<g>
		
			<ellipse transform="matrix(0.2688 -0.9632 0.9632 0.2688 -75.1476 106.6763)" class="st1" cx="32.7" cy="102.8" rx="0.2" ry="10.1"/>
	</g>
</g>
<g>
	<g>
		<path class="st1" d="M45.3,94.8c0,0-0.1,0-0.3-0.1c-0.3-0.1-0.5-0.1-0.9-0.3c-0.7-0.3-1.9-0.6-3.3-1.1c-2.7-1-6.4-2.5-10.4-4.5
			c-4-2-7.5-4-9.9-5.6c-1.2-0.8-2.2-1.4-2.8-1.9c-0.3-0.2-0.5-0.4-0.7-0.5c-0.2-0.1-0.3-0.2-0.3-0.2s0.1,0.1,0.3,0.1
			c0.2,0.1,0.5,0.3,0.8,0.5c0.7,0.4,1.7,1.1,2.9,1.8c2.5,1.5,6,3.5,10,5.4c4,2,7.7,3.5,10.4,4.5c1.4,0.5,2.4,0.9,3.2,1.2
			c0.3,0.1,0.6,0.3,0.9,0.3C45.2,94.8,45.3,94.8,45.3,94.8z"/>
	</g>
</g>
<g>
	<g>
		<ellipse transform="matrix(0.5758 -0.8176 0.8176 0.5758 -45.607 69.4559)" class="st1" cx="44.1" cy="78.7" rx="0.2" ry="9.2"/>
	</g>
</g>
<g>
	<g>
		<path class="st1" d="M38.2,51c0,0,0.1,0.1,0.3,0.2c0.2,0.1,0.4,0.3,0.7,0.6c0.6,0.5,1.5,1.3,2.5,2.2c2.2,1.9,5,4.5,8.2,7.3
			c3.2,2.8,6.1,5.4,8.3,7.3c1,0.9,1.8,1.6,2.5,2.2c0.3,0.3,0.5,0.5,0.7,0.6c0.1,0.1,0.2,0.2,0.2,0.2s-0.1-0.1-0.3-0.2
			c-0.2-0.1-0.4-0.3-0.7-0.5c-0.6-0.5-1.5-1.2-2.6-2.1c-2.2-1.8-5.1-4.3-8.3-7.2c-3.2-2.8-6.1-5.5-8.1-7.4c-1-0.9-1.8-1.8-2.4-2.3
			c-0.3-0.3-0.5-0.5-0.7-0.6C38.3,51.1,38.2,51,38.2,51z"/>
	</g>
</g>
<g>
	<g>
		<path class="st1" d="M59.4,51.6c0,0,0.2,0.1,0.5,0.5c0.3,0.3,0.7,0.8,1.2,1.4c0.9,1.2,2.2,2.8,3.5,4.7c1.3,1.9,2.4,3.7,3.1,5
			c0.4,0.7,0.7,1.2,0.9,1.6c0.2,0.4,0.3,0.6,0.3,0.6c-0.1,0-0.5-0.7-1.4-2c-0.8-1.3-2-3-3.3-4.9c-1.3-1.9-2.5-3.6-3.4-4.8
			C59.8,52.4,59.3,51.7,59.4,51.6z"/>
	</g>
</g>
<g class="st5">
	<path d="M32.2,45.8l29.5,25.8l7.3-5.9L52,39.5c0,0-1.3,0.9-4.7,2C43.9,42.4,34.2,42.7,32.2,45.8z"/>
</g>
<g class="st5">
	<path d="M65.1,24l14.4,36.1l9.2-2.9l-3.1-31.3c0,0-1.6,0.3-5.1-0.1C77.1,25.4,68.9,22.2,65.1,24z"/>
</g>
<g class="st3">
	<path d="M103.5,16.5l0.9,39.1l8.6,0.4l8.8-30.1c-0.1,0-2.4-0.4-5.1-2.1C113.8,22,107.7,16.1,103.5,16.5z"/>
</g>
<g class="st5">
	<path d="M141.2,23.9L126.9,60l7.8,3.7l19.7-24.4c-0.1-0.1-2-1.6-3.7-4.4C148.7,31.9,145.5,25.1,141.2,23.9z"/>
</g>
<g class="st5">
	<path d="M174.8,46.4l-26.7,27.8l6,8l26.1-17.4c0,0-1.1-1.8-1.7-5.1C177.8,56.4,177.7,50.2,174.8,46.4z"/>
</g>
<g class="st5">
	<path d="M195.9,77.8L160,92.6l3,9.2l31.3-3.4c0,0-0.2-0.9,0.2-4.5C194.8,90.4,198.4,82.8,195.9,77.8z"/>
</g>
<g class="st5">
	<path d="M203.8,116.9l-39.1,1.4l-0.3,8.6l29.9,8.8c0-0.1,0.3-1.8,1.2-3.6C197.6,127.9,203.8,122,203.8,116.9z"/>
</g>
<g class="st5">
	<path d="M196.6,153.9l-36-14l-3.7,7.8l24.6,19.5c0.1-0.1,1.5-1.5,4.3-3.3C188.7,162.1,195.7,158.9,196.6,153.9z"/>
</g>
<g class="st5">
	<g>
		<path d="M143.6,153.4l-9,7.5c0.7,0.7,12.6,20.9,19.9,33.4c0.1-0.1,0.2-0.1,0.3-0.2c4.8-3.3,13.4-2,18.2-5.2L143.6,153.4z"/>
	</g>
	<g>
		<path d="M127.1,167.5l-13.3,4.5l6.3,36.2c0.4-0.1,0.8-0.3,1.2-0.3c6.3-1.2,14.6,4.2,20.4,1.8c0.8-0.3,1.5-0.8,2.2-1.4L127.1,167.5
			z"/>
	</g>
	<g>
		<path d="M102.8,217.3l2.1-47.3l-11.5-2.9l-8.5,40.7c0.1,0,0.2,0,0.3,0.1C91.1,209.1,96.5,216.9,102.8,217.3z"/>
	</g>
	<g>
		<path d="M73.8,162.1c0,0-15.2,20.4-23.2,31.3c0.3,0.2,0.7,0.4,1.1,0.6c5.2,3.5,7.2,13.2,13.1,15.7c0.3,0.1,0.5,0.2,0.8,0.3
			l21.2-40.2L73.8,162.1z"/>
	</g>
	<g>
		<path d="M58.2,145.6L25.7,168c0.1,0.1,0.3,0.3,0.3,0.5c3.5,5.3,1.6,15.1,6.1,19.5c0.4,0.4,0.9,0.7,1.4,1.1
			c11.5-13,32.1-36.2,32.8-37L58.2,145.6z"/>
	</g>
	<g>
		<path d="M50.8,129.7l-38.4,6.2c0.6,6.2-4.3,13.9-2,19.5c0.1,0.3,0.3,0.7,0.5,0.9c13.4-6.7,41.5-20.6,42.7-20.7L50.8,129.7z"/>
	</g>
	<g>
		<path d="M48.7,108.3L12.4,97.9c0,0.3-0.1,0.6-0.1,0.9c-1.2,6.1-9.4,11.7-9.4,18.1c0,0.4,0.1,0.9,0.1,1.3h44.3L48.7,108.3z"/>
	</g>
	<g>
		<path d="M10.6,78.1c13.6,7.3,40.1,22,40.1,22l6.5-12.4L26.5,64.6c-0.1,0.3-0.3,0.5-0.4,0.7C22.7,70.5,13.2,72.5,10.6,78.1z"/>
	</g>
</g>
<g>
	<g>
		<path class="st1" d="M203.7,116.9c0,0,0-0.1-0.1-0.4c-0.1-0.3,0-0.7-0.2-1.3c-0.2-1.1-0.8-2.7-2-4.5c-1.2-1.9-2.9-3.9-4.7-6.6
			c-0.9-1.4-1.8-2.8-2.3-4.7s-0.4-3.9,0-5.9c0.4-2,1-4.2,1.6-6.4c0.5-2.2,1-4.7,0.5-7.2c-0.3-1.2-0.9-2.4-1.7-3.5
			c-0.8-1-1.9-1.9-3-2.6c-2.2-1.6-4.8-2.8-7.3-4.5c-1.2-0.8-2.4-1.8-3.5-3c-1-1.2-1.7-2.6-2.1-4.2c-0.9-3.1-1.1-6.4-1.7-9.7
			c-0.3-1.6-0.8-3.3-1.7-4.8c-0.9-1.5-2.2-2.6-3.9-3.3c-1.6-0.7-3.4-1.1-5.2-1.4c-1.8-0.3-3.7-0.5-5.5-0.8c-1.8-0.3-3.7-0.7-5.4-1.7
			c-1.7-0.9-3.1-2.4-4.2-4.1c-1.2-1.6-2.1-3.3-3.1-5.1c-1-1.7-2.1-3.5-3.5-4.9c-1.4-1.4-3.3-2.5-5.4-2.6c-2-0.1-4.1,0.3-6.2,0.7
			s-4.1,1.1-6.2,1.5c-2.1,0.4-4.4,0.5-6.6-0.1c-2.1-0.7-4-2-5.8-3.3c-1.8-1.4-3.6-2.7-5.5-3.9c-1.9-1.2-4.1-2.1-6.4-1.8h-0.4
			c-0.1,0-0.3,0.1-0.4,0.1c-0.3,0.1-0.5,0.1-0.8,0.2c-0.5,0.2-1.1,0.3-1.6,0.6c-1.1,0.5-2,1.1-3,1.8c-1.9,1.3-3.7,2.8-5.7,4.2
			c-0.9,0.7-2,1.3-3.1,1.8c-1.1,0.5-2.3,0.8-3.5,0.9c-2.4,0.1-4.9-0.4-7.3-1s-4.7-1.3-7.2-1.5c-1.2-0.1-2.4-0.1-3.7,0.3
			c-1.2,0.3-2.2,0.9-3.2,1.8c-1.9,1.6-3.2,3.8-4.5,6c-1.3,2.2-2.5,4.4-4.3,6.4c-0.9,0.9-1.9,1.8-3.1,2.4c-1.2,0.6-2.4,0.9-3.7,1.3
			c-2.6,0.5-5.2,0.8-7.7,1.3c-2.5,0.5-5.2,1.2-7.1,3c-0.9,0.9-1.6,2.1-2,3.3c-0.5,1.2-0.7,2.5-1,3.9c-0.5,2.6-0.7,5.3-1.4,7.9
			c-0.3,1.3-0.7,2.6-1.4,3.8C26,66.1,25,67.1,24,68c-2.2,1.7-4.6,3-6.9,4.4c-1.2,0.7-2.3,1.5-3.4,2.3c-1,0.9-2,1.9-2.6,3.1
			c-0.7,1.2-0.9,2.5-0.9,3.9c0,1.4,0.2,2.7,0.5,4.1c0.5,2.7,1.4,5.4,1.9,8.1c0.3,1.4,0.3,2.8,0.1,4.3c-0.2,1.4-0.7,2.8-1.4,4
			c-1.4,2.5-3.3,4.7-4.9,7c-0.8,1.2-1.6,2.4-2.2,3.6c-0.6,1.3-1,2.6-1,4.1c0,1.4,0.4,2.8,1,4.1s1.4,2.4,2.2,3.6
			c1.6,2.3,3.5,4.5,4.9,7c0.7,1.2,1.2,2.6,1.4,4c0.2,1.4,0.1,2.8-0.1,4.3c-0.5,2.8-1.3,5.5-1.9,8.1c-0.3,1.4-0.5,2.7-0.5,4.1
			c0,1.4,0.3,2.7,0.9,3.9c0.6,1.2,1.6,2.2,2.6,3.1c1.1,0.9,2.2,1.6,3.4,2.3c2.3,1.4,4.7,2.7,6.9,4.4c1.1,0.9,2,1.9,2.7,3.1
			c0.7,1.2,1.2,2.5,1.4,3.8c0.6,2.6,0.9,5.4,1.4,7.9c0.3,1.3,0.5,2.6,1,3.9c0.5,1.2,1.1,2.4,2,3.3c1.9,1.8,4.5,2.6,7.1,3
			c2.6,0.5,5.2,0.7,7.7,1.3c1.3,0.3,2.5,0.7,3.7,1.3c1.2,0.6,2.2,1.5,3.1,2.4c1.7,2,3,4.2,4.3,6.4c1.3,2.2,2.6,4.3,4.5,6
			c0.9,0.8,2,1.5,3.2,1.8c1.2,0.3,2.4,0.3,3.7,0.3c2.4-0.2,4.8-0.9,7.2-1.5c2.4-0.6,4.7-1.2,7.3-1c1.2,0.1,2.4,0.4,3.5,0.9
			c1.1,0.5,2.2,1.2,3.1,1.8c2,1.4,3.8,2.8,5.8,4.2c0.9,0.6,2,1.3,3,1.8c0.5,0.3,1.1,0.4,1.6,0.6c0.3,0.1,0.5,0.1,0.8,0.2
			c0.1,0,0.3,0.1,0.4,0.1h0.4c2.3,0.3,4.5-0.7,6.4-1.8c2-1.2,3.7-2.6,5.5-3.9c1.8-1.3,3.7-2.6,5.8-3.3c2.2-0.7,4.4-0.5,6.6-0.1
			c2.2,0.4,4.2,1,6.2,1.5c2,0.5,4.1,0.9,6.2,0.7c2-0.1,3.9-1.2,5.4-2.6c1.4-1.5,2.5-3.2,3.5-4.9c1-1.7,2-3.5,3.1-5.1
			c1.2-1.6,2.4-3.1,4.2-4.1c1.7-0.9,3.6-1.4,5.4-1.7s3.7-0.5,5.5-0.8c1.8-0.3,3.6-0.7,5.2-1.4c1.6-0.7,3-1.8,3.9-3.3
			c0.9-1.5,1.4-3.1,1.7-4.8c0.7-3.3,0.9-6.6,1.7-9.7c0.5-1.6,1.1-3,2.1-4.2c1-1.2,2.2-2.1,3.5-3c2.5-1.7,5.1-2.9,7.3-4.5
			c1.1-0.8,2.2-1.6,3-2.6s1.4-2.2,1.7-3.5c0.3-1.2,0.2-2.5,0.1-3.7c-0.1-1.2-0.4-2.4-0.6-3.5c-0.5-2.2-1.2-4.4-1.6-6.4
			c-0.4-2-0.5-4.1,0-5.9c0.5-1.8,1.4-3.3,2.3-4.7c1.8-2.6,3.6-4.7,4.7-6.6c1.2-1.8,1.8-3.5,2-4.5c0.1-0.5,0.1-0.9,0.2-1.3
			C203.7,117,203.7,116.9,203.7,116.9s0,0.1,0,0.4c0,0.3,0,0.7-0.1,1.3c-0.2,1.1-0.8,2.7-2,4.5c-1.2,1.9-2.9,4-4.7,6.6
			c-0.9,1.4-1.8,2.8-2.3,4.6c-0.5,1.8-0.4,3.8,0,5.8s1,4.2,1.6,6.4c0.3,1.2,0.5,2.3,0.7,3.5s0.2,2.5-0.1,3.7
			c-0.3,1.3-0.9,2.4-1.7,3.5c-0.9,1-1.9,1.9-3.1,2.7c-2.2,1.6-4.9,2.9-7.3,4.5c-1.2,0.8-2.4,1.8-3.4,2.9c-1,1.2-1.6,2.6-2.1,4.1
			c-0.9,3.1-1,6.4-1.7,9.7c-0.3,1.6-0.8,3.3-1.7,4.9c-0.9,1.6-2.3,2.7-3.9,3.5s-3.5,1.1-5.2,1.4c-1.8,0.3-3.7,0.5-5.5,0.8
			c-1.8,0.3-3.7,0.7-5.4,1.7c-1.7,0.9-3,2.4-4.1,4s-2.1,3.3-3.1,5.1c-1,1.7-2.1,3.5-3.5,5c-1.4,1.5-3.4,2.6-5.5,2.7
			c-2.1,0.1-4.2-0.3-6.3-0.7c-2.1-0.5-4.1-1.1-6.2-1.5c-2.1-0.4-4.3-0.5-6.4,0.1c-2,0.7-3.9,2-5.7,3.3c-1.8,1.4-3.6,2.7-5.5,3.9
			c-0.5,0.3-1,0.6-1.5,0.8c-0.3,0.1-0.5,0.3-0.8,0.3l-0.8,0.3c-1.1,0.3-2.3,0.5-3.5,0.4l-0.4-0.1c-0.1,0-0.3-0.1-0.4-0.1
			c-0.3-0.1-0.6-0.1-0.9-0.2c-0.5-0.2-1.2-0.3-1.6-0.6c-1.1-0.5-2.1-1.2-3.1-1.8c-2-1.4-3.8-2.8-5.8-4.1c-0.9-0.7-2-1.3-3.1-1.8
			c-1.1-0.5-2.2-0.7-3.4-0.9c-2.4-0.1-4.7,0.4-7.1,1s-4.7,1.3-7.3,1.5c-1.2,0.1-2.5,0.1-3.7-0.3c-1.2-0.3-2.4-1-3.3-1.8
			c-1.9-1.7-3.3-3.9-4.5-6c-1.3-2.2-2.5-4.4-4.2-6.3c-0.9-0.9-1.8-1.8-3-2.4c-1.2-0.5-2.4-0.9-3.6-1.2c-2.5-0.5-5.1-0.8-7.7-1.3
			c-1.3-0.3-2.6-0.5-3.9-1c-1.2-0.5-2.4-1.2-3.4-2.1c-0.9-0.9-1.6-2.2-2.1-3.5c-0.5-1.3-0.7-2.6-1-3.9c-0.5-2.6-0.7-5.3-1.4-7.9
			c-0.3-1.3-0.7-2.6-1.4-3.7c-0.7-1.2-1.6-2.2-2.6-3c-2.1-1.7-4.5-3-6.9-4.4c-1.2-0.7-2.3-1.5-3.4-2.4c-1.1-0.9-2-2-2.7-3.2
			c-0.7-1.2-1-2.6-0.9-4.1c0-1.4,0.2-2.8,0.5-4.1c0.6-2.7,1.4-5.4,1.9-8.1c0.2-1.4,0.3-2.8,0.1-4.1c-0.2-1.4-0.7-2.6-1.4-3.9
			c-1.4-2.4-3.3-4.6-4.9-6.9c-0.8-1.2-1.6-2.4-2.2-3.7s-1-2.7-1-4.2c0-1.5,0.5-2.9,1.1-4.2s1.4-2.5,2.2-3.7c1.6-2.3,3.5-4.5,4.9-6.9
			c0.7-1.2,1.2-2.5,1.4-3.9c0.2-1.4,0.1-2.8-0.1-4.1c-0.5-2.8-1.3-5.4-1.9-8.1c-0.3-1.4-0.5-2.8-0.5-4.1c0-1.4,0.3-2.8,1-4.1
			c0.7-1.2,1.6-2.3,2.7-3.2c1.1-0.9,2.2-1.6,3.4-2.4c2.4-1.4,4.7-2.7,6.9-4.4c1.1-0.8,2-1.8,2.6-3c0.7-1.2,1.1-2.4,1.4-3.7
			c0.6-2.6,0.8-5.3,1.4-7.9c0.3-1.3,0.5-2.6,1-3.9c0.5-1.2,1.2-2.4,2.1-3.5c0.9-0.9,2.2-1.6,3.4-2.1s2.6-0.7,3.9-1
			c2.6-0.5,5.2-0.7,7.7-1.3c1.2-0.3,2.5-0.7,3.6-1.2c1.2-0.5,2.1-1.4,3-2.4c1.7-1.9,2.9-4.1,4.2-6.3c1.3-2.2,2.6-4.4,4.5-6
			c0.9-0.8,2.1-1.5,3.3-1.8c1.2-0.3,2.5-0.3,3.7-0.3c2.5,0.3,4.9,0.9,7.3,1.5c2.4,0.6,4.7,1.2,7.1,1c1.2-0.1,2.4-0.4,3.4-0.9
			c1.1-0.5,2.1-1.1,3.1-1.8c2-1.4,3.8-2.8,5.8-4.1c0.9-0.7,2-1.3,3.1-1.8c0.5-0.3,1.1-0.4,1.6-0.6c0.3-0.1,0.5-0.1,0.9-0.2
			c0.1,0,0.3-0.1,0.4-0.1l0.4-0.1c1.2-0.1,2.4,0.1,3.5,0.4l0.8,0.3c0.3,0.1,0.5,0.3,0.8,0.3c0.5,0.2,1,0.5,1.5,0.8
			c2,1.2,3.7,2.6,5.5,3.9c1.8,1.3,3.7,2.6,5.7,3.3c2.1,0.7,4.3,0.5,6.4,0.1c2.1-0.4,4.2-1,6.2-1.5s4.2-0.9,6.3-0.7
			c2.1,0.1,4.1,1.2,5.5,2.7c1.4,1.5,2.5,3.3,3.5,5c1,1.7,2,3.5,3.1,5.1c1.1,1.6,2.4,3.1,4.1,4s3.5,1.4,5.4,1.7
			c1.8,0.3,3.7,0.5,5.5,0.8c1.8,0.3,3.6,0.7,5.2,1.4c1.6,0.7,3.1,1.9,3.9,3.5c0.9,1.5,1.4,3.2,1.7,4.9c0.7,3.3,0.9,6.6,1.7,9.7
			c0.4,1.5,1.1,3,2.1,4.1c1,1.2,2.2,2.1,3.4,2.9c2.4,1.6,5,2.9,7.3,4.5c1.2,0.8,2.2,1.7,3.1,2.7c0.8,1,1.4,2.2,1.7,3.5
			c0.3,1.3,0.2,2.5,0.1,3.7c-0.1,1.2-0.4,2.4-0.7,3.5c-0.5,2.2-1.2,4.4-1.6,6.4c-0.4,2-0.5,4.1,0,5.8c0.5,1.8,1.4,3.3,2.3,4.6
			c1.8,2.6,3.6,4.7,4.7,6.6c1.2,1.8,1.8,3.5,2,4.5c0.1,0.5,0.1,1,0.1,1.3C203.7,116.7,203.7,116.9,203.7,116.9z"/>
	</g>
</g>
<g>
	<path class="st6" d="M135,103.3"/>
</g>
<g>
	<g>
		
			<ellipse transform="matrix(0.2468 -0.9691 0.9691 0.2468 -166.3315 251.5555)" class="st1" cx="78.7" cy="232.8" rx="23.3" ry="0.2"/>
	</g>
</g>
<g>
	<circle class="st7" cx="103.3" cy="116.9" r="61.6"/>
</g>
<g>
	<path class="st8" d="M65.3,95.6c-0.9,0.9-5.5,9.4-6,16.4c-0.4,7,0.6,46.3,0.6,46.3l0.2,2.6c11.1,13,51.4,32.2,87.7-0.1l0,0l2-24.2
		l-6-51.2l-20.8-5.1l-4.9-7.9l-32.5,7.6l-2.9,6.9L65.3,95.6z"/>
</g>
<g>
	<g>
		<g>
			<g>
				<g>
					<g>
						<g>
							<g>
								<g>
									<g>
										<g>
											<path class="st1" d="M116,51.7c1.4-5.3,2.8-10.7,3.3-16.1c0.5-5.5,0.1-11.2-2.2-16.2c-0.3-0.7-3.1-5.9-3.9-5.8
												c-0.6,0.1,1.2,4.9,0.9,5.4c-2.6,5.1-3.1,11-2.3,16.7C112.6,41.4,114.1,46.4,116,51.7"/>
										</g>
									</g>
								</g>
							</g>
						</g>
					</g>
				</g>
			</g>
			<g>
				<g>
					<g>
						<path class="st9" d="M115.4,30.7c-0.3-13.8-8.5-25.2-22.3-24.6l-1.3,0.1C79,7.6,69.3,18.6,69.7,31.5c0.3,12,0.7,25.2,1.5,31.5
							c1.6,13.2,15,13.8,15,13.8l0.6,8.7l5.7,6.2l26.3-16.3L115.4,30.7z"/>
					</g>
				</g>
			</g>
			<g>
				<g>
					<g>
						<g>
							<g>
								<g>
									<g>
										<g>
											<g>
												<g>
													<path class="st10" d="M86.2,77c0,0,8.3-0.4,16.6-6.9c0,0-2.8,11.9-16.1,12.1L86.2,77z"/>
												</g>
											</g>
										</g>
									</g>
								</g>
							</g>
						</g>
					</g>
				</g>
			</g>
			<g>
				<g>
					<g>
						<g>
							<g>
								<g>
									<g>
										<g>
											<g>
												<g>
													<g>
														<g>
															<g>
																<g>
																	<g>
																		<g>
																			<path class="st1" d="M77.3,42.2c0.1,1,0.9,1.8,2,1.7c1-0.1,1.8-0.9,1.8-1.9c-0.1-1-0.9-1.8-2-1.7
																				C78,40.4,77.2,41.2,77.3,42.2z"/>
																		</g>
																	</g>
																</g>
															</g>
														</g>
													</g>
												</g>
											</g>
										</g>
									</g>
								</g>
							</g>
						</g>
					</g>
				</g>
			</g>
			<g>
				<g>
					<g>
						<g>
							<g>
								<g>
									<g>
										<g>
											<g>
												<g>
													<g>
														<g>
															<g>
																<g>
																	<g>
																		<g>
																			<g>
																				<path class="st1" d="M73.1,36.7c0.3,0.2,1.6-1,3.6-1.2s3.6,0.7,3.8,0.4c0.1-0.1-0.2-0.5-0.9-0.9
																					c-0.7-0.4-1.8-0.7-3.1-0.6c-1.3,0.1-2.3,0.7-2.8,1.3C73.1,36.1,73,36.6,73.1,36.7z"/>
																			</g>
																		</g>
																	</g>
																</g>
															</g>
														</g>
													</g>
												</g>
											</g>
										</g>
									</g>
								</g>
							</g>
						</g>
					</g>
				</g>
			</g>
			<g>
				<g>
					<g>
						<g>
							<g>
								<g>
									<g>
										<g>
											<g>
												<g>
													<g>
														<g>
															<g>
																<g>
																	<g>
																		<g>
																			<path class="st1" d="M95.2,40.8c0.1,1,0.9,1.8,2,1.7c1-0.1,1.8-0.9,1.8-1.9c-0.1-1-0.9-1.8-2-1.7
																				C95.9,38.9,95.1,39.7,95.2,40.8z"/>
																		</g>
																	</g>
																</g>
															</g>
														</g>
													</g>
												</g>
											</g>
										</g>
									</g>
								</g>
							</g>
						</g>
					</g>
				</g>
			</g>
			<g>
				<g>
					<g>
						<g>
							<g>
								<g>
									<g>
										<g>
											<g>
												<g>
													<g>
														<g>
															<g>
																<g>
																	<g>
																		<g>
																			<g>
																				<path class="st1" d="M93,35.4c0.3,0.2,1.6-1,3.6-1.2c2-0.2,3.6,0.7,3.8,0.4c0.1-0.1-0.2-0.5-0.9-0.9
																					s-1.8-0.7-3.1-0.6c-1.3,0.1-2.3,0.7-2.8,1.3S92.9,35.3,93,35.4z"/>
																			</g>
																		</g>
																	</g>
																</g>
															</g>
														</g>
													</g>
												</g>
											</g>
										</g>
									</g>
								</g>
							</g>
						</g>
					</g>
				</g>
			</g>
			<g>
				<g>
					<g>
						<g>
							<g>
								<g>
									<g>
										<g>
											<g>
												<g>
													<g>
														<g>
															<g>
																<g>
																	<g>
																		<g>
																			<path class="st1" d="M87.4,51.7c0-0.1-1.3-0.2-3.3-0.3c-0.5,0-1-0.1-1.2-0.4c-0.1-0.3,0-0.9,0.2-1.6
																				c0.3-1.3,0.7-2.6,1.1-4.1c1.6-5.8,2.6-10.6,2.4-10.7c-0.2-0.1-1.7,4.6-3.2,10.4c-0.3,1.4-0.7,2.8-1,4.1
																				c-0.1,0.6-0.4,1.3-0.1,2c0.2,0.3,0.6,0.6,0.9,0.7c0.3,0.1,0.6,0.1,0.9,0C86.2,52,87.4,51.9,87.4,51.7z"/>
																		</g>
																	</g>
																</g>
															</g>
														</g>
													</g>
												</g>
											</g>
										</g>
									</g>
								</g>
							</g>
						</g>
					</g>
				</g>
			</g>
			<g>
				<g>
					<g>
						<g>
							<g>
								<g>
									<g>
										<g>
											<g>
												<g>
													<g>
														<g>
															<g>
																<g>
																	<g>
																		<g>
																			<path class="st1" d="M93.5,52.6c-0.3,0-0.1,2.2-1.8,4c-1.7,1.8-4.1,1.8-4.1,2.1c0,0.1,0.5,0.3,1.6,0.3
																				c0.9-0.1,2.4-0.5,3.4-1.6c1-1.1,1.4-2.4,1.4-3.3C94,53,93.7,52.5,93.5,52.6z"/>
																		</g>
																	</g>
																</g>
															</g>
														</g>
													</g>
												</g>
											</g>
										</g>
									</g>
								</g>
							</g>
						</g>
					</g>
				</g>
			</g>
			<g>
				<g>
					<g>
						<g>
							<g>
								<g>
									<g>
										<g>
											<g>
												<g>
													<g>
														<g>
															<path class="st1" d="M92.3,27.2c0.3,0.5,2.2,0.1,4.7,0.1c2.4,0,4.4,0.5,4.7-0.1c0.1-0.3-0.3-0.7-1.1-1.2
																c-0.8-0.5-2.1-0.8-3.5-0.8s-2.7,0.3-3.5,0.8C92.5,26.4,92.1,26.9,92.3,27.2z"/>
														</g>
													</g>
												</g>
											</g>
										</g>
									</g>
								</g>
							</g>
						</g>
					</g>
				</g>
			</g>
			<g>
				<g>
					<g>
						<g>
							<g>
								<g>
									<g>
										<g>
											<g>
												<g>
													<g>
														<g>
															<path class="st1" d="M73.2,29.8c0.4,0.4,1.8-0.2,3.5-0.4c1.7-0.3,3.1,0,3.4-0.5c0.1-0.3-0.1-0.7-0.8-1.1
																c-0.7-0.3-1.7-0.6-2.8-0.5c-1.2,0.1-2.1,0.7-2.6,1.2C73.2,29.1,73.1,29.6,73.2,29.8z"/>
														</g>
													</g>
												</g>
											</g>
										</g>
									</g>
								</g>
							</g>
						</g>
					</g>
				</g>
			</g>
			<g>
				<g>
					<g>
						<g>
							<g>
								<g>
									<g>
										<g>
											<path class="st9" d="M115.4,40.6c0.2-0.1,8.8-3.7,9.4,5.4c0.7,9-8.5,7.9-8.6,7.6C116.2,53.4,115.4,40.6,115.4,40.6z"/>
										</g>
									</g>
								</g>
							</g>
						</g>
					</g>
				</g>
			</g>
			<g>
				<g>
					<g>
						<g>
							<g>
								<g>
									<g>
										<g>
											<g>
												<path class="st10" d="M118.7,50c0.1,0,0.1,0.1,0.4,0.2c0.3,0.1,0.7,0.1,1.2-0.1c0.9-0.4,1.6-2,1.6-3.7
													c-0.1-0.8-0.3-1.6-0.6-2.2c-0.3-0.6-0.8-1.1-1.3-1.2c-0.5-0.1-0.8,0.2-0.9,0.5c-0.1,0.3,0,0.4-0.1,0.5
													c0,0-0.2-0.1-0.1-0.5c0-0.2,0.1-0.4,0.3-0.6c0.2-0.2,0.5-0.3,0.9-0.3c0.7,0,1.4,0.6,1.8,1.3c0.4,0.7,0.7,1.6,0.7,2.5
													c0.1,1.8-0.7,3.6-2,4.1c-0.6,0.2-1.2,0.1-1.5-0.1C118.8,50.2,118.7,50,118.7,50z"/>
											</g>
										</g>
									</g>
								</g>
							</g>
						</g>
					</g>
				</g>
			</g>
			<g>
				<g>
					<g>
						<g>
							<g>
								<g>
									<g>
										<g>
											<path class="st1" d="M74.6,16.1c-1.5-0.7,2.6-5.8,6-7.6c5.3-2.8,13.5-4.9,18.6-3.8c6.2,1.4,11.3,4,14.7,9.3
												c3.4,5.3,5,11.7,5.2,17.9c0.1,1.9,0,3.9-0.9,5.6c-1.2,2.1-3.5,3.5-3.2,6.2c0.1,1-0.1,2-0.7,2.8c-1.6,1.9-3.7,0.3-4.7-1.3
												c-2.2-3.4-2.7-7.7-3.1-11.7c-0.3-2.8-0.6-5.8,0-8.6c0.3-1.6,0.9-3,1.2-4.5c0.3-1.6,0.1-3.3-0.9-4.5
												c-0.1-0.2-0.4-0.4-0.8-0.7c-2.7-2.1-6.3-2.5-9.5-1.2c-5,2.1-13.5,5.4-15.9,3.8c-3.5-2.3-4.3-3.9-4.3-3.9L74.6,16.1z"/>
										</g>
									</g>
								</g>
							</g>
						</g>
					</g>
				</g>
			</g>
		</g>
	</g>
</g>
<g>
	<path class="st8" d="M65.3,95.6c-0.5,0.7-7.9,3.2-10.7,7.9c-2.8,4.7-5.6,25.7-5.6,25.7L47.3,143c3.5,5.6,8.3,13,13.3,18.2
		L65.3,95.6z"/>
</g>
<g class="st3">
	<g>
		<path d="M121,115.9c0.3,2.8,0.6,5.7,1.6,8.3c0.9,2.6,2.6,5.2,5.2,6.6c1,0.5,2.2,0.9,3.1,1.8c0.9,0.9,1.4,2.1,2.2,3.1
			c1,1.1,2.4,1.8,3.8,2.2c4.1,1.5,8.2,2.2,12.6,2c0.1-1.4,0.1-6.8,0.3-8.2L121,115.9z"/>
	</g>
</g>
<g>
	<path class="st8" d="M143.9,85.4c0,0,9.4,2.8,12.1,6.7c2.7,4,7.6,19.4,8.6,22.3c1,2.8,0.1,9.5-1.8,14.2c-1.9,4.7-5.1,8.9-10.7,9.5
		c-5.6,0.6-14.5-2.6-16.4-4.7c-2-2.1-2.8-6.9-2.8-6.9c2.5-0.4,5-1.1,7.3-1.8"/>
</g>
<g>
	<g>
		<path class="st1" d="M140.2,124.7c0,0-0.1,0-0.1,0.1c-0.1,0-0.2,0.1-0.3,0.1c-0.3,0.1-0.8,0.3-1.4,0.5c-1.2,0.3-3.1,0.9-5.4,1.3
			l0.1-0.1c0.2,1.1,0.5,2.2,0.9,3.5c0.2,0.6,0.5,1.2,0.8,1.8s0.7,1.2,1.2,1.7c0.5,0.5,1.2,0.9,1.9,1.2c0.7,0.4,1.4,0.7,2.2,1
			c1.6,0.6,3.2,1.2,5,1.6s3.7,0.7,5.6,0.7c0.5,0,0.9-0.1,1.5-0.1c0.5-0.1,0.9-0.1,1.4-0.3c0.9-0.2,1.9-0.6,2.8-1.1
			c1.8-1,3.3-2.5,4.5-4.3c1.2-1.8,2-3.9,2.6-6c0.5-1.6,0.8-3.3,1.1-5c0.2-1.6,0.3-3.3,0.3-5c-0.1-0.8-0.2-1.6-0.5-2.3
			c-0.3-0.7-0.5-1.5-0.7-2.2c-0.5-1.5-0.9-2.9-1.4-4.3c-0.9-2.8-1.9-5.5-2.8-8c-0.9-2.4-1.9-4.8-3-6.7c-0.5-0.9-1.3-1.8-2.1-2.4
			c-0.8-0.6-1.6-1.2-2.4-1.6c-1.6-0.9-3-1.5-4.1-2c-1.2-0.5-2.1-0.8-2.7-1c-0.3-0.1-0.5-0.2-0.7-0.3c-0.1-0.1-0.3-0.1-0.3-0.1
			s0.1,0,0.3,0.1s0.4,0.1,0.7,0.2c0.6,0.2,1.6,0.5,2.8,1c1.2,0.5,2.6,1.1,4.2,2c0.8,0.5,1.6,0.9,2.4,1.6c0.8,0.6,1.6,1.4,2.2,2.4
			c1.2,2,2.1,4.3,3.1,6.8c0.9,2.5,1.9,5.2,2.9,8c0.5,1.4,0.9,2.8,1.5,4.3c0.3,0.7,0.5,1.5,0.7,2.2c0.3,0.7,0.5,1.6,0.5,2.4
			c0.1,1.6,0,3.3-0.3,5c-0.2,1.7-0.6,3.4-1.1,5c-0.6,2.2-1.5,4.3-2.7,6.1c-1.2,1.8-2.7,3.5-4.6,4.5c-0.9,0.5-1.9,0.9-2.9,1.1
			c-0.5,0.1-1,0.2-1.5,0.3c-0.5,0-1,0.1-1.5,0.1c-2,0-3.9-0.3-5.6-0.7s-3.5-0.9-5-1.6c-0.7-0.3-1.5-0.7-2.2-1
			c-0.7-0.4-1.4-0.7-2-1.3c-0.5-0.5-0.9-1.2-1.3-1.8c-0.3-0.6-0.6-1.3-0.8-1.9c-0.4-1.2-0.7-2.4-0.9-3.5v-0.1h0.1
			c2.4-0.4,4.2-0.9,5.5-1.2c0.6-0.2,1.1-0.3,1.4-0.4c0.1-0.1,0.3-0.1,0.3-0.1C140.2,124.7,140.2,124.7,140.2,124.7z"/>
	</g>
</g>
<g>
	<g>
		<path class="st1" d="M157.3,119.7c-0.1,0-0.3-1.2-1.1-2.8c-0.7-1.7-2.2-4-4.2-6c-1-1-2.2-1.8-3.3-2.3c-0.3-0.1-0.5-0.3-0.8-0.3
			c-0.3-0.1-0.5-0.2-0.8-0.3c-0.5-0.2-1-0.2-1.5-0.3c-0.1,0-0.2-0.1-0.3-0.1c-0.1,0-0.2,0-0.3,0c-0.2,0-0.4,0-0.6,0
			c-0.4,0-0.7,0.1-0.9,0.1c-0.5,0.1-0.8,0.1-0.8,0.1c0,0,0.3-0.1,0.8-0.2c0.3-0.1,0.6-0.1,0.9-0.1c0.2,0,0.4,0,0.6,0
			c0.1,0,0.2,0,0.3,0c0.1,0,0.2,0,0.3,0.1c0.5,0.1,1,0.1,1.6,0.3c0.3,0.1,0.5,0.1,0.8,0.3c0.3,0.1,0.5,0.3,0.9,0.3
			c1.2,0.5,2.3,1.4,3.4,2.4c2.1,2,3.5,4.4,4.2,6.2c0.2,0.5,0.3,0.8,0.5,1.2c0.1,0.3,0.2,0.7,0.3,0.9
			C157.3,119.4,157.4,119.7,157.3,119.7z"/>
	</g>
</g>
<g>
	<g>
		<path class="st1" d="M162.5,111.4c-0.1,0-0.3-1.2-1.4-2.8c-1.1-1.6-3.1-3.7-6-4.5c-2.8-0.9-5.6-0.6-7.6-0.4
			c-0.9,0.1-1.7,0.2-2.3,0.3c-0.5,0.1-0.9,0.1-0.9,0.1s0.3-0.1,0.8-0.2c0.5-0.1,1.4-0.3,2.3-0.4c2-0.3,4.7-0.5,7.7,0.3
			c1.5,0.5,2.8,1.2,3.8,2c1,0.9,1.8,1.8,2.3,2.6c0.5,0.9,0.8,1.6,1,2.2C162.4,111,162.5,111.4,162.5,111.4z"/>
	</g>
</g>
<g>
	<g>
		<path class="st1" d="M155.4,101.3c0,0.1-2.4-0.7-5.6-0.5c-3.1,0.1-5.5,1.1-5.5,0.9c0-0.1,0.5-0.3,1.6-0.6c0.9-0.3,2.4-0.6,3.9-0.7
			c1.6-0.1,3,0.1,4,0.3C154.8,101,155.4,101.3,155.4,101.3z"/>
	</g>
</g>
<g>
	<g>
		<path class="st1" d="M140.3,87.7c0.1,0-0.1,0.9-0.2,2.5c-0.1,1.6-0.1,3.7,0.1,6c0.2,2.2,0.6,4.3,0.9,5.7l-0.3,0.1
			c-0.3-0.8-0.5-1.4-0.6-1.8c-0.1-0.5-0.2-0.7-0.2-0.7s0.1,0.2,0.3,0.7s0.4,1,0.7,1.8l-0.3,0.1c-0.4-1.4-0.9-3.5-1.1-5.8
			c-0.2-2.4-0.1-4.5,0.1-6c0.1-0.7,0.2-1.4,0.3-1.8C140.2,87.9,140.2,87.7,140.3,87.7z"/>
	</g>
</g>
<g>
	<g>
		<path class="st9" d="M127.1,70.3c0,0-4.9,0-5.5,5.8c-0.5,4.5,0,8.8,0,10.8s-0.9,9-0.9,9s-3.3,2.9-3.3,6.4c0.1,3.5,2.6,4.6,2.6,4.6
			s-1.6,3.4,1.4,6.4c0,0-1.4,3.3-0.3,5.4c0.9,1.7,2.9,2.2,2.9,2.2s-1.4,3.2,2,4.5c2,0.8,5,0.6,5,0.6l3.6-0.1l3.2,1.8
			c0,0,5.5-2.4,5.6-5.6c0.1-3.2,0.1-3.2,0.1-3.2s-1.6-5.3-1.7-7s1.3-5.8,0.4-7.5c-0.8-1.8-3.8-2.9-3.5-5.4c0.3-2.6-0.3-3.9-1.6-5.4
			s-6.9-4.2-6.9-4.2s-1.4-4.1-1.4-6.9C129.2,79.9,132,71.3,127.1,70.3z"/>
	</g>
	<g>
		<g>
			<path class="st10" d="M130.3,90.6c0,0.1-0.5,0.3-1.4,0.9c-0.9,0.5-2,1.2-3.4,1.9s-2.5,1.4-3.4,1.8c-0.9,0.4-1.4,0.7-1.5,0.7
				c0-0.1,0.5-0.3,1.4-0.9c0.9-0.5,2-1.2,3.4-1.9c1.4-0.7,2.5-1.4,3.4-1.8C129.8,90.8,130.3,90.6,130.3,90.6z"/>
		</g>
	</g>
	<g>
		<g>
			<path class="st10" d="M133.5,101.6c0,0-0.1,0.1-0.4,0.4c-0.3,0.2-0.7,0.5-1.3,0.9c-1.1,0.7-2.7,1.6-4.5,2.3
				c-1.8,0.7-3.7,1.2-5,1.4c-0.6,0.1-1.2,0.1-1.6,0.2c-0.3,0-0.5,0-0.5,0c0-0.1,0.8-0.1,2-0.4c1.3-0.3,3-0.7,4.8-1.4
				c1.8-0.7,3.5-1.6,4.5-2.2C132.8,102,133.5,101.5,133.5,101.6z"/>
		</g>
	</g>
	<g>
		<g>
			<path class="st10" d="M137.7,98.1c0.1,0-0.1,0.7-0.7,1.2c-0.5,0.5-1.2,0.7-1.2,0.5c-0.1-0.1,0.5-0.3,1-0.8
				C137.3,98.6,137.6,98.1,137.7,98.1z"/>
		</g>
	</g>
	<g>
		<g>
			<path class="st10" d="M135.7,111.2c0,0.1-0.7,0.3-2,0.7c-1.3,0.4-3.1,0.8-5.1,1.2c-2,0.3-3.9,0.5-5.2,0.5s-2.2,0-2.2-0.1
				s0.8-0.1,2.2-0.2c1.4-0.1,3.1-0.3,5.2-0.6c2-0.3,3.8-0.7,5.1-1.1C134.9,111.4,135.7,111.2,135.7,111.2z"/>
		</g>
	</g>
	<g>
		<g>
			<path class="st10" d="M140.1,110.4c-0.1,0,0.1-0.4,0.3-1c0.2-0.6,0.4-1.6,0.3-2.6s-0.5-1.9-0.9-2.4s-0.7-0.9-0.6-0.9
				c0,0,0.4,0.2,0.8,0.8c0.4,0.5,0.9,1.4,1,2.5c0.1,1.1-0.1,2-0.4,2.7C140.4,110.1,140.2,110.4,140.1,110.4z"/>
		</g>
	</g>
	<g>
		<g>
			<path class="st10" d="M136,121c0,0.1-0.6,0.2-1.7,0.4c-1.1,0.2-2.6,0.3-4.3,0.3c-1.7,0-3.2-0.2-4.3-0.3c-1.1-0.2-1.8-0.4-1.7-0.4
				c0-0.1,0.7,0.1,1.8,0.1c1.1,0.1,2.6,0.3,4.2,0.3c1.6,0,3.1-0.1,4.2-0.2C135.3,121.1,136,120.9,136,121z"/>
		</g>
	</g>
	<g>
		<g>
			<path class="st10" d="M127.3,82.8c0,0.1-0.2,0.2-0.7,0.4c-0.5,0.1-1.2,0.3-1.8,0.2c-0.7-0.1-1.4-0.3-1.8-0.6
				c-0.4-0.3-0.6-0.5-0.5-0.5s1,0.7,2.4,0.8C126.2,83.2,127.3,82.7,127.3,82.8z"/>
		</g>
	</g>
	<g>
		<g>
			<path class="st10" d="M141.1,110.8c0,0,0.1,0.2,0.1,0.5s0,0.8-0.1,1.4c-0.1,0.6-0.3,1.3-0.5,2s-0.4,1.6-0.3,2.4
				c0.1,0.9,0.7,1.6,0.9,2.4c0.1,0.9-0.2,1.6-0.5,2.1s-0.7,0.9-0.9,1.2s-0.3,0.3-0.4,0.3c-0.1-0.1,0.5-0.6,1-1.6
				c0.3-0.5,0.5-1.2,0.4-1.9c-0.1-0.7-0.7-1.4-0.9-2.4c-0.1-0.9,0.1-1.8,0.3-2.6c0.2-0.7,0.5-1.4,0.6-2
				C141.1,111.6,141.1,110.8,141.1,110.8z"/>
		</g>
	</g>
</g>
<g>
	<g>
		<path class="st1" d="M143,115c0,0,0.1,0.2,0.2,0.6c0.1,0.4,0.3,1,0.4,1.8c0.1,0.7,0.3,1.7,0.3,2.7c0,1-0.1,2.2-0.6,3.3
			c-0.5,1.1-1.4,2-2.1,2.6s-1.5,1.2-2.2,1.7c-0.6,0.4-1.2,0.7-1.6,0.9c-0.4,0.2-0.6,0.3-0.6,0.3c0-0.1,0.8-0.5,2-1.5
			c0.6-0.5,1.4-1,2.1-1.7c0.7-0.7,1.5-1.6,2-2.6c0.5-1,0.6-2.2,0.6-3.2s-0.1-1.9-0.3-2.7C143.2,116,142.9,115.1,143,115z"/>
	</g>
</g>
<g>
	<g>
		<path class="st1" d="M91.8,92.5c0,0-0.3-0.2-0.8-0.6c-0.5-0.5-1.2-1-2-1.7c-0.4-0.3-0.9-0.7-1.4-1.2c-0.3-0.2-0.5-0.4-0.8-0.5
			c-0.3-0.1-0.6-0.2-0.9,0c-0.6,0.3-0.9,1.1-1.5,1.7c-0.5,0.7-0.9,1.4-1.5,2c-0.8,1.1-1.6,2.2-2.3,3.1l-0.4,0.6l0.1-0.7
			c0.5-2.4,1.2-4.5,1.7-5.9c0.3-0.7,0.5-1.3,0.7-1.6c0.2-0.4,0.3-0.5,0.3-0.5s-0.1,0.2-0.2,0.6c-0.1,0.4-0.3,0.9-0.6,1.7
			c-0.5,1.4-1.1,3.5-1.6,5.9l-0.3-0.1c0.7-0.9,1.5-2,2.3-3.1c0.5-0.7,1-1.4,1.5-2c0.3-0.3,0.5-0.6,0.7-0.9c0.3-0.3,0.5-0.6,0.9-0.8
			c0.4-0.2,0.9-0.1,1.2,0.1c0.3,0.2,0.6,0.4,0.9,0.6c0.5,0.4,0.9,0.8,1.4,1.2c0.8,0.7,1.5,1.3,2,1.8C91.5,92.2,91.8,92.4,91.8,92.5z
			"/>
	</g>
</g>
<g>
	<g>
		<path class="st1" d="M120.4,86.7c0,0-0.1,0.1-0.3,0.2c-0.2,0.1-0.5,0.4-0.8,0.6c-0.7,0.5-1.8,1.3-3,2.2c-2.6,1.9-6.1,4.5-10,7.3
			l-0.1,0.1l-0.1-0.1c-0.1-0.1-0.1-0.3-0.3-0.4c-1.8-2.9-3.5-5.6-5-7.9l0.2,0.1c-2.4,0.9-4.3,2-5.6,2.8c-0.6,0.4-1.2,0.7-1.5,0.9
			c-0.3,0.2-0.5,0.3-0.5,0.3s0.1-0.1,0.5-0.4c0.3-0.3,0.8-0.6,1.4-1c1.3-0.8,3.1-1.9,5.6-2.9l0.1-0.1l0.1,0.1c1.5,2.3,3.2,5,5,7.9
			c0.1,0.1,0.1,0.3,0.3,0.4l-0.3-0.1c3.9-2.8,7.5-5.4,10-7.3c1.3-0.9,2.3-1.6,3.1-2.2c0.3-0.2,0.6-0.4,0.8-0.5
			C120.3,86.8,120.4,86.7,120.4,86.7z"/>
	</g>
</g>
<g>
	<g>
		<path class="st1" d="M59.5,113.8c0,0,0,0.1,0.1,0.5c0,0.3,0,0.8,0.1,1.4c0,1.2,0.1,2.9,0.1,5c0.1,4.3,0.3,10.2,0.5,16.6
			c0.2,6.5,0.3,12.4,0.3,16.7c0,2.1,0,3.9,0,5c0,0.5,0,1,0,1.4s0,0.5-0.1,0.5c0,0,0-0.1-0.1-0.5c0-0.3,0-0.8-0.1-1.4
			c0-1.2-0.1-2.9-0.1-5c-0.1-4.3-0.3-10.2-0.5-16.7c-0.2-6.5-0.3-12.4-0.3-16.7c0-2.1,0-3.9,0-5c0-0.5,0-1,0-1.4
			C59.5,113.9,59.5,113.8,59.5,113.8z"/>
	</g>
</g>
<g>
	<g>
		<path class="st1" d="M92,175c0,0,0-0.1-0.1-0.2c0-0.1-0.1-0.3-0.1-0.5c-0.1-0.5-0.1-1.3-0.2-2.2c-0.2-1.9-0.4-4.7-0.6-8.2
			c-0.2-3.5-0.4-7.6-0.5-12.1c-0.1-4.5-0.1-9.6,0-14.9c0.1-5.3,0.3-10.3,0.7-14.9c0.3-4.5,0.7-8.7,1-12.1c0.3-3.5,0.7-6.2,0.9-8.1
			c0.1-0.9,0.3-1.7,0.3-2.2c0.1-0.2,0.1-0.4,0.1-0.5c0-0.1,0.1-0.2,0.1-0.2s0,0.1,0,0.2c0,0.1,0,0.3-0.1,0.6
			c-0.1,0.5-0.1,1.3-0.3,2.2c-0.2,1.9-0.5,4.7-0.9,8.1s-0.7,7.5-0.9,12.1c-0.3,4.5-0.5,9.6-0.6,14.9c-0.1,5.3-0.1,10.3,0,14.9
			s0.3,8.7,0.5,12.1c0.2,3.5,0.3,6.2,0.5,8.2c0.1,0.9,0.1,1.7,0.1,2.2c0,0.3,0,0.4,0,0.6C92,174.9,92,175,92,175z"/>
	</g>
</g>
<g>
	<g>
		<path class="st1" d="M71.8,64c0,0-0.3,0.1-0.7,0.5c-0.5,0.3-1.2,0.7-2.1,1.4c-0.9,0.6-2,1.5-3.3,2.4c-0.7,0.5-1.3,1.1-2,1.7
			c-0.3,0.3-0.7,0.6-1.1,0.9c-0.4,0.3-0.7,0.7-1.2,1.1c-3.1,2.8-6.6,6.7-9.8,11.8c-0.4,0.6-0.8,1.3-1.2,2c-0.4,0.7-0.7,1.4-1.2,2
			c-0.3,0.7-0.8,1.4-1.2,2.2c-0.3,0.7-0.7,1.5-1,2.3c-0.2,0.4-0.3,0.7-0.5,1.2c-0.1,0.4-0.3,0.8-0.5,1.2c-0.3,0.8-0.6,1.6-0.9,2.5
			c-0.5,1.7-1.2,3.5-1.5,5.3c-0.9,3.7-1.5,7.6-1.7,11.7c-0.2,4.1,0,8.4,0.7,12.8c1.4,8.8,4.9,17.8,10.7,25.9
			c5.8,8.1,14,15.1,23.7,19.8c9.8,4.7,21.2,6.6,32.7,5.5c11.5-1.2,22.2-5.7,30.8-12.3c2.2-1.6,4.1-3.5,6-5.3
			c0.5-0.5,0.9-0.9,1.4-1.4c0.5-0.5,0.9-0.9,1.4-1.5c0.4-0.5,0.9-1,1.3-1.5c0.4-0.5,0.8-1,1.2-1.6c3.3-4.1,5.8-8.5,7.8-13.2
			c2-4.5,3.3-9.3,4.1-13.9c0.4-2.3,0.7-4.6,0.8-6.9c0.1-1.2,0.1-2.3,0.1-3.4c0-1.2-0.1-2.2-0.1-3.3c0-0.5-0.1-1.1-0.1-1.6
			c0-0.5-0.1-1.1-0.2-1.6c-0.1-1.1-0.3-2.2-0.4-3.2c-0.1-1.1-0.4-2.1-0.6-3.1s-0.4-2-0.7-3.1s-0.5-2-0.8-2.9
			c-0.1-0.5-0.3-0.9-0.5-1.4c-0.2-0.5-0.3-0.9-0.5-1.4c-0.3-0.9-0.7-1.8-1.1-2.7s-0.8-1.8-1.2-2.6c-3.3-6.8-7.5-12.3-11.7-16.6
			c-4.2-4.3-8.5-7.3-12.1-9.4c-0.9-0.5-1.8-1-2.6-1.5c-0.4-0.3-0.8-0.4-1.2-0.6c-0.4-0.2-0.7-0.3-1.2-0.5c-0.7-0.3-1.4-0.7-2-0.9
			c-0.6-0.3-1.2-0.5-1.7-0.7c-1-0.4-1.8-0.7-2.4-0.9c-0.5-0.2-0.8-0.3-0.8-0.3s0.3,0.1,0.8,0.3c0.5,0.2,1.4,0.5,2.4,0.9
			c0.5,0.2,1.1,0.4,1.8,0.7c0.6,0.3,1.3,0.6,2,0.9c0.3,0.2,0.7,0.3,1.2,0.5c0.4,0.2,0.8,0.3,1.2,0.6c0.8,0.5,1.7,0.9,2.6,1.5
			c3.6,2.2,7.9,5.2,12.1,9.4c4.3,4.3,8.5,9.8,11.8,16.6c0.4,0.9,0.8,1.7,1.2,2.6c0.4,0.9,0.7,1.8,1.1,2.7c0.2,0.5,0.3,0.9,0.5,1.4
			c0.2,0.5,0.3,0.9,0.5,1.4c0.3,0.9,0.5,2,0.9,2.9c0.3,1,0.5,2,0.7,3.1c0.2,1,0.5,2.1,0.6,3.1c0.1,1.1,0.3,2.2,0.4,3.3
			c0.1,0.5,0.1,1.1,0.2,1.6c0,0.5,0.1,1.1,0.1,1.6c0.1,1.1,0.1,2.2,0.1,3.4c-0.1,1.2-0.1,2.3-0.1,3.4c-0.1,2.3-0.4,4.6-0.8,7
			c-0.8,4.7-2.2,9.4-4.1,14c-2,4.5-4.5,9.1-7.8,13.2c-0.4,0.5-0.8,1-1.2,1.6c-0.4,0.5-0.9,1-1.3,1.5c-0.4,0.5-0.9,1-1.4,1.5
			s-0.9,0.9-1.4,1.4c-1.9,1.8-3.9,3.7-6.1,5.3c-8.6,6.6-19.4,11.2-30.9,12.3c-11.5,1.2-23-0.8-32.8-5.6c-9.8-4.7-18-11.7-23.9-19.9
			c-5.9-8.1-9.4-17.3-10.7-26.1c-0.7-4.4-0.9-8.7-0.7-12.8c0.2-4.1,0.7-8.1,1.7-11.7c0.4-1.8,1-3.6,1.6-5.3c0.3-0.8,0.6-1.7,0.9-2.5
			c0.1-0.4,0.3-0.8,0.5-1.2c0.1-0.4,0.3-0.8,0.5-1.2c0.3-0.7,0.7-1.6,1.1-2.3c0.3-0.7,0.7-1.4,1.2-2.2c0.4-0.7,0.7-1.4,1.2-2
			c0.4-0.7,0.8-1.3,1.2-2c3.3-5.1,6.8-8.9,9.9-11.8c0.4-0.3,0.7-0.7,1.2-1c0.4-0.3,0.7-0.6,1.1-0.9c0.7-0.6,1.4-1.2,2-1.7
			c1.4-0.9,2.4-1.8,3.3-2.4c0.9-0.6,1.6-1,2.2-1.4C71.5,64.1,71.8,64,71.8,64z"/>
	</g>
</g>
</svg>
