<?xml version="1.0" encoding="utf-8"?>
<!-- Generator: Adobe Illustrator 25.0.1, SVG Export Plug-In . SVG Version: 6.00 Build 0)  -->
<svg version="1.1" id="Layer_1" xmlns="http://www.w3.org/2000/svg" xmlns:xlink="http://www.w3.org/1999/xlink" x="0px" y="0px"
	 viewBox="0 0 340 100" style="enable-background:new 0 0 340 100;" xml:space="preserve">
<style type="text/css">
	.st0{fill:#E6E6E6;}
	.st1{fill:#999999;}
	.st2{fill:#808080;}
</style>
<g>
	<rect x="0.5" y="0.5" class="st0" width="339" height="99"/>
	<path class="st1" d="M339,1v98H1V1H339 M340,0H0v100h340V0L340,0z"/>
</g>
<g>
	<path class="st2" d="M141.4,54.4c0.1,0,0.3,0.1,0.4,0.2l1,1.1c-0.7,0.8-1.6,1.5-2.6,1.9c-1,0.5-2.2,0.7-3.7,0.7
		c-1.2,0-2.4-0.2-3.4-0.6s-1.9-1-2.6-1.8c-0.7-0.8-1.3-1.7-1.7-2.8s-0.6-2.3-0.6-3.6s0.2-2.5,0.6-3.6c0.4-1.1,1-2,1.7-2.8
		c0.7-0.8,1.6-1.4,2.7-1.8c1-0.4,2.2-0.6,3.4-0.6c1.2,0,2.3,0.2,3.3,0.6c1,0.4,1.8,0.9,2.5,1.6l-0.8,1.2c-0.1,0.1-0.1,0.2-0.2,0.2
		c-0.1,0.1-0.2,0.1-0.3,0.1c-0.2,0-0.3-0.1-0.5-0.2c-0.2-0.2-0.5-0.3-0.8-0.5s-0.7-0.4-1.2-0.5s-1.1-0.2-1.8-0.2
		c-0.9,0-1.6,0.1-2.4,0.4c-0.7,0.3-1.3,0.7-1.8,1.3c-0.5,0.6-0.9,1.3-1.2,2.1c-0.3,0.8-0.4,1.7-0.4,2.8c0,1,0.1,2,0.4,2.8
		c0.3,0.8,0.7,1.5,1.2,2.1s1.1,1,1.8,1.3c0.7,0.3,1.5,0.4,2.3,0.4c0.5,0,0.9,0,1.3-0.1c0.4-0.1,0.8-0.2,1.1-0.3
		c0.3-0.1,0.6-0.3,0.9-0.5s0.6-0.4,0.9-0.7c0.1-0.1,0.1-0.1,0.2-0.1C141.2,54.4,141.3,54.4,141.4,54.4z"/>
	<path class="st2" d="M149.8,45.7c0.9,0,1.7,0.1,2.4,0.4s1.3,0.7,1.8,1.3c0.5,0.5,0.9,1.2,1.2,2c0.3,0.8,0.4,1.6,0.4,2.6
		c0,1-0.1,1.8-0.4,2.6c-0.3,0.8-0.7,1.4-1.2,2c-0.5,0.5-1.1,1-1.8,1.3c-0.7,0.3-1.5,0.4-2.4,0.4c-0.9,0-1.7-0.1-2.4-0.4
		c-0.7-0.3-1.3-0.7-1.9-1.3c-0.5-0.5-0.9-1.2-1.2-2c-0.3-0.8-0.4-1.6-0.4-2.6c0-1,0.1-1.8,0.4-2.6c0.3-0.8,0.7-1.4,1.2-2
		c0.5-0.5,1.1-1,1.9-1.3S148.9,45.7,149.8,45.7z M149.8,56.4c1.2,0,2-0.4,2.6-1.2s0.9-1.9,0.9-3.3c0-1.4-0.3-2.5-0.9-3.3
		c-0.6-0.8-1.4-1.2-2.6-1.2c-1.2,0-2,0.4-2.6,1.2c-0.6,0.8-0.9,1.9-0.9,3.3c0,1.4,0.3,2.5,0.9,3.3C147.8,56.1,148.7,56.4,149.8,56.4
		z"/>
	<path class="st2" d="M158.3,58.1V45.9h1.4c0.3,0,0.5,0.2,0.6,0.5l0.2,1.2c0.4-0.5,0.9-1,1.5-1.3c0.5-0.3,1.2-0.5,1.9-0.5
		c0.8,0,1.5,0.2,2,0.7c0.5,0.4,0.9,1,1.1,1.8c0.2-0.4,0.4-0.8,0.7-1.1s0.6-0.6,0.9-0.8c0.3-0.2,0.7-0.3,1.1-0.4
		c0.4-0.1,0.8-0.1,1.2-0.1c0.6,0,1.2,0.1,1.7,0.3c0.5,0.2,0.9,0.5,1.3,0.9c0.4,0.4,0.6,0.9,0.8,1.5c0.2,0.6,0.3,1.2,0.3,2v7.8h-2.4
		v-7.8c0-0.9-0.2-1.6-0.6-2.1c-0.4-0.5-1-0.7-1.7-0.7c-0.3,0-0.7,0.1-1,0.2c-0.3,0.1-0.6,0.3-0.8,0.5c-0.2,0.2-0.4,0.5-0.5,0.9
		c-0.1,0.3-0.2,0.7-0.2,1.2v7.8h-2.4v-7.8c0-0.9-0.2-1.6-0.6-2.1c-0.4-0.4-0.9-0.7-1.7-0.7c-0.5,0-1,0.1-1.4,0.4
		c-0.4,0.3-0.8,0.6-1.2,1.1v9H158.3z"/>
	<path class="st2" d="M180.4,47.7c0.3-0.3,0.5-0.6,0.8-0.8s0.6-0.5,0.9-0.6c0.3-0.2,0.7-0.3,1.1-0.4s0.8-0.1,1.2-0.1
		c0.7,0,1.3,0.1,1.9,0.4c0.6,0.3,1,0.7,1.4,1.2c0.4,0.5,0.7,1.2,0.9,2c0.2,0.8,0.3,1.7,0.3,2.7c0,0.9-0.1,1.7-0.4,2.5s-0.6,1.4-1,2
		s-1,1-1.7,1.3s-1.4,0.5-2.2,0.5c-0.7,0-1.4-0.1-1.9-0.4c-0.5-0.2-1-0.6-1.4-1v5.3h-2.3V45.9h1.4c0.3,0,0.5,0.2,0.6,0.5L180.4,47.7z
		 M180.5,55.1c0.4,0.5,0.8,0.9,1.2,1.1c0.4,0.2,0.9,0.3,1.5,0.3c1.1,0,1.9-0.4,2.5-1.2s0.9-1.9,0.9-3.4c0-0.8-0.1-1.4-0.2-2
		s-0.3-1-0.6-1.3c-0.3-0.3-0.6-0.6-0.9-0.8c-0.4-0.2-0.8-0.2-1.2-0.2c-0.7,0-1.3,0.2-1.8,0.5s-1,0.7-1.4,1.3V55.1z"/>
	<path class="st2" d="M191.3,47.6c0.7-0.6,1.4-1.1,2.2-1.5s1.7-0.5,2.6-0.5c0.7,0,1.3,0.1,1.8,0.3c0.5,0.2,1,0.5,1.4,1
		s0.6,0.9,0.8,1.5c0.2,0.6,0.3,1.2,0.3,1.9v7.8h-1c-0.2,0-0.4,0-0.5-0.1c-0.1-0.1-0.2-0.2-0.3-0.4l-0.3-1.1
		c-0.3,0.3-0.6,0.5-0.9,0.8c-0.3,0.2-0.6,0.4-1,0.6s-0.7,0.3-1.1,0.4s-0.8,0.1-1.2,0.1c-0.5,0-0.9-0.1-1.4-0.2
		c-0.4-0.1-0.8-0.3-1.1-0.6c-0.3-0.3-0.6-0.6-0.7-1c-0.2-0.4-0.3-0.9-0.3-1.4c0-0.5,0.1-0.9,0.4-1.4c0.3-0.4,0.7-0.8,1.3-1.2
		s1.4-0.6,2.3-0.9c0.9-0.2,2.1-0.4,3.5-0.4v-0.9c0-0.9-0.2-1.6-0.6-2.1c-0.4-0.5-1-0.7-1.7-0.7c-0.5,0-0.9,0.1-1.3,0.2
		c-0.3,0.1-0.6,0.3-0.9,0.4c-0.3,0.2-0.5,0.3-0.7,0.4c-0.2,0.1-0.4,0.2-0.6,0.2c-0.2,0-0.3,0-0.4-0.1s-0.2-0.2-0.3-0.3L191.3,47.6z
		 M198.2,52.7c-1,0-1.8,0.1-2.4,0.2c-0.7,0.1-1.2,0.3-1.6,0.5s-0.7,0.4-0.9,0.7c-0.2,0.3-0.3,0.6-0.3,0.9c0,0.3,0,0.6,0.1,0.8
		c0.1,0.2,0.2,0.4,0.4,0.5c0.2,0.1,0.4,0.2,0.6,0.3c0.2,0.1,0.5,0.1,0.8,0.1c0.4,0,0.7,0,1-0.1c0.3-0.1,0.6-0.2,0.8-0.3
		c0.3-0.1,0.5-0.3,0.8-0.5c0.2-0.2,0.5-0.4,0.7-0.7V52.7z"/>
	<path class="st2" d="M205.8,47.6c0.3-0.3,0.5-0.5,0.8-0.8c0.3-0.2,0.6-0.4,0.9-0.6c0.3-0.2,0.7-0.3,1-0.4c0.4-0.1,0.8-0.1,1.2-0.1
		c0.7,0,1.3,0.1,1.8,0.3c0.5,0.2,0.9,0.5,1.3,0.9s0.6,0.9,0.8,1.5s0.3,1.2,0.3,1.9v7.8h-2.4v-7.8c0-0.9-0.2-1.6-0.6-2
		c-0.4-0.5-1-0.7-1.8-0.7c-0.6,0-1.2,0.1-1.7,0.4c-0.5,0.3-1,0.7-1.5,1.2v8.9h-2.3V45.9h1.4c0.3,0,0.5,0.2,0.6,0.5L205.8,47.6z"/>
	<path class="st2" d="M227.4,45.9l-6.8,15.7c-0.1,0.2-0.2,0.3-0.3,0.4s-0.3,0.1-0.5,0.1h-1.7l2.2-4.9l-5-11.4h2c0.2,0,0.4,0,0.5,0.1
		c0.1,0.1,0.2,0.2,0.2,0.3l3.1,7.3c0.1,0.2,0.1,0.4,0.2,0.6c0.1,0.2,0.1,0.4,0.1,0.6c0.1-0.2,0.1-0.4,0.2-0.6
		c0.1-0.2,0.1-0.4,0.2-0.6l3-7.3c0.1-0.1,0.1-0.2,0.3-0.3c0.1-0.1,0.3-0.1,0.4-0.1H227.4z"/>
	<path class="st2" d="M245,56v2.1h-9.9V40.9h2.6V56H245z"/>
	<path class="st2" d="M251.4,45.7c0.9,0,1.7,0.1,2.4,0.4c0.7,0.3,1.3,0.7,1.8,1.3c0.5,0.5,0.9,1.2,1.2,2c0.3,0.8,0.4,1.6,0.4,2.6
		c0,1-0.1,1.8-0.4,2.6c-0.3,0.8-0.7,1.4-1.2,2c-0.5,0.5-1.1,1-1.8,1.3c-0.7,0.3-1.5,0.4-2.4,0.4c-0.9,0-1.7-0.1-2.4-0.4
		c-0.7-0.3-1.3-0.7-1.9-1.3c-0.5-0.5-0.9-1.2-1.2-2c-0.3-0.8-0.4-1.6-0.4-2.6c0-1,0.1-1.8,0.4-2.6c0.3-0.8,0.7-1.4,1.2-2
		c0.5-0.5,1.1-1,1.9-1.3C249.7,45.9,250.5,45.7,251.4,45.7z M251.4,56.4c1.2,0,2-0.4,2.6-1.2s0.9-1.9,0.9-3.3c0-1.4-0.3-2.5-0.9-3.3
		c-0.6-0.8-1.4-1.2-2.6-1.2c-1.2,0-2,0.4-2.6,1.2c-0.6,0.8-0.9,1.9-0.9,3.3c0,1.4,0.3,2.5,0.9,3.3C249.4,56.1,250.2,56.4,251.4,56.4
		z"/>
	<path class="st2" d="M270.2,46.4v0.9c0,0.3-0.2,0.5-0.5,0.5l-1.3,0.2c0.1,0.2,0.2,0.5,0.3,0.8c0.1,0.3,0.1,0.6,0.1,0.9
		c0,0.6-0.1,1.1-0.3,1.6c-0.2,0.5-0.6,0.9-1,1.2c-0.4,0.3-0.9,0.6-1.5,0.8c-0.6,0.2-1.2,0.3-1.9,0.3c-0.6,0-1.1-0.1-1.5-0.2
		c-0.2,0.1-0.4,0.3-0.5,0.5s-0.2,0.3-0.2,0.5c0,0.3,0.1,0.5,0.4,0.6c0.2,0.1,0.5,0.2,0.9,0.3s0.8,0.1,1.3,0.1c0.5,0,1,0,1.5,0.1
		c0.5,0,1,0.1,1.5,0.2c0.5,0.1,0.9,0.2,1.3,0.4c0.4,0.2,0.7,0.5,0.9,0.8s0.4,0.8,0.4,1.4c0,0.5-0.1,1-0.4,1.5s-0.6,0.9-1.1,1.3
		s-1.1,0.7-1.8,0.9c-0.7,0.2-1.5,0.3-2.4,0.3c-0.9,0-1.7-0.1-2.4-0.3s-1.2-0.4-1.7-0.7c-0.4-0.3-0.8-0.6-1-1s-0.3-0.8-0.3-1.2
		c0-0.6,0.2-1.1,0.6-1.5s0.9-0.7,1.5-1c-0.4-0.2-0.6-0.4-0.8-0.7s-0.3-0.6-0.3-1.1c0-0.2,0-0.4,0.1-0.5c0.1-0.2,0.2-0.4,0.3-0.6
		c0.1-0.2,0.3-0.4,0.5-0.5c0.2-0.2,0.4-0.3,0.7-0.5c-0.6-0.3-1.1-0.8-1.4-1.3c-0.3-0.6-0.5-1.2-0.5-1.9c0-0.6,0.1-1.1,0.3-1.6
		c0.2-0.5,0.6-0.9,1-1.2c0.4-0.3,0.9-0.6,1.5-0.8c0.6-0.2,1.2-0.3,1.9-0.3c1.1,0,2,0.2,2.7,0.7H270.2z M267.8,58.7
		c0-0.3-0.1-0.5-0.2-0.7s-0.4-0.3-0.7-0.4c-0.3-0.1-0.6-0.2-1-0.2c-0.4,0-0.8-0.1-1.2-0.1c-0.4,0-0.8,0-1.2-0.1
		c-0.4,0-0.8-0.1-1.2-0.1c-0.4,0.2-0.8,0.5-1,0.8c-0.3,0.3-0.4,0.6-0.4,1c0,0.3,0.1,0.5,0.2,0.7c0.1,0.2,0.3,0.4,0.6,0.6
		c0.3,0.2,0.6,0.3,1,0.4c0.4,0.1,0.9,0.1,1.5,0.1c0.6,0,1.1-0.1,1.5-0.2c0.4-0.1,0.8-0.2,1.1-0.4s0.5-0.4,0.7-0.6
		S267.8,59,267.8,58.7z M264.1,52c0.4,0,0.8-0.1,1.1-0.2c0.3-0.1,0.6-0.3,0.8-0.5c0.2-0.2,0.4-0.4,0.5-0.7c0.1-0.3,0.2-0.6,0.2-0.9
		c0-0.7-0.2-1.3-0.6-1.7c-0.4-0.4-1.1-0.6-1.9-0.6c-0.8,0-1.5,0.2-1.9,0.6s-0.6,1-0.6,1.7c0,0.3,0.1,0.7,0.2,0.9
		c0.1,0.3,0.3,0.5,0.5,0.7c0.2,0.2,0.5,0.4,0.8,0.5C263.3,52,263.7,52,264.1,52z"/>
	<path class="st2" d="M277.3,45.7c0.9,0,1.7,0.1,2.4,0.4c0.7,0.3,1.3,0.7,1.8,1.3c0.5,0.5,0.9,1.2,1.2,2c0.3,0.8,0.4,1.6,0.4,2.6
		c0,1-0.1,1.8-0.4,2.6c-0.3,0.8-0.7,1.4-1.2,2c-0.5,0.5-1.1,1-1.8,1.3c-0.7,0.3-1.5,0.4-2.4,0.4c-0.9,0-1.7-0.1-2.4-0.4
		c-0.7-0.3-1.3-0.7-1.9-1.3c-0.5-0.5-0.9-1.2-1.2-2c-0.3-0.8-0.4-1.6-0.4-2.6c0-1,0.1-1.8,0.4-2.6c0.3-0.8,0.7-1.4,1.2-2
		c0.5-0.5,1.1-1,1.9-1.3C275.6,45.9,276.4,45.7,277.3,45.7z M277.3,56.4c1.2,0,2-0.4,2.6-1.2s0.9-1.9,0.9-3.3c0-1.4-0.3-2.5-0.9-3.3
		c-0.6-0.8-1.4-1.2-2.6-1.2c-1.2,0-2,0.4-2.6,1.2c-0.6,0.8-0.9,1.9-0.9,3.3c0,1.4,0.3,2.5,0.9,3.3C275.3,56.1,276.2,56.4,277.3,56.4
		z"/>
</g>
<g>
	<path class="st2" d="M106.8,28.9H61.1c-2.9,0-5.3,2.4-5.3,5.3v31.6c0,2.9,2.4,5.3,5.3,5.3h45.6c2.9,0,5.3-2.4,5.3-5.3V34.2
		C112,31.3,109.7,28.9,106.8,28.9z M106.1,65.8H61.8c-0.4,0-0.7-0.3-0.7-0.7V34.9c0-0.4,0.3-0.7,0.7-0.7h44.3c0.4,0,0.7,0.3,0.7,0.7
		v30.3C106.8,65.5,106.5,65.8,106.1,65.8z M69.9,38.6c-2.4,0-4.4,2-4.4,4.4s2,4.4,4.4,4.4s4.4-2,4.4-4.4S72.3,38.6,69.9,38.6z
		 M66.4,60.5h35.1v-8.8l-9.6-9.6c-0.5-0.5-1.3-0.5-1.9,0L76.9,55.3l-4.3-4.3c-0.5-0.5-1.3-0.5-1.9,0l-4.3,4.3V60.5z"/>
</g>
</svg>
