<?xml version="1.0" encoding="utf-8"?>
<!-- Generator: Adobe Illustrator 25.0.1, SVG Export Plug-In . SVG Version: 6.00 Build 0)  -->
<svg version="1.1" id="Layer_1" focusable="false" xmlns="http://www.w3.org/2000/svg" xmlns:xlink="http://www.w3.org/1999/xlink"
	 x="0px" y="0px" viewBox="0 0 100 100" style="enable-background:new 0 0 100 100;" xml:space="preserve">
<style type="text/css">
	.st0{fill:#0073DE;}
</style>
<path class="st0" d="M99.4,47.5C90,29.1,71.3,16.7,50,16.7S10,29.1,0.6,47.5c-0.8,1.6-0.8,3.5,0,5.1C10,70.9,28.7,83.3,50,83.3
	s40-12.4,49.4-30.8C100.2,50.9,100.2,49.1,99.4,47.5z M50,75c-13.8,0-25-11.2-25-25s11.2-25,25-25s25,11.2,25,25S63.8,75,50,75
	L50,75z M50,33.3c-1.5,0-3,0.2-4.4,0.7c2.7,3.7,1.9,8.9-1.8,11.6c-2.9,2.2-6.9,2.2-9.8,0c-2.4,8.9,2.8,18,11.7,20.4
	c8.9,2.4,18-2.8,20.4-11.7c2.4-8.9-2.8-18-11.7-20.4C53,33.5,51.5,33.3,50,33.3z"/>
</svg>
