<?xml version="1.0" encoding="utf-8"?>
<!-- Generator: Adobe Illustrator 25.0.1, SVG Export Plug-In . SVG Version: 6.00 Build 0)  -->
<svg version="1.1" id="Layer_1" focusable="false" xmlns="http://www.w3.org/2000/svg" xmlns:xlink="http://www.w3.org/1999/xlink"
	 x="0px" y="0px" viewBox="0 0 100 100" style="enable-background:new 0 0 100 100;" xml:space="preserve">
<style type="text/css">
	.st0{fill:#0073DE;}
</style>
<path class="st0" d="M50,72.5c-11.9,0-21.4-9.2-22.3-20.8L11.3,39c-2.2,2.7-4.1,5.6-5.7,8.7c-0.7,1.4-0.7,3.1,0,4.6
	C14,68.8,30.8,80,50,80c4.2,0,8.3-0.6,12.2-1.6l-8.1-6.3C52.7,72.3,51.4,72.5,50,72.5z M99,81.6L81.8,68.2c5.2-4.4,9.6-9.8,12.7-16
	c0.7-1.4,0.7-3.1,0-4.6C86,31.2,69.2,20,50,20c-8,0-16,2-23,5.9L7.1,10.5C6,9.7,4.4,9.9,3.6,11l0,0l-3.1,4C-0.3,16-0.1,17.6,1,18.4
	l91.9,71c1.1,0.8,2.7,0.7,3.5-0.4l0,0l3.1-4C100.3,84,100.1,82.4,99,81.6z M70.3,59.4l-6.1-4.7c0.5-1.5,0.8-3.1,0.8-4.6
	c0.1-8.2-6.4-14.9-14.6-15c-1.5,0-2.9,0.2-4.3,0.6c0.9,1.3,1.5,2.8,1.5,4.4c0,0.5-0.1,1-0.2,1.6l-11.5-8.9c4-3.3,9-5.2,14.2-5.2
	c12.4,0,22.5,10.1,22.5,22.5c0,0,0,0,0,0C72.5,53.4,71.7,56.5,70.3,59.4L70.3,59.4z"/>
</svg>
