<?xml version="1.0" encoding="utf-8"?>
<!-- Generator: Adobe Illustrator 21.0.0, SVG Export Plug-In . SVG Version: 6.00 Build 0)  -->
<svg version="1.1" id="Layer_1" xmlns="http://www.w3.org/2000/svg" xmlns:xlink="http://www.w3.org/1999/xlink" x="0px" y="0px"
	 viewBox="0 0 470 315" style="enable-background:new 0 0 470 315;" xml:space="preserve">
<style type="text/css">
	.st0{fill:#1D345F;fill-opacity:0;}
	.st1{fill:#13BA42;}
	.st2{fill:#008C24;}
	.st3{fill:#F58633;}
	.st4{fill:#5FBEFF;}
	.st5{fill:none;stroke:#D4FFF7;stroke-width:3.9266;stroke-miterlimit:10;}
	.st6{fill:none;stroke:#F58633;stroke-width:3.9266;stroke-miterlimit:10;}
	.st7{fill:#D3D3D3;}
	.st8{fill:#8C8C8C;}
	.st9{fill:#553E93;}
	.st10{fill:#66192D;}
	.st11{fill:#FFB850;}
	.st12{fill:#FFFFFF;}
	.st13{fill:#FFFFFF;stroke:#FFFFFF;stroke-width:0.5;stroke-miterlimit:10;}
	.st14{fill:#F18C7E;}
	.st15{fill:#FF443C;}
	.st16{fill:#FDAD9B;}
	.st17{fill:#055A93;}
	.st18{fill:#F22525;}
</style>
<rect class="st0" width="470" height="315"/>
<path class="st1" d="M10.8,243.7c0.8,7.7,11.2,6,18,11.8c6.9,5.8,0.1,13.6,15.8,15.3c9.7,1,9-3,18.6,6.9c8.5,8.8,10-5.7,19.5-3.4
	c12.2,2.9,13.2-21.1,1.9-25.8s-16.8,1.9-18.8-8.2c-2.1-10.1-9.7-13.9-19.3-11.6c-11.9,2.8-10.2,13.2-16.4,7.5
	C24,230.4,9.7,233.4,10.8,243.7z"/>
<path class="st2" d="M99.4,275.2c-34.4-26.6-74.8-30.7-75.2-30.8c-1.5-0.1-1.4-2,0.2-1.9c0.4,0,41.6,4.3,76.4,31.2L99.4,275.2z"/>
<path class="st1" d="M50.2,217.1c-2,4.9,4.8,7.3,7,13c2.3,5.7-3.8,10.6,5.2,16.7c5.5,3.8,7.8-3.4,13,3.1c5.2,6.5,2.7,8.4,7.3,10.1
	c8.1,3,16.6-9.6,11.3-16c-5.3-6.5-12.5-4.2-10.4-10.9c2-6.8,2.7-9.6-3.8-11.4c-8.1-2.2-13.7,2.8-15.5-2.7
	C62.5,213.4,52.8,210.6,50.2,217.1z"/>
<path class="st2" d="M99.4,275.2l1.4-1.2c-12.2-27.6-41.8-52.9-42-53.1c-1-0.7-1.7,0.4-0.7,1.1C58.3,222.1,87.3,248,99.4,275.2z"/>
<g>
	<rect x="355.1" y="41.6" class="st3" width="1.4" height="1"/>
	<path class="st3" d="M356.5,81.3h-1.4v-2.1h1.4V81.3z M356.5,77h-1.4v-2.1h1.4V77z M356.5,72.7h-1.4v-2.1h1.4V72.7z M356.5,68.4
		h-1.4v-2.1h1.4V68.4z M356.5,64.1h-1.4V62h1.4V64.1z M356.5,59.9h-1.4v-2.1h1.4V59.9z M356.5,55.6h-1.4v-2.1h1.4V55.6z M356.5,51.3
		h-1.4v-2.1h1.4V51.3z M356.5,47h-1.4v-2.1h1.4V47z"/>
	<rect x="355.1" y="83.5" class="st3" width="1.4" height="1"/>
</g>
<g>
	<rect x="344.2" y="41.6" class="st3" width="1.2" height="1"/>
	<path class="st3" d="M102,133.5h-1.2v-2.1h1.2V133.5z M102,129.4l-1.2-0.1c0-0.7,0.2-1.5,0.3-2.2l1.1,0.4
		C102.1,128.2,102,128.8,102,129.4z M102.9,125.8l-1-0.6c0.3-0.6,0.6-1.3,1-1.8l0.9,0.9C103.4,124.6,103.1,125.2,102.9,125.8z
		 M104.9,122.8l-0.7-1.1c0.5-0.5,1-0.9,1.5-1.2l0.5,1.2C105.7,122,105.3,122.4,104.9,122.8z M107.7,121l-0.3-1.3
		c0.6-0.2,1.2-0.4,1.8-0.4l0.1,1.4C108.8,120.7,108.2,120.8,107.7,121z M335,120.6h-1.7v-1.4h1.7V120.6z M331.5,120.6h-1.7v-1.4h1.7
		V120.6z M328,120.6h-1.7v-1.4h1.7V120.6z M324.5,120.6h-1.7v-1.4h1.7V120.6z M321.1,120.6h-1.7v-1.4h1.7V120.6z M317.6,120.6h-1.7
		v-1.4h1.7V120.6z M314.1,120.6h-1.7v-1.4h1.7V120.6z M310.6,120.6h-1.7v-1.4h1.7V120.6z M307.2,120.6h-1.7v-1.4h1.7V120.6z
		 M303.7,120.6H302v-1.4h1.7V120.6z M300.2,120.6h-1.7v-1.4h1.7V120.6z M296.8,120.6H295v-1.4h1.7L296.8,120.6L296.8,120.6z
		 M293.3,120.6h-1.7v-1.4h1.7V120.6z M289.8,120.6h-1.7v-1.4h1.7V120.6z M286.3,120.6h-1.7v-1.4h1.7V120.6z M282.9,120.6h-1.7v-1.4
		h1.7V120.6z M279.4,120.6h-1.7v-1.4h1.7V120.6z M275.9,120.6h-1.7v-1.4h1.7V120.6z M272.4,120.6h-1.7v-1.4h1.7V120.6z M269,120.6
		h-1.7v-1.4h1.7V120.6z M265.5,120.6h-1.7v-1.4h1.7V120.6z M262,120.6h-1.7v-1.4h1.7V120.6z M258.6,120.6h-1.7v-1.4h1.7V120.6z
		 M255.1,120.6h-1.7v-1.4h1.7V120.6z M251.6,120.6h-1.7v-1.4h1.7V120.6z M248.1,120.6h-1.7v-1.4h1.7V120.6z M244.7,120.6H243v-1.4
		h1.7V120.6z M241.2,120.6h-1.7v-1.4h1.7V120.6z M237.7,120.6H236v-1.4h1.7V120.6z M234.2,120.6h-1.7v-1.4h1.7V120.6z M230.8,120.6
		H229v-1.4h1.7v1.4H230.8z M227.3,120.6h-1.7v-1.4h1.7V120.6z M223.8,120.6h-1.7v-1.4h1.7V120.6z M220.4,120.6h-1.7v-1.4h1.7V120.6z
		 M216.9,120.6h-1.7v-1.4h1.7V120.6z M213.4,120.6h-1.7v-1.4h1.7V120.6z M209.9,120.6h-1.7v-1.4h1.7V120.6z M206.5,120.6h-1.7v-1.4
		h1.7V120.6z M203,120.6h-1.7v-1.4h1.7V120.6z M199.5,120.6h-1.7v-1.4h1.7V120.6z M196.1,120.6h-1.7v-1.4h1.7V120.6z M192.6,120.6
		h-1.7v-1.4h1.7V120.6z M189.1,120.6h-1.7v-1.4h1.7V120.6z M185.6,120.6h-1.7v-1.4h1.7V120.6z M182.2,120.6h-1.7v-1.4h1.7V120.6z
		 M178.7,120.6H177v-1.4h1.7V120.6z M175.2,120.6h-1.7v-1.4h1.7V120.6z M171.7,120.6H170v-1.4h1.7V120.6z M168.3,120.6h-1.7v-1.4
		h1.7V120.6z M164.8,120.6h-1.7v-1.4h1.7V120.6z M161.3,120.6h-1.7v-1.4h1.7V120.6z M157.9,120.6h-1.7v-1.4h1.7V120.6z M154.4,120.6
		h-1.7v-1.4h1.7V120.6z M150.9,120.6h-1.7v-1.4h1.7V120.6z M147.4,120.6h-1.7v-1.4h1.7V120.6z M144,120.6h-1.7v-1.4h1.7V120.6z
		 M140.5,120.6h-1.7v-1.4h1.7V120.6z M137,120.6h-1.7v-1.4h1.7V120.6z M133.5,120.6h-1.7v-1.4h1.7V120.6z M130.1,120.6h-1.7v-1.4
		h1.7V120.6z M126.6,120.6h-1.7v-1.4h1.7V120.6z M123.1,120.6h-1.7v-1.4h1.7V120.6z M119.7,120.6H118v-1.4h1.7V120.6z M116.2,120.6
		h-1.7v-1.4h1.7V120.6z M112.7,120.6H111v-1.4h1.7V120.6z M336.7,120.5l-0.1-1.4c0.5,0,1.1-0.2,1.6-0.3l0.3,1.3
		C338,120.4,337.3,120.5,336.7,120.5z M340.3,119.4l-0.5-1.2c0.5-0.3,0.9-0.6,1.4-1l0.7,1.1C341.3,118.6,340.8,119,340.3,119.4z
		 M343.2,116.7l-0.9-0.9c0.3-0.5,0.7-1,0.9-1.6l1,0.7C343.9,115.5,343.6,116.1,343.2,116.7z M344.9,112.8l-1.1-0.4
		c0.2-0.6,0.3-1.2,0.3-1.9l1.2,0.1C345.2,111.4,345.1,112.1,344.9,112.8z M345.3,108.6h-1.2v-2.1h1.2V108.6z M345.3,104.4h-1.2v-2.1
		h1.2V104.4z M345.3,100.3h-1.2v-2.1h1.2V100.3z M345.3,96.2h-1.2v-2.1h1.2V96.2z M345.3,92.1h-1.2V90h1.2V92.1z M345.3,88h-1.2
		v-2.1h1.2V88z M345.3,83.8h-1.2v-2.1h1.2V83.8z M345.3,79.7h-1.2v-2.1h1.2V79.7z M345.3,75.6h-1.2v-2.1h1.2V75.6z M345.3,71.5h-1.2
		v-2.1h1.2V71.5z M345.3,67.4h-1.2v-2.1h1.2V67.4z M345.3,63.3h-1.2v-2.1h1.2V63.3z M345.3,59.1h-1.2V57h1.2V59.1z M345.3,55h-1.2
		v-2h1.2V55z M345.3,50.9h-1.2v-2.1h1.2V50.9z M345.3,46.8h-1.2v-2.1h1.2V46.8z"/>
	<rect x="100.8" y="135.6" class="st3" width="1.2" height="1"/>
</g>
<g>
	<rect x="335.4" y="41.6" class="st3" width="1.4" height="1"/>
	<path class="st3" d="M336.8,64h-1.4v-2.1h1.4V64z M336.8,59.8h-1.4v-2.1h1.4V59.8z M336.8,55.5h-1.4v-2.1h1.4V55.5z M336.8,51.2
		h-1.4v-2.1h1.4V51.2z M336.8,46.9h-1.4v-2.1h1.4V46.9z"/>
	<polygon class="st3" points="337.1,67.9 335.4,67.9 335.4,66.2 336.8,66.2 336.8,66.5 337.1,66.5 	"/>
	<path class="st3" d="M386.5,128.3h-1.4v-2h1.4V128.3z M386.5,124.3h-1.4v-2h1.4V124.3z M386.5,120.2h-1.4v-2h1.4V120.2z
		 M386.5,116.1h-1.4v-2h1.4V116.1z M386.5,112h-1.4v-2h1.4V112z M386.5,107.9h-1.4v-2h1.4V107.9z M386.5,103.8h-1.4v-2h1.4V103.8z
		 M386.5,99.7h-1.4v-2h1.4V99.7z M386.5,95.6h-1.4v-2h1.4V95.6z M386.5,91.5h-1.4v-2h1.4V91.5z M386.5,87.5h-1.4v-2h1.4V87.5z
		 M386.5,83.4h-1.4v-2h1.4V83.4z M386.5,79.3h-1.4v-2h1.4V79.3z M385.1,75.2c0-0.6-0.1-1.2-0.3-1.8l1.3-0.4c0.2,0.7,0.3,1.4,0.4,2.2
		L385.1,75.2z M384.1,71.7c-0.3-0.5-0.7-1-1.1-1.5l1-1c0.5,0.5,1,1.1,1.3,1.7L384.1,71.7z M381.5,69c-0.5-0.3-1.1-0.6-1.7-0.8
		l0.4-1.3c0.7,0.2,1.4,0.5,2,0.9L381.5,69z M377.9,67.9c-0.1,0-0.3,0-0.4,0h-1.6v-1.4h1.6c0.2,0,0.4,0,0.5,0L377.9,67.9z
		 M373.9,67.9h-2v-1.4h2V67.9z M369.8,67.9h-2v-1.4h2V67.9z M365.7,67.9h-2v-1.4h2V67.9z M361.6,67.9h-2v-1.4h2V67.9z M357.5,67.9
		h-2v-1.4h2V67.9z M353.5,67.9h-2v-1.4h2V67.9z M349.4,67.9h-2v-1.4h2V67.9z M345.3,67.9h-2v-1.4h2V67.9z M341.2,67.9h-2v-1.4h2
		V67.9z"/>
	<rect x="385.1" y="130.4" class="st3" width="1.4" height="1"/>
</g>
<g>
	<path class="st4" d="M339.6,41.5c0-0.4,0-0.7,0-1.1c0-7.5-6.1-13.6-13.6-13.6s-13.6,6.1-13.6,13.6c0,0.4,0,0.7,0,1.1H339.6z"/>
	<path class="st4" d="M384.2,41.5c0-0.4,0-0.7,0-1.1c0-7.5-6.1-13.6-13.6-13.6S357,32.9,357,40.4c0,0.4,0,0.7,0,1.1H384.2z"/>
	<path class="st4" d="M368.6,41.5c0.1-0.8,0.2-1.7,0.2-2.5c0-11-8.9-19.9-19.9-19.9S329,28,329,39c0,0.9,0.1,1.7,0.2,2.5H368.6z"/>
</g>
<g>
	<path class="st5" d="M204,67.4c1.4-5.6,1.6-11.2,0.8-16.5l1.7-0.3l3.4-0.5l0,0c-0.9-6.1-3-12-6.1-17.2l-4.4,2.6
		c-2.8-4.7-6.6-8.9-11.1-12.3l3.1-4.2c-4.8-3.6-10.4-6.3-16.5-7.8l-1.3,5c-5.6-1.4-11.2-1.6-16.5-0.8l-0.8-5.1
		c-6.1,0.9-12,3-17.2,6.1l2.6,4.4c-4.7,2.8-8.9,6.6-12.3,11.1l-4.1-3.1c-3.6,4.8-6.3,10.4-7.8,16.5l5,1.3
		c-1.4,5.6-1.6,11.2-0.8,16.5l-3.6,0.5l-1.5,0.2l0,0c0.9,6.1,3,12,6.1,17.2l4.4-2.6c2.8,4.7,6.6,8.9,11.1,12.3l-3.1,4.2
		c4.8,3.6,10.3,6.3,16.5,7.8l1.3-5c5.6,1.4,11.2,1.6,16.6,0.8l0.6,4l0.2,1.1c6.1-0.9,12-3,17.2-6.1l-2.6-4.4
		c4.7-2.8,8.9-6.6,12.3-11.1l4.1,3.1c3.6-4.8,6.3-10.4,7.8-16.5L204,67.4z M157.6,79.2c-12.2-3.1-19.6-15.5-16.5-27.8
		c3.1-12.2,15.5-19.6,27.8-16.5c12.2,3.1,19.6,15.5,16.5,27.7C182.2,74.9,169.8,82.3,157.6,79.2z"/>
</g>
<g>
	<path class="st5" d="M102.4,73.9c-1.9-2.4-4.2-4.2-6.7-5.6l0.4-0.8l0.9-1.6l0,0c-2.9-1.6-6-2.6-9.2-2.9l-0.3,2.7
		c-2.9-0.3-5.8-0.1-8.7,0.7L78,63.8c-3,0.9-5.9,2.3-8.5,4.4l1.7,2.1c-2.4,1.9-4.2,4.2-5.6,6.7l-2.4-1.3c-1.6,2.9-2.5,6-2.9,9.2
		l2.7,0.3c-0.3,2.9-0.1,5.8,0.7,8.7l-2.6,0.8c0.9,3,2.3,5.9,4.4,8.5l2.1-1.7c1.9,2.4,4.2,4.2,6.7,5.6l-0.9,1.7l-0.4,0.7l0,0
		c2.9,1.6,6,2.5,9.2,2.9l0.3-2.7c2.9,0.3,5.9,0.1,8.7-0.8l0.8,2.6c3-0.9,5.9-2.3,8.5-4.4l-1.7-2.1c2.4-1.9,4.3-4.2,5.6-6.7l1.9,1
		l0.5,0.3c1.6-2.9,2.5-6,2.9-9.2l-2.7-0.3c0.3-2.9,0.1-5.9-0.7-8.7l2.6-0.8c-0.9-3-2.3-5.9-4.4-8.5L102.4,73.9z M92.6,97.1
		c-5.2,4.1-12.8,3.3-16.9-1.9c-4.1-5.2-3.3-12.8,1.9-16.9c5.2-4.1,12.8-3.3,16.9,1.9S97.8,92.9,92.6,97.1z"/>
</g>
<g>
	<path class="st6" d="M436.9,240.4c-2.2-2.7-4.8-4.9-7.7-6.5l0.5-0.9l1-1.8l0,0c-3.3-1.8-6.9-2.9-10.6-3.4l-0.4,3.1
		c-3.3-0.4-6.7-0.1-10,0.9l-0.9-3c-3.5,1-6.9,2.7-9.9,5.1l2,2.5c-2.7,2.2-4.9,4.8-6.5,7.7l-2.8-1.5c-1.8,3.3-2.9,6.9-3.4,10.6
		l3.1,0.4c-0.4,3.3-0.1,6.7,0.9,10l-3,0.9c1,3.5,2.7,6.9,5.1,9.9l2.5-2c2.2,2.7,4.8,4.9,7.7,6.5l-1.1,1.9l-0.4,0.8l0,0
		c3.3,1.8,6.9,2.9,10.6,3.4l0.4-3.1c3.3,0.4,6.8,0.1,10-0.9l0.9,3c3.5-1,6.8-2.7,9.9-5.1l-2-2.5c2.7-2.2,4.9-4.8,6.5-7.7l2.1,1.2
		l0.6,0.3c1.8-3.3,2.9-6.9,3.3-10.6l-3.1-0.4c0.4-3.3,0.1-6.8-0.9-10l3-0.9c-1-3.5-2.7-6.8-5.1-9.8L436.9,240.4z M425.6,267.2
		c-6,4.8-14.7,3.8-19.5-2.2s-3.8-14.7,2.2-19.5s14.7-3.8,19.5,2.2S431.6,262.4,425.6,267.2z"/>
</g>
<path d="M437.4,308.4H50.7c-1.3,0-2.3-1-2.3-2.3l0,0c0-1.3,1-2.3,2.3-2.3h386.7c1.3,0,2.3,1,2.3,2.3l0,0
	C439.7,307.3,438.6,308.4,437.4,308.4z"/>
<path d="M79.2,261.3V110.4c0-13.6,11.3-24.7,25-24.7h277.3c13.8,0,25,11.1,25,24.6V266c0,13.6-11.3,24.6-25,24.6H109
	C92.6,290.7,79.2,277.6,79.2,261.3z"/>
<g>
	<path class="st3" d="M103.9,92.8h277c9.1,0,16.4,7.2,16.4,16.1v157.7c0,8.9-7.4,16.1-16.4,16.1h-277c-9.1,0-16.4-7.2-16.4-16.1
		V108.9C87.5,100,94.9,92.8,103.9,92.8z"/>
</g>
<path class="st7" d="M430.2,292.1v5.1c0,0.3,0,0.5,0,0.8c-0.4,3.3-3.2,5.8-6.5,5.8h-361c-3.4,0-6.2-2.5-6.5-5.8c0-0.2,0-0.5,0-0.8
	v-5.1H430.2z"/>
<path class="st8" d="M430.2,298c-0.4,3.3-3.2,5.8-6.5,5.8h-361c-3.4,0-6.2-2.5-6.5-5.8H430.2z"/>
<g>
	<g>
		<g>
			<path class="st9" d="M191.5,151.5c0,0-1.8-4.9,0.3-8.3c2.1-3.4,9.6-8.2,7.5-12.4c-2.1-4.2-7.6-4-9.4-1.6c-1.9,2.4-0.4,4.5-1.8,5
				c-1.4,0.5-9.8,2-9.8-3c0-4.9,4.6-12.4,11.7-13.5c7.2-1.1,16.8-2.3,20.1,6.9c3.3,9.1,0.2,13.3-4.6,16.4c-4.8,3.1-1.7,8.3-3.5,9.3
				C200.2,151.2,192,153.1,191.5,151.5z"/>
		</g>
		<g>
			<path class="st9" d="M190.9,161.2c0.1-4,2-6.7,5.5-7.1c3.5-0.4,6.6,1,8.1,5.4c1.1,3.3-3,6.8-6.5,7.3
				C194.6,167.1,190.9,164.7,190.9,161.2z"/>
		</g>
	</g>
	<g>
		<g>
			<path class="st9" d="M208.5,125.1c-1.5-4.1-4.3-6.5-8.6-7.3c-3.7-0.7-7.9-0.2-11.5,0.4c-0.4,0.1-0.9,0.2-1.3,0.3
				c-6.5,1.8-10.5,8.7-10.5,13.3c0,1.1,0.4,2,1.3,2.6c1.3,0.9,3.3,1.1,4.8,1c1.6-0.1,3.2-0.4,3.8-0.6c0.3-0.1,0.4-0.2,0.5-0.4
				c0.2-0.3,0.2-0.8,0.2-1.3c0-0.9,0.1-2.1,1.1-3.3c0.6-0.7,1.5-1.2,2.5-1.5c0.7-0.2,1.4-0.2,2.1-0.1c2.1,0.2,3.8,1.4,4.8,3.2
				c1.4,2.8-1.7,6-4.4,8.8c-1.2,1.3-2.4,2.4-3,3.5c-2.1,3.3-0.3,8.2-0.3,8.4c0.1,0.2,0.2,0.3,0.5,0.5c0.3,0.1,0.8,0.2,1.4,0.2
				c2.7,0,7.4-1.3,8.6-2c0,0,0.1,0,0.1-0.1c0.6-0.4,0.6-1.4,0.5-2.6c-0.1-2-0.1-4.8,2.8-6.7c2.8-1.8,4.5-3.7,5.3-5.9
				C210.3,132.8,210,129.4,208.5,125.1z M209.1,135.6c-0.8,2.3-2.5,4.1-5.3,5.9c-3,1.9-2.9,4.7-2.9,6.7c0,1.2,0.1,2.2-0.6,2.5
				c-0.1,0.1-0.2,0.1-0.4,0.2c-1.7,0.8-5.8,1.7-8.2,1.7c-0.6,0-1.1-0.1-1.4-0.2c-0.2-0.1-0.4-0.2-0.4-0.4l0,0c0,0-1.8-5,0.3-8.3
				c0.6-1,1.8-2.2,3-3.5c2.8-2.8,5.9-6,4.4-8.9c-1-1.9-2.7-3.1-4.8-3.3c-0.2,0-0.4,0-0.6,0c-0.4,0-0.8,0-1.2,0.1
				c-1.2,0.2-2.2,0.8-2.9,1.6c-1,1.3-1.1,2.5-1.1,3.4c0,0.6,0,1-0.3,1.3c-0.1,0.1-0.2,0.2-0.4,0.3c-0.6,0.2-2.2,0.5-3.8,0.6
				c-1.5,0.1-3.5-0.1-4.8-1c-0.8-0.6-1.2-1.4-1.2-2.5c0-4.4,3.7-11,9.8-13c0.6-0.2,1.3-0.4,1.9-0.5c8-1.3,16.9-1.9,20,6.8
				C209.9,129.4,210.2,132.8,209.1,135.6z"/>
		</g>
		<g>
			<path class="st9" d="M203,160c-1.3-4-4.2-5.9-8.1-5.4c-0.2,0-0.4,0.1-0.6,0.1c-1.5,0.3-2.7,1-3.5,2.2c-0.9,1.2-1.4,2.9-1.5,4.9
				c0,1.5,0.6,2.9,1.8,3.9c1.2,1.1,2.9,1.7,4.5,1.7c0.3,0,0.6,0,0.8-0.1c0.9-0.1,1.9-0.4,2.8-0.9c1.3-0.7,2.4-1.7,3.1-2.8
				C203.1,162.4,203.3,161.2,203,160z M202.3,163.6c-0.8,1.2-2.1,2.3-3.5,3c-0.8,0.4-1.5,0.6-2.3,0.7c-1.9,0.2-3.9-0.4-5.3-1.6
				c-1.2-1-1.8-2.4-1.8-3.8c0-2,0.5-3.6,1.5-4.9c0.8-1,1.8-1.7,3.1-2.1c0.3-0.1,0.6-0.1,0.9-0.2c0.4-0.1,0.8-0.1,1.2-0.1
				c3.3,0,5.7,1.9,6.8,5.4C203.2,161.2,203,162.4,202.3,163.6z"/>
		</g>
	</g>
</g>
<g>
	<g>
		<g>
			<path class="st9" d="M249.1,134.8c0,0-0.5-4.2,1.8-6.5c2.3-2.3,9-4.7,8.1-8.3c-0.9-3.6-5.2-4.5-7.1-3s-1.1,3.5-2.3,3.6
				c-1.2,0.1-8.1-0.3-7.1-4.1c0.9-3.9,5.8-8.9,11.7-8.4c5.8,0.4,13.6,1.3,14.5,9.1c0.9,7.8-2.3,10.4-6.6,12
				c-4.3,1.5-2.9,6.2-4.4,6.6C255.9,136.1,249.1,136.2,249.1,134.8z"/>
		</g>
		<g>
			<path class="st9" d="M246.8,142.3c0.8-3.1,2.8-4.9,5.6-4.6c2.8,0.3,5,2,5.3,5.7c0.3,2.8-3.6,4.8-6.4,4.5
				C248.6,147.6,246.1,145,246.8,142.3z"/>
		</g>
	</g>
	<g>
		<g>
			<path class="st10" d="M267.2,117.3c-0.4-3.5-2.2-5.9-5.4-7.3c-2.8-1.2-6.1-1.6-9.1-1.8c-0.4,0-0.7,0-1.1,0
				c-5.4,0.2-9.8,4.9-10.7,8.5c-0.2,0.9,0,1.6,0.5,2.3c1.5,1.8,5.6,2,6.7,1.9c0.2,0,0.4-0.1,0.5-0.2c0.2-0.2,0.3-0.5,0.4-0.9
				c0.2-0.7,0.5-1.6,1.5-2.4c0.6-0.5,1.4-0.7,2.2-0.7c0.5,0,1.1,0.1,1.7,0.3c1.6,0.5,2.7,1.8,3.1,3.4c0.6,2.5-2.4,4.4-5.1,6.1
				c-1.2,0.8-2.3,1.5-3,2.2c-1.2,1.2-1.6,2.9-1.7,4.1c-0.2,1.3,0,2.3,0,2.4c0,0.2,0.1,0.3,0.3,0.4c0.8,0.5,2.9,0.8,4.8,0.8
				c1.4,0,2.8-0.1,3.3-0.3c0,0,0,0,0.1,0c0.6-0.2,0.7-1,0.9-1.9c0.3-1.6,0.8-3.7,3.5-4.7c2.6-0.9,4.2-2,5.3-3.7
				C267.2,123.6,267.6,120.9,267.2,117.3z M265.8,125.6c-1.1,1.6-2.7,2.7-5.2,3.6c-2.7,1-3.2,3.1-3.5,4.7c-0.2,1-0.4,1.7-0.9,1.9
				c-0.1,0-0.2,0.1-0.4,0.1c-1.8,0.3-6.6,0.3-7.8-0.5c-0.2-0.1-0.2-0.2-0.2-0.4v0c0,0-0.1-1.1,0-2.4c0.1-1.2,0.6-2.9,1.7-4.1
				c0.7-0.7,1.8-1.4,3-2.2c2.7-1.7,5.7-3.6,5.1-6.2c-0.4-1.7-1.6-2.9-3.2-3.5c-0.5-0.2-1-0.3-1.4-0.3c-0.1,0-0.1,0-0.2,0
				c-0.9,0-1.7,0.2-2.3,0.7c-1,0.8-1.3,1.8-1.5,2.5c-0.1,0.4-0.2,0.8-0.4,1c-0.1,0.1-0.2,0.1-0.4,0.1c-1,0.1-5.1-0.1-6.6-1.9
				c-0.5-0.6-0.7-1.3-0.5-2.2c0.8-3.4,4.9-7.9,10-8.4c0,0,0,0,0,0c0.5,0,1.1-0.1,1.6,0c6.5,0.5,13.6,1.6,14.4,9
				C267.5,120.9,267.1,123.6,265.8,125.6z"/>
		</g>
		<g>
			<path class="st10" d="M256.4,143.6c-0.3-3.4-2.2-5.4-5.4-5.7c-0.2,0-0.3,0-0.5,0c0,0,0,0,0,0c-2.5-0.1-4.5,1.6-5.2,4.6
				c-0.3,1.1,0,2.3,0.7,3.4c0.9,1.3,2.4,2.1,3.9,2.3c0.2,0,0.4,0,0.6,0c0.6,0,1.2-0.1,1.8-0.2c1.1-0.3,2.2-0.9,3-1.6
				C256.1,145.5,256.5,144.6,256.4,143.6z M255.3,146.2c-0.8,0.8-2.1,1.4-3.3,1.7c-0.7,0.1-1.3,0.2-1.9,0.1c-1.5-0.2-3-1-3.9-2.3
				c-0.7-1-1-2.2-0.7-3.3c0.4-1.5,1.1-2.7,2-3.5c0.8-0.7,1.8-1,2.8-1c0,0,0.1,0,0.1,0c0.2,0,0.4,0,0.6,0c3.1,0.3,5,2.3,5.3,5.6
				C256.5,144.5,256.1,145.5,255.3,146.2z"/>
		</g>
	</g>
</g>
<g>
	<g>
		<g>
			<path class="st11" d="M278,170c0,0-0.2-4.2,2.2-6.3c2.4-2.1,9.3-4,8.7-7.7c-0.6-3.7-4.8-4.9-6.9-3.5c-2,1.4-1.4,3.4-2.6,3.4
				c-1.2,0-8-0.9-6.8-4.7c1.2-3.8,6.5-8.4,12.3-7.6c5.8,0.9,13.4,2.3,13.8,10.1c0.3,7.8-3.1,10.2-7.5,11.4c-4.4,1.2-3.3,5.9-4.9,6.3
				S277.9,171.3,278,170z"/>
		</g>
		<g>
			<path class="st11" d="M275.1,177.3c1-3,3.2-4.6,5.9-4.1c2.8,0.5,4.8,2.3,4.9,6.1c0,2.8-3.9,4.5-6.7,4S274.3,180,275.1,177.3z"/>
		</g>
	</g>
	<g>
		<g>
			<path class="st11" d="M297.3,153.9c-0.1-3.5-1.7-6-4.8-7.7c-2.7-1.4-6-2-8.9-2.5c-0.4-0.1-0.7-0.1-1.1-0.1
				c-5.4-0.2-10.2,4.2-11.3,7.7c-0.3,0.9-0.2,1.6,0.3,2.3c1.4,1.9,5.5,2.4,6.5,2.4c0.2,0,0.4-0.1,0.5-0.2c0.2-0.2,0.3-0.5,0.5-0.9
				c0.3-0.7,0.6-1.6,1.6-2.3c0.6-0.4,1.4-0.6,2.3-0.5c0.5,0,1.1,0.2,1.6,0.4c1.6,0.7,2.6,2,2.9,3.6c0.4,2.5-2.7,4.2-5.5,5.7
				c-1.2,0.7-2.4,1.3-3.2,2c-1.3,1.1-1.8,2.8-2,4c-0.3,1.3-0.2,2.3-0.2,2.4c0,0.2,0.1,0.3,0.2,0.5c1,0.8,4.4,1.2,6.6,1.2
				c0.7,0,1.2,0,1.5-0.1c0,0,0,0,0.1,0c0.6-0.2,0.8-0.9,1-1.8c0.4-1.6,1.1-3.7,3.8-4.4c2.6-0.7,4.3-1.7,5.5-3.3
				C296.8,160.2,297.5,157.5,297.3,153.9z M295.3,162c-1.2,1.5-2.9,2.5-5.5,3.2c-2.8,0.8-3.4,2.9-3.8,4.5c-0.3,0.9-0.5,1.7-1.1,1.8
				c-0.1,0-0.2,0-0.4,0.1c-1.9,0.2-6.6-0.2-7.7-1.1c-0.2-0.1-0.2-0.3-0.2-0.4v0c0,0,0-1.1,0.2-2.4c0.2-1.2,0.8-2.8,2-3.9
				c0.7-0.6,1.9-1.3,3.2-1.9c2.8-1.5,6-3.2,5.6-5.8c-0.3-1.7-1.3-3-2.9-3.7c-0.5-0.2-1-0.3-1.4-0.4h0c-0.2,0-0.4,0-0.5,0
				c-0.8,0-1.5,0.2-2,0.6c-1.1,0.7-1.4,1.7-1.7,2.3c-0.2,0.4-0.3,0.8-0.5,0.9c-0.1,0.1-0.2,0.1-0.4,0.1c-1,0-5.1-0.5-6.5-2.4
				c-0.5-0.6-0.6-1.4-0.3-2.2c1.1-3.4,5.5-7.5,10.6-7.6c0.5,0,1.1,0,1.6,0.1c6.5,1,13.4,2.6,13.7,10.1
				C297.4,157.5,296.8,160.2,295.3,162z"/>
		</g>
		<g>
			<path class="st11" d="M279.7,173.2c-0.2,0-0.3,0-0.5-0.1c-2.5-0.2-4.6,1.3-5.5,4.2c-0.4,1.1-0.2,2.3,0.4,3.4
				c0.8,1.3,2.2,2.3,3.7,2.6c0.3,0.1,0.7,0.1,1,0.1c0.4,0,0.9,0,1.3-0.1c1.2-0.2,2.3-0.7,3.1-1.4c0.9-0.7,1.3-1.6,1.3-2.6
				C284.6,175.9,282.9,173.8,279.7,173.2z M283.3,181.9c-0.9,0.8-2.2,1.3-3.4,1.5c-0.7,0.1-1.3,0.1-1.9,0c-1.5-0.3-2.9-1.2-3.7-2.5
				c-0.4-0.7-0.6-1.4-0.6-2.2c0-0.4,0.1-0.8,0.2-1.2c0.5-1.5,1.3-2.7,2.3-3.4c0.8-0.5,1.7-0.8,2.6-0.8c0.1,0,0.2,0,0.2,0
				c0.2,0,0.5,0,0.7,0.1c3.1,0.6,4.8,2.7,4.9,6C284.6,180.3,284.2,181.1,283.3,181.9z"/>
		</g>
	</g>
</g>
<g>
	<g>
		<g>
			<path class="st12" d="M294.7,129.8c0,0-0.1-2.6,1.4-3.8s5.6-2.4,5.3-4.6c-0.4-2.2-2.9-3-4.1-2.1c-1.2,0.8-0.8,2-1.6,2.1
				s-4.8-0.5-4.1-2.8c0.7-2.3,3.9-5.1,7.4-4.6c3.5,0.5,8.1,1.4,8.3,6.1c0.2,4.7-1.8,6.2-4.5,6.9c-2.7,0.7-2,3.6-3,3.8
				C298.8,130.9,294.7,130.6,294.7,129.8z"/>
		</g>
		<g>
			<path class="st12" d="M293,134.2c0.6-1.8,1.9-2.8,3.6-2.5c1.7,0.3,2.9,1.4,3,3.7c0,1.7-2.4,2.7-4.1,2.4S292.5,135.8,293,134.2z"
				/>
		</g>
	</g>
	<g>
		<g>
			<path class="st12" d="M306.4,120c-0.1-2.1-1-3.6-2.9-4.7c-1.6-0.9-3.6-1.2-5.4-1.5c-0.2,0-0.4-0.1-0.6-0.1c0,0,0,0,0,0
				c-3.3-0.1-6.1,2.5-6.8,4.6c-0.2,0.5-0.1,1,0.2,1.4c0.9,1.1,3.3,1.5,3.9,1.5c0.1,0,0.2,0,0.3-0.1c0.1-0.1,0.2-0.3,0.3-0.5
				c0.2-0.4,0.3-1,1-1.4c0.4-0.3,0.9-0.4,1.4-0.3c0.3,0,0.7,0.1,1,0.2c0.9,0.4,1.6,1.2,1.7,2.2c0.3,1.5-1.7,2.5-3.3,3.4
				c-0.8,0.4-1.5,0.8-1.9,1.2c-0.8,0.7-1.1,1.7-1.2,2.4c-0.2,0.8-0.1,1.4-0.1,1.4c0,0.1,0,0.2,0.1,0.3c0.6,0.5,2.7,0.7,4,0.7
				c0.4,0,0.7,0,0.9-0.1c0,0,0,0,0,0c0.3-0.1,0.5-0.6,0.6-1.1c0.3-0.9,0.6-2.2,2.3-2.7c1.6-0.4,2.6-1,3.3-2
				C306.1,123.8,306.5,122.2,306.4,120z M305.2,124.9c-0.7,0.9-1.7,1.5-3.3,2c-1.7,0.5-2.1,1.8-2.3,2.7c-0.2,0.6-0.3,1-0.6,1.1
				c-0.1,0-0.1,0-0.2,0c-1.1,0.1-4-0.1-4.7-0.7c-0.1-0.1-0.1-0.2-0.1-0.2v0c0,0,0-0.6,0.1-1.4c0.1-0.7,0.5-1.7,1.2-2.4
				c0.5-0.4,1.2-0.8,1.9-1.2c1.7-0.9,3.6-1.9,3.4-3.5c-0.2-1-0.8-1.8-1.8-2.2c-0.3-0.1-0.6-0.2-0.9-0.2c-0.1,0-0.2,0-0.3,0
				c-0.5,0-0.9,0.1-1.2,0.3c-0.7,0.4-0.9,1-1,1.4c-0.1,0.3-0.2,0.5-0.3,0.6c-0.1,0-0.1,0.1-0.2,0.1h0c-0.7,0-3-0.3-3.9-1.4
				c-0.3-0.4-0.4-0.8-0.2-1.3c0.6-2,3.3-4.6,6.4-4.6c0.3,0,0.6,0,1,0.1c3.9,0.6,8.1,1.6,8.3,6.1
				C306.5,122.2,306.1,123.8,305.2,124.9z"/>
		</g>
		<g>
			<path class="st12" d="M295.8,131.7c-0.1,0-0.2,0-0.3,0c-1.5-0.1-2.8,0.8-3.3,2.6c-0.2,0.7-0.1,1.4,0.3,2.1
				c0.5,0.8,1.3,1.4,2.3,1.6c0.2,0,0.4,0.1,0.6,0.1c0.3,0,0.5,0,0.8-0.1c0.7-0.1,1.4-0.4,1.9-0.9c0.5-0.5,0.8-1,0.8-1.6
				C298.7,133.4,297.7,132,295.8,131.7z M298,136.9c-0.5,0.5-1.3,0.8-2.1,0.9c-0.4,0.1-0.8,0.1-1.2,0c-0.9-0.2-1.8-0.7-2.2-1.5
				c-0.4-0.6-0.5-1.4-0.3-2c0.3-0.9,0.8-1.6,1.4-2c0.5-0.3,1-0.5,1.6-0.5c0,0,0.1,0,0.2,0c0.1,0,0.3,0,0.4,0
				c1.9,0.3,2.9,1.6,2.9,3.6C298.7,136,298.5,136.5,298,136.9z"/>
		</g>
	</g>
</g>
<g>
	<g>
		<g>
			<path class="st11" d="M188.7,204.9c0,0-2-2.9-1.3-5.5c0.8-2.6,4.9-7.1,2.7-9.5c-2.1-2.4-5.7-1.3-6.5,0.6c-0.8,1.9,0.5,3-0.3,3.6
				c-0.9,0.6-6.1,3-7-0.2c-0.9-3.3,0.8-9,5.4-11c4.5-2,10.7-4.4,14.4,1c3.8,5.4,2.5,8.7-0.2,11.6c-2.6,2.9,0.3,5.8-0.7,6.7
				C194.4,203.2,189.3,205.9,188.7,204.9z"/>
		</g>
		<g>
			<path class="st11" d="M190,211.4c-0.7-2.6,0.2-4.8,2.4-5.7c2.2-0.9,4.5-0.5,6.3,2.1c1.3,2-0.8,5-3,5.9
				C193.5,214.7,190.6,213.8,190,211.4z"/>
		</g>
	</g>
	<g>
		<g>
			<path class="st11" d="M195.3,184.6c-1.7-2.4-4-3.5-7-3.3c-2.6,0.2-5.2,1.3-7.5,2.3c-0.3,0.1-0.6,0.3-0.8,0.4
				c-4,2.3-5.4,7.6-4.6,10.6c0.2,0.7,0.6,1.2,1.3,1.5c1,0.4,2.4,0.1,3.3-0.2c1.1-0.3,2-0.8,2.4-1c0.2-0.1,0.2-0.2,0.3-0.4
				c0.1-0.2,0-0.5-0.1-0.9c-0.1-0.6-0.3-1.4,0.1-2.4c0.2-0.6,0.8-1.1,1.4-1.4c0.4-0.2,0.9-0.4,1.3-0.5c1.4-0.2,2.8,0.2,3.7,1.3
				c1.5,1.6,0,4.3-1.4,6.6c-0.6,1-1.2,2-1.4,2.8c-0.8,2.6,1.2,5.5,1.3,5.6c0.1,0.1,0.2,0.2,0.4,0.2c0.1,0,0.1,0,0.2,0
				c0.9,0,2.5-0.7,3.2-1.1c1.3-0.6,2.5-1.4,3-1.8c0,0,0,0,0,0c0.3-0.4,0.1-1-0.1-1.8c-0.4-1.3-0.9-3.1,0.7-4.9
				c1.6-1.7,2.3-3.2,2.5-4.8C197.8,189.3,197,187.1,195.3,184.6z M197.5,191.4c-0.2,1.6-0.9,3.1-2.5,4.8c-1.6,1.8-1.1,3.6-0.7,5
				c0.2,0.8,0.4,1.4,0.1,1.8c-0.1,0.1-0.1,0.1-0.2,0.2c-0.6,0.4-1.6,1.1-2.7,1.6c-1.5,0.8-2.7,1.1-3.3,1.1c-0.2,0-0.3-0.1-0.3-0.2
				l0,0c0,0-2-3-1.3-5.5c0.2-0.8,0.8-1.8,1.4-2.8c1.3-2.3,2.8-5,1.4-6.7c-0.8-0.9-1.9-1.4-3.1-1.4c-0.2,0-0.5,0-0.7,0.1
				c-0.4,0.1-0.8,0.2-1.2,0.4c-0.7,0.4-1.3,0.9-1.6,1.5c-0.4,1-0.3,1.8-0.1,2.4c0.1,0.4,0.1,0.7,0.1,0.9c0,0.1-0.1,0.2-0.2,0.3
				c-0.4,0.2-1.3,0.7-2.4,1c-1,0.3-2.3,0.6-3.3,0.2c-0.6-0.2-1.1-0.7-1.2-1.4c-0.8-2.9,0.5-7.9,4.2-10.3c0.4-0.2,0.8-0.5,1.2-0.6
				c5.1-2.3,10.8-4.2,14.4,1C197,187.1,197.7,189.4,197.5,191.4z"/>
		</g>
		<g>
			<path class="st11" d="M197.7,208.5c-1.6-2.4-3.8-3.1-6.3-2.1c-0.1,0.1-0.2,0.1-0.4,0.2c-1.5,0.7-2.3,2.1-2.3,3.9
				c0,0.5,0.1,1.1,0.2,1.7c0.2,1,0.9,1.8,1.9,2.3c0.6,0.3,1.4,0.5,2.1,0.5c0.6,0,1.2-0.1,1.8-0.3c0.6-0.2,1.2-0.6,1.7-1.1
				c0,0,0,0,0,0c0.7-0.7,1.3-1.5,1.6-2.4C198.3,210.1,198.2,209.2,197.7,208.5z M197.9,211c-0.3,1-1,1.9-1.8,2.6
				c-0.4,0.4-0.9,0.7-1.4,0.9c-1.2,0.5-2.6,0.4-3.8-0.1c-0.9-0.5-1.6-1.3-1.8-2.2c-0.3-1.3-0.3-2.5,0.1-3.5c0.3-0.8,0.9-1.5,1.7-1.9
				c0.2-0.1,0.4-0.2,0.6-0.3c2.5-1,4.7-0.3,6.2,2.1C198.1,209.3,198.2,210.1,197.9,211z"/>
		</g>
	</g>
</g>
<g>
	<g>
		<g>
			<path class="st12" d="M303.9,210.2c0,0,1-2.3,2.9-2.8s6.1,0.3,6.8-1.9s-1.3-3.9-2.8-3.7c-1.5,0.2-1.7,1.5-2.3,1.2
				s-4.1-2.6-2.5-4.3c1.7-1.7,5.8-2.8,8.7-0.8c2.9,2,6.7,4.8,4.8,9.2c-1.9,4.3-4.4,4.7-7.1,4.2c-2.7-0.5-3.4,2.3-4.3,2.1
				C307.1,213,303.6,210.9,303.9,210.2z"/>
		</g>
		<g>
			<path class="st12" d="M300.5,213.4c1.3-1.4,3-1.7,4.3-0.7c1.4,1,2,2.6,1,4.6c-0.7,1.5-3.3,1.4-4.7,0.4S299.3,214.6,300.5,213.4z"
				/>
		</g>
	</g>
	<g>
		<g>
			<path class="st12" d="M318.2,201.1c-1.1-1.5-2.7-2.7-4.2-3.7c-0.2-0.1-0.4-0.2-0.6-0.3c-2.9-1.6-6.6-0.4-8.2,1.2
				c-0.4,0.4-0.5,0.8-0.4,1.3c0.3,1.4,2.3,2.8,2.9,3c0.1,0.1,0.2,0.1,0.3,0c0.2,0,0.3-0.2,0.5-0.4c0.3-0.3,0.7-0.7,1.5-0.8
				c0.4-0.1,0.9,0.1,1.4,0.3c0.3,0.2,0.6,0.4,0.8,0.6c0.7,0.8,0.9,1.8,0.6,2.7c-0.4,1.5-2.6,1.6-4.5,1.6c-0.9,0-1.7,0.1-2.2,0.2
				c-1,0.3-1.7,1-2.2,1.6c-0.5,0.6-0.7,1.2-0.7,1.2c0,0.1,0,0.2,0,0.3c0.4,0.9,3.3,2.5,4.1,2.7c0,0,0,0,0,0c0,0,0,0,0,0
				c0.3,0,0.6-0.3,1-0.7c0.7-0.7,1.6-1.7,3.2-1.4c1.6,0.3,2.8,0.2,3.9-0.3c1.3-0.6,2.4-1.9,3.3-3.9
				C319.6,204.6,319.4,202.9,318.2,201.1z M318.7,206.6c-0.9,2-1.9,3.3-3.2,3.9c-1.1,0.5-2.2,0.6-3.8,0.3c-1.7-0.3-2.6,0.7-3.3,1.4
				c-0.4,0.4-0.7,0.8-1.1,0.7c-0.1,0-0.1,0-0.2-0.1c-1.1-0.4-3.5-1.9-3.9-2.7c0-0.1-0.1-0.2,0-0.3l0,0c0,0,0.3-0.6,0.7-1.2
				c0.4-0.6,1.2-1.3,2.1-1.6c0.6-0.2,1.4-0.2,2.2-0.2c1.9-0.1,4.1-0.1,4.6-1.7c0.3-1,0.1-2-0.6-2.8c-0.2-0.2-0.4-0.4-0.7-0.6
				c-0.4-0.2-0.7-0.4-1.1-0.4c-0.1,0-0.3,0-0.4,0c-0.8,0.1-1.2,0.5-1.5,0.8c-0.2,0.2-0.3,0.3-0.5,0.4c-0.1,0-0.2,0-0.2,0
				c-0.6-0.3-2.6-1.6-2.9-3c-0.1-0.5,0-0.9,0.4-1.3c1.5-1.6,5-2.6,7.8-1.3c0.3,0.1,0.6,0.3,0.8,0.5
				C317.2,199.7,320.6,202.4,318.7,206.6z"/>
		</g>
		<g>
			<path class="st12" d="M304.1,212.4c-0.1-0.1-0.2-0.1-0.2-0.2c-0.4-0.2-0.8-0.4-1.3-0.4c-1-0.1-2,0.3-2.9,1.3
				c-0.5,0.5-0.7,1.2-0.7,2c0.1,0.9,0.6,1.8,1.3,2.4c0.4,0.3,0.8,0.5,1.3,0.6c0.3,0.1,0.5,0.1,0.8,0.1c0.4,0,0.9,0,1.3-0.1
				c0.7-0.2,1.2-0.5,1.4-1.1C306,215.2,305.6,213.5,304.1,212.4z M305.1,217c-0.2,0.5-0.7,0.9-1.4,1c-0.7,0.2-1.5,0.1-2.3-0.1
				c-0.4-0.1-0.7-0.3-1-0.5c-0.8-0.6-1.2-1.4-1.3-2.4c-0.1-0.8,0.2-1.4,0.7-1.9c0.7-0.7,1.4-1.1,2.1-1.2c0.6-0.1,1.2,0,1.8,0.3
				c0.1,0.1,0.2,0.1,0.4,0.2C305.6,213.6,305.9,215.2,305.1,217z"/>
		</g>
	</g>
</g>
<g>
	<g>
		<g>
			<path class="st9" d="M308.9,172.3c0,0,1.4-2.1,3.3-2.3c1.9-0.2,6,1.3,7-0.7c1-2-0.7-4.1-2.2-4.1c-1.5,0-1.9,1.2-2.5,0.8
				c-0.6-0.4-3.6-3.2-1.7-4.7c1.9-1.5,6.1-1.9,8.7,0.6s5.8,5.8,3.3,9.8c-2.6,4-5.1,4-7.7,3c-2.6-1-3.7,1.8-4.6,1.4
				C311.6,175.6,308.4,172.9,308.9,172.3z"/>
		</g>
		<g>
			<path class="st9" d="M305,174.9c1.6-1.1,3.2-1.2,4.4,0c1.2,1.2,1.6,2.9,0.3,4.7c-1,1.4-3.5,0.9-4.7-0.4S303.6,175.9,305,174.9z"
				/>
		</g>
	</g>
	<g>
		<g>
			<path class="st10" d="M324.4,165.6c-0.8-1.6-2.3-3.1-3.6-4.3c-0.2-0.2-0.3-0.3-0.5-0.4c-2.6-2-6.5-1.5-8.2-0.1
				c-0.4,0.3-0.6,0.7-0.6,1.3c0,1.4,1.9,3.1,2.4,3.5c0.1,0.1,0.2,0.1,0.3,0.1c0.2,0,0.4-0.1,0.6-0.3c0.4-0.3,0.8-0.6,1.6-0.6
				c0.4,0,0.9,0.2,1.3,0.5c0.3,0.2,0.5,0.5,0.7,0.8c0.5,0.9,0.6,1.9,0.1,2.8c-0.7,1.4-2.8,1.1-4.7,0.9c-0.9-0.1-1.7-0.2-2.3-0.2
				c-1.9,0.2-3.3,2.3-3.3,2.3c-0.1,0.1-0.1,0.2,0,0.3c0.2,1,2.9,3,3.6,3.4c0,0,0,0,0,0c0,0,0.1,0,0.2,0c0.3,0,0.6-0.3,1-0.6
				c0.8-0.6,1.8-1.4,3.4-0.9c1.5,0.6,2.7,0.7,3.9,0.3c1.4-0.4,2.6-1.5,3.8-3.4C325.2,169.3,325.3,167.5,324.4,165.6z M324.1,171.1
				c-1.2,1.8-2.4,2.9-3.8,3.3c-1.1,0.3-2.3,0.2-3.8-0.3c-1.6-0.6-2.7,0.2-3.5,0.9c-0.5,0.4-0.8,0.7-1.2,0.5c-0.1,0-0.1-0.1-0.2-0.1
				c-1-0.5-3.2-2.4-3.4-3.2c0-0.1,0-0.2,0-0.3l0,0c0,0,1.4-2.1,3.3-2.3c0.1,0,0.3,0,0.4,0c0.5,0,1.2,0.1,1.9,0.2
				c1.9,0.2,4.1,0.5,4.8-0.9c0.4-0.9,0.4-2-0.2-2.8c-0.2-0.3-0.4-0.5-0.6-0.7c-0.4-0.4-1-0.6-1.5-0.6c0,0,0,0,0,0
				c-0.8,0-1.2,0.3-1.6,0.6c-0.2,0.2-0.4,0.3-0.6,0.3c-0.1,0-0.2,0-0.2-0.1c-0.5-0.3-2.3-2-2.3-3.4c0-0.5,0.2-0.9,0.6-1.2
				c1.7-1.3,5.3-1.8,7.9,0h0c0.3,0.2,0.5,0.4,0.8,0.6C323.7,164,326.5,167.3,324.1,171.1z"/>
		</g>
		<g>
			<path class="st10" d="M308.6,174.5c-0.1-0.1-0.1-0.1-0.2-0.2c-0.6-0.5-1.2-0.7-1.9-0.7c-0.7,0-1.5,0.3-2.3,0.9
				c-0.6,0.4-0.9,1.1-1,1.8c-0.1,0.9,0.3,1.9,0.9,2.6c0.3,0.3,0.7,0.6,1.2,0.8c0.6,0.3,1.2,0.4,1.7,0.4c0.1,0,0.2,0,0.3,0
				c0.7-0.1,1.2-0.3,1.6-0.8C310.1,177.5,310,175.9,308.6,174.5z M308.9,179.2c-0.3,0.5-0.9,0.8-1.5,0.8c-0.7,0.1-1.5-0.1-2.2-0.5
				c-0.4-0.2-0.7-0.4-0.9-0.7c-0.7-0.7-1-1.6-0.9-2.5c0.1-0.8,0.4-1.4,1-1.8c0.8-0.6,1.6-0.9,2.3-0.9c0.6,0,1.2,0.2,1.7,0.6
				c0.1,0.1,0.2,0.2,0.3,0.3C309.9,175.9,310,177.5,308.9,179.2z"/>
		</g>
	</g>
</g>
<g>
	<g>
		<g>
			<path class="st12" d="M160.9,169.5c0,0-1.5-2.1-0.9-4c0.6-1.9,3.5-5.1,2-6.7c-1.5-1.7-4.1-0.9-4.6,0.4c-0.6,1.4,0.4,2.2-0.2,2.6
				c-0.6,0.4-4.4,2.1-5-0.2c-0.6-2.3,0.6-6.4,3.8-7.8c3.2-1.4,7.6-3.2,10.3,0.7c2.7,3.9,1.8,6.2-0.1,8.3c-1.9,2,0.2,4.1-0.5,4.8
				C165,168.3,161.3,170.2,160.9,169.5z"/>
		</g>
		<g>
			<path class="st12" d="M161.9,174.1c-0.5-1.9,0.1-3.4,1.7-4c1.6-0.6,3.2-0.4,4.5,1.5c0.9,1.4-0.5,3.6-2.1,4.2
				C164.3,176.5,162.3,175.8,161.9,174.1z"/>
		</g>
	</g>
	<g>
		<g>
			<path class="st12" d="M165.6,155c-1.2-1.7-2.8-2.5-5-2.4c-1.8,0.1-3.7,0.9-5.4,1.6c-0.2,0.1-0.4,0.2-0.6,0.3
				c-2.8,1.7-3.8,5.4-3.3,7.6c0.1,0.5,0.4,0.9,0.9,1.1c0.7,0.3,1.7,0.1,2.4-0.1c0.8-0.2,1.5-0.6,1.7-0.7c0.1-0.1,0.2-0.2,0.2-0.3
				c0-0.2,0-0.4,0-0.6c-0.1-0.4-0.2-1,0.1-1.7c0.2-0.4,0.5-0.8,1-1c0.3-0.2,0.6-0.3,1-0.3c1-0.2,2,0.2,2.6,0.9c1,1.2,0,3-1,4.7
				c-0.4,0.7-0.8,1.5-1,2c-0.5,1.8,0.9,3.9,0.9,4c0,0.1,0.1,0.1,0.3,0.2c0,0,0.1,0,0.1,0c1.1,0,3.8-1.5,4.4-2.1c0,0,0,0,0,0
				c0.2-0.3,0.1-0.7-0.1-1.3c-0.3-0.9-0.7-2.2,0.5-3.5c1.1-1.2,1.7-2.3,1.8-3.5C167.4,158.4,166.9,156.8,165.6,155z M167.2,159.8
				c-0.1,1.2-0.7,2.2-1.8,3.4c-1.2,1.3-0.8,2.6-0.5,3.5c0.2,0.6,0.3,1,0,1.3c0,0-0.1,0.1-0.2,0.1c0,0,0,0,0,0
				c-0.4,0.3-1.2,0.8-1.9,1.2c-1.1,0.5-1.9,0.8-2.3,0.8c-0.1,0-0.2-0.1-0.2-0.1l0,0c0,0-1.4-2.1-0.9-3.9c0.2-0.6,0.6-1.3,1-2
				c0.9-1.7,2-3.6,1-4.8c-0.6-0.6-1.3-1-2.2-1c-0.2,0-0.3,0-0.5,0c-0.3,0-0.6,0.1-0.9,0.3c-0.5,0.3-0.9,0.6-1.1,1.1
				c-0.3,0.7-0.2,1.3-0.1,1.7c0.1,0.3,0.1,0.5,0,0.6c0,0.1-0.1,0.1-0.2,0.2c-0.3,0.2-1,0.5-1.7,0.7c-0.7,0.2-1.6,0.4-2.4,0.1
				c-0.5-0.2-0.8-0.5-0.9-1c-0.6-2.1,0.4-5.6,3-7.3c0.3-0.2,0.5-0.3,0.8-0.5c3.6-1.6,7.7-3,10.3,0.7
				C166.8,156.8,167.4,158.4,167.2,159.8z"/>
		</g>
		<g>
			<path class="st12" d="M167.4,172.1c-1.1-1.7-2.7-2.2-4.5-1.5c-0.1,0-0.2,0.1-0.3,0.1c-1.1,0.5-1.6,1.5-1.6,2.8
				c0,0.4,0.1,0.8,0.2,1.2c0.2,0.7,0.6,1.3,1.3,1.6c0.5,0.2,1,0.3,1.5,0.3c0.4,0,0.9-0.1,1.3-0.2c0.4-0.2,0.8-0.4,1.2-0.8
				c0.5-0.5,0.9-1.1,1.1-1.7C167.8,173.2,167.7,172.6,167.4,172.1z M167.5,173.8c-0.2,0.7-0.7,1.4-1.3,1.9c-0.3,0.3-0.6,0.5-1,0.6
				c-0.9,0.4-1.9,0.3-2.7-0.1c-0.3-0.2-0.6-0.4-0.8-0.7c-0.2-0.3-0.4-0.6-0.5-0.9c-0.2-0.9-0.2-1.8,0.1-2.5c0.2-0.6,0.6-1,1.2-1.4
				c0.1-0.1,0.3-0.1,0.4-0.2c0.5-0.2,1-0.3,1.5-0.3c1.2,0,2.2,0.6,3,1.8C167.6,172.6,167.7,173.2,167.5,173.8z"/>
		</g>
	</g>
</g>
<g>
	<g>
		<path class="st13" d="M218.3,143.2c-0.4,0-0.8,0-1.1,0h0c-0.1,0-0.1,0.1-0.1,0.1c0,0.1,0.1,0.1,0.1,0.1h0c0.4,0,0.8,0,1.1,0h0
			c0.1,0,0.1,0,0.1-0.1C218.4,143.2,218.3,143.2,218.3,143.2z M215.9,143.2c-0.4,0-0.8,0-1.2,0.1c-0.1,0-0.1,0.1-0.1,0.1
			c0,0.1,0.1,0.1,0.1,0.1h0c0.4,0,0.8-0.1,1.2-0.1c0.1,0,0.1-0.1,0.1-0.1C216.1,143.2,216,143.2,215.9,143.2z M220.6,143.5
			c-0.4-0.1-0.8-0.1-1.2-0.2c-0.1,0-0.1,0-0.1,0.1c0,0.1,0,0.1,0.1,0.1c0.4,0,0.8,0.1,1.1,0.2c0,0,0,0,0,0c0.1,0,0.1,0,0.1-0.1
			C220.7,143.5,220.7,143.5,220.6,143.5z M213.6,143.4c-0.4,0.1-0.8,0.1-1.2,0.2c-0.1,0-0.1,0.1-0.1,0.1c0,0.1,0.1,0.1,0.1,0.1
			c0,0,0,0,0,0c0.4-0.1,0.8-0.1,1.1-0.2c0.1,0,0.1-0.1,0.1-0.1C213.7,143.5,213.7,143.4,213.6,143.4z M222.9,144
			c-0.4-0.1-0.7-0.2-1.1-0.3c-0.1,0-0.1,0-0.1,0.1c0,0.1,0,0.1,0.1,0.1c0.4,0.1,0.7,0.2,1.1,0.3c0,0,0,0,0,0c0,0,0.1,0,0.1-0.1
			C223,144.1,222.9,144,222.9,144z M211.5,143.9c0-0.1-0.1-0.1-0.1-0.1c-0.4,0.1-0.8,0.2-1.1,0.3c-0.1,0-0.1,0.1-0.1,0.1
			c0,0.1,0.1,0.1,0.1,0.1c0,0,0,0,0,0c0.4-0.1,0.7-0.2,1.1-0.3C211.4,144.1,211.5,144,211.5,143.9z M209.2,144.6
			c0-0.1-0.1-0.1-0.1-0.1c-0.7,0.2-1.1,0.4-1.1,0.4c-0.1,0-0.1,0.1-0.1,0.2c0,0,0.1,0.1,0.1,0.1c0,0,0,0,0,0c0,0,0.4-0.2,1.1-0.4
			C209.2,144.7,209.2,144.6,209.2,144.6z M225,144.9L225,144.9c-0.4-0.2-0.7-0.3-1.1-0.5c-0.1,0-0.1,0-0.2,0.1s0,0.1,0.1,0.2
			c0.3,0.1,0.7,0.3,1,0.5l0.1,0c0,0,0,0,0.1,0c0,0,0.1,0,0.1-0.1C225.1,145,225.1,144.9,225,144.9z M226.7,146.5
			c-0.2-0.3-0.4-0.7-0.7-0.9c0,0-0.1,0-0.2,0c0,0,0,0.1,0,0.2c0.3,0.3,0.5,0.6,0.7,0.9c0,0,0.1,0.1,0.1,0.1c0,0,0,0,0.1,0
			C226.8,146.6,226.8,146.6,226.7,146.5z M227.1,147.6c0-0.1-0.1-0.1-0.1-0.1c-0.1,0-0.1,0.1-0.1,0.1c0.1,0.3,0.1,0.5,0.1,0.8
			c0,0.1,0,0.2,0,0.3c0,0.1,0,0.1,0.1,0.1h0c0.1,0,0.1,0,0.1-0.1c0-0.1,0-0.2,0-0.3C227.2,148.2,227.2,147.9,227.1,147.6z
			 M227,149.8c-0.1,0-0.1,0-0.1,0.1c-0.1,0.4-0.2,0.7-0.3,1.1c0,0.1,0,0.1,0.1,0.2c0,0,0,0,0,0c0,0,0.1,0,0.1-0.1
			c0.1-0.4,0.3-0.8,0.3-1.1C227.1,149.9,227,149.9,227,149.8z M226.6,151.5C226.6,151.5,226.6,151.5,226.6,151.5c-0.4,0-0.8,0-1.2,0
			c-0.1,0-0.1,0.1-0.1,0.1c0,0.1,0.1,0.1,0.1,0.1h0c0.4,0,0.8,0,1.2,0c0.1,0,0.1-0.1,0.1-0.1C226.8,151.5,226.7,151.5,226.6,151.5z
			 M229,151.6c-0.4,0-0.8-0.1-1.2-0.1c-0.1,0-0.1,0-0.1,0.1c0,0.1,0,0.1,0.1,0.1c0.4,0,0.8,0.1,1.1,0.1c0,0,0,0,0,0
			c0.1,0,0.1,0,0.1-0.1C229.1,151.7,229,151.6,229,151.6z M224.3,151.6c-0.4,0-0.8,0.1-1.2,0.2c-0.1,0-0.1,0.1-0.1,0.1
			c0,0.1,0.1,0.1,0.1,0.1c0,0,0,0,0,0c0.4-0.1,0.8-0.1,1.1-0.2c0.1,0,0.1-0.1,0.1-0.1C224.4,151.7,224.4,151.6,224.3,151.6z
			 M231.3,152.1c-0.4-0.1-0.8-0.2-1.1-0.3c-0.1,0-0.1,0-0.1,0.1c0,0.1,0,0.1,0.1,0.1c0.4,0.1,0.8,0.2,1.1,0.3c0,0,0,0,0,0
			c0.1,0,0.1,0,0.1-0.1C231.4,152.2,231.3,152.1,231.3,152.1z M222.2,152.1c0-0.1-0.1-0.1-0.1-0.1c-0.4,0.1-0.8,0.2-1.1,0.3
			c-0.1,0-0.1,0.1-0.1,0.1c0,0.1,0.1,0.1,0.1,0.1c0,0,0,0,0,0c0.4-0.1,0.7-0.2,1.1-0.3C222.1,152.3,222.2,152.2,222.2,152.1z
			 M233.5,152.9c-0.3-0.2-0.7-0.3-1.1-0.5c-0.1,0-0.1,0-0.2,0.1c0,0.1,0,0.1,0.1,0.2c0.4,0.1,0.7,0.3,1.1,0.5c0,0,0,0,0.1,0
			c0,0,0.1,0,0.1-0.1C233.5,153,233.5,152.9,233.5,152.9z M219.9,152.7c0-0.1-0.1-0.1-0.1-0.1c-0.4,0.1-0.7,0.2-1.1,0.4
			c-0.1,0-0.1,0.1-0.1,0.1c0,0,0.1,0.1,0.1,0.1c0,0,0,0,0,0c0.4-0.1,0.7-0.3,1.1-0.4C219.9,152.9,219.9,152.8,219.9,152.7z
			 M226.2,152c-0.1,0-0.1,0-0.2,0.1c-0.2,0.3-0.3,0.7-0.5,1c0,0.1,0,0.1,0,0.2c0,0,0,0,0.1,0c0,0,0.1,0,0.1-0.1
			c0.2-0.3,0.4-0.7,0.6-1C226.3,152.1,226.3,152.1,226.2,152z M217.7,153.5c0-0.1-0.1-0.1-0.2-0.1c-0.4,0.2-0.7,0.3-1.1,0.5
			c-0.1,0-0.1,0.1-0.1,0.2c0,0,0.1,0.1,0.1,0.1c0,0,0,0,0,0c0.3-0.2,0.7-0.3,1.1-0.5C217.7,153.7,217.8,153.6,217.7,153.5z
			 M235.5,154.1c-0.3-0.2-0.6-0.5-1-0.7c-0.1,0-0.1,0-0.2,0c0,0.1,0,0.1,0,0.2c0.3,0.2,0.6,0.4,1,0.6c0,0,0,0,0.1,0c0,0,0.1,0,0.1,0
			C235.5,154.2,235.5,154.2,235.5,154.1z M225,154c-0.1,0-0.1,0-0.2,0c-0.2,0.3-0.4,0.6-0.7,0.9c0,0.1,0,0.1,0,0.2c0,0,0,0,0.1,0
			c0,0,0.1,0,0.1,0c0.2-0.3,0.5-0.6,0.7-0.9C225.1,154.2,225.1,154.1,225,154z M215.6,154.5c0-0.1-0.1-0.1-0.2,0
			c-0.3,0.2-0.7,0.4-1,0.6c-0.1,0-0.1,0.1,0,0.2c0,0,0.1,0.1,0.1,0.1c0,0,0,0,0.1,0c0.3-0.2,0.7-0.4,1-0.6
			C215.6,154.6,215.7,154.6,215.6,154.5z M237.2,155.7c-0.3-0.3-0.6-0.6-0.8-0.8c0,0-0.1,0-0.2,0c0,0,0,0.1,0,0.2
			c0.3,0.3,0.6,0.5,0.8,0.8c0,0,0.1,0,0.1,0c0,0,0.1,0,0.1,0C237.3,155.8,237.3,155.7,237.2,155.7z M213.6,155.7
			c0-0.1-0.1-0.1-0.2,0c-0.3,0.2-0.7,0.4-1,0.7c-0.1,0-0.1,0.1,0,0.2c0,0,0.1,0,0.1,0c0,0,0,0,0.1,0c0.3-0.2,0.6-0.4,1-0.7
			C213.6,155.8,213.6,155.7,213.6,155.7z M223.6,155.9c0,0-0.1,0-0.2,0c-0.2,0.3-0.5,0.6-0.8,0.9c0,0,0,0.1,0,0.2c0,0,0.1,0,0.1,0
			c0,0,0.1,0,0.1,0c0.3-0.3,0.5-0.6,0.8-0.9C223.7,156,223.7,155.9,223.6,155.9z M211.7,157c0,0-0.1-0.1-0.2,0
			c-0.3,0.3-0.6,0.5-0.9,0.8c0,0,0,0.1,0,0.2c0,0,0.1,0,0.1,0c0,0,0.1,0,0.1,0c0.3-0.3,0.5-0.5,0.9-0.8
			C211.8,157.2,211.8,157.1,211.7,157z M222.1,157.6c0,0-0.1,0-0.2,0c-0.3,0.3-0.6,0.5-0.9,0.8c0,0-0.1,0.1,0,0.2c0,0,0.1,0,0.1,0
			c0,0,0.1,0,0.1,0c0.3-0.3,0.6-0.5,0.9-0.8C222.1,157.7,222.1,157.6,222.1,157.6z M210.1,158.7c-0.1,0-0.1,0-0.2,0
			c-0.3,0.3-0.5,0.7-0.6,1c0,0.1,0,0.1,0.1,0.2c0,0,0,0,0,0c0,0,0.1,0,0.1-0.1c0.1-0.3,0.3-0.6,0.6-1
			C210.1,158.8,210.1,158.7,210.1,158.7z M220.3,159.1c0-0.1-0.1-0.1-0.2,0c-0.3,0.2-0.6,0.5-0.9,0.7c-0.1,0-0.1,0.1,0,0.2
			c0,0,0.1,0,0.1,0c0,0,0,0,0.1,0c0.3-0.2,0.6-0.5,0.9-0.7C220.3,159.3,220.4,159.2,220.3,159.1z M218.4,160.5c0-0.1-0.1-0.1-0.2,0
			c-0.3,0.2-0.7,0.4-1,0.6c-0.1,0-0.1,0.1,0,0.2c0,0,0.1,0.1,0.1,0.1c0,0,0,0,0.1,0c0.3-0.2,0.7-0.4,1-0.6
			C218.4,160.6,218.5,160.6,218.4,160.5z M209.7,161.8c-0.3-0.3-0.4-0.6-0.5-0.9c0-0.1-0.1-0.1-0.1-0.1c-0.1,0-0.1,0.1-0.1,0.1
			c0,0.4,0.2,0.8,0.5,1.1c0,0,0,0,0.1,0c0,0,0.1,0,0.1,0C209.8,161.9,209.7,161.8,209.7,161.8z M216.4,161.6c0-0.1-0.1-0.1-0.2-0.1
			c-0.4,0.2-0.7,0.3-1.1,0.4c-0.1,0-0.1,0.1-0.1,0.1c0,0,0.1,0.1,0.1,0.1c0,0,0,0,0,0c0.4-0.1,0.7-0.3,1.1-0.4
			C216.4,161.7,216.4,161.7,216.4,161.6z M214.2,162.4c0-0.1-0.1-0.1-0.1-0.1c-0.4,0.1-0.8,0.2-1.1,0.2c-0.1,0-0.1,0.1-0.1,0.1
			c0,0.1,0.1,0.1,0.1,0.1h0c0.4,0,0.8-0.1,1.2-0.2C214.2,162.5,214.2,162.5,214.2,162.4z M211.8,162.5c-0.4,0-0.8-0.1-1.1-0.2
			c-0.1,0-0.1,0-0.1,0.1c0,0.1,0,0.1,0.1,0.1c0.4,0.1,0.8,0.2,1.2,0.2c0,0,0,0,0,0c0.1,0,0.1,0,0.1-0.1
			C211.9,162.6,211.9,162.5,211.8,162.5z"/>
	</g>
	<g>
		<path class="st13" d="M172.6,124.2c0-0.1-0.1-0.1-0.1-0.1c-0.1,0-0.2,0-0.2,0.1c-0.1,0-0.1,0.1-0.1,0.1c0,0,0.1,0.1,0.1,0.1
			c0,0,0,0,0,0c0.1,0,0.2-0.1,0.2-0.1C172.6,124.3,172.6,124.3,172.6,124.2z M171.2,124.7c0-0.1-0.1-0.1-0.2-0.1
			c-0.4,0.1-0.7,0.3-1.1,0.4c-0.1,0-0.1,0.1-0.1,0.2c0,0,0.1,0.1,0.1,0.1c0,0,0,0,0,0c0.3-0.2,0.7-0.3,1.1-0.4
			C171.2,124.8,171.3,124.7,171.2,124.7z M169.1,125.6c0-0.1-0.1-0.1-0.2,0c-0.3,0.2-0.7,0.4-1,0.6c-0.1,0-0.1,0.1,0,0.2
			c0,0,0.1,0.1,0.1,0.1c0,0,0,0,0.1,0c0.3-0.2,0.7-0.4,1-0.6C169.1,125.7,169.2,125.7,169.1,125.6z M167.2,126.8
			c0-0.1-0.1-0.1-0.2,0c-0.3,0.2-0.6,0.5-0.9,0.7c0,0-0.1,0.1,0,0.2c0,0,0.1,0,0.1,0c0,0,0.1,0,0.1,0c0.3-0.2,0.6-0.5,0.9-0.7
			C167.2,127,167.2,126.9,167.2,126.8z M165.4,128.3c0,0-0.1,0-0.2,0c-0.3,0.3-0.5,0.6-0.8,0.9c0,0,0,0.1,0,0.2c0,0,0,0,0.1,0
			c0,0,0.1,0,0.1,0c0.2-0.3,0.5-0.6,0.8-0.8C165.4,128.5,165.4,128.4,165.4,128.3z M163.9,130.1c-0.1,0-0.1,0-0.2,0
			c-0.2,0.3-0.5,0.6-0.7,1c0,0.1,0,0.1,0,0.2c0,0,0,0,0.1,0c0,0,0.1,0,0.1-0.1c0.2-0.3,0.4-0.6,0.6-1
			C163.9,130.2,163.9,130.1,163.9,130.1z M162.6,132c-0.1,0-0.1,0-0.2,0c-0.2,0.3-0.3,0.7-0.5,1.1c0,0.1,0,0.1,0.1,0.2c0,0,0,0,0,0
			c0,0,0.1,0,0.1-0.1c0.1-0.4,0.3-0.7,0.5-1C162.7,132.1,162.7,132.1,162.6,132z M161.7,134.2c-0.1,0-0.1,0-0.1,0.1
			c-0.1,0.4-0.2,0.7-0.3,1.1c0,0.1,0,0.1,0.1,0.1c0,0,0,0,0,0c0.1,0,0.1,0,0.1-0.1c0.1-0.4,0.2-0.7,0.3-1.1
			C161.8,134.3,161.8,134.2,161.7,134.2z M161.2,136.4c-0.1,0-0.1,0-0.1,0.1c-0.1,0.4-0.1,0.8-0.1,1.2c0,0.1,0,0.1,0.1,0.1
			c0,0,0,0,0,0c0.1,0,0.1,0,0.1-0.1c0-0.4,0.1-0.8,0.1-1.1C161.3,136.5,161.2,136.4,161.2,136.4z M161.1,138.9
			c0-0.1-0.1-0.1-0.1-0.1c-0.1,0-0.1,0.1-0.1,0.1c0,0.4,0,0.8,0.1,1.2c0,0.1,0.1,0.1,0.1,0.1h0c0.1,0,0.1-0.1,0.1-0.1
			C161.1,139.6,161.1,139.2,161.1,138.9z M161.7,142.2c-0.1-0.4-0.2-0.7-0.3-1.1c0-0.1-0.1-0.1-0.1-0.1c-0.1,0-0.1,0.1-0.1,0.1
			c0.1,0.4,0.2,0.8,0.3,1.1c0,0,0.1,0.1,0.1,0.1c0,0,0,0,0,0C161.6,142.4,161.7,142.3,161.7,142.2z M179.7,142.6
			c-0.4,0-0.8,0.1-1.2,0.3c-0.1,0-0.1,0.1,0,0.2c0,0,0.1,0.1,0.1,0.1c0,0,0,0,0.1,0c0.4-0.2,0.7-0.3,1.1-0.3c0.1,0,0.1-0.1,0.1-0.1
			C179.8,142.6,179.7,142.6,179.7,142.6z M181.5,143.9c-0.1-0.4-0.4-0.8-0.7-1c-0.1,0-0.1,0-0.2,0c0,0.1,0,0.1,0,0.2
			c0.3,0.2,0.5,0.5,0.6,0.9c0,0,0.1,0.1,0.1,0.1c0,0,0,0,0,0C181.5,144.1,181.6,144,181.5,143.9z M162.6,144.3
			c-0.2-0.3-0.4-0.7-0.5-1c0-0.1-0.1-0.1-0.2-0.1c-0.1,0-0.1,0.1-0.1,0.2c0.2,0.4,0.3,0.7,0.5,1c0,0,0.1,0.1,0.1,0.1c0,0,0,0,0.1,0
			C162.6,144.5,162.6,144.4,162.6,144.3z M177.7,143.7c0,0-0.1-0.1-0.2,0c-0.3,0.3-0.5,0.5-0.8,0.9c0,0,0,0.1,0,0.2c0,0,0,0,0.1,0
			c0,0,0.1,0,0.1,0c0.2-0.3,0.5-0.6,0.8-0.8C177.8,143.8,177.8,143.7,177.7,143.7z M181.6,145c-0.1,0-0.1,0-0.1,0.1
			c0,0.4-0.1,0.7-0.3,1.1c0,0.1,0,0.1,0.1,0.2c0,0,0,0,0,0c0,0,0.1,0,0.1-0.1c0.2-0.4,0.2-0.8,0.3-1.2
			C181.7,145.1,181.6,145,181.6,145z M163.9,146.2c-0.3-0.3-0.5-0.6-0.7-0.9c0-0.1-0.1-0.1-0.2,0c-0.1,0-0.1,0.1,0,0.2
			c0.2,0.3,0.5,0.6,0.7,0.9c0,0,0.1,0,0.1,0c0,0,0.1,0,0.1,0C164,146.3,164,146.2,163.9,146.2z M176.3,145.4c-0.1,0-0.1,0-0.2,0
			c-0.2,0.3-0.4,0.7-0.5,1c0,0.1,0,0.1,0.1,0.2c0,0,0,0,0,0c0,0,0.1,0,0.1-0.1c0.2-0.4,0.3-0.7,0.5-1
			C176.3,145.6,176.3,145.5,176.3,145.4z M165.7,147.7c-0.3-0.2-0.6-0.4-0.9-0.7c0,0-0.1,0-0.2,0c0,0,0,0.1,0,0.2
			c0.3,0.3,0.6,0.5,0.9,0.7c0,0,0,0,0.1,0c0,0,0.1,0,0.1-0.1C165.7,147.8,165.7,147.7,165.7,147.7z M180.8,147.2c-0.1,0-0.1,0-0.2,0
			c-0.2,0.3-0.5,0.6-0.8,0.8c0,0-0.1,0.1,0,0.2c0,0,0.1,0,0.1,0c0,0,0.1,0,0.1,0c0.3-0.3,0.6-0.5,0.8-0.8
			C180.9,147.3,180.9,147.2,180.8,147.2z M175.3,147.5c-0.1,0-0.1,0-0.1,0.1c-0.1,0.4-0.2,0.7-0.4,1.1c0,0.1,0,0.1,0.1,0.1
			c0,0,0,0,0,0c0.1,0,0.1,0,0.1-0.1c0.1-0.4,0.2-0.7,0.3-1.1C175.4,147.6,175.3,147.6,175.3,147.5z M167.7,148.7
			c-0.4-0.1-0.7-0.3-1-0.5c-0.1,0-0.1,0-0.2,0s0,0.1,0,0.2c0.3,0.2,0.7,0.3,1.1,0.5c0,0,0,0,0,0c0,0,0.1,0,0.1-0.1
			C167.8,148.8,167.8,148.8,167.7,148.7z M179.1,148.7c0-0.1-0.1-0.1-0.2,0c-0.3,0.2-0.7,0.3-1,0.5c-0.1,0-0.1,0.1-0.1,0.1
			c0,0,0.1,0.1,0.1,0.1c0,0,0,0,0,0c0.4-0.1,0.7-0.3,1.1-0.5C179.1,148.8,179.1,148.7,179.1,148.7z M169.9,149.4
			c-0.4-0.1-0.8-0.2-1.1-0.3c-0.1,0-0.1,0-0.1,0.1c0,0.1,0,0.1,0.1,0.1c0.4,0.1,0.7,0.2,1.1,0.3c0,0,0,0,0,0c0.1,0,0.1,0,0.1-0.1
			C170,149.5,170,149.4,169.9,149.4z M176.9,149.5c0-0.1-0.1-0.1-0.1-0.1c-0.4,0.1-0.7,0.2-1.1,0.2c-0.1,0-0.1,0.1-0.1,0.1
			c0,0.1,0.1,0.1,0.1,0.1c0,0,0,0,0,0c0.4-0.1,0.8-0.1,1.2-0.2C176.9,149.6,176.9,149.6,176.9,149.5z M172.2,149.7
			c-0.4,0-0.8-0.1-1.2-0.1c-0.1,0-0.1,0-0.1,0.1c0,0.1,0,0.1,0.1,0.1c0.4,0,0.8,0.1,1.2,0.1h0c0.1,0,0.1,0,0.1-0.1
			C172.3,149.8,172.3,149.7,172.2,149.7z M174.6,149.8C174.6,149.8,174.6,149.8,174.6,149.8c-0.1,0-0.1,0-0.1,0c-0.4,0-0.8,0-1.2,0
			c-0.1,0-0.1,0.1-0.1,0.1s0,0.1,0.1,0.1c0.4,0,0.8,0,1.1,0c-0.1,0.3-0.1,0.7-0.2,1.1c0,0.1,0,0.1,0.1,0.1c0,0,0,0,0,0
			c0.1,0,0.1,0,0.1-0.1c0.1-0.4,0.1-0.8,0.2-1.1C174.7,149.8,174.7,149.8,174.6,149.8z M174.3,152.1c-0.1,0-0.1,0-0.1,0.1
			c0,0.4,0,0.8-0.1,1.2c0,0.1,0,0.1,0.1,0.1h0c0.1,0,0.1-0.1,0.1-0.1c0-0.4,0-0.8,0.1-1.2C174.4,152.1,174.4,152.1,174.3,152.1z
			 M174.4,154.5c0-0.1-0.1-0.1-0.1-0.1c-0.1,0-0.1,0.1-0.1,0.1c0,0.4,0,0.8,0.1,1.2c0,0.1,0.1,0.1,0.1,0.1h0c0.1,0,0.1-0.1,0.1-0.1
			C174.4,155.3,174.4,154.9,174.4,154.5z M174.8,157.9c-0.1-0.4-0.1-0.8-0.2-1.1c0-0.1-0.1-0.1-0.1-0.1c-0.1,0-0.1,0.1-0.1,0.1
			c0.1,0.4,0.1,0.8,0.2,1.2c0,0.1,0.1,0.1,0.1,0.1c0,0,0,0,0,0C174.8,158.1,174.8,158,174.8,157.9z M175.4,160.2
			c-0.1-0.4-0.2-0.7-0.3-1.1c0-0.1-0.1-0.1-0.1-0.1c-0.1,0-0.1,0.1-0.1,0.1c0.1,0.4,0.2,0.8,0.3,1.1c0,0,0.1,0.1,0.1,0.1
			c0,0,0,0,0,0C175.3,160.3,175.4,160.2,175.4,160.2z M176.1,162.4c-0.1-0.4-0.3-0.7-0.4-1.1c0-0.1-0.1-0.1-0.1-0.1
			c-0.1,0-0.1,0.1-0.1,0.1c0.1,0.4,0.3,0.7,0.4,1.1c0,0,0.1,0.1,0.1,0.1c0,0,0,0,0,0C176.1,162.5,176.2,162.4,176.1,162.4z
			 M177.1,164.4c-0.2-0.3-0.4-0.7-0.5-1c0-0.1-0.1-0.1-0.2-0.1c-0.1,0-0.1,0.1-0.1,0.2c0.2,0.3,0.3,0.7,0.5,1c0,0,0.1,0.1,0.1,0.1
			c0,0,0,0,0.1,0C177.1,164.6,177.2,164.5,177.1,164.4z M178.3,166.4c-0.2-0.3-0.4-0.7-0.6-1c0-0.1-0.1-0.1-0.2,0
			c-0.1,0-0.1,0.1,0,0.2c0.2,0.3,0.4,0.7,0.6,1c0,0,0.1,0.1,0.1,0.1c0,0,0,0,0.1,0C178.3,166.6,178.3,166.5,178.3,166.4z
			 M179.6,168.3c-0.2-0.3-0.5-0.6-0.7-0.9c0-0.1-0.1-0.1-0.2,0c-0.1,0-0.1,0.1,0,0.2c0.2,0.3,0.5,0.6,0.7,0.9c0,0,0.1,0,0.1,0
			c0,0,0.1,0,0.1,0C179.7,168.4,179.7,168.4,179.6,168.3z M181.1,170.1L181.1,170.1c-0.3-0.3-0.5-0.6-0.8-0.9c0,0-0.1-0.1-0.2,0
			c0,0-0.1,0.1,0,0.2c0.2,0.3,0.5,0.6,0.7,0.8l0,0c0,0,0.1,0,0.1,0c0,0,0.1,0,0.1,0C181.2,170.2,181.2,170.1,181.1,170.1z
			 M221.3,170.6c0-0.1-0.1-0.1-0.1-0.1c0,0-0.4,0.1-1.1,0.4c-0.1,0-0.1,0.1-0.1,0.1c0,0,0.1,0.1,0.1,0.1c0,0,0,0,0,0
			c0.7-0.2,1.1-0.4,1.1-0.4C221.3,170.7,221.3,170.7,221.3,170.6z M219.1,171.3c0-0.1-0.1-0.1-0.1-0.1c-0.4,0.1-0.7,0.2-1.1,0.3
			c-0.1,0-0.1,0.1-0.1,0.1c0,0.1,0.1,0.1,0.1,0.1c0,0,0,0,0,0c0.4-0.1,0.8-0.2,1.1-0.3C219.1,171.4,219.1,171.4,219.1,171.3z
			 M182.9,171.6c-0.3-0.2-0.6-0.5-0.9-0.7c0,0-0.1,0-0.2,0c0,0,0,0.1,0,0.2c0.3,0.3,0.6,0.5,0.9,0.7c0,0,0,0,0.1,0c0,0,0.1,0,0.1,0
			C182.9,171.7,182.9,171.6,182.9,171.6z M216.9,171.9c0-0.1-0.1-0.1-0.1-0.1c-0.4,0.1-0.7,0.2-1.1,0.3c-0.1,0-0.1,0.1-0.1,0.1
			c0,0.1,0.1,0.1,0.1,0.1c0,0,0,0,0,0c0.4-0.1,0.8-0.2,1.1-0.3C216.8,172,216.9,172,216.9,171.9z M214.6,172.5
			c0-0.1-0.1-0.1-0.1-0.1c-0.4,0.1-0.7,0.2-1.1,0.3c-0.1,0-0.1,0.1-0.1,0.1c0,0.1,0.1,0.1,0.1,0.1c0,0,0,0,0,0
			c0.4-0.1,0.8-0.2,1.1-0.3C214.6,172.6,214.6,172.6,214.6,172.5z M184.8,172.8c-0.4-0.2-0.7-0.4-1-0.5c-0.1,0-0.1,0-0.2,0
			c0,0.1,0,0.1,0,0.2c0.3,0.2,0.7,0.4,1,0.6c0,0,0,0,0.1,0c0,0,0.1,0,0.1-0.1C184.9,172.9,184.9,172.8,184.8,172.8z M212.3,173
			c0-0.1-0.1-0.1-0.1-0.1c-0.4,0.1-0.7,0.2-1.1,0.2c-0.1,0-0.1,0.1-0.1,0.1c0,0.1,0.1,0.1,0.1,0.1c0,0,0,0,0,0
			c0.4-0.1,0.8-0.2,1.1-0.2C212.3,173.2,212.4,173.1,212.3,173z M187,173.6c-0.4-0.1-0.7-0.3-1.1-0.4c-0.1,0-0.1,0-0.2,0.1
			c0,0.1,0,0.1,0.1,0.2c0.4,0.1,0.7,0.3,1.1,0.4c0,0,0,0,0,0c0,0,0.1,0,0.1-0.1C187.1,173.7,187,173.7,187,173.6z M209.9,173.4
			c-0.4,0.1-0.8,0.1-1.1,0.2c-0.1,0-0.1,0.1-0.1,0.1c0,0.1,0.1,0.1,0.1,0.1c0,0,0,0,0,0c0.4-0.1,0.8-0.1,1.1-0.2
			c0.1,0,0.1-0.1,0.1-0.1C210.1,173.4,210,173.4,209.9,173.4z M207.6,173.8c-0.4,0.1-0.8,0.1-1.1,0.2c-0.1,0-0.1,0.1-0.1,0.1
			c0,0.1,0.1,0.1,0.1,0.1c0,0,0,0,0,0c0.4-0.1,0.8-0.1,1.1-0.2c0.1,0,0.1-0.1,0.1-0.1C207.8,173.9,207.7,173.8,207.6,173.8z
			 M189.2,174.2c-0.4-0.1-0.8-0.2-1.1-0.3c-0.1,0-0.1,0-0.1,0.1c0,0.1,0,0.1,0.1,0.1c0.4,0.1,0.7,0.2,1.1,0.3c0,0,0,0,0,0
			c0.1,0,0.1,0,0.1-0.1C189.3,174.3,189.3,174.2,189.2,174.2z M205.4,174.2c-0.4,0.1-0.8,0.1-1.2,0.2c-0.1,0-0.1,0.1-0.1,0.1
			c0,0.1,0.1,0.1,0.1,0.1c0,0,0,0,0,0c0.4,0,0.8-0.1,1.2-0.2c0.1,0,0.1-0.1,0.1-0.1C205.5,174.2,205.4,174.2,205.4,174.2z
			 M191.5,174.6c-0.4,0-0.8-0.1-1.1-0.2c-0.1,0-0.1,0-0.1,0.1c0,0.1,0,0.1,0.1,0.1c0.4,0.1,0.8,0.1,1.2,0.2c0,0,0,0,0,0
			c0.1,0,0.1,0,0.1-0.1C191.6,174.7,191.5,174.6,191.5,174.6z M203,174.5c-0.4,0-0.8,0.1-1.2,0.1c-0.1,0-0.1,0.1-0.1,0.1
			c0,0.1,0.1,0.1,0.1,0.1c0,0,0,0,0,0c0.4,0,0.8-0.1,1.2-0.1c0.1,0,0.1-0.1,0.1-0.1C203.2,174.5,203.1,174.5,203,174.5z
			 M200.7,174.7c-0.4,0-0.8,0.1-1.2,0.1c-0.1,0-0.1,0.1-0.1,0.1c0,0.1,0.1,0.1,0.1,0.1h0c0.4,0,0.8-0.1,1.2-0.1
			c0.1,0,0.1-0.1,0.1-0.1C200.9,174.8,200.8,174.7,200.7,174.7z M193.8,174.8c-0.4,0-0.8-0.1-1.2-0.1c-0.1,0-0.1,0-0.1,0.1
			c0,0.1,0,0.1,0.1,0.1c0.4,0,0.8,0.1,1.2,0.1h0c0.1,0,0.1,0,0.1-0.1C193.9,174.9,193.9,174.8,193.8,174.8z M198.4,174.9
			c-0.4,0-0.8,0-1.2,0c-0.1,0-0.1,0.1-0.1,0.1c0,0.1,0.1,0.1,0.1,0.1c0,0,0,0,0,0c0.4,0,0.8,0,1.2,0c0.1,0,0.1-0.1,0.1-0.1
			C198.5,174.9,198.5,174.9,198.4,174.9z M196.1,174.9c-0.4,0-0.8,0-1.2,0c-0.1,0-0.1,0-0.1,0.1c0,0.1,0,0.1,0.1,0.1
			c0.4,0,0.8,0,1.2,0c0.1,0,0.1-0.1,0.1-0.1C196.2,175,196.2,174.9,196.1,174.9z"/>
	</g>
	<g>
		<path class="st13" d="M178.3,170.6c0-0.1-0.1-0.1-0.2,0c0,0-0.4,0.3-0.9,0.7c-0.1,0-0.1,0.1,0,0.2c0,0,0.1,0,0.1,0c0,0,0,0,0.1,0
			c0.6-0.4,0.9-0.7,0.9-0.7C178.3,170.7,178.3,170.6,178.3,170.6z M176.5,172c0-0.1-0.1-0.1-0.2,0c-0.3,0.2-0.6,0.5-0.9,0.7
			c0,0-0.1,0.1,0,0.2c0,0,0.1,0,0.1,0c0,0,0.1,0,0.1,0c0.3-0.2,0.6-0.5,0.9-0.7C176.5,172.1,176.5,172,176.5,172z M174.7,173.5
			c0,0-0.1-0.1-0.2,0c-0.3,0.3-0.6,0.5-0.9,0.8c0,0-0.1,0.1,0,0.2c0,0,0.1,0,0.1,0c0,0,0.1,0,0.1,0c0.3-0.3,0.6-0.5,0.9-0.8
			C174.7,173.6,174.7,173.5,174.7,173.5z M172.9,175c0,0-0.1,0-0.2,0c-0.3,0.3-0.6,0.5-0.9,0.8c0,0,0,0.1,0,0.2c0,0,0.1,0,0.1,0
			c0,0,0.1,0,0.1,0c0.3-0.3,0.6-0.5,0.8-0.8C173,175.1,173,175.1,172.9,175z M171.2,176.6c0,0-0.1,0-0.2,0c-0.3,0.3-0.6,0.6-0.8,0.8
			c0,0,0,0.1,0,0.2c0,0,0.1,0,0.1,0s0.1,0,0.1,0c0.3-0.3,0.5-0.6,0.8-0.8C171.3,176.7,171.3,176.7,171.2,176.6z M169.6,178.3
			c0,0-0.1,0-0.2,0c-0.3,0.3-0.5,0.6-0.8,0.9c0,0,0,0.1,0,0.2c0,0,0,0,0.1,0c0,0,0.1,0,0.1,0c0.3-0.3,0.5-0.6,0.8-0.9
			C169.7,178.4,169.7,178.3,169.6,178.3z M168.1,180c0,0-0.1,0-0.2,0c-0.3,0.3-0.5,0.6-0.7,0.9c0,0,0,0.1,0,0.2c0,0,0,0,0.1,0
			c0,0,0.1,0,0.1,0c0.2-0.3,0.5-0.6,0.7-0.9C168.1,180.1,168.1,180.1,168.1,180z M166.6,181.8c-0.1,0-0.1,0-0.2,0
			c-0.2,0.3-0.5,0.6-0.7,0.9c0,0.1,0,0.1,0,0.2c0,0,0,0,0.1,0c0,0,0.1,0,0.1,0c0.2-0.3,0.5-0.6,0.7-0.9
			C166.7,181.9,166.6,181.9,166.6,181.8z M165.2,183.7c-0.1,0-0.1,0-0.2,0c-0.2,0.3-0.4,0.7-0.6,1c0,0.1,0,0.1,0,0.2c0,0,0,0,0.1,0
			c0,0,0.1,0,0.1-0.1c0.2-0.3,0.4-0.6,0.6-1C165.3,183.8,165.3,183.8,165.2,183.7z M164,185.7c-0.1,0-0.1,0-0.2,0
			c-0.2,0.3-0.4,0.7-0.5,1c0,0.1,0,0.1,0.1,0.2c0,0,0,0,0.1,0c0,0,0.1,0,0.1-0.1c0.2-0.3,0.4-0.7,0.5-1
			C164.1,185.8,164.1,185.7,164,185.7z M163,187.8c-0.1,0-0.1,0-0.2,0.1c-0.2,0.4-0.3,0.7-0.4,1.1c0,0.1,0,0.1,0.1,0.2c0,0,0,0,0,0
			c0,0,0.1,0,0.1-0.1c0.1-0.4,0.3-0.7,0.4-1.1C163.1,187.9,163,187.8,163,187.8z M162.1,189.9c-0.1,0-0.1,0-0.1,0.1
			c-0.1,0.4-0.2,0.8-0.3,1.1c0,0.1,0,0.1,0.1,0.1c0,0,0,0,0,0c0.1,0,0.1,0,0.1-0.1c0.1-0.4,0.2-0.7,0.3-1.1
			C162.2,190,162.2,190,162.1,189.9z M161.6,192.2c-0.1,0-0.1,0-0.1,0.1c-0.1,0.4-0.1,0.8-0.1,1.2c0,0.1,0,0.1,0.1,0.1h0
			c0.1,0,0.1,0,0.1-0.1c0-0.4,0.1-0.8,0.1-1.1C161.7,192.3,161.7,192.2,161.6,192.2z M161.6,194.6c0-0.1-0.1-0.1-0.1-0.1
			c-0.1,0-0.1,0.1-0.1,0.1c0,0.4,0.1,0.8,0.1,1.2c0,0.1,0.1,0.1,0.1,0.1c0,0,0,0,0,0c0.1,0,0.1-0.1,0.1-0.1
			C161.7,195.4,161.6,195,161.6,194.6z M162.4,197.9c-0.2-0.3-0.3-0.7-0.4-1.1c0-0.1-0.1-0.1-0.1-0.1c-0.1,0-0.1,0.1-0.1,0.1
			c0.1,0.4,0.3,0.7,0.4,1.1c0,0,0.1,0.1,0.1,0.1c0,0,0,0,0,0C162.4,198.1,162.4,198,162.4,197.9z M163.6,199.9
			c-0.2-0.3-0.5-0.6-0.7-0.9c0-0.1-0.1-0.1-0.2,0c-0.1,0-0.1,0.1,0,0.2c0.2,0.3,0.4,0.6,0.7,0.9c0,0,0.1,0,0.1,0c0,0,0.1,0,0.1,0
			C163.7,200,163.7,199.9,163.6,199.9z M165.3,201.4c-0.3-0.2-0.6-0.5-0.9-0.7c0,0-0.1,0-0.2,0c0,0,0,0.1,0,0.2
			c0.3,0.3,0.6,0.5,0.9,0.7c0,0,0,0,0.1,0c0,0,0.1,0,0.1,0C165.4,201.5,165.4,201.4,165.3,201.4z M178.3,202.1c0-0.1-0.1-0.1-0.2,0
			c-0.2,0.1-0.5,0.3-0.8,0.4c-0.1,0-0.1,0.1-0.1,0.2c0,0,0.1,0.1,0.1,0.1c0,0,0,0,0.1,0c0.3-0.1,0.5-0.3,0.8-0.4
			C178.3,202.2,178.3,202.1,178.3,202.1z M167.3,202.5c-0.4-0.2-0.7-0.3-1-0.5c-0.1,0-0.1,0-0.2,0c0,0.1,0,0.1,0,0.2
			c0.3,0.2,0.7,0.4,1.1,0.5c0,0,0,0,0,0c0,0,0.1,0,0.1-0.1C167.4,202.6,167.4,202.5,167.3,202.5z M176.5,203c0-0.1-0.1-0.1-0.1-0.1
			c-0.4,0.1-0.7,0.2-1.1,0.3c-0.1,0-0.1,0.1-0.1,0.1c0,0.1,0.1,0.1,0.1,0.1c0,0,0,0,0,0c0.4-0.1,0.8-0.2,1.1-0.3
			C176.5,203.1,176.5,203,176.5,203z M169.5,203.2c-0.4-0.1-0.7-0.2-1.1-0.3c-0.1,0-0.1,0-0.1,0.1c0,0.1,0,0.1,0.1,0.1
			c0.4,0.1,0.7,0.2,1.1,0.3c0,0,0,0,0,0c0.1,0,0.1,0,0.1-0.1C169.6,203.3,169.6,203.2,169.5,203.2z M171.8,203.5
			c-0.4,0-0.8-0.1-1.1-0.1c-0.1,0-0.1,0-0.1,0.1c0,0.1,0,0.1,0.1,0.1c0.4,0.1,0.8,0.1,1.2,0.1h0c0.1,0,0.1,0,0.1-0.1
			C171.9,203.6,171.9,203.5,171.8,203.5z M174.1,203.4c-0.4,0.1-0.8,0.1-1.1,0.1c-0.1,0-0.1,0.1-0.1,0.1c0,0.1,0.1,0.1,0.1,0.1h0
			c0.4,0,0.8-0.1,1.2-0.1c0.1,0,0.1-0.1,0.1-0.1C174.2,203.5,174.2,203.4,174.1,203.4z"/>
	</g>
	<g>
		<path class="st13" d="M163.7,143.6c-0.4,0-0.8-0.1-1.2-0.1c-0.1,0-0.1,0-0.1,0.1s0.1,0.1,0.1,0.1c0.4,0,0.8,0,1.2,0.1c0,0,0,0,0,0
			c0.1,0,0.1,0,0.1-0.1C163.8,143.7,163.7,143.6,163.7,143.6z M161.3,143.6c-0.4,0-0.8,0.1-1.2,0.1c-0.1,0-0.1,0.1-0.1,0.1
			c0,0.1,0.1,0.1,0.1,0.1c0,0,0,0,0,0c0.4-0.1,0.8-0.1,1.1-0.1c0.1,0,0.1-0.1,0.1-0.1C161.5,143.6,161.4,143.6,161.3,143.6z
			 M166,144c-0.4-0.1-0.8-0.2-1.1-0.2c-0.1,0-0.1,0-0.1,0.1c0,0.1,0,0.1,0.1,0.1c0.4,0.1,0.8,0.1,1.1,0.2c0,0,0,0,0,0
			c0.1,0,0.1,0,0.1-0.1C166.1,144.1,166,144.1,166,144z M159.2,144c0-0.1-0.1-0.1-0.1-0.1c-0.4,0.1-0.8,0.2-1.1,0.3
			c-0.1,0-0.1,0.1-0.1,0.1c0,0.1,0.1,0.1,0.1,0.1c0,0,0,0,0,0c0.4-0.1,0.7-0.2,1.1-0.3C159.1,144.1,159.2,144.1,159.2,144z
			 M168.2,144.8c-0.4-0.1-0.7-0.3-1.1-0.4c-0.1,0-0.1,0-0.1,0.1c0,0.1,0,0.1,0.1,0.1c0.4,0.1,0.7,0.3,1.1,0.4c0,0,0,0,0,0
			c0,0,0.1,0,0.1-0.1C168.3,144.9,168.3,144.8,168.2,144.8z M156.9,144.6c0-0.1-0.1-0.1-0.1-0.1c-0.4,0.1-0.7,0.3-1.1,0.4
			c-0.1,0-0.1,0.1-0.1,0.2c0,0,0.1,0.1,0.1,0.1c0,0,0,0,0,0c0.4-0.2,0.7-0.3,1.1-0.4C156.9,144.8,156.9,144.7,156.9,144.6z
			 M170.3,145.8c-0.3-0.2-0.7-0.4-1-0.6c-0.1,0-0.1,0-0.2,0.1c0,0.1,0,0.1,0.1,0.2c0.3,0.2,0.7,0.4,1,0.5c0,0,0,0,0.1,0
			c0,0,0.1,0,0.1-0.1C170.4,145.9,170.3,145.8,170.3,145.8z M154.8,145.5c0-0.1-0.1-0.1-0.2-0.1c-0.2,0.1-0.3,0.2-0.5,0.3
			c-0.2,0.1-0.4,0.2-0.5,0.3c-0.1,0-0.1,0.1,0,0.2c0,0,0.1,0.1,0.1,0.1c0,0,0,0,0.1,0c0.2-0.1,0.3-0.2,0.5-0.3
			c0.2-0.1,0.3-0.2,0.5-0.3C154.8,145.7,154.8,145.6,154.8,145.5z M172.2,147.2c0,0-0.3-0.3-0.9-0.7c-0.1,0-0.1,0-0.2,0
			c0,0.1,0,0.1,0,0.2c0.6,0.4,0.9,0.7,0.9,0.7c0,0,0.1,0,0.1,0c0,0,0.1,0,0.1,0C172.3,147.3,172.3,147.2,172.2,147.2z M152.8,146.7
			c0-0.1-0.1-0.1-0.2,0c-0.3,0.2-0.6,0.5-0.9,0.7c0,0-0.1,0.1,0,0.2c0,0,0.1,0,0.1,0c0,0,0.1,0,0.1,0c0.3-0.3,0.6-0.5,0.9-0.7
			C152.8,146.9,152.8,146.8,152.8,146.7z M151.1,148.3c0,0-0.1,0-0.2,0c-0.3,0.3-0.5,0.6-0.8,0.9c0,0,0,0.1,0,0.2c0,0,0,0,0.1,0
			c0,0,0.1,0,0.1,0c0.2-0.3,0.5-0.6,0.8-0.9C151.1,148.4,151.1,148.3,151.1,148.3z M149.6,150.1c-0.1,0-0.1,0-0.2,0
			c-0.2,0.3-0.4,0.6-0.6,1c0,0.1,0,0.1,0,0.2c0,0,0,0,0.1,0c0,0,0.1,0,0.1-0.1c0.2-0.3,0.4-0.7,0.6-1
			C149.7,150.2,149.6,150.1,149.6,150.1z M148.4,152c-0.1,0-0.1,0-0.2,0c-0.2,0.3-0.4,0.7-0.5,1c0,0.1,0,0.1,0.1,0.2c0,0,0,0,0,0
			c0,0,0.1,0,0.1-0.1c0.2-0.3,0.3-0.7,0.5-1C148.4,152.1,148.4,152.1,148.4,152z M147.3,154.1c-0.1,0-0.1,0-0.2,0.1
			c-0.2,0.4-0.3,0.7-0.4,1.1c0,0.1,0,0.1,0.1,0.1c0,0,0,0,0,0c0,0,0.1,0,0.1-0.1c0.1-0.4,0.3-0.7,0.4-1.1
			C147.4,154.2,147.4,154.1,147.3,154.1z M146.5,156.3c-0.1,0-0.1,0-0.1,0.1c-0.1,0.4-0.2,0.7-0.3,1.1c0,0.1,0,0.1,0.1,0.1
			c0,0,0,0,0,0c0,0,0.1,0,0.1-0.1c0.1-0.4,0.2-0.7,0.3-1.1C146.6,156.4,146.6,156.3,146.5,156.3z M145.8,158.5c-0.1,0-0.1,0-0.1,0.1
			c-0.1,0.4-0.2,0.8-0.3,1.1c0,0.1,0,0.1,0.1,0.1c0,0,0,0,0,0c0.1,0,0.1,0,0.1-0.1c0.1-0.4,0.2-0.8,0.3-1.1
			C145.9,158.6,145.9,158.5,145.8,158.5z M145.3,160.8c-0.1,0-0.1,0-0.1,0.1c-0.1,0.4-0.1,0.8-0.2,1.2c0,0.1,0,0.1,0.1,0.1
			c0,0,0,0,0,0c0.1,0,0.1,0,0.1-0.1c0.1-0.4,0.1-0.8,0.2-1.1C145.4,160.9,145.4,160.8,145.3,160.8z M145,163.1c-0.1,0-0.1,0-0.1,0.1
			c0,0.4-0.1,0.8-0.1,1.2c0,0.1,0,0.1,0.1,0.1h0c0.1,0,0.1,0,0.1-0.1c0-0.4,0.1-0.8,0.1-1.2C145.1,163.1,145.1,163.1,145,163.1z
			 M143.9,166.1c-0.4,0-0.8,0-1.2,0c-0.1,0-0.1,0.1-0.1,0.1c0,0.1,0.1,0.1,0.1,0.1c0,0,0,0,0,0c0.4-0.1,0.8-0.1,1.1,0
			c0.1,0,0.1,0,0.1-0.1C144,166.1,144,166.1,143.9,166.1z M146.1,166.8c-0.4-0.2-0.7-0.3-1.1-0.5c0,0-0.1,0-0.1,0c0-0.3,0-0.5,0-0.8
			c0-0.1,0-0.1-0.1-0.1c-0.1,0-0.1,0-0.1,0.1c0,0.3,0,0.6,0,0.9c0,0.1,0,0.2,0,0.3c0,0.1,0.1,0.1,0.1,0.1h0c0.1,0,0.1-0.1,0.1-0.1
			c0-0.1,0-0.1,0-0.2c0,0,0,0,0.1,0c0.4,0.1,0.7,0.3,1,0.4c0,0,0,0,0.1,0c0,0,0.1,0,0.1-0.1C146.2,166.9,146.2,166.8,146.1,166.8z
			 M141.7,166.5c0-0.1-0.1-0.1-0.2-0.1c-0.4,0.2-0.7,0.4-1,0.7c0,0,0,0.1,0,0.2c0,0,0.1,0,0.1,0c0,0,0.1,0,0.1,0
			c0.3-0.3,0.6-0.5,0.9-0.7C141.7,166.6,141.7,166.6,141.7,166.5z M148,168.2c-0.3-0.3-0.6-0.6-0.9-0.8c0,0-0.1,0-0.2,0
			c0,0,0,0.1,0,0.2c0.3,0.2,0.6,0.5,0.8,0.8c0,0,0.1,0,0.1,0c0,0,0.1,0,0.1,0C148,168.4,148,168.3,148,168.2z M145,167.8
			c0-0.1-0.1-0.1-0.1-0.1c-0.1,0-0.1,0.1-0.1,0.1c0,0.4,0.1,0.8,0.1,1.2c0,0.1,0.1,0.1,0.1,0.1c0,0,0,0,0,0c0.1,0,0.1-0.1,0.1-0.1
			C145,168.6,145,168.2,145,167.8z M140,168.1c-0.1,0-0.1,0-0.2,0c-0.2,0.3-0.4,0.7-0.5,1.1c0,0.1,0,0.1,0.1,0.1c0,0,0,0,0,0
			c0,0,0.1,0,0.1-0.1c0.1-0.4,0.3-0.7,0.5-1C140.1,168.2,140.1,168.1,140,168.1z M149.3,170.2c-0.2-0.4-0.4-0.7-0.6-1
			c0-0.1-0.1-0.1-0.2,0c-0.1,0-0.1,0.1,0,0.2c0.2,0.3,0.4,0.7,0.6,1c0,0,0.1,0.1,0.1,0.1c0,0,0,0,0.1,0
			C149.3,170.3,149.3,170.2,149.3,170.2z M145.5,171.2c-0.1-0.4-0.2-0.7-0.2-1.1c0-0.1-0.1-0.1-0.1-0.1c-0.1,0-0.1,0.1-0.1,0.1
			c0.1,0.4,0.2,0.8,0.3,1.1c0,0.1,0.1,0.1,0.1,0.1c0,0,0,0,0,0C145.5,171.4,145.5,171.3,145.5,171.2z M139.2,170.2
			c-0.1,0-0.1,0-0.1,0.1c-0.1,0.4-0.1,0.8-0.1,1.2c0,0.1,0,0.1,0.1,0.1h0c0.1,0,0.1,0,0.1-0.1c0-0.4,0.1-0.8,0.1-1.1
			C139.3,170.3,139.3,170.2,139.2,170.2z M149.7,171.3c0-0.1-0.1-0.1-0.1-0.1c-0.1,0-0.1,0.1-0.1,0.1c0.1,0.4,0.2,0.8,0.3,1.1
			c0,0.1,0.1,0.1,0.1,0.1h0c0.1,0,0.1-0.1,0.1-0.1C149.9,172.1,149.9,171.7,149.7,171.3z M146.4,173.3c-0.2-0.3-0.4-0.6-0.5-1
			c0-0.1-0.1-0.1-0.2-0.1c-0.1,0-0.1,0.1-0.1,0.2c0.2,0.4,0.3,0.8,0.5,1.1c0,0,0.1,0.1,0.1,0.1c0,0,0,0,0.1,0
			C146.4,173.5,146.4,173.4,146.4,173.3z M139.2,172.7c0-0.1-0.1-0.1-0.1-0.1c-0.1,0-0.1,0.1-0.1,0.1c0,0.4,0.1,0.8,0.1,1.2
			c0,0.1,0.1,0.1,0.1,0.1c0,0,0,0,0,0c0.1,0,0.1-0.1,0.1-0.1C139.3,173.4,139.2,173,139.2,172.7z M149.9,173.5c-0.1,0-0.1,0-0.1,0.1
			c-0.1,0.4-0.3,0.7-0.6,0.9c-0.1,0-0.1,0.1,0,0.2c0,0,0.1,0.1,0.1,0.1c0,0,0,0,0.1,0c0.3-0.2,0.6-0.5,0.7-1
			C150,173.6,149.9,173.5,149.9,173.5z M148.1,174.6c-0.2,0-0.3-0.1-0.5-0.1c-0.2-0.1-0.3-0.2-0.5-0.3c-0.1,0-0.1,0-0.2,0
			c0,0.1,0,0.1,0,0.2c0.2,0.1,0.4,0.2,0.6,0.3c0.2,0.1,0.4,0.1,0.6,0.2c0,0,0,0,0,0c0.1,0,0.1,0,0.1-0.1
			C148.2,174.7,148.2,174.6,148.1,174.6z M139.9,176c-0.1-0.4-0.2-0.7-0.3-1.1c0-0.1-0.1-0.1-0.1-0.1c-0.1,0-0.1,0.1-0.1,0.1
			c0.1,0.4,0.2,0.8,0.3,1.1c0,0,0.1,0.1,0.1,0.1c0,0,0,0,0,0C139.8,176.2,139.9,176.1,139.9,176z M140.8,178.1
			c-0.2-0.3-0.4-0.7-0.5-1c0-0.1-0.1-0.1-0.2-0.1s-0.1,0.1-0.1,0.2c0.2,0.4,0.3,0.7,0.5,1c0,0,0.1,0.1,0.1,0.1c0,0,0,0,0.1,0
			C140.8,178.3,140.8,178.2,140.8,178.1z M158,178.6c-0.1,0-0.1,0-0.2,0.1c-0.1,0.3-0.3,0.7-0.5,1c0,0.1,0,0.1,0,0.2c0,0,0,0,0.1,0
			c0,0,0.1,0,0.1-0.1c0.2-0.3,0.4-0.7,0.5-1.1C158.1,178.7,158,178.7,158,178.6z M142.1,180c-0.3-0.3-0.5-0.6-0.7-0.9
			c0-0.1-0.1-0.1-0.2,0c-0.1,0-0.1,0.1,0,0.2c0.2,0.3,0.5,0.6,0.7,0.9c0,0,0.1,0,0.1,0c0,0,0.1,0,0.1,0
			C142.2,180.1,142.2,180,142.1,180z M156.8,180.6c0,0-0.1,0-0.2,0c-0.3,0.3-0.5,0.5-0.9,0.8c-0.1,0-0.1,0.1,0,0.2c0,0,0.1,0,0.1,0
			c0,0,0,0,0.1,0c0.3-0.2,0.6-0.5,0.9-0.8C156.8,180.7,156.8,180.6,156.8,180.6z M143.8,181.5c-0.3-0.2-0.6-0.5-0.9-0.7
			c0,0-0.1,0-0.2,0c0,0,0,0.1,0,0.2c0.3,0.3,0.6,0.5,0.9,0.7c0,0,0,0,0.1,0c0,0,0.1,0,0.1-0.1C143.9,181.6,143.9,181.6,143.8,181.5z
			 M154.9,182c0-0.1-0.1-0.1-0.2,0c-0.3,0.2-0.7,0.4-1,0.5c-0.1,0-0.1,0.1-0.1,0.2c0,0,0.1,0.1,0.1,0.1c0,0,0,0,0,0
			c0.4-0.2,0.7-0.3,1.1-0.5C154.9,182.2,155,182.1,154.9,182z M145.9,182.6c-0.4-0.1-0.7-0.3-1-0.5c-0.1,0-0.1,0-0.2,0
			c0,0.1,0,0.1,0,0.2c0.3,0.2,0.7,0.3,1.1,0.5c0,0,0,0,0,0c0,0,0.1,0,0.1-0.1C146,182.7,145.9,182.6,145.9,182.6z M152.8,183
			c0-0.1-0.1-0.1-0.1-0.1c-0.4,0.1-0.8,0.2-1.1,0.2c-0.1,0-0.1,0.1-0.1,0.1c0,0.1,0.1,0.1,0.1,0.1c0,0,0,0,0,0
			c0.4-0.1,0.8-0.1,1.1-0.2C152.8,183.1,152.8,183,152.8,183z M148.1,183.1c-0.4,0-0.8-0.1-1.1-0.2c-0.1,0-0.1,0-0.1,0.1
			c0,0.1,0,0.1,0.1,0.1c0.4,0.1,0.8,0.2,1.2,0.2c0,0,0,0,0,0c0.1,0,0.1,0,0.1-0.1C148.2,183.2,148.2,183.1,148.1,183.1z
			 M150.4,183.2c-0.4,0-0.8,0-1.1,0c-0.1,0-0.1,0-0.1,0.1c0,0.1,0,0.1,0.1,0.1c0.1,0,0.2,0,0.3,0c0.3,0,0.5,0,0.8,0
			c0.1,0,0.1-0.1,0.1-0.1C150.5,183.2,150.4,183.2,150.4,183.2z"/>
	</g>
	<g>
		<path class="st13" d="M236.1,113c-0.4,0-0.8,0-1.2,0c-0.1,0-0.1,0.1-0.1,0.1c0,0.1,0.1,0.1,0.1,0.1c0.4,0,0.8,0,1.1,0h0
			c0.1,0,0.1,0,0.1-0.1C236.2,113.1,236.1,113,236.1,113z M238.4,113.4c-0.4-0.1-0.8-0.2-1.2-0.2c-0.1,0-0.1,0-0.1,0.1
			c0,0.1,0,0.1,0.1,0.1c0.4,0.1,0.8,0.1,1.1,0.2c0,0,0,0,0,0c0.1,0,0.1,0,0.1-0.1C238.5,113.4,238.4,113.4,238.4,113.4z
			 M233.7,113.1c-0.4,0.1-0.8,0.1-1.1,0.2c-0.1,0-0.1,0.1-0.1,0.1c0,0.1,0.1,0.1,0.1,0.1c0,0,0,0,0,0c0.4-0.1,0.7-0.2,1.1-0.2
			c0.1,0,0.1-0.1,0.1-0.1C233.9,113.2,233.8,113.1,233.7,113.1z M231.6,113.8c0-0.1-0.1-0.1-0.2-0.1c-0.4,0.1-0.7,0.3-1.1,0.5
			c-0.1,0-0.1,0.1,0,0.2c0,0,0.1,0.1,0.1,0.1c0,0,0,0,0.1,0c0.3-0.2,0.7-0.3,1-0.5C231.6,113.9,231.6,113.8,231.6,113.8z
			 M229.5,114.8c0-0.1-0.1-0.1-0.2,0c-0.3,0.2-0.6,0.5-0.9,0.7c0,0,0,0.1,0,0.2c0,0,0.1,0,0.1,0c0,0,0.1,0,0.1,0
			c0.3-0.3,0.6-0.5,0.9-0.7C229.6,115,229.6,114.9,229.5,114.8z M227.8,116.4c0,0-0.1,0-0.2,0c-0.2,0.3-0.5,0.6-0.7,1
			c0,0.1,0,0.1,0,0.2c0,0,0,0,0.1,0c0,0,0.1,0,0.1-0.1c0.2-0.3,0.4-0.6,0.7-0.9C227.9,116.5,227.9,116.4,227.8,116.4z M226.6,118.3
			c-0.1,0-0.1,0-0.2,0.1c-0.2,0.4-0.3,0.7-0.4,1.1c0,0.1,0,0.1,0.1,0.1c0,0,0,0,0,0c0,0,0.1,0,0.1-0.1c0.1-0.4,0.2-0.7,0.4-1.1
			C226.7,118.4,226.7,118.4,226.6,118.3z M225.9,120.5c-0.1,0-0.1,0-0.1,0.1c-0.1,0.4-0.1,0.8-0.2,1.2c0,0.1,0,0.1,0.1,0.1h0
			c0.1,0,0.1,0,0.1-0.1c0-0.4,0.1-0.8,0.2-1.1C226,120.6,225.9,120.6,225.9,120.5z M225.8,123c0-0.1-0.1-0.1-0.1-0.1
			c-0.1,0-0.1,0.1-0.1,0.1c0,0.4,0,0.8,0.1,1.2c0,0.1,0.1,0.1,0.1,0.1c0,0,0,0,0,0c0.1,0,0.1-0.1,0.1-0.1
			C225.8,123.7,225.8,123.3,225.8,123z M241.7,124.7c-0.3-0.2-0.7-0.3-1.2-0.4c-0.1,0-0.1,0-0.1,0.1c0,0.1,0,0.1,0.1,0.1
			c0.4,0,0.7,0.1,1,0.3c0,0,0,0,0.1,0c0,0,0.1,0,0.1-0.1C241.7,124.8,241.7,124.8,241.7,124.7z M239.5,124.6c0-0.1-0.1-0.1-0.1-0.1
			c-0.3,0.1-0.7,0.3-1.1,0.5c-0.1,0-0.1,0.1,0,0.2c0,0,0.1,0.1,0.1,0.1c0,0,0,0,0.1,0c0.4-0.2,0.7-0.4,1-0.5
			C239.5,124.7,239.5,124.7,239.5,124.6z M226.4,126.3c-0.1-0.4-0.3-0.7-0.4-1.1c0-0.1-0.1-0.1-0.1-0.1c-0.1,0-0.1,0.1-0.1,0.1
			c0.1,0.4,0.2,0.7,0.4,1.1c0,0,0.1,0.1,0.1,0.1c0,0,0,0,0,0C226.4,126.4,226.5,126.4,226.4,126.3z M237.4,125.7
			c0-0.1-0.1-0.1-0.2,0c-0.3,0.2-0.6,0.5-0.9,0.8c0,0,0,0.1,0,0.2c0,0,0.1,0,0.1,0c0,0,0.1,0,0.1,0c0.3-0.3,0.6-0.5,0.9-0.7
			C237.5,125.8,237.5,125.7,237.4,125.7z M243,126.7c-0.1-0.4-0.3-0.8-0.5-1.1c0-0.1-0.1-0.1-0.2,0c-0.1,0-0.1,0.1,0,0.2
			c0.2,0.3,0.3,0.6,0.5,1c0,0.1,0.1,0.1,0.1,0.1c0,0,0,0,0,0C243,126.8,243,126.7,243,126.7z M235.7,127.2c0,0-0.1,0-0.2,0
			c-0.2,0.2-0.4,0.4-0.5,0.6c-0.1,0.1-0.2,0.2-0.2,0.3c0,0.1,0,0.1,0,0.2c0,0,0,0,0.1,0c0,0,0.1,0,0.1,0c0.1-0.1,0.2-0.2,0.2-0.3
			c0.2-0.2,0.4-0.4,0.5-0.6C235.8,127.4,235.8,127.3,235.7,127.2z M227.5,128.3c-0.2-0.3-0.4-0.6-0.6-1c0-0.1-0.1-0.1-0.2,0
			c-0.1,0-0.1,0.1,0,0.2c0.2,0.3,0.4,0.7,0.6,1c0,0,0.1,0,0.1,0c0,0,0,0,0.1,0C227.6,128.4,227.6,128.4,227.5,128.3z M243.2,127.8
			c0-0.1-0.1-0.1-0.1-0.1c-0.1,0-0.1,0.1-0.1,0.1c0,0.1,0,0.2,0,0.3c0,0.3,0,0.5-0.1,0.8c0,0.1,0,0.1,0.1,0.1h0c0.1,0,0.1,0,0.1-0.1
			c0-0.3,0.1-0.6,0.1-0.8C243.2,128.1,243.2,128,243.2,127.8z M229,130c-0.3-0.3-0.5-0.5-0.8-0.8c0,0-0.1-0.1-0.2,0
			c0,0-0.1,0.1,0,0.2c0.3,0.3,0.5,0.6,0.8,0.8c0,0,0.1,0,0.1,0c0,0,0.1,0,0.1,0C229.1,130.2,229.1,130.1,229,130z M234.3,129
			c-0.1,0-0.1,0-0.2,0c-0.2,0.3-0.4,0.7-0.6,1c0,0.1,0,0.1,0.1,0.2c0,0,0,0,0,0c0,0,0.1,0,0.1-0.1c0.2-0.3,0.3-0.7,0.5-1
			C234.3,129.1,234.3,129.1,234.3,129z M242.8,130c-0.1,0-0.1,0-0.1,0.1c-0.1,0.4-0.3,0.7-0.5,1c0,0.1,0,0.1,0,0.2c0,0,0,0,0.1,0
			c0,0,0.1,0,0.1-0.1c0.2-0.3,0.4-0.7,0.5-1.1C242.9,130.1,242.9,130,242.8,130z M230.9,131.5c-0.3-0.2-0.6-0.4-0.9-0.7
			c0,0-0.1,0-0.2,0c0,0.1,0,0.1,0,0.2c0.3,0.2,0.6,0.5,1,0.7c0,0,0,0,0.1,0c0,0,0.1,0,0.1-0.1C230.9,131.6,230.9,131.5,230.9,131.5z
			 M233.3,131.1c-0.1,0-0.1,0-0.1,0.1c-0.1,0.4-0.2,0.7-0.3,1.1c0,0.1,0,0.1,0.1,0.1c0,0,0,0,0,0c0.1,0,0.1,0,0.1-0.1
			c0.1-0.4,0.2-0.8,0.3-1.1C233.4,131.2,233.3,131.2,233.3,131.1z M232.9,132.6c-0.3-0.2-0.7-0.3-1-0.5c-0.1,0-0.1,0-0.2,0
			c0,0.1,0,0.1,0,0.2c0.3,0.2,0.7,0.4,1.1,0.5c0,0,0,0,0,0c0,0,0.1,0,0.1-0.1C233,132.6,232.9,132.6,232.9,132.6z M241.7,132
			c0,0-0.1,0-0.2,0c-0.3,0.3-0.6,0.5-0.9,0.7c-0.1,0-0.1,0.1,0,0.2c0,0,0.1,0.1,0.1,0.1c0,0,0,0,0.1,0c0.3-0.2,0.7-0.4,0.9-0.7
			C241.7,132.1,241.7,132.1,241.7,132z M235.1,133.3c-0.4-0.1-0.7-0.2-1.1-0.3c-0.1,0-0.1,0-0.1,0.1c0,0.1,0,0.1,0.1,0.1
			c0.4,0.1,0.8,0.2,1.1,0.3c0,0,0,0,0,0c0.1,0,0.1,0,0.1-0.1C235.2,133.3,235.1,133.3,235.1,133.3z M239.7,133.3
			c0-0.1-0.1-0.1-0.1-0.1c-0.3,0.1-0.7,0.2-1.1,0.3c-0.1,0-0.1,0.1-0.1,0.1c0,0.1,0.1,0.1,0.1,0.1c0,0,0,0,0,0
			c0.4-0.1,0.8-0.1,1.1-0.3C239.7,133.4,239.8,133.3,239.7,133.3z M237.3,133.5L237.3,133.5c-0.4,0-0.8,0-1.1-0.1
			c-0.1,0-0.1,0-0.1,0.1c0,0.1,0,0.1,0.1,0.1c0.4,0,0.8,0.1,1.2,0.1h0c0.1,0,0.1-0.1,0.1-0.1C237.5,133.6,237.4,133.5,237.3,133.5z
			 M232.8,133.4c-0.1,0-0.1,0-0.1,0.1c0,0.4-0.1,0.8-0.1,1.2c0,0.1,0.1,0.1,0.1,0.1c0,0,0,0,0,0c0.1,0,0.1-0.1,0.1-0.1
			c0-0.4,0-0.8,0.1-1.2C232.9,133.5,232.9,133.4,232.8,133.4z M232.9,135.8c0-0.1-0.1-0.1-0.1-0.1c-0.1,0-0.1,0.1-0.1,0.1
			c0,0.4,0.1,0.8,0.1,1.2c0,0.1,0.1,0.1,0.1,0.1c0,0,0,0,0,0c0.1,0,0.1-0.1,0.1-0.1C232.9,136.6,232.9,136.2,232.9,135.8z
			 M233.4,139.3c-0.1-0.4-0.2-0.8-0.2-1.1c0-0.1-0.1-0.1-0.1-0.1c-0.1,0-0.1,0.1-0.1,0.1c0.1,0.4,0.2,0.8,0.2,1.1
			c0,0.1,0.1,0.1,0.1,0.1c0,0,0,0,0,0C233.4,139.4,233.4,139.3,233.4,139.3z M234,141.5c-0.1-0.4-0.2-0.7-0.3-1.1
			c0-0.1-0.1-0.1-0.1-0.1c-0.1,0-0.1,0.1-0.1,0.1c0.1,0.4,0.2,0.7,0.3,1.1c0,0,0.1,0.1,0.1,0.1c0,0,0,0,0,0
			C234,141.6,234.1,141.5,234,141.5z M234.8,143.7c-0.1-0.4-0.3-0.7-0.4-1.1c0-0.1-0.1-0.1-0.1-0.1c-0.1,0-0.1,0.1-0.1,0.1
			c0.1,0.4,0.3,0.7,0.4,1.1c0,0,0.1,0.1,0.1,0.1c0,0,0,0,0,0C234.8,143.8,234.9,143.7,234.8,143.7z M235.8,145.8
			c-0.2-0.4-0.3-0.7-0.5-1.1c0-0.1-0.1-0.1-0.2-0.1c-0.1,0-0.1,0.1-0.1,0.2c0.2,0.3,0.3,0.7,0.5,1.1c0,0,0.1,0.1,0.1,0.1
			c0,0,0,0,0,0C235.8,145.9,235.8,145.8,235.8,145.8z M236.8,147.9c-0.2-0.3-0.4-0.7-0.5-1c0-0.1-0.1-0.1-0.2-0.1
			c-0.1,0-0.1,0.1-0.1,0.2c0.2,0.3,0.3,0.7,0.5,1c0,0,0.1,0.1,0.1,0.1c0,0,0,0,0.1,0C236.8,148,236.8,147.9,236.8,147.9z
			 M237.9,149.9c-0.2-0.3-0.4-0.7-0.6-1c0-0.1-0.1-0.1-0.2,0c-0.1,0-0.1,0.1,0,0.2c0.2,0.3,0.4,0.7,0.6,1c0,0,0.1,0.1,0.1,0.1
			c0,0,0,0,0.1,0C237.9,150,237.9,150,237.9,149.9z M239.1,151.9c-0.2-0.3-0.4-0.7-0.6-1c0-0.1-0.1-0.1-0.2,0c-0.1,0-0.1,0.1,0,0.2
			c0.2,0.3,0.4,0.7,0.6,1c0,0,0.1,0.1,0.1,0.1c0,0,0,0,0.1,0C239.1,152,239.1,151.9,239.1,151.9z M240.4,153.8
			c-0.2-0.3-0.4-0.6-0.6-1c0-0.1-0.1-0.1-0.2,0c-0.1,0-0.1,0.1,0,0.2c0.2,0.3,0.4,0.7,0.6,1c0,0,0.1,0.1,0.1,0.1c0,0,0,0,0.1,0
			C240.4,154,240.4,153.9,240.4,153.8z M241.7,155.7c0,0-0.3-0.3-0.7-0.9c0-0.1-0.1-0.1-0.2,0c-0.1,0-0.1,0.1,0,0.2
			c0.4,0.6,0.7,0.9,0.7,0.9c0,0,0.1,0,0.1,0c0,0,0,0,0.1,0C241.8,155.9,241.8,155.8,241.7,155.7z"/>
	</g>
	<g>
		<path class="st13" d="M280.5,118.8c-0.4-0.1-0.8-0.2-1.2-0.3c-0.1,0-0.1,0-0.1,0.1c0,0.1,0,0.1,0.1,0.1c0.4,0,0.7,0.1,1.1,0.2
			c0,0,0,0,0,0c0,0,0.1,0,0.1-0.1C280.6,118.8,280.5,118.8,280.5,118.8z M278.3,118.7c0-0.1-0.1-0.1-0.1-0.1c-0.4,0.1-0.8,0.3-1,0.6
			c0,0,0,0.1,0,0.2c0,0,0,0,0.1,0c0,0,0.1,0,0.1,0c0.2-0.3,0.5-0.5,0.9-0.6C278.2,118.8,278.3,118.7,278.3,118.7z M282.4,120.1
			c-0.3-0.3-0.6-0.5-0.9-0.8c-0.1,0-0.1,0-0.2,0c0,0.1,0,0.1,0,0.2c0.3,0.2,0.6,0.4,0.9,0.7c0,0,0.1,0,0.1,0c0,0,0.1,0,0.1,0
			C282.5,120.2,282.5,120.1,282.4,120.1z M277.2,121.5c-0.1-0.4-0.2-0.7-0.2-1.1l0,0c0-0.1-0.1-0.1-0.1-0.1c-0.1,0-0.1,0.1-0.1,0.1
			v0c0,0.4,0.1,0.7,0.2,1.2c0,0,0.1,0.1,0.1,0.1c0,0,0,0,0,0C277.1,121.6,277.2,121.6,277.2,121.5z M283.8,121.9
			c-0.2-0.3-0.4-0.7-0.6-1c0-0.1-0.1-0.1-0.2,0c-0.1,0-0.1,0.1,0,0.2c0.2,0.3,0.4,0.6,0.6,1c0,0,0.1,0.1,0.1,0.1c0,0,0,0,0.1,0
			C283.8,122.1,283.9,122,283.8,121.9z M278.4,123.4c-0.3-0.3-0.5-0.6-0.7-0.9c0-0.1-0.1-0.1-0.2,0c-0.1,0-0.1,0.1,0,0.2
			c0.2,0.3,0.5,0.6,0.7,0.9c0,0,0.1,0,0.1,0c0,0,0.1,0,0.1,0C278.4,123.5,278.4,123.4,278.4,123.4z M284.8,124.1
			c-0.1-0.4-0.3-0.7-0.4-1.1c0-0.1-0.1-0.1-0.2-0.1c-0.1,0-0.1,0.1-0.1,0.2c0.2,0.3,0.3,0.7,0.4,1.1c0,0,0.1,0.1,0.1,0.1
			c0,0,0,0,0,0C284.8,124.2,284.8,124.1,284.8,124.1z M280.2,124.8c-0.3-0.2-0.6-0.4-0.9-0.7c0,0-0.1,0-0.2,0c0,0,0,0.1,0,0.2
			c0.3,0.2,0.6,0.5,1,0.7c0,0,0,0,0.1,0c0,0,0.1,0,0.1-0.1C280.2,124.9,280.2,124.9,280.2,124.8z M282.2,125.8
			c-0.4-0.1-0.7-0.3-1.1-0.4c-0.1,0-0.1,0-0.2,0.1c0,0.1,0,0.1,0.1,0.2c0.3,0.2,0.7,0.3,1.1,0.4c0,0,0,0,0,0c0,0,0.1,0,0.1-0.1
			C282.3,125.9,282.3,125.8,282.2,125.8z M290.7,125.9c0-0.1-0.1-0.1-0.1-0.1c-0.1,0-0.3,0.1-0.4,0.1c-0.1,0-0.1,0.1-0.1,0.1
			c0,0.1,0.1,0.1,0.1,0.1c0,0,0,0,0,0c0.1,0,0.3-0.1,0.4-0.1C290.7,126,290.7,126,290.7,125.9z M285.1,125.2c0-0.1-0.1-0.1-0.1-0.1
			c-0.1,0-0.1,0.1-0.1,0.1c0.1,0.4,0.2,0.8,0.2,1.1c0,0.1,0.1,0.1,0.1,0.1c0,0,0,0,0,0c0.1,0,0.1-0.1,0.1-0.1
			C285.2,126,285.2,125.6,285.1,125.2z M284.5,126.3c-0.4-0.1-0.8-0.1-1.1-0.2c-0.1,0-0.1,0-0.1,0.1c0,0.1,0,0.1,0.1,0.1
			c0.4,0.1,0.8,0.2,1.2,0.2c0,0,0,0,0,0c0.1,0,0.1,0,0.1-0.1C284.6,126.4,284.5,126.3,284.5,126.3z M289,126.2
			c-0.4,0.1-0.8,0.1-1.1,0.2c-0.1,0-0.1,0.1-0.1,0.1c0,0.1,0.1,0.1,0.1,0.1c0,0,0,0,0,0c0.4,0,0.8-0.1,1.2-0.2
			c0.1,0,0.1-0.1,0.1-0.1C289.2,126.2,289.1,126.2,289,126.2z M286.8,126.4c-0.2,0-0.4,0-0.6,0c-0.2,0-0.4,0-0.6,0
			c-0.1,0-0.1,0-0.1,0.1c0,0.1,0,0.1,0.1,0.1c0.2,0,0.4,0,0.6,0h0c0.2,0,0.4,0,0.6,0c0.1,0,0.1-0.1,0.1-0.1
			C286.9,126.5,286.8,126.4,286.8,126.4z M285.4,127.5c0-0.1-0.1-0.1-0.1-0.1c-0.1,0-0.1,0.1-0.1,0.1c0,0.1,0,0.2,0,0.3
			c0,0.3,0,0.6,0,0.8c0,0.1,0,0.1,0.1,0.1h0c0.1,0,0.1,0,0.1-0.1c0-0.3,0-0.6,0-0.9C285.4,127.7,285.4,127.6,285.4,127.5z
			 M285.1,129.7c-0.1,0-0.1,0-0.1,0.1c-0.1,0.4-0.2,0.8-0.3,1.1c0,0.1,0,0.1,0.1,0.1c0,0,0,0,0,0c0,0,0.1,0,0.1-0.1
			c0.1-0.4,0.2-0.7,0.3-1.1C285.2,129.8,285.2,129.7,285.1,129.7z M284.4,131.9c-0.1,0-0.1,0-0.2,0c-0.2,0.3-0.4,0.7-0.6,1
			c0,0.1,0,0.1,0,0.2c0,0,0,0,0.1,0c0,0,0.1,0,0.1,0c0.2-0.3,0.4-0.6,0.6-1C284.5,132,284.4,132,284.4,131.9z M283,133.8
			c0,0-0.1,0-0.2,0c-0.3,0.3-0.6,0.5-0.9,0.7c-0.1,0-0.1,0.1,0,0.2c0,0,0.1,0.1,0.1,0.1c0,0,0,0,0.1,0c0.3-0.2,0.6-0.5,0.9-0.7
			C283,133.9,283.1,133.8,283,133.8z M265.1,135.1c-0.7-0.2-1.1-0.4-1.1-0.4c-0.1,0-0.1,0-0.2,0.1c0,0.1,0,0.1,0.1,0.2
			c0,0,0.4,0.2,1.1,0.4c0,0,0,0,0,0c0,0,0.1,0,0.1-0.1C265.2,135.1,265.2,135.1,265.1,135.1z M281.1,135.1c0-0.1-0.1-0.1-0.2-0.1
			c-0.3,0.2-0.7,0.3-1.1,0.4c-0.1,0-0.1,0.1-0.1,0.1c0,0,0.1,0.1,0.1,0.1c0,0,0,0,0,0c0.4-0.1,0.7-0.3,1.1-0.4
			C281.1,135.2,281.1,135.2,281.1,135.1z M267.3,135.7c-0.4-0.1-0.8-0.2-1.1-0.3c-0.1,0-0.1,0-0.1,0.1c0,0.1,0,0.1,0.1,0.1
			c0.4,0.1,0.8,0.2,1.1,0.3c0,0,0,0,0,0c0.1,0,0.1,0,0.1-0.1C267.4,135.8,267.4,135.7,267.3,135.7z M278.9,135.9
			c0-0.1-0.1-0.1-0.1-0.1c-0.4,0.1-0.7,0.2-1.1,0.3c-0.1,0-0.1,0.1-0.1,0.1c0,0.1,0.1,0.1,0.1,0.1c0,0,0,0,0,0
			c0.4-0.1,0.8-0.2,1.1-0.3C278.9,136,278.9,136,278.9,135.9z M269.6,136.1c-0.4-0.1-0.8-0.1-1.1-0.2c-0.1,0-0.1,0-0.1,0.1
			c0,0.1,0,0.1,0.1,0.1c0.4,0.1,0.8,0.1,1.1,0.2c0,0,0,0,0,0c0.1,0,0.1,0,0.1-0.1C269.7,136.2,269.7,136.1,269.6,136.1z
			 M271.9,136.4c-0.4,0-0.8-0.1-1.2-0.1c-0.1,0-0.1,0-0.1,0.1c0,0.1,0,0.1,0.1,0.1c0.4,0,0.8,0.1,1.2,0.1h0c0.1,0,0.1,0,0.1-0.1
			C272,136.5,272,136.4,271.9,136.4z M276.5,136.3c-0.4,0.1-0.8,0.1-1.1,0.1c-0.1,0-0.1,0.1-0.1,0.1c0,0.1,0.1,0.1,0.1,0.1h0
			c0.4,0,0.8-0.1,1.2-0.1c0.1,0,0.1-0.1,0.1-0.1C276.6,136.3,276.6,136.3,276.5,136.3z M274.2,136.5c-0.4,0-0.8,0-1.2,0
			c-0.1,0-0.1,0-0.1,0.1c0,0.1,0,0.1,0.1,0.1c0.2,0,0.5,0,0.7,0c0.2,0,0.3,0,0.5,0c0.1,0,0.1-0.1,0.1-0.1
			C274.3,136.5,274.3,136.5,274.2,136.5z"/>
	</g>
	<g>
		<path class="st13" d="M262.1,157.6c-0.4,0-0.8,0-1.2,0.1c-0.1,0-0.1,0.1-0.1,0.1c0,0.1,0.1,0.1,0.1,0.1c0,0,0,0,0,0
			c0.4,0,0.8,0,1.2-0.1c0.1,0,0.1-0.1,0.1-0.1C262.2,157.6,262.2,157.5,262.1,157.6z M264.4,157.6c-0.4,0-0.8-0.1-1.2-0.1
			c-0.1,0-0.1,0-0.1,0.1c0,0.1,0,0.1,0.1,0.1c0.4,0,0.8,0,1.1,0.1c0,0,0,0,0,0c0.1,0,0.1,0,0.1-0.1
			C264.5,157.7,264.5,157.7,264.4,157.6z M259.8,157.7c-0.4,0-0.8,0.1-1.2,0.2c-0.1,0-0.1,0.1-0.1,0.1c0,0.1,0.1,0.1,0.1,0.1
			c0,0,0,0,0,0c0.4-0.1,0.8-0.1,1.1-0.2c0.1,0,0.1-0.1,0.1-0.1S259.8,157.7,259.8,157.7z M266.7,158.1c-0.4-0.1-0.8-0.2-1.1-0.3
			c-0.1,0-0.1,0-0.1,0.1c0,0.1,0,0.1,0.1,0.1c0.4,0.1,0.8,0.2,1.1,0.3c0,0,0,0,0,0c0,0,0.1,0,0.1-0.1
			C266.8,158.2,266.8,158.1,266.7,158.1z M257.6,158.2c0-0.1-0.1-0.1-0.1-0.1c-0.4,0.1-0.8,0.2-1.1,0.3c-0.1,0-0.1,0.1-0.1,0.1
			c0,0.1,0.1,0.1,0.1,0.1c0,0,0,0,0,0c0.4-0.1,0.7-0.2,1.1-0.3C257.6,158.3,257.6,158.3,257.6,158.2z M268.9,159
			c-0.3-0.2-0.7-0.4-1.1-0.5c-0.1,0-0.1,0-0.2,0.1c0,0.1,0,0.1,0.1,0.2c0.4,0.1,0.7,0.3,1,0.5c0,0,0,0,0.1,0c0,0,0.1,0,0.1-0.1
			C269,159.1,268.9,159.1,268.9,159z M255.4,158.9c0-0.1-0.1-0.1-0.2-0.1c-0.4,0.1-0.7,0.3-1.1,0.5c-0.1,0-0.1,0.1-0.1,0.2
			c0,0,0.1,0.1,0.1,0.1c0,0,0,0,0,0c0.3-0.2,0.7-0.3,1.1-0.4C255.4,159,255.4,158.9,255.4,158.9z M270.8,160.4
			c-0.3-0.3-0.6-0.5-0.9-0.7c-0.1,0-0.1,0-0.2,0c0,0.1,0,0.1,0,0.2c0.3,0.2,0.6,0.5,0.9,0.7c0,0,0,0,0.1,0c0,0,0.1,0,0.1,0
			C270.8,160.5,270.8,160.4,270.8,160.4z M253.3,159.8c0-0.1-0.1-0.1-0.2,0c-0.3,0.2-0.7,0.4-1,0.6c-0.1,0-0.1,0.1,0,0.2
			c0,0,0.1,0.1,0.1,0.1c0,0,0,0,0.1,0c0.3-0.2,0.7-0.4,1-0.6C253.3,160,253.3,159.9,253.3,159.8z M251.3,161.1c0-0.1-0.1-0.1-0.2,0
			c-0.3,0.2-0.6,0.5-0.9,0.7c0,0-0.1,0.1,0,0.2c0,0,0.1,0,0.1,0c0,0,0.1,0,0.1,0c0.3-0.3,0.6-0.5,0.9-0.7
			C251.4,161.2,251.4,161.1,251.3,161.1z M272.3,162.2c-0.2-0.3-0.5-0.6-0.7-0.9c0,0-0.1-0.1-0.2,0c0,0-0.1,0.1,0,0.2
			c0.3,0.3,0.5,0.6,0.7,0.9c0,0,0.1,0.1,0.1,0.1c0,0,0,0,0.1,0C272.4,162.3,272.4,162.2,272.3,162.2z M306.9,163.1
			c-0.4,0-0.8,0-1.2,0.1c-0.1,0-0.1,0.1-0.1,0.1c0,0.1,0.1,0.1,0.1,0.1c0,0,0,0,0,0c0.4,0,0.8-0.1,1.1-0.1c0.1,0,0.1,0,0.1-0.1
			C307,163.2,306.9,163.1,306.9,163.1z M249.6,162.6c0,0-0.1,0-0.2,0c-0.5,0.5-0.7,0.9-0.7,0.9c0,0.1,0,0.1,0,0.2c0,0,0,0,0.1,0
			c0,0,0.1,0,0.1-0.1c0,0,0.2-0.4,0.7-0.9C249.6,162.8,249.6,162.7,249.6,162.6z M309.2,163.6c-0.4-0.1-0.7-0.3-1.1-0.3
			c-0.1,0-0.1,0-0.1,0.1c0,0.1,0,0.1,0.1,0.1c0.4,0.1,0.7,0.2,1.1,0.3c0,0,0,0,0,0c0,0,0.1,0,0.1-0.1
			C309.2,163.7,309.2,163.6,309.2,163.6z M304.7,163.5c0-0.1-0.1-0.1-0.1-0.1c-0.4,0.1-0.7,0.2-1.1,0.4c-0.1,0-0.1,0.1-0.1,0.2
			c0,0,0.1,0.1,0.1,0.1c0,0,0,0,0,0c0.4-0.2,0.7-0.3,1.1-0.4C304.6,163.6,304.7,163.6,304.7,163.5z M273.3,164.3
			c-0.1-0.4-0.2-0.7-0.4-1.1c0-0.1-0.1-0.1-0.2-0.1c-0.1,0-0.1,0.1-0.1,0.2c0.2,0.3,0.3,0.7,0.4,1.1c0,0.1,0.1,0.1,0.1,0.1
			c0,0,0,0,0,0C273.3,164.4,273.3,164.4,273.3,164.3z M302.5,164.4c0-0.1-0.1-0.1-0.2,0c-0.3,0.2-0.7,0.4-1,0.6
			c-0.1,0-0.1,0.1,0,0.2c0,0,0.1,0,0.1,0c0,0,0,0,0.1,0c0.3-0.2,0.6-0.4,1-0.6C302.5,164.5,302.6,164.4,302.5,164.4z M300.6,165.7
			c0,0-0.1-0.1-0.2,0c-0.3,0.3-0.6,0.5-0.8,0.8c0,0,0,0.1,0,0.2c0,0,0.1,0,0.1,0c0,0,0.1,0,0.1,0c0.3-0.3,0.5-0.6,0.8-0.8
			C300.7,165.8,300.7,165.8,300.6,165.7z M273.5,165.5c0-0.1-0.1-0.1-0.1-0.1c-0.1,0-0.1,0.1-0.1,0.1c0,0.2,0,0.4,0,0.6
			c0,0.2,0,0.4,0,0.5c0,0.1,0,0.1,0.1,0.1h0c0.1,0,0.1,0,0.1-0.1c0-0.2,0-0.4,0-0.6C273.6,165.9,273.6,165.7,273.5,165.5z
			 M299,167.4c-0.1,0-0.1,0-0.2,0c-0.2,0.3-0.5,0.6-0.7,0.9c0,0.1,0,0.1,0,0.2c0,0,0,0,0.1,0c0,0,0.1,0,0.1-0.1
			c0.2-0.3,0.4-0.6,0.7-0.9C299.1,167.5,299.1,167.4,299,167.4z M273.2,167.6c-0.1,0-0.1,0-0.1,0.1c-0.1,0.4-0.3,0.7-0.5,1
			c0,0.1,0,0.1,0,0.2c0,0,0,0,0.1,0c0,0,0.1,0,0.1-0.1c0.2-0.3,0.4-0.7,0.5-1.1C273.3,167.7,273.3,167.7,273.2,167.6z M297.7,169.3
			c-0.1,0-0.1,0-0.2,0c-0.2,0.3-0.4,0.7-0.5,1c0,0.1,0,0.1,0.1,0.2c0,0,0,0,0,0c0,0,0.1,0,0.1-0.1c0.2-0.3,0.3-0.7,0.5-1
			C297.8,169.4,297.8,169.3,297.7,169.3z M272.1,169.7c0,0-0.1,0-0.2,0c-0.2,0.3-0.5,0.5-0.8,0.8c0,0-0.1,0.1,0,0.2c0,0,0.1,0,0.1,0
			c0,0,0.1,0,0.1,0c0.3-0.3,0.6-0.5,0.9-0.8C272.2,169.8,272.2,169.7,272.1,169.7z M270.4,171.1c0-0.1-0.1-0.1-0.2,0
			c-0.3,0.2-0.7,0.3-1,0.5c-0.1,0-0.1,0.1-0.1,0.2c0,0,0.1,0.1,0.1,0.1c0,0,0,0,0,0c0.4-0.2,0.7-0.3,1.1-0.5
			C270.4,171.3,270.4,171.2,270.4,171.1z M296.7,171.4c-0.1,0-0.1,0-0.2,0.1c-0.1,0.4-0.3,0.7-0.4,1.1c0,0.1,0,0.1,0.1,0.1
			c0,0,0,0,0,0c0,0,0.1,0,0.1-0.1c0.1-0.4,0.3-0.7,0.4-1.1C296.8,171.5,296.8,171.4,296.7,171.4z M268.2,172.1
			c0-0.1-0.1-0.1-0.2-0.1c-0.4,0.2-0.7,0.3-1.1,0.5c-0.1,0-0.1,0.1,0,0.2c0,0,0.1,0.1,0.1,0.1c0,0,0,0,0.1,0c0.3-0.2,0.7-0.4,1-0.5
			C268.2,172.2,268.3,172.1,268.2,172.1z M266.2,173.2c0-0.1-0.1-0.1-0.2,0c-0.3,0.2-0.6,0.5-0.9,0.8c0,0,0,0.1,0,0.2
			c0,0,0.1,0,0.1,0c0,0,0.1,0,0.1,0c0.3-0.3,0.6-0.5,0.9-0.8C266.2,173.3,266.3,173.3,266.2,173.2z M295.9,173.6
			c-0.1,0-0.1,0-0.1,0.1c-0.1,0.4-0.2,0.7-0.3,1.1c0,0.1,0,0.1,0.1,0.1c0,0,0,0,0,0c0.1,0,0.1,0,0.1-0.1c0.1-0.4,0.2-0.8,0.3-1.1
			C296,173.7,296,173.6,295.9,173.6z M264.6,174.9c-0.1,0-0.1,0-0.2,0c-0.2,0.3-0.5,0.6-0.6,1c0,0.1,0,0.1,0,0.2c0,0,0,0,0.1,0
			c0,0,0.1,0,0.1-0.1c0.2-0.3,0.4-0.7,0.6-1C264.6,175,264.6,174.9,264.6,174.9z M295.4,175.8c-0.1,0-0.1,0-0.1,0.1
			c-0.1,0.4-0.2,0.8-0.3,1.1c0,0.1,0,0.1,0.1,0.1c0,0,0,0,0,0c0.1,0,0.1,0,0.1-0.1c0.1-0.4,0.2-0.7,0.3-1.1
			C295.5,175.9,295.4,175.8,295.4,175.8z M263.4,176.9c-0.1,0-0.1,0-0.2,0.1c-0.2,0.4-0.3,0.7-0.4,1.1c0,0.1,0,0.1,0.1,0.1
			c0,0,0,0,0,0c0.1,0,0.1,0,0.1-0.1c0.1-0.4,0.2-0.7,0.4-1.1C263.5,176.9,263.5,176.9,263.4,176.9z M294.8,178.1
			c-0.1,0-0.1,0-0.1,0.1c-0.1,0.4-0.2,0.7-0.4,1.1c0,0.1,0,0.1,0.1,0.1c0,0,0,0,0,0c0,0,0.1,0,0.1-0.1c0.1-0.4,0.2-0.7,0.4-1.1
			C294.9,178.2,294.8,178.1,294.8,178.1z M262.8,179.1c-0.1,0-0.1,0-0.1,0.1c-0.1,0.4-0.1,0.8-0.1,1.2c0,0.1,0,0.1,0.1,0.1h0
			c0.1,0,0.1,0,0.1-0.1c0-0.4,0.1-0.8,0.1-1.1C262.9,179.1,262.8,179.1,262.8,179.1z M294,180.3c-0.1,0-0.1,0-0.2,0.1
			c-0.1,0.4-0.3,0.7-0.5,1.1c0,0.1,0,0.1,0.1,0.2c0,0,0,0,0,0c0,0,0.1,0,0.1-0.1c0.2-0.3,0.3-0.7,0.5-1.1
			C294.1,180.4,294.1,180.3,294,180.3z M262.9,182.6c-0.1-0.4-0.1-0.8-0.2-1.1c0-0.1-0.1-0.1-0.1-0.1c-0.1,0-0.1,0.1-0.1,0.1
			c0,0.4,0.1,0.8,0.2,1.2c0,0.1,0.1,0.1,0.1,0.1c0,0,0,0,0,0C262.9,182.8,262.9,182.7,262.9,182.6z M293.1,182.4c-0.1,0-0.1,0-0.2,0
			c-0.2,0.3-0.4,0.7-0.6,1c0,0.1,0,0.1,0,0.2c0,0,0,0,0.1,0c0,0,0.1,0,0.1-0.1c0.2-0.3,0.4-0.7,0.6-1
			C293.1,182.5,293.1,182.4,293.1,182.4z M263.6,184.8c-0.2-0.3-0.3-0.7-0.4-1.1c0-0.1-0.1-0.1-0.1-0.1c-0.1,0-0.1,0.1-0.1,0.1
			c0.1,0.4,0.3,0.7,0.4,1.1c0,0,0.1,0.1,0.1,0.1c0,0,0,0,0.1,0C263.6,184.9,263.7,184.9,263.6,184.8z M291.9,184.4
			c-0.1,0-0.1,0-0.2,0c-0.2,0.3-0.5,0.6-0.7,0.9c0,0,0,0.1,0,0.2c0,0,0,0,0.1,0c0,0,0.1,0,0.1,0c0.2-0.3,0.5-0.6,0.7-0.9
			C291.9,184.5,291.9,184.4,291.9,184.4z M264.9,186.7c-0.2-0.3-0.5-0.6-0.7-0.9c0-0.1-0.1-0.1-0.2,0c-0.1,0-0.1,0.1,0,0.2
			c0.2,0.3,0.4,0.6,0.7,0.9c0,0,0.1,0,0.1,0c0,0,0.1,0,0.1,0C264.9,186.9,264.9,186.8,264.9,186.7z M290.4,186.2c0,0-0.1,0-0.2,0
			c-0.3,0.3-0.6,0.5-0.8,0.8c0,0-0.1,0.1,0,0.2c0,0,0.1,0,0.1,0c0,0,0.1,0,0.1,0c0.3-0.3,0.6-0.5,0.9-0.8
			C290.4,186.3,290.4,186.2,290.4,186.2z M288.6,187.7c0-0.1-0.1-0.1-0.2,0c-0.3,0.2-0.6,0.4-1,0.6c-0.1,0-0.1,0.1,0,0.2
			c0,0,0.1,0.1,0.1,0.1c0,0,0,0,0.1,0c0.3-0.2,0.7-0.4,1-0.6C288.7,187.8,288.7,187.7,288.6,187.7z M266.5,188.3
			c-0.3-0.2-0.6-0.5-0.9-0.7c0,0-0.1,0-0.2,0c0,0,0,0.1,0,0.2c0.3,0.3,0.6,0.5,0.9,0.8c0,0,0,0,0.1,0c0,0,0.1,0,0.1,0
			C266.6,188.4,266.6,188.3,266.5,188.3z M286.7,188.9c0-0.1-0.1-0.1-0.2-0.1c-0.3,0.2-0.7,0.3-1,0.5c-0.1,0-0.1,0.1-0.1,0.2
			c0,0,0.1,0.1,0.1,0.1c0,0,0,0,0,0c0.4-0.1,0.7-0.3,1.1-0.5C286.7,189,286.7,189,286.7,188.9z M268.5,189.5c-0.4-0.2-0.7-0.3-1-0.5
			c-0.1,0-0.1,0-0.2,0c0,0.1,0,0.1,0,0.2c0.3,0.2,0.7,0.4,1,0.5c0,0,0,0,0,0c0,0,0.1,0,0.1-0.1C268.6,189.6,268.6,189.5,268.5,189.5
			z M284.5,189.8c0-0.1-0.1-0.1-0.1-0.1c-0.4,0.1-0.7,0.2-1.1,0.3c-0.1,0-0.1,0.1-0.1,0.1c0,0.1,0.1,0.1,0.1,0.1c0,0,0,0,0,0
			c0.4-0.1,0.8-0.2,1.1-0.3C284.5,189.9,284.6,189.9,284.5,189.8z M270.7,190.2c-0.4-0.1-0.7-0.2-1.1-0.3c-0.1,0-0.1,0-0.1,0.1
			c0,0.1,0,0.1,0.1,0.1c0.4,0.1,0.7,0.2,1.1,0.3c0,0,0,0,0,0c0.1,0,0.1,0,0.1-0.1C270.8,190.3,270.7,190.2,270.7,190.2z
			 M282.3,190.4c0-0.1-0.1-0.1-0.1-0.1c-0.4,0.1-0.8,0.1-1.1,0.2c-0.1,0-0.1,0.1-0.1,0.1c0,0.1,0.1,0.1,0.1,0.1c0,0,0,0,0,0
			c0.4-0.1,0.8-0.1,1.1-0.2C282.3,190.5,282.3,190.5,282.3,190.4z M272.9,190.6c-0.4,0-0.8-0.1-1.1-0.2c-0.1,0-0.1,0-0.1,0.1
			c0,0.1,0,0.1,0.1,0.1c0.4,0.1,0.8,0.1,1.2,0.2h0c0.1,0,0.1,0,0.1-0.1C273.1,190.7,273,190.6,272.9,190.6z M279.9,190.7
			c-0.4,0-0.8,0.1-1.2,0.1c-0.1,0-0.1,0.1-0.1,0.1c0,0.1,0.1,0.1,0.1,0.1c0,0,0,0,0,0c0.4,0,0.8-0.1,1.2-0.1c0.1,0,0.1-0.1,0.1-0.1
			C280,190.7,279.9,190.7,279.9,190.7z M275.3,190.8c-0.4,0-0.8,0-1.2-0.1c-0.1,0-0.1,0-0.1,0.1c0,0.1,0,0.1,0.1,0.1
			c0.4,0,0.8,0,1.2,0.1h0c0.1,0,0.1,0,0.1-0.1C275.4,190.8,275.3,190.8,275.3,190.8z M277.6,190.8c-0.3,0-0.6,0-0.9,0
			c-0.1,0-0.2,0-0.2,0c-0.1,0-0.1,0.1-0.1,0.1c0,0.1,0.1,0.1,0.1,0.1h0.2c0.3,0,0.6,0,0.9,0c0.1,0,0.1-0.1,0.1-0.1
			C277.7,190.9,277.6,190.8,277.6,190.8z"/>
	</g>
	<g>
		<path class="st13" d="M296.2,182.2c-0.4-0.6-0.7-0.9-0.7-0.9c0,0-0.1-0.1-0.2,0c-0.1,0-0.1,0.1,0,0.2c0,0,0.3,0.4,0.7,0.9
			c0,0,0.1,0.1,0.1,0.1c0,0,0,0,0.1,0C296.2,182.3,296.2,182.2,296.2,182.2z M297.4,184.1c-0.2-0.3-0.4-0.7-0.6-1
			c0-0.1-0.1-0.1-0.2,0c-0.1,0-0.1,0.1,0,0.2c0.2,0.3,0.4,0.7,0.6,1c0,0,0.1,0.1,0.1,0.1c0,0,0,0,0.1,0
			C297.5,184.3,297.5,184.2,297.4,184.1z M298.5,186.2c-0.1-0.3-0.3-0.7-0.5-1.1c0-0.1-0.1-0.1-0.2-0.1c-0.1,0-0.1,0.1-0.1,0.2
			c0.2,0.4,0.3,0.7,0.5,1c0,0,0.1,0.1,0.1,0.1c0,0,0,0,0,0C298.5,186.3,298.5,186.3,298.5,186.2z M299.2,188.4
			c-0.1-0.4-0.2-0.7-0.3-1.1c0-0.1-0.1-0.1-0.1-0.1c-0.1,0-0.1,0.1-0.1,0.1c0.1,0.4,0.2,0.7,0.3,1.1c0,0.1,0.1,0.1,0.1,0.1
			c0,0,0,0,0,0C299.2,188.6,299.2,188.5,299.2,188.4z M298.4,189.1c-0.4,0.1-0.8,0.2-1.1,0.3c-0.1,0-0.1,0.1-0.1,0.2
			c0,0,0.1,0.1,0.1,0.1c0,0,0,0,0,0c0.4-0.2,0.7-0.3,1.1-0.3c0.1,0,0.1-0.1,0.1-0.1C298.5,189.1,298.5,189.1,298.4,189.1z
			 M300.7,189.5c-0.4-0.2-0.8-0.3-1.1-0.4c-0.1,0-0.1,0-0.1,0.1c0,0.1,0,0.1,0.1,0.1c0.4,0.1,0.7,0.2,1.1,0.3c0,0,0,0,0,0
			c0,0,0.1,0,0.1-0.1C300.8,189.6,300.8,189.5,300.7,189.5z M299.4,189.6c0-0.1-0.1-0.1-0.1-0.1c-0.1,0-0.1,0.1-0.1,0.1
			c0,0.3,0,0.5,0,0.8c0,0.1,0,0.2,0,0.4c0,0.1,0,0.1,0.1,0.1h0c0.1,0,0.1,0,0.1-0.1c0-0.1,0-0.2,0-0.4
			C299.5,190.1,299.5,189.9,299.4,189.6z M296.4,190.1c0-0.1-0.1-0.1-0.2,0c-0.3,0.2-0.6,0.5-0.9,0.8c0,0,0,0.1,0,0.2
			c0,0,0.1,0,0.1,0c0,0,0.1,0,0.1,0c0.3-0.3,0.6-0.5,0.8-0.8C296.4,190.2,296.5,190.1,296.4,190.1z M302.7,190.8
			c-0.3-0.3-0.6-0.5-0.9-0.8c-0.1,0-0.1,0-0.2,0c0,0.1,0,0.1,0,0.2c0.3,0.2,0.6,0.5,0.9,0.7c0,0,0.1,0,0.1,0s0.1,0,0.1,0
			C302.7,191,302.7,190.9,302.7,190.8z M294.8,191.7c-0.1,0-0.1,0-0.2,0c-0.2,0.3-0.4,0.7-0.6,1c0,0.1,0,0.1,0.1,0.2c0,0,0,0,0,0
			c0,0,0.1,0,0.1-0.1c0.1-0.3,0.3-0.7,0.5-1C294.9,191.8,294.9,191.8,294.8,191.7z M303.9,192.8c-0.1-0.4-0.3-0.7-0.5-1.1
			c0-0.1-0.1-0.1-0.2,0c-0.1,0-0.1,0.1,0,0.2c0.2,0.3,0.3,0.7,0.5,1c0,0,0.1,0.1,0.1,0.1c0,0,0,0,0,0
			C303.8,193,303.9,192.9,303.9,192.8z M299.2,191.8c-0.1,0-0.1,0-0.1,0.1c-0.1,0.4-0.2,0.7-0.4,1c0,0.1,0,0.1,0,0.2c0,0,0,0,0.1,0
			c0,0,0.1,0,0.1-0.1c0.2-0.3,0.3-0.7,0.5-1.1C299.3,191.9,299.3,191.8,299.2,191.8z M298.1,193.8c0,0-0.1,0-0.2,0
			c-0.3,0.3-0.6,0.5-0.9,0.7c-0.1,0-0.1,0.1,0,0.2c0,0,0.1,0.1,0.1,0.1c0,0,0,0,0.1,0c0.3-0.2,0.7-0.5,0.9-0.7
			C298.1,193.9,298.1,193.9,298.1,193.8z M294.1,195c-0.1-0.2-0.1-0.4-0.1-0.7c0-0.1,0-0.3,0-0.4c0-0.1,0-0.1-0.1-0.1
			c-0.1,0-0.1,0-0.1,0.1c0,0.2,0,0.3,0,0.4c0,0.3,0.1,0.6,0.2,0.8c0,0,0.1,0.1,0.1,0.1c0,0,0,0,0.1,0
			C294.1,195.1,294.1,195.1,294.1,195z M304.1,194c0-0.1-0.1-0.1-0.1-0.1c-0.1,0-0.1,0.1-0.1,0.1c0,0.1,0,0.3,0,0.4
			c0,0.2,0,0.5,0,0.8c0,0.1,0,0.1,0.1,0.1c0,0,0,0,0,0c0.1,0,0.1,0,0.1-0.1c0-0.3,0-0.5,0-0.8C304.1,194.3,304.1,194.1,304.1,194z
			 M296.2,195.1c0-0.1-0.1-0.1-0.2-0.1c-0.4,0.2-0.8,0.3-1.1,0.3c-0.1,0-0.1,0.1-0.1,0.1c0,0.1,0.1,0.1,0.1,0.1h0
			c0.3,0,0.7-0.1,1.1-0.3C296.2,195.3,296.2,195.2,296.2,195.1z M303.7,196.2c-0.1,0-0.1,0-0.1,0.1c-0.1,0.4-0.2,0.7-0.4,1.1
			c0,0.1,0,0.1,0.1,0.2c0,0,0,0,0,0c0,0,0.1,0,0.1-0.1c0.2-0.4,0.3-0.7,0.4-1.1C303.8,196.3,303.8,196.2,303.7,196.2z M302.9,198.4
			c-0.1,0-0.1,0-0.2,0c-0.2,0.4-0.4,0.6-0.4,0.6c0,0.1,0,0.1,0,0.2c0,0,0,0,0.1,0c0,0,0.1,0,0.1,0c0,0,0.2-0.2,0.4-0.6
			C302.9,198.5,302.9,198.4,302.9,198.4z"/>
	</g>
	<g>
		<path class="st13" d="M310.4,126.4c-0.4,0-0.8,0-1.2,0c-0.1,0-0.1,0.1-0.1,0.1c0,0.1,0.1,0.1,0.1,0.1h0c0.4,0,0.8,0,1.2,0
			c0.1,0,0.1,0,0.1-0.1C310.5,126.5,310.4,126.4,310.4,126.4z M312.7,126.7c-0.4-0.1-0.8-0.1-1.2-0.2c-0.1,0-0.1,0-0.1,0.1
			c0,0.1,0,0.1,0.1,0.1c0.4,0,0.8,0.1,1.1,0.2c0,0,0,0,0,0c0.1,0,0.1,0,0.1-0.1C312.8,126.8,312.7,126.7,312.7,126.7z M314.9,127.4
			c-0.4-0.2-0.7-0.3-1.1-0.4c-0.1,0-0.1,0-0.1,0.1c0,0.1,0,0.1,0.1,0.1c0.4,0.1,0.7,0.3,1.1,0.4c0,0,0,0,0,0c0,0,0.1,0,0.1-0.1
			C315,127.5,315,127.5,314.9,127.4z M317,128.5c-0.3-0.2-0.7-0.4-1-0.6c-0.1,0-0.1,0-0.2,0c0,0.1,0,0.1,0,0.2
			c0.3,0.2,0.7,0.4,1,0.6c0,0,0,0,0.1,0c0,0,0.1,0,0.1-0.1C317,128.7,317,128.6,317,128.5z M318.8,130c-0.3-0.3-0.6-0.5-0.9-0.8
			c-0.1,0-0.1,0-0.2,0c0,0,0,0.1,0,0.2c0.3,0.2,0.6,0.5,0.9,0.8c0,0,0.1,0,0.1,0c0,0,0.1,0,0.1,0C318.9,130.1,318.9,130,318.8,130z
			 M320.4,131.7c-0.2-0.3-0.5-0.6-0.7-0.9c0,0-0.1-0.1-0.2,0c0,0-0.1,0.1,0,0.2c0.3,0.3,0.5,0.6,0.7,0.9c0,0,0.1,0,0.1,0
			c0,0,0,0,0.1,0C320.4,131.9,320.4,131.8,320.4,131.7z M321.6,133.7c-0.2-0.3-0.4-0.7-0.6-1c0-0.1-0.1-0.1-0.2,0
			c-0.1,0-0.1,0.1,0,0.2c0.2,0.3,0.4,0.7,0.6,1c0,0,0.1,0.1,0.1,0.1c0,0,0,0,0.1,0C321.6,133.9,321.6,133.8,321.6,133.7z
			 M317.5,135.7c-0.3-0.3-0.7-0.5-1.1-0.5c-0.1,0-0.1,0-0.1,0.1c0,0.1,0,0.1,0.1,0.1c0.4,0,0.7,0.2,0.9,0.5c0,0,0.1,0,0.1,0
			c0,0,0.1,0,0.1,0C317.6,135.8,317.6,135.7,317.5,135.7z M322.5,135.9c-0.1-0.4-0.2-0.7-0.4-1.1c0-0.1-0.1-0.1-0.2-0.1
			c-0.1,0-0.1,0.1-0.1,0.2c0.1,0.4,0.3,0.7,0.4,1.1c0,0.1,0.1,0.1,0.1,0.1c0,0,0,0,0,0C322.4,136,322.5,136,322.5,135.9z
			 M315.4,135.5c0-0.1-0.1-0.1-0.2-0.1c-0.3,0.2-0.7,0.4-1,0.7c0,0-0.1,0.1,0,0.2c0,0,0.1,0,0.1,0c0,0,0.1,0,0.1,0
			c0.3-0.3,0.6-0.5,0.9-0.6C315.4,135.6,315.4,135.5,315.4,135.5z M318.1,136.7c0-0.1-0.1-0.1-0.1-0.1c-0.1,0-0.1,0.1-0.1,0.1
			c0.1,0.3,0.2,0.7,0.2,1.1c0,0.1,0.1,0.1,0.1,0.1h0c0.1,0,0.1-0.1,0.1-0.1C318.2,137.5,318.2,137.1,318.1,136.7z M313.6,136.9
			c-0.1,0-0.1,0-0.2,0c-0.2,0.3-0.4,0.7-0.6,1c0,0.1,0,0.1,0.1,0.2c0,0,0,0,0.1,0c0,0,0.1,0,0.1-0.1c0.2-0.3,0.4-0.7,0.6-1
			C313.7,137,313.7,137,313.6,136.9z M322.7,137.1c0-0.1-0.1-0.1-0.1-0.1c-0.1,0-0.1,0.1-0.1,0.1c0,0.3,0.1,0.7,0.1,1
			c0,0.1,0,0.1,0,0.2c0,0.1,0,0.1,0.1,0.1c0,0,0,0,0,0c0.1,0,0.1-0.1,0.1-0.1c0-0.1,0-0.1,0-0.2
			C322.7,137.7,322.7,137.4,322.7,137.1z M318.2,139c-0.1,0-0.1,0-0.1,0.1c0,0.4-0.1,0.7-0.1,1.1c0,0.1,0,0.1,0.1,0.1c0,0,0,0,0,0
			c0.1,0,0.1,0,0.1-0.1c0.1-0.4,0.1-0.8,0.1-1.2C318.3,139,318.2,139,318.2,139z M312.6,139c-0.1,0-0.1,0-0.1,0.1
			c-0.1,0.4-0.2,0.8-0.2,1.2c0,0.1,0.1,0.1,0.1,0.1h0c0.1,0,0.1-0.1,0.1-0.1c0-0.4,0.1-0.7,0.2-1.1C312.7,139.1,312.7,139,312.6,139
			z M322.5,139.3c-0.1,0-0.1,0-0.1,0.1c0,0.1-0.1,0.2-0.1,0.3c-0.1,0.3-0.2,0.5-0.3,0.8c0,0.1,0,0.1,0.1,0.1c0,0,0,0,0,0
			c0,0,0.1,0,0.1-0.1c0.1-0.2,0.2-0.5,0.3-0.8c0-0.1,0.1-0.2,0.1-0.4C322.6,139.4,322.6,139.3,322.5,139.3z M313.1,142.4
			c-0.2-0.3-0.3-0.7-0.4-1c0-0.1-0.1-0.1-0.1-0.1c-0.1,0-0.1,0.1-0.1,0.1c0.1,0.4,0.3,0.8,0.5,1.1c0,0,0.1,0.1,0.1,0.1
			c0,0,0,0,0.1,0C313.1,142.5,313.1,142.5,313.1,142.4z M317.9,141.3c-0.1,0-0.1,0-0.1,0.1c-0.1,0.4-0.2,0.7-0.3,1.1
			c0,0.1,0,0.1,0.1,0.1c0,0,0,0,0,0c0.1,0,0.1,0,0.1-0.1c0.1-0.4,0.2-0.8,0.3-1.1C318,141.3,317.9,141.3,317.9,141.3z M321.7,141.5
			c-0.1,0-0.1,0-0.2,0.1c-0.2,0.4-0.4,0.7-0.5,1c0,0.1,0,0.1,0,0.2c0,0,0,0,0.1,0c0,0,0.1,0,0.1-0.1c0.2-0.3,0.4-0.7,0.6-1
			C321.8,141.6,321.8,141.5,321.7,141.5z M314.5,144.2c-0.3-0.2-0.5-0.5-0.8-0.8c0,0-0.1-0.1-0.2,0c0,0-0.1,0.1,0,0.2
			c0.3,0.3,0.5,0.6,0.8,0.9c0,0,0.1,0,0.1,0c0,0,0.1,0,0.1,0C314.6,144.3,314.6,144.2,314.5,144.2z M320.5,143.4c0,0-0.1,0-0.2,0
			c-0.3,0.3-0.5,0.6-0.8,0.8c0,0-0.1,0.1,0,0.2c0,0,0.1,0,0.1,0c0,0,0.1,0,0.1,0c0.3-0.2,0.6-0.5,0.8-0.9
			C320.6,143.6,320.6,143.5,320.5,143.4z M317.3,143.5c-0.1,0-0.1,0-0.1,0.1c-0.1,0.4-0.2,0.7-0.4,1.1c0,0.1,0,0.1,0.1,0.2
			c0,0,0,0,0,0c0,0,0.1,0,0.1-0.1c0.1-0.4,0.3-0.7,0.4-1.1C317.4,143.6,317.3,143.5,317.3,143.5z M316.5,145.3
			c-0.3-0.1-0.7-0.2-1-0.4c-0.1,0-0.1,0-0.2,0c0,0.1,0,0.1,0,0.2c0.4,0.2,0.7,0.4,1.1,0.4c0,0,0,0,0,0c0.1,0,0.1,0,0.1-0.1
			C316.6,145.3,316.5,145.3,316.5,145.3z M318.8,145c0-0.1-0.1-0.1-0.2,0c-0.3,0.2-0.7,0.3-1.1,0.4c-0.1,0-0.1,0.1-0.1,0.1
			c0,0.1,0.1,0.1,0.1,0.1c0,0,0,0,0,0c0.4-0.1,0.8-0.2,1.1-0.4C318.8,145.1,318.8,145,318.8,145z M316.5,145.7c-0.1,0-0.1,0-0.2,0.1
			c-0.2,0.3-0.3,0.7-0.5,1.1c0,0.1,0,0.1,0.1,0.2c0,0,0,0,0.1,0c0,0,0.1,0,0.1-0.1c0.2-0.4,0.3-0.7,0.5-1.1
			C316.6,145.8,316.5,145.7,316.5,145.7z M315.5,147.8c-0.1,0-0.1,0-0.2,0c-0.2,0.3-0.4,0.7-0.6,1c0,0.1,0,0.1,0,0.2c0,0,0,0,0.1,0
			c0,0,0.1,0,0.1-0.1c0.2-0.3,0.4-0.7,0.6-1C315.6,147.9,315.5,147.8,315.5,147.8z M314.3,149.8c-0.1,0-0.1,0-0.2,0
			c-0.2,0.3-0.4,0.7-0.6,1c0,0.1,0,0.1,0,0.2c0,0,0,0,0.1,0c0,0,0.1,0,0.1-0.1c0.2-0.3,0.4-0.7,0.6-1
			C314.4,149.9,314.4,149.9,314.3,149.8z M313.1,151.8c-0.1,0-0.1,0-0.2,0c-0.2,0.3-0.4,0.6-0.7,1c0,0.1,0,0.1,0,0.2c0,0,0,0,0.1,0
			c0,0,0.1,0,0.1,0c0.2-0.3,0.5-0.6,0.7-1C313.2,151.9,313.1,151.8,313.1,151.8z M311.7,153.7c-0.1,0-0.1,0-0.2,0
			c-0.2,0.3-0.5,0.6-0.7,0.9c0,0.1,0,0.1,0,0.2c0,0,0,0,0.1,0c0,0,0.1,0,0.1,0c0.2-0.3,0.5-0.6,0.7-0.9
			C311.8,153.8,311.8,153.7,311.7,153.7z M310.3,155.5c0,0-0.1,0-0.2,0c-0.2,0.3-0.5,0.6-0.7,0.9c0,0,0,0.1,0,0.2c0,0,0,0,0.1,0
			c0,0,0.1,0,0.1,0c0.3-0.3,0.5-0.6,0.7-0.9C310.4,155.6,310.4,155.5,310.3,155.5z M308.8,157.3c0,0-0.1,0-0.2,0
			c-0.3,0.3-0.5,0.6-0.8,0.9c0,0,0,0.1,0,0.2c0,0,0.1,0,0.1,0c0,0,0.1,0,0.1,0c0.3-0.3,0.5-0.6,0.8-0.9
			C308.8,157.4,308.8,157.3,308.8,157.3z M307.2,159c0,0-0.1,0-0.2,0c-0.3,0.3-0.5,0.6-0.8,0.8c0,0,0,0.1,0,0.2c0,0,0.1,0,0.1,0
			c0,0,0.1,0,0.1,0c0.3-0.3,0.5-0.6,0.8-0.8C307.3,159.1,307.3,159,307.2,159z M305.6,160.6c0,0-0.1,0-0.2,0
			c-0.5,0.5-0.8,0.8-0.9,0.8c0,0-0.1,0.1,0,0.2c0,0,0.1,0,0.1,0c0,0,0.1,0,0.1,0c0,0,0.3-0.3,0.9-0.8
			C305.6,160.8,305.6,160.7,305.6,160.6z"/>
	</g>
</g>
<g>
	<g>
		<path class="st14" d="M220.7,194.6c0,0,3-5.6,6.6-6.5c3.6-0.9,8.9,0.8,6.8,1.7c-1.1,0.5-2.3,0.4-3.3,0.7c-1.2,0.3-1.9,0.9-1.9,0.9
			s4.5-0.7,4.6,0.6c0.1,1.1-4.7,2.5-4.7,2.5s5.5-0.9,4.6,0.5c-0.9,1.4-4.6,2.2-4.6,2.2s7.4-0.1,6.3,1.5c-1.1,1.6-6.1,0.1-6.6,1.7
			c-0.5,1.6-0.4,7.4-5.1,6.6L220.7,194.6z"/>
	</g>
</g>
<g>
	<path class="st15" d="M243.6,282.4h-25.7c-0.7-6.6-1.2-12.3-1.5-17.1l0-0.2c0-0.5,0-1,0.1-1.4c0-0.1,0-0.2,0-0.3
		c0.3-1.3,0.9-2.2,1.8-2.8c3.6-2.4,11.6-0.5,17.5,1.5c1.7,0.6,3.3,1.2,4.5,1.7c1.6,0.6,2.7,1.1,2.7,1.1h0c0,0,0,0,0,0l0.3,12.2
		L243.6,282.4z"/>
</g>
<g>
	<path class="st15" d="M267.6,282.4h-25.8c-0.7-6.8-1.2-12.6-1.5-17.5c0-0.4,0-0.7-0.1-1.1c0-0.6-0.1-1.1-0.1-1.6
		c-0.1-2.3-0.2-4.4-0.2-6.2c-0.2-6.2,0-9.4,0-9.4l21.6,4.8l5.2,1.1l0,1.8l0.2,8.2l0.1,2.6l0.1,2.1v0l0.3,10.5L267.6,282.4z"/>
</g>
<g>
	<path class="st10" d="M255.7,274.6c-0.1,0-5.2,3.5-7.3,7.7h-0.4c2.1-4.4,7.4-7.9,7.4-8L255.7,274.6z"/>
</g>
<g>
	<path class="st16" d="M244.7,194.5l-1.7-5.1l-0.5-1.5l-2.9-8.7l-0.4,8.6l-0.2,5.2l-0.1,1.6c0,1.1-0.8,1.3-1.7,2.3
		c-0.4,0.4-2.7,2.8,0,3.8c3.3,1.3,9.4-0.7,11.7-3.3C248.9,197.5,245.3,196.1,244.7,194.5z"/>
</g>
<g>
	<path class="st16" d="M231.8,181.5c0.7-5.1,5-8.8,9.5-8.2c4.5,0.6,7.7,5.1,6.9,10.2c-0.7,5.1-5,8.8-9.5,8.2
		C234.2,191.1,231.1,186.6,231.8,181.5z"/>
</g>
<g>
	<path class="st10" d="M235.4,179.2c-4.8,0.2-7.1-2.4-7.1-4.7c-0.1-3,2-5.7,4.4-4.6c2.4,1.1,1.4-1.6,3.7-1.9
		c4.3-0.5,5.1,2.3,8.6,2.4c4.6,0.2,9.9,7.3,6,12.6C250.9,183,239.2,179.1,235.4,179.2z"/>
</g>
<g>
	<path class="st10" d="M231.2,176.2c0,0,5.1,4.5,4.4,7.1s-0.5,3.6,2.5,4.9c3,1.4,0.3,3.6,4.3,3.7c4,0.2,8.8-4.2,8.8-11.3
		c0-4-2.5-6.6-2.5-6.6L231.2,176.2z"/>
</g>
<g>
	<path class="st16" d="M233,183.2c0.6-0.8,1.6-1,2.4-0.5c0.7,0.5,0.9,1.5,0.3,2.2c-0.6,0.8-1.6,1-2.4,0.5
		C232.6,184.9,232.4,183.9,233,183.2z"/>
</g>
<g>
	<path class="st10" d="M252.8,185c-0.1,0-0.1,0-0.1-0.1c-0.2-1-1.2-1.5-1.2-1.5c-0.1,0-0.1-0.1,0-0.2c0-0.1,0.1-0.1,0.2,0
		c0,0,1.1,0.6,1.3,1.7C253,184.9,252.9,184.9,252.8,185C252.9,185,252.9,185,252.8,185z"/>
</g>
<g>
	<path class="st10" d="M251.6,182.8c-0.1,0-0.1,0-0.1-0.1c0-0.1,0-0.1,0.1-0.1c0,0,1.3-0.1,1.5-1c0-0.1,0.1-0.1,0.1-0.1
		c0.1,0,0.1,0.1,0.1,0.1C253,182.7,251.6,182.8,251.6,182.8C251.6,182.8,251.6,182.8,251.6,182.8z"/>
</g>
<g>
	<path class="st10" d="M233.4,169.7c-0.1,0-0.2,0-0.3,0c-0.4-0.1-0.7-0.3-1-0.5c-0.5-0.3-1-0.6-2-0.3c-0.1,0-0.1,0-0.1-0.1
		c0-0.1,0-0.1,0.1-0.1c1.1-0.3,1.6,0,2.2,0.4c0.3,0.2,0.5,0.4,0.9,0.5c0.2,0.1,0.4,0,0.5-0.1c0.5-0.4,0.6-1.5,0.6-1.5
		c0-0.1,0.1-0.1,0.1-0.1c0.1,0,0.1,0.1,0.1,0.1c0,0.1-0.1,1.2-0.7,1.7C233.7,169.7,233.5,169.7,233.4,169.7z"/>
</g>
<g>
	<path class="st10" d="M244.5,170.1c-1.7,0-3-1.1-3-1.2c0,0-0.1-0.1,0-0.2c0,0,0.1-0.1,0.2,0c0,0,1.6,1.4,3.4,1.1
		c0.1,0,0.1,0,0.1,0.1c0,0.1,0,0.1-0.1,0.1C244.9,170,244.7,170.1,244.5,170.1z"/>
</g>
<g>
	<path class="st10" d="M234.3,185.7c-0.2,0-0.3,0-0.3,0c0,0,0,0,0-0.1c0,0,0,0,0.1,0c0,0,1.1,0.3,1.8-1c0,0,0,0,0.1,0c0,0,0,0,0,0.1
		C235.4,185.6,234.7,185.7,234.3,185.7z"/>
</g>
<g>
	<path class="st10" d="M216.3,265.3c0,0,34.5-1.9,50.8,2.1l0.2-4.7l-22.9-6.8l-18.5,0.5l-5.7,1.2l-4,6.2L216.3,265.3z"/>
</g>
<g>
	<path class="st17" d="M264.1,208.5c0,0-3-13-21.6-13c-32.3,0-23.3,26.4-26.3,68.3c0,0,20.8-4.5,51,1.5c0,0,2.9-22.7-0.9-41.9
		C265.4,218.3,265.6,212.9,264.1,208.5z"/>
</g>
<g>
	<path class="st17" d="M238.8,195.4c0,0-10.4,0.2-18.1,7.4c-7.7,7.3-17.6,17.3-19.8,23.1c-2.6,7.1,2.2,14.2,8.2,14.4
		c6.1,0.2,11.5-4.2,11.5-4.2L238.8,195.4z"/>
</g>
<g>
	<path class="st17" d="M221.6,193c0,0-20.2,22.4-21.1,35.2c-0.7,10.5,27-13.6,29.1-18.5c2.1-4.9-1.1-11.2-1.1-11.2L221.6,193z"/>
</g>
<g>
	<path class="st17" d="M284.7,233.8c-3-22.4-28.6-35.1-28.6-35.1l-5.5,28.1l10.6,3.4c5.5,1.7,7.7,8.3,4.4,13c-4.2,6-6.7,14-2.3,12.5
		C270.8,253.2,286.2,243.7,284.7,233.8z"/>
</g>
<g>
	<path class="st10" d="M206.9,224.3l-0.2-0.1c0.1-0.2,11-21.5,21.6-26.4l0.1,0.2C217.8,202.9,207,224.1,206.9,224.3z"/>
</g>
<g>
	<path class="st10" d="M268.2,255l-0.2,0c0.9-16.4-2-33.3-2-33.4l0.2,0C266.2,221.7,269.1,238.5,268.2,255z"/>
</g>
<g>
	<path class="st10" d="M217.1,238.4l-0.1-0.2c6.1-3.6,14-13.1,14.1-13.2l0.2,0.1C231.2,225.3,223.2,234.8,217.1,238.4z"/>
</g>
<g>
	<circle class="st18" cx="264.1" cy="152.9" r="0.7"/>
</g>
<g>
	<circle class="st18" cx="240" cy="128.7" r="0.7"/>
</g>
<g>
	<circle class="st18" cx="207.3" cy="148.9" r="0.7"/>
</g>
<g>
	<circle class="st18" cx="222.8" cy="170" r="0.7"/>
</g>
<g>
	<circle class="st18" cx="242.9" cy="157.5" r="0.7"/>
</g>
<g>
	<circle class="st18" cx="247.8" cy="165" r="0.7"/>
</g>
<g>
	<circle class="st18" cx="181.9" cy="162.1" r="0.7"/>
</g>
<g>
	<path class="st18" d="M307.9,165.4C307.9,165.4,307.9,165.4,307.9,165.4c-0.1-0.1-0.1-0.1-0.1-0.2c0.7-0.7,2-0.9,2.5-0.9
		c-0.4-1.2-1.7-2.1-1.7-2.1c0,0-0.1-0.1,0-0.1c0,0,0.1-0.1,0.1,0c0.1,0,1.5,1,1.8,2.3c0,0,0,0.1,0,0.1c0,0,0,0-0.1,0
		C310.4,164.5,308.8,164.6,307.9,165.4C308,165.4,308,165.4,307.9,165.4z"/>
</g>
<g>
	<path class="st18" d="M309.2,128.2C309.2,128.2,309.2,128.2,309.2,128.2c-0.1,0-1.6-0.9-2.1-2.2c0,0,0-0.1,0-0.1c0,0,0,0,0.1,0
		c0,0,1.7-0.2,2.4-1c0,0,0.1-0.1,0.1,0c0,0,0.1,0.1,0,0.1c-0.6,0.8-2,1-2.4,1.1c0.5,1.1,1.9,1.9,1.9,1.9
		C309.3,128.1,309.3,128.1,309.2,128.2C309.3,128.2,309.3,128.2,309.2,128.2z"/>
</g>
<g>
	<path class="st18" d="M264,136.1C264,136.1,263.9,136.1,264,136.1c-0.1-0.1-1.6-1-1.9-2.3c0,0,0-0.1,0-0.1c0,0,0,0,0.1,0
		c0,0,1.7-0.1,2.4-0.9c0,0,0.1,0,0.1,0c0,0,0,0.1,0,0.1c-0.7,0.7-2,0.9-2.5,0.9c0.4,1.2,1.7,2,1.7,2
		C264.1,135.9,264.1,136,264,136.1C264.1,136.1,264,136.1,264,136.1z"/>
</g>
<g>
	<path class="st18" d="M173.4,126.1c0,0-0.1,0-0.1-0.1c-0.2-1,0.4-2.2,0.6-2.5c-1.2-0.4-2.7,0.3-2.7,0.3c-0.1,0-0.1,0-0.1-0.1
		c0-0.1,0-0.1,0.1-0.1c0.1,0,1.7-0.7,2.9-0.2c0,0,0.1,0,0.1,0.1c0,0,0,0.1,0,0.1c0,0-0.9,1.4-0.7,2.5
		C173.5,126,173.5,126,173.4,126.1C173.4,126.1,173.4,126.1,173.4,126.1z"/>
</g>
<g>
	<path class="st18" d="M159.3,179.1c-0.1,0-0.1,0-0.1-0.1c0,0-0.2-1.6-1.1-2.5c-0.2,0.4-0.9,1.5-1.9,1.8c-0.1,0-0.1,0-0.1-0.1
		c0-0.1,0-0.1,0.1-0.1c1-0.3,1.8-1.8,1.8-1.8c0,0,0,0,0.1-0.1c0,0,0.1,0,0.1,0c1,0.9,1.2,2.6,1.2,2.7
		C159.4,179,159.4,179,159.3,179.1C159.3,179.1,159.3,179.1,159.3,179.1z"/>
</g>
<g>
	<path class="st18" d="M179.4,203.3C179.4,203.3,179.4,203.2,179.4,203.3c-0.1,0-0.1-0.1-0.1-0.2c0,0,0.8-1.4,0.6-2.6
		c-0.4,0.2-1.7,0.6-2.6,0.3c-0.1,0-0.1-0.1-0.1-0.1c0-0.1,0.1-0.1,0.1-0.1c1,0.4,2.6-0.3,2.6-0.3c0,0,0.1,0,0.1,0c0,0,0,0,0.1,0.1
		C180.5,201.6,179.6,203.1,179.4,203.3C179.5,203.2,179.5,203.3,179.4,203.3z"/>
</g>
</svg>
