<?xml version="1.0" encoding="utf-8"?>
<!-- Generator: Adobe Illustrator 25.0.1, SVG Export Plug-In . SVG Version: 6.00 Build 0)  -->
<svg version="1.1" id="Layer_1" xmlns="http://www.w3.org/2000/svg" xmlns:xlink="http://www.w3.org/1999/xlink" x="0px" y="0px"
	 viewBox="0 0 483.9 164.9" style="enable-background:new 0 0 483.9 164.9;" xml:space="preserve">
<style type="text/css">
	.st0{fill:#3F4293;}
	.st1{fill:#FF7612;}
	.st2{fill:none;}
</style>
<path class="st0" d="M445.9,56c-5.8-10.7-17.2-18-30.2-18c-19,0-34.4,15.4-34.4,34.4s15.4,34.4,34.4,34.4c7.7,0,14.8-2.5,20.6-6.8
	c0.5,3.3,3.4,5.8,6.8,5.8c3.8,0,6.9-3.1,6.9-6.9V69.8C449.6,64.9,448.2,60.2,445.9,56z M415.7,93c-11.3,0-20.5-9.2-20.5-20.5
	S404.4,52,415.7,52s20.5,9.2,20.5,20.5S427,93,415.7,93z"/>
<path class="st0" d="M184.3,60v38.7c0,3.8-3.1,6.9-6.9,6.9c-3.8,0-6.9-3.1-6.9-6.9V60c0-3.8-3.1-6.9-6.9-6.9c-3.8,0-6.9,3.1-6.9,6.9
	v38.7c0,3.8-3.1,6.9-6.9,6.9c-3.8,0-6.9-3.1-6.9-6.9V60c0-3.8-3.1-6.9-6.9-6.9c-3.8,0-6.9,3.1-6.9,6.9v38.7c0,3.8-3.1,6.9-6.9,6.9
	s-6.9-3.1-6.9-6.9V60c0-11.5,9.3-20.7,20.8-20.7c5.3,0,10.1,2,13.8,5.3c3.7-3.3,8.5-5.3,13.8-5.3C175,39.2,184.3,48.5,184.3,60z"/>
<path class="st1" d="M361.8,72.4c3.3,3.7,5.3,8.5,5.3,13.8c0,11.5-9.3,20.7-20.7,20.7H206.7c-3.8,0-6.9-3.1-6.9-6.9s3.1-6.9,6.9-6.9
	h101h38.7c3.8,0,6.9-3.1,6.9-6.9s-3.1-6.9-6.9-6.9h-38.7c-0.1,0-0.1,0-0.2,0c-0.3,0-0.5,0-0.8-0.1h-99c-0.3,0.1-0.6,0.1-1,0.1
	c-3.8,0-6.9-3.1-6.9-6.9s3.1-6.9,6.9-6.9h139.7c3.8,0,6.9-3.1,6.9-6.9s-3.1-6.9-6.9-6.9H206.7c-3.8,0-6.9-3.1-6.9-6.9
	s3.1-6.9,6.9-6.9h139.7c11.5,0,20.7,9.3,20.7,20.8C367.1,63.9,365.1,68.7,361.8,72.4z"/>
<line class="st2" x1="205.7" y1="79.2" x2="204.8" y2="79.2"/>
<g>
	<path class="st0" d="M98.3,62.4V99c0,3.8-3.1,6.9-6.9,6.9s-6.9-3.1-6.9-6.9V62.4c0-3.8,3.1-6.9,6.9-6.9
		C95.2,55.4,98.3,58.5,98.3,62.4z"/>
	<path class="st0" d="M98.3,37.8c0,3.8-3.1,6.9-6.9,6.9s-6.9-3.1-6.9-6.9c0-3.8,3.1-6.9,6.9-6.9S98.3,34,98.3,37.8z"/>
</g>
<path class="st0" d="M482,8.3V99c0,3.8-3.1,6.9-6.9,6.9s-6.9-3.1-6.9-6.9V8.3c0-3.8,3.1-6.9,6.9-6.9C478.9,1.4,482,4.5,482,8.3z"/>
<path class="st0" d="M75.5,38.6c0,3.8-3.1,6.9-6.9,6.9s-6.9-3.1-6.9-6.9c0-3.8,3.1-6.9,6.9-6.9C72.4,31.6,75.5,34.7,75.5,38.6z"/>
<path class="st0" d="M75.4,132.3c-4.5,21.2-25.4,34.8-46.6,30.3c-9.2-1.9-16.9-6.9-22.3-13.7c-0.2-0.2-0.4-0.4-0.5-0.6
	c0,0-0.1-0.1-0.1-0.2c-1-1.5-1.4-3.4-1-5.3c0.8-3.7,4.4-6.1,8.2-5.3c1.9,0.4,3.4,1.6,4.4,3.1h0.1c3.5,4.2,8.4,7.3,14.2,8.5
	c13.8,2.9,27.3-5.9,30.3-19.6c0.8-3.7,4.4-6.1,8.2-5.3C73.8,124.9,76.2,128.6,75.4,132.3z"/>
<path class="st0" d="M36.2,38.1c-19,0-34.4,15.4-34.4,34.4s15.4,34.4,34.4,34.4s34.4-15.4,34.4-34.4C70.6,53.5,55.2,38.1,36.2,38.1z
	 M36.2,92.9c-11.3,0-20.5-9.2-20.5-20.5s9.2-20.5,20.5-20.5s20.5,9.2,20.5,20.5S47.5,92.9,36.2,92.9z"/>
<path class="st1" d="M52.6,122c0.6,3-1.4,6-4.4,6.6s-6-1.4-6.6-4.4s1.4-6,4.4-6.6C49.1,116.9,52,118.9,52.6,122z"/>
<path class="st1" d="M31.1,126.7c0.6,3-1.4,6-4.4,6.6s-6-1.4-6.6-4.4s1.4-6,4.4-6.6C27.6,121.7,30.5,123.7,31.1,126.7z"/>
</svg>
