<?xml version="1.0" encoding="utf-8"?>
<!-- Generator: Adobe Illustrator 21.0.0, SVG Export Plug-In . SVG Version: 6.00 Build 0)  -->
<svg version="1.1" id="Layer_1" xmlns="http://www.w3.org/2000/svg" xmlns:xlink="http://www.w3.org/1999/xlink" x="0px" y="0px"
	 viewBox="0 0 200 102" style="enable-background:new 0 0 200 102;" xml:space="preserve">
<style type="text/css">
	.st0{fill:#FFFFFF;}
	.st1{fill:#E8F2FA;}
	.st2{fill:#F3F8FC;}
	.st3{fill:#DCEAFB;}
	.st4{fill:#EBF5FF;}
	.st5{fill:#C7DBF9;}
	.st6{fill:#2D3554;}
	.st7{fill:#88ACF4;}
	.st8{fill:#B6CFFF;}
	.st9{fill:#A9C2FF;}
	.st10{fill:#CEDFFF;}
	.st11{fill:#BAD7FD;}
	.st12{fill:#DCEAFF;}
	.st13{fill:#B0D2F5;}
	.st14{fill:#25468F;}
	.st15{fill:#FFAE73;}
	.st16{fill:#FF912B;}
	.st17{fill:#F48F4E;}
	.st18{fill:#2A3967;}
	.st19{fill:#8EAFF1;}
	.st20{fill:#C3DAF6;}
	.st21{fill:#D0E3F9;}
	.st22{fill:#9DDEDA;}
	.st23{fill:#1E3865;}
	.st24{fill:#9E2726;}
	.st25{fill:#C23B35;}
	.st26{fill:#EE8C4D;}
	.st27{fill:#7FCFCF;}
	.st28{fill:#D44B40;}
	.st29{fill:#F99352;}
	.st30{fill:#4FB8C0;}
</style>
<g>
	<rect y="-0.1" class="st0" width="200" height="102.2"/>
	<g>
		<path class="st1" d="M189.3,99.5L7.9,99.3c-0.6-1.4-19.4-63.5,9.6-83.3c0.1,0,0.1-0.1,0.2-0.1c0.4-0.3,0.8-0.5,1.1-0.8
			C37.4,2.8,53.5,1.1,66.9,3.8h0c0.4,0.1,0.9,0.2,1.3,0.3c19.7,4.4,33.3,18.2,40.5,20.4c31.2,9.6,43.2-12.6,67.6-5.3
			C203.8,27.5,201.9,78.8,189.3,99.5z"/>
		<g>
			<path class="st2" d="M66.9,3.8c-13.3-2.7-29.4-1-48.1,11.2c-0.4,0.2-0.8,0.5-1.1,0.8c-0.1,0-0.1,0.1-0.2,0.1v26.7V43h49.4v-0.4
				L66.9,3.8L66.9,3.8z"/>
			<g>
				<path class="st3" d="M62.3,18.4v-7.8c-0.1,0-0.1-0.1-0.2-0.1H61v0h-6.6v0h0v1.2h0v0.8h0v1.2h0v0.8h0v1.2h0v0l-0.7,0V9.5h-7.4
					v0.8h0v1.2h0v1h0v1.2h0v0.8h0v1.2h0v0.7h0v1.2h0v0.7h0v1.2h0v0.7h0v0.7h0V21h-8.3v6.7h-3.1v1.7h-3.3v-2.9h-6v-7.9h-0.9v-0.8
					h-0.1v0.8h-0.8v0H20v-0.8h-0.1v0.8h-1v4h-0.1l-1.3,0v20.1h-2v1.8h51.4V18.4H62.3z"/>
				<g>
					<rect x="46.4" y="9.5" class="st4" width="4.7" height="1.6"/>
					<rect x="46.4" y="11.9" class="st4" width="4.7" height="1.6"/>
					<rect x="46.4" y="14.4" class="st4" width="4.7" height="1.6"/>
					<rect x="46.4" y="16.9" class="st4" width="4.7" height="1.6"/>
					<rect x="46.4" y="19.2" class="st4" width="4.7" height="1.6"/>
				</g>
				<g>
					<rect x="46.4" y="21.9" class="st4" width="4.7" height="1.6"/>
					<rect x="46.4" y="24.3" class="st4" width="4.7" height="1.6"/>
					<rect x="46.4" y="26.7" class="st4" width="4.7" height="1.6"/>
					<rect x="46.4" y="29.2" class="st4" width="4.7" height="1.6"/>
					<rect x="46.4" y="31.6" class="st4" width="4.7" height="1.6"/>
				</g>
				<g>
					<rect x="54.5" y="10.5" class="st4" width="4.7" height="1.6"/>
					<rect x="54.5" y="12.9" class="st4" width="4.7" height="1.6"/>
					<rect x="54.5" y="15.4" class="st4" width="4.7" height="1.6"/>
					<rect x="54.5" y="17.9" class="st4" width="4.7" height="1.6"/>
					<rect x="54.5" y="20.3" class="st4" width="4.7" height="1.6"/>
				</g>
				<g>
					<rect x="54.5" y="22.8" class="st4" width="4.7" height="1.6"/>
					<rect x="54.5" y="25.2" class="st4" width="4.7" height="1.6"/>
					<rect x="54.5" y="27.6" class="st4" width="4.7" height="1.6"/>
					<rect x="54.5" y="30.1" class="st4" width="4.7" height="1.6"/>
					<rect x="54.5" y="32.5" class="st4" width="4.7" height="1.6"/>
				</g>
				<g>
					<rect x="54.5" y="35.2" class="st4" width="4.7" height="1.6"/>
					<rect x="54.5" y="37.6" class="st4" width="4.7" height="1.6"/>
					<rect x="54.5" y="40.1" class="st4" width="4.7" height="1.6"/>
					<rect x="54.5" y="42.6" class="st4" width="4.7" height="1.6"/>
				</g>
				<rect x="39.7" y="17.9" class="st3" width="0.2" height="3.2"/>
				<rect x="43.6" y="15.1" class="st3" width="0.4" height="6.2"/>
				<rect x="47.2" y="8.6" class="st3" width="0.1" height="0.9"/>
				<rect x="52.7" y="8.6" class="st3" width="0.1" height="0.9"/>
			</g>
			<rect x="15.4" y="42.7" class="st5" width="53.2" height="1.8"/>
			<path class="st5" d="M18.7,15.1v27.6h-1.3V15.9c0.1,0,0.1-0.1,0.2-0.1C18,15.6,18.4,15.3,18.7,15.1z"/>
			<path class="st5" d="M66.9,3.8c0.4,0.1,0.9,0.2,1.3,0.3v38.6h-1.3h0L66.9,3.8L66.9,3.8z"/>
		</g>
		<path class="st6" d="M196,99.8H2.2c-0.1,0-0.3-0.1-0.3-0.3l0,0c0-0.1,0.1-0.3,0.3-0.3H196c0.1,0,0.3,0.1,0.3,0.3l0,0
			C196.3,99.7,196.1,99.8,196,99.8z"/>
		<g>
			<path class="st7" d="M166.8,76.6v0.6c0,0.2,0.1,0.4,0.1,0.4h21c0.1,0,0.1-0.2,0.1-0.4v-0.6c0-0.2-0.1-0.4-0.1-0.4h-21
				C166.8,76.2,166.8,76.4,166.8,76.6z"/>
			<path class="st8" d="M166.8,76.6v0.6c0,0.2,0.1,0.4,0.1,0.4h16.7c0.1,0,0.1-0.2,0.1-0.4v-0.6c0-0.2-0.1-0.4-0.1-0.4h-16.7
				C166.8,76.2,166.8,76.4,166.8,76.6z"/>
			
				<rect x="172.1" y="77.5" transform="matrix(-1 -1.224647e-16 1.224647e-16 -1 359.0514 176.79)" class="st9" width="14.9" height="21.7"/>
			
				<rect x="167.9" y="77.5" transform="matrix(-1 -1.224647e-16 1.224647e-16 -1 350.7055 176.79)" class="st10" width="14.9" height="21.7"/>
			<g>
				<g>
					<path class="st9" d="M168.7,78.2H182V98h-13.3V78.2z M181.9,78.3h-13v19.6h13V78.3z"/>
				</g>
				<g>
					<rect x="168.8" y="84.7" class="st9" width="13.1" height="0.1"/>
				</g>
				<g>
					<rect x="168.8" y="91.4" class="st9" width="13.1" height="0.1"/>
				</g>
				<path class="st9" d="M174,79.4h2.4c0.1,0,0.2-0.1,0.2-0.2l0,0c0-0.1-0.1-0.2-0.2-0.2H174c-0.1,0-0.2,0.1-0.2,0.2l0,0
					C173.8,79.3,173.9,79.4,174,79.4z"/>
				<path class="st9" d="M174,86h2.4c0.1,0,0.2-0.1,0.2-0.2l0,0c0-0.1-0.1-0.2-0.2-0.2H174c-0.1,0-0.2,0.1-0.2,0.2l0,0
					C173.8,85.9,173.9,86,174,86z"/>
				<path class="st9" d="M174,92.8h2.4c0.1,0,0.2-0.1,0.2-0.2l0,0c0-0.1-0.1-0.2-0.2-0.2H174c-0.1,0-0.2,0.1-0.2,0.2l0,0
					C173.8,92.7,173.9,92.8,174,92.8z"/>
			</g>
		</g>
		<g>
			<path class="st11" d="M173.5,35.1h-0.3c-2.4,0-4.5-2-4.5-4.5v0c0-2.4,2-4.5,4.5-4.5h0.3c2.4,0,4.5,2,4.5,4.5v0
				C177.9,33,175.9,35.1,173.5,35.1z"/>
			<path class="st12" d="M173.5,34.7h-0.3c-2.2,0-4.1-1.8-4.1-4.1v0c0-2.2,1.8-4.1,4.1-4.1h0.3c2.2,0,4.1,1.8,4.1,4.1v0
				C177.5,32.8,175.7,34.7,173.5,34.7z"/>
			<g>
				<g>
					<circle class="st13" cx="173.4" cy="27.3" r="0.2"/>
					
						<ellipse transform="matrix(0.4857 -0.8741 0.8741 0.4857 65.7198 167.1039)" class="st13" cx="174.9" cy="27.7" rx="0.2" ry="0.2"/>
					
						<ellipse transform="matrix(0.8404 -0.542 0.542 0.8404 12.4972 100.0612)" class="st13" cx="176.1" cy="28.8" rx="0.2" ry="0.2"/>
					<circle class="st13" cx="176.7" cy="30.5" r="0.2"/>
					
						<ellipse transform="matrix(0.7071 -0.7071 0.7071 0.7071 28.7791 134.0448)" class="st13" cx="176.2" cy="32.3" rx="0.2" ry="0.2"/>
					
						<ellipse transform="matrix(0.7072 -0.707 0.707 0.7072 27.5756 133.5407)" class="st13" cx="175" cy="33.5" rx="0.2" ry="0.2"/>
					<circle class="st13" cx="173.4" cy="34" r="0.2"/>
				</g>
				<g>
					
						<ellipse transform="matrix(0.8741 -0.4858 0.4858 0.8741 8.1794 86.9616)" class="st13" cx="171.8" cy="27.7" rx="0.2" ry="0.2"/>
					
						<ellipse transform="matrix(0.5422 -0.8403 0.8403 0.5422 53.888 156.5314)" class="st13" cx="170.6" cy="28.8" rx="0.2" ry="0.2"/>
					<circle class="st13" cx="170" cy="30.5" r="0.2"/>
					
						<ellipse transform="matrix(0.7071 -0.7071 0.7071 0.7071 27.1144 130.0234)" class="st13" cx="170.5" cy="32.3" rx="0.2" ry="0.2"/>
					
						<ellipse transform="matrix(0.7071 -0.7071 0.7071 0.7071 26.6107 131.2084)" class="st13" cx="171.7" cy="33.5" rx="0.2" ry="0.2"/>
				</g>
			</g>
			<g>
				<circle class="st13" cx="173.5" cy="30.5" r="0.2"/>
				<g>
					<rect x="173.5" y="28.1" class="st13" width="0.1" height="2.4"/>
				</g>
				<g>
					
						<rect x="173.3" y="29.9" transform="matrix(0.7867 -0.6173 0.6173 0.7867 18.6385 113.871)" class="st13" width="1.6" height="0.2"/>
				</g>
			</g>
		</g>
		<g>
			<path class="st10" d="M96.1,75H56.8L39.5,58c-1.1-1.1-1-2.9,0.3-3.9l0.9-0.7L75.6,54L96.1,75z"/>
			<path class="st9" d="M57,75.5l-3.3,2.4l-14.9-20c-0.8-1.1-0.6-2.7,0.5-3.5l1.2-0.9L57,75.5z"/>
			<path class="st9" d="M39.6,77.9h96.8c1.2,0,2.1-1,2.1-2.1l0,0c0-1.2-1-2.1-2.1-2.1H39.6c-1.2,0-2.1,1-2.1,2.1l0,0
				C37.4,76.9,38.4,77.9,39.6,77.9z"/>
			<rect x="53.8" y="77.9" class="st9" width="1.5" height="19.6"/>
			<rect x="156.5" y="77.9" class="st9" width="1.5" height="19.6"/>
			<rect x="133" y="77.9" class="st9" width="1.5" height="19.6"/>
			<rect x="81.1" y="77.9" class="st9" width="1.5" height="19.6"/>
			<rect x="53.8" y="90.4" class="st9" width="71.5" height="1.6"/>
			<rect x="123.8" y="90.4" class="st9" width="34.3" height="1.6"/>
			<g>
				<circle class="st14" cx="54.6" cy="97.5" r="1.8"/>
				<circle class="st9" cx="54.6" cy="97.5" r="1"/>
			</g>
			<g>
				<circle class="st14" cx="81.8" cy="97.5" r="1.8"/>
				<circle class="st9" cx="81.8" cy="97.5" r="1"/>
			</g>
			<g>
				<circle class="st14" cx="133.8" cy="97.5" r="1.8"/>
				<circle class="st9" cx="133.8" cy="97.5" r="1"/>
			</g>
			<polygon class="st9" points="41,56.8 41,74.6 43.1,74.6 43.1,59.3 			"/>
			<polygon class="st15" points="73.6,57.9 81.8,61 77.4,61.7 74.3,59.6 			"/>
			<path class="st16" d="M88.3,73.9c0.3,0.1,5.2-6.9,4.6-8.9c0-0.1-10.5-2.1-12.2-2.6c-3.8-1.1-8.2-5-10.3-5.3
				c-4.5-0.8-11.9,3.7-10.7,7.6c1.8,5.8,5.2,9.2,10.8,9.2C70.6,73.8,88,73.7,88.3,73.9z"/>
			<g>
				<path class="st15" d="M66.4,60.5c0.6-0.3,1.3-0.8,1.5-1.4c0.3-0.6-0.1-1.3-0.8-1.4c-0.3-0.1-0.8-0.6-1.1-0.9
					c-1-0.9-1.6-1.4-1.6-1.4l-4.2,0.1c0.5,0.1,1.7,2.8,2,4.3C62.5,61.1,65.2,61.1,66.4,60.5z"/>
				<path class="st17" d="M66.1,56.8c-0.6-1.1-1-1.7-1-1.7l-3.9,1.3C62.2,57.1,63.7,57.6,66.1,56.8z"/>
				<g>
					<path class="st15" d="M66.3,55.8c0,0-4.6,2.4-6.1-0.5c-1.4-2.9-3-4.6-0.1-6.2c2.9-1.6,4-0.8,4.7,0C65.6,50,67.5,55.1,66.3,55.8
						z"/>
					<path class="st18" d="M60.9,54.2c0,0-0.9-0.4-0.6-1c0.2-0.5,0.7,0,0.9-0.1c0.3-0.1,0.5-1.1,0.3-1.9c-0.2-0.8,3-0.5,4-1.2
						c1-0.7,1.5-2.6-0.5-2.8c-1.2-0.1-7.2-1-8.4,2.2c-1.5,4,2.9,6.3,3.6,6.7c0.6,0.4,0.8,0.1,0.8,0.1S61.5,54.8,60.9,54.2z"/>
				</g>
			</g>
			<path class="st16" d="M69.2,57c0,0,2.3-0.4,6.2,1.1c0,0-0.3,1.1-1.5,1.8C72.7,60.6,69.2,57,69.2,57z"/>
			<path class="st14" d="M123.7,66c0,0-20.3,0.2-29.7-2.6c-9.4-2.9-17-2.7-17-2.7s-6.2,6.4-7.7,12.3c-0.1,0.4-0.1,0.8-0.1,1.1V81
				c0,0,11.4-2.8,25,0c10.5,2.2,28.7,0,28.7,0L123.7,66z"/>
			<path class="st15" d="M61.8,68.4c0,0,11.7,4.2,14.1,3.8s8.6-7.2,8.6-7.2l-1.2-0.9l-8.1,4.4c0,0-7.4-3.9-10.6-5.9
				C62.9,61.5,60.9,68,61.8,68.4z"/>
			<path class="st16" d="M69.8,65.5c-0.6,2.2-1.7,4.1-4.4,5.6c-0.4,0.3-0.8,0.6-1.2,0.3c-1.3-1.2-3.9-3.9-4.6-6.8
				c-0.1-0.3,0.3-0.8,0.5-1c0.8-0.8,2.8-2.3,4.5-1.8c1.5,0.4,3.9,1.8,5.1,2.5C70.1,64.6,69.9,65,69.8,65.5z"/>
			<path class="st15" d="M83.4,64.2c0,0,0.5-1.2,0.6-1.6c0.1-0.3,1.1-1.1,1.1-0.9c0,0.2-0.3,0.7-0.2,0.7c0.1,0,0.7-1.1,1.1-1
				c0.4,0,0.2,1.4,0,2C86,64,84.6,65,84.6,65L83.4,64.2z"/>
			<path class="st9" d="M150.4,77.9h-21.3c-4.7,0-8.6-3.9-8.6-8.6v0c0-4.7,3.9-8.6,8.6-8.6h21.3c4.7,0,8.6,3.9,8.6,8.6v0
				C159,74,155.1,77.9,150.4,77.9z"/>
		</g>
		<g>
			<g>
				<rect x="12.4" y="82" class="st9" width="0.9" height="14.8"/>
				
					<rect x="22.2" y="82.8" transform="matrix(-1.836970e-16 1 -1 -1.836970e-16 115.61 70.3509)" class="st9" width="0.9" height="20.4"/>
				<rect x="31.9" y="82" class="st9" width="0.9" height="14.8"/>
				<rect x="25.1" y="82" class="st9" width="0.9" height="14.8"/>
				<g>
					<circle class="st14" cx="12.9" cy="97.7" r="1.6"/>
					<circle class="st9" cx="12.9" cy="97.7" r="0.9"/>
				</g>
				<g>
					<circle class="st14" cx="25.6" cy="97.7" r="1.6"/>
					<circle class="st9" cx="25.6" cy="97.7" r="0.9"/>
				</g>
				<g>
					<circle class="st14" cx="32.4" cy="97.7" r="1.6"/>
					<circle class="st9" cx="32.4" cy="97.7" r="0.9"/>
				</g>
				<rect x="19.2" y="74.1" class="st19" width="13.6" height="10"/>
				<rect x="12.4" y="74.1" class="st9" width="13.6" height="10"/>
			</g>
			<g>
				<path class="st20" d="M18.6,70.3v3.8h-3.8v-3.8c0,0,0-0.1,0-0.1c0-0.4,0.3-0.8,0.7-1c0.3-0.1,0.5-0.4,0.5-0.7l0-0.5h1.4l0,0.5
					c0,0.3,0.2,0.6,0.5,0.7c0.4,0.2,0.7,0.5,0.7,1C18.6,70.3,18.6,70.3,18.6,70.3z"/>
				<polygon class="st13" points="17.5,68.3 15.8,68.3 15.9,67.8 17.4,67.8 				"/>
				<path class="st0" d="M18.6,70.3v2.5h-3.8v-2.5c0,0,0-0.1,0-0.1h3.8C18.6,70.3,18.6,70.3,18.6,70.3z"/>
			</g>
			<g>
				<path class="st20" d="M21.7,72v2.1h-2.1V72c0,0,0,0,0-0.1c0-0.2,0.2-0.4,0.4-0.5c0.2-0.1,0.3-0.2,0.3-0.4l0-0.3h0.8l0,0.3
					c0,0.2,0.1,0.3,0.3,0.4C21.5,71.5,21.7,71.7,21.7,72C21.7,72,21.7,72,21.7,72z"/>
				<polygon class="st13" points="21.1,70.9 20.2,70.9 20.2,70.6 21.1,70.6 				"/>
				<path class="st0" d="M21.7,72v1.4h-2.1V72c0,0,0,0,0-0.1L21.7,72C21.7,72,21.7,72,21.7,72z"/>
			</g>
		</g>
		<g>
			<g>
				<path class="st9" d="M178.6,67.5c0,0-1.4-1.6-0.1-2.7c0,0,1-0.6,1.7-0.5c0,0-1.1,1.9-0.7,2c0.4,0.2,1.1-2.2,1.1-2.2
					s2.2-0.2,2.9,0.1c0,0-1.9,1.5-1.5,1.6c0.4,0.1,2.4-1.4,2.4-1.4s2,0.3,1.9,1.6s-0.8,1.6-1.1,1.6c-0.3,0-2.1-0.7-2.1-0.5
					c0,0.3,1,1.1,1.8,1.1c0,0-1.4,1.6-2.4,1.1c-0.9-0.5-1-1.2-1.6-1.4c-0.6-0.3-1.1-0.3-0.9,0c0.2,0.3,1.3,0.5,1.7,1.1
					c0.3,0.6,0.6,1-0.3,0.9c-1-0.1-2.6-0.9-2.6-1.7C178.6,67.5,178.6,67.5,178.6,67.5z"/>
				<g>
					<path class="st9" d="M185.3,66.2c0,0-5.5-0.2-6.7,1.4c0,0-0.3,0.8-1.1,1.5l-0.1,0.4c0,0,1-1,1.3-1.1
						C178.7,68.3,178.2,66.4,185.3,66.2z"/>
					<path class="st9" d="M177.5,69.1c0,0-1.2,0.9-1.3,2.4l0.2,0c0,0,0.4-1.6,1.1-2.2C178.2,68.6,177.5,69.1,177.5,69.1z"/>
				</g>
			</g>
			<g>
				<path class="st21" d="M173.7,65.5c0,0,2.2-1.2,1.2-2.9c0,0-0.8-1-1.7-1.3c0,0,0.5,2.5,0,2.6c-0.5,0.1-0.3-2.8-0.3-2.8
					s-2.3-1.1-3.3-1c0,0,1.4,2.5,1,2.4c-0.5-0.1-2.1-2.5-2.1-2.5s-2.4-0.4-2.8,1c-0.4,1.4,0.2,2.1,0.6,2.2c0.4,0.1,2.6,0.1,2.6,0.4
					c-0.1,0.3-1.6,0.8-2.5,0.5c0,0,0.9,2.3,2.2,2.2c1.2-0.1,1.6-0.9,2.4-0.9c0.8-0.1,1.3,0.1,0.9,0.4c-0.4,0.2-1.7,0.1-2.3,0.6
					c-0.6,0.5-1.1,0.9,0,1.1c1.2,0.2,3.2,0.1,3.6-0.8C173.7,65.5,173.7,65.5,173.7,65.5z"/>
				<g>
					<path class="st21" d="M166.8,61.2c0,0,6.2,2,6.9,4.3c0,0,0,1,0.6,2.2v0.4c0,0-0.7-1.5-1-1.7C173.3,66.4,174.7,64.4,166.8,61.2z
						"/>
					<path class="st21" d="M174.3,67.6c0,0,1,1.5,0.4,3.2l-0.2-0.1c0,0,0.2-2-0.3-2.9C173.7,66.9,174.3,67.6,174.3,67.6z"/>
				</g>
			</g>
			<g>
				<path class="st10" d="M177.3,63.8c0,0-2.9-1.6-1.6-3.9c0,0,1.1-1.4,2.3-1.7c0,0-0.6,3.3,0,3.4c0.6,0.1,0.4-3.7,0.4-3.7
					s3.1-1.5,4.3-1.4c0,0-1.9,3.2-1.3,3.2c0.6-0.1,2.8-3.4,2.8-3.4s3.2-0.6,3.7,1.3c0.5,1.9-0.3,2.8-0.8,2.9
					c-0.5,0.1-3.5,0.1-3.4,0.5c0.1,0.4,2.1,1,3.2,0.7c0,0-1.2,3.1-2.9,2.9c-1.6-0.2-2.1-1.2-3.2-1.2c-1-0.1-1.8,0.2-1.2,0.5
					c0.5,0.3,2.2,0.1,3,0.8c0.8,0.7,1.5,1.1,0,1.4c-1.5,0.3-4.3,0.1-4.8-1.1C177.3,63.8,177.3,63.8,177.3,63.8z"/>
				<g>
					<path class="st21" d="M186.4,58.1c0,0-8.2,2.7-9.1,5.6c0,0,0,1.3-0.8,2.8v0.6c0,0,0.9-2,1.3-2.3
						C177.8,64.9,176,62.4,186.4,58.1z"/>
					<path class="st21" d="M176.5,66.6c0,0-1.3,1.9-0.5,4.3l0.3-0.1c0,0-0.3-2.6,0.3-3.9C177.3,65.6,176.5,66.6,176.5,66.6z"/>
				</g>
			</g>
			<path class="st9" d="M177.2,75.9c3.2,0,5.7-2.6,5.7-5.7h-11.5C171.4,73.4,174,75.9,177.2,75.9z"/>
			<path class="st9" d="M183,76.2h-11.6l0,0c0-0.4,0.3-0.7,0.7-0.7h10.2C182.7,75.5,183,75.8,183,76.2L183,76.2z"/>
			<rect x="171.3" y="70.2" class="st8" width="11.8" height="0.2"/>
		</g>
		<g>
			<path class="st22" d="M152.3,38.3c0,0-3.2,0.6-3.9,2.4c-0.7,1.9-4.8,32.2-4.8,32.2s2,1.6,6.3,1C154.3,73.4,152.3,38.3,152.3,38.3
				z"/>
			<path class="st23" d="M147.6,98c0,0.5-0.1,1.1-0.3,1.3h-7.9c0.1-0.3,0.4-0.7,1.2-0.8c0.9-0.1,2.4-0.6,3.2-1.5
				c0.3-0.3,0.5-0.7,0.6-1.1c0.4-1.7,3.1,0.5,3.1,0.5S147.6,97.2,147.6,98z"/>
			<path class="st23" d="M159.8,98c0,0.5-0.1,1.1-0.3,1.3h-7.9c0.1-0.3,0.4-0.7,1.2-0.8c0.9-0.1,2.4-0.6,3.2-1.5
				c0.3-0.3,0.5-0.7,0.6-1.1c0.4-1.7,3.1,0.5,3.1,0.5S159.8,97.2,159.8,98z"/>
			<path class="st24" d="M144.2,97.2c0.9,0.3,2.6,1.1,3.6,0.7c0.7-0.3,4.6-11.5,4.8-16.4c0-0.4,0.1-0.9,0.2-1.5
				c0.2-1.3,0.6-3,1.1-4.9c1.2-5.1,2.9-11.6,2.9-13.6c-0.1-3.2-9.5-0.7-9.5-0.7s-0.6,2.6-0.8,6.4c-0.3,7.5-1,20.2-2.9,29
				C143.6,96.7,143.8,97.1,144.2,97.2z"/>
			<path class="st25" d="M150.7,61.6l4.6,35.5c0,0,2.9,0.4,4.6,0c0,0,1.2-18.4,1-23c-0.1-4.7,1-12.4-0.3-13.3
				C159.4,59.8,150.7,61.6,150.7,61.6z"/>
			<path class="st0" d="M161.3,39.9c0,0-5.2-3.4-9-1.7c-0.6,0.3-1.3,1-1.8,1.6c-1.4,1.5-4,25.3-4,25.3s7.5,2.6,14.8-0.9V39.9z"/>
			<path class="st22" d="M152,38.2c0,0-5.3,2.2-6,3.8c-0.7,1.7-3.1,11.9-3.1,13.1c0,1.2,4.1,0.3,4.7-1.7c0.5-1.6,2.4-6.6,3.3-9.7
				L152,38.2z"/>
			<g>
				<path class="st15" d="M153.1,39.8c1.2,0.2,2.9,0,4.1-0.8c-0.6-1.3-0.8-2.4-0.9-3.1c0,0,0-0.1,0-0.1c0-0.4,0-0.6,0-0.7h-3
					c0,0-0.8,0.4-0.8,0.6c0,0.1,0,0.3,0,0.4c0,0.3,0,0.6,0,0.9c-0.1,0.8-0.2,1.2-0.2,1.2S152,39.6,153.1,39.8z"/>
				<path class="st26" d="M152.5,37c2.3,0.4,3.6-0.8,3.9-1.1c0,0,0.1-0.1,0.1-0.1c0,0,0,0-0.1,0c-0.8-0.3-2.8-0.1-3.8,0.3
					C152.5,36.5,152.5,36.8,152.5,37z"/>
				<path class="st15" d="M157.1,34.6c-0.4,2.2-3.2,2.1-4.4,2c-0.3,0-0.6-0.1-0.6-0.1c-0.4-0.1-0.6-0.7-0.7-1.5
					c-0.2-1.6,0.1-3.9,0.3-4.5c0.4-0.9,1.2-1.9,4-1.2C158.5,30,157.6,31.8,157.1,34.6z"/>
				<path class="st23" d="M151.6,29.3c0.4-0.5,1.2-1.2,2-1.6c1.6-0.9,3.7,0,3.7,0c2.3,1,2.9,2.8,1.7,5.6c-1.3,2.9-2.5,2.6-2.5,2.6
					s0.3-0.2,0.2-1.1c0-0.1,0-0.1,0-0.1c0-0.2,0.1-0.4,0.2-0.5c0.3-0.3,0.4-1,0.2-1.3c-0.3-0.3-0.7,0.1-0.8,0.3
					c-0.1,0.2-0.3,0.2-0.5,0.1c-0.7-0.5-0.3-1.4-0.9-1.9c-0.7-0.6-2.1-0.1-3.1-0.5C150.2,30.3,151.3,29.7,151.6,29.3z"/>
			</g>
			<path class="st22" d="M151.3,75.1c0.5,0.1,0.9,0.2,1.4,0.3c0.4,0.1,0.8,0.1,1.2,0.2c2.2,0.2,4.5-0.1,7.1-0.9
				c0.6-0.2,1.2-0.4,1.8-0.6c0.1,0-0.2-7-0.5-14.2c0-0.7-0.1-1.5-0.1-2.2c0-0.3,0-0.6,0-0.9c-0.3-6.4-0.5-12.1-0.6-12.4
				c-0.1-0.7-0.2-1.3-0.4-1.8c-0.4-1.5-0.8-2.3-1.8-3c-0.1-0.1-0.9-0.5-1.6-0.8c-0.6-0.3-1.1-0.5-1.1-0.5c0,0,0,0,0,0
				c-0.2,0.1-0.5,0.6-0.8,1.4c-0.5,1.3-1.1,3.4-1.5,4.9c0,0,0,0,0,0c0,0,0,0,0,0c-0.3,1-0.4,1.8-0.5,2c-0.1,0.4-0.2,1.1-0.3,2.1
				c-0.2,1.3-0.4,3.1-0.6,5.2c0,0.2,0,0.4-0.1,0.6c0,0.2-0.1,0.5-0.1,0.7c0,0.1,0,0.2,0,0.2c-0.1,0.8-0.2,1.7-0.3,2.5
				c-0.1,0.7-1.1,1.2-1.2,1.9c0,0.4-0.1,4.3-0.2,5.6C151.2,66.2,151.3,74.7,151.3,75.1z"/>
			<path class="st27" d="M159,46.9c0,0,0.2,6.4-4.6,7.2c-4.8,0.8-1.6,1-1.6,1s9.1-0.4,9.2-0.6C162.1,54.3,159,46.9,159,46.9z"/>
			<path class="st27" d="M155,56.9c0,0,0.1,0.1,0.3,0.2c0,0,0,0,0,0c0.7,0.5,2.9,1.8,6.1,2.6c0.3,0.1,0.7,0.2,1,0.3
				c0-0.7-0.1-1.5-0.1-2.2c0.4,0,0.8-0.1,1.2-0.2c0-0.1,0-0.2,0-0.3c-0.4-0.2-0.8-0.3-1.2-0.5c-0.3-0.1-0.6-0.2-0.9-0.4
				c-1.3-0.5-2.3-0.8-2.3-0.8l-3.9,1.2L155,56.9z"/>
			<path class="st22" d="M153.9,56.8c0,0,0.5,0.1,1.3,0.3c0,0,0,0,0,0c1.5,0.3,3.9,0.7,6.1,0.7c0.3,0,0.6,0,0.9,0
				c0.4,0,0.8-0.1,1.2-0.2c0.8-0.2,1.5-0.5,1.9-0.9c3.3-3.3-1.8-15.2-2.8-16.4c-1.2-1.4-3.5-1.8-4.7-2c-0.1,0-0.1,0-0.2,0
				c-0.4-0.1-0.7-0.1-0.7-0.1c0,0,0,0,0,0s0.1,0.3,0.3,0.8c0.1,0.2,0.1,0.4,0.2,0.7c0.8,2.5,2.2,7.4,2.9,10.2c0.2,1,0.4,1.7,0.3,2
				c-0.3,0.9-2.9,1.4-4.6,1.7c-0.7,0.1-1.2,0.1-1.3,0.1c0,0,0,0,0,0l-0.1,0.4l-0.2,0.9l-0.2,0.9L153.9,56.8z"/>
			<polygon class="st23" points="144.8,62.5 156,62 153.8,48.1 142.6,48.5 			"/>
			<path class="st15" d="M154.7,53.7c0,0-2.2-0.2-2.3,0.4c-0.3,1.2,1.9,2.2,2.6,2.1C155.6,56.1,155.2,53.6,154.7,53.7z"/>
			<path class="st15" d="M143.2,51.4c0,0,2.1-0.7,2.3-0.2c0.5,1.1-1.3,2.5-2,2.6C142.8,53.9,142.7,51.4,143.2,51.4z"/>
			<path class="st27" d="M156.7,37.5c0,0,1,0.2,1.5,0.8c0,0-3.5,6.2-3.5,6.2C154.7,44.4,155.8,38.2,156.7,37.5z"/>
			<path class="st27" d="M152.4,37.6c-0.3,0.1-0.9,0.7-1,1l-0.4,5.2c0,0,0.9-3.8,1.3-5.5C152.4,37.8,152.4,37.7,152.4,37.6z"/>
			<path class="st28" d="M150,48.2c0,0-0.1-0.4-0.6-0.3c-0.5,0-3.4,0.2-3.4,0.2s-0.6,0-0.5,0.3L150,48.2z"/>
		</g>
		<polygon class="st0" points="92.4,40.8 92.6,42.1 93,42.1 93.1,40.8 		"/>
		<g>
			<path class="st0" d="M87.3,69.5c-1.1,0-2.3-0.2-3.6-0.6c-2.4-0.8-4.4-2-4.4-2l0.1-0.2c0.1,0,7.9,4.7,11.3,1.4
				c2.6-2.5,3-9.4,2.9-14.8c-0.1-5.8-0.9-11.1-0.9-11.1l0.3,0c0,0.1,0.8,5.3,0.9,11.2c0.2,7.9-0.8,12.9-2.9,15
				C90,69.1,88.8,69.5,87.3,69.5z"/>
		</g>
		<path class="st0" d="M78.7,67.3L78.7,67.3c-0.1-0.2,0-0.4,0.1-0.5l0.6-0.4c0.2-0.1,0.4,0,0.5,0.1l0,0c0.1,0.2,0,0.4-0.1,0.5
			l-0.6,0.4C79,67.5,78.8,67.5,78.7,67.3z"/>
		<g>
			<path class="st18" d="M114.5,31.5c0-0.2,0.1-2,2.9-2.1c0,0-1.3,0.2-1.6,0.8c0,0,0.9-0.7,1.7-0.5c0.7,0.2,1.2,1.5,1.2,2
				c0,0.4-0.4,1.8-0.9,1.9c-0.2,0-0.4,0-0.6,0c0.1,0.2,0.2,0.4,0.4,0.7c1.1,2.2,0,4.4-1,4.2c-0.6-0.2-0.8,0.9-0.8,0.9l-5.8-4.7
				C110.1,34.6,112.2,30.3,114.5,31.5z"/>
			<path class="st15" d="M98.8,59.5c0.5,0.4,1.8-1,1.9-1.2c0,0,0,0,0,0l-0.4-1.1c0,0-1.7-0.1-2,0.2C98.1,57.6,98.3,59,98.8,59.5z"/>
			<path class="st15" d="M100.4,57.2l0.2,1.1c0,0,0.1,0,0.2,0c0.4,0,1.4-0.1,2.5-0.2c1.1-0.1,2.3-0.3,3.2-0.5c0.5-0.1,1-0.3,1.3-0.5
				c1.2-0.7,3.2-3,4.5-5.3c0-0.1,0.1-0.1,0.1-0.2c0.4-0.8,0.8-1.5,1-2.3c0.1-0.4,0.2-0.8,0.2-1.1c0-0.6,0-1.1-0.2-1.5
				c-0.2-0.6-0.4-1-0.7-1.4c0-0.1-0.1-0.1-0.1-0.2c-0.4-0.5-0.9-0.7-0.9-0.7c-0.2-0.1-0.4,0-0.6,0.1c0,0,0,0-0.1,0.1c0,0,0,0,0,0
				c0,0-0.1,0.1-0.1,0.1v0c-0.1,0.1-0.1,0.2-0.2,0.3c0,0,0,0,0,0c-0.1,0.2-0.3,0.4-0.4,0.7c0,0,0,0,0,0c0,0.1-0.1,0.2-0.1,0.3
				c0,0,0,0,0,0.1c-0.1,0.2-0.2,0.4-0.3,0.7c-1.1,2.5-2.3,6.2-3.4,7.4c-0.2,0.3-0.9,0.7-1.8,1.1v0c0,0,0,0,0,0c0,0,0,0,0,0
				c-0.7,0.3-1.5,0.7-2.2,1C101.3,56.8,100.4,57.2,100.4,57.2z"/>
			<path class="st22" d="M104.6,55.3c0.1,0.1,0.3,0.7,0.7,1.3c0.3,0.5,0.7,1,1.2,1.2c0.4-0.2,1.1-0.5,1.4-0.6
				c1.1-0.6,2.5-2.5,3.8-4.4c0.2-0.3,0.4-0.6,0.5-0.9c0-0.1,0.1-0.1,0.1-0.2c0.4-0.8,0.8-1.5,1-2.3l-2.2-4.7l0,0c0,0,0,0-0.1,0.1
				c0,0,0,0,0,0c-0.1,0.1-0.2,0.2-0.3,0.4c0,0,0,0,0,0c-0.1,0.2-0.3,0.4-0.4,0.7c0,0,0,0,0,0c0,0.1-0.1,0.2-0.1,0.3c0,0,0,0,0,0.1
				c-0.1,0.2-0.2,0.4-0.3,0.7c-1.1,2.5-2.3,6.2-3.4,7.4C106.2,54.4,105.5,54.8,104.6,55.3L104.6,55.3
				C104.6,55.3,104.6,55.3,104.6,55.3z"/>
			<path class="st27" d="M105.3,56.6c0.3,0.5,0.7,1,1.2,1.2c0.4-0.2,1.1-0.5,1.4-0.6c1.1-0.6,2.5-2.5,3.8-4.4c0-0.6-3.3,2.5-3.7,3.1
				C107.7,56.3,106.1,56.5,105.3,56.6z"/>
			<path class="st25" d="M112.5,97.5l1.2,0.5c0,0,5.3-7.4,6-13.8c0.1-1.2,0.1-2.3-0.2-3.3c0,0,0.1-0.3,0.1-0.8
				c0-0.2,0.1-0.5,0.2-0.9c0.2-1,0.4-2.3,0.7-3.9c0.6-3.5,1.4-8.1,2.1-11.4l-0.3-0.1l-3.6-1.1l-0.7-2.3l-2.7-0.7
				c0,0-0.6,1.2-1.1,6.6c-0.1,0.7-0.2,1.5-0.3,2.4c-0.2,2.6-0.2,5.9,0.3,9.6c0.1,1,0.3,1.9,0.5,2.9c0.1,0.7,0.2,1.7,0.1,2.9
				C114.4,89.2,112.5,97.5,112.5,97.5z"/>
			<path class="st24" d="M113.9,68.5l5.8,11.5c0-0.2,0.1-0.5,0.2-0.9c0.2-1,0.4-2.3,0.7-3.9c0.6-3.5,1.4-8.1,2.1-11.4l-0.3-0.1
				l-3.6-1.1l-0.7-2.3l-2.7-0.7c0,0-0.6,1.2-1.1,6.6C114,66.8,113.9,67.6,113.9,68.5z"/>
			<path class="st25" d="M116.4,61l0.1-1.1c2.2,0.6,8.2-1.7,8.2-1.7s2.2,1.9,1.9,6.5c-0.1,2.2-0.4,11.7-0.7,14.5
				c-0.1,1-0.2,1.7-0.2,2c0,0,0,0,0,0c0,0.1,0,0.2,0.1,0.2c0.4,0.7,0.7,1.3,1,2.1c2.6,6.9-0.4,15.4-0.4,15.4l-0.8-0.3
				c0,0-1.7-9.5-3.1-13.7c-0.2-0.7-0.5-1.3-0.7-1.6c-0.6-1-1.2-2.6-1.7-4.5c-1-3.6-1.7-8.2-2.2-11.8C117.9,67,116.4,61,116.4,61z"/>
			<path class="st15" d="M114.7,47.7c3.8,0.2,3-5.5,2.8-5.5c-0.5-0.2-1.3-1.4-1.8-3.4l-0.2,0.1l-2.8,1.3c0,0,0.3,0.9,0.5,1.8
				c0.2,0.7,0.3,1.3,0.2,1.5c-0.2,0.1-0.3,0.1-0.3,0.1s0,0,0,0C113,43.6,113.7,47.6,114.7,47.7z"/>
			<path class="st29" d="M112.7,40.1c0,0,0.3,0.9,0.5,1.8c1.6-0.5,2.1-2.2,2.3-3.1L112.7,40.1z"/>
			<path class="st15" d="M112.4,41.1c0,0,3.9-0.9,3.3-3.3c-0.6-2.4-0.5-4.1-3-3.7c-2.5,0.5-2.8,1.5-2.7,2.4
				C109.9,37.3,111.4,41.3,112.4,41.1z"/>
			<path class="st18" d="M109.7,35.1c0.4-0.9,0.9-0.8,1.2-0.7c1.8-1.7,3.6-0.3,3.6-0.3c0.7,1.7,2.2,2.3,2.2,2.3s-0.6,0.6-2.3,0.6
				c-0.5,0-1.1-0.2-1.5-0.6c0.9,0.9,2,1.5,2,1.5c-2.2-0.4-3.6-2.9-3.8-3.2c-0.2,0.3-0.5,0.8-0.6,1.3c0,0.7,0.2,1.9-0.2,2
				C110.3,38.1,109.1,36.4,109.7,35.1z"/>
			<path class="st23" d="M121.9,99.5h6.2c0,0,0.1-0.9-0.2-1.7c-0.3-0.7-0.8-1-0.7-1.8c-0.4,0.4-1,0.9-1.9,0.7
				c-0.1,0.2-0.7,1.1-1.1,1.4C123.8,98.5,122,98.4,121.9,99.5z"/>
			<path class="st23" d="M108.6,99.5h6.2c0,0,0.2-1-0.2-1.7c-0.4-0.6-0.2-0.9,0-1.4c-0.3,0.1-0.6,0.2-1,0.2c-0.3,0-0.6-0.2-0.9-0.3
				c-0.3,0.3-1.4,1.6-1.8,1.8C110.6,98.5,108.8,98.4,108.6,99.5z"/>
			<path class="st22" d="M111.1,44.7l1,13.6l0.6,8.3c0.9,0.3,1.9,0.5,2.7,0.7c0.1-0.7,0.3-1.5,0.3-1.5c0,0.4,0.5,1.3,0.8,1.7
				c7.9,1.3,11.6-2.2,11.6-2.2c-0.3-3-1.6-9.2-3.2-14.4c-0.3-1.1-0.7-2.1-1-3.1c-0.8-2.2-1.3-3.3-1.7-4.2c-0.8-1.7-4.4-1.6-4.4-1.6
				c-0.7,2.5-2.6,4.1-2.6,4.1c-1-0.6-1.8-2.7-1.8-2.7L111.1,44.7z"/>
			<path class="st30" d="M116.9,41.6c0,0,0.7,0,0.8,0.5c0,0-0.9,3.4-2.6,4.1L116.9,41.6z"/>
			<path class="st30" d="M115.1,46.2c0,0-1.6-2.7-1.6-3.1c0,0-0.7,0.3-0.6,0.7C112.8,43.7,114.2,46,115.1,46.2z"/>
			<path class="st27" d="M119.6,45c0,0.2-5.9,9.6-6.1,11.5c-0.1,1.9,2.5,0.8,2.5,0.6C116.1,56.7,119.6,45,119.6,45z"/>
			<path class="st27" d="M112.1,58.2l0.6,8.3c8.4-2.4,8.9-20.2,8.9-20.2l-5.2,9.4L112.1,58.2C112.1,58.2,112.1,58.2,112.1,58.2z"/>
			<path class="st15" d="M108.3,59l0.3,1.2c0,0,0.4-0.1,1.1-0.2c0.2,0,0.3-0.1,0.3-0.1c0.5-0.1,1.1-0.2,1.8-0.4h0
				c1.2-0.3,2.5-0.6,3.5-1c0.1,0,0.2-0.1,0.3-0.1c0.6-0.2,1.2-0.5,1.6-0.7c0,0,0.1-0.1,0.1-0.1c1.1-0.8,2.4-3.1,3.4-5.6
				c0.1-0.3,0.3-0.7,0.4-1c0.5-1.2,0.8-2.5,1.1-3.5c0.1-0.6,0.2-1.2,0.2-1.7c0-0.2,0-0.3,0-0.5c0-2.7-1.9-3-2.2-2.7
				c-0.3,0.4-0.6,1-1,1.7c-0.5,1.2-1.1,2.7-1.6,4.3c-0.3,0.8-0.6,1.7-0.8,2.5c-0.2,0.5-0.3,0.9-0.5,1.3c-0.3,0.8-0.5,1.4-0.8,1.8
				c-0.1,0.3-0.6,0.6-1.1,1c-0.1,0.1-0.3,0.2-0.5,0.3c-0.9,0.6-2.1,1.3-3.2,1.9c-0.5,0.3-1,0.6-1.4,0.8
				C108.8,58.7,108.3,59,108.3,59z"/>
			<path class="st22" d="M114,55.7c0,0-0.1,2.2,2,3.3c2.4-0.9,3.7-4.5,4.7-7c0.1-0.3,0.3-0.7,0.4-1c0.5-1.2,0.8-2.5,1.1-3.5
				c0.1-0.6,0.2-1.2,0.2-1.7c0-0.2,0-0.3,0-0.5c0-2.7-1.9-3-2.2-2.7c-0.3,0.4-0.6,1-1,1.7c-0.5,1.2-1.1,2.7-1.6,4.3
				c-0.3,0.8-0.6,1.7-0.8,2.5c-0.2,0.5-0.3,0.9-0.5,1.3c-0.3,0.8-0.5,1.4-0.8,1.8c-0.1,0.3-0.6,0.6-1.1,1
				C114.3,55.4,114.2,55.5,114,55.7z"/>
			<path class="st22" d="M104.6,55.3C104.6,55.3,104.6,55.3,104.6,55.3C104.6,55.3,104.6,55.3,104.6,55.3
				C104.6,55.2,104.6,55.2,104.6,55.3z"/>
			<g>
				<g>
					
						<rect x="99.2" y="29.4" transform="matrix(-1 -1.224647e-16 1.224647e-16 -1 200.0721 128.3224)" class="st0" width="1.6" height="69.4"/>
					<g>
						<path class="st0" d="M93,41L93,41c1.4,0,2.6-1.2,2.6-2.6v-6.5h-5.2v6.5C90.4,39.9,91.6,41,93,41z"/>
						<path class="st9" d="M92.9,40.6L92.9,40.6c1.2,0,2.2-1,2.2-2.2V37h-4.3v1.4C90.8,39.6,91.7,40.6,92.9,40.6z"/>
					</g>
					
						<rect x="89.3" y="29.4" transform="matrix(-1 -1.224647e-16 1.224647e-16 -1 190.135 60.1245)" class="st0" width="11.5" height="1.2"/>
					
						<rect x="92.5" y="30.7" transform="matrix(-1 -1.224647e-16 1.224647e-16 -1 185.8431 62.8736)" class="st0" width="0.9" height="1.5"/>
				</g>
				<rect x="95.7" y="97.5" class="st0" width="9.1" height="1.8"/>
			</g>
			<rect x="99.2" y="57.5" class="st0" width="7.4" height="3.2"/>
			<rect x="100" y="58.1" class="st9" width="6" height="1.6"/>
			<path class="st15" d="M104.7,58.9c0.5,0,1.3,0,1.8-0.2c0,0-1.5,0-1.2-0.5c0.1-0.1,0.8,0,1.6,0c0.3,0,1.2,0.5,1.1,0.5
				c0.6-0.1,1.1-0.2,1.3-0.2c0,0,0.1,0,0.1,0l0.5,1.5c0,0-0.1,0-0.3,0.1c-0.5,0.1-1.5,0.4-2.5,0.7c-1.3,0.5-2.3-0.1-2.8-0.6
				c-0.3-0.3-0.5-0.7-0.5-1C104,58.8,104.4,58.9,104.7,58.9z"/>
		</g>
	</g>
</g>
</svg>
