<?xml version="1.0" encoding="utf-8"?>
<!-- Generator: Adobe Illustrator 25.0.1, SVG Export Plug-In . SVG Version: 6.00 Build 0)  -->
<svg version="1.1" id="Layer_1" xmlns="http://www.w3.org/2000/svg" xmlns:xlink="http://www.w3.org/1999/xlink" x="0px" y="0px"
	 viewBox="0 0 30 10" enable-background="new 0 0 30 10" xml:space="preserve">
<g>
	<path fill="#0073DE" d="M1.74,9.89H0V0.11h1.74V9.89z"/>
	<path fill="#0073DE" d="M4.92,0.12c0.05,0.01,0.1,0.02,0.14,0.04C5.1,0.18,5.14,0.21,5.18,0.25C5.22,0.29,5.26,0.34,5.31,0.4
		l4.88,6.54c-0.02-0.16-0.03-0.31-0.04-0.46c-0.01-0.15-0.01-0.29-0.01-0.42V0.11h1.52v9.78h-0.89c-0.14,0-0.25-0.02-0.34-0.07
		c-0.09-0.05-0.18-0.13-0.26-0.24L5.31,3.06c0.01,0.14,0.02,0.29,0.03,0.43c0.01,0.14,0.01,0.27,0.01,0.39v6.01H3.82V0.11h0.91
		C4.81,0.11,4.87,0.11,4.92,0.12z"/>
	<path fill="#0073DE" d="M19.93,7.58c0.09,0,0.18,0.04,0.24,0.12l0.68,0.78c-0.38,0.49-0.84,0.87-1.39,1.13
		C18.91,9.87,18.25,10,17.48,10c-0.69,0-1.31-0.12-1.86-0.37c-0.55-0.25-1.02-0.59-1.41-1.04c-0.39-0.44-0.69-0.97-0.9-1.58
		C13.11,6.4,13,5.73,13,5c0-0.74,0.12-1.41,0.35-2.02c0.23-0.61,0.56-1.14,0.98-1.58c0.42-0.44,0.92-0.79,1.51-1.03
		C16.42,0.12,17.06,0,17.77,0c0.69,0,1.29,0.12,1.81,0.35c0.52,0.23,0.96,0.54,1.33,0.92l-0.58,0.85c-0.03,0.05-0.08,0.1-0.13,0.14
		c-0.05,0.04-0.13,0.06-0.22,0.06c-0.1,0-0.2-0.04-0.3-0.12c-0.1-0.08-0.23-0.17-0.39-0.26c-0.16-0.09-0.36-0.18-0.6-0.26
		c-0.24-0.08-0.55-0.12-0.92-0.12c-0.44,0-0.84,0.08-1.21,0.24c-0.37,0.16-0.68,0.39-0.94,0.69s-0.47,0.66-0.62,1.09
		C14.84,3.99,14.77,4.47,14.77,5c0,0.55,0.07,1.04,0.22,1.47c0.15,0.43,0.35,0.79,0.6,1.08c0.25,0.29,0.55,0.52,0.89,0.67
		c0.34,0.16,0.71,0.23,1.11,0.23c0.24,0,0.45-0.01,0.64-0.04c0.19-0.03,0.37-0.07,0.53-0.13c0.16-0.06,0.31-0.13,0.46-0.23
		c0.14-0.09,0.29-0.21,0.43-0.34c0.04-0.04,0.09-0.07,0.13-0.1C19.82,7.6,19.87,7.58,19.93,7.58z"/>
	<path fill="#0073DE" d="M30,9.89h-1.74V5.62H23.9v4.28h-1.74V0.11h1.74v4.21h4.36V0.11H30V9.89z"/>
</g>
</svg>
