<?xml version="1.0" encoding="utf-8"?>
<!-- Generator: Adobe Illustrator 25.0.1, SVG Export Plug-In . SVG Version: 6.00 Build 0)  -->
<svg version="1.1" id="Layer_1" xmlns="http://www.w3.org/2000/svg" xmlns:xlink="http://www.w3.org/1999/xlink" x="0px" y="0px"
	 viewBox="0 0 23.3 30" style="enable-background:new 0 0 23.3 30;" xml:space="preserve">
<style type="text/css">
	.st0{fill:#009636;}
</style>
<path class="st0" d="M20.8,27.5H2.5V21c0-0.7,0.2-1.4,0.5-1.9L7.6,12c0.5-0.7,1.4-0.7,1.8,0.1l5.2,9.1l2.7-3.6
	c0.5-0.6,1.2-0.6,1.7,0l1.3,2c0.4,0.5,0.6,1.2,0.6,2V27.5z"/>
<path class="st0" d="M13.5,7.5c0-1.4,1.2-2.6,2.6-2.6c1.4,0,2.6,1.2,2.6,2.6c0,1.4-1.2,2.6-2.6,2.6C14.7,10.1,13.5,9,13.5,7.5z"/>
<path class="st0" d="M21.7,1.6v26.8H1.6V1.6H21.7 M22,0H1.2C0.6,0,0,0.6,0,1.2v27.5C0,29.4,0.6,30,1.2,30H22c0.7,0,1.2-0.6,1.2-1.2
	V1.2C23.3,0.6,22.7,0,22,0L22,0z"/>
</svg>
