<svg xmlns="http://www.w3.org/2000/svg" viewBox="0 0 448 512" fill="#1d345f" xmlns:v="https://vecta.io/nano"><path d="M400 224h-24v-72C376 68.2 307.8 0 224 0S72 68.2 72 152v72H48c-26.5 0-48 21.5-48 48v192c0 26.5 21.5 48 48 48h352c26.5 0 48-21.5 48-48V272c0-26.5-21.5-48-48-48zm-275.5-72c0-54.9 44.6-99.5 99.5-99.5s99.5 44.6 99.5 99.5v72.5h-199V152zm273.3 277.1c0 20.6-16.7 37.2-37.2 37.2H87.5c-20.6 0-37.2-16.7-37.2-37.2v-119c0-20.6 16.7-37.2 37.2-37.2h273.1c20.6 0 37.2 16.7 37.2 37.2v119h0zm-166-109.4h-8.9 0 2.2 0-8.9c-9.9 0-17.9 7.5-17.9 16.6v66.6c0 9.2 8 16.6 17.9 16.6h15.6c9.9 0 17.9-7.5 17.9-16.6v-66.6c0-9.2-8-16.6-17.9-16.6z"/></svg>