<?xml version="1.0" encoding="utf-8"?>
<!-- Generator: Adobe Illustrator 21.0.0, SVG Export Plug-In . SVG Version: 6.00 Build 0)  -->
<svg version="1.1" id="Layer_1" xmlns="http://www.w3.org/2000/svg" xmlns:xlink="http://www.w3.org/1999/xlink" x="0px" y="0px"
	 viewBox="0 0 470 315" style="enable-background:new 0 0 470 315;" xml:space="preserve">
<style type="text/css">
	.st0{fill:none;stroke:#D2E4FF;stroke-width:3.9266;stroke-miterlimit:10;}
	.st1{fill:#1D345F;fill-opacity:0;}
	.st2{fill:#F58633;}
	.st3{fill:#13BA42;}
	.st4{fill:#008C24;}
	.st5{fill:#5FBEFF;}
	.st6{fill:none;stroke:#F58633;stroke-width:3.9266;stroke-miterlimit:10;}
	.st7{fill:#D3D3D3;}
	.st8{fill:#8C8C8C;}
	.st9{opacity:0.3;enable-background:new    ;}
	.st10{fill:#FF9F34;}
	.st11{fill:#FFFFFF;}
	.st12{fill:#80B2FF;}
	.st13{fill:#005CEA;}
	.st14{fill:#4D4D4D;}
	.st15{fill:#F7A58E;}
	.st16{fill:#00050D;}
	.st17{fill:#FF7268;}
	.st18{fill:#E6856A;}
	.st19{fill:#50318F;}
	.st20{fill:#F7A28A;}
	.st21{fill:#F0896C;}
	.st22{fill:#3D3D3D;}
	.st23{fill:#F7B28A;}
	.st24{fill:#F2B231;}
	.st25{fill:#333333;}
	.st26{fill:#FFD834;}
	.st27{fill:#FFEAC2;}
	.st28{fill:#D9FFFF;}
	.st29{fill:#4D93FF;}
	.st30{fill:#0046B3;}
</style>
<g>
	<path class="st0" d="M204,67.4c1.4-5.6,1.6-11.2,0.8-16.5l1.7-0.3l3.4-0.5l0,0c-0.9-6.1-3-12-6.1-17.2l-4.4,2.6
		c-2.8-4.7-6.6-8.9-11.1-12.3l3.1-4.2c-4.8-3.6-10.4-6.3-16.5-7.8l-1.3,5c-5.6-1.4-11.2-1.6-16.5-0.8l-0.8-5.1
		c-6.1,0.9-12,3-17.2,6.1l2.6,4.4c-4.7,2.8-8.9,6.6-12.3,11.1l-4.1-3.1c-3.6,4.8-6.3,10.4-7.8,16.5l5,1.3
		c-1.4,5.6-1.6,11.2-0.8,16.5l-3.6,0.5l-1.5,0.2l0,0c0.9,6.1,3,12,6.1,17.2l4.4-2.6c2.8,4.7,6.6,8.9,11.1,12.3l-3.1,4.2
		c4.8,3.6,10.3,6.3,16.5,7.8l1.3-5c5.6,1.4,11.2,1.6,16.6,0.8l0.6,4l0.2,1.1c6.1-0.9,12-3,17.2-6.1l-2.6-4.4
		c4.7-2.8,8.9-6.6,12.3-11.1l4.1,3.1c3.6-4.8,6.3-10.4,7.8-16.5L204,67.4z M157.6,79.2c-12.2-3.1-19.6-15.5-16.5-27.8
		c3.1-12.2,15.5-19.6,27.8-16.5c12.2,3.1,19.6,15.5,16.5,27.7C182.2,74.9,169.8,82.3,157.6,79.2z"/>
</g>
<g>
	<path class="st0" d="M102.4,73.9c-1.9-2.4-4.2-4.2-6.7-5.6l0.4-0.8l0.9-1.6l0,0c-2.9-1.6-6-2.6-9.2-2.9l-0.3,2.7
		c-2.9-0.3-5.8-0.1-8.7,0.7L78,63.8c-3,0.9-5.9,2.3-8.5,4.4l1.7,2.1c-2.4,1.9-4.2,4.2-5.6,6.7l-2.4-1.3c-1.6,2.9-2.5,6-2.9,9.2
		l2.7,0.3c-0.3,2.9-0.1,5.8,0.7,8.7l-2.6,0.8c0.9,3,2.3,5.9,4.4,8.5l2.1-1.7c1.9,2.4,4.2,4.2,6.7,5.6l-0.9,1.7l-0.4,0.7l0,0
		c2.9,1.6,6,2.5,9.2,2.9l0.3-2.7c2.9,0.3,5.9,0.1,8.7-0.8l0.8,2.6c3-0.9,5.9-2.3,8.5-4.4l-1.7-2.1c2.4-1.9,4.3-4.2,5.6-6.7l1.9,1
		l0.5,0.3c1.6-2.9,2.5-6,2.9-9.2l-2.7-0.3c0.3-2.9,0.1-5.9-0.7-8.7l2.6-0.8c-0.9-3-2.3-5.9-4.4-8.5L102.4,73.9z M92.6,97.1
		c-5.2,4.1-12.8,3.3-16.9-1.9c-4.1-5.2-3.3-12.8,1.9-16.9c5.2-4.1,12.8-3.3,16.9,1.9S97.8,92.9,92.6,97.1z"/>
</g>
<path d="M79.2,261.3V110.4c0-13.6,11.3-24.7,25-24.7h277.3c13.8,0,25,11.1,25,24.6V266c0,13.6-11.3,24.6-25,24.6H109
	C92.6,290.7,79.2,277.6,79.2,261.3z"/>
<rect class="st1" width="470" height="315"/>
<g>
	<path class="st2" d="M103.9,92.8h277c9.1,0,16.4,7.2,16.4,16.1v157.7c0,8.9-7.4,16.1-16.4,16.1h-277c-9.1,0-16.4-7.2-16.4-16.1
		V108.9C87.5,100,94.9,92.8,103.9,92.8z"/>
</g>
<path class="st3" d="M10.8,243.7c0.8,7.7,11.2,6,18,11.8c6.9,5.8,0.1,13.6,15.8,15.3c9.7,1,9-3,18.6,6.9c8.5,8.8,10-5.7,19.5-3.4
	c12.2,2.9,13.2-21.1,1.9-25.8s-16.8,1.9-18.8-8.2c-2.1-10.1-9.7-13.9-19.3-11.6c-11.9,2.8-10.2,13.2-16.4,7.5
	C24,230.4,9.7,233.4,10.8,243.7z"/>
<path class="st4" d="M99.4,275.2c-34.4-26.6-74.8-30.7-75.2-30.8c-1.5-0.1-1.4-2,0.2-1.9c0.4,0,41.6,4.3,76.4,31.2L99.4,275.2z"/>
<path class="st3" d="M50.2,217.1c-2,4.9,4.8,7.3,7,13c2.3,5.7-3.8,10.6,5.2,16.7c5.5,3.8,7.8-3.4,13,3.1c5.2,6.5,2.7,8.4,7.3,10.1
	c8.1,3,16.6-9.6,11.3-16c-5.3-6.5-12.5-4.2-10.4-10.9c2-6.8,2.7-9.6-3.8-11.4c-8.1-2.2-13.7,2.8-15.5-2.7
	C62.5,213.4,52.8,210.6,50.2,217.1z"/>
<path class="st4" d="M99.4,275.2l1.4-1.2c-12.2-27.6-41.8-52.9-42-53.1c-1-0.7-1.7,0.4-0.7,1.1C58.3,222.1,87.3,248,99.4,275.2z"/>
<g>
	<rect x="355.1" y="41.6" class="st2" width="1.4" height="1"/>
	<path class="st2" d="M356.5,81.3h-1.4v-2.1h1.4V81.3z M356.5,77h-1.4v-2.1h1.4V77z M356.5,72.7h-1.4v-2.1h1.4V72.7z M356.5,68.4
		h-1.4v-2.1h1.4V68.4z M356.5,64.1h-1.4V62h1.4V64.1z M356.5,59.9h-1.4v-2.1h1.4V59.9z M356.5,55.6h-1.4v-2.1h1.4V55.6z M356.5,51.3
		h-1.4v-2.1h1.4V51.3z M356.5,47h-1.4v-2.1h1.4V47z"/>
	<rect x="355.1" y="83.5" class="st2" width="1.4" height="1"/>
</g>
<g>
	<rect x="344.2" y="41.6" class="st2" width="1.2" height="1"/>
	<path class="st2" d="M102,133.5h-1.2v-2.1h1.2V133.5z M102,129.4l-1.2-0.1c0-0.7,0.2-1.5,0.3-2.2l1.1,0.4
		C102.1,128.2,102,128.8,102,129.4z M102.9,125.8l-1-0.6c0.3-0.6,0.6-1.3,1-1.8l0.9,0.9C103.4,124.6,103.1,125.2,102.9,125.8z
		 M104.9,122.8l-0.7-1.1c0.5-0.5,1-0.9,1.5-1.2l0.5,1.2C105.7,122,105.3,122.4,104.9,122.8z M107.7,121l-0.3-1.3
		c0.6-0.2,1.2-0.4,1.8-0.4l0.1,1.4C108.8,120.7,108.2,120.8,107.7,121z M335,120.6h-1.7v-1.4h1.7V120.6z M331.5,120.6h-1.7v-1.4h1.7
		V120.6z M328,120.6h-1.7v-1.4h1.7V120.6z M324.5,120.6h-1.7v-1.4h1.7V120.6z M321.1,120.6h-1.7v-1.4h1.7V120.6z M317.6,120.6h-1.7
		v-1.4h1.7V120.6z M314.1,120.6h-1.7v-1.4h1.7V120.6z M310.6,120.6h-1.7v-1.4h1.7V120.6z M307.2,120.6h-1.7v-1.4h1.7V120.6z
		 M303.7,120.6H302v-1.4h1.7V120.6z M300.2,120.6h-1.7v-1.4h1.7V120.6z M296.8,120.6H295v-1.4h1.7L296.8,120.6L296.8,120.6z
		 M293.3,120.6h-1.7v-1.4h1.7V120.6z M289.8,120.6h-1.7v-1.4h1.7V120.6z M286.3,120.6h-1.7v-1.4h1.7V120.6z M282.9,120.6h-1.7v-1.4
		h1.7V120.6z M279.4,120.6h-1.7v-1.4h1.7V120.6z M275.9,120.6h-1.7v-1.4h1.7V120.6z M272.4,120.6h-1.7v-1.4h1.7V120.6z M269,120.6
		h-1.7v-1.4h1.7V120.6z M265.5,120.6h-1.7v-1.4h1.7V120.6z M262,120.6h-1.7v-1.4h1.7V120.6z M258.6,120.6h-1.7v-1.4h1.7V120.6z
		 M255.1,120.6h-1.7v-1.4h1.7V120.6z M251.6,120.6h-1.7v-1.4h1.7V120.6z M248.1,120.6h-1.7v-1.4h1.7V120.6z M244.7,120.6H243v-1.4
		h1.7V120.6z M241.2,120.6h-1.7v-1.4h1.7V120.6z M237.7,120.6H236v-1.4h1.7V120.6z M234.2,120.6h-1.7v-1.4h1.7V120.6z M230.8,120.6
		H229v-1.4h1.7v1.4H230.8z M227.3,120.6h-1.7v-1.4h1.7V120.6z M223.8,120.6h-1.7v-1.4h1.7V120.6z M220.4,120.6h-1.7v-1.4h1.7V120.6z
		 M216.9,120.6h-1.7v-1.4h1.7V120.6z M213.4,120.6h-1.7v-1.4h1.7V120.6z M209.9,120.6h-1.7v-1.4h1.7V120.6z M206.5,120.6h-1.7v-1.4
		h1.7V120.6z M203,120.6h-1.7v-1.4h1.7V120.6z M199.5,120.6h-1.7v-1.4h1.7V120.6z M196.1,120.6h-1.7v-1.4h1.7V120.6z M192.6,120.6
		h-1.7v-1.4h1.7V120.6z M189.1,120.6h-1.7v-1.4h1.7V120.6z M185.6,120.6h-1.7v-1.4h1.7V120.6z M182.2,120.6h-1.7v-1.4h1.7V120.6z
		 M178.7,120.6H177v-1.4h1.7V120.6z M175.2,120.6h-1.7v-1.4h1.7V120.6z M171.7,120.6H170v-1.4h1.7V120.6z M168.3,120.6h-1.7v-1.4
		h1.7V120.6z M164.8,120.6h-1.7v-1.4h1.7V120.6z M161.3,120.6h-1.7v-1.4h1.7V120.6z M157.9,120.6h-1.7v-1.4h1.7V120.6z M154.4,120.6
		h-1.7v-1.4h1.7V120.6z M150.9,120.6h-1.7v-1.4h1.7V120.6z M147.4,120.6h-1.7v-1.4h1.7V120.6z M144,120.6h-1.7v-1.4h1.7V120.6z
		 M140.5,120.6h-1.7v-1.4h1.7V120.6z M137,120.6h-1.7v-1.4h1.7V120.6z M133.5,120.6h-1.7v-1.4h1.7V120.6z M130.1,120.6h-1.7v-1.4
		h1.7V120.6z M126.6,120.6h-1.7v-1.4h1.7V120.6z M123.1,120.6h-1.7v-1.4h1.7V120.6z M119.7,120.6H118v-1.4h1.7V120.6z M116.2,120.6
		h-1.7v-1.4h1.7V120.6z M112.7,120.6H111v-1.4h1.7V120.6z M336.7,120.5l-0.1-1.4c0.5,0,1.1-0.2,1.6-0.3l0.3,1.3
		C338,120.4,337.3,120.5,336.7,120.5z M340.3,119.4l-0.5-1.2c0.5-0.3,0.9-0.6,1.4-1l0.7,1.1C341.3,118.6,340.8,119,340.3,119.4z
		 M343.2,116.7l-0.9-0.9c0.3-0.5,0.7-1,0.9-1.6l1,0.7C343.9,115.5,343.6,116.1,343.2,116.7z M344.9,112.8l-1.1-0.4
		c0.2-0.6,0.3-1.2,0.3-1.9l1.2,0.1C345.2,111.4,345.1,112.1,344.9,112.8z M345.3,108.6h-1.2v-2.1h1.2V108.6z M345.3,104.4h-1.2v-2.1
		h1.2V104.4z M345.3,100.3h-1.2v-2.1h1.2V100.3z M345.3,96.2h-1.2v-2.1h1.2V96.2z M345.3,92.1h-1.2V90h1.2V92.1z M345.3,88h-1.2
		v-2.1h1.2V88z M345.3,83.8h-1.2v-2.1h1.2V83.8z M345.3,79.7h-1.2v-2.1h1.2V79.7z M345.3,75.6h-1.2v-2.1h1.2V75.6z M345.3,71.5h-1.2
		v-2.1h1.2V71.5z M345.3,67.4h-1.2v-2.1h1.2V67.4z M345.3,63.3h-1.2v-2.1h1.2V63.3z M345.3,59.1h-1.2V57h1.2V59.1z M345.3,55h-1.2
		v-2h1.2V55z M345.3,50.9h-1.2v-2.1h1.2V50.9z M345.3,46.8h-1.2v-2.1h1.2V46.8z"/>
	<rect x="100.8" y="135.6" class="st2" width="1.2" height="1"/>
</g>
<g>
	<rect x="363.4" y="41.6" class="st2" width="1.4" height="1"/>
	<path class="st2" d="M364.8,64h-1.4v-2.1h1.4V64z M364.8,59.8h-1.4v-2.1h1.4V59.8z M364.8,55.5h-1.4v-2.1h1.4V55.5z M364.8,51.2
		h-1.4v-2.1h1.4V51.2z M364.8,46.9h-1.4v-2.1h1.4V46.9z"/>
	<polygon class="st2" points="365.1,67.9 363.4,67.9 363.4,66.2 364.8,66.2 364.8,66.5 365.1,66.5 	"/>
	<path class="st2" d="M414.5,128.3h-1.4v-2h1.4V128.3z M414.5,124.3h-1.4v-2h1.4V124.3z M414.5,120.2h-1.4v-2h1.4V120.2z
		 M414.5,116.1h-1.4v-2h1.4V116.1z M414.5,112h-1.4v-2h1.4V112z M414.5,107.9h-1.4v-2h1.4V107.9z M414.5,103.8h-1.4v-2h1.4V103.8z
		 M414.5,99.7h-1.4v-2h1.4V99.7z M414.5,95.6h-1.4v-2h1.4V95.6z M414.5,91.5h-1.4v-2h1.4V91.5z M414.5,87.5h-1.4v-2h1.4V87.5z
		 M414.5,83.4h-1.4v-2h1.4V83.4z M414.5,79.3h-1.4v-2h1.4V79.3z M413.1,75.2c0-0.6-0.1-1.2-0.3-1.8l1.3-0.4c0.2,0.7,0.3,1.4,0.4,2.2
		L413.1,75.2z M412.1,71.7c-0.3-0.5-0.7-1-1.1-1.5l1-1c0.5,0.5,1,1.1,1.3,1.7L412.1,71.7z M409.5,69c-0.5-0.3-1.1-0.6-1.7-0.8
		l0.4-1.3c0.7,0.2,1.4,0.5,2,0.9L409.5,69z M405.9,67.9c-0.1,0-0.3,0-0.4,0h-1.6v-1.4h1.6c0.2,0,0.4,0,0.5,0L405.9,67.9z
		 M401.9,67.9h-2v-1.4h2V67.9z M397.8,67.9h-2v-1.4h2V67.9z M393.7,67.9h-2v-1.4h2V67.9z M389.6,67.9h-2v-1.4h2V67.9z M385.5,67.9
		h-2v-1.4h2V67.9z M381.5,67.9h-2v-1.4h2V67.9z M377.4,67.9h-2v-1.4h2V67.9z M373.3,67.9h-2v-1.4h2V67.9z M369.2,67.9h-2v-1.4h2
		V67.9z"/>
	<rect x="413.1" y="130.4" class="st2" width="1.4" height="1"/>
</g>
<g>
	<path class="st5" d="M346.6,41.5c0-0.4,0-0.7,0-1.1c0-7.5-6.1-13.6-13.6-13.6s-13.6,6.1-13.6,13.6c0,0.4,0,0.7,0,1.1H346.6z"/>
	<path class="st5" d="M391.2,41.5c0-0.4,0-0.7,0-1.1c0-7.5-6.1-13.6-13.6-13.6S364,32.9,364,40.4c0,0.4,0,0.7,0,1.1H391.2z"/>
	<path class="st5" d="M375.6,41.5c0.1-0.8,0.2-1.7,0.2-2.5c0-11-8.9-19.9-19.9-19.9S336,28,336,39c0,0.9,0.1,1.7,0.2,2.5H375.6z"/>
</g>
<g>
	<path class="st6" d="M436.9,240.4c-2.2-2.7-4.8-4.9-7.7-6.5l0.5-0.9l1-1.8l0,0c-3.3-1.8-6.9-2.9-10.6-3.4l-0.4,3.1
		c-3.3-0.4-6.7-0.1-10,0.9l-0.9-3c-3.5,1-6.9,2.7-9.9,5.1l2,2.5c-2.7,2.2-4.9,4.8-6.5,7.7l-2.8-1.5c-1.8,3.3-2.9,6.9-3.4,10.6
		l3.1,0.4c-0.4,3.3-0.1,6.7,0.9,10l-3,0.9c1,3.5,2.7,6.9,5.1,9.9l2.5-2c2.2,2.7,4.8,4.9,7.7,6.5l-1.1,1.9l-0.4,0.8l0,0
		c3.3,1.8,6.9,2.9,10.6,3.4l0.4-3.1c3.3,0.4,6.8,0.1,10-0.9l0.9,3c3.5-1,6.8-2.7,9.9-5.1l-2-2.5c2.7-2.2,4.9-4.8,6.5-7.7l2.1,1.2
		l0.6,0.3c1.8-3.3,2.9-6.9,3.3-10.6l-3.1-0.4c0.4-3.3,0.1-6.8-0.9-10l3-0.9c-1-3.5-2.7-6.8-5.1-9.8L436.9,240.4z M425.6,267.2
		c-6,4.8-14.7,3.8-19.5-2.2s-3.8-14.7,2.2-19.5s14.7-3.8,19.5,2.2S431.6,262.4,425.6,267.2z"/>
</g>
<path d="M437.4,308.4H50.7c-1.3,0-2.3-1-2.3-2.3l0,0c0-1.3,1-2.3,2.3-2.3h386.7c1.3,0,2.3,1,2.3,2.3l0,0
	C439.7,307.3,438.6,308.4,437.4,308.4z"/>
<path class="st7" d="M430.2,292.1v5.1c0,0.3,0,0.5,0,0.8c-0.4,3.3-3.2,5.8-6.5,5.8h-361c-3.4,0-6.2-2.5-6.5-5.8c0-0.2,0-0.5,0-0.8
	v-5.1H430.2z"/>
<path class="st8" d="M430.2,298c-0.4,3.3-3.2,5.8-6.5,5.8h-361c-3.4,0-6.2-2.5-6.5-5.8H430.2z"/>
<path class="st9" d="M299,247.2H193.7c-22,0-39.8-17.8-39.8-39.8v-34.6c0-22,17.8-39.8,39.8-39.8H299c22,0,39.8,17.8,39.8,39.8v34.6
	C338.8,229.4,321,247.2,299,247.2z"/>
<g>
	<path class="st10" d="M274.4,217.6h-27.2c-2.3,0-4.2-1.9-4.2-4.2l0,0c0-2.3,1.9-4.2,4.2-4.2h27.2c2.3,0,4.2,1.9,4.2,4.2l0,0
		C278.5,215.8,276.7,217.6,274.4,217.6z"/>
	<path class="st11" d="M294.1,184.3h-59.3c-2.3,0-4.2-1.9-4.2-4.2l0,0c0-2.3,1.9-4.2,4.2-4.2h59.3c2.3,0,4.2,1.9,4.2,4.2l0,0
		C298.3,182.5,296.4,184.3,294.1,184.3z"/>
	<path class="st11" d="M294.1,200.1h-59.3c-2.3,0-4.2-1.9-4.2-4.2l0,0c0-2.3,1.9-4.2,4.2-4.2h59.3c2.3,0,4.2,1.9,4.2,4.2l0,0
		C298.3,198.2,296.4,200.1,294.1,200.1z"/>
	<g>
		<path class="st12" d="M244.8,196.3c0,0.8-0.7,1.5-1.5,1.5s-1.5-0.7-1.5-1.5s0.7-1.5,1.5-1.5S244.8,195.5,244.8,196.3z"/>
		<path class="st12" d="M249.9,196.3c0,0.8-0.7,1.5-1.5,1.5s-1.5-0.7-1.5-1.5s0.7-1.5,1.5-1.5S249.9,195.5,249.9,196.3z"/>
		<path class="st12" d="M254.9,196.3c0,0.8-0.7,1.5-1.5,1.5s-1.5-0.7-1.5-1.5s0.7-1.5,1.5-1.5S254.9,195.5,254.9,196.3z"/>
		<path class="st12" d="M260,196.3c0,0.8-0.7,1.5-1.5,1.5s-1.5-0.7-1.5-1.5s0.7-1.5,1.5-1.5S260,195.5,260,196.3z"/>
		<path class="st12" d="M265,196.3c0,0.8-0.7,1.5-1.5,1.5s-1.5-0.7-1.5-1.5s0.7-1.5,1.5-1.5S265,195.5,265,196.3z"/>
		<path class="st12" d="M270.1,196.3c0,0.8-0.7,1.5-1.5,1.5s-1.5-0.7-1.5-1.5s0.7-1.5,1.5-1.5S270.1,195.5,270.1,196.3z"/>
		<path class="st12" d="M275.1,196.3c0,0.8-0.7,1.5-1.5,1.5s-1.5-0.7-1.5-1.5s0.7-1.5,1.5-1.5S275.1,195.5,275.1,196.3z"/>
		<path class="st12" d="M280.1,196.3c0,0.8-0.7,1.5-1.5,1.5s-1.5-0.7-1.5-1.5s0.7-1.5,1.5-1.5C279.5,194.8,280.1,195.5,280.1,196.3z
			"/>
		<path class="st12" d="M285.2,196.3c0,0.8-0.7,1.5-1.5,1.5s-1.5-0.7-1.5-1.5s0.7-1.5,1.5-1.5S285.2,195.5,285.2,196.3z"/>
	</g>
	<g>
		<circle class="st11" cx="262.6" cy="157.7" r="8.7"/>
		<g>
			<g>
				<path class="st13" d="M262.6,157.4c0.9,0,1.6-0.4,2.1-1c0.4-0.5,0.6-1,0.6-1.7c0-1.5-1.2-2.8-2.7-2.8s-2.8,1.2-2.8,2.8
					c0,0.7,0.2,1.2,0.6,1.7C261,157,261.8,157.4,262.6,157.4z"/>
			</g>
			<path class="st13" d="M267.5,162.3c0,1.7-9.7,1.7-9.7,0v-2c0.4-2.8,8.9-2.9,9.7,0V162.3z"/>
		</g>
	</g>
	<path class="st14" d="M243.8,195.1v-0.2c0-0.9-0.7-1.6-1.6-1.6c-0.9,0-1.6,0.7-1.6,1.6v0.2h-0.2v3c0,0.5,3.8,0.5,3.8,0v-3H243.8z
		 M241.1,194.9c0-0.6,0.4-1.1,1.1-1.1c0.7,0,1.1,0.5,1.1,1.1v0.2h-2.1v-0.2H241.1z M242.4,196.6v0.9c0,0.2-0.1,0.3-0.3,0.3
		s-0.3-0.1-0.3-0.3v-0.9c-0.2-0.1-0.3-0.2-0.3-0.4c0-0.3,0.2-0.5,0.5-0.5s0.5,0.2,0.5,0.5C242.7,196.4,242.6,196.5,242.4,196.6z"/>
	<g>
		<g>
			<g>
				<path class="st14" d="M236.7,179.9c0.3,0,0.6-0.2,0.8-0.4c0.1-0.2,0.2-0.4,0.2-0.7c0-0.6-0.5-1.1-1.1-1.1s-1.1,0.5-1.1,1.1
					c0,0.3,0.1,0.5,0.2,0.7C236,179.7,236.3,179.9,236.7,179.9z"/>
			</g>
			<path class="st14" d="M238.6,181.8c0,0.7-3.8,0.7-3.8,0V181c0.1-1.1,3.5-1.1,3.8,0V181.8z"/>
		</g>
		<path class="st12" d="M258.5,181.4h-15.4c-0.7,0-1.2-0.6-1.2-1.2l0,0c0-0.7,0.6-1.2,1.2-1.2h15.4c0.7,0,1.2,0.6,1.2,1.2l0,0
			C259.7,180.8,259.2,181.4,258.5,181.4z"/>
		<path class="st12" d="M249,172.4h-14.9c-0.7,0-1.2-0.6-1.2-1.2l0,0c0-0.7,0.6-1.2,1.2-1.2H249c0.7,0,1.2,0.6,1.2,1.2l0,0
			C250.2,171.9,249.7,172.4,249,172.4z"/>
		<path class="st12" d="M278.8,181.4h-15.4c-0.7,0-1.2-0.6-1.2-1.2l0,0c0-0.7,0.6-1.2,1.2-1.2h15.4c0.7,0,1.2,0.6,1.2,1.2l0,0
			C280,180.8,279.5,181.4,278.8,181.4z"/>
	</g>
	<g>
		<path class="st11" d="M184.3,179.6v21.7c0,2.4,29.5,2.4,29.5,0v-21.7H184.3z"/>
		<g>
			<circle class="st13" cx="199" cy="187.8" r="3.6"/>
			<path class="st13" d="M199,198.8L199,198.8c-0.8,0-1.5-0.7-1.5-1.5V189h3v8.3C200.5,198.1,199.8,198.8,199,198.8z"/>
		</g>
		<path class="st11" d="M211.1,178.1h-3v-1.5c0-5.1-4.1-9.2-9.2-9.2s-9.2,4.1-9.2,9.2v1.5h-3v-1.5c0-6.7,5.5-12.2,12.2-12.2
			s12.2,5.5,12.2,12.2V178.1z"/>
	</g>
</g>
<g id="female_2_">
	<path class="st15" d="M325.7,178.4l1.4,5.7l0.3,1.1c0.3,1.3,9.1,0.8,8.5-0.8l-0.5-1.2l-2.7-6L325.7,178.4z"/>
	<g>
		<g>
			<path class="st15" d="M320.6,170c-0.1,6.1,2.8,11.1,7.2,11.1c4.5,0,8.8-3.8,8.9-11.2c0.1-4.7-3.7-8.5-8.1-8.5
				C324.1,161.5,320.6,165.3,320.6,170z"/>
		</g>
		<path d="M328.5,159.8c0,0-8.9,0.4-9.6,7.2c-1,5.9,3.4,1.6,5.3,5.5c2.1,4.5,0,7.9-2.7,8.8c2.4,3.3,16.1,3.2,19.6-2.6
			C343.4,171.3,340,160.2,328.5,159.8z"/>
		<circle class="st15" cx="323.9" cy="172.4" r="1.7"/>
	</g>
	<path class="st11" d="M323.6,286.4c-0.4-0.4-2.4-0.4-2.6,0.2c-0.2,0.7,0.2,1.1-0.7,2.2c0.5,0.1,2.2,0.2,2.7,0
		C323.6,288.6,324,286.9,323.6,286.4z"/>
	<path class="st16" d="M326.8,288.7H322c-0.4-20.3-0.4-42.3-0.2-58.9c0.1-5.9,0.2-9,1.3-12.5c2.2-7.2,12.4-5,13.2,1.5
		c0.3,3.6,0.5,10.7-6.2,34.7C333,264.1,328,276.8,326.8,288.7z"/>
	<path class="st11" d="M319.4,289c0.7,0,2.4-0.7,2.7-1.2c0.5,0.5,1.4,0.7,2.6,0.5c1.4-0.2,1.5-0.8,2.5-0.7c0.4,1.1,1.4,3.7,0.4,4.3
		c0,0-5.7,0-10.1,0C316.6,291,316.6,289.3,319.4,289z"/>
	<g>
		<path class="st11" d="M348,287c-0.4-0.4-2-0.4-2.2,0.2c-0.2,0.5,0.1,0.9-0.6,1.8c0.4,0.1,1.8,0.1,2.3,0
			C347.9,288.8,348.3,287.3,348,287z"/>
		<path class="st16" d="M332.2,218.6c1-7.5,14.3-6.7,15.1-0.2c0.3,3.5,1.3,8.8-1.2,34.9c5.3,9.9,3.8,24.2,5.4,34.7
			c0.2,1.6-4.4,2-4.7,0.6c-4.8-19.5-11.6-41.4-14.1-57.6C331.8,225.1,331.7,222.3,332.2,218.6z"/>
		<path class="st11" d="M344.4,288.7c0.7,0,1.7-1,2.1-1.4c0.5,0.5,1.3,1.2,2.5,1c1.4-0.2,1.5-0.8,2.5-0.7c0.4,1.1,1.4,3.7,0.4,4.3
			c0,0-5.4,0-9.8,0C341.2,291,341.6,288.9,344.4,288.7z"/>
	</g>
	<g>
		<path class="st15" d="M289.8,208l-0.5-2.5c1.2-0.5,3.1-1.5,5.2-2.3l1.2,4C293.4,207.6,291.3,207.9,289.8,208z"/>
		<path class="st17" d="M294.6,203.2c4.1-1.9,11.2-6.1,12.8-6.9l17.5-10.7c3.8-1.1,8.2,6.3,3.4,9.7c0,0-27,11.1-32.5,11.9
			L294.6,203.2z"/>
		<g>
			<path class="st15" d="M288.1,210c-1.7-0.5-2.3-3-2.3-3.2l3.5-1.3c1.7-0.7,2.7,1.4,1.6,2.9C290.9,208.4,289.7,210.4,288.1,210z"/>
			<path class="st15" d="M286.6,207.8c-4,0.9-3.9-0.1-3.9-0.1s1.4-0.5,3.8-1.1C287.9,206.2,287.5,207.5,286.6,207.8z"/>
		</g>
	</g>
	<path id="XMLID_1_" class="st17" d="M321.9,196.3c-0.8-4.1-1.3-8.1,2.9-10.7c2.5-1.5,10.5-2.6,14.3-1.3c3.8,1.7,3,9.1,3.7,20.7
		c2.6,5.8,3.7,7.7,4.5,13.4c0,0-1.4,4.3-11.2,4.3c-4.5,0-11-0.4-14-2.7c0.3-3.9,1.9-7.6,2.6-13C324.7,207,322,196.8,321.9,196.3z"/>
	<g>
		<g>
			<path class="st17" d="M341.2,185.1c4.6,3.5,9.1,9.1,11.2,12s7.6,14.8,7.6,14.8l-3.5,2.6l-9.5-12.9l-11.6-9.5
				C331.5,188,336.7,181.7,341.2,185.1z"/>
			<path class="st15" d="M361.5,214.9l-2.3-4.7c-0.5,1.4-3.1,2.7-3.9,2.7c0,0,2.4,3.5,3,4.1C359,217.6,361.4,216.6,361.5,214.9z"/>
		</g>
		<g>
			<path class="st15" d="M357.8,216.2v0.1c0.1,1.7,1.4,2.5,1.8,2.7h0.1c-1.2-0.2-1.6,1.4-1,1.8c1.8,1.2,4.4-0.5,4.6-1.5
				s-1.8-4.5-1.8-4.5C360.4,214,357.7,214.1,357.8,216.2z"/>
			<path class="st18" d="M357.8,216.3c0.1,1.9,1.8,2.7,1.8,2.7c1,0,1.4-0.1,2.4-0.1c-0.6-0.3-1.9-1.1-1.4-2.7
				C359.6,215.5,358.1,216.1,357.8,216.3z"/>
			<path class="st15" d="M357.8,216.1c-0.3,1.6-0.2,3.9,0.2,4.9c0,0,1,0.1,0.9-1.8c0-0.5,0-1.5,0.5-1.9c1.5-1,1.7-1.9,1.2-2.6
				C359.9,213.7,357.8,214.7,357.8,216.1z"/>
			<path class="st15" d="M362.3,220.4c-0.8,0.5-2.9,1.6-3.2,1.4c-0.3-0.3,1.3-2,2.4-2.3C362.6,219.3,362.7,220.2,362.3,220.4z"/>
		</g>
	</g>
</g>
<g id="male_02_2_">
	<path class="st19" d="M302.6,86.4c2.3-3.3,0.2-13.5-9.5-16.4c-8.2-2.1-12.4,0.5-23.5,3.5l1.7,13L302.6,86.4L302.6,86.4z"/>
	<path class="st19" d="M282.8,70.5c0,0-19.8,4.1-27.1,6.8c-4.2,1.5-5.2,5-3.6,7.7c2.4,4,30.8,1.1,30.8,1.1
		C292.7,83.4,287.5,70.3,282.8,70.5z"/>
	<path class="st19" d="M292.1,69.4c0,0,12.7,4.3,19.8,7.5c6.9,0.5,6.5,9.1,3.2,9.7c-7.5,2-24.1-1.6-24.1-1.6
		C281.3,81.6,287.4,68.9,292.1,69.4z"/>
	<path class="st19" d="M272,78.2c0,0-4-6.1,5.9-10.8s16.6,0,14.9,5.7s-7.5,9.5-7.5,9.5S275.5,82.7,272,78.2z"/>
	<path class="st20" d="M283.1,77.4c4.8-3.3,2.9-9.7,2.9-9.7l-1.8-3.4l-1.5-2.9l-8,3.1l1.4,5.9c0,0,0.4,1.4,1.3,2.9
		C278.5,75.2,280.4,77.4,283.1,77.4z"/>
	<path class="st21" d="M277.4,73.2c3.8-2.5,5.8-6.2,6.8-9l-1.5-2.9l-8,3.1l1.4,5.9C276.2,70.3,276.6,71.7,277.4,73.2z"/>
	<g>
		<path class="st22" d="M265.6,53.8c0,0-1.8,0.5-2.1,2.7c-0.3,2.2,1.9,3.1,1.9,3.1s-1.4,2.7,1.6,3.8
			C273.1,65.6,272.5,52.4,265.6,53.8z"/>
		<path class="st20" d="M267.3,60.8c1.9,5.5,5.8,10.7,8.9,9.4c5.3-2.2,9.8-8.1,7.6-14.4c-2.2-6.3-7-9.1-12-7.4
			C266.8,50.3,265.2,54.5,267.3,60.8z"/>
		<path class="st22" d="M264.8,53.7c1.1,1,5.3,2.6,13.9-1.6c1.4,1,2.5,2.6,3.2,4.4c0.8-0.2,1.1-0.6,1.7,0.1c0.8,1,1.2,3.1,0.2,3.8
			c-0.2,0.2-0.5,0.3-0.8,0.4c-0.3,1.5,0,3.1,1.2,3.5c1.8-1.5,1.6-1.8,2.3-3.5c2.1-1.5,2.1-4.8,0.4-5.7c1.6-1.5-0.3-4.9-2.8-5
			c0-1.9-2.3-5.2-5.3-3.2c0.1-2-3.5-3.3-5.5-0.4c-1.6-2.2-6.4-0.9-6.2,2C264.2,47.9,262.6,51.8,264.8,53.7z"/>
	</g>
	<g>
		<path class="st20" d="M252.1,83.5c0,0-0.5,4.8,8.4,5.6c10.1,0.9,18.6,0.6,18.6,0.6l0.9-3.8c0,0-17.9-6.1-22.3-6.3
			C252.4,79.2,252.1,83.5,252.1,83.5z"/>
		<path class="st20" d="M279.7,85.8l5.7-1.2c0,0,3.6,1.7,4.8,4c-0.8,0.9-3.1-1-3.1-1s0.2,3.8-0.3,4.5c-0.6,0.7-3.3,1.2-4.2,0.4
			c-0.9-0.8,0.7-1.7,0.7-1.7l-4.1-1.1C279.1,89.7,277.1,86.8,279.7,85.8z"/>
	</g>
	<path class="st20" d="M282.8,53.5c0-0.1-0.1-0.2-0.2-0.2s-0.2,0.1-0.2,0.2s0.1,0.2,0.2,0.2S282.8,53.6,282.8,53.5z"/>
	<g>
		<path class="st20" d="M315.4,80.7c0,0,3,3.8-4.1,9.2c-8.1,6.1-15.4,10.4-15.4,10.4l-2.8-2.7c0,0,11.9-14.7,15.5-17.2
			C312.8,77.3,315.4,80.7,315.4,80.7z"/>
		<path class="st20" d="M293.1,97.6l-3.2,4.8c0,0,0.3,4,2,5.9c1.2-0.4,0.2-3.3,0.2-3.3s3.4,1.6,4.3,1.3c0.9-0.3,2.3-2.7,1.9-3.8
			c-0.4-1.1-1.8,0-1.8,0l0.7-3.6C297.7,97,294.4,95.6,293.1,97.6z"/>
	</g>
</g>
<g id="male_01_2_">
	<path class="st23" d="M136.9,168c0.5,5.2-2.1,10.7-5.3,10.6c-4.5-0.1-10.3-3.8-10.9-8.9c-0.5-5.2,2.6-9.7,7.1-10.2
		C132.2,159,136.3,162.9,136.9,168z"/>
	<g>
		<path class="st11" d="M109,287c0,0,4.7-0.5,8.4,0c3.1,2,4.4,1.9,4.4,1.9c1.3,0.3,1.9,2.1,0.8,2.1h-13.9L109,287z"/>
		<path class="st11" d="M131.5,287c0,0,4.6-0.5,8.4,0c3.4,2,4.7,1.9,4.7,1.9c1.4,0.3,2.2,2.1,1.1,2.1h-13.9L131.5,287z"/>
		<polygon class="st23" points="127.2,184.8 118.5,181.8 124.8,168.6 130.9,171.6 		"/>
		<path class="st24" d="M135.9,194c0,0,6.8,5,3.5,10.2c-2.5,3.9-10.4-0.3-10.4-4.9C129,195.2,132.2,192.8,135.9,194z"/>
		<path class="st25" d="M114.9,214.5c0,0-1.6,2.8-2.7,8.5c-0.4,2,0.1,11-0.1,26.3c-3.2,19.7-3.5,39.4-3.5,39.4l8.8-1.7l13.4-71.7
			L114.9,214.5z"/>
		<path class="st25" d="M134.8,216.3c1.7,13.5,3,25.7,3.1,34.5l2,36.2l-8.3,1.6c-1.7-11.2-4.6-25.2-5-38.2l-9.1-33.9L134.8,216.3z"
			/>
		<path class="st26" d="M112.3,215.6c0.6,3.5,0.9,3.7,0.9,3.7l22.2,0.5c0,0-0.7-3.5-0.1-5.4c0.1-0.3,0.1-1.4,0-3
			c-0.2-2.3-0.7-5.6-1.3-9.2c-1.4-7.8-3.5-17-5.4-20.4l-9.7-2.3c0,0-4.3,4.4-5.3,8.3C112.6,191.7,111.8,212.1,112.3,215.6z"/>
		<path class="st24" d="M128,199.8l7.4,11.7c-0.2-2.3-0.7-5.6-1.3-9.2L128,199.8z"/>
		<path class="st23" d="M125.3,196.8c0,0-2.6,5.6,0.1,7.1c2.7,1.5,5.4-3.3,5.4-3.3L125.3,196.8z"/>
		<path class="st26" d="M136.1,181.8l-1.9,12.1l-5.8-6.9c0,0-5.3-5.3-9.5-0.5s2.4,9.6,2.4,9.6s9.6,7.8,15.8,7
			c6.1-0.8,2.3-21.1,2.3-21.1L136.1,181.8z"/>
		<path class="st23" d="M136.1,181.8l-0.9-4.6l2.4-3.7c0,0,0.9-0.7,1.2,1.4c0.7,0.9,1.5,1.7,1.4,2.7c-0.1,1.1-0.8,4.4-0.8,4.4
			L136.1,181.8z"/>
		<polygon class="st27" points="118.9,179.5 119.6,177.8 129.8,181.8 130.7,186.3 		"/>
		<path d="M121.8,175c0,0-3.4-4.8-2.3-10.6c1-5.8,9.6-7,9.6-7s8.9-0.5,10.9,8.6c-0.9,1.2-4.8-0.8-4.8-0.8l-6.4,5.8
			c0,0,0.1-4.6-2.2-3.4c-2.3,1.2-1.6,4.8-1.6,4.8S122.9,174.7,121.8,175z"/>
	</g>
</g>
<g>
	<g>
		<g>
			<path class="st28" d="M367.1,144.9L367.1,144.9c0-0.2,0-0.2,0-0.2C367.1,144.6,367.1,144.9,367.1,144.9z"/>
			<path class="st28" d="M367.1,144.9L367.1,144.9c0-0.2,0-0.2,0-0.2C367.1,144.6,367.1,144.9,367.1,144.9z"/>
			<path class="st28" d="M460.7,145.3v-0.2C460.7,145.1,460.7,145.1,460.7,145.3L460.7,145.3z"/>
			<path class="st28" d="M460.7,145.3v-0.2C460.7,145.1,460.7,145.1,460.7,145.3L460.7,145.3z"/>
			<path class="st11" d="M414.1,122.9c-10.4,11.1-26.9,20.2-44.6,24.1c0,1.2,0,7.7-0.2,37.9c-0.2,40.3,38.1,59.9,44.1,62.9
				c5.8-2.7,44.6-22.3,44.7-62.5c0.1-30.2,0.2-36.7,0.2-37.9C440.7,143.3,424.4,134.1,414.1,122.9z"/>
		</g>
	</g>
	<g>
		<path class="st12" d="M414,127.2c-10.7,9.8-25.5,17.5-41.8,21.7l-0.2,35.9c-0.1,16.4,6.5,31.3,19.4,44.2
			c8.5,8.5,17.5,13.7,22,16.1c0.2-0.1,0.4-0.2,0.6-0.3V127.2C414.1,127.3,414,127.3,414,127.2z"/>
		<path class="st29" d="M414.1,127.3v117.5c4.7-2.5,13.3-7.5,21.5-15.6c13.1-12.8,19.7-27.6,19.8-44l0.2-35.9
			C439.4,145,424.7,137.2,414.1,127.3z"/>
	</g>
	<path class="st30" d="M446.7,163.3c-12.4,1.9-29.3,13.2-39.9,26.8c-1.5-6.4-8.2-12.3-11.7-13.5l-10.6,10.7
		c6.6,3,13.9,11.5,14.8,20.1l10.6,1.6c4.5-8.8,16-30,39-41.3C448.5,165.9,446.9,163.5,446.7,163.3z"/>
</g>
</svg>
