<?xml version="1.0" encoding="utf-8"?>
<svg width="20px" height="20px" viewbox="0 0 20 20" version="1.1" xmlns:xlink="http://www.w3.org/1999/xlink" xmlns="http://www.w3.org/2000/svg">
  <defs>
    <path d="M0 0L20 0L20 20L0 20L0 0Z" id="path_1" />
    <clipPath id="mask_1">
      <use xlink:href="#path_1" />
    </clipPath>
  </defs>
  <g id="Group">
    <g id="eye-variant-with-enlarged-pupil">
      <path d="M0 0L20 0L20 20L0 20L0 0Z" id="Background" fill="none" fill-rule="evenodd" stroke="none" />
      <g clip-path="url(#mask_1)">
        <g id="Group" transform="translate(9.1552734E-05 4.998543)">
          <g id="Group">
            <path d="M0 2.46274C0 1.10261 1.10261 0 2.46274 0C3.82288 0 4.92549 1.10261 4.92549 2.46274C4.92549 3.82288 3.82288 4.92549 2.46274 4.92549C1.10261 4.92549 0 3.82288 0 2.46274Z" transform="translate(7.5371065 2.5381782)" id="Circle" fill="#000000" fill-rule="evenodd" stroke="none" />
            <path d="M19.8759 4.68896C19.6956 4.49812 15.4048 0 9.99866 0C4.59309 0 0.30295 4.49812 0.123054 4.68896C-0.041018 4.86422 -0.041018 5.13751 0.123054 5.31193C0.303664 5.50278 4.59392 10.0029 9.99866 10.0029C15.4048 10.0029 19.6969 5.50278 19.8759 5.31193C20.0412 5.13751 20.0412 4.86279 19.8759 4.68896L19.8759 4.68896ZM9.99985 8.80813C7.90118 8.80813 6.19383 7.10043 6.19383 5.00009C6.19383 2.90142 7.90118 1.19276 9.99985 1.19276C12.0984 1.19276 13.8081 2.90083 13.8081 5.00009C13.8077 7.09924 12.0984 8.80813 9.99985 8.80813L9.99985 8.80813ZM6.98183 1.40597C5.95326 2.27155 5.28412 3.55283 5.28412 5.00009C5.28412 6.44676 5.95326 7.72816 6.98183 8.59528C4.13586 7.67997 1.90096 5.75406 1.10213 5.00009C1.90108 4.24695 4.13645 2.3208 6.98183 1.40597L6.98183 1.40597ZM13.0193 8.59385C14.0472 7.72768 14.7171 6.44604 14.7171 5.00009C14.7171 3.55414 14.0478 2.27345 13.0185 1.40728C15.8643 2.32259 18.0976 4.24612 18.8969 5.00009C18.0974 5.75335 15.8642 7.67724 13.0193 8.59385L13.0193 8.59385Z" id="Shape" fill="#000000" fill-rule="evenodd" stroke="none" />
          </g>
        </g>
      </g>
    </g>
    <path d="M14.8781 0.121879C14.7156 -0.040626 14.4514 -0.040626 14.2889 0.121879L0.121878 14.289C-0.0406262 14.4515 -0.0406262 14.7157 0.121878 14.8782C0.203561 14.959 0.310204 14.9998 0.416887 14.9998C0.52357 14.9998 0.630213 14.959 0.711075 14.8782L14.8781 0.711075C15.0406 0.548571 15.0406 0.284383 14.8781 0.121879L14.8781 0.121879Z" transform="translate(2.5 3.0001373)" id="Shape" fill="#000000" fill-rule="evenodd" stroke="none" />
  </g>
</svg>