<?xml version="1.0" encoding="utf-8"?>
<!-- Generator: Adobe Illustrator 21.0.0, SVG Export Plug-In . SVG Version: 6.00 Build 0)  -->
<svg version="1.1" id="Layer_1" xmlns="http://www.w3.org/2000/svg" xmlns:xlink="http://www.w3.org/1999/xlink" x="0px" y="0px"
	 viewBox="0 0 138 138" style="enable-background:new 0 0 138 138;" xml:space="preserve">
<style type="text/css">
	.st0{fill:#F4F4F4;}
	.st1{fill:#BF0000;}
	.st2{fill:#FFFFFF;}
</style>
<g>
	<rect class="st0" width="138" height="138"/>
</g>
<g>
	<g>
		<path class="st1" d="M99,69c0-0.3,0-0.5,0-0.7c0-6.3,0-12.5,0-18.8c0-0.3-0.1-0.6-0.3-0.8c-6.5-6.5-12.9-12.9-19.4-19.4
			c-0.2-0.2-0.4-0.3-0.7-0.3c-13,0-26.1,0-39.1,0c-0.2,0-0.3,0-0.6,0c0,13.4,0,26.7,0,40c-2.5,0-5,0-7.5,0c0,8.4,0,16.7,0,25
			c2.5,0,5,0,7.5,0c0,5,0,10,0,15c20,0,40,0,60.1,0c0-5,0-10,0-15c2.5,0,5,0,7.5,0c0-8.4,0-16.7,0-25C104,69,101.6,69,99,69z
			 M79,32.6c5.5,5.5,10.9,10.9,16.4,16.3C90,49,84.5,49,79,49C79,43.5,79,38.1,79,32.6z M41.5,31.5c11.7,0,23.4,0,35.1,0
			c0,6.7,0,13.3,0,20c6.7,0,13.3,0,20,0c0,5.9,0,11.7,0,17.5c-18.3,0-36.7,0-55.1,0C41.5,56.5,41.5,44,41.5,31.5z M96.6,106.6
			c-18.4,0-36.7,0-55.1,0c0-4.2,0-8.3,0-12.5c18.4,0,36.7,0,55.1,0C96.6,98.2,96.6,102.4,96.6,106.6z"/>
	</g>
	<path class="st2" d="M63.3,74.2c1.8-0.3,3.6-0.3,5.4-0.3c1.3,0,2.6,0.2,3.8,0.7c2.5,1,3.8,2.9,4.1,5.6c0.1,1.4,0,2.8-0.5,4.1
		c-0.9,2.4-2.6,3.8-5.1,4.4c-1.9,0.5-3.7,0.5-5.6,0.4c-0.5,0-1-0.1-1.5-0.1c-0.5,0-0.6-0.2-0.6-0.6c0-4.5,0-9.1,0-13.6
		C63.3,74.7,63.3,74.5,63.3,74.2z M66.8,76.7c0,3.3,0,6.5,0,9.9c0.6,0,1.2,0,1.8,0c2-0.1,3.5-1.2,4.1-3.1c0.4-1.2,0.4-2.5,0.1-3.8
		c-0.3-1.3-1.1-2.2-2.3-2.7C69.3,76.5,68.1,76.5,66.8,76.7z"/>
	<path class="st2" d="M49.8,74.2c1.7-0.3,3.4-0.3,5.2-0.3c1,0,1.9,0.2,2.8,0.5c2.1,0.8,3.1,2.8,2.7,4.9c-0.4,2.4-1.8,3.8-4.3,4.2
		c-0.5,0.1-1,0.1-1.5,0.2c-0.5,0-1,0-1.6,0c0,1.7,0,3.5,0,5.3c-1.2,0-2.3,0-3.4,0C49.8,84.1,49.8,79.2,49.8,74.2z M53.2,81
		c1,0.2,1.9,0.2,2.8-0.2c0.9-0.4,1.3-1.3,1.3-2.4c-0.1-0.9-0.6-1.6-1.6-1.7c-0.7-0.1-1.5-0.1-2.2-0.1c-0.1,0-0.2,0.2-0.2,0.3
		C53.2,78.2,53.2,79.6,53.2,81z"/>
	<path class="st2" d="M79.4,74.1c3.1,0,6.1,0,9.1,0c0,0.9,0,1.8,0,2.8c-1.9,0-3.8,0-5.7,0c0,1.2,0,2.3,0,3.4c1.8,0,3.5,0,5.4,0
		c0,0.6,0,1.1,0,1.7c0,1.1,0,1.1-1.1,1.1c-1.2,0-2.5,0-3.7,0c-0.2,0-0.3,0-0.6,0c0,2,0,4,0,6c-1.1,0-2.2,0-3.4,0
		C79.4,84,79.4,79.1,79.4,74.1z"/>
</g>
</svg>
