<?xml version="1.0" encoding="utf-8"?>
<!-- Generator: Adobe Illustrator 25.0.1, SVG Export Plug-In . SVG Version: 6.00 Build 0)  -->
<svg version="1.1" id="Layer_1" xmlns="http://www.w3.org/2000/svg" xmlns:xlink="http://www.w3.org/1999/xlink" x="0px" y="0px"
	 viewBox="0 0 24 25.6" style="enable-background:new 0 0 24 25.6;" xml:space="preserve">
<style type="text/css">
	.st0{fill:#BF0000;}
	.st1{fill:#FFFFFF;}
</style>
<g>
	<g>
		<path class="st0" d="M21.6,12.8c0-0.1,0-0.2,0-0.2c0-2,0-4,0-6c0-0.1,0-0.2-0.1-0.3c-2.1-2.1-4.1-4.1-6.2-6.2
			C15.2,0,15.2,0,15.1,0C10.9,0,6.7,0,2.6,0C2.5,0,2.5,0,2.4,0c0,4.3,0,8.5,0,12.8c-0.8,0-1.6,0-2.4,0c0,2.7,0,5.3,0,8
			c0.8,0,1.6,0,2.4,0c0,1.6,0,3.2,0,4.8c6.4,0,12.8,0,19.2,0c0-1.6,0-3.2,0-4.8c0.8,0,1.6,0,2.4,0c0-2.7,0-5.3,0-8
			C23.2,12.8,22.4,12.8,21.6,12.8z M15.2,1.2c1.7,1.7,3.5,3.5,5.2,5.2c-1.7,0-3.5,0-5.2,0C15.2,4.6,15.2,2.9,15.2,1.2z M3.2,0.8
			c3.7,0,7.5,0,11.2,0c0,2.1,0,4.3,0,6.4c2.1,0,4.3,0,6.4,0c0,1.9,0,3.7,0,5.6c-5.9,0-11.7,0-17.6,0C3.2,8.8,3.2,4.8,3.2,0.8z
			 M20.8,24.8c-5.9,0-11.8,0-17.6,0c0-1.3,0-2.7,0-4c5.9,0,11.7,0,17.6,0C20.8,22.2,20.8,23.5,20.8,24.8z"/>
	</g>
	<path class="st1" d="M10.2,14.5c0.6-0.1,1.2-0.1,1.7-0.1c0.4,0,0.8,0.1,1.2,0.2c0.8,0.3,1.2,0.9,1.3,1.8c0,0.5,0,0.9-0.1,1.3
		c-0.3,0.8-0.8,1.2-1.6,1.4c-0.6,0.2-1.2,0.2-1.8,0.1c-0.2,0-0.3,0-0.5,0c-0.2,0-0.2-0.1-0.2-0.2c0-1.5,0-2.9,0-4.4
		C10.2,14.6,10.2,14.5,10.2,14.5z M11.3,15.3c0,1.1,0,2.1,0,3.2c0.2,0,0.4,0,0.6,0c0.6,0,1.1-0.4,1.3-1c0.1-0.4,0.1-0.8,0-1.2
		c-0.1-0.4-0.3-0.7-0.7-0.9C12.1,15.2,11.7,15.2,11.3,15.3z"/>
	<path class="st1" d="M5.9,14.5c0.6-0.1,1.1-0.1,1.7-0.1c0.3,0,0.6,0.1,0.9,0.2c0.7,0.3,1,0.9,0.9,1.6c-0.1,0.8-0.6,1.2-1.4,1.4
		c-0.2,0-0.3,0-0.5,0.1c-0.2,0-0.3,0-0.5,0c0,0.6,0,1.1,0,1.7c-0.4,0-0.7,0-1.1,0C5.9,17.6,5.9,16.1,5.9,14.5z M6.9,16.6
		c0.3,0.1,0.6,0.1,0.9-0.1c0.3-0.1,0.4-0.4,0.4-0.8c0-0.3-0.2-0.5-0.5-0.6c-0.2,0-0.5,0-0.7,0c0,0-0.1,0.1-0.1,0.1
		C6.9,15.8,6.9,16.2,6.9,16.6z"/>
	<path class="st1" d="M15.3,14.4c1,0,1.9,0,2.9,0c0,0.3,0,0.6,0,0.9c-0.6,0-1.2,0-1.8,0c0,0.4,0,0.7,0,1.1c0.6,0,1.1,0,1.7,0
		c0,0.2,0,0.4,0,0.5c0,0.4,0,0.4-0.4,0.4c-0.4,0-0.8,0-1.2,0c-0.1,0-0.1,0-0.2,0c0,0.6,0,1.3,0,1.9c-0.4,0-0.7,0-1.1,0
		C15.3,17.6,15.3,16,15.3,14.4z"/>
</g>
</svg>
