<?xml version="1.0" encoding="utf-8"?>
<!-- Generator: Adobe Illustrator 25.0.1, SVG Export Plug-In . SVG Version: 6.00 Build 0)  -->
<svg version="1.1" id="Layer_1" xmlns="http://www.w3.org/2000/svg" xmlns:xlink="http://www.w3.org/1999/xlink" x="0px" y="0px"
	 viewBox="0 0 216.14 229.08" enable-background="new 0 0 216.14 229.08" xml:space="preserve">
<g>
	<g>
		<path fill="#BF0000" d="M191.27,114.37c0-0.76,0-1.38,0-2.01c0-17.36-0.01-34.72,0.02-52.07c0-0.95-0.25-1.62-0.93-2.3
			c-17.92-17.88-35.82-35.78-53.71-53.7c-0.58-0.58-1.16-0.82-1.99-0.82C98.59,3.48,62.51,3.48,26.43,3.48c-0.47,0-0.94,0-1.56,0
			c0,37.02,0,73.9,0,110.87c-6.94,0-13.73,0-20.64,0c0,23.17,0,46.18,0,69.34c6.92,0,13.73,0,20.7,0c0,13.93,0,27.7,0,41.48
			c55.5,0,110.84,0,166.33,0c0-13.83,0-27.6,0-41.5c6.97,0,13.79,0,20.64,0c0-23.14,0-46.16,0-69.3
			C205.03,114.37,198.22,114.37,191.27,114.37z M135.86,13.58c15.11,15.11,30.19,30.18,45.29,45.27c-15.02,0-30.1,0-45.29,0
			C135.86,43.74,135.86,28.63,135.86,13.58z M31.8,10.41c32.36,0,64.66,0,97.12,0c0,18.45,0,36.86,0,55.38c18.54,0,36.92,0,55.4,0
			c0,16.21,0,32.3,0,48.49c-50.79,0-101.6,0-152.52,0C31.8,79.64,31.8,45.06,31.8,10.41z M184.36,218.31c-50.87,0-101.68,0-152.56,0
			c0-11.53,0-22.99,0-34.55c50.83,0,101.64,0,152.56,0C184.36,195.3,184.36,206.76,184.36,218.31z"/>
	</g>
	<path fill="#FFFFFF" d="M92.26,128.8c5.06-0.8,10-0.95,14.95-0.82c3.61,0.09,7.16,0.54,10.52,1.94c6.88,2.87,10.51,8.1,11.26,15.47
		c0.4,3.92,0.04,7.75-1.27,11.44c-2.38,6.71-7.33,10.53-14.07,12.26c-5.13,1.31-10.35,1.39-15.59,1.1
		c-1.43-0.08-2.87-0.35-4.29-0.32c-1.34,0.03-1.54-0.54-1.54-1.72c0.04-12.55,0.02-25.1,0.02-37.65
		C92.26,129.97,92.26,129.46,92.26,128.8z M101.93,135.52c0,9.12,0,18.13,0,27.29c1.75,0,3.42,0.05,5.08-0.01
		c5.4-0.21,9.68-3.44,11.24-8.52c1.05-3.43,1.19-6.92,0.32-10.4c-0.87-3.49-2.92-6.09-6.29-7.51
		C108.93,134.95,105.45,135.03,101.93,135.52z"/>
	<path fill="#FFFFFF" d="M54.97,128.78c4.81-0.81,9.55-0.91,14.3-0.81c2.69,0.05,5.31,0.45,7.84,1.42c5.69,2.2,8.47,7.7,7.58,13.6
		c-0.99,6.6-5,10.47-11.81,11.69c-1.37,0.24-2.77,0.4-4.16,0.48c-1.39,0.08-2.79,0.02-4.36,0.02c0,4.77,0,9.62,0,14.56
		c-3.21,0-6.26,0-9.4,0C54.97,156.13,54.97,142.52,54.97,128.78z M64.33,147.61c2.71,0.54,5.22,0.45,7.62-0.66
		c2.52-1.17,3.72-3.52,3.47-6.62c-0.19-2.41-1.71-4.32-4.42-4.82c-1.96-0.37-4.02-0.19-6.04-0.18c-0.21,0-0.6,0.52-0.6,0.81
		C64.31,139.92,64.33,143.71,64.33,147.61z"/>
	<path fill="#FFFFFF" d="M136.92,128.31c8.47,0,16.85,0,25.31,0c0,2.55,0,5.04,0,7.63c-5.28,0-10.51,0-15.85,0c0,3.19,0,6.27,0,9.46
		c4.88,0,9.75,0,14.83,0c0,1.63,0,3.17,0,4.71c0,3.06,0,3.06-3.06,3.06c-3.44,0-6.88,0-10.32,0c-0.47,0-0.94,0-1.54,0
		c0,5.58,0,11.03,0,16.57c-3.18,0-6.23,0-9.39,0C136.92,155.97,136.92,142.2,136.92,128.31z"/>
</g>
</svg>
