<?xml version="1.0" encoding="utf-8"?>
<!-- Generator: Adobe Illustrator 21.0.0, SVG Export Plug-In . SVG Version: 6.00 Build 0)  -->
<svg version="1.1" id="Layer_1" xmlns="http://www.w3.org/2000/svg" xmlns:xlink="http://www.w3.org/1999/xlink" x="0px" y="0px"
	 viewBox="0 0 470 315" style="enable-background:new 0 0 470 315;" xml:space="preserve">
<style type="text/css">
	.st0{fill:#1D345F;fill-opacity:0;}
	.st1{fill:#13BA42;}
	.st2{fill:#008C24;}
	.st3{fill:#F58633;}
	.st4{fill:#5FBEFF;}
	.st5{fill:none;stroke:#D4FFF7;stroke-width:3.9266;stroke-miterlimit:10;}
	.st6{fill:none;stroke:#F58633;stroke-width:3.9266;stroke-miterlimit:10;}
	.st7{fill:#1D345F;}
	.st8{fill:#D3D3D3;}
	.st9{fill:#8C8C8C;}
	.st10{fill:#5793CE;}
	.st11{fill:#C4D9E8;}
	.st12{fill:#D4ECFF;}
	.st13{fill:#173D7A;}
	.st14{fill:#FFFFFF;}
	.st15{fill:#396CAA;}
	.st16{fill:#D3D0CF;}
	.st17{fill:#F2F2F2;}
	.st18{fill:#4D93FF;}
	.st19{fill:#FFC2B0;}
	.st20{fill:#EA9C92;}
	.st21{fill:#274F89;}
	.st22{fill:#CC5200;}
</style>
<rect class="st0" width="470" height="315"/>
<path class="st1" d="M10.8,243.7c0.8,7.7,11.2,6,18,11.8c6.9,5.8,0.1,13.6,15.8,15.3c9.7,1,9-3,18.6,6.9c8.5,8.8,10-5.7,19.5-3.4
	c12.2,2.9,13.2-21.1,1.9-25.8s-16.8,1.9-18.8-8.2c-2.1-10.1-9.7-13.9-19.3-11.6c-11.9,2.8-10.2,13.2-16.4,7.5
	C24,230.4,9.7,233.4,10.8,243.7z"/>
<path class="st2" d="M99.4,275.2c-34.4-26.6-74.8-30.7-75.2-30.8c-1.5-0.1-1.4-2,0.2-1.9c0.4,0,41.6,4.3,76.4,31.2L99.4,275.2z"/>
<path class="st1" d="M50.2,217.1c-2,4.9,4.8,7.3,7,13c2.3,5.7-3.8,10.6,5.2,16.7c5.5,3.8,7.8-3.4,13,3.1c5.2,6.5,2.7,8.4,7.3,10.1
	c8.1,3,16.6-9.6,11.3-16c-5.3-6.5-12.5-4.2-10.4-10.9c2-6.8,2.7-9.6-3.8-11.4c-8.1-2.2-13.7,2.8-15.5-2.7
	C62.5,213.4,52.8,210.6,50.2,217.1z"/>
<path class="st2" d="M99.4,275.2l1.4-1.2c-12.2-27.6-41.8-52.9-42-53.1c-1-0.7-1.7,0.4-0.7,1.1C58.3,222.1,87.3,248,99.4,275.2z"/>
<g>
	<rect x="355.1" y="41.6" class="st3" width="1.4" height="1"/>
	<path class="st3" d="M356.5,81.3h-1.4v-2.1h1.4V81.3z M356.5,77h-1.4v-2.1h1.4V77z M356.5,72.7h-1.4v-2.1h1.4V72.7z M356.5,68.4
		h-1.4v-2.1h1.4V68.4z M356.5,64.1h-1.4V62h1.4V64.1z M356.5,59.9h-1.4v-2.1h1.4V59.9z M356.5,55.6h-1.4v-2.1h1.4V55.6z M356.5,51.3
		h-1.4v-2.1h1.4V51.3z M356.5,47h-1.4v-2.1h1.4V47z"/>
	<rect x="355.1" y="83.5" class="st3" width="1.4" height="1"/>
</g>
<g>
	<rect x="344.2" y="41.6" class="st3" width="1.2" height="1"/>
	<path class="st3" d="M102,133.5h-1.2v-2.1h1.2V133.5z M102,129.4l-1.2-0.1c0-0.7,0.2-1.5,0.3-2.2l1.1,0.4
		C102.1,128.2,102,128.8,102,129.4z M102.9,125.8l-1-0.6c0.3-0.6,0.6-1.3,1-1.8l0.9,0.9C103.4,124.6,103.1,125.2,102.9,125.8z
		 M104.9,122.8l-0.7-1.1c0.5-0.5,1-0.9,1.5-1.2l0.5,1.2C105.7,122,105.3,122.4,104.9,122.8z M107.7,121l-0.3-1.3
		c0.6-0.2,1.2-0.4,1.8-0.4l0.1,1.4C108.8,120.7,108.2,120.8,107.7,121z M335,120.6h-1.7v-1.4h1.7V120.6z M331.5,120.6h-1.7v-1.4h1.7
		V120.6z M328,120.6h-1.7v-1.4h1.7V120.6z M324.5,120.6h-1.7v-1.4h1.7V120.6z M321.1,120.6h-1.7v-1.4h1.7V120.6z M317.6,120.6h-1.7
		v-1.4h1.7V120.6z M314.1,120.6h-1.7v-1.4h1.7V120.6z M310.6,120.6h-1.7v-1.4h1.7V120.6z M307.2,120.6h-1.7v-1.4h1.7V120.6z
		 M303.7,120.6H302v-1.4h1.7V120.6z M300.2,120.6h-1.7v-1.4h1.7V120.6z M296.8,120.6H295v-1.4h1.7L296.8,120.6L296.8,120.6z
		 M293.3,120.6h-1.7v-1.4h1.7V120.6z M289.8,120.6h-1.7v-1.4h1.7V120.6z M286.3,120.6h-1.7v-1.4h1.7V120.6z M282.9,120.6h-1.7v-1.4
		h1.7V120.6z M279.4,120.6h-1.7v-1.4h1.7V120.6z M275.9,120.6h-1.7v-1.4h1.7V120.6z M272.4,120.6h-1.7v-1.4h1.7V120.6z M269,120.6
		h-1.7v-1.4h1.7V120.6z M265.5,120.6h-1.7v-1.4h1.7V120.6z M262,120.6h-1.7v-1.4h1.7V120.6z M258.6,120.6h-1.7v-1.4h1.7V120.6z
		 M255.1,120.6h-1.7v-1.4h1.7V120.6z M251.6,120.6h-1.7v-1.4h1.7V120.6z M248.1,120.6h-1.7v-1.4h1.7V120.6z M244.7,120.6H243v-1.4
		h1.7V120.6z M241.2,120.6h-1.7v-1.4h1.7V120.6z M237.7,120.6H236v-1.4h1.7V120.6z M234.2,120.6h-1.7v-1.4h1.7V120.6z M230.8,120.6
		H229v-1.4h1.7v1.4H230.8z M227.3,120.6h-1.7v-1.4h1.7V120.6z M223.8,120.6h-1.7v-1.4h1.7V120.6z M220.4,120.6h-1.7v-1.4h1.7V120.6z
		 M216.9,120.6h-1.7v-1.4h1.7V120.6z M213.4,120.6h-1.7v-1.4h1.7V120.6z M209.9,120.6h-1.7v-1.4h1.7V120.6z M206.5,120.6h-1.7v-1.4
		h1.7V120.6z M203,120.6h-1.7v-1.4h1.7V120.6z M199.5,120.6h-1.7v-1.4h1.7V120.6z M196.1,120.6h-1.7v-1.4h1.7V120.6z M192.6,120.6
		h-1.7v-1.4h1.7V120.6z M189.1,120.6h-1.7v-1.4h1.7V120.6z M185.6,120.6h-1.7v-1.4h1.7V120.6z M182.2,120.6h-1.7v-1.4h1.7V120.6z
		 M178.7,120.6H177v-1.4h1.7V120.6z M175.2,120.6h-1.7v-1.4h1.7V120.6z M171.7,120.6H170v-1.4h1.7V120.6z M168.3,120.6h-1.7v-1.4
		h1.7V120.6z M164.8,120.6h-1.7v-1.4h1.7V120.6z M161.3,120.6h-1.7v-1.4h1.7V120.6z M157.9,120.6h-1.7v-1.4h1.7V120.6z M154.4,120.6
		h-1.7v-1.4h1.7V120.6z M150.9,120.6h-1.7v-1.4h1.7V120.6z M147.4,120.6h-1.7v-1.4h1.7V120.6z M144,120.6h-1.7v-1.4h1.7V120.6z
		 M140.5,120.6h-1.7v-1.4h1.7V120.6z M137,120.6h-1.7v-1.4h1.7V120.6z M133.5,120.6h-1.7v-1.4h1.7V120.6z M130.1,120.6h-1.7v-1.4
		h1.7V120.6z M126.6,120.6h-1.7v-1.4h1.7V120.6z M123.1,120.6h-1.7v-1.4h1.7V120.6z M119.7,120.6H118v-1.4h1.7V120.6z M116.2,120.6
		h-1.7v-1.4h1.7V120.6z M112.7,120.6H111v-1.4h1.7V120.6z M336.7,120.5l-0.1-1.4c0.5,0,1.1-0.2,1.6-0.3l0.3,1.3
		C338,120.4,337.3,120.5,336.7,120.5z M340.3,119.4l-0.5-1.2c0.5-0.3,0.9-0.6,1.4-1l0.7,1.1C341.3,118.6,340.8,119,340.3,119.4z
		 M343.2,116.7l-0.9-0.9c0.3-0.5,0.7-1,0.9-1.6l1,0.7C343.9,115.5,343.6,116.1,343.2,116.7z M344.9,112.8l-1.1-0.4
		c0.2-0.6,0.3-1.2,0.3-1.9l1.2,0.1C345.2,111.4,345.1,112.1,344.9,112.8z M345.3,108.6h-1.2v-2.1h1.2V108.6z M345.3,104.4h-1.2v-2.1
		h1.2V104.4z M345.3,100.3h-1.2v-2.1h1.2V100.3z M345.3,96.2h-1.2v-2.1h1.2V96.2z M345.3,92.1h-1.2V90h1.2V92.1z M345.3,88h-1.2
		v-2.1h1.2V88z M345.3,83.8h-1.2v-2.1h1.2V83.8z M345.3,79.7h-1.2v-2.1h1.2V79.7z M345.3,75.6h-1.2v-2.1h1.2V75.6z M345.3,71.5h-1.2
		v-2.1h1.2V71.5z M345.3,67.4h-1.2v-2.1h1.2V67.4z M345.3,63.3h-1.2v-2.1h1.2V63.3z M345.3,59.1h-1.2V57h1.2V59.1z M345.3,55h-1.2
		v-2h1.2V55z M345.3,50.9h-1.2v-2.1h1.2V50.9z M345.3,46.8h-1.2v-2.1h1.2V46.8z"/>
	<rect x="100.8" y="135.6" class="st3" width="1.2" height="1"/>
</g>
<g>
	<rect x="335.4" y="41.6" class="st3" width="1.4" height="1"/>
	<path class="st3" d="M336.8,64h-1.4v-2.1h1.4V64z M336.8,59.8h-1.4v-2.1h1.4V59.8z M336.8,55.5h-1.4v-2.1h1.4V55.5z M336.8,51.2
		h-1.4v-2.1h1.4V51.2z M336.8,46.9h-1.4v-2.1h1.4V46.9z"/>
	<polygon class="st3" points="337.1,67.9 335.4,67.9 335.4,66.2 336.8,66.2 336.8,66.5 337.1,66.5 	"/>
	<path class="st3" d="M386.5,128.3h-1.4v-2h1.4V128.3z M386.5,124.3h-1.4v-2h1.4V124.3z M386.5,120.2h-1.4v-2h1.4V120.2z
		 M386.5,116.1h-1.4v-2h1.4V116.1z M386.5,112h-1.4v-2h1.4V112z M386.5,107.9h-1.4v-2h1.4V107.9z M386.5,103.8h-1.4v-2h1.4V103.8z
		 M386.5,99.7h-1.4v-2h1.4V99.7z M386.5,95.6h-1.4v-2h1.4V95.6z M386.5,91.5h-1.4v-2h1.4V91.5z M386.5,87.5h-1.4v-2h1.4V87.5z
		 M386.5,83.4h-1.4v-2h1.4V83.4z M386.5,79.3h-1.4v-2h1.4V79.3z M385.1,75.2c0-0.6-0.1-1.2-0.3-1.8l1.3-0.4c0.2,0.7,0.3,1.4,0.4,2.2
		L385.1,75.2z M384.1,71.7c-0.3-0.5-0.7-1-1.1-1.5l1-1c0.5,0.5,1,1.1,1.3,1.7L384.1,71.7z M381.5,69c-0.5-0.3-1.1-0.6-1.7-0.8
		l0.4-1.3c0.7,0.2,1.4,0.5,2,0.9L381.5,69z M377.9,67.9c-0.1,0-0.3,0-0.4,0h-1.6v-1.4h1.6c0.2,0,0.4,0,0.5,0L377.9,67.9z
		 M373.9,67.9h-2v-1.4h2V67.9z M369.8,67.9h-2v-1.4h2V67.9z M365.7,67.9h-2v-1.4h2V67.9z M361.6,67.9h-2v-1.4h2V67.9z M357.5,67.9
		h-2v-1.4h2V67.9z M353.5,67.9h-2v-1.4h2V67.9z M349.4,67.9h-2v-1.4h2V67.9z M345.3,67.9h-2v-1.4h2V67.9z M341.2,67.9h-2v-1.4h2
		V67.9z"/>
	<rect x="385.1" y="130.4" class="st3" width="1.4" height="1"/>
</g>
<g>
	<path class="st4" d="M339.6,41.5c0-0.4,0-0.7,0-1.1c0-7.5-6.1-13.6-13.6-13.6s-13.6,6.1-13.6,13.6c0,0.4,0,0.7,0,1.1H339.6z"/>
	<path class="st4" d="M384.2,41.5c0-0.4,0-0.7,0-1.1c0-7.5-6.1-13.6-13.6-13.6S357,32.9,357,40.4c0,0.4,0,0.7,0,1.1H384.2z"/>
	<path class="st4" d="M368.6,41.5c0.1-0.8,0.2-1.7,0.2-2.5c0-11-8.9-19.9-19.9-19.9S329,28,329,39c0,0.9,0.1,1.7,0.2,2.5H368.6z"/>
</g>
<g>
	<path class="st5" d="M204,67.4c1.4-5.6,1.6-11.2,0.8-16.5l1.7-0.3l3.4-0.5l0,0c-0.9-6.1-3-12-6.1-17.2l-4.4,2.6
		c-2.8-4.7-6.6-8.9-11.1-12.3l3.1-4.2c-4.8-3.6-10.4-6.3-16.5-7.8l-1.3,5c-5.6-1.4-11.2-1.6-16.5-0.8l-0.8-5.1
		c-6.1,0.9-12,3-17.2,6.1l2.6,4.4c-4.7,2.8-8.9,6.6-12.3,11.1l-4.1-3.1c-3.6,4.8-6.3,10.4-7.8,16.5l5,1.3
		c-1.4,5.6-1.6,11.2-0.8,16.5l-3.6,0.5l-1.5,0.2l0,0c0.9,6.1,3,12,6.1,17.2l4.4-2.6c2.8,4.7,6.6,8.9,11.1,12.3l-3.1,4.2
		c4.8,3.6,10.3,6.3,16.5,7.8l1.3-5c5.6,1.4,11.2,1.6,16.6,0.8l0.6,4l0.2,1.1c6.1-0.9,12-3,17.2-6.1l-2.6-4.4
		c4.7-2.8,8.9-6.6,12.3-11.1l4.1,3.1c3.6-4.8,6.3-10.4,7.8-16.5L204,67.4z M157.6,79.2c-12.2-3.1-19.6-15.5-16.5-27.8
		c3.1-12.2,15.5-19.6,27.8-16.5c12.2,3.1,19.6,15.5,16.5,27.7C182.2,74.9,169.8,82.3,157.6,79.2z"/>
</g>
<g>
	<path class="st5" d="M102.4,73.9c-1.9-2.4-4.2-4.2-6.7-5.6l0.4-0.8l0.9-1.6l0,0c-2.9-1.6-6-2.6-9.2-2.9l-0.3,2.7
		c-2.9-0.3-5.8-0.1-8.7,0.7L78,63.8c-3,0.9-5.9,2.3-8.5,4.4l1.7,2.1c-2.4,1.9-4.2,4.2-5.6,6.7l-2.4-1.3c-1.6,2.9-2.5,6-2.9,9.2
		l2.7,0.3c-0.3,2.9-0.1,5.8,0.7,8.7l-2.6,0.8c0.9,3,2.3,5.9,4.4,8.5l2.1-1.7c1.9,2.4,4.2,4.2,6.7,5.6l-0.9,1.7l-0.4,0.7l0,0
		c2.9,1.6,6,2.5,9.2,2.9l0.3-2.7c2.9,0.3,5.9,0.1,8.7-0.8l0.8,2.6c3-0.9,5.9-2.3,8.5-4.4l-1.7-2.1c2.4-1.9,4.3-4.2,5.6-6.7l1.9,1
		l0.5,0.3c1.6-2.9,2.5-6,2.9-9.2l-2.7-0.3c0.3-2.9,0.1-5.9-0.7-8.7l2.6-0.8c-0.9-3-2.3-5.9-4.4-8.5L102.4,73.9z M92.6,97.1
		c-5.2,4.1-12.8,3.3-16.9-1.9c-4.1-5.2-3.3-12.8,1.9-16.9c5.2-4.1,12.8-3.3,16.9,1.9S97.8,92.9,92.6,97.1z"/>
</g>
<g>
	<path class="st6" d="M436.9,240.4c-2.2-2.7-4.8-4.9-7.7-6.5l0.5-0.9l1-1.8l0,0c-3.3-1.8-6.9-2.9-10.6-3.4l-0.4,3.1
		c-3.3-0.4-6.7-0.1-10,0.9l-0.9-3c-3.5,1-6.9,2.7-9.9,5.1l2,2.5c-2.7,2.2-4.9,4.8-6.5,7.7l-2.8-1.5c-1.8,3.3-2.9,6.9-3.4,10.6
		l3.1,0.4c-0.4,3.3-0.1,6.7,0.9,10l-3,0.9c1,3.5,2.7,6.9,5.1,9.9l2.5-2c2.2,2.7,4.8,4.9,7.7,6.5l-1.1,1.9l-0.4,0.8l0,0
		c3.3,1.8,6.9,2.9,10.6,3.4l0.4-3.1c3.3,0.4,6.8,0.1,10-0.9l0.9,3c3.5-1,6.8-2.7,9.9-5.1l-2-2.5c2.7-2.2,4.9-4.8,6.5-7.7l2.1,1.2
		l0.6,0.3c1.8-3.3,2.9-6.9,3.3-10.6l-3.1-0.4c0.4-3.3,0.1-6.8-0.9-10l3-0.9c-1-3.5-2.7-6.8-5.1-9.8L436.9,240.4z M425.6,267.2
		c-6,4.8-14.7,3.8-19.5-2.2s-3.8-14.7,2.2-19.5s14.7-3.8,19.5,2.2S431.6,262.4,425.6,267.2z"/>
</g>
<path d="M437.4,308.4H50.7c-1.3,0-2.3-1-2.3-2.3l0,0c0-1.3,1-2.3,2.3-2.3h386.7c1.3,0,2.3,1,2.3,2.3l0,0
	C439.7,307.3,438.6,308.4,437.4,308.4z"/>
<path d="M79.2,261.3V110.4c0-13.6,11.3-24.7,25-24.7h277.3c13.8,0,25,11.1,25,24.6V266c0,13.6-11.3,24.6-25,24.6H109
	C92.6,290.7,79.2,277.6,79.2,261.3z"/>
<g>
	<path class="st7" d="M103.9,92.8h277c9.1,0,16.4,7.2,16.4,16.1v157.7c0,8.9-7.4,16.1-16.4,16.1h-277c-9.1,0-16.4-7.2-16.4-16.1
		V108.9C87.5,100,94.9,92.8,103.9,92.8z"/>
</g>
<path class="st8" d="M430.2,292.1v5.1c0,0.3,0,0.5,0,0.8c-0.4,3.3-3.2,5.8-6.5,5.8h-361c-3.4,0-6.2-2.5-6.5-5.8c0-0.2,0-0.5,0-0.8
	v-5.1H430.2z"/>
<path class="st9" d="M430.2,298c-0.4,3.3-3.2,5.8-6.5,5.8h-361c-3.4,0-6.2-2.5-6.5-5.8H430.2z"/>
<g>
	<g>
		
			<rect x="314.5" y="262.8" transform="matrix(0.2483 0.9687 -0.9687 0.2483 493.2916 -106.3011)" class="st10" width="1.3" height="3.8"/>
		
			<rect x="312.6" y="264.6" transform="matrix(0.2482 0.9687 -0.9687 0.2482 493.6824 -103.0551)" class="st10" width="1.3" height="3.8"/>
		
			<rect x="310.7" y="266.5" transform="matrix(0.2482 0.9687 -0.9687 0.2482 494.0447 -99.823)" class="st10" width="1.3" height="3.8"/>
		
			<rect x="308.8" y="268.3" transform="matrix(0.2483 0.9687 -0.9687 0.2483 494.3979 -96.5955)" class="st10" width="1.3" height="3.8"/>
	</g>
	<g>
		<path class="st11" d="M234.7,149.2l-35,20.5c-8.9-2.7-20.2-1.9-27.6,2.5c-9.1,5.3-9,13.8,0.1,19c2.1,1.2,4.4,2.1,6.9,2.7
			c1.8,0.4,3.6,0.8,5.5,0.9c7.3,0.7,15-0.6,20.6-3.9c6.8-4,8.5-9.7,5.1-14.6l4.8-2.8l-0.1-3.1l5.1,0l-0.1-2.9l5.1,0l-0.1-2.9l5.1,0
			l-0.1-2.9l5.1,0l-0.1-2.9l5.4,0l1.7-1l1.8-7.5L234.7,149.2z M185.5,188.4c-2.4,1.4-6.2,1.4-8.6,0.1c-2.4-1.4-2.4-3.6,0-5
			c2.4-1.4,6.2-1.4,8.6-0.1C187.9,184.8,187.9,187.1,185.5,188.4z"/>
		<path class="st11" d="M253.9,279l-47.2-27.1c-3.2-1.8-2.8-5,0.9-7.2l45.8-26.4c3.7-2.1,9.2-2.3,12.4-0.5l47.2,27.1
			c3.2,1.8,2.8,5-0.9,7.2l-45.8,26.4C262.6,280.6,257,280.8,253.9,279z"/>
		<g>
			<g>
				<path class="st10" d="M309.1,217.5l-8.2-4.7l30.1-17.4c1.4-0.8,1.4-2.2,0-3l-30.7-17.7c-1.4-0.8-3.7-0.8-5.1,0l-30.1,17.4
					l-8.2-4.7L287,170c5.9-3.4,15.5-3.4,21.5,0l30.7,17.7c5.9,3.4,5.9,9,0,12.4L309.1,217.5z"/>
			</g>
			<g>
				<path class="st12" d="M322.3,219.6c0-4.4-2.6-9.4-5.9-11.3l-54.5-31.4c-1.5-0.8-2.8-0.9-3.8-0.3l0,0l-65,37.8l62.9,47.4
					l64.1-37.2c0.2-0.1,0.4-0.2,0.6-0.3l0,0l0,0C321.6,223.3,322.3,221.7,322.3,219.6z"/>
				<path class="st13" d="M255.9,261.6l64.1-37.2c0.2-0.1,0.4-0.2,0.6-0.3l0,0l0,0c1.1-0.8,1.7-2.4,1.7-4.6c0-2.1-0.6-4.3-1.6-6.3
					l-73,42.2L255.9,261.6z"/>
				<path class="st10" d="M251.8,261.5L197.4,230c-3.3-1.9-5.9-7-5.9-11.3l0,0c0-4.4,2.6-6.4,5.9-4.5l54.5,31.4
					c3.3,1.9,5.9,7,5.9,11.3l0,0C257.8,261.4,255.1,263.4,251.8,261.5z"/>
			</g>
			<path class="st14" d="M243.7,250.9l-6.5-3.8c-0.7-0.4-1.2-1.4-1.2-2.3l0,0c0-0.9,0.5-1.3,1.2-0.9l6.5,3.8
				c0.7,0.4,1.2,1.4,1.2,2.3l0,0C244.9,250.8,244.3,251.2,243.7,250.9z"/>
		</g>
		<g>
			<g>
				<polygon class="st15" points="194.5,140.2 205.7,146.5 217.1,139.8 217.1,136.9 217,137 217,136.7 222.1,136.7 222,133.8 
					227,133.8 227,130.9 232,130.9 231.9,128 236.9,128 236.9,125.1 242.2,125.1 243.9,124.1 245.7,116.6 245.7,113.7 244.8,116.5 
					236.7,115.4 				"/>
				<g>
					<g>
						<g>
							<g>
								<g>
									<polygon class="st12" points="205.7,143.6 217.1,136.9 217,133.8 222,133.8 221.9,130.9 227,130.9 226.9,128 231.9,128 
										231.8,125.1 236.9,125.1 236.8,122.2 242.2,122.2 243.8,121.2 245.7,113.7 236.7,112.5 194.5,137.2 									"/>
								</g>
							</g>
							<g>
								<g>
									<path class="st15" d="M213.3,139.1c-1.1-1.6-2.9-3.2-5.2-4.5c-1.6-0.9-3.4-1.7-5.4-2.3l-8.2,4.8l11.2,6.4L213.3,139.1z"/>
								</g>
							</g>
							<g>
								<g>
									<polygon class="st10" points="245.4,114.9 245.7,113.7 244.2,113.5 208.5,134.4 210.4,135.5 									"/>
								</g>
							</g>
							<g>
								<g>
									<polygon class="st16" points="167.5,149.3 167.4,145.2 168.7,148 									"/>
								</g>
							</g>
							<path class="st15" d="M174.4,158.7c9.1,5.2,23.9,5.1,33-0.2c4.5-2.7,6.8-6.1,6.8-9.6l0,0l-0.1-4.4l-0.7,0.8
								c-1.1-2.2-3.1-4.2-6-5.9c-9.1-5.2-23.9-5.1-33,0.2C165.2,144.9,165.2,153.5,174.4,158.7z M187.6,150.9c2.4,1.4,2.4,3.6,0,5
								c-2.4,1.4-6.2,1.4-8.6,0.1c-2.4-1.4-2.4-3.6,0-5C181.4,149.6,185.2,149.6,187.6,150.9z"/>
							<g>
								<g>
									<path class="st17" d="M174.2,154.5c9.1,5.2,23.9,5.1,33-0.2c9.1-5.3,9-13.8-0.1-19c-9.1-5.2-23.9-5.1-33,0.2
										C165,140.8,165.1,149.3,174.2,154.5z M187.5,146.8c2.4,1.4,2.4,3.6,0,5c-2.4,1.4-6.2,1.4-8.6,0.1c-2.4-1.4-2.4-3.6,0-5
										C181.2,145.4,185.1,145.4,187.5,146.8z"/>
								</g>
							</g>
							<path class="st10" d="M184.8,156.8c-2,0.3-4.2,0-5.8-0.9c-1.7-1-2.2-2.4-1.5-3.6l-4.1-3.3c0,0-2.2-2.4-4.3-4.9
								c-3.3,4.9-1.6,10.6,5.3,14.5c3,1.7,6.4,2.7,10.2,3.2L184.8,156.8z"/>
							<g>
								<g>
									<path class="st12" d="M174.2,154.5c2.1,1.2,4.4,2.1,6.9,2.7c1.8,0.4,3.6,0.8,5.5,0.9c7.3,0.7,15-0.6,20.6-3.9
										c9.1-5.3,9-13.8-0.1-19c-9.1-5.2-23.9-5.1-33,0.2C165,140.8,165.1,149.3,174.2,154.5z M187.5,146.8c2.4,1.4,2.4,3.6,0,5
										c-2.4,1.4-6.2,1.4-8.6,0.1c-2.4-1.4-2.4-3.6,0-5C181.2,145.4,185.1,145.4,187.5,146.8z"/>
								</g>
							</g>
							<g>
								<g>
									<g>
										<path class="st15" d="M169.9,145.1c0.4-2.7,2.4-5.2,5.9-7.3c8.1-4.7,21.2-4.8,29.3-0.2c4,2.3,6.1,5.3,6.1,8.4
											c0.6-3.5-1.4-7-6-9.6c-8.1-4.6-21.3-4.5-29.3,0.2C171.9,138.9,169.9,142,169.9,145.1z"/>
									</g>
								</g>
							</g>
						</g>
						<g>
							<g>
								<g>
									<g>
										<path class="st15" d="M164.4,182.8c-1.6,0-3.2-0.4-4.6-1.2c-3.3-1.9-5.1-5.6-5.1-10.5c-0.1-9,6.2-20,13.9-24.5
											c4.2-2.5,8.4-2.8,11.7-1c1.4,0.8,2.5,1.9,3.4,3.4c1.1,1.9,1.7,4.3,1.7,7.1c0.1,9-6.2,20-13.9,24.5
											C169.1,182,166.7,182.8,164.4,182.8z M175.7,147.7c-1.6,0-3.5,0.6-5.4,1.7c-6.8,4-12.4,13.7-12.3,21.7
											c0,3.7,1.3,6.4,3.5,7.7c2.2,1.3,5.2,0.9,8.4-1c6.8-4,12.4-13.7,12.3-21.7c0-2.2-0.5-4.1-1.3-5.5l0,0
											c-0.6-1-1.3-1.7-2.2-2.2C177.8,147.9,176.8,147.7,175.7,147.7z"/>
									</g>
								</g>
							</g>
						</g>
					</g>
				</g>
			</g>
			<path class="st12" d="M180,155l6.5,1.6l0.9-4.8c-2.4,1.4-6.2,1.4-8.6,0.1L180,155z"/>
			<path class="st12" d="M174.2,154.5c2.1,1.2,4.4,2.1,6.9,2.7c1.8,0.4,3.6,0.8,5.5,0.9c7.3,0.7,15-0.6,20.6-3.9l-26.5-0.6
				L174.2,154.5z"/>
			<path class="st15" d="M184,157.9c0,0-2.8-0.5-5.8-1.5v4.1c1.4,0.5,3.7,1.2,5.7,1.5C190,162.7,184,157.9,184,157.9z"/>
		</g>
		<path class="st10" d="M179.8,156.9c-1.2-0.4-2.5-0.8-3.7-1.4c-3.5-1.7,0.9,4.5,0.9,4.5s1.2,0.5,2.8,1V156.9z"/>
	</g>
	<polygon class="st10" points="246.3,228.3 234.7,235.8 229.1,234.9 242.9,228.2 	"/>
	<g>
		<g>
			<path class="st13" d="M232.3,266.1c0,0-3.3-1.7-5.4,0.8c-2.1,2.5-5,8.4-5.1,12.4c-0.1,4,3.2,3.7,5.1,2.8
				c1.9-0.9,7.6-9.2,7.9-10.8c0.3-1.6-0.4-3.8-0.9-4.2C233.4,266.7,232.3,266.1,232.3,266.1z"/>
			<path class="st10" d="M233,265.3l0.2,3.5c0,0.7-0.3,1.4-1,1.8c-0.6,0.3-1.4,0.6-2.6,0.4c-2.5-0.4-2.7-1.1-2.9-4.6
				C226.5,262.9,233,265.3,233,265.3z"/>
			<g>
				<path class="st13" d="M220.1,259.4c0,0-3.3-1.7-5.4,0.8c-2.1,2.5-5,8.4-5.1,12.4c-0.1,4,3.2,3.7,5.1,2.8
					c1.9-0.9,7.6-9.2,7.9-10.8c0.3-1.6-0.4-3.8-0.9-4.2C221.1,260.1,220.1,259.4,220.1,259.4z"/>
				<path class="st10" d="M220.8,258.6l0.2,3.5c0,0.7-0.3,1.4-1,1.8c-0.6,0.3-1.4,0.6-2.6,0.4c-2.5-0.4-2.7-1.1-2.9-4.6
					C214.3,256.2,220.8,258.6,220.8,258.6z"/>
				<path class="st12" d="M250.6,195.1c-1-16.1-17.4,2.4-17.4,2.4l-11.2,11l-10.1,11.1c-2,2.2-2.9,5.1-2.5,8l4.1,31.2
					c0.2,1.5,1.5,2.7,3.1,2.7c0.4,0,0.9,0,1.5-0.1c3.7-0.6,3.4-4,3.4-4l-0.7-29.2l21.3-12.8C241.9,215.3,251.6,211.2,250.6,195.1z"
					/>
			</g>
			<path class="st10" d="M228.7,222.6l-3-1.1c-0.1,0-5.1,4.9-5.1,6.6l2.3,0.7l5.7-5.5L228.7,222.6z"/>
			<path class="st10" d="M246.3,228.3c0,0,12.6-7.2,14.2-10.2c0.6-1.2,1.5-2.4-2.2-4.2l-16.9,12l0.7,4.1L246.3,228.3z"/>
			<path class="st12" d="M262.8,201.3c-1.1-16.1-17.4,2.4-17.4,2.4l-11.2,11L224,225.8c-2,2.2-2.9,5.1-2.5,8l4.1,31.2
				c0.2,1.5,1.5,2.7,3.1,2.7c0.4,0,0.9,0,1.5-0.1c3.7-0.6,3.4-4,3.4-4l-0.7-29.2l21.3-12.8C254.1,221.5,263.8,216,262.8,201.3z"/>
			<path class="st18" d="M253.1,149.6c12.5,5.2,12.2,12.5,12.2,12.5s-2.4,27-1.6,45c0.3,7.5-40,8.1-34-12
				c7.1-23.7,4.4-42.9,7.8-45.8C240.8,146.4,249.9,148.2,253.1,149.6z"/>
			
				<ellipse transform="matrix(0.2494 -0.9684 0.9684 0.2494 38.6811 358.9194)" class="st19" cx="250.9" cy="154.5" rx="4.7" ry="6.4"/>
			<path class="st14" d="M251.8,160c-0.7,0-1.5-0.1-2.3-0.3c-1.8-0.5-3.3-1.4-4.4-2.7c-1.1-1.3-1.5-2.8-1.1-4.2
				c0.7-2.8,4.4-4.4,8.1-3.4c1.8,0.5,3.3,1.4,4.4,2.7c1.1,1.3,1.5,2.8,1.1,4.2C257.1,158.5,254.7,160,251.8,160z M249.9,150.2
				c-2.3,0-4.2,1.1-4.7,2.8c-0.3,1,0,2.2,0.9,3.2c0.9,1.1,2.2,1.9,3.7,2.3c3.1,0.8,6.1-0.3,6.7-2.5c0.3-1,0-2.2-0.9-3.2
				c-0.9-1.1-2.2-1.9-3.7-2.3C251.2,150.3,250.6,150.2,249.9,150.2z"/>
			<path class="st19" d="M248.1,149c0,0,0.1,0.5-0.1,4.4c-0.1,1.2,4.3,2.4,5.4,1.3c1.1-1.1,0.7-2.3,0.9-6.5
				C254.6,144,248.1,149,248.1,149z"/>
			<path class="st20" d="M254.3,148.2c0,0-1.1,3.9-6.3,5.4l0.1-3.6L254.3,148.2z"/>
			
				<ellipse transform="matrix(0.9682 -0.2503 0.2503 0.9682 -27.3055 66.6565)" class="st19" cx="248.4" cy="140.7" rx="9.6" ry="9.6"/>
			<path class="st20" d="M250.6,141c0,0-5.3,2.3-8.9,2.3c-3.7,0-2.9-3-2.9-3l10.9-1.6L250.6,141z"/>
			<path class="st3" d="M240.6,141.6c0,0,4.6-2,8.6-1.1c0.9,0.2,1.8,0.7,2.4,1.4c0.2,0.2,0.5,0.5,0.7,0.5c0.7,0.2,1.9-2.8,3.3-2.9
				c1.4-0.1,2.3,0.9,1.2,2.7c-1.1,1.8-0.8,3.9-0.2,4.2c0.5,0.3,6.1-4,1.2-13.7c-4.9-9.7-17.4-4.5-19.3-2.5c0,0-2,1.8-3.7,0.2
				C234.8,130.5,232.9,144.4,240.6,141.6z"/>
			<path class="st19" d="M258.3,181.8v7.3c0,0.8-0.4,1.6-1,2.2l-15,13.7l1.7,2.6l19.8-14.4c0.9-0.7,1.5-1.7,1.6-2.8l1.3-12.7
				L258.3,181.8z"/>
			<path class="st18" d="M264.3,158.5c0,0,4.5,6.8,6.2,24.8c0,0-7.8,2.5-12.2,1.1C253.9,183,264.3,158.5,264.3,158.5z"/>
			<path class="st15" d="M257.5,167.1c0,0-1.8,9.5-1.9,14c0,1.2,0.7,2.3,1.9,2.8l0,0V167.1z"/>
		</g>
		<g>
			<path class="st13" d="M253.6,214.5l-3.3-0.4l-21.4-12.3c-0.7-0.4-1.9-0.3-2.7,0.1l-15.2,8.7l-2-0.3v2l0,0c0,0.3,0.1,0.5,0.5,0.7
				l24.2,14c0.7,0.4,1.9,0.3,2.7-0.1l16.5-9.5c0.4-0.3,0.7-0.6,0.7-0.9h0V214.5z"/>
			<path class="st15" d="M237.5,206.7l-1.5-0.9h-16.7l-8.2,4.8l-2-0.3v2l0,0c0,0.3,0.1,0.5,0.5,0.7l24.2,14c0.4,0.2,0.9,0.3,1.4,0.3
				L237.5,206.7z"/>
			<path class="st10" d="M210,210.4l-0.9-0.1v2l0,0c0,0.3,0.1,0.5,0.5,0.7l0.4,0.2V210.4z"/>
			<path class="st21" d="M234,227.1c0.6,0.2,1.6,0.2,2.3-0.1v-3.4H234V227.1z"/>
			<path class="st14" d="M233.8,225l-24.2-14c-0.7-0.4-0.6-1.1,0.2-1.5l16.5-9.5c0.8-0.5,2-0.5,2.7-0.1l24.2,14
				c0.7,0.4,0.6,1.1-0.2,1.5l-16.5,9.5C235.7,225.3,234.5,225.4,233.8,225z"/>
			<path class="st12" d="M233.4,222.9l-20.1-11.6c-0.6-0.3-0.5-0.9,0.2-1.3l8.8-5c0.7-0.4,1.7-0.4,2.2-0.1l20.1,11.6
				c0.6,0.3,0.5,0.9-0.2,1.3l-8.8,5C234.9,223.1,233.9,223.2,233.4,222.9z"/>
		</g>
		<path class="st19" d="M227.2,199.5l-0.3,1.7c-0.2,1.4-0.2,2.9,0.1,4.3l0.3,1.5c0.2,0.8,0.8,1.5,1.7,1.6l0,0c0.7,0.1,1.3-0.3,1.3-1
			l0.4-3.6c0,0,0.9,1.2,1.4,1.2c0.4,0-0.5-3.6-1.5-5.6C229.6,197.5,227.2,199.5,227.2,199.5z"/>
		<path class="st19" d="M235.4,172.9l-2.6,5.1c-0.6,1.2-1,2.5-1.1,3.9l-1.1,17.6l-3.4-0.1l-1.6-19.8c0-0.6,0-1.2,0.1-1.8l1.8-10
			L235.4,172.9z"/>
		<g>
			<path class="st13" d="M233,226.3l-2-2.7l-21.4-12.4c-0.7-0.4-1.2-1.5-1.2-2.4l0-17.5l-1.2-1.6l1.2-0.7l0,0c0.2-0.1,0.5-0.1,0.8,0
				l24.2,14c0.7,0.4,1.2,1.5,1.2,2.4l0,19.1c0,0.5-0.2,0.9-0.5,1h0L233,226.3z"/>
			<path class="st15" d="M218.2,216.3l-1.5-0.9l-8.3-14.5l0-9.5l-1.2-1.6l1.2-0.7l0,0c0.2-0.1,0.5-0.1,0.8,0l24.2,14
				c0.4,0.2,0.7,0.6,0.9,1.1L218.2,216.3z"/>
			<path class="st10" d="M207.6,190.5l-0.5-0.7l1.2-0.7l0,0c0.2-0.1,0.5-0.1,0.8,0l0.4,0.2L207.6,190.5z"/>
			<path class="st21" d="M233.5,203.4c0.5,0.4,1,1.3,1,2l-2.4,1.4l-1.1-2L233.5,203.4z"/>
			<path class="st10" d="M232.2,203.9l-24.2-14c-0.7-0.4-1.2,0-1.2,0.9l0,19.1c0,0.9,0.6,2,1.2,2.4l24.2,14c0.7,0.4,1.2,0,1.2-0.9
				l0-19.1C233.4,205.4,232.8,204.3,232.2,203.9z"/>
		</g>
		<path class="st19" d="M244.1,207.6l-0.4,0.8c-0.4,0.9-1.1,1.7-2,2.2l-2.4,1.5c-0.7,0.5-1.7,0.5-2.5,0.1c0,0-0.1,0-0.1,0
			c-0.8-0.5-0.8-1.6-0.2-2.2l2.5-2.6c0,0-1.4,1.1-1.8,0.6c-0.3-0.3,1.4-1.9,2.6-1.9c1.3-0.1,2.5-1.1,2.5-1.1L244.1,207.6z"/>
		<path class="st18" d="M237.7,149.3c0,0-9.2,10-12.9,19.2c0,0,3.2,5.7,10.9,7.9C243.3,178.7,237.7,149.3,237.7,149.3z"/>
		<path class="st15" d="M233.9,175.8l1.5-14.4l-3.5,13.5C232.5,175.3,233.2,175.6,233.9,175.8z"/>
		<path class="st14" d="M244.6,147.3l-2.5-0.7c0,0,1.2,1.9,2.9,2.3c1.7,0.5,2-1,2-1L244.6,147.3z"/>
	</g>
	<path class="st12" d="M197.6,125.1c-3.8,0-6.9-3.1-6.9-6.9c0-3.8,3.1-6.9,6.9-6.9c3.8,0,6.9,3.1,6.9,6.9
		C204.5,122,201.4,125.1,197.6,125.1z M197.6,112.8c-3,0-5.4,2.4-5.4,5.4c0,3,2.4,5.4,5.4,5.4c3,0,5.4-2.4,5.4-5.4
		C203,115.2,200.6,112.8,197.6,112.8z"/>
	<path class="st10" d="M337.8,175.1c-2.7,0-4.9-2.2-4.9-4.9c0-2.7,2.2-4.9,4.9-4.9c2.7,0,4.9,2.2,4.9,4.9
		C342.7,172.9,340.5,175.1,337.8,175.1z M337.8,166.8c-1.9,0-3.4,1.5-3.4,3.4c0,1.9,1.5,3.4,3.4,3.4c1.9,0,3.4-1.5,3.4-3.4
		C341.2,168.3,339.7,166.8,337.8,166.8z"/>
	<path class="st10" d="M176.6,263.9l-3.3-6.8l6.8-3.3l3.3,6.8L176.6,263.9z M175.2,257.8l2,4.1l4.1-2l-2-4.1L175.2,257.8z"/>
	<path class="st10" d="M275.1,158.7l-3.3-6.8l6.8-3.3l3.3,6.8L275.1,158.7z M273.8,152.6l2,4.1l4.1-2l-2-4.1L273.8,152.6z"/>
	
		<rect x="164.9" y="223.1" transform="matrix(0.8974 -0.4412 0.4412 0.8974 -82.1132 96.5931)" class="st10" width="3.5" height="3.5"/>
	<g>
		<g>
			<path class="st22" d="M289.8,121.9l-18.6-10.7c-0.4-0.2-0.7-0.2-1-0.1c0,0,0,0,0,0l-1.8,1c0,0,0.8,0.3,1.3,0.5v13.5
				c0,1.1,0.7,2.4,1.5,2.9l17.7,10.2v1.6l1.8-1l0,0c0.3-0.2,0.5-0.6,0.5-1.2v-13.8C291.3,123.6,290.6,122.3,289.8,121.9z"/>
			<path class="st3" d="M287.9,140.7L269.4,130c-0.8-0.5-1.5-1.8-1.5-2.9v-13.8c0-1.1,0.7-1.6,1.5-1.1l18.6,10.7
				c0.8,0.5,1.5,1.8,1.5,2.9v13.8C289.4,140.7,288.8,141.2,287.9,140.7z"/>
		</g>
		<g>
			<path class="st14" d="M275.6,125.2c0,0.8-0.6,1.1-1.3,0.7c-0.7-0.4-1.3-1.4-1.3-2.2s0.6-1.1,1.3-0.7
				C275.1,123.5,275.6,124.4,275.6,125.2z"/>
			<path class="st14" d="M279.4,127.4c0,0.8-0.6,1.1-1.3,0.7c-0.7-0.4-1.3-1.4-1.3-2.2c0-0.8,0.6-1.1,1.3-0.7
				C278.9,125.7,279.4,126.6,279.4,127.4z"/>
			<path class="st14" d="M283.2,129.6c0,0.8-0.6,1.1-1.3,0.7c-0.7-0.4-1.3-1.4-1.3-2.2s0.6-1.1,1.3-0.7
				C282.6,127.8,283.2,128.8,283.2,129.6z"/>
		</g>
	</g>
	<g>
		<g>
			<path class="st10" d="M161.5,239.2l-18.2-10.5c-0.4-0.2-0.7-0.2-0.9-0.1c0,0,0,0,0,0l-1.8,1c0,0,0.8,0.3,1.2,0.5v13.3
				c0,1.1,0.7,2.3,1.5,2.8l17.4,10v1.6l1.8-1l0,0c0.3-0.2,0.5-0.6,0.5-1.2V242C163,240.9,162.3,239.7,161.5,239.2z"/>
			<path class="st12" d="M159.7,257.7l-18.2-10.5c-0.8-0.5-1.5-1.7-1.5-2.8v-13.5c0-1.1,0.7-1.6,1.5-1.1l18.2,10.5
				c0.8,0.5,1.5,1.7,1.5,2.8v13.5C161.2,257.7,160.5,258.2,159.7,257.7z"/>
		</g>
		<g>
			<path class="st14" d="M147.7,242.5c0,0.8-0.5,1.1-1.2,0.7c-0.7-0.4-1.2-1.3-1.2-2.1c0-0.8,0.5-1.1,1.2-0.7
				C147.1,240.8,147.7,241.7,147.7,242.5z"/>
			<path class="st14" d="M151.4,244.7c0,0.8-0.5,1.1-1.2,0.7c-0.7-0.4-1.2-1.3-1.2-2.1c0-0.8,0.5-1.1,1.2-0.7
				C150.8,242.9,151.4,243.9,151.4,244.7z"/>
			<path class="st14" d="M155.1,246.8c0,0.8-0.5,1.1-1.2,0.7c-0.7-0.4-1.2-1.3-1.2-2.1c0-0.8,0.5-1.1,1.2-0.7
				C154.5,245.1,155.1,246,155.1,246.8z"/>
		</g>
	</g>
</g>
</svg>
