<?xml version="1.0" encoding="utf-8"?>
<!-- Generator: Adobe Illustrator 25.0.1, SVG Export Plug-In . SVG Version: 6.00 Build 0)  -->
<svg version="1.1" id="Layer_1" xmlns="http://www.w3.org/2000/svg" xmlns:xlink="http://www.w3.org/1999/xlink" x="0px" y="0px"
	 viewBox="0 0 14 14" enable-background="new 0 0 14 14" xml:space="preserve">
<path fill="#FF7E00" d="M13.77,7.54l-6.22,6.24c-0.3,0.3-0.79,0.3-1.09,0l-0.73-0.73c-0.3-0.3-0.3-0.79,0-1.09L10.67,7L5.72,2.05
	c-0.3-0.3-0.3-0.79,0-1.09l0.73-0.73c0.3-0.3,0.79-0.3,1.09,0l6.23,6.23C14.08,6.76,14.08,7.24,13.77,7.54z"/>
<path fill="#FF7E00" d="M8.27,7.54l-6.23,6.24c-0.3,0.3-0.79,0.3-1.09,0l-0.73-0.73c-0.3-0.3-0.3-0.79,0-1.09L5.16,7L0.22,2.05
	c-0.3-0.3-0.3-0.79,0-1.09l0.73-0.73c0.3-0.3,0.79-0.3,1.09,0l6.23,6.23C8.57,6.76,8.57,7.24,8.27,7.54z"/>
</svg>
