<?xml version="1.0" encoding="utf-8"?>
<!-- Generator: Adobe Illustrator 21.0.0, SVG Export Plug-In . SVG Version: 6.00 Build 0)  -->
<svg version="1.1" id="Layer_1" xmlns="http://www.w3.org/2000/svg" xmlns:xlink="http://www.w3.org/1999/xlink" x="0px" y="0px"
	 viewBox="0 0 201 115" style="enable-background:new 0 0 201 115;" xml:space="preserve">
<style type="text/css">
	.st0{fill:#ECECEC;}
	.st1{fill:#E1E1E1;}
	.st2{fill:#1A2E35;}
	.st3{fill:#375A64;}
	.st4{fill:#FF4F5B;}
	.st5{opacity:0.5;}
	.st6{fill:#FFFFFF;}
	.st7{opacity:0.4;}
	.st8{fill:#F08976;}
	.st9{fill:#FAFAFA;}
	.st10{fill:#BF5445;}
	.st11{opacity:0.3;}
</style>
<g>
	<path class="st0" d="M89.1,104.3h33.5c0,0-3-5.4-11.6-4.6c-8.2,0.7-8.6-2.7-12.8-3.1S90.5,99.4,89.1,104.3z"/>
</g>
<g>
	<path class="st0" d="M117,91.1h18.4c0,0-1.6-3-6.3-2.5c-4.5,0.4-4.7-1.5-7-1.7C119.7,86.7,117.8,88.5,117,91.1z"/>
</g>
<g>
	<path class="st1" d="M6.9,21.9h27.7c0,0-2.4-4.5-9.6-3.8c-6.8,0.6-7.2-2.2-10.6-2.5C11,15.3,8.1,17.9,6.9,21.9z"/>
</g>
<g>
	<g>
		<path class="st0" d="M155.8,103.8c-4.1-2.7-5.2-7.9-5.1-12.6c0-0.8-0.1-1.6,0.3-2.3c0.4-0.7,1.2-1.2,1.9-0.9
			c0.6,0.3,0.9,0.9,1.2,1.5c0.5,0.7,1.1,1.3,1.9,1.7c0.5,0.2,1.1,0.4,1.6,0.1c0.7-0.4,0.7-1.3,0.7-2.1c0-1.4-0.1-2.9-0.1-4.3
			c0-0.8,0-1.6,0.2-2.3c0.2-0.7,0.8-1.4,1.5-1.7c0.7-0.2,1.7,0.2,1.9,0.9c0.1,0.3,0,0.6,0,1c0,0.3,0.2,0.7,0.5,0.8
			c0.3,0.1,0.6-0.1,0.9-0.4c0.8-0.8,1.3-1.8,1.8-2.8s1-2.1,1.7-2.9c0.7-0.9,1.7-1.6,2.8-1.7s2.3,0.6,2.7,1.7c0.3,1.1-0.3,2.2-1,3.1
			c-1,1.3-2.2,2.5-3.6,3.5c-0.2,0.2-0.5,0.4-0.6,0.7c-0.2,0.5,0.4,1,0.9,1.2c0.6,0.2,1.2,0.1,1.8,0.2s1.3,0.3,1.5,0.9
			c0.3,0.8-0.3,1.6-1,2.2c-1.3,1.1-2.8,2-4.4,2.6c-0.6,0.2-1.2,0.4-1.6,0.8c-0.5,0.4-0.7,1.1-0.4,1.7c0.3,0.5,1,0.7,1.6,0.6
			s1.1-0.5,1.7-0.7c1.1-0.4,2.5-0.4,3.2,0.5c0.5,0.6,0.5,1.4,0.3,2.2c-0.2,0.7-0.7,1.4-1.1,1.9c-1.7,2-3.9,3.7-6.4,4.6
			C160.7,104.4,158.3,104.7,155.8,103.8"/>
	</g>
	<g>
		<g>
			<path class="st1" d="M171,76.4C171,76.4,170.9,76.5,171,76.4c-0.1,0.1-0.2,0.2-0.3,0.3c-0.2,0.2-0.5,0.5-0.9,0.8
				c-0.7,0.7-1.8,1.8-2.9,3.3c-0.6,0.7-1.2,1.6-1.8,2.5s-1.3,1.9-1.9,2.9c-0.6,1-1.3,2.2-1.9,3.4c-0.3,0.6-0.5,1.2-0.8,1.9
				c-0.3,0.6-0.5,1.3-0.8,1.9c-1.1,2.6-2,5.2-2.6,7.5c-0.6,2.4-1,4.6-1.2,6.4c-0.1,1.9-0.1,3.4,0,4.4c0.1,0.5,0.1,0.9,0.1,1.2
				c0,0.1,0,0.2,0,0.3c0,0.1,0,0.1,0,0.1s-0.1-0.6-0.3-1.6c-0.1-1-0.2-2.5-0.1-4.4c0.1-1.9,0.5-4.1,1.1-6.4c0.6-2.4,1.6-4.9,2.6-7.6
				c0.3-0.7,0.5-1.3,0.8-1.9s0.5-1.3,0.8-1.9c0.6-1.2,1.2-2.3,1.9-3.4c0.6-1,1.3-2,1.9-2.9c0.6-0.9,1.2-1.7,1.8-2.5
				c1.1-1.5,2.2-2.5,3-3.3c0.4-0.4,0.7-0.6,0.9-0.8C170.7,76.6,170.8,76.6,171,76.4C170.9,76.5,171,76.4,171,76.4z"/>
		</g>
	</g>
	<g>
		<g>
			<path class="st1" d="M161.2,89.5c0,0,0-0.1-0.1-0.3c0-0.2-0.1-0.5-0.2-0.9c-0.1-0.8-0.3-1.8-0.4-3c-0.2-1.2-0.3-2.2-0.5-3
				c-0.1-0.4-0.1-0.7-0.2-0.9c0-0.2-0.1-0.3-0.1-0.3s0,0.1,0.1,0.3c0.1,0.2,0.1,0.5,0.2,0.9c0.2,0.8,0.3,1.8,0.5,3s0.3,2.2,0.4,3
				c0.1,0.4,0.1,0.7,0.1,0.9C161.2,89.4,161.2,89.5,161.2,89.5z"/>
		</g>
	</g>
	<g>
		<g>
			<path class="st1" d="M171.3,87.4c0,0,0,0-0.1,0s-0.2,0-0.3,0c-0.3,0-0.6,0.1-1.1,0.1c-0.9,0.1-2.2,0.3-3.6,0.6
				c-1.4,0.3-2.6,0.6-3.5,0.9c-0.4,0.1-0.8,0.2-1.1,0.3c-0.1,0-0.2,0.1-0.3,0.1s-0.1,0-0.1,0s0,0,0.1,0s0.2-0.1,0.3-0.1
				c0.2-0.1,0.6-0.2,1-0.4c0.9-0.3,2.1-0.6,3.5-0.9s2.7-0.5,3.6-0.6c0.5-0.1,0.8-0.1,1.1-0.1c0.1,0,0.2,0,0.3,0
				C171.3,87.4,171.3,87.4,171.3,87.4z"/>
		</g>
	</g>
	<g>
		<g>
			<path class="st1" d="M157.1,100.7c0,0,0,0-0.1-0.1c0-0.1-0.1-0.2-0.2-0.4c-0.2-0.3-0.4-0.8-0.6-1.3c-0.5-1.1-1.2-2.7-1.9-4.5
				s-1.4-3.4-1.9-4.5c-0.2-0.6-0.4-1-0.6-1.3c-0.1-0.2-0.1-0.3-0.2-0.4c0-0.1-0.1-0.1,0-0.1c0,0,0,0,0.1,0.1c0,0.1,0.1,0.2,0.2,0.4
				c0.2,0.3,0.4,0.8,0.6,1.3c0.5,1.1,1.2,2.7,1.9,4.5s1.4,3.3,1.9,4.5c0.2,0.6,0.4,1,0.6,1.3C157,100.4,157,100.5,157.1,100.7
				C157.1,100.7,157.1,100.7,157.1,100.7z"/>
		</g>
	</g>
	<g>
		<g>
			<path class="st1" d="M170.4,96.1c0,0,0,0-0.1,0.1c-0.1,0-0.2,0.1-0.4,0.1c-0.4,0.1-0.8,0.3-1.4,0.5c-1.2,0.4-2.9,1-4.7,1.7
				s-3.5,1.2-4.7,1.6c-0.6,0.2-1.1,0.4-1.4,0.5c-0.2,0-0.3,0.1-0.4,0.1c-0.1,0-0.1,0-0.1,0s0,0,0.1-0.1c0.1,0,0.2-0.1,0.4-0.1
				c0.4-0.1,0.8-0.3,1.4-0.5c1.2-0.4,2.9-1,4.7-1.7s3.5-1.2,4.7-1.6c0.6-0.2,1.1-0.4,1.4-0.5c0.2,0,0.3-0.1,0.4-0.1
				C170.4,96.1,170.4,96.1,170.4,96.1z"/>
		</g>
	</g>
</g>
<g>
	<path class="st2" d="M200.5,113.3c0,0-44.8,0.1-100,0.1s-100,0-100-0.1c0,0,44.8-0.1,100-0.1C155.7,113.2,200.5,113.3,200.5,113.3z
		"/>
</g>
<g>
	<g>
		<path class="st3" d="M190.2,75.1c-0.1,0.5-0.4,0.9-0.7,1.2c-0.3,0.2-1.1,0.6-1.2,0c0-0.2,0.2-1,0.2-1.1c0.2-0.5,0.5-0.2,0.7-0.1
			C189.7,75.2,190,74.9,190.2,75.1z"/>
		<path class="st3" d="M188,24.9c0.1,0.5,0.2,0.8,0.3,1.2c-0.3,0.5-0.9,0.3-1.4,0.6c-0.2,0.1-0.3,0.6-0.5,0.6
			c-0.2,0.1-0.3-0.2-0.5-0.2c-0.4,0-0.6,0.8-1.1,0.6c-0.3,0.2,0,1-0.4,1.1c-0.3,0.1-0.4-0.4-0.5-0.6c-0.2-0.3-0.5-0.5-0.5-0.7
			c0-0.3,0.4-0.6,0.5-0.8c0.2-0.2,0.5-0.6,0.7-0.6c0.4-0.1,0.7,0,1.1-0.1c0.3-0.1,0.3-0.6,0.4-0.7c0.1-0.1,0.3-0.1,0.4-0.2
			c0.3-0.2,0.5-0.7,0.4-1.4c-0.1-0.4-0.6-0.8-0.3-1.3c0.5,0.1,1.2,0.6,1.3,1.3c0,0.3-0.1,0.5-0.1,0.7
			C187.9,24.5,187.9,24.7,188,24.9z"/>
		<path class="st3" d="M188.1,21.1c-0.1,0.2-0.2,0.2-0.3,0.3s-0.3,0.5-0.4,0.5c-0.3,0.1-0.5-0.3-0.7-0.2c-0.3,0.1-0.1,0.4-0.2,0.6
			c-0.3-0.1-0.6-0.4-0.6-0.7c0-0.2,0.2-0.3,0.3-0.6c0.1-0.4-0.1-0.6-0.3-1c0-0.1,0-0.1,0-0.1c0.3-0.1,0.8,0.6,1.5,0.7
			C187.8,20.7,188.1,20.7,188.1,21.1z"/>
		<path class="st3" d="M187.1,56.2c0,0.3-0.4,0.3-0.5,0.1C186.7,56,187,55.9,187.1,56.2z"/>
		<path class="st3" d="M185.1,18.2c0.3,0.2,1,0.6,0.5,1C185.3,19,184.9,18.5,185.1,18.2z"/>
		<path class="st3" d="M183.8,54.7c0.4-0.2,0.7-0.7,1.3-0.5c-0.1,0.5-0.5,0.5-0.8,0.6c-0.3,0.2-0.5,0.6-0.8,0.6
			c0-0.1-0.1-0.1-0.1-0.2C183.2,54.9,183.6,54.8,183.8,54.7z"/>
		<path class="st3" d="M183,48.2c0.4,0,0.6-0.1,0.9,0c0,0.8-1.2,0.2-1.9,0.4c-0.2,0-0.2,0.2-0.4,0.1c0-0.3,0.3-0.6,0.5-0.6
			C182.4,48,182.7,48.2,183,48.2z"/>
		<path class="st3" d="M183.3,49.2c0,0.5-0.5,0.6-0.6,0.9c0.3,0.5,0.4,1,0.6,1.5c0,0.3,0,0.6-0.1,0.7c-0.5,0.1-0.9-1.1-1.1-1.6
			c-0.5,0.1,0,1.8-0.6,1.6c-0.3-0.1,0-0.6-0.1-1c-0.1-0.4-0.4-0.4-0.4-0.6c0-0.2,0.2-0.5,0.3-0.6c0.1-0.3,0-0.9,0.4-0.9
			c0.2,0,0.4,0.4,0.5,0.5C182.4,49.7,182.8,49.1,183.3,49.2z"/>
		<path class="st3" d="M182.2,54.4c-0.1,0.3-0.7,0.1-0.7-0.1C181.6,54,182.2,54.1,182.2,54.4z"/>
		<path class="st3" d="M181.7,55.2c0,0.1-0.1,0.1-0.1,0.2c-0.2-0.1-0.5-0.2-0.5-0.5C181.2,54.7,181.7,54.9,181.7,55.2z"/>
		<path class="st3" d="M180.9,54.4c-0.2,0.3-0.6,0-0.8,0.3c-0.3,0-0.6,0-0.6-0.3c0.1-0.3,0.4-0.1,0.5-0.1
			C180.4,54.2,180.8,53.8,180.9,54.4z"/>
		<path class="st3" d="M176.9,67.6c0-0.3-0.2-0.6-0.2-0.9c0-0.1,0-0.3,0-0.5s-0.1-0.4-0.1-0.6s0.3-0.3,0.3-0.5
			c0.1-0.4-0.1-0.4-0.1-0.7c0-0.3,0.2-0.4,0.3-0.7c0.1-0.2,0.1-0.5,0.1-0.6c0.1-0.2,0.4-0.3,0.5-0.4c0.5-0.3,0.8-0.7,1.2-0.8
			c0.1,0,0.3,0,0.4,0c0.3-0.1,0.5-0.3,0.9-0.5c0.4-0.1,0.6-0.1,0.9-0.3c0.3-0.2,0.7-0.7,0.8-1c0.1-0.4,0.1-0.7,0.4-0.8
			c0.1-0.1,0.3,0,0.4,0s0.5-0.2,0.5-0.3c0.2-0.2,0.3-0.6,0.5-0.8c0.2-0.2,0.5-0.4,0.6-0.6c0.1-0.1,0.4-0.2,0.5-0.2
			c0.4,0,0.5,0.7,1,0.6c0.2-0.1,0.3-0.5,0.5-0.7c0.2-0.4,0.4-0.8,0.7-0.9c0.3-0.1,0.6,0.1,0.7-0.2c0-0.2-0.1-0.4,0-0.5
			c0.4,0,0.9,0.6,1.4,0.6c0.3,0,0.7-0.4,0.8,0.2c0,0.2-0.2,0.4-0.3,0.6c0,0.2,0.1,0.3,0,0.5c-0.3,0.1-0.5,0.2-0.5,0.5
			c0,0.4,0.5,0.6,0.7,0.8c0.2,0.2,0.4,0.4,0.5,0.5c0.1,0.1,0.2,0.1,0.3,0.2c0.2,0.2,0.3,0.5,0.5,0.5s0.5-0.5,0.7-0.8
			c0.2-0.5,0.2-1.1,0.3-1.7c0-0.2,0.1-0.4,0.2-0.6c0.1-0.5,0.3-1.1,0.6-1.3c0.4,0.5,0.5,1.3,0.4,2c0.2,0.2,0.6,0.2,0.7,0.6
			c0,0.2-0.1,0.4-0.1,0.6c0,0.3,0.2,0.6,0.3,0.8c0.1,0.5-0.1,0.8,0.1,1.2c0.2,0.5,0.6,0.4,0.9,0.8c0,0.3,0.1,0.4,0.2,0.6
			c0,0.1,0,0.3,0,0.4c0.1,0.3,0.4,0.3,0.5,0.5c0,0.1,0,0.3,0.1,0.5c0.1,0.3,0.3,0.5,0.4,0.7c0.1,0.3,0.4,0.5,0.4,0.7
			c0.1,0.4-0.2,0.6-0.2,0.8c-0.1,0.4,0,0.8-0.1,1.1c-0.1,0.5-0.5,0.8-0.7,1.4c-0.2,0.5-0.5,0.9-0.8,1.2c-0.2,0.2-0.4,0.3-0.5,0.5
			c-0.3,0.3-0.5,0.6-0.7,0.9c-0.3,0.4-0.5,0.6-0.7,0.8c-0.3,0.4-0.5,1.1-0.9,1.1c-0.3,0-0.5,0-0.8,0.2c-0.5,0.2-0.7,0.6-0.9,0.6
			s-0.5-0.3-0.6-0.4c-0.3,0-0.4,0.2-0.7,0.2c-0.1,0-0.2-0.1-0.4-0.2c-0.4-0.2-0.8-0.2-0.9-0.7c0-0.3,0.2-0.5,0.2-0.7
			c0-0.3-0.2-0.4-0.3-0.6c0.1-0.3,0.1-0.6-0.2-0.7c0-0.2,0-0.4,0.1-0.5c-0.2,0.1-0.4,0.2-0.5,0.3c-0.2,0.2-0.4,0.5-0.6,0.5
			c-0.2-0.1-0.1-0.4-0.1-0.6s-0.4-0.9-0.5-1c-0.2-0.1-0.7-0.4-1-0.5c-0.9-0.2-1.5,0.4-2.2,0.5c-0.2,0-0.4,0-0.5,0
			c-0.5,0.1-1.2,0.6-1.5,1c-0.5,0.1-1.2-0.2-1.8,0.1c-0.6,0.2-0.9,0.8-1.9,0.6c-0.2-0.2-0.5-0.3-0.5-0.6c0-0.3,0.4-0.5,0.5-0.6
			c0.1-0.2,0.3-0.6,0.3-1c0-0.2-0.1-0.5-0.1-0.8C176.8,68.1,176.9,67.9,176.9,67.6z"/>
		<path class="st3" d="M176.4,53.2c0.2,0,0.3-0.2,0.5-0.2c0.4,0,0.6,0.3,1.1,0.3c0.1,0.1,0,0.2,0,0.4c0.4,0.2,0.9,0.2,1.1,0.6
			c-0.3,0.3-0.6,0.1-0.9,0s-0.6,0-0.9-0.1c-0.4-0.1-0.7-0.4-1.2-0.4c-0.3,0-0.5,0-0.7,0c-0.3-0.1-1.2-0.5-1.2-0.8
			c0-0.3,0.5-0.4,0.8-0.4C175.4,52.7,175.7,53.3,176.4,53.2z"/>
		<path class="st3" d="M177.2,50.8c-0.2-0.1-0.5,0-0.5-0.1c-0.2-0.2-0.2-0.6-0.3-0.8s-0.3-0.4-0.5-0.7c-0.2-0.5-0.3-1.6,0.2-1.7
			c0.2,0,0.4,0.2,0.5,0.1c0.3-0.1,0.2-0.6,0.5-0.7c0.1-0.1,0.4-0.1,0.5-0.2c0.2-0.1,0.4-0.3,0.5-0.5c0.1-0.2,0.2-0.5,0.4-0.6
			c0.2-0.2,0.4-0.2,0.5-0.3c0.4-0.4,0.4-0.8,0.7-1.3c0.3-0.4,0.6,0.4,0.7,0.6c0.2,0.2,0.5,0.3,0.5,0.6c-0.2,0.6-0.6,0.6-0.5,1.6
			c0,0.2,0.1,0.4,0.2,0.6c0.1,0.2,0.4,0.5,0.3,0.6c0,0.3-0.5,0.3-0.5,0.6c-0.1,0.3,0,0.3,0,0.6c-0.1,0.3-0.5,0.4-0.5,0.7
			s0,0.9-0.3,1.3c-0.2,0-0.4,0.2-0.6,0.2c-0.3,0-0.5-0.5-0.9-0.5c-0.2,0-0.4,0.1-0.5,0.1C177.5,51,177.4,50.9,177.2,50.8z"/>
		<path class="st3" d="M175.4,50.1c0.7,0,0.7,1.4,0,1.4S174.6,50.1,175.4,50.1z"/>
		<path class="st3" d="M174.3,49.9c0.1,0,0.4,0.6,0.4,0.7c0,0.3-0.3,0.3-0.4,0.6c-0.1,0.5,0.1,1.1-0.2,1.3c-0.1,0.1-0.4,0.1-0.5,0.1
			c-0.5-0.5-0.9-1-1.4-1.6c-0.2-0.2-0.4-0.4-0.5-0.6c-0.2-0.4-0.2-0.7-0.4-1c-0.2-0.3-0.5-0.5-0.5-0.7c-0.1-0.3-0.1-0.6-0.3-0.8
			c-0.1-0.2-0.3-0.3-0.5-0.5c-0.1-0.1-0.2-0.3-0.2-0.5c-0.4-0.6-1.1-0.8-1.1-1.6c0.2-0.2,0.3,0.1,0.5,0.2c0.2,0,0.4,0,0.5,0
			c0.3,0.1,0.5,0.6,0.7,0.8c0.2,0.2,0.4,0.3,0.5,0.5c0.2,0.2,0.3,0.5,0.5,0.6c0.2,0.2,0.5,0.2,0.7,0.5c0.4,0.3,0.9,0.6,1,1
			c0,0.1-0.1,0.4,0,0.5c0,0.2,0.3,0.3,0.4,0.5c0.2,0.2,0.2,0.5,0.4,0.6C174,50.2,174.1,49.9,174.3,49.9z"/>
		<path class="st3" d="M160.8,42.6c0.3,0.1,1.1,1.3,0.8,1.9c-0.1,0.2-0.4,0.5-0.6,0.4C160.4,44.8,160.5,43.3,160.8,42.6
			C160.7,42.7,160.8,42.6,160.8,42.6z"/>
		<path class="st3" d="M141.8,60.1c0-0.3,0.2-0.7,0.4-0.9c0.3-0.3,0.6-0.2,0.9-0.4c0.2-0.2,0.5-0.4,0.7-0.6c0.2-0.2,0.2-0.5,0.3-0.6
			c0.1-0.1,0.3-0.2,0.4-0.3c0.1-0.1,0.1-0.4,0.2-0.5c0.4-0.2,0.5,0.6,0.5,1.3c0,0.2,0.1,0.4,0.1,0.5c0,0.3-0.3,0.4-0.4,0.6
			c0,0.7-0.3,1.4-0.5,2c-0.2,0.6-0.3,1.1-0.5,1.6c-0.1,0.2-0.2,0.3-0.3,0.5c-0.2,0.6-0.3,1.5-0.6,1.7c-0.1,0.1-0.6,0.3-0.8,0.3
			c-0.4,0-0.6-0.4-0.7-0.7c-0.1-0.2,0-0.4,0-0.6c0-0.3-0.2-0.6-0.2-0.8c0.1-0.7,0.6-1,0.6-1.7C142,61,141.7,60.5,141.8,60.1z"/>
		<path class="st3" d="M128,10.9c0,0.6-0.7,0.6-0.8,1c0,0.2,0.1,0.6,0.1,0.7c-0.1,0.4-0.4,0.3-0.7,0.5c-0.2,0.1-0.4,0.5-0.5,0.5
			c-0.2,0-0.3-0.1-0.5-0.1s-0.1,0.3-0.4,0.4c-0.2,0.1-0.6-0.3-0.6,0.1c0,0.2,0.4,0.4,0.5,0.3c0.2,0,0.3-0.2,0.5-0.2
			c0.4,0,0.5,0.3,0.7,0.3c0.5,0,1-0.6,1.5-0.5c0.3,0,0.4,0.2,0.5,0.2c0.3,0,0.5-0.5,0.7-0.6c-0.1-0.6,0-1.4,0.5-1.4
			c0.3,0,0.7,0.6,0.8,0c0-0.3-0.3-0.6-0.5-0.6c-0.2,0-0.4,0.4-0.5,0.1c0-0.3,0.3-0.3,0.5-0.3c0.1-0.1,0.2-0.2,0.4-0.3
			c0.6-0.3,1.6,0.3,1.9-0.5c-0.6-0.6-1.6,0.2-2.3,0.2c-0.3,0-0.6-0.3-0.7-0.6c0-0.1,0-0.3,0-0.5c0-0.2-0.1-0.5-0.1-0.6
			c0-0.6,1.3-0.7,1.3-1.6c-0.3-0.3-1-0.3-1.2,0.1c-0.1,0.1-0.1,0.4-0.2,0.6c-0.3,0.5-1.1,0.6-1.4,1.1c-0.1,0.1-0.2,0.5-0.1,0.7
			C127.4,10.5,128,10.6,128,10.9z M121.2,44.7c-0.8-0.2-1.6,0.3-2.2,0.6c-0.4,0.2-0.6,0.5-0.9,0.5s-0.5-0.2-0.8-0.2
			c-0.4,0-0.8,0-1.1,0.1c-0.4,0.1-0.6,0.4-0.9,0.4c-0.5,0.1-1.1-0.6-1.5-0.9c-0.2-0.2-0.5-0.4-0.6-0.6c-0.2-0.2-0.5-0.4-0.6-0.6
			c-0.2-0.3-0.2-0.7-0.4-1.1c-0.2-0.4-0.5-0.7-0.9-1.1c-0.3-0.3-0.8-0.7-0.8-1.1c0-0.2,0.1-0.5,0.1-0.6c0-0.3-0.2-0.5-0.2-0.7
			c0-0.3,0.3-0.6,0.4-0.8c0-0.1,0-0.3,0.1-0.5c0.1-0.4,0.3-0.6,0.3-1.1c0-0.2-0.2-0.4-0.2-0.6c0-0.2,0.1-0.3,0.1-0.5
			c0-0.3-0.4-0.4-0.4-0.7s0.3-0.6,0.5-1c0.1-0.2,0.1-0.5,0.2-0.6c0.2-0.3,0.5-0.5,0.5-0.7c0.1-0.2,0.1-0.6,0.2-0.7
			c0.1-0.2,0.3-0.3,0.5-0.6c0.2-0.2,0.3-0.5,0.4-0.6c0.2-0.1,0.4-0.2,0.5-0.3c0.5-0.3,0.9-0.6,1.2-1.3c-0.1-0.6,0-0.8,0.3-1.2
			c0.2-0.4,0.3-0.7,0.6-0.9c0.4-0.3,0.7-0.3,0.9-0.7c0.1-0.2,0.3-0.6,0.3-0.8c0-0.4-0.3-0.7-0.5-0.8c-0.3-0.1-0.6,0.3-0.8-0.1
			c-0.1-0.1,0-0.4,0-0.5c0-0.2-0.2-0.4-0.2-0.6c0-0.4,0.3-0.6,0.4-1c0.1-0.6,0-0.9,0-1.5c0.4-0.7,1.3-0.4,2.2-0.3c0.1,0,0.3,0,0.5,0
			c0.5,0,0.9,0.2,1.1-0.4c0.1-0.2,0.1-1,0.1-1.2c-0.1-0.3-0.5-0.8-0.6-1c-0.3-0.2-0.7-0.1-0.8-0.6c0.1-0.6,0.7-0.1,1.2-0.3
			c0.2-0.1,0.2-0.5,0.4-0.6c0.1,0,0.3,0.2,0.5,0.2s0.6-0.3,0.7-0.5c0.2-0.2,0.3-0.5,0.4-0.6c0.1-0.1,0.3-0.1,0.4-0.2
			c0.3-0.1,0.5-0.4,0.7-0.6c0.3-0.4,0.4-0.7,0.6-0.8c0.4-0.1,1.3,0.1,1.3-0.5c0.1-0.5-0.4-0.8-0.2-1.4c0.1-0.4,0.5-0.4,0.8-0.6
			c0.2,0.2,0.2,0.7,0.2,1c0.3,0,0.8-0.1,0.8-0.4c0.1-0.4-0.4-0.7-0.5-0.9c-0.1-0.3-0.1-0.6-0.4-0.7c-0.5-0.1-0.8,0.7-1.4,0.7
			c-0.4,0-0.7-0.4-0.8-0.6c-0.1-0.2,0-0.4,0-0.6c0-0.3-0.2-0.6-0.1-1c0.2-0.5,0.7-0.6,1.1-0.7c0.2-0.1,0.3-0.3,0.4-0.4
			c0.3-0.1,0.6,0,0.9-0.2c0.2-0.1,0.1-0.3,0.3-0.6c0.1-0.2,0.3-0.2,0.4-0.4c0.1-0.1,0.1-0.3,0.2-0.4c0.3-0.4,0.7-0.6,0.9-0.9
			c0.1-0.2-0.2-0.3-0.1-0.5c0.1-0.3,0.5-0.1,0.6-0.1c0.3-0.1,0.5-0.5,0.8-0.6c0.4-0.1,0.6,0,1-0.2c0.2-0.1,0.4-0.3,0.5-0.3
			c0.1,0,0.3,0,0.3,0c0.1,0,0.2-0.1,0.4-0.1c0.2,0,0.5,0.1,0.7,0.1c0.5,0,0.9-0.2,1.3,0c0.2,0.1,0.2,0.4,0.5,0.5
			c0.1,0.1,0.3,0,0.5,0c0.3,0,0.5,0.3,0.9,0.3c0.1,0,0.3,0,0.4,0c0.4,0.1,0.8,0.3,1.3,0.5c0.4,0.1,1,0.3,1.1,0.7
			c0,0.5-0.6,0.6-0.9,0.6c-0.5,0-1-0.3-1.5-0.2c0,0.8,0.7,1.4,1.4,1.3c0.1-0.4-0.4-0.2-0.3-0.6c0.3-0.3,0.6,0.2,1,0.1
			c0.2-0.1,0.1-0.4,0.2-0.6c0.4-0.3,0.7-0.6,1.3-0.4c0-0.1,0.1-0.1,0.1-0.2c0-0.4-0.4-0.6-0.2-0.9c0.1-0.3,0.6-0.2,0.7,0
			c0,0.3-0.1,0.2-0.1,0.5c0.1,0.3,0.4,0.3,0.5,0.3c0.3,0,0.4-0.4,0.6-0.5c0.1-0.1,0.3-0.1,0.4-0.2c0.2-0.1,0.3-0.3,0.5-0.3
			c0.1,0,0.3,0,0.4,0c0.2,0,0.4-0.2,0.5-0.2c0.2,0,0.3,0.3,0.5,0.3c0.1,0,0.3-0.1,0.5-0.1c0.2,0,0.3,0,0.4,0
			c0.3-0.1,0.5-0.2,0.7-0.2c0.2,0,0.5,0.3,0.5,0.2c0.2-0.2-0.3-0.4-0.1-0.6c0.5,0,0.9,0,1.4,0.1c0.6,0.1,1.3,0.5,1.8,0.6
			c-0.1-0.5-0.5-0.4-0.7-0.6c-0.1-0.1-0.3-0.6-0.3-0.7c0-0.1,0.4-0.7,0.4-0.8c0.3-0.3,1.1-0.3,1.3,0.1c0.2,0.3,0.1,0.6,0.4,0.6
			c0.2,0,0.3-0.6,0.5-0.6c0.2,0,0.3,0.4,0.5,0.4c0.3,0,0.4-0.6,0.7-0.6c0.2,0,0.2,0.1,0.5,0.2c0.2-0.2-0.1-0.4,0-0.6
			c0.4-0.3,1.1-0.1,1.5-0.3c0.1-0.2-0.2-0.3,0-0.5c0.4-0.3,0.9-0.4,1.5-0.5c0.4-0.1,0.7-0.4,1-0.5c0.3,0,0.5,0.2,0.8,0.2
			c0.2,0,0.4-0.1,0.5-0.2c0.2-0.1,0.3-0.3,0.5-0.3c0.3-0.1,0.5,0,0.8,0c0.3,0,0.5-0.2,0.8-0.2c0.2,0,0.4,0.3,0.5,0.4
			c0.6,0.1,1.2-0.1,1.7,0.1c0.1,0,0.2,0.2,0.3,0.2c0.4,0.2,0.6,0.1,0.7,0.6c0.3,0.1,0.5,0.5,0.8,0.6c0.2,0.1,0.5,0,0.7,0
			c0.4,0,0.7,0,1.1,0.1c0.2,0,0.3,0.2,0.5,0.2c0.1,0,0.3,0,0.4,0c0.2,0,0.4,0.1,0.5,0.1c0.3,0,0.5-0.4,0.7-0.4
			c0.1,0,0.3,0.1,0.5,0.1c0.5,0.1,1-0.1,1.5,0c0.2,0.1,0.5,0.4,0.8,0.6c0.2,0.2,0.3,0.4,0.5,0.6c0.2,0.1,0.5,0.3,0.7,0.3
			c0.2,0,0.2-0.3,0.4-0.4c0.5-0.2,1.5,0.2,2,0c0.2-0.1,0.2-0.4,0.3-0.5c0.8-0.1,1.7,0,2.6,0.1c0.3,0,0.5-0.1,0.8,0
			c0.3,0.1,0.5,0.4,0.7,0.6c0.2,0.1,0.5,0,0.8,0.1c0.2,0,0.4,0.2,0.5,0.2c0.3,0.1,0.6,0,0.9-0.1c0.6-0.1,1.5-0.1,2.1,0.2
			c0.4,0.2,0.5,0.5,0.8,0.6c0.5,0.1,1.4-0.1,1.9,0c0.1,0,0.3,0.1,0.4,0.1c0.2,0,0.3-0.2,0.5-0.2s0.7,0.6,1.2,0.5
			c0.2-0.2-0.2-0.4,0-0.5c0.2-0.2,0.4,0,0.6,0c0.1,0,0.3-0.1,0.5-0.1c0.3,0,0.6,0.4,1,0.5c0.3,0.1,0.7,0.1,1.1,0.1
			c0.3,0,0.5-0.2,0.7-0.1c0.1,0,0.3,0.1,0.4,0.2c0.1,0,0.3,0,0.4,0c0.1,0,0.2,0.2,0.3,0.2c0.5,0.2,1.3,0.3,1.8,0.5
			c0.4,0.1,0.6,0.4,0.9,0.4c0.1,0,0.3-0.1,0.5-0.1c0.8,0,1.9,0.5,1.8,1.4c-1,0.3-1.8-0.8-2.9-0.6c-0.2,0.1-0.4,0.3-0.4,0.5
			c0,0.6,1.3,0.6,1.4,1.1c-0.2,0.2-0.5,0-0.6,0c-0.3,0-0.7,0.4-0.8,0.6c-0.2,0.2-0.4,0.7-0.5,0.8c-0.3,0.1-0.6-0.3-1-0.2
			c-0.2,0-0.3,0.3-0.4,0.3c-0.3,0.1-0.7-0.2-0.9,0.3c0.1,0.3,0,0.7,0.3,0.9c0.2,0.1,0.3,0,0.5,0.1c0.2,0.1,0.3,0.4,0.5,0.6
			c0.2,0.1,0.3,0.2,0.4,0.3c0,0.3-0.1,0.3-0.1,0.5c0,0.3,0.5,0.4,0.5,0.6c0,0.3-0.3,0.2-0.3,0.5c0,0.2,0.2,0.2,0.2,0.5
			c0,0.2-0.1,0.3-0.1,0.5c0,0.3,0.2,0.4,0.2,0.6c0,0.2-0.2,0.3-0.3,0.4c-0.5-0.5-1-1-1.6-1.6c-0.6-0.6-1.5-1.3-1.6-2.4
			c0-0.2,0.3-0.3,0.4-0.6c0-0.1,0-0.3,0-0.5c0-0.4,0.3-0.8,0.3-1c0-0.3-0.5-0.7-0.6-0.8c-0.2,0.1,0,0.3,0,0.5s-0.3,0.5-0.5,0.5
			c-0.5,0.1-0.6-0.8-1.5-0.6c-0.2,0.1-0.5,0.5-0.5,1c0,0.2,0.4,0.3,0.4,0.6c0,0.2-0.8,0.3-0.9,0.3c-0.5,0-0.7-0.5-1.1-0.5
			c-0.2,0-0.4,0.2-0.5,0.3c-0.9,0.2-2.3-0.6-2.6,0.5c0,0.1,0,0.3-0.1,0.5c-0.1,0.2-0.2,0.4-0.3,0.5c0,0.1,0,0.3-0.1,0.5
			s-0.5,0.7-0.1,0.9c0.1,0,0.2-0.1,0.3,0c0.3,0,0.6,0.6,0.9,0.6c0.2,0,0.5-0.3,0.5-0.3c0.3,0,0.5,0.2,0.6,0.3
			c0.2,0.1,0.5,0.4,0.6,0.4c0.3,0,0.2-0.3,0.4-0.4c0.5,0.2,0.7,0.8,1.2,1.3c0.2,0.2,0.5,0.4,0.6,0.6c0.1,0.2,0.5,0.6,0.5,0.7
			s-0.1,0.3-0.2,0.4c-0.1,0.2,0.1,0.4-0.1,0.6c-0.5-0.2-0.5-0.7-0.9-1.2c-0.1-0.2-0.3-0.4-0.5-0.6c-0.1-0.1-0.4-0.5-0.5-0.5
			c-0.4,0.2,0.2,0.8,0.3,1c0.2,0.3,0.5,0.7,0.5,1c0,0.2-0.1,0.6-0.1,0.9c0,0.3,0.1,0.5,0,0.6c0,0.2-0.2,0.5-0.2,0.6
			c-0.1,0.3-0.1,0.6-0.2,0.7c-0.1,0.3-0.5,0.6-0.7,0.7c-0.3,0-0.4-0.2-0.5-0.2c-0.4,0-0.5,0.4-0.6,0.7c0,0.4,0.1,0.5,0.1,0.7
			c-0.1,0.4-0.5,0.5-0.5,0.8s0.4,0.4,0.5,0.6c0.3,0.2,0.7,0.6,0.9,1c0.2,0.3,0.4,0.7,0.4,1c0,0.4-0.8,0.8-1.2,0.7
			c-0.4-0.1-0.2-0.5-0.3-0.8c-0.1-0.3-0.2-0.4-0.3-0.6c-0.1-0.1,0-0.3-0.1-0.5c-0.2-0.4-0.5-0.2-0.8-0.4c-0.3-0.2-0.2-0.5-0.3-0.7
			c-0.1-0.4-0.6-0.6-1.1-0.5c-0.3,0.1-0.4,0.4-0.7,0.5c-0.5-0.3,0.1-1-0.5-1.1c-0.4-0.1-0.6,0.6-0.9,0.9c-0.2,0.2-0.5,0.2-0.5,0.4
			c0,0.4,0.4,0.3,0.6,0.5c0.3,0.1,0.3,0.5,0.5,0.6c0.2,0,0.4-0.3,0.5-0.3c0.4,0,0.6,0.2,0.8,0.3c-0.2,0.5-0.9,0.7-0.9,1.3
			c0,0.3,0.3,0.4,0.5,0.6c0.2,0.2,0.5,0.6,0.7,1c0.1,0.2,0.3,0.3,0.4,0.4c0.1,0.2,0.1,0.6,0.3,0.6c0,0.2-0.1,0.3-0.1,0.5
			c0.1,0.3,0.4,0.2,0.5,0.5c-0.1,0.6,0.2,1.2-0.3,1.4c-0.2,1.1-0.4,1.9-1,2.5c-0.5,0.6-1.3,0.6-1.9,0.9c-0.2,0.1-0.3,0.3-0.5,0.4
			c-0.4,0.2-1.1,0.1-1.1,0.6c0,0.3,0.3,0.5,0.3,0.7c0,0.5-0.3,0.8-0.5,0.9c-0.2,0-0.5-0.1-0.5-0.5c0-0.4,0.5-0.6,0.5-0.8
			c0.1-0.5-0.3-0.8-0.7-0.8c-0.4,0-1.3,0.9-1.3,1.5c0,0.4,0.6,1.2,0.8,1.4c0.8,0.8,1.6,1.4,1.5,3.5c-0.2,0.6-0.7,0.6-1.1,0.9
			c-0.3,0.2-0.5,0.9-1,1c-0.2-0.1-0.1-0.5-0.2-0.6c-0.1-0.3-0.5-0.4-0.7-0.6c-0.2-0.2-0.3-0.6-0.5-0.7c-0.2-0.3-0.5-0.3-0.7-0.5
			c-0.2-0.1-0.3-0.5-0.5-0.5c-0.3,0-0.2,0.3-0.2,0.8c-0.1,0.5-0.4,0.8-0.3,1.4c0,0.3,0.3,0.5,0.4,0.6c0.2,0.4,0.2,0.8,0.5,1.1
			c0.1,0.2,0.4,0.2,0.5,0.3c0.3,0.3,0.8,0.8,0.9,1.1c0.1,0.4,0,0.8,0.1,1.2c0.1,0.5,0.5,0.7,0.3,1.2c-0.3-0.1-0.5-0.3-0.7-0.5
			c-0.4-0.3-0.5-0.6-0.8-1c-0.1-0.2-0.2-0.3-0.3-0.5c-0.1-0.3-0.1-0.6-0.2-1c-0.1-0.4-0.4-0.8-0.6-1.1c-0.2-0.2-0.5-0.4-0.5-0.7
			c0-0.5,0.1-1,0.1-1.6c0-0.1-0.1-0.3-0.1-0.4c0-0.3,0-0.6,0-0.8c-0.1-0.2-0.2-0.5-0.3-0.6c-0.1-0.2-0.2-0.4-0.2-0.6
			c-0.1-0.4-0.3-1.2-0.5-1.2c-0.3,0-0.5,0.6-0.9,0.6c-0.2,0-0.5-0.2-0.5-0.5c0-0.2,0.1-0.5,0.1-0.6c0-0.5-0.3-0.6-0.5-1
			c-0.1-0.1-0.1-0.3-0.2-0.5c-0.1-0.2-0.4-0.3-0.5-0.5c-0.2-0.2-0.4-0.5-0.4-0.6c-0.1-0.3-0.2-0.6-0.3-0.6c-0.2,0-0.4,0.3-0.5,0.3
			c-0.2,0.1-0.6,0.2-0.7,0.2c-0.5,0.1-1-0.1-1,0.7c-0.1,0.4-0.5,0.4-0.6,0.6c-0.3,0.2-0.5,0.6-0.7,1c-0.2,0.2-0.4,0.3-0.5,0.5
			c-0.1,0.1-0.2,0.4-0.3,0.5c-0.3,0.4-0.7,0.4-1,0.8c0,0.6,0.2,1,0.2,1.6c0,0.3-0.2,0.5-0.2,0.7c0,0.2,0.1,0.5,0,0.7
			c0,0.1-0.2,0.2-0.3,0.4c-0.1,0.2-0.1,0.3-0.2,0.5c-0.1,0.2-0.3,0.3-0.4,0.4c-0.2,0.2-0.2,0.4-0.3,0.4c-0.6,0.1-0.8-1.4-1.1-1.9
			c-0.1-0.3-0.4-0.6-0.5-0.8c-0.2-0.4-0.2-0.9-0.4-1.3s-0.5-0.7-0.5-1.1c-0.1-0.4-0.2-0.7-0.3-1.1c-0.1-0.4-0.2-0.8-0.3-1.2
			c0-0.5,0.1-0.7-0.3-0.9c-0.3,0.1-0.4,0.5-0.7,0.5c-0.3,0-1.1-0.6-0.9-1.2c-0.2-0.4-0.7-0.6-1.1-0.9c-0.2-0.3-0.5-0.8-0.8-0.8
			c-0.1,0-0.3,0.1-0.4,0.1c-0.3,0-0.6,0-0.9,0c-0.4,0-0.7,0.1-1.2,0.1c-0.3,0-0.6-0.1-0.9-0.2c-0.4,0-0.8-0.2-1.1-0.4
			c-0.1-0.2-0.2-0.6-0.4-0.6c-0.3-0.1-0.5,0.2-0.6,0.3c-0.5,0.2-1-0.1-1.3-0.5c-0.3-0.2-0.5-0.3-0.6-0.5c-0.5-0.4-0.5-1.4-1.2-1.4
			c-0.3,0-0.6,0.2-0.6,0.5c0,0.2,0.2,0.6,0.3,0.8c0.4,0.6,0.9,0.7,1.1,1.5c0.1,0.1,0.4-0.1,0.5,0c0.1,0.3,0,0.9,0.3,1
			c1.2,0.3,1.5-0.6,2.1-1.1c0.3,0.3,0.2,0.5,0.3,0.7c0.1,0.3,0.3,0.5,0.5,0.6s0.4,0,0.5,0.1c0.1,0.1,0.7,0.7,0.7,0.9
			c0,0.2-0.4,0.9-0.5,1.1c-0.1,0.2-0.3,0.3-0.4,0.5c0,0.1,0,0.4-0.1,0.5c-0.1,0.2-0.3,0.3-0.5,0.5c-0.2,0.2-0.4,0.3-0.5,0.5
			c-0.2,0.2-0.3,0.4-0.5,0.5c-0.4,0.2-0.7,0.1-1.1,0.4c-0.2,0.2-0.2,0.6-0.5,0.7c-0.3,0.2-0.7,0.2-1.1,0.5c-0.3,0.1-0.4,0.4-0.6,0.5
			c-0.1,0-0.2,0-0.3,0c-0.2,0.1-0.4,0.2-0.5,0.3c-0.2,0-0.3,0-0.5,0.1c-0.5,0.2-0.8,0.7-1.3,0.4c-0.2-0.6-0.3-1.3-0.5-1.8
			c-0.1-0.3-0.4-0.4-0.5-0.6c0-0.2,0.2-0.2,0.2-0.4c-0.1-0.4-0.4-0.6-0.5-0.8c-0.1-0.2-0.1-0.4-0.3-0.6c-0.4-0.6-1-0.9-1.2-1.7
			c0-0.2,0-0.4,0-0.6c-0.1-0.3-0.2-0.6-0.4-0.7c-0.1-0.2-0.4-0.3-0.5-0.5c-0.1-0.2-0.1-0.4-0.2-0.6c-0.3-0.6-0.7-1.2-1.2-1.7
			c-0.3,0-0.5,0.1-0.6,0.3c0.1,0.5,0.3,0.8,0.5,1.2c0.2,0.4,0.5,0.7,0.5,1.1c0,0.2,0,0.4,0.1,0.5c0.2,0.6,0.7,0.7,0.8,1.4
			c0.1,0.5,0,0.7,0.1,1.1c0.1,0.4,0.6,0.6,0.8,1c0.2,0.3,0.2,0.7,0.3,1.1c0.2,0.5,0.6,0.6,1,0.9c0.3,0.3,0.5,0.6,0.8,1
			c0.2,0.2,0.4,0.2,0.4,0.4c0.1,0.3-0.1,0.3-0.1,0.6c0.2,0.3,0.5,0.8,0.8,0.8c0.2,0,0.4-0.2,0.5-0.2c0.1,0,0.3,0,0.4,0
			c0.2,0,0.3-0.2,0.5-0.3c0.3-0.1,0.6,0,1-0.1s0.5-0.4,0.8-0.3c0.3,0.4,0.1,0.8,0,1.2c0,0.1,0,0.3-0.1,0.4c-0.2,0.6-0.5,1.1-0.7,1.7
			c-0.1,0.2-0.1,0.4-0.1,0.6c-0.2,0.6-0.6,1.1-1,1.6c-0.2,0.3-0.4,0.5-0.5,0.7c-0.2,0.2-0.5,0.3-0.7,0.6c-0.5,0.4-0.9,1-1.3,1.6
			c-0.1,0.2-0.2,0.5-0.3,0.6c-0.2,0.3-0.5,0.4-0.6,0.6c-0.1,0.2-0.2,0.6-0.4,0.9c-0.2,0.4-0.5,0.6-0.5,1.2c0,0.2,0.2,0.4,0.3,0.6
			c0.1,0.4,0,0.6,0,1.1c0.2,0.5,0.3,1,0.5,1.3c0,0.7-0.1,1.4,0,1.9c0,0.4,0.2,0.6,0,1c-0.1,0.3-0.5,0.8-0.7,1
			c-0.3,0.2-0.6,0.3-1,0.6c-0.2,0.2-0.4,0.5-0.5,0.7c-0.4,0.4-0.8,0.6-0.8,1c0,0.2,0.1,0.5,0.2,0.7c0.1,0.6,0.2,1.3,0,1.8
			c-0.2,0.6-1.3,0.5-1.4,1.1c0,0.2,0.1,0.4,0.1,0.6s-0.2,0.8-0.3,1c-0.1,0.3-0.5,0.5-0.6,0.6c-0.3,0.3-0.4,0.7-0.6,1.1
			c-0.4,0.5-0.8,0.9-1.2,1.3c-0.4,0.4-1.1,0.6-1.6,0.7c-0.4,0-0.7-0.1-1.1,0c-0.1,0-0.3,0.2-0.5,0.2c-0.1,0-0.2,0-0.3,0
			c-0.2,0-0.4,0.2-0.5,0.2c-0.4,0-0.8-0.6-0.8-1.1c0-0.2,0.2-0.4,0.2-0.6s-0.2-0.5-0.4-0.9c-0.2-0.4-0.3-0.8-0.4-1.1
			c-0.2-0.4-0.5-0.5-0.5-0.7c-0.3-0.6-0.3-1.2-0.4-1.8c0-0.2-0.2-0.5-0.2-0.7s0-0.6,0-0.9c-0.1-0.2-0.3-0.4-0.4-0.6
			c-0.2-0.5-0.4-1-0.5-1.4c-0.2-0.4-0.5-0.6-0.5-1c0-0.3,0-0.7,0.1-1c0-0.3,0.2-0.5,0.3-0.7c0-0.2,0-0.4,0-0.6
			c0.2-0.8,0.8-1.1,0.7-2c0-0.4-0.3-0.6-0.3-1.1c0-0.2,0.1-0.4,0.1-0.6c0-0.3-0.2-0.7-0.3-1c-0.3-0.7-0.5-1.5-0.9-2
			c-0.2-0.3-0.5-0.6-0.7-0.8s-0.4-0.6-0.4-0.8s0.1-0.3,0.2-0.6c0.1-0.3,0.1-0.7,0.2-1.1c0-0.2,0.2-0.6,0.2-0.9
			c0-0.3-0.4-0.8-0.7-0.9s-0.8,0.2-1.3,0.1C121.8,45.7,121.8,44.8,121.2,44.7z M137,57.1c0.1-0.3,0.3-1,0-1.1c0,0,0,0-0.1,0
			C136.8,56.2,136.7,57,137,57.1z M136.6,49.9c0.1-0.3,0.4-0.5,0.3-0.8c-0.1-0.6-1.1-0.4-1.2,0.2c-0.1,0.3,0.1,0.6-0.1,0.9
			c0.1,0.3,0.4,0.3,0.7,0.3C136.5,50.3,136.5,50.1,136.6,49.9z M134.9,53.5c0.1-0.3-0.2-0.5-0.3-0.7c-0.1-0.3,0.1-0.7-0.2-0.8h-0.1
			C134.2,52.5,134.5,53.4,134.9,53.5z M154.4,19.1c-0.1-0.3-0.5,0.1-0.3,0.3C154.3,19.4,154.3,19.3,154.4,19.1z M147.7,20.5
			c0.5-0.1,0-1-0.4-0.9C146.9,19.7,147.4,20.6,147.7,20.5z M145.6,25c0.2-1.2-0.6-1.3-0.7-2.1c0.1,0,0-0.1,0.1-0.1
			c0.2-0.1,0.5,0.2,0.5-0.1c0-0.4-0.5-0.7-0.8-0.6c-0.1-0.1-0.2-0.4-0.2-0.6c-0.4-0.3-1.1-0.7-1.1-1.2c0-0.4,0.5-0.6,0.9-0.6
			c0.2-0.2,0.1-0.7-0.1-0.8c-0.7-0.2-1.1-0.1-1.6,0.4c-0.2,0.2-0.5,0.4-0.6,0.5c-0.1,0.1-0.3,0.4-0.3,0.6c0,0.2,0.3,0.4,0.4,0.6
			c0.1,0.2,0,0.4,0.1,0.5c0.1,0.4,0.5,0.6,0.7,0.8c0.2,0.2,0.6,0.6,0.6,0.8c0,0.2-0.2,0.3-0.2,0.5c-0.1,0.2-0.1,0.6-0.1,0.8
			c0.1,0.4,0.4,0.4,0.7,0.6c0.3,0.2,0.5,0.5,0.9,0.5C145.1,25.3,145.4,25.2,145.6,25z M138.9,22.5c0.7-0.2,0.5-0.9,0-1.3
			c-0.3-0.2-0.6-0.4-1-0.6c-0.2-0.2-1-0.5-1-0.7c0-0.4,0.5-0.5,0.4-1c-0.4-0.1-1.3,0.1-1.3,0.6c0,0.3,0.4,0.1,0.4,0.5
			c-0.3,0.1-0.6,0.5-0.9,0.4c-0.4-0.1-0.5-0.6-0.6-0.9c-0.3,0-0.5-0.3-0.7-0.3c-0.4,0-0.5,0.6-0.7,0.9c-0.1,0.2-0.3,0.3-0.3,0.4
			s0,0.2,0,0.4c-0.1,0.4-0.4,0.6-0.4,0.8c0,0.3,0.3,0.5,0.3,0.7s-0.4,0.1-0.4,0.5c0.5,0.6,0.5-0.3,0.8-0.4c0.2-0.1,0.6,0.1,0.9,0
			c0.2-0.1,0.4-0.3,0.6-0.5c0.2-0.1,0.4-0.1,0.5-0.2c0.9,0,1.5,0.6,2.3,0.7C138.2,22.6,138.6,22.5,138.9,22.5z M137.1,26.5
			c0-0.4-0.1-0.6-0.2-1.2c-0.5-0.4-0.9,0.4-1.5,0.3c-0.4-0.1-0.5-0.6-0.9-0.5c-0.2,0-0.3,0.4-0.5,0.4c-0.4,0.1-0.6-0.4-1-0.2
			c-0.6-0.6-0.9-1.5-1-2.5c-0.4-0.6-0.8-0.1-1.1,0.3c-0.2,0-0.4-0.1-0.4,0.1c-0.1,0.6,0.7,0.7,0.7,1.1c0,0.3-0.4,0.3-0.5,0.5
			c-0.2,0.2-0.1,0.4-0.3,0.6c-0.5,0.1-0.7-0.3-0.7-0.9c-0.3-0.5-0.5-0.7-0.7-1.1c-0.1-0.1-0.2-0.4-0.3-0.6c0-0.2,0.1-0.4,0-0.6
			c-0.1-0.4-0.5-0.6-0.9-0.7s-0.7-0.4-1-0.6c-0.2-0.2-0.3-0.5-0.4-0.6c-0.1-0.1-0.3-0.1-0.4-0.2c-0.2-0.1-0.1-0.4-0.4-0.5
			c-0.1-0.1-0.3,0.1-0.4,0.3c-0.2,0.7,0.4,0.8,0.6,1.1c0.2,0.3,0.3,0.6,0.4,0.7c0.2,0.2,0.4,0.1,0.6,0.3c0.2,0.1,0.3,0.3,0.4,0.5
			c0.3,0.2,0.7,0.3,0.7,0.6c-0.2,0.2-0.5-0.2-0.7,0.2c0,0.2,0.2,0.4,0.2,0.6c0,0.4-0.4,0.7-0.6,0.6c0-0.2,0.2-0.4,0.2-0.6
			c0-0.5-0.7-1.1-1.1-1.3c-0.2-0.1-0.4-0.1-0.5-0.2c-0.3-0.2-0.7-0.6-0.9-0.9c-0.2-0.4-0.4-0.9-0.8-0.9c-0.2,0-0.4,0.2-0.5,0.3
			c-0.2,0.1-0.3,0.2-0.5,0.3c-0.2,0.1-0.3,0.3-0.5,0.3c-0.4,0-0.6-0.4-1-0.3c-0.1,0-0.2,0.2-0.3,0.3c0,0.2,0.1,0.4,0,0.6
			c-0.1,0.2-0.4,0.2-0.5,0.3c-0.3,0.2-0.5,0.6-0.8,0.8c-0.2,0.2-0.3,0.4-0.3,0.5c0,0.1,0.1,0.4,0.1,0.5c0,0.2-0.3,0.6-0.5,0.6
			c-0.1,0.1-0.3,0.1-0.4,0.2c-0.2,0.2-0.4,0.4-0.5,0.5c-0.5,0.1-1.4-0.1-1.4,0.6c0,0.5,0.5,0.5,0.7,0.5c0.4,0,0.7,0.1,1,0
			c0.2-0.1,0.4-0.3,0.5-0.4c0.1-0.1,0.2-0.1,0.3-0.1c0.2-0.1,0.3-0.3,0.4-0.4c0.3-0.2,0.7-0.3,1-0.3c0.4,0,0.8,0.1,1.3,0
			c0.2,0,0.4-0.2,0.5-0.2c0.3,0,0.7,0.2,1,0.2c0.2,0,0.4-0.2,0.5-0.2c0.3,0,0.5,0.2,0.5,0.4c0,0.1-0.1,0.3,0,0.5
			c0,0.3,0.2,0.4,0.2,0.6s-0.5,0.6-0.4,0.7c0,0.2,0.4,0.4,0.5,0.5c0.2,0.1,0.5,0.3,0.6,0.3c0.2,0,0.3-0.1,0.5,0
			c0.3,0,0.6,0.2,0.8,0.4c0.3,0.2,0.3,0.6,0.5,0.7c0.1,0.1,0.4,0,0.5,0.1c0.5,0.1,0.7,0.6,1,0.5c0.5-0.1,0.3-0.6,0.3-1
			c0.1-0.9,1.5-0.8,1.8-0.3c0.2,0.1,0.4,0,0.6,0.1c0.2,0.1,0.3,0.3,0.4,0.3s0.3,0,0.4,0c0.5,0.1,1,0.6,1.5,0.5
			c0.3-0.1,0.5-0.4,0.8-0.5c0.5,0,0.9,0.5,1.5,0.3c0.5-0.2,0.4-0.7,0.5-1.3C136.8,27.1,137.1,26.8,137.1,26.5z M167.8,14.8
			c0.1-0.5-0.1-0.9-0.3-1.2c-0.4,0.1-0.1,0.5-0.1,0.7c0,0.4-0.4,0.6-0.3,0.9c-0.1,0.2-0.3,0.2-0.3,0.5c0.2,0.2,0.3-0.1,0.4-0.3
			C167.4,15.2,167.8,15.1,167.8,14.8z M160.3,2.7c-0.3,0-0.5,0.2-0.6,0.3c-0.1,0.1-0.4,0.1-0.3,0.3C159.8,3.3,160.3,3.2,160.3,2.7z
			 M148.3,7.1c0.6,0.2,1-0.7,0.5-1.3c-0.1-0.1-0.5-0.2-0.6-0.5C148,5,148,4.5,147.6,4.6v0.1c0,0.7,0.9,0.9,0.8,1.6
			C148.5,6.6,148.2,6.7,148.3,7.1z"/>
		<path class="st3" d="M138.9,5.7c-0.1-0.4,0.5-0.3,0.4,0C139.2,5.9,139,5.9,138.9,5.7z"/>
		<path class="st3" d="M135.4,26.4c0-0.3,0.5-0.4,0.6-0.2C136,26.5,135.5,26.7,135.4,26.4z"/>
		<path class="st3" d="M125.6,24.5c0.3-0.3,1-0.1,1.4-0.1c-0.1,0.3-0.1,0.6-0.3,0.7C126.2,25.1,125.8,25,125.6,24.5z"/>
		<path class="st3" d="M123.5,22.7c0.4-0.5,0.8-0.3,0.6,0.7c-0.1,0.3-0.5,0.6-0.7,0.3C123.6,23.3,123.5,23.1,123.5,22.7z"/>
		<path class="st3" d="M124,21.6c0,0.3-0.1,0.5-0.2,0.6C123.5,22,123.8,21.2,124,21.6z"/>
		<path class="st3" d="M118.6,14.6c0-0.2-0.1-0.5-0.3-0.6c-0.1-0.1-0.3,0-0.4-0.1c-0.3-0.2-0.4-0.6-0.5-0.6c0-0.4-0.1-0.6,0-0.9
			c0.1-0.2,0.5-0.6,0.6-0.6c0.3-0.1,0.5,0,0.6-0.3c0.1,0,0.1,0,0.2,0c0,0.2-0.2,0.3-0.2,0.5c0,0.3,0.5,0.1,0.5,0.5
			c0,0.4-0.3,0.4-0.3,0.6c0,0.2,0.4,0.6,0.5,0.8c0.1,0.2,0.4,0.4,0.5,0.6c0.1,0.2,0.1,0.4,0.2,0.5c0.2,0.2,0.5,0.2,0.5,0.5
			c0,0.4-0.4,0.5-0.3,0.8c-0.4,0.4-1,0.2-1.6,0.3c-0.3,0-0.6,0.4-0.9,0.1c-0.1-0.3,0.3-0.3,0.3-0.5c0-0.2-0.3-0.2-0.3-0.4
			c0.1-0.3,0.4-0.4,0.3-0.7C118.2,14.8,118.5,14.9,118.6,14.6z"/>
		<path class="st3" d="M116.4,13.8c0.4-0.3,1-0.1,1.1,0.3c0,0.3-0.2,0.3-0.3,0.6c-0.1,0.3,0,0.6-0.1,0.7s-0.4,0.2-0.5,0.2
			c-0.4,0.1-1.1,0.6-1.4,0.1c0-0.3,0.3-0.4,0.4-0.6c0-0.2-0.2-0.3-0.2-0.6s0.2-0.2,0.5-0.3C116.1,14.1,116.2,13.9,116.4,13.8z"/>
		<path class="st3" d="M96.9,6.2C97,6.5,96.1,7,96,6.5C96,6.2,96.7,5.9,96.9,6.2z"/>
		<path class="st3" d="M96,84.1c-0.2,0-0.3,0-0.5,0C95.6,84.1,95.9,84.1,96,84.1z"/>
		<path class="st3" d="M94.7,3.8c0,0,0.1,0,0.2,0c0,0.1-0.1,0.2-0.2,0.2C94.7,3.8,94.7,3.8,94.7,3.8z"/>
		<path class="st3" d="M92.1,9.3c0,0.2-0.5,0.6-0.6,0.2c0-0.1,0-0.2,0.1-0.3C91.8,9,92.1,9.1,92.1,9.3z"/>
		<path class="st3" d="M80.3,41.4c0,0.1,0,0.1-0.1,0.2C79.9,41.5,80.2,41.1,80.3,41.4z"/>
		<path class="st3" d="M68.6,17.3c0.2-0.2,0.4,0.2,0.3,0.4C68.7,17.6,68.6,17.4,68.6,17.3z"/>
		<path class="st3" d="M99.8,18.5c-0.1,0-0.3,0-0.5-0.1c-0.2,0-0.3-0.1-0.5-0.1c-0.4-0.1-0.7,0.1-0.9-0.2c0.4-0.6,0.8-1.1,1.2-1.6
			c0.1-0.2,0.4-0.3,0.4-0.6c-0.3-0.3-0.5,0-0.7,0.2c-0.3,0.2-0.5,0.4-0.8,0.5c-0.5,0.1-1.1-0.2-1.5,0.2c-0.1,0.3,0.5,0.2,0.4,0.6
			c-0.2,0-0.4,0.1-0.5-0.1c-0.1-0.2-0.1-0.4-0.2-0.5c-0.2-0.2-0.7-0.2-0.9-0.2c-0.3,0.1-0.5,0.3-0.6,0.6c0.4,0.2,0.9-0.2,1.1,0.3
			C95.5,18,95,18.2,95,18.8c0,0.2,0.3,0.6,0.4,0.6c0.2,0,0.3-0.2,0.4-0.2c0.2,0,0.1,0.3,0.3,0.2c0.3-0.2,0.5-0.6,0.7-0.6
			c0.4,0.6-0.4,0.8-0.7,1c-0.5,0.2-1.1,0.3-1.4,0.5c-0.2,0.1-0.9,0.9-1,0.3c-0.1-0.5,0.4-0.3,0.5-0.7c-0.5-0.1-0.8,0.3-1.3,0.5
			c-0.5,0.3-1.5,0.5-1.6,1.2c0,0.2,0.1,0.5,0,0.6s-0.5,0.1-0.6,0.2c-0.3,0.1-0.5,0.4-0.7,0.5c-0.1,0-0.3,0-0.4,0.1
			c-0.2,0.1-0.3,0.5-0.5,0.7c-0.1,0.1-0.4,0.2-0.5,0.3c-0.2,0.2-0.2,0.6-0.5,0.7c-0.2,0-0.3-0.2-0.5,0c0,0.5,0.1,1,0,1.5
			c-0.4,0.4-0.7,0.6-1.2,0.8c-0.3,0.2-0.5,0.2-0.7,0.4c-0.2,0.1-0.4,0.5-0.6,0.6c-0.5,0.4-1.2,0.8-1.2,1.8c0,0.2,0.1,0.5,0.1,0.7
			c0,0.2,0,0.3,0,0.5c0,0.4,0.3,0.8,0,1.1c-0.4-0.2-0.9-0.3-1.2-0.6c-0.1-0.4,0.2-0.6,0.1-0.9c0-0.3-0.3-0.7-0.5-0.7
			s-0.4,0.2-0.5,0.2c-0.2,0-0.5-0.4-0.7-0.5c-0.4-0.1-0.7,0.1-1.2,0c-0.5,0.3-0.5,0.7-1.1,0.7c-0.2,0-0.4-0.2-0.5-0.3
			c-0.3-0.1-0.5-0.2-0.8-0.2c-0.5,0-0.8,0.5-1.3,0.7c-0.4,0.3-0.9,0.6-1,1c-0.1,0.3,0,0.6-0.1,0.8c-0.1,0.2-0.2,0.3-0.3,0.5
			c-0.4,0.7-0.5,1.7-0.4,2.7c0,0.2,0.4,1,0.5,1.2c0.2,0.2,0.5,0.5,0.8,0.5c0.2,0,0.5-0.1,0.6-0.2c0.3-0.1,0.5-0.1,0.7-0.2
			c0.6-0.3,0.5-1.3,1.1-1.6c0.3-0.2,0.5-0.2,1.1-0.2c0.2,0.2,0.2,0.5,0.2,0.6c0,0.2-0.2,0.4-0.3,0.6c-0.1,0.2-0.1,0.5-0.2,0.6
			c-0.1,0.3-0.3,0.4-0.4,0.6c0,0.2,0,0.3-0.1,0.5c-0.1,0.2-0.3,0.4-0.2,0.6c0.6,0.3,1.4-0.1,1.9,0c0.2,0.1,0.7,0.4,0.7,0.8
			c0,0.3-0.2,0.6-0.3,0.8c0,0.5-0.2,0.9-0.2,1.3c0,0.6,0.7,1.6,1.2,1.6c0.5,0,0.8-0.6,1.5-0.3c0.2,0.1,0.5,0.6,0.7,0.6
			c0.2,0,0.5-0.5,0.6-0.7c0.2-0.4,0.2-0.6,0.5-0.8c0.3-0.2,0.5-0.1,0.9-0.3c0.2-0.1,0.4-0.2,0.5-0.4c0.2-0.1,0.3-0.5,0.5-0.2
			c0.3,0.3-0.3,0.5-0.1,0.7c0.4,0.3,0.6-0.5,0.9-0.5c0.1,0,0.4,0.2,0.5,0.4c0.2,0.2,0.3,0.5,0.5,0.5c0.2,0,0.4-0.1,0.6,0
			s0.5,0.4,0.7,0.4s0.4-0.4,0.6-0.5c0.5-0.1,0.7,0.1,0.9,0.5c0.3,0.1,0.3-0.4,0.5-0.2c-0.1,0.3,0,0.5,0.2,0.7
			c0.1,0.2,0.1,0.3,0.1,0.4c0.1,0.2,0.4,0.2,0.6,0.3c0.2,0.2,0.4,0.5,0.5,0.8c0.3,0.4,0.6,0.7,1,0.7c0.3,0,0.5-0.1,0.8-0.1
			c0.5,0.1,1,0.5,1.4,0.8c0.3,0.2,0.5,0.4,0.5,0.6c0.1,0.2,0,0.5,0.1,0.6c0.1,0.5,0.6,0.6,0.5,1.4c0.1,0.2,0.3,0.3,0.5,0.5
			c0.2,0.1,0.3,0.4,0.5,0.5c0.1,0,0.3,0,0.4,0c0.4,0,0.5,0.2,0.8,0.3c0.2,0.1,0.4,0.1,0.5,0.2c0.2,0.1,0.2,0.6,0.4,0.6
			c0.1,0.1,0.4,0,0.5,0c0.3,0,0.7,0.3,1,0.3c0.2,0,0.3-0.1,0.5-0.1c0.7,0.1,1.1,1.1,1.7,1.4c0.2,0.1,0.5,0,0.7,0.1
			c0.3,0.1,0.5,1.1,0.5,1.5c0.1,1.3-0.7,1.7-1.2,2.5c-0.1,0.2-0.2,0.5-0.3,0.7c-0.3,0.5-0.5,0.6-0.5,1.5c0,0.3,0.1,0.5,0.1,0.7
			c0,0.4,0,0.7-0.1,1.1c-0.1,0.2-0.2,0.5-0.3,0.6c0,0.2,0.1,0.4,0,0.6c0,0.2-0.2,0.5-0.3,0.7c-0.3,0.6-0.4,1.3-0.8,1.6
			c-0.3,0.2-0.7,0.1-1.1,0.2c-0.2,0.1-0.3,0.2-0.5,0.3c-0.5,0.3-1.2,0.6-1.4,1.3c-0.1,0.6,0.2,1,0.1,1.7c-0.1,0.2-0.2,0.4-0.4,0.6
			c-0.1,0.2-0.2,0.5-0.3,0.6c-0.2,0.3-0.5,0.4-0.5,0.7c0,0.1,0,0.3-0.1,0.5c0,0.1-0.1,0.2-0.2,0.3c-0.1,0.1,0,0.3-0.1,0.4
			c-0.1,0.3-0.5,1-0.8,1.1c-0.6,0.2-1.2-0.3-1.6-0.2c0.1,0.4,0.3,0.3,0.4,0.6c0.1,0.2,0.1,0.4,0.3,0.5c0.1,0.2,0.3,0.3,0.3,0.5
			c0,0.5-0.3,0.8-0.5,1c-0.2,0.1-0.5,0.2-0.8,0.3c-0.2,0-0.7,0-0.8,0.2c-0.2,0.3,0.1,0.8,0,1.1c-0.2,0.6-0.8,0-1.1,0.2
			c0,0.3,0.1,0.6,0.3,0.6c0.2,0.1,0.5,0,0.5,0.2c-0.1,0.4-0.4,0.4-0.5,0.7c0,0.4,0.1,0.5,0.1,0.6c-0.1,0.5-0.6,0.5-0.6,0.9
			c0,0.7,1.1,0.5,1.2,1.1c0,0.5-0.3,0.5-0.5,0.8c-0.1,0.2,0,0.3,0,0.5c-0.1,0.3-0.3,0.3-0.3,0.6c0,0.4,0.4,0.7,0.6,1
			c0.2,0.3,0.5,0.6,0.7,0.8c0.4,0.3,1,0.2,1.2,0.7c-0.1,0.3-0.3,0.4-0.5,0.5c0,0,0,0-0.1,0c-0.1-0.1-0.4-0.1-0.5,0
			c-0.1,0-0.3,0-0.4,0c-0.4-0.2-0.8-0.4-1.3-0.6c-0.2-0.1-0.4-0.3-0.5-0.4c-0.2-0.1-0.3-0.1-0.4-0.2c-0.3-0.2-0.5-0.6-0.7-0.8
			c-0.2-0.1-0.4-0.2-0.5-0.3c-0.1-0.1-0.2-0.4-0.3-0.6c-0.1-0.2-0.3-0.3-0.4-0.5c-0.3-0.4-0.5-0.9-0.5-1.2s0.2-0.5,0.2-0.7
			c-0.1-0.3-0.5-0.2-0.5-0.5c0-0.2,0.1-0.5,0.1-0.7c0-0.2-0.3-0.4-0.2-0.6c0.1-0.3,0.3,0,0.5-0.1c-0.1-0.5,0-1.3-0.4-1.5
			c-0.2,0.2,0.2,0.7-0.2,0.8c-0.4-0.2-0.3-0.7-0.4-1.1c-0.1-0.3-0.2-0.6-0.2-0.8c0-0.2,0.1-0.4,0-0.5c-0.1-0.5-0.5-0.8-0.5-1.3
			c0-0.2,0.1-0.5,0.2-0.6c0-0.2,0-0.4,0-0.6s0.1-0.5,0.2-0.6c0-0.4,0-1-0.1-1.4c-0.1-0.4-0.4-0.7-0.4-1.2c0-0.2,0-0.5,0-0.6
			c0-0.2-0.1-0.4-0.1-0.6s0-0.4,0.1-0.6c0-0.5-0.1-0.9-0.1-1.4c0-0.1,0.1-0.2,0.1-0.4c0-0.4-0.1-0.7-0.1-1.1c0-0.6,0.1-1.1,0-1.7
			c-0.1-0.5-0.2-1.2-0.3-1.5c-0.2-0.4-0.7-0.8-1.1-1.1c-0.2-0.1-0.5-0.2-0.6-0.3c-0.5-0.3-1.4-0.8-1.5-1.4c-0.1-0.2-0.1-0.4-0.1-0.6
			c-0.1-0.4-0.4-0.6-0.5-1c-0.4-0.6-0.6-1.5-1-2.1c-0.2-0.4-0.4-0.7-0.5-1c-0.1-0.2-0.5-0.3-0.5-0.6c-0.1-0.3-0.3-0.7-0.3-1
			c0-0.4,0.5-0.6,0.5-0.9s-0.3-0.4-0.4-0.6c-0.2-0.6,0.1-0.8,0.3-1.3c0.1-0.2,0.1-0.4,0.2-0.5c0.1-0.2,0.3-0.3,0.5-0.5
			c0.1-0.1,0.1-0.4,0.3-0.6c0.2-0.4,0.5-0.5,0.6-0.8c0.1-0.3,0.1-1.6,0-1.9c-0.1-0.3-0.3-0.5-0.3-0.7c-0.1-0.5-0.2-0.9-0.5-0.8
			c-0.2,0-0.4,0.3-0.5,0.5c0,0.3,0,0.6-0.3,0.6c-0.4,0.1-0.5-0.5-0.8-0.6c-0.2-0.1-0.4-0.1-0.5-0.1c-0.3-0.2-0.4-0.6-0.6-0.8
			c-0.3-0.2-0.5-0.1-0.6-0.4c-0.1-0.2,0-0.5,0-0.7c-0.3-0.2-0.5-1-0.9-1.3c-0.3-0.1-0.6-0.1-0.9-0.3c-0.2-0.1-0.3-0.1-0.4-0.2
			c-0.2-0.1-0.4-0.1-0.5-0.2c-0.5-0.4-0.9-1.5-1.5-1.4c-0.3,0-0.5,0.4-0.8,0.4s-0.7-0.3-1.1-0.5c-0.4-0.2-0.7-0.3-1-0.5
			c-0.3-0.2-0.4-0.4-0.6-0.6c-0.2-0.1-0.4-0.1-0.5-0.2c-0.2-0.1-0.4-0.4-0.6-0.6c-0.2-0.2-0.5-0.5-0.5-0.7c0-0.3,0.2-0.5,0.3-0.7
			c0.1-0.8-0.5-1.4-0.7-1.9c-0.3-0.4-0.5-0.6-0.7-1c0-0.2,0-0.3,0-0.5c-0.2-0.2-0.4-0.6-0.5-0.8c-0.2-0.3-0.5-0.6-0.5-0.9
			c-0.1-0.4,0.1-0.7,0-1.1c-0.2-0.6-0.9-0.4-0.8,0.5c0,0.2,0.3,0.6,0.4,0.7c0.1,0.3,0.1,0.6,0.2,0.8c0.1,0.3,0.3,0.5,0.4,0.8
			c0.1,0.5,0.1,1,0.3,1.3c0.1,0.3,0.5,0.6,0.3,0.8c-0.3,0.1-0.4-0.3-0.5-0.5c-0.1-0.1-0.5-0.3-0.5-0.6c0-0.2,0.1-0.5,0.1-0.7
			c-0.1-0.5-0.9-0.5-0.9-1c0-0.3,0.4-0.4,0.4-0.6c0-0.4-0.4-0.6-0.5-0.9c0,0.1,0-0.4,0-0.7s0-0.7-0.1-1c-0.1-0.3-0.4-0.6-0.5-0.7
			c-0.3-0.2-0.5-0.1-0.5-0.4c-0.1-0.2-0.2-0.6-0.2-0.9c0-0.5,0-0.8,0-1.3c0-0.5-0.1-0.8,0-1.4c0.2-0.4,0.4-0.5,0.5-0.8
			c0.1-0.3,0.1-0.6,0.3-0.7c0.2-0.5,0.6-0.8,1-1.3c0.4-0.5,0.6-0.9,0.8-1.5c0.1-0.2,0.3-0.6,0.3-0.8c0-0.4-0.5-0.6-0.5-1
			c0-0.3,0.3-0.3,0.4-0.5c0-0.1,0.1-0.5,0.1-0.6c0-0.4-0.2-0.6-0.1-1c0.1-0.3,0.5-0.5,0.3-0.7c-0.2-0.4-0.5,0.2-0.7,0s0-0.5,0.1-0.8
			c0-0.2-0.1-0.3-0.1-0.5s0.3-0.5,0.2-0.6c-0.2-0.3-0.4-0.8-0.6-1c-0.5-0.3-0.9-0.1-1.5-0.2c-0.4-0.1-0.5-0.5-0.8-0.5
			c-0.2,0-0.4,0.3-0.6,0.5c-0.3,0.2-0.6,0.1-0.9,0.2c-0.3,0.1-0.4,0.3-0.7,0.3c-0.3,0-0.3-0.3-0.5-0.3c-0.1,0-0.3,0.1-0.5,0.1
			c-0.5,0.1-1.3,0.1-1.6,0c-0.4-0.1-0.6-0.3-1.1-0.6c-0.4-0.2-1-0.5-0.9-0.7c0-0.2,0.6-0.4,0.8-0.5C59,9.3,59.3,9,59.6,9
			c0.1,0,0.3,0.1,0.4,0.1c0.2,0,0.4-0.2,0.5-0.2c0.4-0.1,1,0,0.9-0.5c-0.3-0.3-1.5,0.2-1.5-0.5c0-0.4,0.5-0.5,0.8-0.6
			c0.4-0.1,0.8-0.2,1.1-0.2c0.4,0,0.7,0.5,0.9,0c0.1-0.4-0.1-0.6-0.2-0.9c0.3-0.4,0.7-0.4,1-0.5c0.4-0.1,0.7-0.2,1.1-0.4
			c0.4-0.2,0.7-0.3,1.1-0.4C66,5,66.4,4.9,66.8,4.9c0.3,0,0.5,0,0.8-0.1c0.3-0.1,0.5-0.2,0.7-0.2c0.1-0.1,0.2,0.1,0.4,0.1
			s0.4,0,0.5,0s0.3,0.2,0.4,0.2c0.2,0,0.5,0,0.6,0S70.6,5,70.8,5c0.5,0.1,0.9,0,1.4,0.1c0.2,0,0.3,0.1,0.5,0.2c0.2,0,0.4,0,0.5,0
			c0.2,0.1,0.5,0.3,0.6,0.4c0.5,0.1,0.9-0.3,1.4-0.3c0.4,0,0.6,0,1-0.1c0.3-0.1,0.6-0.2,0.9-0.3c0.2,0,0.3,0.1,0.5,0
			c0.2,0,0.4-0.3,0.5-0.2c0.2,0,0.2,0.4,0.4,0.5c0.3-0.2,0.5,0,0.7,0s0.5-0.2,0.8-0.1c0.5,0.1,1.3,0.7,1.6,0.4
			c0.1-0.1,0.1-0.3,0.2-0.5C81.8,4.9,82.1,4.5,82,4c-0.5,0-1.1,0.4-1.7,0.4c-0.5-0.4,0.4-0.6,0.9-0.9c0.4-0.2,0.7-0.6,1.2-0.7
			c0.4-0.1,0.8,0.1,1.3,0.2c0.3,0,0.5,0,0.7,0C84.6,3,84.8,3.4,85,3.5c0.1,0,0.3,0,0.4,0.1c0.3,0.1,0.5,0.3,0.7,0
			c0.2,0,0.2,0.3,0.5,0.4c0.2-0.1,0.4-0.5,0.6-0.6c0.1,0,0.3,0,0.4,0c0.3,0,0.5-0.5,0.7-0.1c-0.1,0.3-0.4,0.3-0.5,0.5
			c-0.2,0.2-0.4,0.6-0.4,0.7c0,0.4,0.5,0.2,0.5,0.6c-0.1,0.3-0.3,0.1-0.5,0.3c-0.2,0.1-0.3,0.3-0.5,0.4c-0.5,0.1-0.9-0.2-1.4-0.2
			c0,0.3,0.2,0.4,0.4,0.5c0.4,0.3,0.7,0.2,1.3,0.2c0.3,0,0.6,0.1,0.9-0.1c0.2-0.1,0.2-0.5,0.3-0.6c0.2-0.2,0.5-0.4,0.7-0.4
			c0.1,0,0.3,0.2,0.3,0.4c0,0.3-0.4,0.2-0.4,0.6c0.3,0.2,0.9-0.2,0.9-0.5c0-0.2-0.2-0.4-0.2-0.6c0-0.4,0.5-0.4,0.4-0.7
			c-0.2-0.2-0.4,0-0.6,0c-0.3-0.1-0.5-0.5-0.6-0.7c0.1-0.2,0.4-0.1,0.5,0c0.2-0.4,0.6-0.5,1.2-0.6c0.2,0,0.5-0.1,0.5,0.1
			c0.1,0.4-0.4,0.6-0.3,0.9c0.4,0.1,0.5-0.6,0.8-0.7c0.2-0.1,0.4-0.2,0.5-0.3c0.2-0.1,0.4-0.3,0.5-0.3c0.2,0,0.2,0.2,0.4,0.3
			c0.2,0.1,0.4-0.1,0.4,0.2c-0.4,0.7-1.5,0.3-1.9,1c0.1,0.5-0.2,0.9,0,1.3c0.2,0.2,0.5,0.1,0.6,0.3c0.1,0.3-0.4,0.3-0.3,0.7
			c0.3,0.2,0.6-0.2,0.9-0.4c0.3-0.2,0.6-0.4,0.7-0.8C93.4,5,92.9,5.3,92.8,5c0-0.4,0.3-0.8,0.3-0.8c0.3-0.4,1.4-1,2.1-0.9
			c0.2,0,0.3,0.1,0.5,0.2c0.5,0.1,1.1-0.3,1.5,0c0.3-0.2,0.6,0,1.1,0c0.4,0.3,0.3,0.7,0.7,1c0.1,0.1,0.3,0,0.5,0.1
			c0.1,0,0.3,0.2,0.5,0.3c0.2,0.1,0.4,0.1,0.5,0.3c0,0.2-0.2,0.3-0.2,0.5c0.1,0.1,0,0.3,0.1,0.5c0.1,0.3,0.5,0.3,0.7,0.5
			c0.2,0.1,0.6,0.5,0.6,0.7c0,0.2-0.5,0.5-0.5,0.6c-0.1,0.1-0.5,0.4-0.7,0.3c-0.3-0.1-0.4-0.7-0.7-0.7c-0.2,0-0.3,0.1-0.3,0.4
			c0,0.5,0.5,0.5,0.5,0.8c0,0.5-0.2,0.5-0.5,0.8C98.9,9.2,98.7,9,98.4,9c-0.3,0.2,0.3,0.3,0.1,0.6c-0.5,0.1-0.8-0.2-1.2-0.3
			c-0.1-0.1-0.4,0-0.5-0.1c-0.2-0.1-0.2-0.5-0.4-0.6c-0.2-0.3-0.5-0.6-0.7-0.6c-0.4,0-0.8,0.6-1.2,0c0.3-0.7,1.2-0.2,1.7-0.5
			c0.2-0.1,0.3-0.4,0.5-0.6c0.4-0.3,1-0.3,0.9-0.8c0-0.3-0.4-0.3-0.5-0.4C97,5.7,96.9,5,96.5,5c-0.2,0-0.3,0.2-0.5,0.2
			c-0.4,0-0.8-0.2-1.1,0c-0.1,0.2,0,0.4-0.2,0.6C94.7,6,94.4,6,94.3,6.1c-0.1,0.2-0.1,0.5-0.3,0.6C93.8,7,93.3,7,93,7.2
			c-0.1,0.1-0.2,0.3-0.4,0.3c-0.3,0-0.4-0.4-0.6-0.3c0,0.4,0.4,0.6,0.5,0.7c0.3,0.2,0.5,0.4,0.5,0.7c-0.3,0.6-0.6,0-1,0
			s-1,0.9-1.4,0.2c0.1-0.4,0.5-0.5,0.5-0.8c-0.4,0.1-0.7,0.5-1.2,0.6c-0.2,0.1-0.4,0-0.5,0.1c-0.4,0.1-0.5,0.5-0.9,0.6
			c-0.2,0.1-0.3,0-0.5,0.1c-0.4,0.2-0.7,0.4-1.1,0.6c-0.4,0.3-0.7,0.5-1,0.7c-0.1,0.1-0.5,0.6-0.5,0.7s0.4,0.3,0.4,0.5
			c0,0.1-0.2,0.4-0.1,0.6c0.1,0.2,0.4,0,0.6,0.1c0.5,0.1,0.7,0.5,1.1,0.7c0.3,0.2,0.6,0.4,0.9,0.5c0.4,0.1,0.8-0.2,0.9,0.3
			c0.1,0.4-0.4,0.5-0.4,0.7c0.2,0.4-0.2,0.5-0.2,0.8c0,0.3,0.3,0.6,0.5,0.6c0.3,0,0.7-0.4,0.8-0.7c0.2-0.5,0.1-1,0.4-1.3
			c1.4,0,2.5-0.7,2.4-2.4c0-0.2-0.1-0.4-0.1-0.6c0-0.3,0.5-0.5,0.4-0.8c0.4-0.4,0.4-1.1,0.7-1.2c0.4-0.1,0.7,0.3,1.1,0.3
			c0.2,0,0.3-0.2,0.5-0.2c0.3,0.1,0.5,0.5,0.6,0.6c0.2,0.2,0.4,0.1,0.5,0.4c-0.1,0.4-0.3,0.4-0.3,0.7c0,0.3,0.3,0.6,0.5,0.6
			c0.2,0.1,0.5-0.1,0.7-0.2c0.4-0.2,0.7-0.9,1-0.8c0.3,0.1,0.5,1,0.5,1.4s0,0.6,0,1c0,0.6,0.6,0.6,0.9,0.8c0.1,0.1,0.1,0.4,0.2,0.5
			c0.2,0.3,0.4,0.3,0.4,0.5c0.1,0.6-0.5,0.6-0.4,1.3c-0.1,0.3-0.4,0.3-0.4,0.6c0,0.6,0.6,0.1,0.8,0.6c0.1,0.2,0,0.4-0.1,0.7
			c0.2,0.3,0.2,0.8-0.2,0.8C100.1,18.9,100.1,18.5,99.8,18.5z M68.9,17.6c0.1-0.2-0.1-0.6-0.3-0.4C68.6,17.4,68.7,17.6,68.9,17.6z
			 M88.8,20.8c-0.1-0.2-0.5-0.1-0.7-0.1c-0.2,0-0.4,0.1-0.5,0.3C87.9,21.1,88.8,21.2,88.8,20.8z M87.4,20.2c0.2-0.2,0.1-0.6-0.1-0.7
			c-0.1,0-0.2,0.1-0.4,0.1c-0.2,0-0.4-0.2-0.5-0.2c-0.2,0-0.5,0.1-0.5,0.3c0,0.2,0.1,0.3,0.1,0.5c-0.3,0.3-0.1,1,0.2,1.1
			c0.3,0,0.5-0.9,0.8-1C87.1,20.1,87.2,20.2,87.4,20.2z M86.9,21.6c-0.4-0.2-0.8,0.1-1.1,0.2c-0.2,0-0.5-0.1-0.5,0.3
			c0,0.3,0.5,0.2,0.6,0.1C86.4,21.9,86.7,21.9,86.9,21.6z M85.7,18.9c0.5-0.3-0.1-1.2-0.4-1.3c-0.5-0.2-1.1,0.4-1.6,0.6
			c-0.3,0.1-0.5,0.1-0.6,0.5c0.3,0.6,0.8-0.1,1.2,0c0.2,0,0.3,0.4,0.5,0.5C84.8,19,85.7,18.9,85.7,18.9z M85.3,19.5
			c-0.1-0.2-0.7,0-0.9,0.2c-0.1,0.1-0.2,0.4-0.4,0.6c-0.1,0.2-0.3,0.4-0.4,0.6c-0.1,0.2-0.6,1.2-0.3,1.3c0.2,0.1,0.5-0.5,0.6-0.6
			c0.1-0.6,0.4-1.1,0.7-1.4C85,19.8,85.3,19.8,85.3,19.5z M81.7,15.6c0.3,0,0.5-1.2,0-1C81.4,14.7,81.3,15.6,81.7,15.6z M80.2,41.5
			c0-0.1,0-0.1,0.1-0.2C80.2,41.1,79.9,41.5,80.2,41.5z M68.1,12.6c0-0.1,0-0.1,0-0.2c-0.1,0-0.2,0-0.2,0.1
			C68,12.7,68.1,12.7,68.1,12.6z M98.1,7.2c0.2,0,0.2,0,0.2-0.2C98.2,6.9,98,7,98.1,7.2z M94.9,3.8c0-0.1-0.1-0.1-0.2,0
			c0,0,0,0.1,0,0.2C94.8,3.9,94.8,3.8,94.9,3.8z M84,6.4c0.1-0.1,0.3-0.2,0.2-0.4c-0.3-0.2-0.8,0-1.3-0.1c-0.4-0.5-0.8-0.5-0.8,0.3
			C82.6,6.7,83.5,6,84,6.4z M78.9,10c0.2-0.1,0.4,0,0.5-0.3c-0.1-0.1-0.3-0.3-0.5-0.3c-0.2,0-0.3,0.2-0.5,0.4
			c-0.3,0.2-0.5,0.2-0.6,0.5C78.2,10.4,78.6,10.1,78.9,10z M78.7,7.5c0.2,0,0.4,0.1,0.5-0.2c-0.1-0.7-1-0.3-1.5-0.3
			c-0.1,0.2-0.3,0.4-0.3,0.7C77.8,8,78.3,7.6,78.7,7.5z M87.3,42.9c0.2,0,0.2-0.6-0.1-0.6C86.9,42.4,87.1,42.9,87.3,42.9z"/>
		<path class="st3" d="M68.1,12.5c0,0.1,0,0.1,0,0.2c-0.1,0.1-0.2,0.1-0.2,0C67.9,12.4,68,12.5,68.1,12.5z"/>
		<path class="st3" d="M67.2,14.5c-0.1,0.2-0.2,0.4-0.4,0.5c-0.1-0.1-0.1-0.1-0.2-0.2C66.7,14.4,67.1,14.1,67.2,14.5z"/>
	</g>
</g>
<path class="st4" d="M76.8,22.3c0-1.7-1.8-2.9-3.7-2c-0.5,0.2-0.8,0.6-1,0.9c-0.5,0.9-0.3,2,0.2,2.8l1.5,3.8c0.2,0.6,1,0.6,1.2,0
	l1.5-3.8C76.9,23,76.8,22.3,76.8,22.3z M75.1,23.8c-1.3,0.7-2.6-0.6-1.8-2c0.1-0.2,0.3-0.4,0.4-0.5c1.3-0.7,2.6,0.6,1.8,2
	C75.3,23.6,75.3,23.7,75.1,23.8z"/>
<path class="st4" d="M132,38.8c0-1.7-1.8-2.9-3.7-2c-0.5,0.2-0.8,0.6-1,0.9c-0.5,0.9-0.3,2,0.2,2.8l1.5,3.8c0.2,0.6,1,0.6,1.2,0
	l1.5-3.8C132,39.4,132,38.8,132,38.8z M130.2,40.3c-1.3,0.7-2.6-0.6-1.8-2c0.1-0.2,0.3-0.4,0.4-0.5c1.3-0.7,2.6,0.6,1.8,2
	C130.5,40,130.3,40.2,130.2,40.3z"/>
<path class="st4" d="M167.2,20c0-1.7-1.8-2.9-3.7-2c-0.5,0.2-0.8,0.6-1,0.9c-0.5,0.9-0.3,2,0.2,2.8l1.5,3.8c0.2,0.6,1,0.6,1.2,0
	l1.5-3.8C167.2,20.7,167.2,20,167.2,20z M165.3,21.6c-1.3,0.7-2.6-0.6-1.8-2c0.1-0.2,0.3-0.4,0.4-0.5c1.3-0.7,2.6,0.6,1.8,2
	C165.7,21.3,165.5,21.5,165.3,21.6z"/>
<g>
	<g>
		<g>
			<g>
				<g>
					<g>
						<path class="st4" d="M68.1,109.6l-1.4-2.7l-5.1,2.6l2,4l0.3-0.1c1.4-0.6,7.3-3.4,8.1-4.1C73,108.3,68.1,109.6,68.1,109.6z"/>
					</g>
				</g>
				<g class="st5">
					<g>
						<path class="st6" d="M65.5,112.5c-0.3-0.4-0.7-0.7-1.2-0.8c-0.5-0.1-1,0-1.4,0.2l0.7,1.4L65.5,112.5z"/>
					</g>
				</g>
			</g>
			<g class="st7">
				<g>
					<path class="st6" d="M70.5,109c0,0,1.7-0.3,1.7,0c-0.1,0.3-5.9,3.3-8.6,4.4v-0.1l6.8-3.4C70.4,109.9,70.2,109.2,70.5,109z"/>
				</g>
			</g>
			<g>
				<g>
					<g>
						<path class="st2" d="M63.5,113.4C63.5,113.4,63.5,113.3,63.5,113.4c0.2-0.1,0.3-0.1,0.4-0.1c0.3-0.1,0.6-0.3,0.9-0.4
							c0.8-0.4,1.9-0.9,3.1-1.5s2.3-1.2,3-1.6c0.4-0.2,0.7-0.4,0.9-0.5c0.1-0.1,0.2-0.1,0.2-0.1c0.1,0,0.1-0.1,0.1-0.1s0,0-0.1,0
							s-0.2,0.1-0.3,0.1c-0.2,0.1-0.6,0.3-0.9,0.5c-0.8,0.4-1.9,1-3,1.6c-1.2,0.6-2.3,1.1-3.1,1.5c-0.4,0.2-0.7,0.3-0.9,0.5
							C63.8,113.2,63.7,113.3,63.5,113.4C63.5,113.3,63.5,113.4,63.5,113.4z"/>
					</g>
				</g>
			</g>
			<g>
				<g>
					<g>
						<path class="st2" d="M70.5,110c0,0-0.1-0.2-0.1-0.5s0.2-0.5,0.1-0.5c0,0-0.2,0.2-0.2,0.5S70.4,110,70.5,110z"/>
					</g>
				</g>
			</g>
			<g>
				<g>
					<g>
						<ellipse class="st2" cx="68.6" cy="109.7" rx="0" ry="0.3"/>
					</g>
				</g>
			</g>
			<g>
				<g>
					<g>
						<ellipse class="st2" cx="68.1" cy="109.8" rx="0" ry="0.2"/>
					</g>
				</g>
			</g>
			<g>
				<g>
					<g>
						<ellipse class="st2" cx="67.8" cy="109.5" rx="0" ry="0.3"/>
					</g>
				</g>
			</g>
			<g>
				<g>
					<g>
						<path class="st2" d="M67.3,109.3c0,0,0.2,0,0.3-0.1c0.2-0.1,0.3-0.2,0.3-0.2s-0.1,0.1-0.3,0.1
							C67.4,109.3,67.3,109.3,67.3,109.3z"/>
					</g>
				</g>
			</g>
			<g>
				<g>
					<g>
						<path class="st2" d="M68.5,109.5c0,0,0.1,0,0.3-0.2c0.1-0.1,0.2-0.1,0.3-0.3c0.1-0.1,0.1-0.1,0.2-0.2v-0.1
							c0-0.1-0.1-0.1-0.1-0.1c-0.4,0-0.6,0.3-0.7,0.6C68.5,109.3,68.6,109.4,68.5,109.5C68.6,109.5,68.6,109.5,68.5,109.5
							c0.1,0.1,0.1-0.1,0.1-0.3c0-0.1,0.1-0.2,0.2-0.3c0.1-0.1,0.3-0.2,0.4-0.2s0.1,0.1,0,0.1c0,0.1-0.1,0.1-0.1,0.2
							c-0.1,0.1-0.2,0.2-0.3,0.3C68.6,109.4,68.5,109.5,68.5,109.5z"/>
					</g>
				</g>
			</g>
			<g>
				<g>
					<g>
						<path class="st2" d="M68.6,109.4c0,0,0-0.1-0.1-0.2c0-0.1-0.1-0.1-0.2-0.2c-0.1,0-0.2-0.1-0.4,0c-0.1,0-0.1,0.2,0,0.2
							c0,0.1,0.1,0.1,0.1,0.1c0.1,0.1,0.2,0.1,0.3,0.1C68.5,109.5,68.6,109.5,68.6,109.4c0,0-0.1,0-0.3-0.1c-0.1,0-0.2-0.1-0.2-0.1
							c-0.1,0-0.2-0.2-0.1-0.2s0.2,0,0.3,0c0.1,0,0.2,0.1,0.2,0.2C68.6,109.3,68.6,109.4,68.6,109.4z"/>
					</g>
				</g>
			</g>
			<g>
				<g>
					<g>
						<path class="st2" d="M62.9,111.9c0,0,0.1-0.1,0.4-0.2c0.2-0.1,0.6-0.2,1-0.1s0.7,0.3,0.9,0.5c0.2,0.2,0.3,0.3,0.3,0.3
							s0,0-0.1-0.1c0-0.1-0.1-0.2-0.2-0.2c-0.2-0.2-0.5-0.4-0.9-0.5s-0.8,0-1,0.1C63.1,111.7,63.1,111.8,62.9,111.9L62.9,111.9z"/>
					</g>
				</g>
			</g>
			<g>
				<g>
					<g>
						
							<ellipse transform="matrix(0.8972 -0.4417 0.4417 0.8972 -42.3759 39.1602)" class="st2" cx="62.9" cy="110.6" rx="0" ry="1.2"/>
					</g>
				</g>
			</g>
			<g>
				<g>
					<g>
						<path class="st2" d="M65.9,111.6c0,0,0.4-0.1,0.8-0.3c0.4-0.2,0.7-0.4,0.7-0.4s-0.3,0.2-0.7,0.4
							C66.2,111.5,65.9,111.6,65.9,111.6z"/>
					</g>
				</g>
			</g>
			<g>
				<g>
					<g>
						<path class="st2" d="M64.9,112.1L64.9,112.1c0.2,0.2,0.2,0.2,0.2,0.2S65.1,112.2,64.9,112.1L64.9,112.1z"/>
					</g>
				</g>
			</g>
			<g>
				<g>
					<g>
						
							<ellipse transform="matrix(0.3166 -0.9486 0.9486 0.3166 -62.1328 137.5487)" class="st2" cx="64.4" cy="111.9" rx="0" ry="0.2"/>
					</g>
				</g>
			</g>
			<g>
				<g>
					<g>
						<path class="st2" d="M63.6,111.9c0,0,0.1,0,0.2,0c0.1,0,0.2,0,0.2,0s-0.1-0.1-0.2-0.1C63.6,111.8,63.6,111.9,63.6,111.9z"/>
					</g>
				</g>
			</g>
			<g>
				<g>
					<g>
						<ellipse class="st2" cx="63.3" cy="112" rx="0" ry="0.1"/>
					</g>
				</g>
			</g>
		</g>
	</g>
	<g>
		<g>
			<g>
				<g>
					<g>
						<path class="st4" d="M34.7,111.7l1.2-2.8l-5.2-2.3l-1.8,4.1l0.3,0.2c1.4,0.7,7.2,3.6,8.3,3.7
							C38.7,114.7,34.7,111.7,34.7,111.7z"/>
					</g>
				</g>
				<g class="st5">
					<g>
						<path class="st6" d="M30.8,111.5c0.1-0.5,0.1-1-0.2-1.4c-0.2-0.4-0.6-0.8-1.1-0.9l-0.6,1.5L30.8,111.5z"/>
					</g>
				</g>
			</g>
			<g class="st7">
				<g>
					<path class="st6" d="M36.6,113.2c0,0,1.4,1.1,1.1,1.3c-0.3,0.2-6.3-2.5-8.8-3.9l0.1-0.1l7,3.1
						C35.9,113.7,36.3,113.1,36.6,113.2z"/>
				</g>
			</g>
			<g>
				<g>
					<g>
						<path class="st2" d="M28.8,110.5C28.8,110.5,28.9,110.5,28.8,110.5c0.2,0.1,0.2,0.1,0.3,0.2c0.3,0.1,0.6,0.3,0.9,0.5
							c0.8,0.4,1.9,0.9,3.1,1.4s2.4,1,3.2,1.3c0.4,0.2,0.7,0.3,1,0.4c0.1,0,0.2,0.1,0.3,0.1s0.1,0,0.1,0s0,0-0.1,0s-0.2-0.1-0.3-0.1
							c-0.3-0.1-0.6-0.2-1-0.4c-0.8-0.3-1.9-0.8-3.2-1.4c-1.2-0.5-2.3-1.1-3.1-1.4c-0.4-0.2-0.7-0.3-0.9-0.4
							C29.1,110.6,29,110.6,28.8,110.5C28.9,110.5,28.8,110.5,28.8,110.5z"/>
					</g>
				</g>
			</g>
			<g>
				<g>
					<g>
						<path class="st2" d="M35.8,113.8c0,0,0.1-0.2,0.4-0.4c0.2-0.2,0.5-0.2,0.5-0.2s-0.3,0-0.5,0.2
							C35.9,113.5,35.8,113.8,35.8,113.8z"/>
					</g>
				</g>
			</g>
			<g>
				<g>
					<g>
						<ellipse class="st2" cx="34.9" cy="112.2" rx="0" ry="0.3"/>
					</g>
				</g>
			</g>
			<g>
				<g>
					<g>
						<ellipse class="st2" cx="34.5" cy="111.8" rx="0" ry="0.2"/>
					</g>
				</g>
			</g>
			<g>
				<g>
					<g>
						<ellipse transform="matrix(0.4146 -0.91 0.91 0.4146 -81.2187 96.6494)" class="st2" cx="34.5" cy="111.5" rx="0" ry="0.3"/>
					</g>
				</g>
			</g>
			<g>
				<g>
					<g>
						<path class="st2" d="M34.3,110.9c0,0,0.1,0.1,0.3,0.2s0.3,0.1,0.3,0.1s-0.1-0.1-0.3-0.2C34.5,111,34.3,110.9,34.3,110.9z"/>
					</g>
				</g>
			</g>
			<g>
				<g>
					<g>
						<path class="st2" d="M35,111.9c0,0,0.1,0.1,0.3,0.1c0.1,0,0.2,0.1,0.4,0.1c0.1,0,0.2,0,0.2,0s0.1,0,0.1-0.1c0,0,0-0.1,0-0.2
							c-0.2-0.3-0.7-0.3-0.8-0.2C35.2,111.8,35.1,111.9,35,111.9C35,112,35,112,35,111.9c0,0.1,0.1,0,0.3-0.1c0.1,0,0.2-0.1,0.4-0.1
							c0.1,0,0.3,0.1,0.4,0.2c0,0.1,0,0.1-0.1,0.1s-0.2,0-0.2,0c-0.1,0-0.3,0-0.4-0.1C35.2,112,35,111.9,35,111.9z"/>
					</g>
				</g>
			</g>
			<g>
				<g>
					<g>
						<path class="st2" d="M35.1,112c0,0,0.1-0.1,0.1-0.2s0-0.2,0-0.3c0-0.1-0.1-0.2-0.2-0.3c-0.1,0-0.2,0-0.2,0.1s0,0.1,0,0.2
							s0,0.2,0.1,0.3C35,111.9,35.1,112,35.1,112s-0.1-0.1-0.1-0.3c0-0.1,0-0.2-0.1-0.3c0-0.1,0-0.2,0.1-0.2s0.1,0.2,0.2,0.2
							c0,0.1,0,0.2,0,0.3C35.2,111.9,35.1,112,35.1,112z"/>
					</g>
				</g>
			</g>
			<g>
				<g>
					<g>
						<path class="st2" d="M29.6,109.1c0,0,0.2,0.1,0.4,0.2c0.2,0.1,0.5,0.4,0.7,0.7c0.2,0.4,0.2,0.7,0.2,1s-0.1,0.4-0.1,0.4
							s0,0,0-0.1s0.1-0.2,0.1-0.3c0-0.3,0-0.6-0.2-1s-0.5-0.6-0.7-0.7c-0.1-0.1-0.2-0.1-0.3-0.1C29.6,109.1,29.6,109.1,29.6,109.1z"
							/>
					</g>
				</g>
			</g>
			<g>
				<g>
					<g>
						<ellipse class="st2" cx="30.6" cy="108.3" rx="0" ry="1.2"/>
					</g>
				</g>
			</g>
			<g>
				<g>
					<g>
						<path class="st2" d="M31.7,111.2c0,0,0.3,0.2,0.7,0.4c0.4,0.2,0.8,0.3,0.8,0.3s-0.3-0.1-0.8-0.3
							C32,111.4,31.7,111.2,31.7,111.2z"/>
					</g>
				</g>
			</g>
			<g>
				<g>
					<g>
						<path class="st2" d="M30.6,110.8c0,0,0,0.1,0,0.2s0,0.2,0,0.2s0.1-0.1,0.1-0.2S30.7,110.8,30.6,110.8z"/>
					</g>
				</g>
			</g>
			<g>
				<g>
					<g>
						
							<ellipse transform="matrix(0.9351 -0.3544 0.3544 0.9351 -37.1139 17.971)" class="st2" cx="30.5" cy="110.3" rx="0" ry="0.2"/>
					</g>
				</g>
			</g>
			<g>
				<g>
					<g>
						<path class="st2" d="M30,109.7c0,0,0.1,0,0.1,0.1c0.1,0.1,0.1,0.1,0.1,0.1s0-0.1-0.1-0.2H30z"/>
					</g>
				</g>
			</g>
			<g>
				<g>
					<g>
						
							<ellipse transform="matrix(0.7075 -0.7067 0.7067 0.7075 -68.6936 53.0459)" class="st2" cx="29.7" cy="109.5" rx="0" ry="0.1"/>
					</g>
				</g>
			</g>
		</g>
	</g>
	<g>
		<g>
			<path class="st8" d="M59.8,59.2c0.2,0.1,0.5,0.1,0.8,0.2s0.6,0.1,0.8,0c0.3,0,0.8-0.1,1-0.2c0.3-0.1,0.6,0.1,0.5,0.4
				S62,60.3,61,60.3s0.3,1,0.7,1.4c0.5,0.4,1.9,1.5,1.9,1.8s-0.4,0.4-0.8,0c-0.5-0.4-1.9-1.4-2.1-1.1c-0.2,0.3,2.2,2,2.2,2
				s0.6,0.3,0.4,0.6c-0.3,0.5-2.8-1.5-3-1.7c-0.2-0.1-0.4,0.1-0.2,0.3c0.2,0.1,2.4,1.7,2.1,2.3c-0.3,0.4-2-1.7-2.6-1.8
				C59,64,61.1,65.6,60.8,66c-0.1,0.1-0.2,0.2-1.3-0.8c-0.5-0.5-1.4-1.6-2.1-2.5l0,0c0,0-4.5-3.9-6.9-8.3c0,0-2.4-7.2-2.8-10.9
				l5.3-1.1c0,0,1.2,7.2,2.1,9.5C55.9,54.1,59.8,59.2,59.8,59.2z"/>
		</g>
	</g>
	<g>
		<g>
			<path class="st3" d="M40.1,36.1h-4.9c-1.8,0-3.3-1.5-3.3-3.3l0,0c0-1.8,1.5-3.3,3.3-3.3h4.9c1.8,0,3.3,1.5,3.3,3.3l0,0
				C43.4,34.6,41.9,36.1,40.1,36.1z"/>
			<g>
				<path class="st2" d="M36.9,35.5c0,0,0.5-0.1,1.1-0.7c0.3-0.3,0.6-0.6,0.8-1.1s0.3-1,0.3-1.6c-0.1-0.6-0.3-1.1-0.7-1.5
					c-0.3-0.4-0.7-0.7-1-0.9c-0.7-0.4-1.2-0.4-1.2-0.4s0.1,0,0.3,0s0.5,0.1,0.9,0.3s0.8,0.5,1.1,0.9s0.6,1,0.7,1.6
					c0.1,0.6-0.1,1.2-0.3,1.7s-0.6,0.9-0.9,1.1c-0.3,0.3-0.6,0.4-0.8,0.5C37,35.5,36.9,35.5,36.9,35.5z"/>
			</g>
			<g>
				<path class="st2" d="M40.3,32.2c0,0-0.3,0-0.7,0.1c-0.4,0-0.7,0.1-0.7,0c0,0,0.3-0.2,0.7-0.2C40,32,40.3,32.1,40.3,32.2z"/>
			</g>
			<g>
				<path class="st2" d="M40.4,32.6c0,0-0.3,0-0.6,0.1s-0.6,0.1-0.6,0.1s0.2-0.2,0.6-0.3C40.2,32.5,40.4,32.6,40.4,32.6z"/>
			</g>
		</g>
		<g>
			<path class="st2" d="M39.9,36.1c-1.3-0.3-2.6-0.7-3.9-0.7c-1.3-0.1-2.7,0.2-3.8,1c-1.7,1.2-2.4,3.3-2.8,5.3
				c-0.7,3.7-0.6,7.5-0.6,11.3c0,1.6,0.1,3.3,1,4.6c1.3,1.8,3.7,2.3,5.9,2c2.2-0.2,4.3-1,6.4-1.2"/>
			<g>
				<path class="st3" d="M36.6,42.9c0,0-0.1,0.1-0.2,0.3c-0.2,0.2-0.4,0.4-0.7,0.6c-0.7,0.5-1.6,1.1-2.8,1.6
					c-0.6,0.3-1.1,0.5-1.6,0.7s-1,0.3-1.4,0.3c-0.1,0-0.2,0-0.3,0c-0.1,0-0.2-0.1-0.3-0.1C29.1,46.2,29,46,28.9,46
					c-0.1-0.2-0.2-0.3-0.2-0.3s0.1,0.1,0.2,0.3c0.1,0.1,0.2,0.2,0.3,0.3c0.1,0.1,0.3,0.1,0.5,0.1c0.4,0,0.9-0.2,1.4-0.3
					c0.5-0.2,1-0.4,1.6-0.7c1.1-0.5,2.1-1.1,2.8-1.5C36.2,43.3,36.5,42.9,36.6,42.9z"/>
			</g>
			<path class="st2" d="M28.9,47.2c-1.6,1.4-2.2,3.9-1.3,5.9c0.1,0.3,0.3,0.6,0.6,0.8c0.3,0.2,0.7,0.2,0.9,0
				c0.2-0.2,0.3-0.5,0.3-0.8c0.1-1.2,0.2-2.5,0.3-3.7c0.1-0.7,0.1-1.6-0.5-2.1"/>
		</g>
	</g>
	<g>
		<g>
			<path class="st2" d="M28.6,108.7l6.6,3l11.8-21c1.5-5.5,3-25,3-25l-8.5,0.7c0,0-1.3,14-3.4,21.2L28.6,108.7z"/>
			<g>
				<path class="st3" d="M36.2,109.7c0,0-0.4-0.1-1-0.4s-1.4-0.6-2.4-1.1c-0.9-0.4-1.7-0.8-2.3-1.1c-0.6-0.3-1-0.5-1-0.5
					s0.4,0.1,1,0.4s1.4,0.6,2.4,1.1c0.9,0.4,1.7,0.8,2.3,1.1C35.8,109.5,36.2,109.7,36.2,109.7z"/>
			</g>
		</g>
		<g>
			<path class="st2" d="M37.5,57.9c-0.2,0-1.9,5.2-0.2,8.6c0.2,0.3,1.5,2.2,1.5,2.2c4.6,5.5,9.3,16.1,10.7,18.9
				c2.7,5.7,12.6,24.6,12.6,24.6l6.4-3.7l-9.3-24l-8.5-21.6L37.5,57.9z"/>
			<g>
				<path class="st3" d="M41.6,71.9c0,0,0.1,0.2,0.3,0.5s0.4,0.8,0.6,1.3c0.5,1.1,1.3,2.7,2.2,4.4c0.8,1.7,1.6,3.3,2.1,4.4
					c0.3,0.6,0.5,1,0.6,1.4c0.1,0.3,0.2,0.5,0.2,0.5s-0.1-0.2-0.3-0.5s-0.4-0.8-0.6-1.3c-0.5-1.1-1.3-2.7-2.2-4.4
					c-0.8-1.7-1.6-3.3-2.1-4.4c-0.3-0.6-0.5-1-0.6-1.4C41.6,72.1,41.6,71.9,41.6,71.9z"/>
			</g>
			<g>
				
					<ellipse transform="matrix(0.8938 -0.4485 0.4485 0.8938 -42.0353 40.5454)" class="st3" cx="64.6" cy="109" rx="3.7" ry="0.1"/>
			</g>
		</g>
	</g>
	<g>
		<ellipse transform="matrix(0.9946 -0.1039 0.1039 0.9946 -11.5175 1.6942)" class="st2" cx="10.5" cy="111.4" rx="1.8" ry="1.8"/>
		<polygon class="st3" points="10.9,111.4 12.1,109.1 11.5,108.7 10.3,111.1 		"/>
		<polygon class="st3" points="23.3,81.2 31,63.4 32.3,64.1 24.8,81.7 		"/>
		<path class="st4" d="M15.2,111l-8-3.6c-0.5-0.2-0.7-0.8-0.5-1.3l10.5-23.6c1.2-2.7,4.4-3.9,7.1-2.7l0,0c2.7,1.2,3.9,4.4,2.7,7.1
			l-10.5,23.6C16.3,111,15.7,111.3,15.2,111z"/>
		<polygon class="st2" points="29,68 30.4,68.6 32.4,64.1 31,63.4 		"/>
		<g>
			<path class="st2" d="M16.4,110.9c0,0,0-0.1,0.1-0.2c0-0.1,0.1-0.3,0.2-0.4c0.2-0.4,0.4-1,0.7-1.7c0.7-1.5,1.6-3.6,2.7-6.3
				c1.2-2.7,2.6-5.8,4.1-9.3c0.8-1.8,1.6-3.6,2.4-5.5c0.2-0.5,0.4-1,0.6-1.4c0.2-0.5,0.3-1,0.3-1.5c-0.1-1-0.8-2-1.8-2.5
				c-1-0.4-2.2-0.3-3,0.4c-0.4,0.3-0.7,0.7-0.9,1.2c-0.2,0.5-0.4,1-0.6,1.4c-0.8,1.9-1.7,3.7-2.4,5.5c-1.6,3.5-2.9,6.7-4.1,9.3
				c-1.2,2.6-2.1,4.8-2.8,6.3c-0.3,0.7-0.6,1.3-0.8,1.7c-0.1,0.2-0.2,0.3-0.2,0.4s-0.1,0.1-0.1,0.1s0-0.1,0.1-0.2
				c0-0.1,0.1-0.3,0.2-0.4c0.2-0.4,0.4-1,0.7-1.7c0.7-1.5,1.6-3.6,2.7-6.3c1.2-2.7,2.6-5.8,4.1-9.3c0.8-1.8,1.6-3.6,2.4-5.5
				c0.2-0.5,0.4-1,0.6-1.4c0.2-0.5,0.6-1,1-1.3c0.9-0.7,2.1-0.9,3.2-0.4c1,0.5,1.8,1.5,1.9,2.6c0,0.5-0.1,1.1-0.3,1.6
				c-0.2,0.5-0.4,1-0.6,1.4c-0.8,1.9-1.7,3.7-2.4,5.5c-1.6,3.5-2.9,6.7-4.1,9.3c-1.2,2.6-2.1,4.8-2.8,6.3c-0.3,0.7-0.6,1.3-0.8,1.7
				c-0.1,0.2-0.2,0.3-0.2,0.4C16.5,110.9,16.4,110.9,16.4,110.9z"/>
		</g>
		<g>
			
				<ellipse transform="matrix(0.3881 -0.9216 0.9216 0.3881 -75.1151 70.4289)" class="st2" cx="15.5" cy="91.8" rx="0.1" ry="2.2"/>
		</g>
	</g>
	<g>
		<path class="st4" d="M49.4,34.7c0,0,3.9,0.1,4.7,7.5l0.2,4.5l-1.8,0.8l-3.4-12.6"/>
		<path class="st4" d="M42,34.6c0,0-1.7,0.1-3.4,3.3c-1.4,2.6-2.2,24.9-2.2,24.9l16.2,0.5c0,0-0.1-5.1,0-11.5
			c0.2-10.5,0.3-15.2-2.6-17.2C48.2,33.5,45.3,33.5,42,34.6z"/>
		<g>
			
				<ellipse transform="matrix(0.9997 -2.344660e-02 2.344660e-02 0.9997 -1.0688 1.2436)" class="st2" cx="52.5" cy="46.2" rx="0.1" ry="5.1"/>
		</g>
		<path class="st2" d="M52.5,43.5c0,0,0.6-5.2-0.9-7.7c0,0,1,1,1.3,1.9c0.4,0.8,0.8,4.8-0.4,7l0.1-1.1"/>
		<g>
			<path class="st9" d="M52.3,40.5c0,0,0,0.1-0.2,0.2c-0.1,0.1-0.4,0.3-0.7,0.4c-0.3,0.1-0.8,0.1-1.2,0.1c-0.5-0.1-0.9-0.3-1.4-0.5
				s-0.9-0.4-1.4-0.6C47,40,46.6,39.9,46.2,40c-0.7,0-1,0.4-1,0.3c0,0,0.1-0.1,0.2-0.2c0.2-0.1,0.4-0.2,0.8-0.3c0.4,0,0.8,0,1.2,0.1
				s0.9,0.3,1.4,0.6c0.5,0.2,0.9,0.4,1.4,0.5c0.4,0.1,0.8,0.1,1.2,0C52,40.9,52.3,40.5,52.3,40.5z"/>
		</g>
		<g>
			<path class="st9" d="M39.4,51.5c0,0-0.6-0.1-1.3,0s-1.2,0.5-1.2,0.4c0,0,0.4-0.5,1.2-0.6C38.8,51.2,39.4,51.5,39.4,51.5z"/>
		</g>
		<g>
			<path class="st9" d="M52.2,52.5c0,0-0.2-0.1-0.5-0.1s-0.7,0-1.3,0.1c-0.5,0.1-1.1,0.4-1.8,0.6s-1.5,0.4-2.3,0.4
				c-1.7,0.1-3.2-0.4-4.2-0.9c-0.2-0.1-0.5-0.2-0.7-0.3s-0.3-0.2-0.5-0.3c-0.2-0.2-0.4-0.3-0.4-0.3s0.5,0.4,1.5,0.8
				c1,0.4,2.5,0.9,4.1,0.8c0.8,0,1.6-0.2,2.3-0.4c0.7-0.2,1.3-0.5,1.8-0.6s1-0.1,1.3-0.1c0.2,0,0.3,0.1,0.3,0.1
				C52.2,52.5,52.2,52.5,52.2,52.5z"/>
		</g>
		<g>
			<path class="st9" d="M52.4,60.6c0,0-0.2-0.1-0.6-0.1c-0.4,0-1,0.1-1.7,0.4c-0.3,0.2-0.7,0.3-1.1,0.5c-0.4,0.2-0.9,0.3-1.4,0.3
				c-1,0.1-2.1-0.2-3.2-0.5c-1.1-0.4-2.1-0.8-3.1-1s-1.9-0.3-2.6-0.1c-0.7,0.1-1.3,0.4-1.6,0.6s-0.5,0.4-0.5,0.4s0,0,0.1-0.1
				s0.2-0.2,0.4-0.3c0.3-0.3,0.9-0.6,1.6-0.7c0.4-0.1,0.8-0.1,1.2-0.1s0.9,0.1,1.4,0.2c1,0.2,2,0.6,3.1,1s2.2,0.6,3.1,0.5
				c0.5,0,0.9-0.1,1.4-0.3c0.4-0.1,0.8-0.3,1.1-0.5c0.7-0.3,1.3-0.4,1.7-0.4c0.2,0,0.4,0.1,0.5,0.1C52.3,60.5,52.4,60.6,52.4,60.6z"
				/>
		</g>
	</g>
	<g>
		<g>
			<g>
				<g>
					<path class="st8" d="M30.4,64.7c0.2-0.8,0.7-1.9,1.4-1.1c0.7,0.7,1.5,1,1.8,1c0.3-0.1,0.3-0.5,0-0.6c-0.2-0.1-0.6-0.4-0.8-0.6
						s-0.4-0.4-0.5-0.6c-0.2-0.3-0.3-0.5-0.4-0.7c0,0,1.4-6.3,2.5-8.5c1.1-2.3,5.8-7.8,5.8-7.8l-4.3-3.3c-2.5,2.7-6.4,9.3-6.4,9.3
						c-1.8,4.7-1.8,10.7-1.8,10.7l0,0c-0.1,0.4-0.1,0.6-0.2,0.9c-0.3,1.4,0.6,3.3,2,3.7L30.4,64.7"/>
					<g>
						<path class="st10" d="M29.7,66.4c0,0-0.2-0.1-0.4-0.3C29.1,65.9,29,65.5,29,65s0-0.9,0-1.2c0-0.3,0-0.5,0-0.5s0.1,0.2,0.1,0.5
							s0,0.7,0,1.2c0,0.4,0.2,0.8,0.3,1.1C29.6,66.3,29.8,66.4,29.7,66.4z"/>
					</g>
					<g>
						<path class="st10" d="M29.5,66.9c0,0-0.2,0-0.4-0.1c-0.2-0.2-0.5-0.5-0.6-0.9c-0.4-0.8-0.4-1.4-0.4-1.4s0.2,0.6,0.5,1.4
							c0.2,0.4,0.3,0.7,0.5,0.8C29.3,66.8,29.5,66.9,29.5,66.9z"/>
					</g>
				</g>
			</g>
			<path class="st4" d="M41.8,34.7C41.4,34.9,37,36,34.7,40L32,44.1l7.7,4.8l4.1-10.2L41.8,34.7z"/>
			<path class="st2" d="M36.7,36.6c0,0,7.8-1,7.3,5.1c-0.5,6.2-9.3,15.1-9.3,15.1l-0.2,2.3c0,0,7.8-7.6,9.5-12.5
				c1.7-4.8,2.7-10.9-4.9-10.9L36.7,36.6z"/>
		</g>
		<g>
			<path class="st2" d="M32.3,44.3c0,0,0.1,0,0.2,0.1c0.1,0.1,0.3,0.1,0.4,0.2c0.4,0.2,0.9,0.5,1.5,0.9c1.3,0.8,3.1,1.9,5.1,3l0,0
				l0,0l0,0l0,0l0,0c0,0,0,0,0.1-0.1c0-0.1,0.1-0.1,0.1-0.2c0.1-0.1,0.1-0.2,0.2-0.4c0.1-0.2,0.3-0.5,0.4-0.7c0.2-0.5,0.5-1,0.7-1.4
				c0.4-0.9,0.8-1.7,1.1-2.4s0.5-1.2,0.7-1.6c0.1-0.2,0.1-0.3,0.2-0.4c0-0.1,0.1-0.2,0.1-0.2s0,0.1,0,0.2c0,0.1-0.1,0.3-0.2,0.5
				c-0.1,0.4-0.4,1-0.7,1.7s-0.7,1.5-1.1,2.4c-0.2,0.5-0.4,0.9-0.7,1.4c-0.1,0.2-0.2,0.5-0.4,0.7c-0.1,0.1-0.1,0.2-0.2,0.4
				c0,0.1-0.1,0.1-0.1,0.2c0,0,0,0.1-0.1,0.1c0,0,0,0-0.1,0c0,0,0,0-0.1,0h-0.1l0,0l0,0c-2-1.2-3.7-2.3-5.1-3.1
				c-0.6-0.4-1.1-0.7-1.5-0.9c-0.2-0.1-0.3-0.2-0.4-0.3C32.3,44.3,32.3,44.3,32.3,44.3z"/>
		</g>
		<g>
			<path class="st9" d="M44.1,40.5c0,0-0.1,0.1-0.3,0.2c-0.2,0.2-0.5,0.4-0.9,0.7s-1,0.4-1.6,0.3c-0.3-0.1-0.6-0.2-0.9-0.4
				c-0.3-0.2-0.5-0.5-0.7-0.8s-0.4-0.6-0.6-0.8c-0.2-0.2-0.5-0.4-0.8-0.6c-0.5-0.3-1.1-0.3-1.6-0.3c-0.9,0.1-1.4,0.5-1.4,0.4
				c0,0,0,0,0.1-0.1c0.1,0,0.1-0.1,0.3-0.2c0.2-0.1,0.6-0.3,1.1-0.3s1.1,0,1.6,0.3c0.3,0.1,0.6,0.3,0.8,0.6c0.2,0.2,0.5,0.5,0.7,0.8
				s0.4,0.6,0.7,0.8s0.5,0.4,0.8,0.4c0.6,0.1,1.2,0,1.6-0.2c0.4-0.2,0.7-0.5,0.9-0.6C44,40.6,44.1,40.5,44.1,40.5z"/>
		</g>
	</g>
	<g>
		<g>
			<g>
				<g>
					<g>
						<g>
							<path class="st8" d="M46.5,37.3L46.5,37.3c1.6,0,2.9-1.4,2.7-3c-0.1-0.9-0.2-1.6-0.2-1.6s2.2-0.3,2.2-2.5S50.8,23,50.8,23
								l0,0c-2.5-1.1-5.4-0.7-7.6,1L43,24.1l0.8,10.6C43.8,36.1,45,37.3,46.5,37.3z"/>
						</g>
						<g>
							<g>
								
									<ellipse transform="matrix(0.4098 -0.9122 0.9122 0.4098 5.8834 61.5487)" class="st2" cx="50.5" cy="26.2" rx="0.3" ry="0.3"/>
							</g>
							<g>
								<g>
									<path class="st2" d="M50.9,26c0,0-0.3,0-0.6,0c-0.3,0.1-0.4,0.3-0.5,0.3c0,0,0-0.1,0.1-0.2c0.1-0.1,0.2-0.2,0.4-0.3
										s0.4,0,0.5,0C50.8,25.9,50.9,26,50.9,26z"/>
								</g>
							</g>
						</g>
						<g>
							<g>
								
									<ellipse transform="matrix(0.5239 -0.8518 0.8518 0.5239 -2.504900e-02 53.1363)" class="st2" cx="47.5" cy="26.6" rx="0.3" ry="0.3"/>
							</g>
							<g>
								<g>
									<path class="st2" d="M47.7,26.4c0,0-0.3,0-0.6,0.1s-0.4,0.4-0.5,0.3c0,0,0-0.1,0-0.2c0.1-0.1,0.2-0.2,0.3-0.3
										c0.2-0.1,0.3-0.1,0.5,0C47.7,26.3,47.8,26.4,47.7,26.4z"/>
								</g>
							</g>
						</g>
						<g>
							<g>
								<path class="st2" d="M48.9,28.9c0,0,0.2-0.1,0.5-0.1c0.1,0,0.1,0,0.1-0.1c0,0,0-0.1-0.1-0.2c-0.1-0.2-0.2-0.4-0.2-0.6
									c-0.3-0.9-0.6-1.6-0.5-1.6c0,0,0.3,0.7,0.7,1.5c0.1,0.2,0.2,0.4,0.2,0.6c0,0.1,0.1,0.2,0,0.3c0,0.1-0.1,0.1-0.1,0.1
									c-0.1,0-0.1,0-0.1,0C49,28.9,48.9,28.9,48.9,28.9z"/>
							</g>
						</g>
						<g>
							<path class="st6" d="M47.9,29.2c-0.3-0.2,0.9,0.5,1.5,0.4c0,0-0.3,0.6-1,0.3C47.7,29.8,47.9,29.2,47.9,29.2z"/>
						</g>
						<g>
							<path class="st10" d="M49,32.6c0,0-1.4,0.1-2.8-0.8c0,0,0.7,1.6,2.8,1.4V32.6z"/>
						</g>
					</g>
				</g>
				<g>
					<g>
						<path class="st8" d="M43,26.2c0,0-1.6-0.1-1.4,1.7c0.3,1.8,2,1,2,0.9C43.6,28.8,43,26.2,43,26.2z"/>
					</g>
					<g>
						<g>
							<path class="st10" d="M43,28.3C43,28.3,42.9,28.3,43,28.3c-0.1,0.1-0.2,0.1-0.3,0.1c-0.2,0-0.4-0.3-0.5-0.7
								c0-0.2,0-0.3,0-0.5c0-0.1,0.1-0.2,0.2-0.3c0.1,0,0.2,0,0.2,0.1v0.1c0,0,0,0,0-0.1c0,0,0-0.1-0.1-0.1c0,0-0.1,0-0.2,0
								c-0.1,0-0.2,0.2-0.3,0.3c-0.1,0.2-0.1,0.3,0,0.5c0.1,0.4,0.3,0.7,0.6,0.7C42.8,28.5,42.9,28.4,43,28.3L43,28.3z"/>
						</g>
					</g>
				</g>
			</g>
			<path class="st2" d="M42,24.2c0,0.6,0.5,1.2,0.7,1.8l0,0v0.4l0.6,2.1l0.9-0.4l-0.4-3.5c0,0-0.2-1.4,1-1.3c1.2,0,2.9,1.3,5.1,0.8
				c0.4-0.1,0.7-0.1,1-0.4c0.3-0.2,0.5-0.6,0.4-1s-0.5-0.7-0.8-0.6c0.5,0,0.9-0.6,0.7-1.1c-0.2-0.5-0.8-0.7-1.2-0.4
				c0.2-0.2,0.5-0.5,0.6-0.8s0.1-0.7-0.2-0.9c-0.3-0.2-0.6-0.1-0.9,0c-0.4,0.2-0.8,0.6-1.2,0.8c-0.5,0.2-1,0.1-1.5,0.2
				c-0.6,0.1-1.1,0.3-1.5,0.6c-0.4,0.4-0.7,0.9-0.6,1.5c-0.7,0-1.4,0-2,0.4C42.7,22.5,42,23.1,42,24.2z"/>
		</g>
		<g>
			<path class="st2" d="M47.5,25.3c0,0.1-0.3,0.1-0.7,0.2c-0.3,0.1-0.5,0.4-0.6,0.3c0,0,0-0.1,0-0.3c0.1-0.1,0.2-0.3,0.5-0.4
				c0.2-0.1,0.4-0.1,0.6,0C47.5,25.2,47.5,25.3,47.5,25.3z"/>
		</g>
		<g>
			<path class="st2" d="M50.6,24.9c0,0.1-0.3,0.1-0.5,0.2c-0.2,0.1-0.4,0.2-0.5,0.1c0,0,0-0.1,0-0.2c0.1-0.1,0.2-0.2,0.4-0.3
				s0.3,0,0.4,0C50.5,24.8,50.6,24.8,50.6,24.9z"/>
		</g>
		<path class="st2" d="M43.9,27.1c0.2-0.4,0.6-0.6,0.7-1c0.1-0.2,0.1-0.4,0-0.7c-0.1-0.7-0.1-1.5-0.2-2.2c0-0.1,0-0.1-0.1-0.2
			c-0.1-0.1-0.2,0-0.3,0c-0.4,0.2-0.7,0.7-0.8,1.1c-0.1,0.5-0.1,1,0,1.4C43.4,26.1,43.6,26.6,43.9,27.1"/>
	</g>
	<g class="st11">
		<path d="M36.9,51.4c0-0.6,0.6-0.9,1.2-1c0.6,0,1.3,0.3,1.7,0c0.8-0.5,1.2-1.8,1.5-2.6c0.7-2,1.1-3.5,1.4-5.6
			c-1.1,2.2-2.1,4.3-3.2,6.5L38.3,48c-0.3,0.2-1,1.1-1.1,1.6s-0.1,1.1-0.2,1.6"/>
	</g>
</g>
</svg>
