<?xml version="1.0" encoding="utf-8"?>
<!-- Generator: Adobe Illustrator 25.0.1, SVG Export Plug-In . SVG Version: 6.00 Build 0)  -->
<svg version="1.1" id="Layer_1" xmlns="http://www.w3.org/2000/svg" xmlns:xlink="http://www.w3.org/1999/xlink" x="0px" y="0px"
	 viewBox="0 0 300 140" style="enable-background:new 0 0 300 140;" xml:space="preserve">
<style type="text/css">
	.st0{fill:none;}
	.st1{fill:#D1A586;}
	.st2{fill:#E5BD9E;}
	.st3{fill:#DFB697;}
	.st4{fill:#A0795F;}
	.st5{fill:#FFB27D;}
	.st6{fill:#1C468A;}
	.st7{fill:#C65447;}
	.st8{fill:#163560;}
	.st9{fill:#6BB7BF;}
	.st10{fill:#F4A269;}
	.st11{fill:#599DAD;}
	.st12{fill:#C69D7F;}
	.st13{fill:#E0B594;}
	.st14{fill:#D86713;}
	.st15{fill:#F1A34F;}
	.st16{fill:#E78B37;}
	.st17{fill:#EE9849;}
	.st18{fill:#699DEE;}
	.st19{fill:#E9F3FE;}
	.st20{fill:#AFCDFB;}
	.st21{fill:#E49963;}
	.st22{fill:#E58638;}
	.st23{fill:#3F4293;}
	.st24{fill:#5D4BC9;}
	.st25{fill:#6B6BED;}
	.st26{fill:#FFFFFF;}
	.st27{fill:#E8EAEC;}
	.st28{fill:#FFB872;}
	.st29{fill:#FA7B4E;}
	.st30{fill:#EDEDED;}
	.st31{fill:#CAD6E3;}
	.st32{fill:#FF7F72;}
	.st33{fill:#FF9A8C;}
	.st34{fill:#070D1B;}
	.st35{fill:#1C3177;}
	.st36{fill:#006BB4;}
	.st37{fill:#AFAFF9;}
</style>
<rect class="st0" width="300" height="140"/>
<g>
	<g>
		<g>
			<path class="st1" d="M21.2,115.7c-0.1-3.2-0.4-6.1-0.8-8c-0.5-3.1-1-4.9-1.1-5c-0.1-0.3-1.1-1.4-3.4-1.4c-2.3,0-2.1,1.5-2.1,1.5
				l0,0c0,0,0,0.1,0,0.1c0,0.1,2.2,7.7,2.1,17.6c0,0.1,0,0.4,0,0.5c0,0,5.4,0.1,5.4,0C21.4,120.3,21.4,117.9,21.2,115.7z"/>
			<path class="st2" d="M21.8,120.5c0,0.1-0.1,0.2-0.2,0.2h0c-0.1,0-0.2-0.1-0.2-0.2h-4.6c0,0.1-0.1,0.2-0.2,0.2h0
				c-0.1,0-0.2-0.1-0.2-0.3c0-2.8-0.1-5.5-0.4-7.8c-0.6-5.8-1.7-9.7-1.8-9.7c0,0,0-0.1,0-0.1c0,0-0.2-1.5,2.1-1.5
				c2.3,0,3.4,1.1,3.4,1.4c0,0,0.3,1,0.7,2.9c0.1,0.6,0.3,1.3,0.4,2.1c0.3,2,0.6,4.8,0.8,8C22,117.9,22,119.7,21.8,120.5z"/>
			<path class="st3" d="M21.8,120.5c0,0.1-0.1,0.2-0.2,0.2h0c-0.1,0-0.2-0.1-0.2-0.2h-4.6c0,0.1-0.1,0.2-0.2,0.2h0
				c-0.1,0-0.2-0.1-0.2-0.3c0-2.8-0.1-5.5-0.4-7.8c0.8-3.7,3.7-6.5,4.4-7.1c0.1,0.6,0.3,1.3,0.4,2.1c0.3,2,0.6,4.8,0.8,8
				C22,117.9,22,119.7,21.8,120.5z"/>
			<g>
				<path class="st1" d="M17.2,120.5L17.2,120.5L17.2,120.5C17.2,120.5,17.2,120.5,17.2,120.5c0-0.1-0.1-5.9-0.5-8.7
					c-0.2-1.6-1.4-8.5-1.4-8.6c0,0,0-0.1,0-0.1c0,0,0-0.4,0.2-0.7c0.3-0.3,0.7-0.5,1.4-0.5c0,0,0.1,0,0.1,0c1.7,0,2.5,0.8,2.5,1
					c0,0,1.3,5.4,1.6,8.4c0,0.3,0.1,0.8,0.1,1.4c0.4,3.5,0.7,7.3,0.2,7.4c-0.8,0.1-1.5,0.2-2.1,0.2c-0.2,0-0.4,0-0.6,0
					c-0.2,0-0.3,0-0.4,0C17.6,120.2,17.2,120.3,17.2,120.5C17.2,120.5,17.2,120.5,17.2,120.5L17.2,120.5
					C17.2,120.5,17.2,120.5,17.2,120.5L17.2,120.5z M17,102C16.9,102,16.9,102,17,102c-0.7,0-1.2,0.2-1.4,0.5
					c-0.2,0.3-0.2,0.6-0.2,0.6c0,0,0,0.1,0,0.1c0,0,1.2,6.9,1.4,8.6c0.3,2.6,0.4,7.7,0.5,8.6c0.1-0.1,0.5-0.2,1-0.2
					c0.1,0,0.3,0,0.4,0c0.2,0,0.4,0,0.6,0h0c0.6,0,1.4,0,2.1-0.2c0.5-0.1,0-5-0.2-7.3c-0.1-0.6-0.1-1.1-0.1-1.4
					c-0.2-3-1.6-8.3-1.6-8.4C19.4,102.8,18.6,102,17,102z"/>
			</g>
			<path class="st2" d="M16.2,120.8h18.1c0,0-0.4-1.7-10.9-1.4C16,119.5,16.2,120.8,16.2,120.8z"/>
			<g>
				<path class="st1" d="M14.7,138.4c2.1-10.5,1.6-16.9,1.6-17c0-0.2,0.3-0.3,0.5-0.3c0.2,0,0.9,0,1,0.1c0.1,0.2,0.5,8.1-2.6,17.2
					H14.7z"/>
			</g>
			<g>
				<path class="st1" d="M31.7,138.4c-2.1-10.5-1.6-16.9-1.6-17c0-0.2-0.3-0.3-0.5-0.3c-0.2,0-0.9,0-1,0.1
					c-0.1,0.2-0.5,8.1,2.6,17.2H31.7z"/>
			</g>
			<g>
				<path class="st4" d="M35,138.4c-2.1-10.5-1.6-16.9-1.6-17c0-0.2-0.3-0.3-0.5-0.3c-0.2,0-0.9,0-1,0.1c-0.1,0.2-0.5,8.1,2.6,17.2
					H35z"/>
			</g>
			<g>
				<path class="st4" d="M18.1,138.4c2.1-10.5,1.6-16.9,1.6-17c0-0.2,0.3-0.3,0.5-0.3c0.2,0,0.9,0,1,0.1c0.1,0.2,0.5,8.1-2.6,17.2
					H18.1z"/>
			</g>
			<path class="st1" d="M34.3,121.3h-18c-0.2,0-0.4-0.2-0.4-0.4v-0.1c0-0.2,0.2-0.4,0.4-0.4h18c0.2,0,0.4,0.2,0.4,0.4v0.1
				C34.7,121.1,34.5,121.3,34.3,121.3z"/>
		</g>
		<g>
			<path class="st5" d="M30.6,109.3c0,0,3.3,3.8,4,3.7c0.7-0.1,1.1-0.3,1.7,0c0.4,0.2,1.8,1.3,1.4,1.2c-0.4-0.1-1-0.2-1.2-0.2
				c-0.2,0-0.6,0-0.9-0.1c-0.2,0-0.8,0-1-0.1c-0.9,0-5-2.4-5-2.4L30.6,109.3z"/>
			<path class="st6" d="M28.3,90.1c0,0-0.1-1.9-2.9-1.4c-0.7,0.1-1.2-1.2-2.4-0.7c-2.5,1-2.7-0.3-3.4,1.5c-0.3,0.8-2.3,1.7-1.7,3
				c0.6,1.3-0.4,2.2,0.3,3.3c0.4,0.5,0.2,1.5,1.9,1.5c0.9,0,2.2,1.6,3.1,1.9c1,0.3,3.8-0.1,3.7-1.4c-0.1-1,1.1-0.9,1.8-2.1
				c0.6-1-0.5-1.3,0.1-3C29.4,91.5,28.3,91.2,28.3,90.1z"/>
			<g>
				<path class="st5" d="M43.3,136.9c-0.1,0.6,0.8,0.8,1.9,0.8c1,0.1,0.7,0.3,2.1,0.5c1.4,0.3,2-0.1,2.1-0.3
					c0.1-0.2-0.6-0.4-1.3-0.7c-0.1,0-0.2-0.1-0.3-0.1c-0.8-0.3-1.2-1-1.8-1.7c-0.6-0.6-1.1-2.6-1.1-2.6l-1.9-0.4
					c0,0,0.5,1.8,0.7,2.5c0.1,0.4-0.1,0.9-0.2,1.3C43.4,136.4,43.3,136.6,43.3,136.9z"/>
				<path class="st7" d="M45.2,137.7c1,0.1,0.7,0.3,2.1,0.5c1.4,0.3,2-0.1,2.1-0.3c0.1-0.2-0.6-0.4-1.3-0.7l0,0c0,0-1,0.3-2.1,0
					c-0.9-0.3-1.8-0.8-2.5-1c-0.1,0.2-0.2,0.4-0.2,0.6C43.3,137.5,44.2,137.7,45.2,137.7z"/>
			</g>
			<path class="st8" d="M24.3,114.2c0,0,12.7-1,15.1,0.6c2.4,1.5,6.2,19.1,6.2,19.1s-0.2,0.2-0.8,0.2c-0.5,0.1-1.6-0.2-1.6-0.2
				s-5.5-7.9-5.9-9.8c-0.4-2-0.3-3.7-1.2-3.8c-0.9,0-11.9,1.3-13.5-1.6s-0.3-5.8-0.3-5.8L24.3,114.2z"/>
			<g>
				<path class="st5" d="M39,136.9c-0.1,0.6,0.8,0.8,1.9,0.8c1,0.1,0.7,0.3,2.1,0.5c1.4,0.3,2-0.1,2.1-0.3c0.1-0.2-0.6-0.4-1.3-0.7
					c-0.1,0-0.2-0.1-0.3-0.1c-0.8-0.3-1.2-1-1.8-1.7c-0.6-0.6-1.1-2.6-1.1-2.6l-1.9-0.4c0,0,0.5,1.8,0.7,2.5
					c0.1,0.4-0.1,0.9-0.2,1.3C39.1,136.5,39,136.7,39,136.9z"/>
				<path class="st7" d="M40.8,137.8c1,0.1,0.7,0.3,2.1,0.5c1.4,0.3,2-0.1,2.1-0.3c0.1-0.2-0.6-0.4-1.3-0.7l0,0c0,0-1,0.3-2.1,0
					c-0.9-0.3-1.8-0.8-2.5-1c-0.1,0.2-0.2,0.4-0.2,0.6C38.9,137.6,39.8,137.7,40.8,137.8z"/>
			</g>
			<path class="st6" d="M22.3,113.1c0,0,11.3,0.5,13.6,2.1c2.3,1.6,5.5,19.3,5.5,19.3s-0.2,0.2-0.8,0.2c-0.5,0-1.6-0.3-1.6-0.3
				s-5.2-8.1-5.5-10.1c-0.3-2-0.1-3.8-1-3.8c-0.9-0.1-11.9,0.9-13.5-2.1C17.5,115.4,22.3,113.1,22.3,113.1z"/>
			<path class="st5" d="M19,98.7C19,98.7,19,98.7,19,98.7c0.1-0.1,0.2-0.2,0.3-0.3l0,0c0,0,0,0,0,0c0.9-0.6,2.6-0.8,2.6-0.8v0l0,0
				c0,0,0,0,0,0c0,0,0.2,0,0.5,0c0.2-0.6,0.5-1.4,0.5-2.6l0.2,0l2.7,0.7c0,0-0.1,0.9-0.2,1.7c0,0.2,0,0.4,0,0.5
				c0.1,0,0.2,0.1,0.2,0.1c0,0,0,0,0,0v0c0,0,1.6,0.2,1.9,0.6c0.4,0.4,1.1,3.1,1.3,3.5l-10.6,0.2C18.5,102.3,18.2,99.6,19,98.7z"/>
			<path class="st9" d="M32.1,109.4c-0.1,0.1-0.2,0.4-0.5,0.7c-0.1,0.1-0.1,0.2-0.2,0.3c-0.3,0.5-0.8,0.9-1.2,1.1
				c-0.2,0.1-0.3,0.1-0.5,0c-0.2-0.1-0.6-0.3-1-0.7c-0.3-0.3-0.6-0.7-0.9-1c-0.1-0.1-0.2-0.3-0.3-0.4c0,0.1,0,0.2,0,0.3v0
				c-0.1,0.6-0.1,1,0,1.2c0.1,0.3,0.5,0.5,0.9,0.7c0.8,0.5,1.9,1,1.5,1.4c-0.3,0.4-1.2,0.5-2.2,0.6c-0.8,0.1-1.6,0.3-2.2,0.6
				c0,0,0,0-0.1,0c-1.4,0.8-5.6,3.4-6.9,3.3c-0.5,0-0.4-1-0.1-2.2c0.5-2,1.5-4.7,1.5-5.9c0-0.6-1.5-7.1-1.5-7.1s-0.3-2.8,0.5-3.7
				l0.3-0.3l0,0c0,0,0,0,0,0c0,0,3.2,1.8,5.1,1.9c1.9,0.1,3.3-1.7,3.3-1.7c0.4,0.4,1.1,3.1,1.3,3.5c0,0,1.5,6,1.9,6.3
				C31.3,108.8,32.2,109.2,32.1,109.4z"/>
			<path class="st10" d="M25.8,95.8c0,0-0.1,0.9-0.2,1.7C24,97.3,23.3,95.8,23,95L25.8,95.8z"/>
			<path class="st5" d="M26.2,96.6c0,0-3.7-0.2-3.5-2.5c0.2-2.3-0.2-3.9,2.1-3.8c2.4,0,2.8,0.9,2.9,1.7
				C27.9,92.7,27.2,96.6,26.2,96.6z"/>
			<path class="st6" d="M26.4,91.1c0,0-0.9-0.2-1.2,0.2c-0.3,0.4-0.1,0.7-0.7,0.8c-0.6,0.2-0.9,0.2-0.8,0.6c0.1,0.4-0.6,0.8-0.7,1.1
				c0,0.4-0.3,0.5-0.6,0.6c-0.3,0-0.2-4.6,0.9-4.8c1.1-0.2,2.1,0,2.5,0.3C26.1,90.2,26.4,91.1,26.4,91.1z"/>
			<path class="st6" d="M26.4,91.1c0,0,0.9-0.1,1,0.4c0.2,0.5-0.1,0.6,0.2,0.9c0.2,0.3,0.1,0.8,0.1,0.8s1.7-3.1-0.1-3.3
				C25.8,89.7,25.8,90.1,26.4,91.1z"/>
			<path class="st11" d="M31.6,110.1c-0.1,0.1-0.1,0.2-0.2,0.3c-0.3,0.5-0.8,0.9-1.2,1.1c-0.2,0.1-0.3,0.1-0.5,0
				c-0.2-0.1-0.6-0.3-1-0.7c-0.3-0.3-0.6-0.7-0.9-1c-0.1-0.1-0.2-0.3-0.3-0.4c0,0.1,0,0.2,0,0.3v-0.5c0,0,0.2-9.1,0.5-5.1
				C28.2,107,30.4,109.1,31.6,110.1z"/>
			<path class="st11" d="M20.4,103.8c0,0-4.5,7.8,5,10.5c0,0,0,0,0.1,0c0.6-0.3,1.4-0.5,2.2-0.6c1-0.2,1.9-0.3,2.2-0.6
				c0.4-0.4-0.7-0.9-1.5-1.4c-0.4-0.2-1.3-0.5-1.4-0.7C26.9,110.7,20.4,103.8,20.4,103.8z"/>
		</g>
	</g>
	<g>
		<g>
			<path class="st12" d="M14.5,112.5l-0.7,4.1v0l-2,11.4l-1.8,10.2c0,0.2-0.2,0.3-0.3,0.3c-0.1,0-0.3-0.1-0.2-0.3l1.5-11.5l1.7-12.3
				l0.2-1.9L14.5,112.5z"/>
		</g>
		<path class="st4" d="M13.7,116.6c0.1-1.8-1.2-2.3-1.2-2.3l0.2-1.9l1.6,0L13.7,116.6z"/>
		<g>
			<g>
				<path class="st12" d="M112.4,138.4c-0.2,0-0.3-0.1-0.3-0.3l-1.6-9l-2.3-13l-0.6-3.6l1.6,0l0.3,2.1l2,14.8l1.2,8.8
					C112.7,138.3,112.6,138.4,112.4,138.4z"/>
			</g>
			<path class="st4" d="M109.5,114.5c-1.1,0.5-1.3,1.6-1.3,1.6l-0.6-3.6l1.6,0L109.5,114.5z"/>
		</g>
		<path class="st13" d="M114,113.9H6.7c-0.8,0-1.4-0.6-1.4-1.4l0,0c0-0.8,0.6-1.4,1.4-1.4H114c0.8,0,1.4,0.6,1.4,1.4l0,0
			C115.4,113.2,114.8,113.9,114,113.9z"/>
	</g>
	<g>
		<polygon class="st14" points="51.7,106.7 29.3,106.7 31.4,89.8 53.8,89.8 		"/>
		<g>
			<polygon class="st15" points="54.3,89.8 52.2,106.7 29.8,106.7 30.3,102.9 31.9,89.8 			"/>
			<path class="st16" d="M54.3,89.8l-2.1,16.9H29.8l0.5-3.9c18.5,1.1,19.1-10.6,19-13.1H54.3z"/>
			<path class="st14" d="M43.7,97.1c-0.1-0.5-0.3-1.1-0.9-1.1l-0.9,0c-0.6-0.1-1.1,0.4-1.1,0.9l-0.4,12.8c0,0.4-0.4,0.8-0.8,0.8
				h-2.3c-0.1,0-0.3,0.1-0.3,0.2c-0.1,0.2,0.1,0.4,0.3,0.4h7.3c0,0,0,0,0,0l0.1,0c0.2,0,0.4-0.2,0.4-0.4L43.7,97.1z"/>
			<path class="st15" d="M44.2,97.1c-0.1-0.5-0.3-1.1-0.9-1.1l-0.9,0c-0.6-0.1-1.1,0.4-1.1,0.9l-0.4,12.8c0,0.4-0.4,0.8-0.8,0.8
				h-2.3c-0.1,0-0.3,0.1-0.3,0.2c-0.1,0.2,0.1,0.4,0.3,0.4h7.3c0,0,0,0,0,0l0.1,0c0.2,0,0.4-0.2,0.4-0.4L44.2,97.1z"/>
		</g>
	</g>
	<g>
		<g>
			<path class="st14" d="M69.5,95.4l-1.2,14.8c0,0-0.1,0.9,0.5,0.9c1.1,0,5.5,0,5.5,0s-0.8-0.2-0.8-0.6c0-0.5,1.5-15.2,1.5-15.2
				L69.5,95.4z"/>
			<path class="st17" d="M74.6,110.8c-0.2,0-4.4,0-5.4,0c-0.5,0-0.5-0.4-0.6-0.7c0-0.1,0-0.2,0-0.2l0-0.4l0.1-1l0.1-0.9l0.1-1.1
				l0.1-0.9l0.9-10.5l5.4-0.1c0,0-0.6,6.2-1,10.6c0,0.5-0.1,1-0.1,1.4c0,0.1,0,0.3,0,0.4c0,0.4-0.1,0.8-0.1,1.2c0,0.2,0,0.3,0,0.5
				c-0.1,0.6-0.1,1-0.1,1.1c0,0,0,0.1,0,0.1C73.9,110.7,74.5,110.8,74.6,110.8z"/>
			<polygon class="st15" points="56.4,87.3 59.5,99.5 59.9,101.1 61.3,106.8 87.5,106.8 82.3,87.3 			"/>
			<polygon class="st17" points="56.4,87.3 56,87.5 60.7,107.2 61.3,106.8 			"/>
			<polygon class="st14" points="60.7,107.2 86.7,107.2 87.5,106.8 61.3,106.8 			"/>
			
				<rect x="69.9" y="110.8" transform="matrix(-1 -1.224647e-16 1.224647e-16 -1 145.3634 221.7869)" class="st15" width="5.6" height="0.3"/>
			<polygon class="st15" points="86.2,103.2 82,87.6 56.4,87.6 56.4,87.3 82.3,87.3 86.5,103.2 			"/>
			<polygon class="st14" points="74.1,107.2 74,107.4 68.7,108.5 68.8,107.6 68.8,107.2 			"/>
			<path class="st16" d="M74.6,110.8c-0.2,0-4.4,0-5.4,0c-0.5,0-0.5-0.4-0.6-0.7l5.3-1c-0.1,0.6-0.1,1-0.1,1.1c0,0,0,0.1,0,0.1
				C73.9,110.7,74.5,110.8,74.6,110.8z"/>
			<polygon class="st16" points="72.8,102.9 61.3,106.8 59.9,101.1 			"/>
			<polygon class="st18" points="56.4,87.3 82.3,87.3 86.5,103 60.2,103 			"/>
		</g>
		<path class="st14" d="M75.1,105c-0.1-0.4-0.4-0.7-0.8-0.7c-0.4,0-0.6,0.3-0.6,0.7c0.1,0.4,0.4,0.7,0.8,0.7
			C74.9,105.6,75.1,105.3,75.1,105z"/>
		<polygon class="st19" points="85.2,102.3 61.1,102.3 58.3,91.4 58.1,90.5 57.9,89.8 57.5,88.2 81.3,88.2 81.8,89.8 82,90.5 
			82.2,91.4 		"/>
		<polygon class="st20" points="81.8,89.8 57.9,89.8 57.5,88.2 81.3,88.2 		"/>
		<g>
			<path class="st19" d="M58.5,88.9c0-0.1,0-0.2,0.2-0.2c0.1,0,0.2,0.1,0.3,0.2c0,0.1,0,0.2-0.2,0.2C58.6,89.1,58.5,89,58.5,88.9z"
				/>
			<path class="st19" d="M59.2,88.9c0-0.1,0-0.2,0.2-0.2c0.1,0,0.2,0.1,0.3,0.2s0,0.2-0.2,0.2C59.3,89.1,59.2,89,59.2,88.9z"/>
			<path class="st19" d="M59.9,88.9c0-0.1,0-0.2,0.2-0.2c0.1,0,0.2,0.1,0.3,0.2c0,0.1,0,0.2-0.2,0.2C60.1,89.1,60,89,59.9,88.9z"/>
		</g>
		<g>
			<path class="st20" d="M64.3,93.6h-3.6c-0.1,0-0.2-0.1-0.3-0.2l0,0c0-0.1,0-0.2,0.2-0.2h3.6c0.1,0,0.2,0.1,0.3,0.2l0,0
				C64.5,93.5,64.5,93.6,64.3,93.6z"/>
			<path class="st20" d="M64.5,94.4h-3.6c-0.1,0-0.2-0.1-0.3-0.2l0,0c0-0.1,0-0.2,0.2-0.2h3.6c0.1,0,0.2,0.1,0.3,0.2l0,0
				C64.7,94.3,64.7,94.4,64.5,94.4z"/>
			<path class="st20" d="M64.7,95.1h-3.6c-0.1,0-0.2-0.1-0.3-0.2l0,0c0-0.1,0-0.2,0.2-0.2h3.6c0.1,0,0.2,0.1,0.3,0.2l0,0
				C64.9,95.1,64.8,95.1,64.7,95.1z"/>
		</g>
		<g>
			<path class="st20" d="M70.9,93.6h-3.6c-0.1,0-0.2-0.1-0.3-0.2l0,0c0-0.1,0-0.2,0.2-0.2h3.6c0.1,0,0.2,0.1,0.3,0.2l0,0
				C71.1,93.5,71,93.6,70.9,93.6z"/>
			<path class="st20" d="M71.1,94.4h-3.6c-0.1,0-0.2-0.1-0.3-0.2l0,0c0-0.1,0-0.2,0.2-0.2H71c0.1,0,0.2,0.1,0.3,0.2l0,0
				C71.2,94.3,71.2,94.4,71.1,94.4z"/>
			<path class="st20" d="M71.3,95.1h-3.6c-0.1,0-0.2-0.1-0.3-0.2l0,0c0-0.1,0-0.2,0.2-0.2h3.6c0.1,0,0.2,0.1,0.3,0.2l0,0
				C71.4,95.1,71.4,95.1,71.3,95.1z"/>
		</g>
		<g>
			<path class="st20" d="M77.1,93.6h-3.6c-0.1,0-0.2-0.1-0.3-0.2l0,0c0-0.1,0-0.2,0.2-0.2H77c0.1,0,0.2,0.1,0.3,0.2l0,0
				C77.3,93.5,77.3,93.6,77.1,93.6z"/>
			<path class="st20" d="M77.3,94.4h-3.6c-0.1,0-0.2-0.1-0.3-0.2l0,0c0-0.1,0-0.2,0.2-0.2h3.6c0.1,0,0.2,0.1,0.3,0.2l0,0
				C77.5,94.3,77.4,94.4,77.3,94.4z"/>
			<path class="st20" d="M77.5,95.1h-3.6c-0.1,0-0.2-0.1-0.3-0.2l0,0c0-0.1,0-0.2,0.2-0.2h3.6c0.1,0,0.2,0.1,0.3,0.2l0,0
				C77.7,95.1,77.6,95.1,77.5,95.1z"/>
		</g>
		<g>
			<g>
				<g>
					<path class="st20" d="M80.5,90.9l0.2,0.7c0,0.1,0,0.2-0.2,0.2H59.9c-0.1,0-0.3-0.1-0.3-0.2l-0.2-0.7c0-0.1,0-0.2,0.2-0.2h20.6
						C80.3,90.7,80.5,90.8,80.5,90.9z"/>
					<path class="st15" d="M74.2,90.7l0.3,1.2H59.9c-0.1,0-0.3-0.1-0.3-0.2l-0.2-0.7c0-0.1,0-0.2,0.2-0.2H74.2z"/>
				</g>
				<g>
					<path class="st18" d="M77.1,91.2h-0.2l0-0.1L77.1,91.2l0.1,0l-0.1,0.4H77L77.1,91.2z"/>
					<path class="st18" d="M77.3,91.3c0-0.1,0-0.3,0.2-0.3c0.1,0,0.2,0.1,0.3,0.3c0,0.1,0,0.3-0.2,0.3
						C77.5,91.6,77.3,91.5,77.3,91.3z M77.6,91.3c0-0.1-0.1-0.2-0.1-0.2s-0.1,0.1-0.1,0.2c0,0.1,0.1,0.2,0.1,0.2
						C77.6,91.5,77.7,91.4,77.6,91.3z"/>
					<path class="st18" d="M77.8,91.2c0-0.1,0-0.1,0.1-0.1c0.1,0,0.1,0.1,0.1,0.1c0,0.1,0,0.1-0.1,0.1
						C77.9,91.3,77.8,91.3,77.8,91.2z M78.2,91.1L78.2,91.1L78,91.6h-0.1L78.2,91.1z M77.9,91.2C77.9,91.2,77.9,91.1,77.9,91.2
						C77.9,91.1,77.8,91.2,77.9,91.2C77.9,91.2,77.9,91.3,77.9,91.2C77.9,91.3,78,91.2,77.9,91.2z M78.1,91.5c0-0.1,0-0.1,0.1-0.1
						c0.1,0,0.1,0.1,0.1,0.1c0,0.1,0,0.1-0.1,0.1C78.2,91.6,78.2,91.5,78.1,91.5z M78.3,91.5C78.3,91.4,78.3,91.4,78.3,91.5
						C78.2,91.4,78.2,91.4,78.3,91.5C78.2,91.5,78.2,91.5,78.3,91.5C78.3,91.5,78.3,91.5,78.3,91.5z"/>
				</g>
			</g>
			<g>
				<path class="st20" d="M72.5,100.8h-1.8c-0.3,0-0.5-0.2-0.6-0.5l-0.9-3.5c-0.1-0.3,0.1-0.5,0.3-0.5h1.8c0.3,0,0.5,0.2,0.6,0.5
					l0.9,3.5C72.9,100.6,72.8,100.8,72.5,100.8z"/>
				<path class="st20" d="M75.7,100.8h-1.8c-0.3,0-0.5-0.2-0.6-0.5l-0.9-3.5c-0.1-0.3,0.1-0.5,0.3-0.5h1.8c0.3,0,0.5,0.2,0.6,0.5
					l0.9,3.5C76.1,100.6,75.9,100.8,75.7,100.8z"/>
				<path class="st20" d="M78.8,100.8h-1.8c-0.3,0-0.5-0.2-0.6-0.5l-0.9-3.5c-0.1-0.3,0.1-0.5,0.3-0.5h1.8c0.3,0,0.5,0.2,0.6,0.5
					l0.9,3.5C79.2,100.6,79,100.8,78.8,100.8z"/>
				<g>
					<path class="st20" d="M68.9,100.8h-6.2c-0.4,0-0.9-0.3-1-0.8L61,97.1c-0.1-0.4,0.2-0.8,0.6-0.8h6.2c0.4,0,0.9,0.3,1,0.8
						l0.7,2.9C69.6,100.5,69.3,100.8,68.9,100.8z"/>
					<path class="st18" d="M67.7,97.5h-5.8c-0.1,0-0.2-0.1-0.2-0.2l0,0c0-0.1,0-0.2,0.1-0.2h5.8c0.1,0,0.2,0.1,0.2,0.2l0,0
						C67.8,97.4,67.8,97.5,67.7,97.5z"/>
					<path class="st18" d="M67.9,98.2h-5.8c-0.1,0-0.2-0.1-0.2-0.2l0,0c0-0.1,0-0.2,0.1-0.2h5.8c0.1,0,0.2,0.1,0.2,0.2l0,0
						C68,98.1,68,98.2,67.9,98.2z"/>
					<path class="st18" d="M68,98.8h-5.8c-0.1,0-0.2-0.1-0.2-0.2l0,0c0-0.1,0-0.2,0.1-0.2h5.8c0.1,0,0.2,0.1,0.2,0.2l0,0
						C68.2,98.8,68.1,98.8,68,98.8z"/>
					<path class="st18" d="M63.8,99.6h-1.4c-0.1,0-0.2-0.1-0.2-0.2l0,0c0-0.1,0-0.2,0.1-0.2h1.4c0.1,0,0.2,0.1,0.2,0.2l0,0
						C64,99.5,63.9,99.6,63.8,99.6z"/>
				</g>
			</g>
		</g>
	</g>
	<g>
		<path class="st8" d="M89.5,119.3c0,0-3.3,1.6-3.5,3.4c-0.2,1.8,0.5,12.4,0.5,12.4s3.4,0.6,4,0c0,0,0.9-11.4,0.7-11.9
			c-0.2-0.5,9.4-3.3,10.3-3.3C102.4,120,89.5,119.3,89.5,119.3z"/>
		<path class="st8" d="M90.4,135.1c0,0-0.2,3.2-0.8,3.3c-0.1,0-3.2,0-3.2,0l-3.9,0c0,0,0-0.9,1.2-1.1c1.1-0.2,3.1-1,3.8-2.5
			C88.1,133.1,90.4,135.1,90.4,135.1z"/>
	</g>
	<g>
		<path class="st8" d="M79.4,135.1c0,0-0.2,3.2-0.8,3.3c-0.1,0-3.2,0-3.2,0l-3.9,0c0,0,0-0.9,1.2-1.1c1.1-0.2,3.1-1,3.8-2.5
			C77.1,133.1,79.4,135.1,79.4,135.1z"/>
		<path class="st6" d="M103.3,113.6L103.3,113.6c-0.1-0.3-0.3-0.6-0.7-0.8c-2.4-1.4-7-0.4-7-0.4s-14.9,2.4-16.3,4.4
			c-1.4,2-3.5,18.7-3.5,18.7s2.6,0.7,3.7,0.3c0,0,5.1-13.2,5.5-14.7c0.4-1.2,7.4-0.3,11-0.6c2.1-0.1,5.5-0.2,6.4-0.5
			C103.8,119.5,103.3,113.6,103.3,113.6z"/>
	</g>
	<g>
		<path class="st21" d="M98,95.7l-1.2,1.5l-2.3,0.1c0-0.2-0.1-1.2-0.2-2c-0.1-0.7-0.1-1.3-0.1-1.3l2.5-2.2c0,0,0.1,0.7,0.1,0.8
			C97.1,94.6,98,95.7,98,95.7z"/>
		<path class="st22" d="M93.9,95.1c0.1,0,3.2-0.8,3.5-0.6c0.3,0.1,0.5,0.8,0.5,0.8l-5.1,0.9C92.8,96.2,93.3,95.4,93.9,95.1z"/>
		<path class="st21" d="M93.5,94.3c0,0,3.3,0.2,3.4-1.9c0.1-2.1,0.5-3.4-1.6-3.6c-2.1-0.2-2.6,0.6-2.7,1.3
			C92.4,90.7,92.7,94.2,93.5,94.3z"/>
		<path class="st8" d="M92.7,89.8c0,0,0.8,2.2,1.2,2c0.4-0.2,0.8-0.4,0.9,0.3c0.1,0.7-0.3,1.6,1.1,1.4c1.5-0.3,2.5-4.5,2-5.1
			C96.3,86.7,90.4,87.8,92.7,89.8z"/>
		<path class="st17" d="M103.3,113.6c-0.8,1-8,0.7-10.1-0.1c-0.2-0.1-0.3-0.1-0.4-0.2c-1.2-1,1.5-1.8-1.6-9.3c0,0,0,0,0,0
			c-2.2-5.4,0.1-7.1,1.6-8c0,0,4.2-1.3,6.6-0.6C102.7,96.4,104.2,112.5,103.3,113.6z"/>
		<path class="st22" d="M95.8,109.9c-0.1,1-1,3.5-2.6,3.6c-0.2-0.1-0.3-0.1-0.4-0.2c-1.2-1,1.5-1.8-1.6-9.3c0,0,0,0,0,0
			c0.5-0.4,1.4-0.8,1.9-0.1C94.1,104.8,96,108.9,95.8,109.9z"/>
		<path class="st21" d="M80.7,109.9c0,0-1.3-0.8-1.8-0.8c-0.4-0.1-2.5,1.7-2.2,1.8c0.3,0.1,1.8-0.5,2.1-0.4c0.2,0.1,0.4,0.5,0.6,0.5
			c0.2,0,1.1,0,1.1,0L80.7,109.9z"/>
		<path class="st17" d="M93,96c0,0-2.9,1.5-3.3,3c-0.4,1.4-1.8,8.4-2.3,8.9c-0.5,0.5-6.8,1.6-6.8,1.6s-0.7,0.8-0.5,1.5h9.7
			c0,0,4.4-6.3,4.1-8.7C93.5,99.9,93,96,93,96z"/>
	</g>
	<g>
		<path class="st2" d="M105.8,120.2H85.6c0,0,0.5-1.7,12.2-1.5C106.1,118.9,105.8,120.2,105.8,120.2z"/>
		<g>
			<path class="st1" d="M107.5,138.4c-2.3-10.8-1.7-17.5-1.7-17.6c0-0.2-0.3-0.3-0.5-0.3c-0.2,0-1,0-1.1,0.1
				c-0.1,0.2-0.6,8.4,2.9,17.8H107.5z"/>
		</g>
		<g>
			<path class="st1" d="M88.6,138.4c2.3-10.8,1.7-17.5,1.7-17.6c0-0.2,0.3-0.3,0.5-0.3c0.2,0,1,0,1.1,0.1c0.1,0.2,0.6,8.4-2.9,17.8
				H88.6z"/>
		</g>
		<g>
			<path class="st4" d="M84.9,138.4c2.3-10.8,1.7-17.5,1.7-17.6c0-0.2,0.3-0.3,0.5-0.3c0.2,0,1,0,1.1,0.1c0.1,0.2,0.6,8.4-2.9,17.8
				H84.9z"/>
		</g>
		<g>
			<path class="st4" d="M103.7,138.4c-2.3-10.8-1.7-17.5-1.7-17.6c0-0.2-0.3-0.3-0.5-0.3c-0.2,0-1,0-1.1,0.1
				c-0.1,0.2-0.6,8.4,2.9,17.8H103.7z"/>
		</g>
		<path class="st1" d="M85.7,120.7h20.1c0.3,0,0.5-0.2,0.5-0.5v-0.1c0-0.3-0.2-0.5-0.5-0.5H85.7c-0.3,0-0.5,0.2-0.5,0.5v0.1
			C85.2,120.5,85.4,120.7,85.7,120.7z"/>
		<path class="st1" d="M100.3,115c0.1-3.4,0.5-6.3,0.9-8.3c0.6-3.2,1.2-5.1,1.2-5.1c0.1-0.3,1.2-1.4,3.8-1.4c2.6,0,2.3,1.5,2.3,1.5
			l0,0c0,0.1,0,0.1,0,0.1c0,0.1-2.4,8-2.3,18.2c0,0.1,0,0.4,0,0.6c0,0-6,0.1-6,0C100,119.6,100.1,117.2,100.3,115z"/>
	</g>
	<path class="st6" d="M76.5,111c0,0,1.6-1.3,2.4-0.9c0.8,0.4,1,0.9,1,0.9H76.5z"/>
	<path class="st5" d="M25.4,110.2c0,0,1.5-0.4,2-0.2c0.5,0.1,1.6,1.1,1.3,1.1c-0.3,0-1.3-0.5-1.5-0.4c-0.2,0.1-0.9,0.5-1.4,0.3
		C25.4,110.7,25.4,110.2,25.4,110.2z"/>
	<path class="st9" d="M18.6,99.2c0,0-1.5,4-1.7,6.2c-0.3,3.4-0.3,5.6-0.3,5.6s1,0,3.5,0c2.5,0,5.4,0,5.4,0s0.7-0.7-0.3-1.3
		c-1-0.6-5.3-1.6-5.2-2c0.1-0.4,1.6-6.4,1.6-6.4L18.6,99.2z"/>
	<path class="st6" d="M26.1,111c0,0,0.9-0.6,1.6-0.5c0.6,0.2,1.1,0.5,1.1,0.5L26.1,111z"/>
</g>
<path class="st23" d="M299.6,140H0.4c-0.2,0-0.4-0.2-0.4-0.4l0,0c0-0.2,0.2-0.4,0.4-0.4h299.2c0.2,0,0.4,0.2,0.4,0.4l0,0
	C300,139.8,299.8,140,299.6,140z"/>
<g>
	<rect x="2.6" y="4.7" class="st24" width="118.7" height="73.2"/>
</g>
<g>
	<polygon class="st25" points="121.3,4.8 106.1,4.8 78.5,78.1 121.3,78.1 	"/>
</g>
<g>
	<g>
		<g>
			<rect x="13.6" y="11.7" class="st26" width="65.1" height="47"/>
		</g>
		<g>
			<g>
				<rect x="21.7" y="15.9" class="st27" width="5.5" height="40.6"/>
			</g>
			<g>
				<rect x="28.7" y="15.9" class="st27" width="5.5" height="40.6"/>
			</g>
			<g>
				<rect x="35.6" y="15.9" class="st27" width="5.5" height="40.6"/>
			</g>
			<g>
				<rect x="42.7" y="15.9" class="st27" width="5.5" height="40.6"/>
			</g>
			<g>
				<rect x="49.6" y="15.9" class="st27" width="5.5" height="40.6"/>
			</g>
			<g>
				<rect x="56.7" y="15.9" class="st27" width="5.5" height="40.6"/>
			</g>
			<g>
				<rect x="63.7" y="15.9" class="st27" width="5.5" height="40.6"/>
			</g>
			<g>
				<path class="st28" d="M26.5,56.6h-4.2V32.1c0-1.2,0.9-2,2.1-2l0,0c1.2,0,2.1,0.9,2.1,2V56.6z"/>
			</g>
			<g>
				<path class="st28" d="M33.4,56.6h-4.2V27.2c0-1.2,0.9-2,2.1-2l0,0c1.2,0,2.1,0.9,2.1,2V56.6z"/>
			</g>
			<g>
				<path class="st28" d="M40.5,56.6h-4.2V39.3c0-1.2,0.9-2,2.1-2l0,0c1.2,0,2.1,0.9,2.1,2V56.6z"/>
			</g>
			<g>
				<path class="st28" d="M47.5,56.6h-4.2V24.3c0-1.2,0.9-2,2.1-2l0,0c1.2,0,2.1,0.9,2.1,2V56.6z"/>
			</g>
			<g>
				<path class="st28" d="M54.5,56.6h-4.2V32.1c0-1.2,0.9-2,2.1-2l0,0c1.2,0,2.1,0.9,2.1,2V56.6z"/>
			</g>
			<g>
				<path class="st28" d="M61.5,56.6h-4.2V38.5c0-1.2,0.9-2,2.1-2l0,0c1.2,0,2.1,0.9,2.1,2V56.6z"/>
			</g>
			<g>
				<path class="st28" d="M68.6,56.6h-4.2V32.1c0-1.2,0.9-2,2.1-2l0,0c1.2,0,2.1,0.9,2.1,2V56.6z"/>
			</g>
		</g>
	</g>
	<g>
		<g>
			<g>
				<g>
					<rect x="83" y="21.8" class="st26" width="15.3" height="1.8"/>
				</g>
				<g>
					<rect x="83" y="25" class="st27" width="15.3" height="0.3"/>
				</g>
				<g>
					<rect x="83" y="27" class="st27" width="15.3" height="0.3"/>
				</g>
			</g>
			<g>
				<g>
					<rect x="83" y="30.8" class="st26" width="15.3" height="1.8"/>
				</g>
				<g>
					<rect x="83" y="34.1" class="st27" width="15.3" height="0.3"/>
				</g>
				<g>
					<rect x="83" y="36.2" class="st27" width="15.3" height="0.3"/>
				</g>
			</g>
			<g>
				<g>
					<rect x="83" y="40" class="st26" width="15.3" height="1.8"/>
				</g>
				<g>
					<rect x="83" y="43.2" class="st27" width="15.3" height="0.3"/>
				</g>
				<g>
					<rect x="83" y="45.2" class="st27" width="15.3" height="0.3"/>
				</g>
			</g>
		</g>
		<g>
			<g>
				<rect x="83.2" y="11.8" class="st29" width="8.7" height="0.5"/>
			</g>
			<g>
				<rect x="83.2" y="13.1" class="st27" width="12.9" height="0.5"/>
			</g>
			<g>
				<rect x="83.2" y="14.6" class="st27" width="2.2" height="0.5"/>
			</g>
			<g>
				<rect x="86.9" y="14.6" class="st27" width="3.3" height="0.5"/>
			</g>
			<g>
				<rect x="91.4" y="14.6" class="st27" width="5.9" height="0.5"/>
			</g>
			<g>
				<rect x="83.2" y="16.1" class="st27" width="5.3" height="0.5"/>
			</g>
			<g>
				<rect x="89.4" y="16.1" class="st27" width="7.9" height="0.5"/>
			</g>
			<g>
				<rect x="83.2" y="17.5" class="st27" width="8.4" height="0.5"/>
			</g>
			<g>
				<rect x="94.3" y="17.5" class="st27" width="2.9" height="0.5"/>
			</g>
		</g>
		<g>
			<g>
				<rect x="64.7" y="63.5" class="st29" width="8.7" height="0.5"/>
			</g>
			<g>
				<rect x="64.7" y="64.9" class="st27" width="12.9" height="0.5"/>
			</g>
			<g>
				<rect x="64.7" y="66.4" class="st27" width="2.2" height="0.5"/>
			</g>
			<g>
				<rect x="68.3" y="66.4" class="st27" width="3.3" height="0.5"/>
			</g>
			<g>
				<rect x="72.9" y="66.4" class="st27" width="5.9" height="0.5"/>
			</g>
			<g>
				<rect x="64.7" y="67.8" class="st27" width="5.3" height="0.5"/>
			</g>
			<g>
				<rect x="70.9" y="67.8" class="st27" width="7.9" height="0.5"/>
			</g>
			<g>
				<rect x="64.7" y="69.2" class="st27" width="8.4" height="0.5"/>
			</g>
			<g>
				<rect x="75.8" y="69.2" class="st27" width="2.9" height="0.5"/>
			</g>
		</g>
		<g>
			<rect x="13.9" y="7.6" class="st27" width="27.5" height="3.2"/>
		</g>
		<g>
			<rect x="106.1" y="7.3" class="st27" width="12.1" height="3.2"/>
		</g>
		<g>
			<g>
				<rect x="49.5" y="64.6" class="st28" width="8.6" height="1.3"/>
			</g>
			<g>
				<rect x="49.5" y="67.4" class="st28" width="4.4" height="0.5"/>
			</g>
			<g>
				<rect x="54.8" y="67.4" class="st28" width="2.8" height="0.5"/>
			</g>
			<g>
				<polygon class="st28" points="55.9,68.8 55.9,69.1 55.7,69.1 55.7,68.8 51.1,68.8 51.1,69.3 57.9,69.3 57.9,68.8 				"/>
			</g>
			<g>
				<rect x="49.5" y="68.8" class="st28" width="1.2" height="0.5"/>
			</g>
			<g>
				<rect x="58.2" y="68.8" class="st28" width="1.1" height="0.5"/>
			</g>
		</g>
	</g>
</g>
<g>
	<polygon class="st25" points="144.3,62.2 208,37 208,123.1 144.3,107.9 	"/>
</g>
<g>
	<polygon class="st24" points="152.8,58.8 144.3,62.2 144.3,107.9 185.2,117.6 	"/>
</g>
<g>
	<g>
		<g>
			<polygon class="st30" points="153.3,65.5 203.7,51.3 203.7,98.5 153.3,94.4 			"/>
		</g>
		<g>
			<g>
				<g>
					<polygon class="st31" points="187.8,66.5 194,65.3 194,91.9 187.8,91.8 					"/>
				</g>
				<g>
					<path class="st28" d="M190.2,87.7v4.2l1.2,0.1v-4.2c0.8-0.2,1.4-0.8,1.4-1.5c0-0.9-0.9-1.6-2-1.6c-1.1,0-1.9,0.7-1.9,1.6
						C188.9,86.9,189.5,87.5,190.2,87.7z"/>
				</g>
			</g>
			<g>
				<g>
					<polygon class="st31" points="181.1,67.8 186.5,66.8 186.5,91.7 181.1,91.5 					"/>
				</g>
				<g>
					<path class="st28" d="M183.2,76.7v14.9h1.1V76.6c0.7-0.3,1.2-0.9,1.2-1.6c0-0.8-0.8-1.4-1.7-1.3c-1,0.1-1.7,0.9-1.7,1.7
						C182,76,182.5,76.6,183.2,76.7z"/>
				</g>
			</g>
			<g>
				<g>
					<polygon class="st31" points="175.1,68.9 180,67.9 180,91.4 175.1,91.3 					"/>
				</g>
				<g>
					<path class="st28" d="M177,81.6v9.8h1v-9.8c0.6-0.2,1-0.8,1-1.4c0-0.8-0.7-1.3-1.5-1.3c-0.8,0.1-1.5,0.7-1.5,1.5
						C176,81,176.4,81.5,177,81.6z"/>
				</g>
			</g>
			<g>
				<g>
					<polygon class="st31" points="169.8,69.9 174.1,69 174.1,91.3 169.8,91.1 					"/>
				</g>
				<g>
					<path class="st28" d="M171.4,79.3v12h0.9v-12c0.5-0.2,1-0.7,1-1.3c0-0.7-0.6-1.3-1.4-1.2c-0.8,0.2-1.4,0.8-1.4,1.5
						C170.6,78.7,171,79.2,171.4,79.3z"/>
				</g>
			</g>
			<g>
				<g>
					<polygon class="st31" points="165,70.8 168.8,70.1 168.8,91.1 165,91 					"/>
				</g>
				<g>
					<path class="st28" d="M166.6,85.5v5.6h0.8v-5.6c0.5-0.2,0.8-0.7,0.8-1.3c0-0.7-0.5-1.2-1.2-1.2c-0.7,0.1-1.2,0.6-1.2,1.3
						C165.7,84.8,166,85.3,166.6,85.5z"/>
				</g>
			</g>
			<g>
				<g>
					<polygon class="st31" points="160.6,71.6 164.1,70.9 164.1,90.9 160.6,90.8 					"/>
				</g>
				<g>
					<path class="st28" d="M162,80.8v10.1h0.7V80.7c0.4-0.2,0.8-0.6,0.8-1.2c0-0.7-0.5-1.2-1.1-1.1c-0.6,0-1.1,0.6-1.1,1.3
						C161.3,80.2,161.5,80.6,162,80.8z"/>
				</g>
			</g>
			<g>
				<g>
					<polygon class="st31" points="156.6,72.3 159.8,71.7 159.8,90.8 156.6,90.7 					"/>
				</g>
				<g>
					<path class="st28" d="M157.9,75.6v15.2h0.6V75.6c0.4-0.2,0.7-0.7,0.7-1.2c0-0.6-0.5-1-1-0.9c-0.5,0.1-1,0.6-1,1.3
						C157.2,75.2,157.5,75.6,157.9,75.6z"/>
				</g>
			</g>
		</g>
		<g>
			<polygon class="st31" points="187.8,63.5 194,62.1 194,63.8 187.8,65 			"/>
		</g>
		<g>
			<g>
				<polygon class="st31" points="196.2,67.4 200.3,66.7 200.3,67.8 196.2,68.4 				"/>
			</g>
			<g>
				<polygon class="st31" points="196.2,72.3 200.3,71.7 200.3,72.7 196.2,73.3 				"/>
			</g>
			<g>
				<polygon class="st31" points="196.2,77.1 200.3,76.7 200.3,77.8 196.2,78.1 				"/>
			</g>
			<g>
				<polygon class="st31" points="196.2,81.9 200.3,81.8 200.3,82.8 196.2,83 				"/>
			</g>
			<g>
				<polygon class="st31" points="196.2,86.8 200.3,86.8 200.3,87.8 196.2,87.8 				"/>
			</g>
			<g>
				<polygon class="st31" points="196.2,91.7 200.3,91.8 200.3,92.9 196.2,92.7 				"/>
			</g>
		</g>
		<g>
			<g>
				<polygon class="st31" points="181.1,64.9 186.5,63.8 186.5,65.3 181.1,66.4 				"/>
			</g>
			<g>
				<polygon class="st31" points="175.1,66.2 180,65.1 180,66.6 175.1,67.6 				"/>
			</g>
			<g>
				<polygon class="st31" points="169.8,67.3 174.1,66.4 174.1,67.8 169.8,68.6 				"/>
			</g>
			<g>
				<polygon class="st31" points="165,68.3 168.8,67.5 168.8,68.9 165,69.7 				"/>
			</g>
			<g>
				<polygon class="st31" points="160.6,69.3 164.1,68.6 164.1,69.8 160.6,70.5 				"/>
			</g>
			<g>
				<polygon class="st31" points="156.6,70.1 159.8,69.4 159.8,70.7 156.6,71.3 				"/>
			</g>
		</g>
	</g>
	<g>
		<g>
			<g>
				<polygon class="st26" points="192.1,100.5 205,101.9 205,103.6 192.1,102.1 				"/>
			</g>
			<g>
				<polygon class="st27" points="205,105.4 192.1,103.6 192.1,103.4 205,105.1 				"/>
			</g>
			<g>
				<polygon class="st27" points="205,107.3 192,105.4 192.1,105.2 205,107.1 				"/>
			</g>
		</g>
		<g>
			<g>
				<polygon class="st28" points="173.6,98.5 182.5,99.5 182.5,100.9 173.6,99.9 				"/>
			</g>
			<g>
				<polygon class="st27" points="182.5,102.3 173.5,101.1 173.5,100.9 182.5,102.1 				"/>
			</g>
			<g>
				<polygon class="st27" points="182.5,104 173.5,102.6 173.5,102.4 182.5,103.7 				"/>
			</g>
		</g>
		<g>
			<g>
				<polygon class="st26" points="159.8,97 166.7,97.8 166.7,99 159.8,98.2 				"/>
			</g>
			<g>
				<polygon class="st27" points="166.6,100.2 159.8,99.3 159.8,99.1 166.7,100 				"/>
			</g>
			<g>
				<polygon class="st27" points="166.6,101.6 159.8,100.6 159.8,100.4 166.6,101.4 				"/>
			</g>
		</g>
	</g>
	<g>
		<g>
			<polygon class="st28" points="190.8,109.1 204.4,111.5 204.4,110.9 190.8,108.4 			"/>
		</g>
		<g>
			<polygon class="st28" points="188.3,110.2 204.4,113.4 204.4,112.7 188.3,109.6 			"/>
		</g>
		<g>
			<polygon class="st28" points="188.3,111.8 197.8,113.8 197.8,113.1 188.3,111.3 			"/>
		</g>
		<g>
			<polygon class="st28" points="199.3,114.1 204.4,115.2 204.4,114.5 199.3,113.5 			"/>
		</g>
		<g>
			<polygon class="st28" points="188.3,113.5 204.4,117 204.4,116.4 188.3,112.8 			"/>
		</g>
		<g>
			<polygon class="st28" points="188.3,115 204.4,118.9 204.4,118.2 188.3,114.4 			"/>
		</g>
	</g>
	<g>
		<g>
			<path class="st27" d="M202,44.2c1.5-0.5,2.7,0,2.7,1.1c0,1.1-1.2,2.4-2.7,2.8c-1.4,0.5-2.6,0-2.6-1.1
				C199.4,45.9,200.5,44.7,202,44.2z"/>
		</g>
		<g>
			<polygon class="st28" points="178.5,52.5 197.9,46 197.9,47.6 178.5,53.9 			"/>
		</g>
	</g>
</g>
<g>
	<path class="st32" d="M157.8,70.5c0.1,0.2-0.1,0.5-0.3,0.5c0.1,0.2,0.2,0.4,0.2,0.6c0,0.2-0.1,0.5-0.2,0.6c0-0.1-0.1-0.2-0.1-0.2
		c-0.1-0.1-0.1-0.1-0.2-0.2c-0.1-0.1-0.1-0.2-0.1-0.3c0.1-0.2,0.3-0.2,0.3-0.3c-0.1-0.1-0.1-0.2-0.2-0.2c-0.1-0.1,0-0.2,0.1-0.3
		s0.1-0.2,0.2-0.2s0.2-0.2,0.3-0.1C157.8,70.4,157.8,70.5,157.8,70.5z"/>
</g>
<g>
	<g>
		<g>
			<g>
				<g>
					<g>
						<g>
							<path class="st33" d="M137.4,135.8c-0.9-0.5-0.9-0.4-1.7-1.2l-0.4-0.4c-0.6-0.6-0.7-1.3-0.7-2.2c-0.5-11,0.9-14.4-0.1-15.3
								c-0.9,0.1-1.7-0.1-2.6,0.4c-0.2,0.1-0.4,0.2-0.6,0.4c-0.5,0.6-0.8,1.2-0.9,2c-0.2,1.7,0.2,4.6,0.6,6.2
								c0.9,3.1,1.1,4.3,1.5,6.4c0.1,0.6,0.1,1.2,0,1.7c-0.1,0.4-0.2,1-0.2,1.4c0,0.6,0.1,0.9,0.7,1c0.6,0.2,0.8,0,1.2,0.1
								s0.6,0.2,0.9,0.4c0.9,0.5,1.3,0.2,2.3,0c0.5-0.1,0.8-0.5,0.4-0.7C137.8,136,137.6,135.9,137.4,135.8z"/>
						</g>
					</g>
				</g>
			</g>
		</g>
		<g>
			<g>
				<g>
					<g>
						<g>
							<path class="st32" d="M134.9,118.4c0.1-0.9,0-1.4-0.3-1.7c-0.9,0.1-1.7-0.1-2.6,0.4c-0.2,0.1-0.4,0.2-0.6,0.4
								c-0.5,0.6-0.8,1.2-0.9,2c-0.2,1.7,0.2,4.6,0.6,6.2c0.9,3.1,1.1,4.3,1.5,6.4c0.1,0.6,0.1,1.2,0,1.7c-0.1,0.4-0.2,1-0.2,1.4
								c0,0.6,0.1,0.9,0.7,1c0.1-0.6,0.2-1.2,0.2-1.7C133.6,129.5,131.1,122.9,134.9,118.4z"/>
						</g>
					</g>
				</g>
			</g>
		</g>
		<g>
			<g>
				<g>
					<g>
						<g>
							<path class="st34" d="M134,119.5c0.2-0.2,0.5-0.4,0.8-0.6c0.1-1.2,0.1-1.8-0.2-2.1c-0.9,0.1-1.7-0.1-2.6,0.4
								c-0.2,0.1-0.4,0.2-0.6,0.4c-0.5,0.6-0.8,1.2-0.9,2c-0.2,1.7,0.2,4.6,0.6,6.2c0.1,0.4,0.2,0.9,0.4,1.2
								C132,124.3,131.8,121.3,134,119.5z"/>
						</g>
					</g>
				</g>
			</g>
		</g>
		<g>
			<g>
				<g>
					<g>
						<g>
							<path class="st34" d="M138,136.1c-0.2-0.1-0.4-0.2-0.6-0.3c-0.2-0.1-0.4-0.2-0.6-0.3c-0.2,0.2-0.4,0.5-0.6,0.6
								c-1.5-0.2-2.9-0.2-3.6-1.4c-0.1,0.1-0.1,0.4-0.1,0.5c0,0.6,0.1,0.9,0.7,1c0.6,0.2,0.9,0,1.2,0.1c0.4,0.1,0.6,0.2,0.9,0.4
								c0.9,0.5,1.2,0.2,2.3,0C138,136.7,138.4,136.3,138,136.1z"/>
						</g>
					</g>
				</g>
			</g>
		</g>
	</g>
	<g>
		<g>
			<g>
				<g>
					<g>
						<g>
							<path class="st33" d="M130.7,136.2c0,0-0.2-1.5-0.3-2.1c0.2-6.2,1.7-15.8,1.2-17.8c-1.5,0.1-2.8,0.7-4.3,0.6
								c-0.6,5.9,1,13,1.3,17.5c-0.1,0.9-0.2,1.3-0.6,2c-0.1,0.2-0.3,0.4-0.4,0.6c-0.1,0.2-0.1,0.5-0.1,0.7c0.1,0.6,0.2,1,0.4,1.4
								c0.2,0.4,0.6,0.3,0.9,0.3c0.4-0.1,0.9-0.2,1.2-0.5c0.4-0.4,0.8-1.2,0.8-1.9C130.9,137,130.8,136.6,130.7,136.2z"/>
						</g>
					</g>
				</g>
			</g>
		</g>
		<g>
			<g>
				<g>
					<g>
						<g>
							<path class="st32" d="M128,136.6c-0.1,0.2-0.3,0.4-0.4,0.6c-0.1,0.2-0.1,0.5-0.1,0.7c0,0.3,0.1,0.6,0.2,0.9
								c0.3-1,0.6-2,0.7-3.1C128.3,136,128.2,136.3,128,136.6z"/>
						</g>
						<g>
							<path class="st32" d="M129.1,121.4c0.2-0.7,1.3-1.4,2.5-1.4c0.1-1.7,0.2-3,0-3.6c-1.5,0.1-2.8,0.7-4.3,0.6
								c-0.5,5.5,0.9,12,1.2,16.6C128.7,129.7,128.3,125.5,129.1,121.4z"/>
						</g>
					</g>
				</g>
			</g>
		</g>
		<g>
			<g>
				<g>
					<g>
						<g>
							<path class="st34" d="M131.7,119.8c0.1-1.6,0.1-2.8,0-3.3c-1.5,0.1-2.8,0.7-4.3,0.6c-0.1,0.8-0.1,1.7-0.1,2.5
								C128.7,120,130.2,120,131.7,119.8z"/>
						</g>
					</g>
				</g>
			</g>
		</g>
		<g>
			<g>
				<g>
					<g>
						<g>
							<path class="st34" d="M128.2,138c-0.4-0.1-0.4-0.7-0.3-1.1c-0.1,0.1-0.2,0.2-0.2,0.4c-0.1,0.2-0.1,0.5-0.1,0.7
								c0.1,0.6,0.2,1,0.4,1.4c0.2,0.4,0.6,0.3,0.9,0.3c0.4-0.1,0.9-0.2,1.2-0.5c0.4-0.4,0.8-1.2,0.8-1.9c0-0.3-0.1-0.7-0.1-1v-0.1
								C130.4,137.7,129.9,138.4,128.2,138z"/>
						</g>
					</g>
				</g>
			</g>
		</g>
	</g>
	<g>
		<g>
			<g>
				<g>
					<g>
						<g>
							<path class="st35" d="M135.4,117.9c0.4-3.9,0.3-7.6,0.2-11.5c-3.3,0.1-6.7-0.2-9.9-1.1c-0.6,2.2-0.2,4.6,0.4,6.9
								s1.2,4.6,1,6.8C130.3,120.2,134.1,118.4,135.4,117.9z"/>
						</g>
					</g>
				</g>
			</g>
		</g>
		<g>
			<g>
				<g>
					<g>
						<g>
							<path class="st34" d="M125.7,105.2c-0.3,1.2-0.4,2.5-0.2,3.8c3.2,0.1,6.8,0.1,10.2-0.6c0-0.7,0-1.3-0.1-2
								C132.2,106.5,128.9,106.2,125.7,105.2z"/>
						</g>
					</g>
				</g>
			</g>
		</g>
	</g>
	<g>
		<g>
			<g>
				<g>
					<g>
						<g>
							<g>
								<path class="st28" d="M138.7,94.8c-0.4-1-0.9-2.1-1.3-3.1c-0.7-1.6-1-2.7-1.9-4.1l-0.5-0.1c-0.7,0-1.4,0.8-1.5,1.5
									c-0.1,0.7,0.1,1.3,0.3,1.9c0.3,1,0.7,2,1,3c0.2,0.7,0.4,1.4,0.8,2c0.4,0.6,0.8,1.2,1.4,1.5c0.4,0.2,0.9,0.4,1.3,0.2
									c0.5-0.2,0.8-0.8,0.8-1.3C139.1,95.8,138.9,95.3,138.7,94.8z"/>
							</g>
						</g>
					</g>
				</g>
			</g>
			<g>
				<g>
					<g>
						<g>
							<g>
								<path class="st34" d="M134.6,87.7c-0.6,0.2-1,0.9-1.1,1.4c-0.1,0.7,0.1,1.3,0.3,1.9c0.3,1,0.7,2,1,3c0.2,0.7,0.4,1.4,0.8,2
									c0.4,0.6,0.9,1.1,1.4,1.5c0.4,0.2,0.9,0.4,1.3,0.2c0,0,0,0,0.1,0c-0.1-0.1-0.2-0.3-0.2-0.5
									C136.3,94.3,137.8,91.1,134.6,87.7z"/>
							</g>
						</g>
					</g>
				</g>
			</g>
		</g>
		<g>
			<g>
				<g>
					<g>
						<g>
							<g>
								<path class="st28" d="M137.8,97.6c0.6,0.1,1.1-0.2,1.5-0.7c0.4-0.4,0.5-1,0.7-1.5c0.6-1.8,1.4-3.5,2.4-5.1
									c-0.4-0.9-1.3-0.7-1.9-1.1c-1,1.5-2,3.1-3,4.6c-0.4,0.6-0.8,1.3-0.9,2.1C136.6,96.7,137,97.5,137.8,97.6z"/>
							</g>
						</g>
					</g>
				</g>
			</g>
			<g>
				<g>
					<g>
						<g>
							<g>
								<path class="st34" d="M142.1,90.2c0-0.1-0.1-0.1-0.1-0.2c-0.4-0.3-0.9-0.6-1.4-0.6c-0.1,0.6,0.2,1.3,0.6,1.8
									c0.2,0,0.4-0.1,0.5-0.2c0.1-0.1,0.2-0.3,0.4-0.4C142,90.4,142.1,90.4,142.1,90.2z"/>
							</g>
						</g>
					</g>
				</g>
			</g>
			<g>
				<g>
					<g>
						<g>
							<path class="st33" d="M144.7,88.1c-0.1-0.1-0.1-0.1-0.1-0.1c-0.1,0-0.1,0.1-0.2,0.1c-0.3,0.2-0.6,0.3-0.9,0.5
								c0,0,0,0-0.1-0.1c0.4-0.2,0.7-0.5,1-0.7c0.1,0,0.1-0.1,0.1-0.1c0-0.1,0.1-0.1,0-0.1c0-0.1-0.1-0.1-0.1-0.1s-0.1,0-0.1,0.1
								c-0.4,0.2-0.8,0.4-1.2,0.7c0,0,0,0-0.1,0c0.4-0.3,0.8-0.6,1.2-0.9c0.1-0.1,0.1-0.1,0.1-0.2s-0.1-0.1-0.1-0.1
								c-0.1,0-0.1,0-0.1,0.1c-0.6,0.2-1,0.6-1.5,0.9c0,0,0,0-0.1,0c0.4-0.3,0.8-0.6,1.2-0.9c0.1-0.1,0-0.2-0.1-0.2c0,0-0.1,0-0.1,0
								c-0.4,0.2-0.7,0.4-1,0.6c-0.2,0.1-0.4,0.3-0.6,0.4c-0.1,0-0.1,0-0.2,0c-0.2,0-0.2,0-0.3-0.2c-0.1-0.1-0.1-0.2-0.1-0.4
								s-0.2-0.6-0.4-0.6c-0.1,0-0.2,0.4-0.2,0.6c0,0.1,0.1,0.4,0.1,0.5c0.1,0.3,0.1,0.5,0.1,0.9c-0.1,0.3-0.2,0.7-0.2,1
								c0,0.4,0.2,0.7,0.4,0.9c0.1,0.1,0.2,0.1,0.2,0.1c0.1,0,0.1-0.1,0.2-0.1c0.1-0.1,0.3-0.2,0.4-0.4c0.6-0.2,1.2-0.6,1.7-1
								c0.3-0.2,0.6-0.4,0.9-0.7c0.1-0.1,0.1-0.1,0.1-0.1C144.7,88.1,144.8,88.1,144.7,88.1z"/>
						</g>
					</g>
				</g>
			</g>
			<g>
				<path class="st32" d="M141.6,88.2c0,0,0,0.1,0,0.1c0.1,0.2,0.2,0.6,0.1,0.9c0,0.1-0.1,0.1-0.1,0.2s0,0.1,0.1,0.2
					c0.1,0.1,0.1,0,0.2,0c0.4-0.1,0.7-0.2,1.1-0.4c0.1-0.1,0-0.2-0.1-0.3c-0.1-0.1-0.2-0.1-0.2-0.2c0-0.1-0.1-0.1-0.1-0.1
					c-0.1-0.1-0.1-0.1-0.2-0.1s-0.2-0.1-0.2-0.1C142,88.1,141.8,88.1,141.6,88.2L141.6,88.2z"/>
			</g>
		</g>
	</g>
	<g>
		<g>
			<g>
				<g>
					<g>
						<g>
							<path class="st28" d="M125.8,87.5c0.4-0.4,0.9-0.7,1.4-0.9c2.3-0.7,4.9-0.6,7.2,0.4c0.4,0.2,0.8,0.4,1,0.7
								c0.3,0.6,0.2,1.2,0.2,1.8c0.1,1.4,1,2.7,0.6,4.1c-0.3,0.9-1,1.5-1.5,2.3c-0.4,0.7-0.5,1.5-0.4,2.3s0.4,1.6,0.6,2.3
								c0.6,2.3,1.2,3.8,1.2,6.7c-3.6,0.1-7.5,0.6-11.1,0.3c-0.4-2.7,1.3-5.6,1.7-8.2c0.5-3.5-1.4-6.9-1.3-10.4
								C125.4,88.6,125.4,88,125.8,87.5z"/>
						</g>
					</g>
				</g>
			</g>
		</g>
		<g>
			<g>
				<g>
					<path class="st36" d="M130.5,86.5c0.6,1,1,2,1.1,3.1c0.2,1.4,0.1,2.7-0.1,4.1c-0.2,2-0.4,3.9-0.5,6c1,0,2,0.1,2.9,0.1
						c1.4-4.4,0.9-9.3-1.3-13.4C131.9,86.4,131.2,86.5,130.5,86.5z"/>
				</g>
			</g>
		</g>
		<g>
			<path class="st34" d="M133.8,97.3c-0.1-1.8-0.1-3.6-0.3-5.4c-0.2-2-0.7-3.7-1.4-5.1l0.1-0.1c0.7,1.5,1.2,3.1,1.5,5.2
				c0.2,1.8,0.2,3.6,0.3,5.4H133.8z"/>
		</g>
		<g>
			<g>
				<g>
					<g>
						<g>
							<path class="st29" d="M126.1,105.7c2.5-1.2,5.8-0.4,8.7-0.2c0-1.5,0.4-3.3-0.6-4.6c-1.4-2.1-4.1-2.9-5.4-5.1
								c-1-1.7,0.8-3.5-0.2-5.2c-0.7-1.4-1.8-2.2-3.1-2.7c-0.1,0.2-0.1,0.6-0.1,0.9c-0.1,3.5,1.8,7,1.3,10.4
								c-0.4,2.5-1.8,5.1-1.7,7.6C125.1,106.3,125.6,106,126.1,105.7z"/>
						</g>
					</g>
				</g>
			</g>
		</g>
	</g>
	<g>
		<g>
			<g>
				<g>
					<g>
						<g>
							<polygon class="st34" points="134.3,105.2 127.1,105.1 129.1,93.8 136.4,94 							"/>
						</g>
					</g>
				</g>
			</g>
		</g>
		<g>
			<g>
				<g>
					<g>
						<g>
							<polygon class="st26" points="135,104.5 127.8,104.6 127.7,104.2 129.7,93 136.9,93.2 137,93.5 							"/>
						</g>
					</g>
				</g>
			</g>
		</g>
		<g>
			<g>
				<g>
					<g>
						<g>
							<polygon class="st35" points="135.1,104.7 127.8,104.6 129.8,93.3 137,93.4 							"/>
						</g>
					</g>
				</g>
			</g>
		</g>
	</g>
	<g>
		<g>
			<g>
				<g>
					<g>
						<path class="st34" d="M128.3,101.5c1.7,1.3,3.6,2.3,5.6,3.2h1.1l0.4-2.5c-2.3-0.9-4.6-2.1-6.6-3.6L128.3,101.5z"/>
					</g>
				</g>
			</g>
		</g>
	</g>
	<g>
		<g>
			<g>
				<g>
					<g>
						<g>
							<g>
								<path class="st33" d="M132.9,86.2c-0.2-0.8-0.4-1.9-0.4-2.7c-0.7,0.1-1.5,0-2.3-0.2c-0.1,0.9-0.4,2-0.9,2.8
									C130.7,86.7,131.9,86.7,132.9,86.2z"/>
							</g>
						</g>
					</g>
				</g>
			</g>
			<g>
				<g>
					<g>
						<g>
							<g>
								<path class="st32" d="M130.3,83.3c-0.1,0.9-0.4,2-0.9,2.8c0.7,0.3,1.5,0.5,2.2,0.4c-0.6-0.9-0.9-2.1-1-3.2
									C130.5,83.3,130.4,83.3,130.3,83.3z"/>
							</g>
						</g>
					</g>
				</g>
			</g>
			<g>
				<g>
					<g>
						<path class="st36" d="M129.1,85.9c0.1-0.1,0.2-0.1,0.2-0.1c0.1-0.1,0.1-0.1,0.1-0.2s0-0.1,0.1-0.2c0.1-0.1,0.1-0.1,0.1,0
							c0.2,0.2,0.6,0.3,0.9,0.4c0.7,0.1,1.4,0.1,2.1-0.1c0.1,0,0.1-0.1,0.2-0.1s0.1,0.1,0.2,0.1c0.1,0.1,0,0.2,0,0.2
							s0.1,0.1,0.1,0.1c0,0.1,0,0.1-0.1,0.2c-0.1,0.1-0.1,0.1-0.1,0.1c-0.7,0.4-1.5,0.4-2.3,0.3c-0.3-0.1-0.6-0.1-0.9-0.2
							c-0.2-0.1-0.4-0.2-0.5-0.3C129.1,86.1,129.1,86.1,129.1,85.9C129.1,86.1,129.1,86,129.1,85.9z"/>
					</g>
				</g>
			</g>
			<g>
				<g>
					<g>
						<g>
							<g>
								<path class="st34" d="M130.6,83.3c0.1,1.2,1,1.9,2.2,2.2c-0.1-0.7-0.2-1.4-0.2-2C131.9,83.6,131.2,83.5,130.6,83.3z"/>
							</g>
						</g>
					</g>
				</g>
			</g>
			<g>
				<g>
					<g>
						<g>
							<g>
								<path class="st35" d="M131.9,79.1c0.1-0.4,0.4-0.6,0.8-0.7c0.4-0.2,0.8-0.2,1.2,0c0.4,0.2,0.6,0.9,0.5,1.4
									c-0.1,0.5-0.5,0.9-0.9,1.3c-0.1,0.1-0.2,0.2-0.3,0.2c-0.2,0.1-0.4-0.1-0.6-0.2c-0.2-0.2-0.5-0.5-0.7-0.8
									C131.8,79.8,131.8,79.4,131.9,79.1z"/>
							</g>
						</g>
					</g>
				</g>
			</g>
			<g>
				<g>
					<g>
						<g>
							<g>
								<path class="st33" d="M132.4,78.5c0.4,0.1,0.7,0.1,1,0.3c0.3,0.2,0.6,0.7,0.6,1c0,0.6-0.1,0.8-0.1,1c0,0.1,0.1,0.2,0.1,0.4
									c0.2,0.5,0.2,1.3,0.1,1.8c-0.2,0.4-0.4,0.9-0.7,1.3c-0.1,0.1-0.2,0.2-0.4,0.2c-0.9,0-1.8-0.3-2.5-0.9
									c-0.7-0.6-1.2-1.5-1.2-2.5c0-1,0.6-1.9,1.5-2.3C131.1,78.5,131.7,78.5,132.4,78.5z"/>
							</g>
						</g>
					</g>
				</g>
			</g>
			<g>
				<g>
					<g>
						<g>
							<g>
								<path class="st32" d="M133.2,79.4c0.2,0.2,0.4,0.6,0.7,0.9c0-0.1,0-0.1,0-0.1c0.1-0.4-0.2-1.1-0.5-1.3
									c-0.3-0.2-0.7-0.3-1-0.3c-0.6-0.1-1.2-0.1-1.7,0.2c-0.7,0.3-1.2,0.9-1.4,1.6c0.3,0.2,0.6,0.5,1,0.6
									C131.5,81.5,132.4,80.2,133.2,79.4z"/>
							</g>
						</g>
					</g>
				</g>
			</g>
			<g>
				<g>
					<g>
						<g>
							<g>
								<path class="st35" d="M130,77.7c-0.7,0.2-1.4,0.5-1.7,1.2c-1,2.1-0.6,2.8-0.1,3.3c0,0.1,0.1,0.3,0.1,0.4
									c0.3,0.6,1.4,0.8,1.9,1.3c0.3-0.3,0-0.8,0.1-1.2c0.1-0.4,0.2-1,0.5-1.4c0.7-0.3,1.2-0.7,1.5-1.5c0.1-0.4,0.2-0.7,0.4-1
									c0.2-0.3,0.6-0.6,0.9-0.6C133.6,77,131.2,77.3,130,77.7z"/>
							</g>
						</g>
					</g>
				</g>
			</g>
			<g>
				<g>
					<g>
						<g>
							<g>
								<path class="st33" d="M130.4,81.4c-0.1-0.1-0.2-0.2-0.3-0.4c-0.1-0.1-0.1-0.2-0.2-0.2c-0.2,0-0.3,0.1-0.4,0.2
									c-0.1,0.1-0.1,0.4-0.1,0.6c0,0.3,0.1,0.5,0.2,0.8c0.1,0.2,0.1,0.2,0.2,0.3c0.1,0.1,0.7,0,0.8-0.1L130.4,81.4z"/>
							</g>
						</g>
					</g>
				</g>
			</g>
		</g>
	</g>
	<g>
		<g>
			<g>
				<g>
					<g>
						<g>
							<path class="st33" d="M132.6,100.7c0.2,0.2,0.6,0.2,0.9,0.2c0.3-0.1,0.6-0.2,0.9-0.2c0.3-0.1,0.7-0.1,1,0.1
								c0.1,0,0.1,0.1,0.1,0.2c0,0.1-0.2,0.1-0.3,0.1c-0.2,0.1-0.3-0.1-0.5,0c-0.1,0.1-0.2,0.2-0.1,0.4c0,0.1,0.1,0.1,0.1,0.1
								c0.2,0.1,0.4,0.1,0.6,0.2c0.1,0,0.5-0.1,0.6,0.1c0.1,0.1,0.1,0.4,0.1,0.6c-0.1,0.4-0.1,0.6-0.3,0.8c-0.3,0.3-1,0.4-1.5,0.3
								c-0.8-0.2-1.5-0.7-2.1-1.3C132.2,101.7,132.4,101.2,132.6,100.7z"/>
						</g>
					</g>
				</g>
			</g>
		</g>
		<g>
			<g>
				<g>
					<g>
						<g>
							<path class="st28" d="M131.8,102.7c-2.3-1.4-4.7-2.5-6.6-4.4c-0.3-0.3-0.6-0.7-0.9-1c-0.2-0.4-0.2-0.9-0.2-1.4
								c-0.1-1,0.1-2,0.2-3c0.1-1,0.1-2.2,0.4-3.2c0.2-0.9,0.4-1.9,1.1-2.5c0.5-0.5,0.9-0.4,1.4,0.1c0.5,0.6,0.7,1.4,0.7,2.2
								c0.1,1.6,0.1,3.3-0.3,4.9c-0.1,0.5-0.2,1-0.1,1.5c0.1,0.4,0.4,0.7,0.7,1c1.5,1.5,2.9,2.5,4.7,3.6
								C132.5,101.1,132.3,102,131.8,102.7z"/>
						</g>
					</g>
				</g>
			</g>
		</g>
		<g>
			<g>
				<g>
					<g>
						<g>
							<path class="st34" d="M127.4,95.6L127.4,95.6C127.3,95.6,127.3,95.5,127.4,95.6c0.4-1.9,0.7-3.9,0.4-6.1c0-0.1,0-0.1,0.1-0.1
								s0.1,0,0.1,0.1C128.2,91.7,127.8,93.7,127.4,95.6C127.4,95.5,127.4,95.6,127.4,95.6z"/>
						</g>
					</g>
				</g>
			</g>
		</g>
		<g>
			<g>
				<g>
					<g>
						<g>
							<path class="st34" d="M133,100.5C133,100.5,132.9,100.5,133,100.5c-0.4-0.2-0.7-0.4-1-0.7c-1.6-1-3.3-2.2-4.4-3.6
								c0,0,0-0.1,0-0.1c0,0,0.1,0,0.1,0c1.1,1.4,2.7,2.5,4.3,3.6c0.4,0.2,0.7,0.4,1,0.7C133,100.4,133,100.4,133,100.5
								C133,100.5,133,100.5,133,100.5z"/>
						</g>
					</g>
				</g>
			</g>
		</g>
		<g>
			<g>
				<g>
					<g>
						<g>
							<path class="st34" d="M131.8,102.7C131.7,102.7,131.7,102.7,131.8,102.7c-0.1-0.1-0.1-0.1-0.1-0.1c0.3-0.2,0.4-0.7,0.6-1
								v-0.1c0.1-0.4,0.3-0.8,0.6-1.1c0,0,0.1,0,0.1,0c0,0,0,0.1,0,0.1c-0.2,0.3-0.4,0.7-0.6,1v0.1
								C132.4,102,132.2,102.5,131.8,102.7L131.8,102.7z"/>
						</g>
					</g>
				</g>
			</g>
		</g>
		<g>
			<g>
				<g>
					<g>
						<g>
							<path class="st34" d="M130.9,102.3L130.9,102.3c-0.1,0-0.1-0.1-0.1-0.1c0.3-0.6,0.6-1.2,0.8-1.9c0-0.1,0.1-0.1,0.1-0.1
								c0.1,0,0.1,0.1,0.1,0.1c-0.2,0.7-0.5,1.3-0.8,1.9C131,102.3,131,102.3,130.9,102.3z"/>
						</g>
					</g>
				</g>
			</g>
		</g>
	</g>
</g>
<g>
	<polygon class="st37" points="212.5,46.2 276.7,57.8 276.7,104.6 212.5,116.1 	"/>
</g>
<g>
	<g>
		<g>
			<g>
				<polygon class="st28" points="219.8,57.7 274.4,65.8 274.4,92.7 219.8,100.8 				"/>
			</g>
			<g>
				<g>
					<polygon class="st26" points="263,76.2 266.9,76.4 266.9,86.8 263,87.2 					"/>
				</g>
				<g>
					<polygon class="st26" points="256.7,76 261.3,76.2 261.3,87.3 256.7,87.6 					"/>
				</g>
				<g>
					<polygon class="st26" points="249.9,75.8 254.9,76 254.9,87.8 249.9,88.2 					"/>
				</g>
				<g>
					<polygon class="st26" points="242.2,75.7 247.8,75.7 247.8,88.4 242.2,88.8 					"/>
				</g>
				<g>
					<polygon class="st26" points="233.3,75.4 239.9,75.6 239.9,89 233.3,89.4 					"/>
				</g>
				<g>
					<polygon class="st26" points="223.1,75 230.6,75.3 230.6,89.7 223.1,90.2 					"/>
				</g>
				<g>
					<g>
						<polygon class="st29" points="263.8,87.1 263.8,82 266.1,81.9 266.1,86.9 						"/>
					</g>
					<g>
						<polygon class="st29" points="257.8,87.6 257.8,79.8 260.3,79.8 260.3,87.4 						"/>
					</g>
					<g>
						<polygon class="st29" points="251.1,88.1 251.1,84 253.8,83.8 253.8,87.9 						"/>
					</g>
					<g>
						<polygon class="st29" points="243.5,88.7 243.5,81.5 246.6,81.5 246.6,88.4 						"/>
					</g>
					<g>
						<polygon class="st29" points="234.7,89.3 234.7,79 238.5,79 238.5,89.1 						"/>
					</g>
					<g>
						<polygon class="st29" points="224.8,90.1 224.8,77.7 228.9,77.7 228.9,89.8 						"/>
					</g>
				</g>
			</g>
		</g>
		<g>
			<g>
				<polygon class="st26" points="271.3,71.4 272.9,71.5 272.9,71 271.3,70.8 				"/>
			</g>
			<g>
				<polygon class="st26" points="270.4,72.9 272.9,73.1 272.9,72.4 270.4,72.2 				"/>
			</g>
			<g>
				<polygon class="st26" points="268.8,72.2 268.8,72.8 270,72.9 270,72.2 				"/>
			</g>
			<g>
				<polygon class="st26" points="267.9,72.1 267.9,72.7 268.8,72.8 268.8,72.2 				"/>
			</g>
			<g>
				<polygon class="st26" points="271.7,74.5 272.9,74.5 272.9,73.9 271.7,73.9 				"/>
			</g>
			<g>
				<polygon class="st26" points="268.4,74.3 271.5,74.5 271.5,73.9 268.4,73.7 				"/>
			</g>
			<g>
				<polygon class="st26" points="267.9,75.3 267.9,75.8 269.4,75.9 269.4,75.3 				"/>
			</g>
			<g>
				<polygon class="st26" points="269.4,75.9 272.9,76 272.9,75.5 269.4,75.3 				"/>
			</g>
			<g>
				<polygon class="st26" points="270.8,77.5 272.9,77.5 272.9,77 270.8,76.9 				"/>
			</g>
			<g>
				<polygon class="st26" points="269.4,76.9 269.4,77.4 270.4,77.5 270.4,76.9 				"/>
			</g>
			<g>
				<polygon class="st26" points="268.8,77.4 269.4,77.4 269.4,76.9 268.8,76.9 				"/>
			</g>
		</g>
		<g>
			<g>
				<path class="st29" d="M264.4,70.6L264.4,70.6c0-0.2,0.2-0.4,0.4-0.4l2.3,0.2c0.2,0.1,0.4,0.3,0.4,0.4l0,0c0,0.2-0.2,0.4-0.4,0.4
					l-2.3-0.2C264.6,71,264.4,70.8,264.4,70.6z"/>
			</g>
			<g>
				<path class="st29" d="M259.2,70.1L259.2,70.1c0-0.2,0.2-0.4,0.4-0.4l2.5,0.3c0.2,0,0.4,0.3,0.4,0.4l0,0c0,0.2-0.2,0.4-0.4,0.4
					l-2.5-0.2C259.4,70.6,259.2,70.4,259.2,70.1z"/>
			</g>
			<g>
				<path class="st29" d="M253.4,69.7L253.4,69.7c0-0.2,0.2-0.4,0.4-0.4l2.9,0.3c0.2,0,0.4,0.2,0.4,0.4l0,0c0,0.2-0.2,0.4-0.4,0.4
					l-2.9-0.3C253.6,70.1,253.4,69.9,253.4,69.7z"/>
			</g>
			<g>
				<path class="st29" d="M247,69.1L247,69.1c0-0.3,0.4-0.4,0.6-0.4l3.1,0.3c0.2,0.1,0.4,0.3,0.4,0.5l0,0c0,0.3-0.2,0.4-0.4,0.4
					l-3.1-0.3C247.2,69.7,247,69.4,247,69.1z"/>
			</g>
			<g>
				<path class="st29" d="M239.7,68.4L239.7,68.4c0-0.3,0.2-0.4,0.6-0.4l3.5,0.4c0.4,0,0.6,0.3,0.6,0.5l0,0c0,0.3-0.4,0.4-0.6,0.4
					l-3.5-0.3C240.1,69,239.7,68.8,239.7,68.4z"/>
			</g>
			<g>
				<path class="st29" d="M231.6,67.9L231.6,67.9c0-0.3,0.2-0.4,0.6-0.4l4.2,0.4c0.4,0,0.6,0.3,0.6,0.5l0,0c0,0.3-0.2,0.4-0.6,0.4
					l-4.2-0.4C231.8,68.4,231.6,68.1,231.6,67.9z"/>
			</g>
			<g>
				<path class="st29" d="M222.5,67.1L222.5,67.1c0-0.4,0.4-0.5,0.8-0.5l4.6,0.4c0.2,0.1,0.6,0.4,0.6,0.6l0,0c0,0.3-0.2,0.4-0.6,0.4
					l-4.6-0.4C222.9,67.6,222.5,67.3,222.5,67.1z"/>
			</g>
		</g>
	</g>
	<g>
		<path class="st26" d="M269,79.1c0.4,0,0.8,0.4,0.8,0.8c0,0.4-0.4,0.8-0.8,0.8c-0.4,0-0.8-0.4-0.8-0.8
			C268.1,79.4,268.6,79.1,269,79.1z"/>
	</g>
	<g>
		<path class="st26" d="M269,82.6c0.4,0,0.8,0.4,0.8,0.8c0,0.4-0.4,0.8-0.8,0.8c-0.4,0-0.8-0.4-0.8-0.8
			C268.1,83,268.6,82.5,269,82.6z"/>
	</g>
	<g>
		<path class="st26" d="M269,86c0.4-0.1,0.8,0.3,0.8,0.7s-0.4,0.9-0.8,0.9c-0.4,0.1-0.8-0.3-0.8-0.7S268.6,86.1,269,86z"/>
	</g>
</g>
<g>
	<g>
		<g>
			<g>
				<g>
					<g>
						<g>
							<g>
								<path class="st33" d="M289.9,78.6c0.1,1.9-0.4,3.8-0.9,5.7c1.5-0.7,3.2-1,4.8-0.9c-0.7-1.6-1-3.5-1.2-5.1
									C292,78.1,290.6,78.3,289.9,78.6z"/>
							</g>
						</g>
					</g>
				</g>
				<g>
					<g>
						<g>
							<g>
								<path class="st32" d="M289,84.2c0.3-0.1,0.7-0.3,1-0.4c0.7-1.9,1.9-3.8,2.3-5.7c-0.7,0-1.8,0.1-2.4,0.4
									C290,80.5,289.5,82.4,289,84.2z"/>
							</g>
						</g>
					</g>
				</g>
				<g>
					<g>
						<g>
							<g>
								<path class="st35" d="M289.8,80.8c1-0.5,1.9-1.4,2.3-2.6c-0.7,0-1.6,0.1-2.2,0.4C289.9,79.3,289.9,80,289.8,80.8z"/>
							</g>
						</g>
					</g>
				</g>
			</g>
			<g>
				<g>
					<path class="st33" d="M287.2,76.5c0,0.1,0,0.2,0.1,0.3c0.1,0.1,0.4,0.1,0.5,0.2c0.1,0.3,0.1,0.7,0.2,1c0.1,0.3,0.3,1.5,0.7,1.5
						c1.1-0.1,2.6-0.4,3.5-1c1.3-1,1.5-3,0.8-4.4c-0.5-1.1-1.9-1.3-3-1.1c-0.7,0.1-1.5,0.7-1.5,1.4c-0.1,0.3,0.1,0.9-0.1,1.2
						c-0.2,0.4-0.7,0.7-1,1C287.3,76.5,287.2,76.5,287.2,76.5z"/>
				</g>
			</g>
			<g>
				<g>
					<path class="st32" d="M288.5,74c0.4,0.7,1,1.4,1.7,2.1c0.5-0.4,1.1-0.8,1.6-0.5c0.4,0.7,0.3,1.5-0.1,2.1
						c0.2,0.2,0.4,0.4,0.6,0.7c1-1.1,1.3-3,0.6-4.3c-0.5-1.1-1.9-1.3-3-1.1C289.3,73.1,288.7,73.4,288.5,74z"/>
				</g>
				<g>
					<path class="st33" d="M287.2,76.6c0,0.1,0,0.2,0.1,0.3c0.1,0.1,0.4,0.1,0.5,0.2c0.1,0.3,0.1,0.7,0.2,1c0.1,0.3,0.3,1.5,0.7,1.5
						c1.1-0.1,2.6-0.4,3.5-1c0.1,0,0.1-0.1,0.2-0.1c-1.2-1.5-2.9-2.6-3.9-4.3c0,0.1-0.1,0.1-0.1,0.3c-0.1,0.3,0.1,0.9-0.1,1.2
						c-0.2,0.4-0.7,0.7-1,1C287.3,76.5,287.2,76.5,287.2,76.6z"/>
				</g>
			</g>
			<g>
				<path class="st32" d="M290.8,75.8c0.1-0.1,0.2,0,0.3,0.1c0.1,0.1,0.1,0.3,0.1,0.4c-0.1,0.1-0.2,0.1-0.3,0.1
					c0.1,0.1,0.1,0.1,0.2,0.2c0.1,0.1,0.1,0.2,0.1,0.4s-0.1,0.2-0.2,0.3c0-0.1-0.1-0.2-0.2-0.3c0,0-0.1-0.1-0.1-0.1
					s-0.1-0.1-0.1-0.1c0.1-0.1,0.2-0.1,0.2-0.3c0-0.1-0.1-0.1-0.1-0.1c-0.1,0,0-0.1,0-0.1C290.7,76,290.7,75.9,290.8,75.8z"/>
			</g>
			<g>
				<g>
					<path class="st35" d="M294.3,73.2c0.5,1.5,0,3.3-1.2,4.3c0.2,0.5,0.5,1.1,1,1.5s1.1,0.7,1.7,0.6c0.7-0.1,1.3-0.4,1.5-1
						c0.2-0.5,0.2-1,0.1-1.5c-0.1-0.5-0.3-1-0.4-1.5c-0.1-0.8,0-1.6-0.3-2.4c-0.1-0.4-0.4-0.7-0.7-0.8c-0.3-0.1-0.7-0.1-1,0.1
						c-0.3,0.2-0.4,0.7-0.1,1L294.3,73.2z"/>
				</g>
				<g>
					<path class="st35" d="M288.9,74.2c0.3,0.4,0.8,0.7,1,1.2c0.1,0.2,0.1,0.4,0.2,0.6c0.2-0.1,0.5-0.4,0.7-0.4
						c0.3,0,0.4,0.3,0.5,0.5c0.1,0.2,0,0.5-0.1,0.7c-0.1,0.2-0.1,0.4-0.2,0.6c0.7,0.7,1.4,0.5,1.5,1.3c0.4-0.1,0.4-0.3,1.2-0.8
						c0.9-0.5,1.3-1.7,1.5-2.6c0.1-1-0.3-2.1-1.2-2.6c-0.6-0.4-1.3-0.4-2-0.4c-1.1,0-2.2,0.1-3.3,0.2
						C288.5,73.1,288.6,73.8,288.9,74.2z"/>
				</g>
				<g>
					<g>
						<g>
							<g>
								<path class="st28" d="M295.5,74.2c-0.1-0.3-0.3-0.6-0.7-0.7c0.3,0.6,0.4,1.2,0.4,1.8C295.6,75,295.7,74.6,295.5,74.2z"/>
							</g>
						</g>
					</g>
				</g>
			</g>
		</g>
	</g>
	<g>
		<g>
			<g>
				<g>
					<g>
						<path class="st35" d="M281.9,135.8c0.1,0.4,1.2,0.4,1.5,0.4c0.9,0,1.2-0.1,2.1-0.2c0.9-0.1,1.3,0,2.1-0.1c0.1,0,0.8-0.2,1-0.3
							c0.4-0.2,0.3-0.7,0.2-1c0-0.1-0.1-0.3-0.1-0.4c-1.5,1.7-3.2,1.3-4.9,0.7c0-0.1-0.1-0.2-0.1-0.3c-0.3,0.1-0.7,0.3-1,0.4
							c-0.1,0.1-0.4,0.1-0.5,0.3C282.1,135.5,281.9,135.7,281.9,135.8z"/>
					</g>
				</g>
			</g>
		</g>
		<g>
			<g>
				<path class="st32" d="M283.5,134.8c0.1,0.1,0.1,0.1,0.1,0.2c1.4,0.7,3.5,1.1,5-0.6c-0.1-0.7-0.2-1.4-0.3-2.1
					c0.1-3.6,1.1-5.2,1.5-8.8c0.1-0.7-0.3-5.1-0.1-5.8c0.5-3.3,0.9-5.1,1.6-8.3c0.4-2.1,1-4.1,1-6.2h-8.5c0.9,9.4,1.6,18.7,2.5,28.1
					c0,0.3,0,0.7,0,1c0,0,0.1,0.8-0.7,1.4C285,134,284.3,134.4,283.5,134.8z"/>
			</g>
		</g>
		<g>
			<g>
				<path class="st34" d="M287.4,135.4c0.4-0.2,0.9-0.5,1.3-1c-0.1-0.7-0.2-1.4-0.3-2.1c0.1-3.6,1.1-5.2,1.5-8.8
					c0.1-0.7-0.3-5.1-0.1-5.8c0.5-3.3,0.9-5.1,1.6-8.3c0.4-2.1,1-4.1,1-6.2h-8.6c0.4,4.8,0.9,9.4,1.3,14.1c0.1,0.1,0.2,0.1,0.3,0.1
					c0.2,0.1,0.4,0.3,0.4,0.5C286.6,123.7,288,129.5,287.4,135.4z"/>
			</g>
		</g>
	</g>
	<g>
		<g>
			<g>
				<g>
					<g>
						<path class="st35" d="M283.6,137.5c0.1,0.4,1.2,0.4,1.5,0.4c0.9,0,1.2-0.1,2.1-0.2s1.3,0,2.1-0.1c0.1,0,0.8-0.2,1-0.3
							c0.4-0.2,0.3-0.7,0.2-1c0-0.1-0.1-0.3-0.1-0.4c-1.5,1.7-3.2,1.3-4.9,0.7c0-0.1-0.1-0.2-0.1-0.3c-0.3,0.1-0.7,0.3-1,0.4
							c-0.1,0.1-0.4,0.1-0.5,0.3C283.7,137.2,283.6,137.4,283.6,137.5z"/>
					</g>
				</g>
			</g>
		</g>
		<g>
			<g>
				<path class="st33" d="M285.1,136.5c0.1,0.1,0.1,0.1,0.1,0.2c1.4,0.7,3.5,1.1,5-0.6c-0.1-0.7-0.2-1.4-0.3-2.1
					c0.1-3.6,1.1-5.2,1.5-8.8c0.1-0.7-0.3-5.1-0.1-5.8c0.5-3.3,0.9-5.1,1.6-8.3c0.4-2.1,1-4.1,1-6.2h-8.5c0.9,9.4,1.6,18.7,2.5,28.1
					c0,0.3,0,0.7,0,1c0,0,0.1,0.8-0.7,1.4C286.7,135.7,286,136.1,285.1,136.5z"/>
			</g>
		</g>
		<g>
			<g>
				<path class="st32" d="M285.3,136.6c0.7,0.3,1.4,0.6,2.2,0.6c2.6-5.9-1-12.8,1-19.2c0.2-0.7,1.8-0.1,3,0.7
					c0.5-2.9,0.9-4.6,1.5-7.7c0.4-2.1,1-4.1,1-6.2h-8.5c0.9,9.4,1.6,18.7,2.5,28.1c0,0.3,0,0.7,0,1c0,0,0.1,0.8-0.7,1.4
					c-0.6,0.4-1.3,0.8-2.1,1.2C285.3,136.5,285.3,136.6,285.3,136.6z"/>
			</g>
		</g>
		<g>
			<g>
				<path class="st34" d="M291.7,118.1c0.4-2.6,0.8-4.2,1.4-7.1c0.4-2.1,1-4.1,1-6.2h-8.5c0.4,4.2,0.7,8.3,1.1,12.5
					C288.5,117.1,290.2,117.3,291.7,118.1z"/>
			</g>
		</g>
	</g>
	<g>
		<g>
			<g>
				<path class="st29" d="M292.8,116.9c-0.3-5.2,1.9-10.4,1.7-13.4c-0.1-1.4-0.3-1.5-0.4-2.4c-0.4-1.8-0.9-1.1-1-5.4
					c-2.6,0.8-5.4,0.9-8.1,0.4c-0.4,1.2-0.5,1.5-0.9,2.7c-0.4,1.3-0.7,2.5-0.7,4c-0.1,3.5,0.2,11.2,0.3,14.1H292.8z"/>
			</g>
		</g>
		<g>
			<g>
				<path class="st35" d="M290,98.9c1.1-0.2,2.4-0.2,3.2-1c-0.3-0.9-0.3-1.9-0.2-2.9c-2.7,0.8-5.7,1.2-8.5,1
					c-0.1,0.7-0.1,1.5-0.3,2.1C286.1,99,286.8,99.5,290,98.9z"/>
			</g>
		</g>
	</g>
	<g>
		<g>
			<g>
				<g>
					<g>
						<g>
							<path class="st28" d="M293.1,95.8c0.9-0.8-0.1-3.2,0.4-4.8c0.5-1.8,1.5-3.5,2.1-5.2c0.2-1,0.2-2.1-0.7-2.6
								c-0.4-0.2-0.9-0.3-1.4-0.4c-0.2,0-0.4-0.1-0.6-0.1h-3.3c-1.5,0-2.8,0.7-3.5,2c-0.4,0.7-0.9,1.5-1,2.3
								c-0.2,1.2,0.3,2.4,0.5,3.6c0.3,1.9-0.1,3.8-0.7,5.6C287.6,96.6,290.4,96.5,293.1,95.8z"/>
						</g>
					</g>
				</g>
			</g>
			<g>
				<g>
					<g>
						<g>
							<path class="st32" d="M288.2,96.5c0.9-1.9,1.2-4.2,0.7-6.8c-0.3-1.6,2.6-2.3,3.8-3.5c0.8-0.8,1.2-2.1,1.3-3.3
								c-0.1,0-0.4-0.1-0.5-0.1c-0.2,0-0.4-0.1-0.6-0.1h-3.3c-1.5,0-2.8,0.7-3.5,2c-0.4,0.7-0.9,1.5-1,2.3c-0.2,1.2,0.3,2.4,0.5,3.6
								c0.3,1.9-0.1,3.8-0.7,5.6C286,96.3,287.1,96.5,288.2,96.5z"/>
						</g>
					</g>
				</g>
			</g>
			<g>
				<g>
					<path class="st26" d="M289.5,81.7c-0.6,1-1.8,1.5-2.6,2.3c-1.3,1.3-1.7,3.1-1.7,4.8c-0.1,1.7,0.2,3.4-0.1,5.1
						c-0.1,0.3-0.1,0.7,0.1,1s0.7,0.4,1.1,0.3c0.4-0.1,0.7-0.3,1-0.6c0.7-0.8,0.9-1.9,0.8-2.9c-0.1-1-0.4-2-0.7-3s-0.2-2.1,0.2-3
						c0.7-1.6,2.8-2.4,4-3.8C290.9,81.8,290.2,81.8,289.5,81.7z"/>
				</g>
			</g>
			<g>
				<g>
					<path class="st35" d="M285.1,94.7c0.1,0.1,0.1,0.1,0.3,0.2c-0.3-2.9-0.5-5.9,0.7-8.5c1-1.6,2.6-3,3.7-4.7
						c-0.1-0.1-0.2-0.1-0.4-0.1c-0.6,1-1.8,1.5-2.6,2.3c-1.3,1.3-1.7,3.1-1.7,4.8c-0.1,1.7,0.2,3.4-0.1,5.1
						C285,94.1,284.9,94.5,285.1,94.7z"/>
				</g>
			</g>
			<g>
				<g>
					<g>
						<g>
							<path class="st35" d="M286.4,85.4c1.1,0.5,1.1,2,2.3,2.3c1.2,0.3,2.4-0.6,3.5-1c1.2-0.4,2.2-1.2,2.5-2.3
								C291.6,85.5,289.5,86,286.4,85.4z"/>
						</g>
					</g>
				</g>
			</g>
			<g>
				<g>
					<g>
						<g>
							<path class="st35" d="M293.8,85.9C293.8,85.9,293.8,85.8,293.8,85.9c-0.1-0.1-0.2-0.1-0.2,0c-0.3,0.9-0.7,1.8-1.2,2.6
								c-0.2,0.5-0.5,1-0.7,1.5c-0.8,1.7-1.3,3.8-1.4,6h0.2c0.1-2.2,0.6-4.2,1.4-5.9c0.2-0.4,0.5-1,0.7-1.4
								C293.1,87.8,293.6,86.9,293.8,85.9z"/>
						</g>
					</g>
				</g>
			</g>
		</g>
		<g>
			<g>
				<path class="st26" d="M293.3,81.1c0.4,0.3,0.7,1.3,0.8,1.7c-2.4,0.1-4.3-0.3-5.7-0.2c0.2-0.7,0.5-1.4,1.2-1.7
					c0.4-0.1,0.7-0.1,1.1-0.1c0.6,0.1,1.2,0.1,1.8,0.1C292.8,81,293.1,81.1,293.3,81.1z"/>
			</g>
		</g>
	</g>
	<g>
		<g>
			<path class="st32" d="M268.6,78.3c0,0.4,0.4,0.4,0.7,0.5c0.3,0.1,0.7,0.2,1.1,0.4c-0.1,0.1-0.3,0.2-0.3,0.4
				c0,0.1,0.1,0.2,0.1,0.3c-0.1,0.1-0.1,0.1-0.1,0.3s0.2,0.2,0.4,0.4c-0.1,0.3,0.1,0.4,0.3,0.7c0.1,0.1,0.4,0.3,0.6,0.3
				c0.3,0.1,0.9,0.1,1,0.1c0.7,0.2,1,0.5,1.8,0.8c0.1-0.4,0.4-1,0.5-1.4l-0.8-0.4c-0.6-0.4-1-0.8-1.1-1.5c-0.1-0.1-0.2-0.3-0.4-0.4
				c-0.7-0.2-0.7-0.6-1.3-0.7c-0.1,0.1,0.1,0.4,0.1,0.5c0.1,0.1,0.1,0.1,0.2,0.2c0.1,0.1,0.4,0.3,0.4,0.4
				C270.8,78.9,269.7,78.6,268.6,78.3z"/>
		</g>
		<g>
			<g>
				<g>
					<g>
						<path class="st28" d="M272.2,82c0.8,0.4,1.8,1,2.4,1.2c3.1,1.3,5.5,2.2,8.8,2.8s6.8,1.3,10,0.4c0.9-0.2,2-1.4,1.8-2.5
							c-0.1-0.2-0.1-0.4-0.3-0.7c-0.7-1-2-1.3-3.1-1.4c-1.3-0.1-2.4,0.1-3.6,0.3c-5,0.6-10.4,0-15-2C272.9,80.6,272.6,81.5,272.2,82
							z"/>
					</g>
				</g>
			</g>
		</g>
		<g>
			<g>
				<g>
					<g>
						<path class="st26" d="M272.3,82c0.5,0.3,1.1,0.6,1.6,0.9c0.1-0.8,0.4-1.6,0.7-2.4c-0.4-0.1-0.9-0.3-1.3-0.5
							C272.9,80.5,272.6,81.5,272.3,82z"/>
					</g>
				</g>
			</g>
		</g>
		<g>
			<g>
				<g>
					<g>
						<path class="st35" d="M274.1,82.1c3.8,2,8.1,3,12.4,3c1.5,0,2.9-0.1,4.3-0.4h0.1c0.4-0.1,0.8-0.1,1.3-0.1
							c0.5,0.1,1,0.2,1.3,0.5c0.1,0.1,0.1,0.1,0.1,0c0.1-0.1,0.1-0.1,0-0.1c-0.3-0.3-0.8-0.5-1.4-0.5c-0.4,0-0.9,0.1-1.3,0.1h-0.1
							c-5.7,1-11.7,0-16.8-2.6C274,82,274,82.1,274.1,82.1z"/>
					</g>
				</g>
			</g>
		</g>
	</g>
	<g>
		<g>
			<g>
				<g>
					<g>
						<path class="st26" d="M283.4,96.7l-3-8.5c-0.1-0.2,0-0.4,0.2-0.5l3.5-1.5c0.2-0.1,0.5,0.1,0.6,0.3l2.8,9.8
							c0.1,0.2-0.1,0.5-0.4,0.5l-3.2,0.1C283.7,97,283.5,96.8,283.4,96.7z"/>
					</g>
				</g>
			</g>
		</g>
		<g>
			<g>
				<g>
					<g>
						<path class="st35" d="M283.4,97l-3.1-8.8c0-0.1,0-0.2,0.1-0.3l3.8-1.6c0.1-0.1,0.2,0,0.3,0.1l2.9,10.2c0,0.1-0.1,0.3-0.2,0.3
							l-3.7,0.2C283.5,97.2,283.3,97.1,283.4,97z"/>
					</g>
				</g>
			</g>
		</g>
		<g>
			<g>
				<g>
					<g>
						<path class="st33" d="M280.4,93.1c0.1,0.1,0.4,0.3,0.7,0.4c0.1,0.1,0.2,0.1,0.4,0.1c0.1,0.1,0.2,0.1,0.4,0.1h0.1
							c0.1,0.1,0.1,0.1,0.2,0.1h0.1l0,0c0.2,0,0.4,0.1,0.6,0.1c0,0,0.1,0,0.1,0s0.1-0.1,0.1-0.1c-0.1,0-0.1-0.1-0.1-0.1
							c-0.4-0.1-0.7-0.3-1-0.4l-0.1-0.4c0.3-0.1,0.5-0.2,0.7-0.4c0.1-0.1,0.3-0.1,0.4-0.3c0-0.1,0-0.1-0.1-0.2c-0.1,0-0.1,0-0.1,0
							c0.1,0,0.1-0.1,0.2-0.1c0.1-0.1,0.1-0.2,0-0.3c-0.1-0.1-0.3-0.1-0.4-0.1c-0.4,0.1-0.7,0.1-1.1,0.2v-0.1
							c0.3-0.1,0.5-0.2,0.8-0.4c0.1,0,0.1-0.1,0.1-0.1c0-0.1-0.1-0.1-0.1-0.1c-0.1,0-0.1,0-0.2,0c-0.3,0-0.6,0.1-0.9,0.1
							c-0.1-0.2-0.1-0.4-0.1-0.6c0-0.1,0-0.1,0-0.2c0.1-0.2,0.2-0.4,0.3-0.5c0.1-0.3-0.1-0.6-0.4-0.7c-0.1,0.3-0.3,0.7-0.4,1
							c0,0.1-0.1,0.1-0.1,0.2c-0.1,0.2,0,0.4,0.1,0.6c0,0.1,0,0.4-0.1,0.5c0,0.1,0,0.1,0,0.1c0,0.1-0.1,0.2-0.1,0.3
							C280.1,92.3,280,92.8,280.4,93.1z M281.5,92.3L281.5,92.3c0.1-0.1,0.2-0.1,0.4-0.1C281.8,92.2,281.7,92.3,281.5,92.3z"/>
					</g>
				</g>
			</g>
		</g>
	</g>
</g>
</svg>
