<?xml version="1.0" encoding="utf-8"?>
<!-- Generator: Adobe Illustrator 25.0.1, SVG Export Plug-In . SVG Version: 6.00 Build 0)  -->
<svg version="1.1" id="Layer_1" xmlns="http://www.w3.org/2000/svg" xmlns:xlink="http://www.w3.org/1999/xlink" x="0px" y="0px"
	 viewBox="0 0 500 500" style="enable-background:new 0 0 500 500;" xml:space="preserve">
<style type="text/css">
	.st0{fill:#FFFFFF;}
	.st1{fill:#86A7FF;}
	.st2{fill:#D3DFFF;}
	.st3{opacity:0.2;fill:#1F3C88;}
	.st4{fill:#3A6BEA;}
	.st5{fill:#102048;}
	.st6{fill:#E28B6D;}
	.st7{fill:#F9B384;}
	.st8{fill:#FBC343;}
	.st9{fill:#E49B31;}
	.st10{fill:#1F3C88;}
</style>
<g>
	<g>
		<g>
			<path class="st0" d="M55.4,171.3c0-6.5-9-11.7-20-11.7s-20,5.3-20,11.7c0,6.5,9,11.7,20,11.7c2.4,0,4.7-0.3,6.9-0.7
				c1.5,1.8,4.1,3.4,8.5,4.3c0,0-1.6-2.9-2.6-6.3C52.6,178.1,55.4,174.9,55.4,171.3z"/>
			<path class="st1" d="M51.9,187.5l-1.3-0.3c-3.9-0.8-6.7-2.3-8.6-4.3c-2.1,0.4-4.4,0.7-6.6,0.7c-5.4,0-10.6-1.2-14.4-3.5
				c-4-2.3-6.2-5.5-6.2-8.8c0-3.4,2.2-6.5,6.2-8.8c3.9-2.3,9-3.5,14.4-3.5c5.4,0,10.6,1.2,14.4,3.5c4,2.3,6.2,5.5,6.2,8.8
				c0,3.6-2.6,7-7.1,9.4c1,3.1,2.4,5.7,2.4,5.7L51.9,187.5z M42.5,181.6l0.2,0.3c1.4,1.7,3.7,3,6.9,3.8c-0.6-1.2-1.4-3.1-2-5.3
				l-0.1-0.5l0.5-0.2c4.4-2.1,6.9-5.2,6.9-8.5c0-6.1-8.7-11.1-19.4-11.1c-10.7,0-19.4,5-19.4,11.1s8.7,11.1,19.4,11.1
				c2.3,0,4.6-0.2,6.7-0.7L42.5,181.6z"/>
		</g>
		<g>
			<rect x="23.9" y="168.3" class="st1" width="22.8" height="0.8"/>
			<rect x="23.9" y="172.7" class="st1" width="16.8" height="0.8"/>
		</g>
	</g>
	<g>
		<g>
			<path class="st0" d="M436.1,157.7c0-6.5,9-11.7,20-11.7c11,0,20,5.3,20,11.7c0,6.5-9,11.7-20,11.7c-2.4,0-4.7-0.3-6.9-0.7
				c-1.5,1.8-4.1,3.4-8.5,4.3c0,0,1.6-2.9,2.6-6.3C439,164.5,436.1,161.3,436.1,157.7z"/>
			<path class="st1" d="M439.7,173.9l0.6-1.1c0,0,1.4-2.7,2.4-5.7c-4.5-2.3-7.1-5.7-7.1-9.4c0-3.4,2.2-6.5,6.2-8.8
				c3.9-2.3,9-3.5,14.4-3.5s10.6,1.2,14.4,3.5c4,2.3,6.2,5.5,6.2,8.8s-2.2,6.5-6.2,8.8c-3.9,2.3-9,3.5-14.4,3.5
				c-2.3,0-4.5-0.2-6.6-0.7c-1.8,2-4.7,3.4-8.6,4.3L439.7,173.9z M456.1,146.5c-10.7,0-19.4,5-19.4,11.1c0,3.3,2.5,6.4,6.9,8.5
				l0.5,0.2l-0.1,0.5c-0.6,2.1-1.5,4.1-2,5.3c3.1-0.8,5.4-2.1,6.9-3.8l0.2-0.3l0.4,0.1c2.2,0.5,4.4,0.7,6.7,0.7
				c10.7,0,19.4-5,19.4-11.1S466.8,146.5,456.1,146.5z"/>
		</g>
		<g>
			<rect x="444.9" y="154.7" class="st1" width="22.8" height="0.8"/>
			<rect x="444.9" y="159.1" class="st1" width="16.8" height="0.8"/>
		</g>
	</g>
	<g>
		<g>
			<g>
				<rect x="212.3" y="308.3" class="st2" width="69.6" height="78.4"/>
				<path class="st1" d="M282.5,387.3h-70.8v-79.6h70.8V387.3z M212.9,386.1h68.4v-77.2h-68.4V386.1z"/>
			</g>
			<rect x="212.3" y="308.3" class="st3" width="69.6" height="33.4"/>
			<circle class="st0" cx="247.1" cy="334.1" r="18.5"/>
		</g>
		<g>
			<g>
				<path class="st2" d="M363.6,329.7h-233c-18.4,0-33.3-14.9-33.3-33.3V146.5c0-18.4,14.9-33.3,33.3-33.3h233.1
					c18.4,0,33.3,14.9,33.3,33.3v149.9C396.9,314.8,382,329.7,363.6,329.7z"/>
				<path class="st1" d="M390.3,330.3H103.9c-4,0-7.3-3.3-7.3-7.3V119.8c0-4,3.3-7.3,7.3-7.3h286.4c4,0,7.3,3.3,7.3,7.3V323
					C397.5,327,394.3,330.3,390.3,330.3z M103.9,113.7c-3.3,0-6.1,2.7-6.1,6.1V323c0,3.3,2.7,6.1,6.1,6.1h286.4
					c3.3,0,6.1-2.7,6.1-6.1V119.8c0-3.3-2.7-6.1-6.1-6.1H103.9z"/>
			</g>
			<g>
				<rect x="102.6" y="120.8" class="st0" width="288.8" height="177.9"/>
				<path class="st1" d="M392.1,299.2H102V120.2h290V299.2z M103.2,298h287.6V121.4H103.2V298z"/>
			</g>
		</g>
		<g>
			<g>
				<rect x="211.8" y="136.3" class="st2" width="65.3" height="7.6"/>
				<rect x="159.8" y="151.4" class="st2" width="169.4" height="2.9"/>
			</g>
			<g>
				<rect x="296.4" y="236.9" class="st1" width="65.4" height="2.9"/>
				<rect x="296.4" y="244" class="st1" width="56.3" height="2.9"/>
				<rect x="296.4" y="251.1" class="st1" width="35.5" height="2.9"/>
			</g>
			<g>
				<rect x="296.4" y="264.3" class="st2" width="57.5" height="2.9"/>
				<rect x="296.4" y="271.4" class="st2" width="49.5" height="2.9"/>
			</g>
			<g>
				<rect x="127.4" y="229.9" class="st2" width="27.7" height="43.5"/>
				<rect x="162.2" y="229.8" class="st1" width="31.2" height="14.4"/>
				<rect x="162.2" y="251.2" class="st2" width="31.2" height="22.2"/>
			</g>
			<g>
				<path class="st1" d="M273.4,273.7h-57.7c-2.5,0-4.5-2-4.5-4.5v-29c0-2.5,2-4.5,4.5-4.5h57.7c2.5,0,4.5,2,4.5,4.5v29
					C277.8,271.7,275.8,273.7,273.4,273.7z M215.6,236.5c-2.1,0-3.8,1.7-3.8,3.8v29c0,2.1,1.7,3.8,3.8,3.8h57.7
					c2.1,0,3.8-1.7,3.8-3.8v-29c0-2.1-1.7-3.8-3.8-3.8H215.6z"/>
				<polygon class="st4" points="218.1,265.7 217.5,265.4 221.4,257.5 226.3,262.6 232.1,250.1 239.9,257.4 248.5,248.8 
					256.8,253.9 267.6,242.7 268.1,243.2 256.9,254.8 248.6,249.7 239.9,258.4 232.3,251.2 226.5,263.8 221.6,258.7 				"/>
				<g>
					<rect x="247.5" y="264.1" class="st1" width="6.6" height="3.5"/>
					<rect x="258.5" y="265.5" class="st4" width="11.5" height="0.7"/>
				</g>
			</g>
			<g>
				<path class="st2" d="M270.5,189.2c-2.3-8.7-9-15.7-17.5-18.6l-8.6,25.6L270.5,189.2z"/>
				<path class="st1" d="M244.5,196.2l-11.9,24.2c3.6,1.8,7.6,2.8,11.9,2.8c14.9,0,27-12.1,27-27c0-2.4-0.3-4.8-0.9-7L244.5,196.2z"
					/>
				<path class="st4" d="M253.1,170.6c-2.7-0.9-5.6-1.4-8.6-1.4c-14.9,0-27,12.1-27,27c0,10.6,6.1,19.8,15,24.2l11.9-24.2
					L253.1,170.6z"/>
			</g>
			<g>
				<g>
					<rect x="141.4" y="215.1" class="st2" width="38" height="2.9"/>
				</g>
				<g>
					<path class="st1" d="M193.7,208.8h-66.7v-38.5h66.7V208.8z M127.8,208.1H193V171h-65.3V208.1z"/>
					<g>
						<path class="st2" d="M188.8,178.7c-2.2-0.4-4.4,1-5.8,2.8c-0.7,0.8-1.2,1.8-1.7,2.7c-0.6,1-1.2,2.1-1.9,3
							c-1.4,1.8-3.5,3.3-5.7,3c-3.6-0.6-5.6-5.5-9.3-5.5c-1.7,0-3.2,1.2-4.3,2.5c-1.2,1.3-2.2,2.7-3.7,3.5c-2.1,1.1-4.7,0.7-6.9-0.2
							c-2.2-0.9-4.1-2.4-6.2-3.6c-3.5-2-7.5-3-11.5-3.1v18.9h57.4v-17.3v-6.5C189,178.8,188.9,178.7,188.8,178.7z"/>
						<path class="st1" d="M149.4,190.5c2.2,0.9,4.8,1.3,6.9,0.2c1.5-0.8,2.6-2.2,3.7-3.5c1.2-1.3,2.6-2.4,4.3-2.5
							c3.7-0.1,5.6,4.9,9.3,5.5c2.2,0.3,4.4-1.2,5.7-3c0.7-0.9,1.3-2,1.9-3c-2.2,0.1-4.4,0.2-6.4-0.8c-1.9-1-3.2-3-5.1-4
							c-3.4-1.9-7.6-0.1-11,1.8c-2,1.1-4.3,2.3-6.6,1.8c-2.6-0.6-4.1-3.2-6.2-4.8c-4.1-3-10.2-1.5-13.7,2.1c0,0,0,0,0,0
							c-0.4,0.4-0.6,1-0.6,1.6v2c4,0.1,8,1.1,11.5,3.1C145.3,188,147.2,189.5,149.4,190.5z"/>
					</g>
				</g>
			</g>
			<g>
				<path class="st1" d="M362.1,224.3h-66.8v-54h66.8V224.3z M296.2,223.5h65.2v-52.4h-65.2V223.5z"/>
				<g>
					<rect x="306.4" y="192.8" class="st1" width="7" height="23.5"/>
					<rect x="306.4" y="180.9" class="st2" width="7" height="11.9"/>
					<rect x="319" y="180.9" class="st2" width="7" height="17.6"/>
					<rect x="319" y="198.5" class="st1" width="7" height="17.7"/>
					<rect x="331.5" y="188.7" class="st1" width="7" height="27.6"/>
					<rect x="331.5" y="180.9" class="st2" width="7" height="7.8"/>
					<rect x="344.1" y="199" class="st1" width="7" height="17.3"/>
					<rect x="344.1" y="180.9" class="st2" width="7" height="18.1"/>
				</g>
			</g>
		</g>
	</g>
	<g>
		<g>
			<g>
				<polygon class="st5" points="109.6,386.7 96.5,373.1 96.6,363.1 80.7,363.6 82,386.7 				"/>
				<polygon class="st6" points="96.7,325.4 78.7,327.8 79.4,340.3 96.6,339.9 				"/>
				<polygon class="st7" points="96.6,339.9 79.4,340.3 80.7,363.6 96.6,363.1 				"/>
				
					<rect x="89.4" y="373.9" transform="matrix(0.9048 -0.4258 0.4258 0.9048 -150.6911 75.3179)" class="st0" width="7.5" height="1.6"/>
			</g>
			<g>
				<polygon class="st6" points="134.7,321.3 117.3,320.6 115,333.9 131.7,336.3 				"/>
				<path class="st5" d="M138.5,373.3l-10.7-18l1.4-6.9c-4.7-1.1-12-2.7-16.1-3.6l-3.6,20.9L138.5,373.3z"/>
				<path class="st7" d="M131.7,336.3l-16.6-2.4l-1.9,10.9c4.1,0.9,11.3,2.6,16.1,3.6L131.7,336.3z"/>
				
					<rect x="120.9" y="355.6" transform="matrix(0.9477 -0.3191 0.3191 0.9477 -107.2061 58.3494)" class="st0" width="7.1" height="1.6"/>
			</g>
			<path class="st8" d="M146.3,323.3c0,0-7.2,9.1-20.5,6.1c-13.3-2.9-10.9,4.8-18.4,6.4c-7.5,1.6-28.3-11.5-35.2,0.8
				c0,0-4.1-46.4-2.2-75.8c0.5-7.9,1.5-14.6,3-18.8l31.9-0.4l7-0.1c0,0,0,0.2,0.1,0.5c0.1,0.6,0.4,1.9,0.8,3.8
				C115.3,257.7,124.5,293.6,146.3,323.3z"/>
			<path class="st9" d="M112.7,245.6c-7.1,4.7-22,12.8-42.8,15.2c0.5-7.9,1.5-14.6,3-18.8l31.9-0.4l7.1,0.4
				C112.1,242.5,112.3,243.8,112.7,245.6z"/>
		</g>
		<g>
			<g>
				
					<rect x="50.2" y="248.9" transform="matrix(-0.2827 0.9592 -0.9592 -0.2827 338.0471 281.4571)" class="st0" width="27.2" height="36.4"/>
				<path class="st1" d="M77.7,285.8L42,275.3l7.9-26.9L85.6,259L77.7,285.8z M43,274.7l34.1,10.1l7.5-25.3l-34.1-10.1L43,274.7z"/>
			</g>
			<g>
				
					<rect x="73.4" y="264.8" transform="matrix(0.2827 -0.9592 0.9592 0.2827 -198.8151 264.5631)" class="st1" width="8.1" height="0.8"/>
				
					<rect x="61.3" y="268.9" transform="matrix(0.2827 -0.9592 0.9592 0.2827 -207.2996 261.3229)" class="st1" width="19.5" height="0.8"/>
				
					<rect x="56.5" y="267.5" transform="matrix(0.2827 -0.9592 0.9592 0.2827 -209.384 255.7164)" class="st1" width="19.5" height="0.8"/>
				
					<rect x="51.7" y="266" transform="matrix(0.2827 -0.9592 0.9592 0.2827 -211.4678 250.0942)" class="st1" width="19.5" height="0.8"/>
				
					<rect x="49.9" y="262.4" transform="matrix(0.2827 -0.9592 0.9592 0.2827 -210.9698 243.5289)" class="st1" width="14.9" height="0.8"/>
			</g>
		</g>
		<path class="st7" d="M132,194.2c0,0,1-9.5,1.9-9.3s0.8,2.5,0.8,2.5s2.1-5.3,3-5.3c1,0,0,2.2,0,2.2s1.1-2.2,1.9-2
			c0.8,0.2,0.1,2,0.1,2s0.8-1.8,1.6-1.5c0.8,0.3,0.3,1.8,0.3,1.8s0.4-1.2,1.2-0.4c0.8,0.8-3.1,11.9-3.1,11.9l-5.5,1.6L132,194.2z"/>
		<path class="st4" d="M139.8,196.1c0,0-4.8,19.6-16.8,25.3c-2.8,1.4-6,1.9-9.7,1.3l-2.2-3.8l-14.1-25.1l4.9-1.7
			c0,0,11.1,4.1,17.1,13.3c0,0,5.6-0.5,13.1-11.7L139.8,196.1z"/>
		<path class="st5" d="M123,221.4c-2.8,1.4-6,1.9-9.7,1.3l-2.2-3.8l0.6-9.4C111.7,209.5,119.9,214.2,123,221.4z"/>
		<path class="st7" d="M73.3,259.2c0,0-1.1,9.2-2,9.1c-0.9-0.2-0.8-2.5-0.8-2.5s-2.2,5.3-3.3,5.3s0-2.2,0-2.2s-1.2,2.2-2,2
			c-0.9-0.2-0.1-2-0.1-2s-0.9,1.8-1.8,1.5c-0.9-0.3-0.3-1.8-0.3-1.8s-0.5,1.2-1.3,0.4c-0.8-0.8,3.4-11.9,3.4-11.9l5.8-1.6
			L73.3,259.2z"/>
		<path class="st4" d="M92.5,192.3c-23.7,2.9-30.6,35.7-27.9,66.5l8.8,0.5c0,0,1.5-30.1,13.6-44.5l10.1-20.9L92.5,192.3z"/>
		<path class="st4" d="M97.1,193.8l16.4,11.1c0,0,4.5,21.2,4.3,40c0,0-31.7,11.7-47.5-0.5l12.4-40.3L97.1,193.8z"/>
		<g>
			<path class="st5" d="M106.5,174.6c1.5-5.3-3.8-11.5-14-6.2c0,0-10.1,1.7-8.3,19.3l10.7,0.4L106.5,174.6z"/>
			<path class="st5" d="M94.6,168c1.4-5.6-4.7-6.5-5.7-3.1c-0.1,0.5-3.1-1.2-3.9,1.5c-1,3.1,2.4,5.1,6.1,4.3L94.6,168z"/>
			<polygon class="st7" points="102,181.5 102,192.1 97.4,198.5 92.5,192.3 92.7,181.3 			"/>
			<path class="st5" d="M102,185.1v6.8c-3.3-1.4-4.7-5.8-4.7-5.8L102,185.1z"/>
			<path class="st7" d="M106.5,174.6c0,0,3.3,17.3-9.2,11.5l-4.1-4.7l2.5-9.5l6.6-1.6L106.5,174.6z"/>
			<path class="st5" d="M106.5,174.6c0,0-2.6-4.1-5.9-2.1c-3.3,2-3.1,8.9-6.5,7.1c-3.4-1.7-1.4-7.1-1.4-7.1l5-3.8l5.6,0.6
				L106.5,174.6z"/>
			<ellipse transform="matrix(0.866 -0.5 0.5 0.866 -77.6531 70.7642)" class="st7" cx="93.2" cy="180.3" rx="2.4" ry="2.7"/>
		</g>
		<circle class="st5" cx="97.5" cy="204.2" r="1.6"/>
		<path class="st5" d="M74.6,247l-0.8-0.2c0-0.1,1.2-6,3.1-12.6c2.6-9,5.4-14.9,8.2-17.6l0.6,0.6C79.3,223.4,74.7,246.8,74.6,247z"
			/>
		<path class="st5" d="M71.7,228.1c-1.5-1.1-4.9-1-4.9-1l0-0.8c0.2,0,3.8-0.1,5.5,1.1L71.7,228.1z"/>
	</g>
	<g>
		<g>
			<polygon class="st5" points="418.8,362.3 418.5,377.5 415.1,386.7 433.9,386.7 432.8,361.9 			"/>
			<g>
				<polygon class="st5" points="391.1,363.9 391.1,376.5 376.3,386.7 406.1,386.7 404.3,362.5 				"/>
				
					<rect x="392.6" y="375.4" transform="matrix(0.6057 -0.7957 0.7957 0.6057 -145.8458 462.1301)" class="st0" width="1.6" height="5.6"/>
			</g>
			<path class="st4" d="M416.1,240.3l-0.1,0.3l-2.7,10.5l-5.8,22.8c-0.8,3.6-1.4,7.6-1.9,11.7c-2.8,26,0.8,59.2,2.7,73.5
				c0.5,3.8-2.4,7.1-6.2,7.1h-10.5c-2.4,0-4.6-1.4-5.7-3.6c-13.4-28.1-11.2-70.1-8.6-80.4c4.3-16.3,7.2-40.5,7.2-40.5l9-0.4
				L416.1,240.3z"/>
			<path class="st4" d="M436.3,358.8c-0.1,3.6-3,6.5-6.7,6.5h-9c-3.3,0-6.2-2.5-6.6-5.8c-1.7-13.1-5.9-46.2-8.3-74
				c-1.2-14.6-2-27.7-1.6-35.7c0.1-3,0.4-5.4,0.9-6.7l11-2.5l11.2-2.5c0,0,2.8,3,5.3,18.7C435.2,273.2,437.6,303.5,436.3,358.8z"/>
			<path class="st5" d="M404.6,307.8c-0.5-10.2-0.2-19,1-26.7c0.4-2.5,1.7-4.7,3.7-6.3l7.5-6l0.5,0.6l-7.5,6
				c-1.9,1.5-3.1,3.5-3.4,5.8c-1.1,7.7-1.4,16.4-1,26.5L404.6,307.8z"/>
			<path class="st5" d="M382.1,311.1l-0.1-0.8c5-0.6,9.3-0.7,13.2-0.3l-0.1,0.8C391.3,310.4,387.1,310.5,382.1,311.1z"/>
			<path class="st5" d="M418.1,309.3l-0.1-0.8c5-0.6,9.3-0.7,13.2-0.3l-0.1,0.8C427.3,308.5,423.1,308.6,418.1,309.3z"/>
			<path class="st5" d="M396,356.7c-6.8,0-11.9-1.2-12-1.2l0.2-0.8c0.1,0,11.8,2.8,23.5-0.2l0.2,0.8
				C403.8,356.3,399.7,356.7,396,356.7z"/>
			<path class="st5" d="M424.2,356.7c-1.1,0-2.1,0-3-0.1c-4.4-0.2-7.8-0.9-7.8-0.9l0.2-0.8c0.1,0,13.3,2.5,22.1-0.7l0.3,0.8
				C432.2,356.4,427.9,356.7,424.2,356.7z"/>
			<path class="st10" d="M432.5,256.8c-5.1-2.7-12.1-4.5-19.1-5.7c-3.1-0.5-6.3-0.9-9.2-1.2c-9.4-1-16.9-1-16.9-1l6.4-7.6l22.5-1
				l-0.1,0.3l11.2-2.5C427.2,238.1,430,241,432.5,256.8z"/>
		</g>
		<g>
			<rect x="393.1" y="180.1" class="st6" width="9.3" height="15.4"/>
			<path class="st5" d="M397.4,186.5c0,0-0.9,3.4-4.3,5.7v-6.7L397.4,186.5z"/>
			<path class="st6" d="M388.3,172.2l-0.7,6.5c0,0-3,4.1-1.1,4.1c2,0,1.7,0.8,1.7,0.8s-1.1,8.5,9.2,2.9l2.2-12.7L388.3,172.2z"/>
			<path class="st5" d="M388.3,172.2c0,0,2.8-0.4,3.5,2.6c0.7,3,1.7,4.8,4.2,2.7l2.7-4.5l-4.7-2L388.3,172.2z"/>
			<path class="st5" d="M388.3,172.2c0-2.1,2.5-7.2,10.4-5.8c7.5,1.3,8.7,11.9,4.8,16.7c0,0-2,3.1-4.7-2.6l-4.6-6.2l-1-2
				L388.3,172.2z"/>
			<path class="st6" d="M399.3,180.1c-0.7,1.3-2.3,1.8-3.4,1.2c-1.1-0.7-1.4-2.2-0.7-3.5c0.7-1.3,2.3-1.8,3.4-1.2
				C399.7,177.3,400,178.8,399.3,180.1z"/>
		</g>
		<g>
			<path class="st9" d="M416.8,192.2c17.7,5.7,31.7,29.7,15.3,30.1c-16.4,0.4-26.4-14.8-26.4-14.8L416.8,192.2z"/>
			<path class="st6" d="M338.3,210.5c0,0-8.8-3.8-9.1-3c-0.3,0.9,1.8,1.9,1.8,1.9s-5.6-0.8-6.1,0c-0.5,0.8,1.9,1,1.9,1
				s-2.4-0.1-2.7,0.6c-0.2,0.8,1.7,1.1,1.7,1.1s-2-0.1-2.1,0.7c-0.1,0.9,1.4,1.1,1.4,1.1s-1.2-0.2-0.9,0.9c0.3,1,11.9,3.1,11.9,3.1
				l4-4L338.3,210.5z"/>
			<path class="st8" d="M425.9,245.7l-39.6,4.3c-3.3,0.4-6.2-2.3-6.1-5.7l0.5-16.3l0.2-7.5l0-0.2c0,0-0.3,0.3-0.9,0.9c0,0,0,0,0,0
				c-0.4,0.3-0.9,0.8-1.5,1.2c-5.3,4-19.3,10.8-42.4-4.3l2.2-7.6l25,1c0,0,11.2-9.1,21.2-15.3c6.5-4.1,14-6.3,21.7-6.1
				c3.5,0.1,7.2,0.6,10.6,2c8.4,3.5,12.6,34.6,14,47.4C431.1,242.7,428.9,245.4,425.9,245.7z"/>
			<path class="st9" d="M360.6,218.9c-0.7-5,2.4-7.6,2.5-7.7l0.5,0.6c0,0-0.7,0.6-1.4,1.8c-0.8,1.5-1.1,3.3-0.9,5.2L360.6,218.9z"/>
			<path class="st9" d="M384.5,217.5c0,0-0.2,6.4-3.8,10.5l0.2-7.5C382.2,219.4,383.7,218.2,384.5,217.5z"/>
			<path class="st9" d="M372.7,226.1l-0.2-0.8c5.8-1.2,13.6-10.9,13.7-11l0.6,0.5c0,0-2,2.5-4.7,5.1
				C378.5,223.5,375.3,225.6,372.7,226.1z"/>
		</g>
	</g>
	<rect x="0.1" y="386.1" class="st5" width="500" height="1.2"/>
</g>
</svg>
