<?xml version="1.0" encoding="utf-8"?>
<!-- Generator: Adobe Illustrator 21.0.0, SVG Export Plug-In . SVG Version: 6.00 Build 0)  -->
<svg version="1.1" id="Layer_1" xmlns="http://www.w3.org/2000/svg" xmlns:xlink="http://www.w3.org/1999/xlink" x="0px" y="0px"
	 viewBox="0 0 833 490.8" style="enable-background:new 0 0 833 490.8;" xml:space="preserve">
<style type="text/css">
	.st0{fill:#31893E;}
	.st1{fill:#3CAA53;}
	.st2{fill:#3D894B;}
	.st3{fill:#39AA67;}
	.st4{fill:#EFCBAB;}
	.st5{fill:#FFEBDC;}
	.st6{fill:#EFCDAF;}
	.st7{fill:#163560;}
	.st8{fill:#E49963;}
	.st9{fill:#ED7D2B;}
	.st10{fill:#594739;}
	.st11{fill:#775B46;}
	.st12{fill:#5B3E2B;}
	.st13{fill:#F99746;}
	.st14{fill:#D68D5D;}
	.st15{fill:#4A75CB;}
	.st16{fill:#23296D;}
	.st17{fill:#233862;}
	.st18{fill:#3F4293;}
	.st19{fill:#FFB27D;}
	.st20{fill:#ED985F;}
	.st21{fill:#2B478B;}
	.st22{fill:#F9DDBF;}
	.st23{fill:#C6916D;}
	.st24{fill:#EAC3A0;}
	.st25{fill:#E0B594;}
	.st26{fill:#D39E7A;}
	.st27{fill:#F4A269;}
	.st28{fill:#C65447;}
	.st29{fill:#B5453C;}
	.st30{fill:#9E332E;}
	.st31{fill:#DD6D22;}
	.st32{fill:#FFFFFF;}
</style>
<g>
	<path class="st0" d="M145.7,394.1c0,0-15.6-18.2-1-29.8c0,0,10.7-6.5,19.4-6c0,0-12.4,20.7-8.4,22.8c4,2.1,12.1-24.1,12.1-24.1
		s24.4-2.4,32.2,1.4c0,0-20.8,17-16.4,18.1c4.4,1,26.9-15.7,26.9-15.7s22.7,3.9,21.5,17.7c-1.2,13.8-9,18.1-12.5,17.7
		c-3.4-0.4-23.5-8-24-5.2c-0.4,2.8,11.7,12,20.1,12.4c0,0-16,17.6-26.6,12.5s-11.5-13.2-18.2-16.2c-6.6-3-12.3-3-9.5,0.1
		c2.7,3.1,14.7,6.1,18.5,12.8c3.8,6.7,7.2,11.2-3.8,9.6c-11-1.7-28.9-9.7-29.6-18.9C145.7,394.1,145.7,394.1,145.7,394.1z"/>
	<g>
		<path class="st0" d="M220.9,378.9c0,0-61.6-2.4-75.2,15.2c0,0-3,9-12.3,17.2l-1.4,3.9c0,0,10.7-11.3,14.5-11.9
			C146.5,403.3,140.6,381.5,220.9,378.9z"/>
		<path class="st0" d="M133.5,411.3c0,0-13.2,9.8-14.1,27.2l2.4,0.2c0,0,4.2-18.1,11.9-25.1C141.2,406.6,133.5,411.3,133.5,411.3z"
			/>
	</g>
</g>
<g>
	<path class="st1" d="M91.1,371.2c0,0,24.8-13.9,13.3-32.8c0,0-9.3-11.6-19.2-14.6c0,0,5.3,28.2,0,28.8c-5.3,0.7-3.6-31.8-3.6-31.8
		s-26.2-12.6-36.4-11.6c0,0,16.2,27.5,10.9,26.8s-23.5-28.5-23.5-28.5s-26.8-5-31.1,10.9c-4.4,16,2.5,24,6.5,25s29.5,0.7,28.8,4
		S18.9,356,9.3,353c0,0,10.6,26.2,24.5,24.8c13.9-1.3,18.2-9.9,26.8-10.6s14.9,1.7,10.6,4s-18.9,0.8-25.8,6.7
		c-7,5.9-12.6,9.6,0.3,12.2c12.9,2.7,36.1,1,40.7-8.9C91.1,371.2,91.1,371.2,91.1,371.2z"/>
	<g>
		<path class="st2" d="M13.6,323.5c0,0,69.6,22.5,77.5,47.7c0,0-0.3,11.3,6.6,24.2v5c0,0-7.3-16.9-11.3-19.2
			C86.5,381.1,102.1,359.3,13.6,323.5z"/>
		<path class="st2" d="M97.8,395.4c0,0,10.7,16.3,4.6,36.1l-2.8-0.7c0,0,2.7-21.8-2.9-32.8S97.8,395.4,97.8,395.4z"/>
	</g>
</g>
<path class="st3" d="M130.7,352c0,0-32.8-18.3-17.5-43.2c0,0,12.2-15.3,25.3-19.2c0,0-7,37.1,0,38s4.8-41.9,4.8-41.9
	s34.5-16.6,48-15.3c0,0-21.4,36.2-14.4,35.4c7-0.9,31-37.6,31-37.6s35.4-6.6,41,14.4c5.7,21-3.5,31.4-8.7,32.8
	c-5.2,1.3-38.9,0.9-38,5.2c0.9,4.4,23.6,11.4,36.2,7.4c0,0-14,34.5-32.3,32.8s-24-13.1-35.4-14s-19.7,2.2-14,5.2
	c5.7,3.1,24.9,1,34.1,8.8c9.2,7.8,16.6,12.6-0.4,16.1s-47.6,1.3-53.7-11.8C130.7,352,130.7,352,130.7,352z"/>
<g>
	<path class="st2" d="M232.9,289.1c0,0-91.7,29.7-102.2,62.9c0,0,0.4,14.8-8.7,31.9v6.6c0,0,9.6-22.3,14.8-25.3
		C136.8,365.1,116.3,336.3,232.9,289.1z"/>
	<path class="st2" d="M121.9,383.9c0,0-14.1,21.5-6.1,47.6l3.6-1c0,0-3.5-28.8,3.9-43.3C130.8,372.8,121.9,383.9,121.9,383.9z"/>
</g>
<path class="st4" d="M129.6,488.2c35.4,0,64.2-28.7,64.2-64.2H65.4C65.4,459.5,94.1,488.2,129.6,488.2z"/>
<path class="st5" d="M145.3,487.7c-2.6,0.3-5.3,0.5-8,0.5c-35.4,0-64.2-28.7-64.2-64.2H89C89.2,456.8,113.7,483.8,145.3,487.7z"/>
<path class="st4" d="M194.6,491.5H64.5l0,0c0-4.4,3.5-7.9,7.9-7.9h114.3C191.1,483.6,194.6,487.1,194.6,491.5L194.6,491.5z"/>
<rect x="63.3" y="424" class="st6" width="131.9" height="2"/>
<path class="st7" d="M764.2,469.7c0,0,1.3,21.4,5.5,21.8c0.6,0,21,0,21,0l26.2-0.2c0,0-0.2-6.3-7.8-7.6c-7.6-1.3-20.4-6.7-25.1-16.8
	C779.1,456.3,764.2,469.7,764.2,469.7z"/>
<path class="st8" d="M750.3,216.1c0,0,12.3,7,15.8,7s17-2.6,20.8-0.7c3.8,1.9,10.6,9.7,11.9,12.2c2.3,4.6-9.3,2.6-14.8-1.3
	c-0.8-0.6-1.8-0.8-2.7-0.6c-2.8,0.6-8.7,1.7-11.6,0.6c-3.8-1.4-24-3-24-3L750.3,216.1z"/>
<path class="st9" d="M656.3,120.5c0,0,12.8,91,34,99.1c10.5,4,56.7,13.1,70.4,14.1c0,0,3.3-2.7,2.5-13.8c0,0-48.4-17.8-55.3-27.4
	c-10.2-14.4,6.4-58.8-6.5-72.3C688.5,106.6,666.9,100.8,656.3,120.5z"/>
<path class="st10" d="M660.6,312.2c3.7,6.3,8.1,12.3,12.5,17.9c13.8,17.4,28.7,31.7,31.3,45.2c0.5,2.7,1.3,5.6,2.4,8.7
	c1.1,3.1,2.4,6.4,4,9.7c5.8,12.7,14.6,26.9,23.3,39.8c15.1,22.3,29.2,41,29.2,41l26-1.1c-1-2.6-12.4-33.4-27.5-71.1
	c-6.2-15.3-12.7-31.6-19-47.3c-0.8-2.1-1.7-4.2-2.5-6.3c-1.9-4.8-3.8-9.5-5.7-14.1C720.4,299.2,709,271,709,271s-56.9-21.6-62.8-7.6
	C641.4,275,645.3,286.3,660.6,312.2z"/>
<path class="st7" d="M704,408.5c0,0-18.1,11.6-16.3,15.4c0.2,0.5,10.2,18.4,10.2,18.4l12.9,22.8c0,0,5.4-3.2,2.9-10.5
	c-2.6-7.3-4.1-21.1,2.5-30.1C723,415,704,408.5,704,408.5z"/>
<path class="st11" d="M712.9,428.9c0,0-11.3-10-13.3-17.3c0,0,46.5-55.8,56.6-68.3c0.5-0.6,0.3-1.2-0.3-1.9
	c-7.6-8.6-92.3-26.1-103.4-43.3c-3.8-5.9-6-11.6-7.2-16.5c-2.5-10.5-0.5-17.8-0.5-17.8l84.6-2.4c0,0,70.4,43.9,78.4,73.8
	C815.9,365.1,712.9,428.9,712.9,428.9z"/>
<path class="st12" d="M756,341.5c-7.6-8.6-92.3-26.1-103.4-43.3c-3.8-5.9-6-11.6-7.2-16.5V271l36-5.7c0,0,10.2,31.4,40.4,43.1
	C750.1,319.5,755.4,339,756,341.5z"/>
<path class="st8" d="M706.3,114.8c-17.1,4.4-45.5-11.4-45.5-11.4s11-7.4,15.1-23.7c0.2-0.8,0.4-1.7,0.6-2.5c1.8-0.4,5.2-1.1,8.8-1.9
	L698.4,87c0,0-0.3,4.9-1.9,13.2c-0.3,1.5-0.6,3-1,4.7C702.5,109.2,706.3,114.8,706.3,114.8z"/>
<path class="st13" d="M642.7,185.7c2.5,33-0.8,83.1,2,91.8c2.4,7.5,29.7,3,40.7,0.5c4-0.9,8.9-2.2,14-3.8
	c14.1-4.4,29.5-10.6,31.1-15.2c0.1-0.2,0.1-0.4,0.2-0.5c0.2-0.7,0.1-1.3,0-1.9c-0.5-2.4-2.7-4.9-2.9-10.7
	c-0.3-6.5-0.2-14.2-0.5-22.5c0-0.9,0-1.9-0.1-2.9v-0.3c0-0.2,0-0.4,0-0.5c-0.2-9.2-0.7-18.9-1.3-28.5c-0.4-6-0.8-12-1.2-17.7
	c-1.2-14.8-2.9-27.9-5.1-36.2c-3.6-13.5-11.5-22.4-18.7-28.8l-5.2-4.5c-5.8,1.3-12.7,0.4-18.9-2.5c-6.7-3.2-9-5.5-10.2-4.6
	C651,108.7,639.9,145.4,642.7,185.7z"/>
<path class="st9" d="M699.4,274.2c14.1-4.4,29.5-10.6,31.1-15.2c0.1-0.2,0.1-0.4,0.2-0.5c0-0.6,0-1.3,0-1.9
	c-0.5-2.4-2.7-4.9-2.9-10.7c-0.3-6.5-0.2-14.2-0.5-22.5c0-0.9,0-1.9-0.1-2.9v-0.3c0-0.2,0-0.4,0-0.5l-57-72.6
	C670.1,147,631.8,226.7,699.4,274.2z"/>
<path class="st14" d="M698.4,87c0,0-0.3,4.9-1.9,13.2c-12.8-4.1-18.6-15.7-20.5-20.5c0.2-0.8,0.4-1.7,0.6-2.5
	c1.8-0.4,5.2-1.1,8.8-1.9L698.4,87z"/>
<path class="st8" d="M700.1,94.4c0,0-27.8-4.6-24.7-21.9c3.2-17.3,1.7-29.5,19.6-27.3c17.9,2.2,20.1,9.5,20.5,15.5
	C715.9,66.6,707.4,95.1,700.1,94.4z"/>
<g>
	
		<rect x="787.5" y="209.2" transform="matrix(0.309 -0.9511 0.9511 0.309 367.3374 926.6172)" class="st15" width="67.6" height="2.6"/>
	
		<rect x="774.6" y="204.7" transform="matrix(2.135104e-02 -0.9998 0.9998 2.135104e-02 520.0425 1011.5349)" class="st15" width="4.2" height="70.9"/>
</g>
<path class="st8" d="M742.6,245c0,0,22.8,6,31.3,5.4s15.6-4.7,16.7-6.8c1.1-2.1,3.3-5.9-2.5-5.2s-13.8,1.9-14,0.8
	c-0.2-1.1,4.7-1,4.7-1s1.5-2.2-0.4-2.3s-7.4-1.6-9.5-0.6s-4,4.8-5.5,4.7c-1.5-0.2-19.1-7.9-19.1-7.9L742.6,245z"/>
<path class="st13" d="M661.9,124.2c0,0,2.7,91.8,22.9,102.3c10,5.1,54.9,19.3,68.4,21.7c0,0,3.6-2.3,4-13.4c0,0-46.2-23-51.9-33.4
	c-8.6-15.4,12.8-57.7,1.5-72.6C695.5,114,674.7,105.8,661.9,124.2z"/>
<path class="st16" d="M676,79.7c0,0-0.3-5.9,3.3-9.3c0,0-1.3-5.9,1.1-6.9c2.4-1,2.8,4,3.9,3.2c1.1-0.8,5.9-4.5,7.9-10
	c2.1-5.5,20.9,1.2,23.1,2.1c2.2,1,9.3-2.6,10.6-5.6c0,0-3.9-3.1-5.7-5.5S706.1,29.5,688.8,34s-19.6,12.7-18.6,19.8
	C671.3,60.9,668.9,77.3,676,79.7z"/>
<path class="st17" d="M152.7,114.9l14.9-1.4c1.2-0.1,2.3,0.6,2.8,1.7l11.2,27c0.7,1.7-0.4,3.6-2.3,3.8l-15.5,1.5
	c-1.2,0.1-2.4-0.6-2.8-1.7l-10.6-27C149.8,116.9,150.9,115.1,152.7,114.9z"/>
<path class="st18" d="M341,471.5l-7.9,4.2c0,0-42.6-45.2-52.9-88.5c-1.8-7.7-2.6-15.4-1.8-22.6c0,0-0.6-2-1.7-5.4
	c0-0.2-0.1-0.3-0.1-0.5c-0.5-1.5-1-3.3-1.7-5.3c-2.1-6.6-4.9-15.5-8.1-25.7c-7.4-23.5-24.4-76.5-31.6-98.5l52.1-18.8
	c0,0,5.9,13.5,14.4,50.2c1.3,4.8,2.6,10.1,3.8,15.8c1.4,6.5,2.7,13.7,3.8,21.4c1.8,13.1,3,27.8,3.1,43.9c0,6.6-0.1,13.4-0.5,20.4
	c-0.3,5.1,0.5,12,1.9,19.8C320.5,417.4,341,471.5,341,471.5z"/>
<path class="st17" d="M369.6,491.5h-42.1c0,0-1.6-6.7,1.2-11.3c2.4-4,1.5-6.3-0.3-9.7c1.9,0.8,4.4,1.5,7.1,1.3
	c2.1-0.1,4.3-1.1,6.3-2.2c1.8,2.1,9.6,10.9,12,12.6C356.4,484.2,368.7,483.5,369.6,491.5z"/>
<path class="st16" d="M309.4,297.6l-32.7,61c-0.5-1.5-1-3.3-1.7-5.3c-2.1-6.6-4.9-15.5-8.1-25.7c-7.4-23.5-24.4-76.5-31.6-98.5
	l52.1-18.8c0,0,5.9,13.5,14.4,50.2c1.3,4.8,2.6,10.1,3.8,15.8C307,282.8,308.3,289.9,309.4,297.6z"/>
<path class="st19" d="M167.6,163.1c-0.3,0.2-12.7-12.5-19.4-19.6l6.7-4.1l36.5,22.9L167.6,163.1z"/>
<path class="st17" d="M234.4,478.3c0,0-1,7.2,1.8,13.2h17.5c0,0,0.1-5.2-4.3-11.7C244.9,473.2,234.4,478.3,234.4,478.3z"/>
<path class="st16" d="M268.8,12.8c0.2-1.2,3.2-13.1,21.8-10.5c0,0-9.2-0.5-11.5,3.2c0,0,7-3.8,11.8-1.4c4.7,2.5,6.2,11.8,5.7,14.7
	s-4.9,11.7-8.2,12c-1.3,0.1-2.6-0.2-3.9-0.7c0.6,1.5,1.2,3.1,1.7,4.8c4.7,16.4-5.4,29.8-11.4,27.1c-3.8-1.7-6.1,4.9-6.1,4.9
	l-33.3-38.1C235.3,28.7,254.7,1.7,268.8,12.8z"/>
<path class="st19" d="M234.7,115.1c4.3,3,9.8,5.5,16.6,7.1c25.6,5.9,35.5-15.8,39.2-30.6c-3.5-2-6.8-2.4-8.7-2.7
	c-1.9-0.2-3.8-0.4-5.4-0.4c-2.9-2.2-7.2-11.2-8.1-25.3l-1.2,0.3L246.9,69c0,0,0.9,6.4,1.4,12.5c0.4,4.8,0.4,9.3-0.5,10.4
	c-1.6,0.3-2.5,0.6-2.5,0.6l0,0C245,92.9,239.1,102.6,234.7,115.1z"/>
<path class="st20" d="M246.9,69c0,0,0.9,6.4,1.4,12.5c11.5-1.1,16.8-12,18.8-18L246.9,69z"/>
<path class="st19" d="M243.5,75c0,0,27.2-1.5,26-18.4s1.5-28.5-15.9-28.3s-20.3,6.9-21.3,12.7S236.3,75,243.5,75z"/>
<path class="st16" d="M232.4,31.6c3.8-5.4,7.1-4.5,9-3.1c14.3-9.2,24.7,2.2,24.7,2.2C268.7,42.6,278,49,278,49s-4.7,3.4-16.3,1.3
	c-3.5-0.6-6.8-2.9-9.7-5.7c5.2,7.4,11.9,12.5,11.9,12.5c-14.1-5.3-20.9-23.9-21.6-25.8c-1.6,1.6-4.6,5.1-5.4,8.3
	c-1,4.4-1,13.3-3.6,13.2C233.2,52.7,226.6,39.7,232.4,31.6z"/>
<path class="st19" d="M239.1,91.1c0,0,44.3-10.8,63.5,5.1L293,230.4l-86.6-20.9c0,0,2.4-8.5,19-31.1S234.8,122.7,239.1,91.1z"/>
<path class="st18" d="M264.9,215.5c0,0-0.1,0.5-0.1,1.3c0,0.4-0.1,0.8-0.1,1.3c-0.4,3.5-1.1,10.2-2,18.8
	c-2.4,22.8-6.1,59.3-8.6,88.2c-2,22.6-3.3,40.4-2.6,43.3c2.1,8.6,0,111.8,0,111.8c-7.4,3.5-18.5,0-18.5,0s-19.6-92.9-16.9-105.9
	c2.7-12.9-1.8-23.9-1.8-23.9c-15.2-70.9-13.6-110.2-10.5-129c0.9-5.5,1.9-9.2,2.6-11.5c0.6-1.9,1-2.8,1-2.8
	C240.9,198.1,264.9,215.5,264.9,215.5z"/>
<path class="st17" d="M293,230.4c-10.3,4.3-20.6,6.2-30.4,6.6c-8.9,0.3-17.4-0.7-25-2.4c-16.6-3.6-29.3-10.3-34-13.2
	c0.9-5.5,1.9-9.2,2.6-11.5c10.2-7.3,35.5-0.3,56.1,7.4c0.7,0.3,1.5,0.6,2.2,0.8C280.4,224.2,293,230.4,293,230.4z"/>
<path class="st13" d="M308.6,134.5c-2.1,16.1-10.7,35.9-13.7,46.5c0,0,5.1,36.9,0.2,47.1c-0.6,1.2-1.2,2-2.1,2.3
	c-18.1,7.9-88.4,0.2-91.4-22.5c-1.1-8.2,26.8-37.2,28.4-40.8c0.7-1.5,1.4-6.2-1.9-15.9c-4.6,14.3-13.2,30.8-21.8,33.6
	c-9.5,3.1-46.8-24.8-46.8-24.8s-0.2-3.4,4.5-6.6c3-2.1,10-2.8,10-2.8l23.9,10.7c3-5.1,10.5-40.6,18.8-56.7c6.3-12.1,23-13.8,23-13.8
	s7,11.1,23.8,9.5c16.9-1.6,19.9-11.9,19.9-11.9s15,2,19.6,5.7C303.9,94.9,311.4,113.4,308.6,134.5z"/>
<path class="st9" d="M294.8,181c0,0,5.1,36.9,0.2,47.1c-13.2-6.6-30.3-20.9-25.1-43.1c7.6-32.4,38.6-50.5,38.6-50.5
	C306.4,150.7,297.9,170.4,294.8,181z"/>
<path class="st19" d="M283.6,156.2c0,0-18.7,2.7-20.2,4.1c-1.5,1.4-6.7,9.5-6,12.3c0.6,2.8,0.6,5.7,1.7,5.5s4.9-7.4,6.3-7.7
	s2.6-1.3,2.8-0.7c0.2,0.6-2.9,3.7-2.7,4.5c0.2,0.9,2.5-0.1,3.6-1.8s3.8-2.5,4.2-3.5c0.4-1,2.3-4.5,4.8-4.3
	C280.5,164.9,283.6,156.2,283.6,156.2z"/>
<polygon class="st19" points="301.8,155.5 283.6,156.2 277.3,164.7 302.1,165.6 "/>
<path class="st13" d="M283.6,88.6c0,0,21.7,2.6,27.7,11.9c7.6,11.8,34.3,50.8,33.7,62.6c0,0-16.6,6.6-61.4,3.1c0,0-0.8-6.8,8.6-12.2
	c0,0,24-3.3,26.7-5.6l-17.8-19L283.6,88.6z"/>
<path class="st21" d="M149.5,115.2l14.9-1.4c1.2-0.1,2.3,0.6,2.8,1.7l11.2,27c0.7,1.7-0.4,3.6-2.3,3.8l-15.5,1.5
	c-1.2,0.1-2.4-0.6-2.8-1.7l-10.6-27C146.6,117.2,147.7,115.4,149.5,115.2z"/>
<path class="st19" d="M148.2,143.5c0,0-3.9-6.8-3.6-8.4c0.3-1.7,4.4-9.4,6.4-10.2c3.7-1.4,9-2.2,7.5,1.7c-0.9,2.6-4.7,6.3-4.1,7.5
	c0.7,1.2,0.4,5.3,0.4,5.3L148.2,143.5z"/>
<path class="st22" d="M740,435.2c-5.3,34.1-40.1,55.8-75.8,55.8h-70.7l5.5-198.8c0,0,67.5-21.6,84.4-1.1
	c14.8,18,55.1,89.5,57.2,131.7C740.9,427.2,740.6,431.3,740,435.2z"/>
<path class="st23" d="M552.4,313.3c0,0,95.4-48.7,113.4-16.9c9.6,16.9,36,84.2,37.9,126.5C705.6,464,670,491,633.4,491h-65
	L552.4,313.3z"/>
<path class="st4" d="M570.3,340.3c-0.8,4.1-8.5,8-20,11.4c-2,0.6-4.2,1.2-6.4,1.8c-39,10-108.1,15.5-114.7,12.6
	c-9.1-4.1-64.9-202.5-64.9-202.5s53.3-2,95.6-3c14.5-0.3,27.7-0.5,37-0.5c1.1,0,2.2,0.1,3.2,0.2c4,0.6,7,2.3,9.4,4.8
	c6.8,7.3,8.5,21.8,14.8,37.8c6.2,15.8,13.9,35.5,21.2,55.1c1.9,5,3.7,10.1,5.5,15c0.5,1.4,1,2.8,1.5,4.2
	C563.3,307.3,571.6,333.6,570.3,340.3z"/>
<path class="st24" d="M740,435.2c-5.3,34.1-40.1,55.8-75.8,55.8h-34.7C652.7,475.3,673.6,427,740,435.2z"/>
<path class="st25" d="M552.6,277.2c-1.8-0.3-4.1-0.7-6.7-1.1c-0.5-0.6-1-1.1-1.2-1.7c-1-2.3-0.3-8.9,0.9-16.4
	c-7.3-19.6-14.9-39.3-21.2-55.1c-6.3-16-8-30.5-14.8-37.8c-2.4-2.6-5.4-4.2-9.4-4.8c-5.6,0.1-11.6,0.2-17.7,0.3
	c-2.2,4.3-5.9,8.4-12.4,11.8c-28.9,15.2-7.5,46.6-7.5,46.6c0.2,0.1,11.5,22.5,11.5,22.5c0-1.6,1.5-4.4,4.1-7.9
	c1.9,13.4,5,27.1,8.8,36.9c-2,10.3-7.3,25.7-10.1,37.5c-2.2,9.4-2.9,16.5,0.8,16.8c0.4,0,0.9,0,1.4,0c-0.2,3.3,0.4,6.7,2.3,10.3
	c7.2,14,42.1,16.5,69.1,16.6c11.5-3.4,19.2-7.2,20-11.4C571.6,333.6,563.3,307.3,552.6,277.2z"/>
<path class="st26" d="M684.4,460.5c-13.6,19-34.6,31.1-57.9,30.7l-100.2,0.1h-48l54-178c0,0,136.8-13.6,153.6,4.5
	c7.8,8.4,12.2,46.6,14.7,85C701.9,424.6,695.6,444.8,684.4,460.5z"/>
<path class="st23" d="M684.4,460.5c-13.6,19-34.6,31.1-57.9,30.7l-100.2,0.1c11.8-9.9,48.9-38,88.6-36.7
	C644.9,455.6,668.8,455.2,684.4,460.5z"/>
<path class="st27" d="M561.1,188.8c0,0,8.3,12.3,13.1,38.2c4.2,22.7,7.8,31.1,13.8,35.7c6,4.7,39.5,18.4,39.5,18.4L625,287
	c0,0-49.1-6.7-54.6-14.9c-5.5-8.2-26.5-56.6-24.9-67.8C547.2,193.1,561.1,188.8,561.1,188.8z"/>
<g>
	<path class="st19" d="M681.3,459.4c-0.4,4.8,6.2,5.9,13.9,6.3s5.4,2,16,3.9s14.8-1,15.6-2.4c0.7-1.3-4.2-3.2-9.5-5.5
		c-0.7-0.3-1.3-0.6-2-0.9c-5.9-2.6-9.2-7.9-13.8-12.8c-4.4-4.6-8.5-19.5-8.5-19.5l-14.4-3.1c0,0,4,13.4,5.4,19.1
		c0.8,3.4-0.4,7.1-1.5,10C682,456.1,681.4,457.7,681.3,459.4z"/>
	<path class="st28" d="M695.2,465.8c7.7,0.4,5.4,2,16,3.9s14.8-1,15.6-2.4c0.7-1.3-4.2-3.2-9.5-5.5l-0.1,0.1c0,0-7.4,2.5-16,0.2
		c-7-1.9-13.8-6.1-18.6-7.4c-0.6,1.6-1.2,3.1-1.3,4.8C680.8,464.2,687.5,465.4,695.2,465.8z"/>
</g>
<path class="st16" d="M538.2,289c0,0,95.5-7.2,113.5,4.2c18,11.3,46.8,143.5,46.8,143.5s-1.8,1.4-5.8,1.9
	c-3.7,0.4-11.8-1.8-11.8-1.8s-41.4-59.1-44.3-74c-2.9-14.9-2.2-28.2-8.9-28.5c-6.6-0.4-89.5,10.1-102-12s-2.2-43.9-2.2-43.9
	L538.2,289z"/>
<g>
	<path class="st19" d="M644.7,474.8c-0.4,4.8,6.2,5.9,13.9,6.3s5.4,2,16,3.9s14.8-1,15.6-2.4c0.7-1.3-4.2-3.2-9.5-5.5
		c-0.7-0.3-1.3-0.6-2-0.9c-5.9-2.6-9.2-7.9-13.8-12.8c-4.4-4.6-8.5-19.5-8.5-19.5l-14.4-3.1c0,0,4,13.4,5.4,19.1
		c0.8,3.4-0.4,7.1-1.5,10C645.5,471.5,644.9,473.1,644.7,474.8z"/>
	<path class="st28" d="M658.7,481.1c7.7,0.4,5.4,2,16,3.9s14.8-1,15.6-2.4c0.7-1.3-4.2-3.2-9.5-5.5l-0.1,0.1c0,0-7.4,2.5-16,0.2
		c-7-1.9-13.8-6.1-18.6-7.4c-0.6,1.6-1.2,3.1-1.3,4.8C644.3,479.5,651,480.7,658.7,481.1z"/>
</g>
<path class="st18" d="M519.5,295c0,0,84.8,4,102.3,16S663,456.2,663,456.2s-1.8,1.4-5.8,1.6c-3.7,0.3-11.8-2.2-11.8-2.2
	s-39.1-60.7-41.4-75.7c-2.3-15-1.1-28.2-7.7-28.9c-6.6-0.6-89.8,6.6-101.5-16C483.1,312.5,519.5,295,519.5,295z"/>
<path class="st29" d="M549.7,108.3c-3.8-2.5-8.4-3-11.7-3.1c0.9-0.8,2.6-1,2.6-1c-2-0.4-6.7,1.3-6.7,1.3
	c-27.6-12.8-34.8,28.6-34.8,38.3c-0.1,9.7-0.7,20.9-15.4,28.6c-28.9,15.2-7.5,46.6-7.5,46.6c0.2,0.1,11.5,22.5,11.5,22.5
	c-0.2-7.9,38.6-46.7,58.3-57.8c5-6.4,7.5-18.2,7.6-19.2c-1.4,9.4-3.4,14.6-5,17.5C565.4,168.4,559.7,114.9,549.7,108.3z"/>
<path class="st19" d="M515.9,174.6c0,0,7.5,0.3,15.4,1.1c5.4,0.5,11.1,1.1,14.1,2.4c7.5,3.1,6.7,16.4-9,13.9
	S514.8,178.5,515.9,174.6z"/>
<path class="st19" d="M544.8,184.2c0.1,0,2.2,11.4-8,10.9c-6.7-0.3-21.3-8.5-20-14.2c0.6-2.7,5.7-9.9,6.7-26.1l1.2,0.3l20.6,5.5
	c0,0-0.9,6.5-1.3,12.7C543.6,178.6,543.6,183.6,544.8,184.2z"/>
<path class="st27" d="M545.3,160.7c0,0-0.9,6.5-1.3,12.7c-11.7-1.1-17.2-12.2-19.3-18.3L545.3,160.7z"/>
<path class="st29" d="M522.7,152.7c0,0-5.5-10.1-6.4-18.5c-0.7-6,3.8-27.7,25.6-23.1c0,0,6.4,1.1,12.1,5.5c4.6,3.5,11,11,2,29.6
	l-2.4,6.3L522.7,152.7z"/>
<path class="st19" d="M548.8,166.8c0,0-27.7-1.4-26.6-18.6c1.1-17.2-1.7-29,16.1-28.9c17.7,0.2,20.7,7,21.8,12.8
	C561.1,138,556.1,166.7,548.8,166.8z"/>
<path class="st29" d="M551,119.7c0,0-8.9,19.7-20.8,21.9c-11.8,2.2-16.7-1.2-16.7-1.2s9.4-6.5,12.1-18.7
	C525.6,121.7,545.9,109.7,551,119.7z"/>
<path class="st29" d="M549,121.2c0,0,5.4,4.9,6.4,9.4c1.1,4.5,1.1,13.6,3.8,13.4c0,0,6.6-13.4,0.7-21.6
	C553.6,113.8,549,121.2,549,121.2z"/>
<path class="st18" d="M576.6,290.5c-2.2,2.7-9.2,3.5-16.7,4.7c-5.9,1-12.1,2.2-16.5,4.8c-10,5.9-42.6,25.7-52.2,24.8
	c-3.7-0.3-3-7.4-0.8-16.8c3.5-14.8,10.9-35.4,10.9-44.4c0-4.9,1.6-16.5,3.8-29.7c0.2-1.1,0.4-2.1,0.5-3.2
	c4.3-25.7,10.3-56.1,10.3-56.1s6.6,14.5,19.6,14.5c12.9,0,9.9-11,9.9-11s11.8,1.4,14.6,4.4s9.9,16,11.3,19.5c0,0,0.3,4.5-10.9,6.7
	c0,0,2.7,12.2,3,20.4c0.2,6-4.1,24.9-5.4,36.6c-0.4,4.2-0.5,7.4,0.2,8.9c0.9,1.9,3.7,3.8,6.8,5.6
	C571.4,283.8,579.2,287.3,576.6,290.5z"/>
<path class="st16" d="M565.1,280.1c7.2,12.2-19.4,15.9-23.8,18.5c-10,5.9-40.5,27.1-50.1,26.2c-3.7-0.3-3-7.4-0.8-16.8
	c3.5-14.8,10.9-35.4,10.9-44.4c0-4.9,1.6-16.5,3.8-29.7l11.5-11.1c0,0,12.3,31.9,24.1,37.1c6.2,2.7,12.6,4.5,17.3,5.6
	c-0.4,4.2-0.5,7.4,0.2,8.9C559.1,276.4,561.9,278.2,565.1,280.1z"/>
<path class="st19" d="M512.4,184.1c0,0-9.8-6-19.4,5.4c-9.5,11.3,6.8,92.4,20.9,96.6c15.7,4.6,60.9-0.7,60.9-0.7l-0.9-7.1
	c0,0-48.2-9.2-50.2-11.8C521.8,263.9,517.4,185.4,512.4,184.1z"/>
<path class="st18" d="M515.9,174.6c0,0-20.2,1.8-26.1,8.5s-7.6,24.7-7.6,24.7s17.8,14.4,39.3,8.8L515.9,174.6z"/>
<g>
	<rect x="579.6" y="289.1" class="st30" width="26.7" height="3.2"/>
	<path class="st30" d="M600.6,291.9c0.3-1,24.6-39.2,24.6-39.2h54.1l-27.1,38.2L600.6,291.9z"/>
	<path class="st29" d="M602.9,292.3c0.3-1,24.6-39.6,24.6-39.6h51.7l-25.8,39.6H602.9z"/>
	<path class="st30" d="M648.4,272.6c-0.5,1.5-2.2,2.8-3.8,2.8c-1.5,0-2.4-1.3-1.8-2.8c0.5-1.5,2.2-2.8,3.8-2.8
		C648.2,269.8,649,271.1,648.4,272.6z"/>
</g>
<path class="st19" d="M570,277.9c0,0,15.7-3,17.5-2.3c1.8,0.8,11.6,9.6,10.6,11.4s-5.1,3-9.6,1.5c-4.6-1.5-14.4-2.3-16.2-4.6
	C570.5,281.7,570,277.9,570,277.9z"/>
<path class="st22" d="M601.3,437c-5.7,33.1-37.2,54-69.4,54h-65l5.1-198.8c0,0,62-21.6,77.6-1.1c13.7,18,50.7,89.5,52.6,131.7
	C602.4,427.8,602.1,432.5,601.3,437z"/>
<path class="st24" d="M601.3,437c-5.7,33.1-37.2,54-69.4,54h-52C504.2,474.5,537,428.9,601.3,437z"/>
<path class="st26" d="M500.5,490.9c-0.5,0-1,0.1-1.5,0.1c-1,0.1-2.1,0.1-3.1,0.1c-0.3,0-0.7,0-1,0h-65l0,0c-1.2,0-2.5,0-3.8,0
	c-6.7,0.1-13.7,0.2-20.2,0.2c-1.1,0-2.2,0-3.2,0c-0.4,0-0.8,0-1.2,0c-6.4,0-12.1,0.1-16.1,0c-5.7,0-11-0.4-16.1-1.2
	c-6.5-1-12.5-2.7-17.9-5.1c-2-0.9-3.9-1.8-5.7-2.9c-2.5-1.4-4.8-3-7.1-4.8c-5.8-4.6-10.8-10.4-15-17.6c-3-5-5.5-10.6-7.8-17
	c-2.8-8-5.1-17-6.8-27.2c-2.5-14.6-3.9-31.6-4.4-51.3c-0.2-7.9-0.2-16.3,0-25.1c0.2-14.1,0.9-29.3,1.9-45.7
	c1.4-23,3.6-48.5,6.5-76.5c2.6-25.6,5.7-43.4,10.1-47.5c6.5-6,20.1-8.4,29.5-9.4l0,0c5.9-0.6,10.1-0.6,10.1-0.6
	c11.5,0,21.8,8.3,25.5,20.6c7.5,25.1,21,69.9,35,116.8c0.1,0.2,0.1,0.5,0.2,0.7c0.8,2.7,1.6,5.4,2.4,8.1c0.1,0.4,0.2,0.8,0.4,1.2
	c0.8-0.4,1.6-0.7,2.5-1.1h0.1c3.4-1.5,7.2-3.1,11.3-4.8l0,0c2.1-0.9,4.3-1.7,6.6-2.6c6.4-2.5,13.3-4.9,20.4-7
	c3.1-0.9,6.3-1.8,9.4-2.6c4-1,8-1.8,11.8-2.5c0.1,0,0.2,0,0.3-0.1c0.5-0.1,0.9-0.1,1.4-0.2c16.7-2.5,31.2-0.7,37.2,9.8
	c9.6,16.9,36,84.5,37.9,126.9C567,461.9,535.1,488.3,500.5,490.9z"/>
<path class="st22" d="M396.2,314.8c0,0-33.4-135.9-35.8-147.4c-1.1-5.1-4.4-6.9-7.7-7.4c5.9-0.6,10.1-0.6,10.1-0.6
	c11.5,0,21.8,8.3,25.5,20.5c8.1,26.8,23,76.2,38,126.5C425.6,306.4,396.2,314.8,396.2,314.8z"/>
<path class="st23" d="M519.2,380.2c-8.9-14.8-1.4-17.5-2.8-50.6c-1.4-33.1-16.8-30.3-23.2-36.7c-1.2-1.2-2.2-3.6-3.1-6.8
	c-0.5,0.1-0.9,0.1-1.4,0.2c-0.1,0-0.2,0-0.3,0.1c-3.9,0.6-7.8,1.5-11.8,2.5c-3.1,0.8-6.3,1.6-9.4,2.6c-7,2.1-13.9,4.5-20.4,7
	c-2.3,0.9-4.5,1.7-6.6,2.6c-5.5,34.7-14.1,190.1-14.1,190.1c0.1,0.1,0.1,0.1,0.2,0.2c7-0.1,14.5-0.1,21.7-0.2c1,0,2,0,3,0l0,0h49.1
	c0.1,0,0.1-0.1,0.2-0.1l0.1-0.1c13.2-8.2,10.2-24.6,7.1-34.8c-1.3-11-6.1-23.9-10.1-35.8c1.2-3.6,3-5.7,10.4-8.5
	c8.2-3,10.4-16,10.4-16c2.2,5.8-2.8,13.8-3,14C515.7,409.4,528,394.8,519.2,380.2z"/>
<path class="st20" d="M409.6,313.2c0,0-49.5,21.6-58.5,21.2s-64.3-16.9-64.3-16.9l1.4,9.5c0,0,42.7,24.6,57.7,26
	c14.7,1.4,65-13.2,69.8-16.3C420.5,333.6,423.7,316.3,409.6,313.2z"/>
<path class="st17" d="M417,233.9c0,0,18.3-3.5,27.4,3.2c16.5,12,17.4,53.5,23.5,59.7c6.2,6.2,21.1,3.5,22.4,35.5s-5.9,34.6,2.7,48.9
	s-3.7,28.6-3.7,28.6s5-7.9,2.9-13.6c0,0-2.1,12.5-10.1,15.5c-8,2.9-9.2,5.1-10.4,9.4c0,0-68-34.8-68.1-59.6
	c-0.1-24.7-13.4-49.2-6.8-59.9c0,0-2.9,4.6-3.3,9.7c0,0-3.9-7.5,2.9-14.5s-8-21.5-5.8-38.2C392.1,247,400.2,234.4,417,233.9z"/>
<path class="st19" d="M403.5,336.7c4.3,3,9.8,5.5,16.6,7.1c25.6,5.9,35.5-15.8,39.2-30.6c-3.5-2-6.8-2.4-8.7-2.7
	c-1.9-0.2-3.8-0.4-5.4-0.4c-2.9-2.2-7.2-11.2-8.1-25.3l-1.2,0.3l-20.2,5.5c0,0,0.9,6.4,1.4,12.5c0.4,4.8,0.4,9.3-0.5,10.4
	c-1.6,0.3-2.5,0.6-2.5,0.6l0,0C413.8,314.6,407.9,324.3,403.5,336.7z"/>
<path class="st20" d="M415.7,290.7c0,0,0.9,6.4,1.4,12.5c11.5-1.1,16.8-12,18.8-18L415.7,290.7z"/>
<path class="st19" d="M412.3,296.7c0,0,27.2-1.5,26-18.4s1.5-28.5-15.9-28.3s-20.3,6.9-21.3,12.7S405.2,296.7,412.3,296.7z"/>
<path class="st17" d="M401.2,253.3c3.8-5.4,7.1-4.5,9-3.1c14.3-9.2,24.7,2.2,24.7,2.2c2.7,12,11.9,18.3,11.9,18.3s-4.7,3.4-16.3,1.3
	c-3.5-0.6-6.8-2.9-9.7-5.7c5.2,7.4,11.9,12.5,11.9,12.5c-14.1-5.3-20.9-23.9-21.6-25.8c-1.6,1.6-4.6,5.1-5.4,8.3
	c-1,4.4-5.6,11.3-8.2,11.2C397.5,272.4,395.5,261.4,401.2,253.3z"/>
<path class="st29" d="M467.1,392c2.5-12.5,10.5-62.7,2.5-78.8c-2.9-5.8-14.2-6.3-26.5-5.8c-3.9,2.5-18.5,11.9-24.6,10.7
	c-0.1,0-0.2,0-0.3-0.1c-2.8-0.7-3.9-2.7-1.5-4.4c0,0-6.1-0.6-13.7,0.8c-4.3,0.8-15.9,6.8-15.9,6.8s5.8,10.5,14.5,14.2
	c-1.5,13.1,0.7,18.9,14.3,49.1c11.5,25.6-1.5,48.6-1.5,48.6s67.6,54.3,68,26.7C482.4,439,464,408.1,467.1,392z"/>
<path class="st31" d="M410.8,492.2c-3.7-0.4-7-2.4-9-5.5c-0.3-0.5-0.7-1-1-1.6c-7.7-11.6-10.7-47.3-28-85.3
	c-4.2-9.3-19.3-10.9-23.5-21.4c0,0-10.2-33.9,19.4-34.9s79.2,94.3,80,104.3C449.5,457.6,468.3,498.7,410.8,492.2z"/>
<path class="st30" d="M293.2,491.5h42.1c0,0,1.6-6.7-1.2-11.3c-2.4-4-1.5-6.3,0.3-9.7c-1.9,0.8-4.4,1.5-7.1,1.3
	c-2.1-0.1-4.3-1.1-6.3-2.2c-1.8,2.1-9.6,10.9-12,12.6C306.3,484.2,294,483.5,293.2,491.5z"/>
<path class="st30" d="M462.7,326.3c0,0,5.5,49.9-30.1,60.3c-35.5,10.4-45.6-45.9-16.9-49.9C444.4,332.7,462.7,326.3,462.7,326.3z"/>
<path class="st9" d="M348.3,353.4c-2.5,19-12.4,79-29.9,108.3c-5.6,9.4,14.2,14.7,14.3,14.7c2.7-0.7,7.1-4.9,9.1-6.8
	c14.2-12.8,43-49,43-78c0-14.1,0.2-41.2-10-48C368.4,339.4,349.3,345.8,348.3,353.4z"/>
<path class="st13" d="M435.9,491.5c0,0-1.6-2.2-4.3-6.3c-3.2-4.9-6.8-14.6-11.2-26.9c-4.6-13-10-29-16.8-45.6
	c-2.1-5.1-4.3-10.3-6.7-15.5c-4.2-9.3-15.8-8-19.9-18.4c0,0-16.1-36.3,13.5-37.3s85.8,97,89,106.5
	C483.2,458.3,500.4,501.4,435.9,491.5z"/>
<path class="st29" d="M324.1,491.5h42.1c0,0,1.6-6.7-1.2-11.3c-2.4-4-1.5-6.3,0.3-9.7c-1.9,0.8-4.4,1.5-7.1,1.3
	c-2.1-0.1-4.3-1.1-6.3-2.2c-1.8,2.1-9.6,10.9-12,12.6C337.2,484.2,325,483.5,324.1,491.5z"/>
<path class="st9" d="M420.5,458.2c-4.6-13-10-29-16.8-45.6c1.8-12.6,5.6-23.6,12-28.1C415.7,384.6,431.3,432.8,420.5,458.2z"/>
<path class="st13" d="M372.9,352c-2.5,19-6.1,80.4-23.6,109.6c-5.6,9.4,14.2,14.7,14.3,14.7c2.7-0.7,7.1-4.9,9.1-6.8
	c14.2-12.8,43-49,43-78c0-14.1-16.6-40-26.9-46.9C382.5,340.5,373.9,344.5,372.9,352z"/>
<g>
	<path class="st30" d="M281.7,293l43.1-4.6c1.3-0.1,2.4,0.6,2.9,1.8l15.4,40.5c0.7,1.8-0.6,3.7-2.5,3.8l-42.8,1.7
		c-1.2,0-2.2-0.6-2.7-1.7l-15.8-37.7C278.7,295.1,279.9,293.2,281.7,293z"/>
	<path class="st29" d="M278,293.4l43.1-4.6c1.3-0.1,2.4,0.6,2.9,1.8l15.4,40.5c0.7,1.8-0.6,3.7-2.5,3.8l-42.8,1.7
		c-1.2,0-2.2-0.6-2.7-1.7l-15.8-37.7C275,295.5,276.1,293.6,278,293.4z"/>
	<path class="st30" d="M301.9,312.3c-0.5-1.4,0.2-2.6,1.7-2.6c1.4,0,3,1.2,3.6,2.6c0.5,1.4-0.2,2.6-1.7,2.6
		C304,315,302.4,313.8,301.9,312.3z"/>
	<path class="st30" d="M279.3,297.2c-0.3-0.7,0.1-1.3,0.8-1.3c0.7,0,1.5,0.6,1.8,1.3c0.3,0.7-0.1,1.3-0.8,1.3
		C280.3,298.5,279.5,297.9,279.3,297.2z"/>
</g>
<path class="st19" d="M459.4,313.2c0,0-59.8,22-68.8,21.6c-5.8-0.3-54.1-17.3-54.1-17.3l-4.3,8.2c0,0,47,30.2,59.9,30
	c25.5-0.3,68.5-15.9,73.4-19C470.3,333.6,473.5,316.3,459.4,313.2z"/>
<path class="st19" d="M336.5,317.5c0,0-4.3-6.7-8.6-6.9c-4.3-0.2-11.8,2.9-14.3,3.4s-9.8,2.8-7.6,6.4c2.2,3.5,12.2,4.3,16.5,3.5
	s9.8,1.7,9.8,1.7L336.5,317.5z"/>
<path class="st19" d="M329.1,310.9c0,0-6.9-3.1-8.8-3.7c-2-0.6-1.6,0-1,1.9s4.1,3.6,4.1,4.2C323.4,313.8,329.1,310.9,329.1,310.9z"
	/>
<path class="st19" d="M282.4,314c0,0,4.3-6.8,5.7-7.1c4.3-0.9,4.3,4.8,3.4,8.5c-1,3.9-4.3,7.6-5.2,7.3
	C285.4,322.3,281.4,317.6,282.4,314z"/>
<path class="st19" d="M282.2,315.4c0,0-1.4,7.7,5.9,11.7L282.2,315.4z"/>
<path class="st32" d="M407.2,287c0,0,2.6-1,9.8-0.4c0,0-0.4,2.8-5.7,3.1C408.3,289.8,407.2,287,407.2,287z"/>
<path class="st29" d="M428.6,324.1c0,0,5.3,16.9,23.7,20.8c0,0,30.3-9.3,15.2-30C467.5,314.8,452.6,303.7,428.6,324.1z"/>
</svg>
