<?xml version="1.0" encoding="utf-8"?>
<!-- Generator: Adobe Illustrator 25.0.1, SVG Export Plug-In . SVG Version: 6.00 Build 0)  -->
<svg version="1.1" id="Layer_1" xmlns="http://www.w3.org/2000/svg" xmlns:xlink="http://www.w3.org/1999/xlink" x="0px" y="0px"
	 viewBox="0 0 300 140" style="enable-background:new 0 0 300 140;" xml:space="preserve">
<style type="text/css">
	.st0{fill:none;}
	.st1{fill:#6B6BED;}
	.st2{fill:#5D4BC9;}
	.st3{fill:#EDEDED;}
	.st4{fill:#CAD6E3;}
	.st5{fill:#FFB872;}
	.st6{fill:#FFFFFF;}
	.st7{fill:#E8EAEC;}
	.st8{fill:#FA7B4E;}
	.st9{fill:#AFAFF9;}
	.st10{fill:#AEAEAE;}
	.st11{fill:#FF7F72;}
	.st12{fill:#FF9A8C;}
	.st13{fill:#1C3177;}
	.st14{fill:#006BB4;}
	.st15{fill:#070D1B;}
	.st16{fill:#FFDE44;}
	.st17{fill:#3F4293;}
</style>
<rect class="st0" width="300" height="140"/>
<g>
	<polygon class="st1" points="99.2,92.1 5.9,111.5 5.9,1.9 99.2,34 	"/>
</g>
<g>
	<polygon class="st2" points="39.4,104.5 99.2,92.1 99.2,34 86.8,29.7 	"/>
</g>
<g>
	<g>
		<g>
			<polygon class="st3" points="86,74.9 12.2,80.2 12.2,20.1 86,38.2 			"/>
		</g>
		<g>
			<g>
				<g>
					<polygon class="st4" points="35.5,71.6 26.5,71.8 26.5,38 35.5,39.5 					"/>
				</g>
				<g>
					<path class="st5" d="M33.9,64.6c0-1.1-1.2-2-2.8-2c-1.6,0-2.9,0.8-2.9,2c0,0.9,0.8,1.7,2,1.9v5.3l1.8-0.1v-5.3
						C33.1,66.2,33.9,65.4,33.9,64.6z"/>
				</g>
			</g>
			<g>
				<g>
					<polygon class="st4" points="45.4,71.3 37.4,71.5 37.4,39.8 45.4,41.1 					"/>
				</g>
				<g>
					<path class="st5" d="M44,50.8c0-1-1.1-2-2.5-2.1c-1.4-0.2-2.5,0.6-2.5,1.6c0,0.8,0.7,1.6,1.7,2v19.2l1.6,0v-19
						C43.3,52.3,44,51.6,44,50.8z"/>
				</g>
			</g>
			<g>
				<g>
					<polygon class="st4" points="54.1,71 47,71.2 47,41.3 54.1,42.5 					"/>
				</g>
				<g>
					<path class="st5" d="M52.8,57.2c0-1-1-1.8-2.2-1.9c-1.2-0.1-2.2,0.6-2.2,1.6c0,0.8,0.6,1.5,1.5,1.8v12.5l1.4,0V58.7
						C52.2,58.6,52.8,57.9,52.8,57.2z"/>
				</g>
			</g>
			<g>
				<g>
					<polygon class="st4" points="61.9,70.8 55.6,71 55.6,42.7 61.9,43.8 					"/>
				</g>
				<g>
					<path class="st5" d="M60.8,54.3c0-0.9-0.9-1.7-2-1.9c-1.1-0.1-2,0.6-2,1.5c0,0.8,0.6,1.4,1.4,1.7v15.3l1.3,0V55.7
						C60.2,55.6,60.8,55,60.8,54.3z"/>
				</g>
			</g>
			<g>
				<g>
					<polygon class="st4" points="69,70.6 63.3,70.7 63.3,44 69,44.9 					"/>
				</g>
				<g>
					<path class="st5" d="M67.9,62.2c0-0.9-0.8-1.6-1.8-1.7c-1,0-1.8,0.6-1.8,1.5c0,0.7,0.5,1.3,1.2,1.6v7.1l1.1,0v-7.1
						C67.5,63.4,67.9,62.8,67.9,62.2z"/>
				</g>
			</g>
			<g>
				<g>
					<polygon class="st4" points="75.4,70.4 70.2,70.5 70.2,45.1 75.4,46 					"/>
				</g>
				<g>
					<path class="st5" d="M74.4,56.2c0-0.8-0.7-1.6-1.6-1.6c-0.9-0.1-1.6,0.5-1.6,1.4c0,0.7,0.5,1.3,1.1,1.5v13l1,0V57.6
						C74,57.4,74.4,56.9,74.4,56.2z"/>
				</g>
			</g>
			<g>
				<g>
					<polygon class="st4" points="81.2,70.2 76.5,70.4 76.5,46.1 81.2,46.9 					"/>
				</g>
				<g>
					<path class="st5" d="M80.3,49.9c0-0.8-0.6-1.5-1.4-1.6c-0.8-0.1-1.5,0.4-1.5,1.2c0,0.6,0.4,1.2,1,1.5v19.4l0.9,0V51.1
						C79.9,51,80.3,50.5,80.3,49.9z"/>
				</g>
			</g>
		</g>
		<g>
			<polygon class="st4" points="35.5,37.6 26.5,36.1 26.5,33.9 35.5,35.6 			"/>
		</g>
		<g>
			<g>
				<polygon class="st4" points="23.3,41.9 17.2,41.1 17.2,39.7 23.3,40.6 				"/>
			</g>
			<g>
				<polygon class="st4" points="23.3,48.1 17.2,47.4 17.2,46.1 23.3,46.8 				"/>
			</g>
			<g>
				<polygon class="st4" points="23.3,54.2 17.2,53.8 17.2,52.5 23.3,53 				"/>
			</g>
			<g>
				<polygon class="st4" points="23.3,60.4 17.2,60.2 17.2,58.9 23.3,59.1 				"/>
			</g>
			<g>
				<polygon class="st4" points="23.3,66.6 17.2,66.6 17.2,65.3 23.3,65.3 				"/>
			</g>
			<g>
				<polygon class="st4" points="23.3,72.8 17.2,73 17.2,71.7 23.3,71.5 				"/>
			</g>
		</g>
		<g>
			<g>
				<polygon class="st4" points="45.4,39.4 37.4,38 37.4,36 45.4,37.4 				"/>
			</g>
			<g>
				<polygon class="st4" points="54.1,40.9 47,39.6 47,37.7 54.1,39.1 				"/>
			</g>
			<g>
				<polygon class="st4" points="61.9,42.2 55.6,41.1 55.6,39.3 61.9,40.5 				"/>
			</g>
			<g>
				<polygon class="st4" points="69,43.5 63.3,42.5 63.3,40.8 69,41.8 				"/>
			</g>
			<g>
				<polygon class="st4" points="75.4,44.6 70.2,43.7 70.2,42.1 75.4,43 				"/>
			</g>
			<g>
				<polygon class="st4" points="81.2,45.6 76.5,44.8 76.5,43.2 81.2,44.1 				"/>
			</g>
		</g>
	</g>
	<g>
		<g>
			<g>
				<polygon class="st6" points="29.3,84.7 10.4,86.7 10.4,84.5 29.3,82.7 				"/>
			</g>
			<g>
				<rect x="10.3" y="87.5" transform="matrix(0.9934 -0.1148 0.1148 0.9934 -9.933 2.8595)" class="st7" width="19" height="0.3"/>
			</g>
			<g>
				
					<rect x="10.3" y="89.9" transform="matrix(0.9918 -0.1275 0.1275 0.9918 -11.3224 3.2685)" class="st7" width="19.1" height="0.3"/>
			</g>
		</g>
		<g>
			<g>
				<polygon class="st5" points="56.4,81.9 43.3,83.2 43.3,81.4 56.4,80.2 				"/>
			</g>
			<g>
				
					<rect x="43.2" y="84" transform="matrix(0.9934 -0.1147 0.1147 0.9934 -9.3246 6.2721)" class="st7" width="13.3" height="0.3"/>
			</g>
			<g>
				
					<rect x="43.2" y="86" transform="matrix(0.9918 -0.1276 0.1276 0.9918 -10.5865 7.0644)" class="st7" width="13.3" height="0.3"/>
			</g>
		</g>
		<g>
			<g>
				<polygon class="st6" points="76.5,79.8 66.5,80.8 66.5,79.3 76.5,78.3 				"/>
			</g>
			<g>
				
					<rect x="66.5" y="81.5" transform="matrix(0.9934 -0.1147 0.1147 0.9934 -8.897 8.739)" class="st7" width="10.1" height="0.3"/>
			</g>
			<g>
				
					<rect x="66.5" y="83.2" transform="matrix(0.9918 -0.1276 0.1276 0.9918 -10.0546 9.8021)" class="st7" width="10.1" height="0.3"/>
			</g>
		</g>
	</g>
	<g>
		<g>
			<polygon class="st5" points="31.2,92.8 11.2,95.9 11.2,96.7 31.2,93.6 			"/>
		</g>
		<g>
			<polygon class="st5" points="34.8,94.3 11.2,98.2 11.2,99.1 34.8,95.1 			"/>
		</g>
		<g>
			<polygon class="st5" points="34.8,96.4 20.9,98.8 20.9,99.6 34.8,97.1 			"/>
		</g>
		<g>
			<polygon class="st5" points="18.7,99.2 11.2,100.5 11.2,101.4 18.7,100 			"/>
		</g>
		<g>
			<polygon class="st5" points="34.8,98.4 11.2,102.9 11.2,103.7 34.8,99.2 			"/>
		</g>
		<g>
			<polygon class="st5" points="34.8,100.4 11.2,105.2 11.2,106.1 34.8,101.2 			"/>
		</g>
	</g>
	<g>
		<g>
			<path class="st7" d="M18.5,14.7c0,1.4-1.7,2-3.8,1.4c-2.2-0.6-4-2.2-4-3.6c0-1.4,1.8-2,4-1.4C16.9,11.7,18.5,13.3,18.5,14.7z"/>
		</g>
		<g>
			<polygon class="st5" points="49.2,23.4 20.8,15.4 20.8,13.4 49.2,21.7 			"/>
		</g>
	</g>
</g>
<g>
	<rect x="155.4" y="11.3" class="st2" width="112.8" height="69.6"/>
</g>
<g>
	<polygon class="st1" points="268.2,11.4 253.8,11.4 227.5,81 268.2,81 	"/>
</g>
<g>
	<g>
		<g>
			<rect x="165.8" y="17.9" class="st6" width="61.9" height="44.7"/>
		</g>
		<g>
			<g>
				<rect x="173.5" y="21.9" class="st7" width="5.2" height="38.6"/>
			</g>
			<g>
				<rect x="180.2" y="21.9" class="st7" width="5.2" height="38.6"/>
			</g>
			<g>
				<rect x="186.8" y="21.9" class="st7" width="5.2" height="38.6"/>
			</g>
			<g>
				<rect x="193.5" y="21.9" class="st7" width="5.2" height="38.6"/>
			</g>
			<g>
				<rect x="200.1" y="21.9" class="st7" width="5.2" height="38.6"/>
			</g>
			<g>
				<rect x="206.8" y="21.9" class="st7" width="5.2" height="38.6"/>
			</g>
			<g>
				<rect x="213.5" y="21.9" class="st7" width="5.2" height="38.6"/>
			</g>
			<g>
				<path class="st5" d="M178.1,60.6h-4V37.3c0-1.1,0.9-1.9,2-1.9h0c1.1,0,2,0.9,2,1.9V60.6z"/>
			</g>
			<g>
				<path class="st5" d="M184.7,60.6h-4V32.7c0-1.1,0.9-1.9,2-1.9h0c1.1,0,2,0.9,2,1.9V60.6z"/>
			</g>
			<g>
				<path class="st5" d="M191.4,60.6h-4V44.2c0-1.1,0.9-1.9,2-1.9h0c1.1,0,2,0.9,2,1.9V60.6z"/>
			</g>
			<g>
				<path class="st5" d="M198.1,60.6h-4V29.9c0-1.1,0.9-1.9,2-1.9h0c1.1,0,2,0.9,2,1.9V60.6z"/>
			</g>
			<g>
				<path class="st5" d="M204.7,60.6h-4V37.3c0-1.1,0.9-1.9,2-1.9h0c1.1,0,2,0.9,2,1.9V60.6z"/>
			</g>
			<g>
				<path class="st5" d="M211.4,60.6h-4V43.4c0-1.1,0.9-1.9,2-1.9h0c1.1,0,2,0.9,2,1.9V60.6z"/>
			</g>
			<g>
				<path class="st5" d="M218.1,60.6h-4V37.3c0-1.1,0.9-1.9,2-1.9h0c1.1,0,2,0.9,2,1.9V60.6z"/>
			</g>
		</g>
	</g>
	<g>
		<g>
			<g>
				<g>
					<rect x="231.8" y="27.5" class="st6" width="14.5" height="1.7"/>
				</g>
				<g>
					<rect x="231.8" y="30.6" class="st7" width="14.5" height="0.3"/>
				</g>
				<g>
					<rect x="231.8" y="32.5" class="st7" width="14.5" height="0.3"/>
				</g>
			</g>
			<g>
				<g>
					<rect x="231.8" y="36.1" class="st6" width="14.5" height="1.7"/>
				</g>
				<g>
					<rect x="231.8" y="39.2" class="st7" width="14.5" height="0.3"/>
				</g>
				<g>
					<rect x="231.8" y="41.2" class="st7" width="14.5" height="0.3"/>
				</g>
			</g>
			<g>
				<g>
					<rect x="231.8" y="44.8" class="st6" width="14.5" height="1.7"/>
				</g>
				<g>
					<rect x="231.8" y="47.9" class="st7" width="14.5" height="0.3"/>
				</g>
				<g>
					<rect x="231.8" y="49.8" class="st7" width="14.5" height="0.3"/>
				</g>
			</g>
		</g>
		<g>
			<g>
				<rect x="232" y="18" class="st8" width="8.3" height="0.5"/>
			</g>
			<g>
				<rect x="232" y="19.3" class="st7" width="12.3" height="0.5"/>
			</g>
			<g>
				<rect x="232" y="20.7" class="st7" width="2.1" height="0.5"/>
			</g>
			<g>
				<rect x="235.5" y="20.7" class="st7" width="3.1" height="0.5"/>
			</g>
			<g>
				<rect x="239.8" y="20.7" class="st7" width="5.6" height="0.5"/>
			</g>
			<g>
				<rect x="232" y="22.1" class="st7" width="5" height="0.5"/>
			</g>
			<g>
				<rect x="237.9" y="22.1" class="st7" width="7.5" height="0.5"/>
			</g>
			<g>
				<rect x="232" y="23.4" class="st7" width="8" height="0.5"/>
			</g>
			<g>
				<rect x="242.6" y="23.4" class="st7" width="2.8" height="0.5"/>
			</g>
		</g>
		<g>
			<g>
				<rect x="214.4" y="67.2" class="st8" width="8.3" height="0.5"/>
			</g>
			<g>
				<rect x="214.4" y="68.5" class="st7" width="12.3" height="0.5"/>
			</g>
			<g>
				<rect x="214.4" y="69.9" class="st7" width="2.1" height="0.5"/>
			</g>
			<g>
				<rect x="217.8" y="69.9" class="st7" width="3.1" height="0.5"/>
			</g>
			<g>
				<rect x="222.2" y="69.9" class="st7" width="5.6" height="0.5"/>
			</g>
			<g>
				<rect x="214.4" y="71.3" class="st7" width="5" height="0.5"/>
			</g>
			<g>
				<rect x="220.3" y="71.3" class="st7" width="7.5" height="0.5"/>
			</g>
			<g>
				<rect x="214.4" y="72.6" class="st7" width="8" height="0.5"/>
			</g>
			<g>
				<rect x="225" y="72.6" class="st7" width="2.8" height="0.5"/>
			</g>
		</g>
		<g>
			<rect x="166.1" y="14" class="st7" width="26.1" height="3"/>
		</g>
		<g>
			<rect x="253.8" y="13.7" class="st7" width="11.5" height="3"/>
		</g>
		<g>
			<g>
				<rect x="200" y="68.2" class="st5" width="8.2" height="1.2"/>
			</g>
			<g>
				<rect x="200" y="70.9" class="st5" width="4.2" height="0.5"/>
			</g>
			<g>
				<rect x="205" y="70.9" class="st5" width="2.7" height="0.5"/>
			</g>
			<g>
				<polygon class="st5" points="206.1,72.2 206.1,72.5 205.9,72.5 205.9,72.2 201.5,72.2 201.5,72.7 208,72.7 208,72.2 				"/>
			</g>
			<g>
				<rect x="200" y="72.2" class="st5" width="1.1" height="0.5"/>
			</g>
			<g>
				<rect x="208.2" y="72.2" class="st5" width="1" height="0.5"/>
			</g>
		</g>
	</g>
</g>
<g>
	<polygon class="st9" points="134.2,109.2 88.7,118.8 88.7,4 134.2,26.5 	"/>
</g>
<g>
	<polygon class="st1" points="134.2,26.5 121.4,20.1 94.6,117.6 134.2,109.2 	"/>
</g>
<g>
	<g>
		<g>
			<g>
				<g>
					<path class="st10" d="M101.9,47.9c-3.5-0.5-6.6,2.5-6.6,6.7c0,4.2,3,7.6,6.6,7.7c3.3,0.1,5.9-2.9,5.9-6.7
						C107.8,51.8,105.3,48.4,101.9,47.9z M101.9,61.3c-3-0.1-5.6-3-5.6-6.6c0-3.6,2.6-6.1,5.6-5.7c2.9,0.4,5.1,3.3,5.1,6.6
						C107,58.8,104.8,61.4,101.9,61.3z"/>
				</g>
				<g>
					<path class="st5" d="M105.5,51.1l0.5-0.7c-0.9-1.2-2.3-2.1-4-2.5v1C103.4,49.2,104.6,50,105.5,51.1z"/>
				</g>
				<g>
					<path class="st6" d="M104,55.3c0,1.3-0.9,2.3-2,2.2c-1.2-0.1-2.1-1.2-2.1-2.6s1-2.3,2.1-2.2C103.1,52.8,104,54,104,55.3z"/>
				</g>
			</g>
			<g>
				<g>
					<path class="st10" d="M114.4,49.7c-2.8-0.4-5.2,2.3-5.2,6c0,3.7,2.4,6.8,5.2,6.8c2.7,0.1,4.8-2.7,4.8-6S117.1,50.1,114.4,49.7z
						 M114.4,61.6c-2.4-0.1-4.4-2.7-4.4-5.9c0-3.2,2-5.5,4.4-5.1c2.3,0.3,4.1,2.9,4.1,5.8C118.5,59.4,116.7,61.7,114.4,61.6z"/>
				</g>
				<g>
					<path class="st5" d="M114.4,50.6c1.6,0.2,3,1.6,3.7,3.3l0.6-0.4c-0.8-2-2.4-3.6-4.2-3.8c-0.9-0.1-1.7,0.1-2.5,0.5l0.4,0.9
						C113,50.7,113.7,50.5,114.4,50.6z"/>
				</g>
				<g>
					<path class="st6" d="M116.1,56.3c0,1.2-0.7,2.1-1.6,2c-0.9-0.1-1.7-1.1-1.7-2.3c0-1.2,0.8-2.1,1.7-2
						C115.3,54.1,116.1,55.1,116.1,56.3z"/>
				</g>
			</g>
			<g>
				<g>
					<path class="st10" d="M124.5,51.1c-2.3-0.3-4.3,2.1-4.3,5.5c0,3.4,2,6.1,4.3,6.2c2.2,0,3.9-2.4,3.9-5.5
						C128.4,54.2,126.7,51.4,124.5,51.1z M124.5,61.9c-2-0.1-3.6-2.4-3.6-5.3s1.7-4.9,3.6-4.7c1.9,0.3,3.4,2.6,3.4,5.2
						S126.4,62,124.5,61.9z"/>
				</g>
				<g>
					<path class="st5" d="M127.9,57.2c0,1.3-0.4,2.5-0.9,3.3l0.4,0.5c0.6-1,1-2.3,1-3.8c0-3.1-1.7-5.8-3.9-6.1V52
						C126.4,52.3,127.9,54.6,127.9,57.2z"/>
				</g>
				<g>
					<path class="st6" d="M125.9,57.1c0,1.1-0.6,1.9-1.3,1.8c-0.8,0-1.4-1-1.4-2.1s0.6-1.9,1.4-1.8C125.3,55.1,125.9,56,125.9,57.1z
						"/>
				</g>
			</g>
		</g>
		<g>
			<g>
				<path class="st4" d="M105.6,16c-7.4-3.2-14.2,1.5-14.2,10.9c0,9.3,6.8,18,14.2,19.2c6.6,1.1,11.4-4.2,11.4-11.7
					S112.2,18.8,105.6,16z M105.6,33.8c-1.3-0.4-2.4-2-2.4-3.6c0-1.6,1.1-2.5,2.4-2.1c1.3,0.4,2.3,2,2.3,3.5
					C107.9,33.2,106.9,34.2,105.6,33.8z"/>
			</g>
			<g>
				<path class="st8" d="M105.6,16c-1.7-0.7-3.3-1-4.9-1l4.5,13.1c0.1,0,0.3,0,0.4,0.1c0.1,0,0.2,0.1,0.3,0.1l4.4-9.2
					C108.9,17.8,107.3,16.7,105.6,16z"/>
			</g>
			<g>
				<path class="st5" d="M105.2,28.1L100.7,15c-1.6,0.1-3.1,0.5-4.4,1.3l7.3,12.4C104,28.3,104.6,28,105.2,28.1z"/>
			</g>
			<g>
				<path class="st7" d="M110.3,19.1l-4.4,9.2c1.1,0.6,2,2,2,3.4c0,0.2,0,0.5-0.1,0.7L117,35c0-0.2,0-0.4,0-0.6
					C117,28.7,114.3,22.9,110.3,19.1z"/>
			</g>
		</g>
	</g>
	<g>
		<g>
			<polygon class="st5" points="107.9,68.5 96.8,68.9 96.8,69.7 107.9,69.3 			"/>
		</g>
		<g>
			<polygon class="st5" points="109.9,70.4 96.8,71.1 96.8,71.9 109.9,71.2 			"/>
		</g>
		<g>
			<polygon class="st5" points="109.9,72.4 102.2,72.9 102.2,73.7 109.9,73.1 			"/>
		</g>
		<g>
			<polygon class="st5" points="100.9,73 96.8,73.3 96.8,74.1 100.9,73.8 			"/>
		</g>
		<g>
			<polygon class="st5" points="109.9,74.4 96.8,75.5 96.8,76.4 109.9,75.1 			"/>
		</g>
		<g>
			<polygon class="st5" points="109.9,76.4 96.8,77.7 96.8,78.6 109.9,77.1 			"/>
		</g>
	</g>
	<g>
		<g>
			<polygon class="st5" points="126.2,34.5 120.7,32.8 120.7,30.7 126.2,32.5 			"/>
		</g>
		<g>
			<polygon class="st5" points="126.2,38.4 120.7,36.9 120.7,34.8 126.2,36.4 			"/>
		</g>
		<g>
			<polygon class="st5" points="126.2,42.2 120.7,40.9 120.7,38.8 126.2,40.2 			"/>
		</g>
	</g>
</g>
<g>
	<polygon class="st9" points="294.8,91.1 263.9,78.2 263.9,25.9 294.8,13 	"/>
</g>
<g>
	<g>
		<g>
			<g>
				<polygon class="st5" points="291.3,74 265,65 265,34.9 291.3,25.8 				"/>
			</g>
			<g>
				<g>
					<polygon class="st6" points="270.5,58.8 268.6,58.4 268.6,46.7 270.5,46.5 					"/>
				</g>
				<g>
					<polygon class="st6" points="273.5,59.3 271.3,58.9 271.3,46.5 273.5,46.3 					"/>
				</g>
				<g>
					<polygon class="st6" points="276.8,59.9 274.4,59.5 274.4,46.3 276.8,46.1 					"/>
				</g>
				<g>
					<polygon class="st6" points="280.5,60.6 277.8,60.1 277.8,46 280.5,45.9 					"/>
				</g>
				<g>
					<polygon class="st6" points="284.8,61.3 281.6,60.8 281.6,45.8 284.8,45.6 					"/>
				</g>
				<g>
					<polygon class="st6" points="289.7,62.2 286.1,61.6 286.1,45.5 289.7,45.2 					"/>
				</g>
				<g>
					<g>
						<polygon class="st8" points="269,58.5 269,52.9 270.1,53 270.1,58.7 						"/>
					</g>
					<g>
						<polygon class="st8" points="271.8,59 271.8,50.5 273,50.5 273,59.2 						"/>
					</g>
					<g>
						<polygon class="st8" points="274.9,59.6 274.9,55 276.2,55.2 276.2,59.8 						"/>
					</g>
					<g>
						<polygon class="st8" points="278.4,60.2 278.4,52.4 279.9,52.4 279.9,60.5 						"/>
					</g>
					<g>
						<polygon class="st8" points="282.3,60.9 282.3,49.6 284.1,49.6 284.1,61.2 						"/>
					</g>
					<g>
						<polygon class="st8" points="286.9,61.7 286.9,48.2 288.9,48.2 288.9,62.1 						"/>
					</g>
				</g>
			</g>
		</g>
		<g>
			<g>
				<polygon class="st6" points="266.5,40.5 265.7,40.7 265.7,41.3 266.5,41.1 				"/>
			</g>
			<g>
				<polygon class="st6" points="266.9,42.1 265.7,42.3 265.7,43 266.9,42.8 				"/>
			</g>
			<g>
				<polygon class="st6" points="267.1,42.1 267.1,42.8 267.7,42.7 267.7,42 				"/>
			</g>
			<g>
				<polygon class="st6" points="267.7,42 267.7,42.7 268.1,42.6 268.1,41.9 				"/>
			</g>
			<g>
				<polygon class="st6" points="266.3,43.9 265.7,44 265.7,44.6 266.3,44.6 				"/>
			</g>
			<g>
				<polygon class="st6" points="267.9,43.7 266.4,43.9 266.4,44.6 267.9,44.4 				"/>
			</g>
			<g>
				<polygon class="st6" points="267.4,45.5 267.4,46.2 268.1,46.1 268.1,45.5 				"/>
			</g>
			<g>
				<polygon class="st6" points="267.4,45.5 265.7,45.7 265.7,46.3 267.4,46.2 				"/>
			</g>
			<g>
				<polygon class="st6" points="266.7,47.3 265.7,47.4 265.7,48 266.7,48 				"/>
			</g>
			<g>
				<polygon class="st6" points="266.9,47.3 266.9,48 267.4,47.9 267.4,47.3 				"/>
			</g>
			<g>
				<polygon class="st6" points="267.7,47.3 267.4,47.3 267.4,47.9 267.7,47.9 				"/>
			</g>
		</g>
		<g>
			<g>
				<path class="st8" d="M269.6,40.8l-1.1,0.2c-0.1,0-0.2-0.2-0.2-0.4v0c0-0.2,0.1-0.4,0.2-0.5l1.1-0.2c0.1,0,0.2,0.2,0.2,0.4v0
					C269.8,40.5,269.7,40.7,269.6,40.8z"/>
			</g>
			<g>
				<path class="st8" d="M272.1,40.3l-1.2,0.2c-0.1,0-0.2-0.2-0.2-0.4v0c0-0.2,0.1-0.5,0.2-0.5l1.2-0.3c0.1,0,0.2,0.2,0.2,0.4v0
					C272.3,40,272.2,40.3,272.1,40.3z"/>
			</g>
			<g>
				<path class="st8" d="M274.9,39.8l-1.4,0.3c-0.1,0-0.2-0.2-0.2-0.4v0c0-0.3,0.1-0.5,0.2-0.5l1.4-0.3c0.1,0,0.2,0.2,0.2,0.4v0
					C275.1,39.5,275,39.7,274.9,39.8z"/>
			</g>
			<g>
				<path class="st8" d="M277.9,39.2l-1.5,0.3c-0.1,0-0.2-0.2-0.2-0.5v0c0-0.3,0.1-0.5,0.2-0.6l1.5-0.3c0.1,0,0.3,0.2,0.3,0.5v0
					C278.2,38.9,278.1,39.2,277.9,39.2z"/>
			</g>
			<g>
				<path class="st8" d="M281.4,38.5l-1.7,0.3c-0.1,0-0.3-0.2-0.3-0.5v0c0-0.3,0.1-0.6,0.3-0.6l1.7-0.4c0.2,0,0.3,0.2,0.3,0.5v0
					C281.7,38.2,281.5,38.5,281.4,38.5z"/>
			</g>
			<g>
				<path class="st8" d="M285.3,37.8l-2,0.4c-0.2,0-0.3-0.2-0.3-0.5v0c0-0.3,0.1-0.6,0.3-0.6l2-0.4c0.2,0,0.3,0.2,0.3,0.5v0
					C285.6,37.5,285.5,37.8,285.3,37.8z"/>
			</g>
			<g>
				<path class="st8" d="M289.6,37l-2.2,0.4c-0.2,0-0.3-0.2-0.3-0.5v0c0-0.3,0.2-0.6,0.3-0.7l2.2-0.5c0.2,0,0.4,0.2,0.4,0.6v0
					C290,36.6,289.8,36.9,289.6,37z"/>
			</g>
		</g>
	</g>
	<g>
		<path class="st6" d="M268,50.6c0,0.5-0.2,0.9-0.4,0.9c-0.2,0-0.4-0.4-0.4-0.9c0-0.5,0.2-0.9,0.4-0.9C267.8,49.7,268,50.1,268,50.6
			z"/>
	</g>
	<g>
		<path class="st6" d="M268,54.6c0,0.5-0.2,0.9-0.4,0.9c-0.2,0-0.4-0.4-0.4-0.9c0-0.5,0.2-0.9,0.4-0.9C267.8,53.6,268,54.1,268,54.6
			z"/>
	</g>
	<g>
		<path class="st6" d="M268,58.5c0,0.5-0.2,0.9-0.4,0.8c-0.2,0-0.4-0.5-0.4-1c0-0.5,0.2-0.9,0.4-0.8C267.8,57.6,268,58,268,58.5z"/>
	</g>
</g>
<g>
	<path class="st11" d="M78.3,44.3c0.1-0.1,0.3,0,0.4,0.1c0.1,0.1,0.2,0.2,0.3,0.3c0.1,0.1,0.2,0.3,0.1,0.4c-0.1,0.1-0.2,0.2-0.3,0.3
		c0,0.2,0.3,0.2,0.4,0.4c0.1,0.1,0,0.3-0.1,0.4c-0.1,0.1-0.2,0.1-0.3,0.2c-0.1,0.1-0.2,0.2-0.2,0.3c-0.2-0.2-0.3-0.5-0.3-0.8
		c0-0.3,0.1-0.6,0.3-0.8c-0.3,0-0.5-0.3-0.4-0.6C78.1,44.5,78.2,44.4,78.3,44.3z"/>
</g>
<g>
	<g>
		<g>
			<g>
				<g>
					<path class="st12" d="M186.8,64.9c-1-1.3-1.9-2.2-3.2-3.5c-1.1-1.1-2.1-2.5-3-3.7c-0.1-0.2-0.3-0.4-0.4-0.5
						c-0.2-0.1-0.4-0.2-0.6-0.3c-0.3-0.2-0.6-0.5-0.9-0.6c-0.2,0-0.4,0-0.5,0c-0.2,0-0.2,0-0.5,0c-0.3,0-0.8,0-1,0.1
						c-0.5,0.1-0.8,0.4-1.1,0.4c0.1,0.3,0.2,0.3,0.4,0.3c0.3,0,0.7-0.1,1-0.2c0.3-0.1,0.7,0.1,1,0.2c0.5,0.2,0.8,0.3,0.8,0.8
						c-0.2,0.2-0.3,0.1-0.4,0.1c-0.2,0-0.4,0-0.5,0c-0.2-0.1-0.3-0.2-0.5-0.3c-0.3-0.1-0.7-0.3-0.8,0.2c0.1,0.3,0.4,0.5,0.8,0.6
						c0.3,0.1,0.3,0.2,0.6,0.3c0.2,0.1,0.4,0.3,0.6,0.5c0.3,0.2,0.5,0.1,0.8,0.1c0.1,0,0.2,0,0.3,0.1c0,0,0,0,0,0
						c0.2,0.1,0.4,0.3,0.5,0.5c0.9,1.8,1.2,3.7,2.1,5.5c0.9,1.9,2.1,3.8,4.2,4c0.4,0,0.8,0,1-0.3c0.1-0.1,0.2-0.3,0.3-0.5
						C188,67.3,187.6,65.8,186.8,64.9z"/>
				</g>
			</g>
		</g>
	</g>
	<g>
		<g>
			<g>
				<g>
					<path class="st11" d="M179,57.3c-0.9-1.3-2.1-0.9-3.4-0.5c0.1,0.1,0.2,0.1,0.3,0.1c0.3,0,0.7-0.1,1-0.2c0.3-0.1,0.7,0.1,1,0.2
						c0.4,0.1,0.8,0.3,0.8,0.7C179,57.7,179.3,57.9,179,57.3z"/>
				</g>
				<g>
					<path class="st12" d="M186.8,64.9c-1-1.3-1.9-2.2-3.2-3.5c-1.1-1.1-2.1-2.5-3-3.7c-0.1-0.2-0.3-0.4-0.4-0.5
						c-0.2-0.1-0.4-0.2-0.6-0.3c-0.3-0.2-0.6-0.5-0.9-0.6c-0.2,0-0.4,0-0.5,0c-0.2,0-0.2,0-0.5,0c-0.3,0-0.8,0-1,0.1
						c-0.5,0.1-0.8,0.4-1.1,0.4c0,0.1,0.1,0.1,0.1,0.2c1.3-0.4,2.5-0.8,3.4,0.5c0.3,0.6,0,0.4-0.3,0.3c0,0,0,0.1,0,0.1
						c-0.2,0.2-0.3,0.1-0.4,0.1c-0.2,0-0.4,0-0.5,0c-0.2-0.1-0.3-0.2-0.5-0.3c-0.3-0.1-0.7-0.3-0.8,0.2c0.1,0.3,0.4,0.5,0.8,0.6
						c0.3,0.1,0.3,0.2,0.6,0.3c0.2,0.1,0.4,0.3,0.6,0.5c0.3,0.2,0.5,0.1,0.8,0.1c0.1,0,0.2,0,0.3,0.1c0,0,0,0,0,0
						c0.2,0.1,0.4,0.3,0.5,0.5c0.9,1.8,1.2,3.7,2.1,5.5c0.9,1.9,2.1,3.8,4.2,4c0.4,0,0.8,0,1-0.3c0.1-0.1,0.2-0.3,0.3-0.5
						C188,67.3,187.6,65.8,186.8,64.9z"/>
				</g>
				<g>
					<path class="st11" d="M180.3,59.1c-0.3-0.7-1.2,0.2-1.9,0.1c0,0,0,0,0.1,0c0.3,0.2,0.5,0.1,0.8,0.1c0.1,0,0.2,0,0.3,0.1
						c0,0,0,0,0,0c0.2,0.1,0.4,0.3,0.5,0.5c0.9,1.8,1.2,3.7,2.1,5.5c0.9,1.9,2.1,3.8,4.2,4c0.4,0,0.8,0,1-0.3
						c0.1-0.1,0.2-0.3,0.3-0.5c0-0.1,0-0.1,0-0.2C184.4,66.1,181.9,62.9,180.3,59.1z"/>
				</g>
			</g>
		</g>
	</g>
	<g>
		<g>
			<g>
				<g>
					<g>
						<g>
							<path class="st12" d="M178,53c-0.2-0.3,0.1-0.9-0.2-1l-1.2-1.1c-1-0.4-2.1-0.4-3-0.1c-0.3,0.1-0.5,0.2-0.7,0.4
								c-0.5,0.4-0.7,1.1-0.7,1.7c0,0.6,0.1,1.3,0.3,1.9c0.1,0.5,0.1,0.5,0.4,0.9c0.7,1.1,1.8,1.8,3.1,1.7c0.5,0,1.5-0.1,1.8-0.4
								c0.1-0.1,0.6-0.5,0.6-0.6C178.1,54.9,178.7,53.9,178,53z"/>
						</g>
					</g>
				</g>
			</g>
		</g>
		<g>
			<g>
				<g>
					<g>
						<g>
							<path class="st11" d="M173.1,56.2c0.7,0.8,1.7,1.4,2.7,1.2c0.5-0.1,1.4-0.2,1.7-0.4C176.1,56.7,174.6,55.9,173.1,56.2z"/>
						</g>
					</g>
				</g>
			</g>
		</g>
		<g>
			<g>
				<g>
					<g>
						<g>
							<path class="st12" d="M177.3,60.5c-0.9-1.5-1.3-3.2-1.2-4.8h-3.4c0.2,1.6,0,3.2-0.6,4.7C173.8,60.4,175.6,60.5,177.3,60.5z"
								/>
						</g>
					</g>
				</g>
			</g>
		</g>
		<g>
			<path class="st13" d="M176.5,54.4c-0.3,0.9-1.2,1.5-2,2c-0.3,0.2-0.6,0.4-1,0.4c-0.5,0-0.9-0.3-1.2-0.7c-0.3-0.4-0.4-1-0.5-1.5
				c-0.1-0.7-0.3-1.3-0.3-2c0-0.5,0.3-1.2,0.8-1.7c0.4-0.3,0.4-0.7,0.8-0.8c0.4-0.1,0.8-0.2,1.2-0.1c1,0,2.1,0.2,3.1,0.4
				c0.2,0,0.4,0.1,0.6,0.2c0.3,0.3,0.2,0.9-0.1,1.2c-0.3,0.3-0.7,0.5-1,0.9C176.7,53.2,176.7,53.9,176.5,54.4z"/>
		</g>
		<g>
			<path class="st12" d="M176.9,53.7c-0.1-0.1-0.2-0.2-0.3-0.3c-0.1-0.1-0.2-0.3-0.3-0.3c-0.1,0-0.3,0-0.3,0.2
				c-0.1,0.1-0.1,0.2-0.1,0.4c0,0.2-0.1,0.4-0.1,0.6s0.1,0.4,0.2,0.6c0.1,0.2,0.3,0.3,0.6,0.2c0.2,0,0.4-0.2,0.4-0.4L176.9,53.7z"/>
			<g>
				<path class="st11" d="M176.4,54.3C176.4,54.3,176.4,54.3,176.4,54.3c-0.2,0.1-0.4,0.3-0.4,0.4c-0.1-0.2-0.1-0.4,0-0.6
					c0-0.1,0-0.1,0.1-0.2c0-0.1,0.1-0.1,0.2-0.1c-0.1,0-0.2-0.1-0.2-0.2c0-0.1,0-0.2,0.1-0.3c0.2,0,0.2,0.2,0.3,0.3
					c0,0.1,0.1,0.1,0,0.2c0,0.1-0.1,0.1-0.1,0.1C176.3,54,176.3,54.1,176.4,54.3C176.4,54.2,176.4,54.2,176.4,54.3z"/>
			</g>
		</g>
	</g>
	<g>
		<g>
			<g>
				<g>
					<g>
						<path class="st12" d="M171.6,74.7c-2-0.9-3.6-3.2-5.4-4.8c-0.6,1.5-1.6,2.6-2.9,3.4c2.4,1,4.9,1.6,7.2,3.2
							C171.1,75.3,170.9,75.8,171.6,74.7z"/>
					</g>
				</g>
			</g>
		</g>
		<g>
			<g>
				<g>
					<g>
						<path class="st11" d="M168.2,74.3c-1.2-0.4-3.2-2.4-1.6-4c-0.1-0.1-0.3-0.3-0.4-0.4c-0.6,1.5-1.6,2.6-2.9,3.4
							c2.4,1,4.9,1.6,7.2,3.2c0.3-0.5,0.4-0.7,0.5-0.8C170,75.2,169,74.8,168.2,74.3z"/>
					</g>
				</g>
			</g>
		</g>
		<g>
			<g>
				<g>
					<g>
						<g>
							<path class="st14" d="M166.4,69.9c-0.3-0.2-0.8-0.4-1-0.6c1-1.4,2.4-2,3.6-3.2c0.7-0.7,1.2-1.8,1.6-2.7
								c0.4-0.9,0.1-3.1-0.8-3.5c-0.6-0.3-1.3-0.2-1.9,0.2c-0.6,0.3-1,0.8-1.4,1.4c-1.9,2.2-4.8,6.1-5.9,9.2c-0.2,0.6,0,1.2,0.5,1.6
								c0.8,0.6,1.8,1.1,2.6,1.4C164.9,72.8,165.8,71.4,166.4,69.9z"/>
						</g>
					</g>
				</g>
			</g>
			<g>
				<path class="st13" d="M170.6,61.4c-3.8-0.4-5.4,6.3-8.3,8.6c-0.4,0.2-0.8,0.4-1.2,0.5c0.4,0,0.7,0,1.1-0.1
					c0.1,0,0.1,0.1,0.2,0.1c-0.4,0.2-0.9,0.3-1.3,0.4c0.6,0.1,1.3,0.1,1.9-0.1c0.8,0.4,1.6,0.9,2.3,1.4c0.5-0.7,0.7-0.9,1-1.7
					c-0.3-0.2-1.2-0.7-1.5-0.9c1-1.4,3.1-2.2,4.3-3.4c0.7-0.7,1.2-1.8,1.6-2.7C170.7,62.9,170.8,62.1,170.6,61.4z"/>
			</g>
		</g>
	</g>
	<g>
		<g>
			<g>
				<g>
					<g>
						<g>
							<path class="st15" d="M169.5,116.7c-0.4,0.9-0.6,2-0.4,3c1.8-0.1,3.6-0.2,5.4-0.4c0-0.5-0.1-1-0.5-1.4
								c-0.3-0.2-0.6-0.3-0.9-0.5c-0.3-0.2-0.5-0.5-0.6-0.9C171.7,116.5,170.2,116.9,169.5,116.7z"/>
						</g>
					</g>
				</g>
			</g>
			<g>
				<g>
					<g>
						<path class="st6" d="M168.9,119.9c1.6,0.2,5.6-0.4,5.6-0.4l0.1-0.5c-0.4,0.1-5.6,0.4-5.6,0.4L168.9,119.9z"/>
					</g>
				</g>
			</g>
		</g>
		<g>
			<g>
				<g>
					<g>
						<g>
							<path class="st14" d="M170.9,76.8c-0.1,0.1-0.2,0.2-0.3,0.3c-1.5,2.5-0.7,5.6-0.4,8.5c0.2,1.7,0.2,3.5,0.2,5.2
								c0,1.9,0.1,3.8-0.1,5.7c-0.2,1.8-0.7,3.6-0.8,5.4c-0.3,4.4,0,8.8-0.4,13.3c1.5-0.1,3,0,4.4,0.4c0.2-6.5,1.8-12.3,2.9-18.8
								c0.8-4.6,0.8-9.6,0.9-15.2c0.1-1.7-0.2-3.4,0-5.1c-1.9,0.4-3.9,0.5-5.9,0.3C171.2,76.7,171,76.7,170.9,76.8z"/>
						</g>
					</g>
				</g>
			</g>
			<path class="st13" d="M172.8,80.1c-1,0-2-0.1-3-0.3l-0.1,0l0,0.1c0,0.4,0,0.8,0,1.1l0,0c0,0,0,0,0,0c0,0.4,0,0.7,0.1,1.1
				c0.1,0.7,0.3,1.3,0.5,1.8c0.1,0.1,0.2,0.2,0.4,0.2c0.1,0,0.3-0.1,0.3-0.1c0.4-0.4,0.9-0.8,1.5-1.1l0.1,0l0.3-2.9L172.8,80.1z
				 M169.9,80.2c0.9,0.1,1.8,0.2,2.7,0.2l-0.1,0.7c-0.7,0.1-1.3,0.3-1.8,0.7c-0.2-0.3-0.5-0.5-0.8-0.7
				C169.9,80.8,169.9,80.5,169.9,80.2z M170.9,82.3c0,0-0.1,0-0.1,0c0,0-0.1,0-0.1,0c0,0,0.1-0.1,0.1-0.1
				C170.8,82.2,170.8,82.2,170.9,82.3z M170.9,84c-0.1,0.1-0.3,0.1-0.4,0c-0.3-0.5-0.4-1-0.5-1.7c0-0.3-0.1-0.6-0.1-0.9
				c0.2,0.2,0.5,0.3,0.6,0.6c-0.1,0.1-0.2,0.2-0.3,0.4l-0.2,0.2l0.3,0c0.1,0,0.2,0,0.3,0.1c0.1,0,0.2,0.1,0.3,0.1c0,0,0,0,0.1,0
				l0.2,0l-0.1-0.2c-0.1-0.2-0.2-0.3-0.3-0.4c0.4-0.3,1-0.5,1.6-0.6l-0.2,1.5C171.8,83.2,171.3,83.5,170.9,84z"/>
			<g>
				<g>
					<g>
						<g>
							<path class="st13" d="M177.3,76.4c-1,0.2-1.9,0.3-2.9,0.4c-0.6,5-0.8,9.8-0.1,14.9c0.8,5.3-0.8,10.3-1.5,15.8
								c-0.3,1-0.5,2-0.5,3c-0.2,1.6-0.3,3.3-0.3,4.8c0.5,0.1,1,0.1,1.4,0.3c0.2-6.5,1.8-12.3,2.9-18.8c0.8-4.6,0.8-9.6,0.9-15.2
								C177.4,79.8,177.2,78.1,177.3,76.4z"/>
						</g>
					</g>
				</g>
			</g>
			<g>
				<g>
					<g>
						<g>
							<g>
								<path class="st14" d="M168.4,115.1c0-0.1,0-0.2,0-0.3c0.1-0.1,0.2-0.1,0.3-0.2c1.6-0.3,3.3-0.1,4.8,0.7
									c0.1,0.1,0.2,0.2,0.2,0.4c-0.1,0.4-0.1,0.9-0.2,1.3c0,0.1-0.1,0.3-0.3,0.2c-1.4-0.3-2.8-0.5-4.1-0.2c-0.2,0-0.4-0.2-0.3-0.3
									c0.1-0.2,0.1-0.3,0.1-0.5c0-0.1-0.1-0.3-0.2-0.4C168.5,115.6,168.4,115.4,168.4,115.1z"/>
							</g>
						</g>
					</g>
				</g>
				<g>
					<g>
						<g>
							<g>
								<path class="st13" d="M171.7,115.9c-0.9-0.1-1.9-0.2-2.7,0.2c0-0.1,0-0.3,0-0.4C169.9,115.5,170.9,115.6,171.7,115.9z"/>
							</g>
						</g>
					</g>
				</g>
			</g>
		</g>
	</g>
	<g>
		<g>
			<g>
				<g>
					<path class="st15" d="M185.4,118.3c0.5,0.1,1,0.2,1.4,0.4c0.4,0.2,0.8,0.7,0.7,1.2c-2.4,0-4.9,0.1-7.3,0.1
						c-0.3-0.5-0.2-1-0.1-1.6c0.1-0.5,0.3-1.1,0.2-1.6c0.8,0,1.6,0,2.5-0.1c0.1,0.6,0.7,0.9,1.3,1.1
						C184.6,118.1,185,118.2,185.4,118.3z"/>
				</g>
			</g>
			<g>
				<g>
					<g>
						<polygon class="st6" points="180,119.7 180,120.3 187.6,120.1 187.6,119.7 						"/>
					</g>
				</g>
			</g>
		</g>
		<g>
			<g>
				<g>
					<g>
						<g>
							<path class="st14" d="M174,76.6c-0.4,2.2-0.8,3-0.7,5.2c0.2,3.2,2.1,5,2.4,6.8c1,4.8,1.9,7.6,2.2,11.3
								c0.5,5.6,0.2,10.7,1.5,16.3c1.3-0.1,2.7,0,4,0.1c0.3-6.1,0.2-11.7,0-17.8c-0.1-2.3-0.2-3.7-0.3-6.8
								c-0.2-5.1-1.7-10.6-2.3-15.6C179,76.5,176,76.9,174,76.6z"/>
						</g>
					</g>
				</g>
			</g>
			<path class="st13" d="M179.9,82.8l-0.5-2.7l-4.6,0.4l0,0.1c0,0.7,0.1,1.3,0.3,2c0.2,0.7,0.5,1.3,1,1.8c0.4,0.3,0.8,0.6,1.2,0.8
				c0.2,0.1,0.4,0.2,0.6,0.2c0,0,0.1,0,0.1,0c0.3,0,0.4-0.2,0.6-0.4l1-1c0.1-0.1,0.3-0.3,0.4-0.5C179.9,83.3,179.9,83,179.9,82.8z
				 M179.2,80.4l0.1,0.8c-0.8,0.3-1.4,0.8-2,1.4c-0.7-0.5-1.4-0.8-2.2-1c0-0.3-0.1-0.6-0.1-0.9L179.2,80.4z M177.4,82.9
				c0.1,0.1,0.2,0.2,0.3,0.3l-0.6,0.1C177.2,83.2,177.3,83.1,177.4,82.9z M179.6,83.4c-0.1,0.2-0.2,0.3-0.3,0.4l-1,1
				c-0.1,0.1-0.3,0.3-0.4,0.3c0,0,0,0-0.1,0h0c-0.1,0-0.3-0.1-0.4-0.2c-0.4-0.2-0.8-0.4-1.1-0.7c-0.4-0.4-0.7-1-0.9-1.7
				c-0.1-0.2-0.1-0.5-0.1-0.7c0.7,0.2,1.4,0.5,2,0.9c-0.2,0.2-0.3,0.4-0.4,0.7l-0.1,0.2l1.6-0.4l-0.2-0.2c-0.2-0.2-0.3-0.3-0.5-0.5
				c0.5-0.6,1.1-1,1.8-1.3l0.3,1.5C179.7,83,179.7,83.2,179.6,83.4z"/>
			<g>
				<g>
					<g>
						<g>
							<path class="st13" d="M183.5,98.5c-0.1-2.3,0-3.8-0.1-6.8c-0.2-5.1-1.7-10.6-2.3-15.5c-0.2,0-1.5,0.2-1.8,0.2
								c3.4,13.1,3.7,26.5,3.3,39.9c0.3,0,0.7,0.1,1,0.1C183.9,110.2,183.7,104.6,183.5,98.5z"/>
						</g>
					</g>
				</g>
			</g>
			<g>
				<g>
					<g>
						<g>
							<path class="st14" d="M179.3,117.5c0.2-0.7-0.2-0.9-0.2-1.3c0-0.2,0.1-0.3,0.3-0.4c1.4-0.4,2.8-0.6,4.3-0.5
								c0.2,0,0.3,0.2,0.3,0.4c-0.1,0.5-0.1,1,0,1.5c0,0.2-0.2,0.4-0.4,0.4c-1.3-0.1-2.6-0.1-3.9,0.2
								C179.5,117.8,179.2,117.7,179.3,117.5z"/>
						</g>
					</g>
				</g>
			</g>
			<g>
				<g>
					<g>
						<g>
							<path class="st13" d="M183.7,116c-0.5-0.3-1.1-0.3-1.7-0.2c-0.6,0.1-1.1,0.4-1.7,0.5C181.5,116.2,182.6,116.1,183.7,116z"/>
						</g>
					</g>
				</g>
			</g>
			<g>
				<g>
					<g>
						<g>
							<path class="st13" d="M182.8,117.2c-1.1,0.1-2.2,0.2-3.2,0.2C180.7,117.1,181.8,117.1,182.8,117.2z"/>
						</g>
					</g>
				</g>
			</g>
		</g>
	</g>
	<g>
		<g>
			<g>
				<g>
					<path class="st13" d="M172.7,116.9c-1.1-0.1-2.2-0.2-3.3-0.2C170.5,116.6,171.6,116.6,172.7,116.9z"/>
				</g>
			</g>
		</g>
	</g>
	<g>
		<g>
			<g>
				<g>
					<g>
						<g>
							<path class="st8" d="M170.1,60.3c0-0.4,0-0.9,0-1.3c2-0.8,4.4-0.7,6.4,0.2c0.7,0.3,1.4,0.8,1.7,1.5c-2.7-0.3-5.4-0.3-8.1,0.1
								L170.1,60.3z"/>
						</g>
					</g>
				</g>
			</g>
			<g>
				<g>
					<g>
						<g>
							<g>
								<path class="st16" d="M170.3,59.2c0,0.1,0,0.2,0,0.4c0.2,0,0.3,0,0.5,0l0-0.6C170.6,59,170.5,59.1,170.3,59.2z"/>
							</g>
						</g>
					</g>
				</g>
				<g>
					<g>
						<g>
							<g>
								<path class="st16" d="M170.9,59.5c0.1,0,0.2,0,0.3,0v-0.7c-0.1,0-0.2,0.1-0.3,0.1V59.5z"/>
							</g>
						</g>
					</g>
				</g>
				<g>
					<g>
						<g>
							<g>
								<path class="st16" d="M171.5,58.8v0.8c0.1,0,0.2,0,0.4,0v-0.8C171.7,58.7,171.6,58.8,171.5,58.8z"/>
							</g>
						</g>
					</g>
				</g>
				<g>
					<g>
						<g>
							<g>
								<path class="st16" d="M172.7,58.6c-0.1,0-0.1,0-0.2,0v0.9c0.1,0,0.1,0,0.2,0C172.7,59.2,172.7,58.9,172.7,58.6z"/>
							</g>
						</g>
					</g>
				</g>
				<g>
					<g>
						<g>
							<g>
								<path class="st16" d="M172.1,59.5c0.1,0,0.2,0,0.2,0v-0.9c-0.1,0-0.2,0-0.2,0V59.5z"/>
							</g>
						</g>
					</g>
				</g>
			</g>
		</g>
		<g>
			<g>
				<g>
					<g>
						<g>
							<path class="st8" d="M169.5,79.1c-0.2,0.5-0.2,1-0.2,1.5c2.1,0.3,4.2,0.7,6.4,0.7c2.1,0.1,4.3-0.2,6.3-0.9
								c-0.1-0.7-0.1-1.3-0.2-2C177.8,79.5,173.6,79.3,169.5,79.1z"/>
						</g>
					</g>
				</g>
			</g>
			<g>
				<g>
					<g>
						<g>
							<g>
								<path class="st16" d="M170.1,79.9c-0.2,0-0.5,0-0.6-0.2c0,0.3,0,0.5,0,0.8c0.2,0,0.5,0.1,0.7,0.1L170.1,79.9
									C170.1,79.9,170.1,79.9,170.1,79.9z"/>
							</g>
						</g>
					</g>
				</g>
				<g>
					<g>
						<g>
							<g>
								<path class="st16" d="M170.3,79.9l0,0.7c0.2,0,0.3,0.1,0.5,0.1l0-0.7C170.7,80,170.5,80,170.3,79.9z"/>
							</g>
						</g>
					</g>
				</g>
				<g>
					<g>
						<g>
							<g>
								<path class="st16" d="M171.2,80l0,0.8c0.3,0,0.6,0.1,0.9,0.1l0-0.9C171.8,80,171.5,80,171.2,80z"/>
							</g>
						</g>
					</g>
				</g>
				<g>
					<g>
						<g>
							<g>
								<path class="st16" d="M173.1,80l0,1c0.2,0,0.4,0,0.6,0.1l0-1C173.6,80,173.4,80,173.1,80z"/>
							</g>
						</g>
					</g>
				</g>
				<g>
					<g>
						<g>
							<g>
								<path class="st16" d="M175.1,80l0,1.1c0.2,0,0.4,0,0.5,0l0-1.1C175.5,80,175.3,80,175.1,80z"/>
							</g>
						</g>
					</g>
				</g>
				<g>
					<g>
						<g>
							<g>
								<path class="st16" d="M175.9,80l0,1.1c0.1,0,0.2,0,0.3,0l0-1.1C176.2,80,176.1,80,175.9,80z"/>
							</g>
						</g>
					</g>
				</g>
				<g>
					<g>
						<g>
							<g>
								<path class="st16" d="M176.8,80c-0.1,0-0.2,0-0.4,0l0.1,1.1c0.1,0,0.2,0,0.3,0C176.8,80.7,176.8,80.3,176.8,80z"/>
							</g>
						</g>
					</g>
				</g>
				<g>
					<g>
						<g>
							<g>
								<path class="st16" d="M174.2,80l0,1.1c0.2,0,0.4,0,0.6,0l0-1.1C174.6,80,174.4,80,174.2,80z"/>
							</g>
						</g>
					</g>
				</g>
				<g>
					<g>
						<g>
							<g>
								<path class="st16" d="M172.5,80l0,0.9c0.2,0,0.3,0,0.5,0.1v-1C172.8,80,172.6,80,172.5,80z"/>
							</g>
						</g>
					</g>
				</g>
			</g>
		</g>
		<g>
			<g>
				<g>
					<g>
						<g>
							<path class="st14" d="M179.9,60.5c-2.1-0.4-4.2-0.7-6.3-0.8c-1.1-0.1-2.2,0-3.3,0c-0.8,0.1-1.8,0-2.3,0.8
								c-1.4,1.8-1,4.6-0.6,7c0.2,1.2,0.7,2.4,1.1,3.6c0.4,1.1,0.8,2.1,1.1,3.2c0.4,1.5,0.3,2.9-0.1,4.4c-0.1,0.2-0.1,0.5,0,0.7
								c0.1,0.3,0.5,0.4,0.7,0.4c3.2,0.2,7.8,0.5,11.4-0.6c0.6-0.2,0.3-0.8,0.4-1.3c0.1-0.7,0-1.4-0.1-2.1
								C181,69.3,181.9,62.7,179.9,60.5z"/>
						</g>
					</g>
				</g>
			</g>
			<g>
				<g>
					<g>
						<g>
							<path class="st6" d="M181.9,75.7c-0.8-6.4,0.1-13-1.9-15.2c-0.2,0-0.5-0.1-0.7-0.1c0.5,1.1,0.7,2.3,0.7,3.4
								c0,5.3,1.1,10.3,0.8,15.6c0.3-0.1,0.6-0.1,0.8-0.2c0.6-0.2,0.3-0.8,0.4-1.3C182.2,77,182,76.4,181.9,75.7z"/>
						</g>
					</g>
				</g>
			</g>
			<g>
				<g>
					<g>
						<g>
							<path class="st13" d="M169.9,60.4c-0.8,0.2-1.6,0.5-2,1.2c-0.5,0.7-0.5,1.6-0.4,2.5c0.1,1.1,0.2,2.3,0.4,3.4
								c0.2,1.1,0.5,2.3,1.2,3.2c0.3,0.3,0.6,0.6,0.9,1c0.3,0.4,0.5,1,0.2,1.5c-0.1,0.2-0.1,0.3-0.1,0.5c0.1,0.5,0.6,0.2,0.7,0.5
								c0.1,0.1,0.1,0.3,0,0.4c-0.2,1-0.5,2.1-0.7,3.1c-0.1,0.4-0.2,0.8,0,1.1c0.3,0.6,1.1,0.8,1.8,0.8c2.7,0.2,5.4,0.3,8-0.4
								c0.2-0.1,0.2-0.3,0-0.3l-4.8-0.1c-0.1,0-0.5-0.4,1-0.4l3.4-0.1c0.3,0,0.5-0.2,0.3-0.4l0-0.1c-0.2-0.1-0.2-0.3,0-0.4
								c0,0,0.1-0.1,0.1-0.1c0-0.1-0.1-0.2-0.2-0.2c-0.3-0.2-0.9-0.3-1.3-0.5c-0.4-0.2-0.3-0.8,0.1-0.9c0.7-0.1,1.3-0.5,1.8-1
								c0.5-0.6-3.3-0.2-4.9-0.3c-0.1,0-0.2,0-0.3,0c-0.3-0.1-0.2-0.5,0-0.5c2.2,0.1,3,0,4.4-0.6c0.2-0.1,0.5-0.2,0.6-0.4
								c0.3-0.5,0-0.9-0.4-1.1c-0.3-0.2-0.6-0.3-0.8-0.5c-0.6-0.5-0.6-1.5-0.3-2.2c0.8-2.4-0.2-3.3-0.3-4.9c-0.1-1.1,0.2-2.2-0.6-3
								c-0.8-0.7-2-0.8-3.1-0.9C172.8,60.1,171.3,60.1,169.9,60.4z"/>
						</g>
					</g>
				</g>
			</g>
		</g>
	</g>
	<g>
		<g>
			<g>
				<g>
					<g>
						<path class="st14" d="M187.1,68.9c0.6-1.4,0.1-3-1.2-3.9c-1.1-0.8-1.8-1.3-2.8-2c-0.8-0.5-1.1-0.6-1.7-1.3
							c-0.3-0.5-1.2-1.5-1.7-1.4c-0.2,0-0.4,0.2-0.5,0.3c-0.9,0.8-1.1,2.1-0.9,3.3c0.3,1.2,0.9,2.9,1.9,3.6c2.7,1.8,3.8,3,5.5,2.9
							c0,0,0.8-0.5,0.8-0.6C186.8,69.5,186.9,69.4,187.1,68.9z"/>
					</g>
				</g>
			</g>
		</g>
		<g>
			<g>
				<g>
					<g>
						<path class="st13" d="M185.7,69.5c0.5-0.5,0.8-0.8,0.8-1.5c-3.5,0.5-4-3.8-6.3-5c-0.6-0.2-1.3-0.4-1.9-0.8
							c-0.1,0.5-0.1,1.1,0,1.6c0.3,1.2,0.9,2.9,1.9,3.6c2.7,1.8,3.8,3,5.5,2.9c0,0,0.8-0.5,0.8-0.6c0.3-0.3,0.3-0.4,0.5-0.8
							c0-0.1,0.1-0.2,0.1-0.4C186.8,69,186.3,69.5,185.7,69.5z"/>
					</g>
				</g>
			</g>
		</g>
	</g>
</g>
<g>
	<g>
		<g>
			<g>
				<g>
					<g>
						<g>
							<g>
								<path class="st12" d="M236.7,50.1c-0.2,2.3-0.6,4.8-1.6,7c2.2-0.1,4.5,0.3,6.5,1.2c-0.7-2.5-1.4-5.1-1.2-7.7
									C239.4,50.2,237.5,50,236.7,50.1z"/>
							</g>
						</g>
					</g>
				</g>
				<g>
					<g>
						<g>
							<g>
								<path class="st11" d="M240.4,50.6c-0.9-0.3-2.4-0.5-3.3-0.5c0.5,2.6,2.1,5.1,3.1,7.7c0.5,0.1,1,0.3,1.4,0.5
									C240.9,55.8,240.2,53.2,240.4,50.6z"/>
							</g>
						</g>
					</g>
				</g>
				<g>
					<g>
						<g>
							<g>
								<path class="st13" d="M240.4,50.6c-0.8-0.3-2-0.5-3-0.5c0.5,1.6,1.7,2.8,3.1,3.5C240.4,52.6,240.3,51.6,240.4,50.6z"/>
							</g>
						</g>
					</g>
				</g>
			</g>
			<g>
				<g>
					<path class="st12" d="M243.8,47.7c-0.4-0.4-1-0.8-1.3-1.3c-0.2-0.4,0-1.2-0.1-1.6c-0.1-1-1.1-1.7-2.1-1.9
						c-1.5-0.3-3.4,0-4.1,1.5c-0.9,1.9-0.6,4.7,1.1,6c1.1,0.9,3.2,1.3,4.7,1.4c0.5,0,0.8-1.6,0.9-2c0.1-0.4,0.2-0.9,0.3-1.3
						c0.2-0.1,0.5-0.2,0.7-0.3c0.1-0.1,0.1-0.3,0.1-0.4C244,47.8,243.9,47.8,243.8,47.7z"/>
				</g>
			</g>
			<g>
				<g>
					<path class="st11" d="M240.4,42.9c-1.5-0.3-3.4,0-4.1,1.5c-0.9,1.7-0.6,4.3,0.8,5.8c0.3-0.3,0.5-0.6,0.8-0.9
						c-0.5-0.8-0.6-1.8-0.1-2.8c0.7-0.4,1.5,0.2,2.2,0.7c0.9-0.9,1.7-1.8,2.3-2.8C242,43.6,241.2,43.1,240.4,42.9z"/>
				</g>
				<g>
					<path class="st12" d="M243.8,47.7c-0.4-0.4-1-0.8-1.3-1.3c-0.2-0.4,0-1.2-0.1-1.6c0-0.2-0.1-0.3-0.1-0.4
						c-1.3,2.3-3.7,3.9-5.3,5.9c0.1,0.1,0.2,0.2,0.3,0.2c1.1,0.9,3.2,1.3,4.7,1.4c0.5,0,0.8-1.6,0.9-2c0.1-0.4,0.2-0.9,0.3-1.3
						c0.2-0.1,0.5-0.2,0.7-0.3c0.1-0.1,0.1-0.3,0.1-0.4C244,47.8,243.9,47.8,243.8,47.7z"/>
				</g>
			</g>
			<g>
				<path class="st11" d="M239.4,47.2c0,0.1,0.1,0.2,0,0.2c0,0.1-0.2,0.1-0.2,0.2c0,0.2,0.2,0.2,0.3,0.4c0,0.1,0,0.2-0.1,0.2
					s-0.2,0.1-0.2,0.1c-0.2,0.1-0.3,0.2-0.3,0.4c-0.1-0.1-0.2-0.2-0.3-0.4c-0.1-0.2,0-0.3,0.1-0.5c0.1-0.1,0.2-0.1,0.3-0.3
					c-0.1,0.1-0.3,0-0.4-0.1c-0.1-0.1-0.1-0.3,0.1-0.5c0.1-0.1,0.3-0.2,0.4-0.1C239.2,47,239.3,47.1,239.4,47.2z"/>
			</g>
			<g>
				<g>
					<path class="st13" d="M233.4,43.6c0.3-0.4,0.2-1-0.2-1.3c-0.4-0.3-0.9-0.3-1.3-0.1c-0.4,0.2-0.7,0.6-0.9,1.1
						c-0.4,1-0.2,2.1-0.4,3.2c-0.1,0.7-0.4,1.4-0.5,2.1c-0.2,0.7-0.2,1.4,0.1,2.1c0.3,0.7,1.1,1.2,2,1.3c0.8,0.1,1.6-0.3,2.3-0.8
						s1.1-1.3,1.4-2c-1.6-1.4-2.3-3.8-1.6-5.9L233.4,43.6z"/>
				</g>
				<g>
					<path class="st13" d="M241.9,42.3c-1.5-0.2-3-0.3-4.5-0.3c-0.9,0-1.9,0.1-2.7,0.6c-1.2,0.7-1.8,2.1-1.6,3.5
						c0.2,1.3,0.8,2.9,2,3.6c1.1,0.7,1.1,1,1.6,1.1c0.1-1.1,1-0.9,2-1.8c-0.1-0.2-0.2-0.5-0.3-0.8c-0.1-0.3-0.2-0.7-0.1-1
						c0.1-0.3,0.3-0.7,0.7-0.7c0.3,0,0.7,0.4,1,0.6c0.1-0.2,0.2-0.5,0.3-0.8c0.3-0.7,1-1.1,1.4-1.6
						C242.1,44.1,242.2,43.1,241.9,42.3z"/>
				</g>
				<g>
					<g>
						<g>
							<g>
								<path class="st5" d="M233,46.1c0-0.8,0.2-1.6,0.6-2.4c-0.5,0.2-0.8,0.6-0.9,1C232.5,45.2,232.6,45.7,233,46.1z"/>
							</g>
						</g>
					</g>
				</g>
			</g>
		</g>
	</g>
	<g>
		<g>
			<g>
				<g>
					<g>
						<path class="st13" d="M250.8,127.8c-0.2-0.2-0.5-0.2-0.7-0.4c-0.4-0.2-0.9-0.4-1.3-0.6c0,0.1-0.2,0.3-0.2,0.4
							c-2.2,0.7-4.6,1.3-6.6-1c0,0.1-0.2,0.4-0.2,0.5c-0.1,0.5-0.2,1.1,0.3,1.4c0.2,0.1,1.1,0.4,1.3,0.4c1.2,0.2,1.7,0,2.9,0.2
							c1.2,0.2,1.6,0.3,2.8,0.3c0.5,0,2-0.1,2.1-0.6C251.2,128.2,251,128,250.8,127.8z"/>
					</g>
				</g>
			</g>
		</g>
		<g>
			<g>
				<path class="st11" d="M246.1,125.4c-1.1-0.8-0.9-1.9-0.9-1.9c0-0.4,0-0.9,0-1.3c1.2-12.8,2.2-25.4,3.4-38.2H237
					c0,2.8,0.7,5.6,1.3,8.4c1,4.4,1.5,6.8,2.2,11.3c0.2,1-0.3,6.9-0.2,7.9c0.6,4.9,1.9,7.1,2.1,12c-0.1,1-0.2,2-0.4,2.9
					c2,2.3,4.9,1.8,6.8,0.8c0.1-0.1,0.1-0.2,0.2-0.3C247.9,126.5,247,126,246.1,125.4z"/>
			</g>
		</g>
		<g>
			<g>
				<path class="st15" d="M246,104.1c0-0.3,0.3-0.6,0.6-0.7c0.1,0,0.3-0.1,0.4-0.2c0.5-6.4,1.1-12.7,1.7-19.2H237
					c0,2.8,0.7,5.6,1.3,8.4c1,4.4,1.5,6.8,2.2,11.3c0.2,1-0.3,6.9-0.2,7.9c0.6,4.9,1.9,7.1,2.1,12c-0.1,1-0.2,2-0.4,2.9
					c0.5,0.6,1.1,1,1.7,1.3C242.9,119.8,244.8,111.9,246,104.1z"/>
			</g>
		</g>
	</g>
	<g>
		<g>
			<g>
				<g>
					<g>
						<path class="st13" d="M248.5,130.1c-0.2-0.2-0.5-0.2-0.7-0.4c-0.4-0.2-0.9-0.4-1.3-0.6c0,0.1-0.2,0.3-0.2,0.4
							c-2.2,0.7-4.6,1.3-6.6-1c0,0.1-0.2,0.4-0.2,0.5c-0.1,0.5-0.2,1.1,0.3,1.4c0.2,0.1,1.1,0.4,1.3,0.4c1.2,0.2,1.7,0,2.9,0.2
							c1.2,0.2,1.6,0.3,2.8,0.3c0.5,0,2-0.1,2.1-0.6C248.9,130.5,248.8,130.3,248.5,130.1z"/>
					</g>
				</g>
			</g>
		</g>
		<g>
			<g>
				<path class="st12" d="M243.9,127.7c-1.1-0.8-0.9-1.9-0.9-1.9c0-0.4,0-0.9,0-1.3c1.2-12.8,2.2-25.4,3.4-38.2h-11.6
					c0,2.8,0.7,5.6,1.3,8.4c1,4.4,1.5,6.8,2.2,11.3c0.2,1-0.3,6.9-0.2,7.9c0.6,4.9,1.9,7.1,2.1,12c-0.1,1-0.2,2-0.4,2.9
					c2,2.3,4.9,1.8,6.8,0.8c0.1-0.1,0.1-0.2,0.2-0.3C245.6,128.8,244.7,128.3,243.9,127.7z"/>
			</g>
		</g>
		<g>
			<g>
				<path class="st11" d="M246.7,129.3c-1.1-0.5-2-1-2.8-1.6c-1.1-0.8-0.9-1.9-0.9-1.9c0-0.4,0-0.9,0-1.3
					c1.2-12.8,2.2-25.4,3.4-38.2h-11.6c0,2.8,0.7,5.6,1.3,8.4c0.9,4.2,1.4,6.5,2.1,10.5c1.7-1.1,3.8-2,4.1-1
					c2.7,8.7-2.3,18.1,1.3,26.1c1.1,0,2.1-0.4,3-0.8C246.6,129.5,246.6,129.4,246.7,129.3z"/>
			</g>
		</g>
		<g>
			<g>
				<path class="st15" d="M244.8,103.3c0.5-5.7,1-11.3,1.5-17h-11.6c0,2.8,0.7,5.6,1.3,8.4c0.8,3.9,1.4,6.1,1.9,9.6
					C240,103.3,242.3,102.9,244.8,103.3z"/>
			</g>
		</g>
	</g>
	<g>
		<g>
			<g>
				<path class="st8" d="M248.8,102.7c0.1-3.9,0.5-14.4,0.4-19.1c0-2-0.5-3.7-1-5.4c-0.5-1.6-0.7-2.1-1.2-3.7
					c-3.7,0.6-7.5,0.5-11-0.6c-0.1,5.9-0.8,5-1.3,7.4c-0.2,1.1-0.5,1.3-0.6,3.2c-0.3,4.1,2.7,11.1,2.3,18.2L248.8,102.7z"/>
			</g>
		</g>
		<g>
			<g>
				<path class="st13" d="M248.1,77.1c-0.3-0.8-0.3-1.9-0.4-2.8c-3.9,0.3-7.9-0.2-11.6-1.3c0.1,1.3,0.1,2.7-0.3,3.9
					c1.2,1,2.9,1,4.4,1.3C244.6,79,245.5,78.4,248.1,77.1z"/>
			</g>
		</g>
	</g>
	<g>
		<g>
			<g>
				<g>
					<g>
						<g>
							<path class="st5" d="M247.1,74.5c-0.8-2.5-1.3-5-0.9-7.6c0.3-1.6,1-3.3,0.7-4.9c-0.2-1.1-0.8-2.1-1.4-3.1
								c-0.9-1.7-2.7-2.7-4.7-2.7h-4.5c-0.3,0-0.5,0.1-0.8,0.1c-0.7,0.1-1.4,0.2-1.9,0.5c-1.2,0.7-1.2,2.3-0.9,3.6
								c0.7,2.4,2.1,4.7,2.8,7.1c0.6,2.1-0.7,5.4,0.5,6.5C239.6,75,243.4,75.1,247.1,74.5z"/>
						</g>
					</g>
				</g>
			</g>
			<g>
				<g>
					<g>
						<g>
							<path class="st11" d="M247.1,74.5c-0.8-2.5-1.3-5-0.9-7.6c0.3-1.6,1-3.3,0.7-4.9c-0.2-1.1-0.8-2.1-1.4-3.1
								c-0.9-1.7-2.7-2.7-4.7-2.7h-4.5c-0.3,0-0.5,0.1-0.8,0.1c-0.2,0-0.5,0.1-0.7,0.1c0.1,1.6,0.6,3.4,1.7,4.5
								c1.7,1.7,5.6,2.6,5.2,4.8c-0.6,3.6-0.2,6.7,1,9.3C244.2,74.9,245.7,74.7,247.1,74.5z"/>
						</g>
					</g>
				</g>
			</g>
			<g>
				<g>
					<path class="st6" d="M238,54.9c1.6,1.9,4.4,3,5.4,5.2c0.6,1.3,0.6,2.7,0.3,4.1c-0.3,1.4-0.8,2.7-0.9,4.1
						c-0.1,1.4,0.1,2.9,1.1,4c0.3,0.4,0.8,0.7,1.3,0.8c0.5,0.1,1.2,0,1.5-0.4c0.3-0.4,0.2-1,0.1-1.4c-0.4-2.3,0-4.6-0.1-6.9
						c0-2.3-0.5-4.7-2.3-6.5c-1.1-1.1-2.7-1.8-3.5-3.1C240,55,239,55,238,54.9z"/>
				</g>
			</g>
			<g>
				<g>
					<path class="st13" d="M246.9,71.2c-0.4-2.3,0-4.6-0.1-6.9c0-2.3-0.5-4.7-2.3-6.5c-1.1-1.1-2.7-1.8-3.5-3.1
						c-0.2,0-0.3,0-0.5,0.1c1.4,2.3,3.7,4.2,5,6.4c1.6,3.6,1.3,7.6,0.9,11.6c0.2-0.1,0.3-0.2,0.4-0.3
						C247.1,72.2,247,71.7,246.9,71.2z"/>
				</g>
			</g>
			<g>
				<g>
					<g>
						<g>
							<path class="st13" d="M233.8,58.6c0.4,1.5,1.8,2.6,3.4,3.1c1.6,0.5,3.2,1.7,4.8,1.3c1.6-0.4,1.6-2.4,3.1-3.1
								C240.9,60.7,238,60,233.8,58.6z"/>
						</g>
					</g>
				</g>
			</g>
			<g>
				<g>
					<g>
						<g>
							<path class="st13" d="M236.6,64.2c0.3,0.6,0.7,1.3,1,1.9c1.1,2.3,1.7,5,1.9,8h0.3c-0.2-3-0.8-5.8-1.9-8.1
								c-0.3-0.7-0.7-1.3-1-2c-0.6-1.1-1.2-2.3-1.6-3.5c0-0.1-0.1-0.1-0.2-0.1c-0.1,0-0.1,0.1-0.1,0.1
								C235.3,61.9,236,63.1,236.6,64.2z"/>
						</g>
					</g>
				</g>
			</g>
		</g>
		<g>
			<g>
				<path class="st6" d="M236.8,53.9c0.8-0.1,1.6-0.1,2.4-0.2c0.5,0,1-0.1,1.5,0.1c0.9,0.4,1.3,1.4,1.6,2.3
					c-1.9-0.1-4.5,0.4-7.7,0.3c0.1-0.6,0.6-1.9,1.1-2.3C236,54,236.4,53.9,236.8,53.9z"/>
			</g>
		</g>
	</g>
	<g>
		<g>
			<path class="st11" d="M264.9,51.5c0-0.2,0.3-0.4,0.5-0.6s0.2-0.1,0.3-0.3c0.1-0.2,0.3-0.5,0.2-0.7c-0.8,0.2-0.9,0.7-1.8,1
				c-0.2,0.1-0.4,0.3-0.5,0.5c-0.2,1-0.7,1.5-1.5,2.1l-1.1,0.5c0.2,0.6,0.5,1.4,0.7,1.9c1-0.4,1.4-0.8,2.4-1.1
				c0.2-0.1,1-0.1,1.4-0.2c0.3,0,0.6-0.2,0.8-0.4c0.3-0.3,0.6-0.5,0.4-0.9c0.2-0.2,0.4-0.3,0.5-0.5c0.1-0.2,0-0.3-0.1-0.4
				c0.1-0.1,0.2-0.3,0.2-0.4c0-0.2-0.3-0.4-0.4-0.5c0.5-0.3,1.1-0.4,1.5-0.6c0.4-0.2,0.9-0.2,0.9-0.7
				C267.8,50.6,266.3,51,264.9,51.5z"/>
		</g>
		<g>
			<g>
				<g>
					<g>
						<path class="st5" d="M263,52.6c-6.3,2.7-13.6,3.5-20.4,2.7c-1.6-0.2-3.2-0.5-4.9-0.4c-1.5,0.1-3.3,0.6-4.2,1.9
							c-0.2,0.3-0.3,0.6-0.4,0.9c-0.2,1.5,1.3,3.1,2.5,3.4c4.4,1.3,9.1,0.3,13.6-0.5s7.8-2,12-3.8c0.8-0.3,2.1-1,3.2-1.6
							C263.9,54.6,263.4,53.3,263,52.6z"/>
					</g>
				</g>
			</g>
		</g>
		<g>
			<g>
				<g>
					<g>
						<path class="st6" d="M263,52.5c-0.6,0.3-1.2,0.5-1.8,0.7c0.4,1.1,0.7,2.2,0.9,3.3c0.7-0.4,1.5-0.8,2.2-1.2
							C263.9,54.6,263.5,53.2,263,52.5z"/>
					</g>
				</g>
			</g>
		</g>
		<g>
			<g>
				<g>
					<g>
						<path class="st13" d="M261.9,55.2c-6.9,3.6-15.1,4.9-22.8,3.6l-0.2,0c-0.6-0.1-1.2-0.2-1.8-0.2c-0.8,0-1.5,0.3-1.9,0.7
							c-0.1,0-0.1,0.1,0,0.2c0,0.1,0.1,0.1,0.2,0c0.4-0.4,1-0.6,1.7-0.7c0.6,0,1.2,0.1,1.7,0.2l0.2,0c2,0.3,3.9,0.5,5.9,0.5
							c5.9,0,11.7-1.4,16.9-4.1C261.9,55.4,261.9,55.3,261.9,55.2z"/>
					</g>
				</g>
			</g>
		</g>
	</g>
	<g>
		<g>
			<g>
				<g>
					<g>
						<path class="st6" d="M248.6,75.6l-4.4-0.2c-0.4,0-0.6-0.4-0.5-0.7l3.8-13.3c0.1-0.3,0.5-0.5,0.8-0.4l4.7,2
							c0.3,0.1,0.4,0.4,0.3,0.7l-4.1,11.6C249,75.4,248.8,75.6,248.6,75.6z"/>
					</g>
				</g>
			</g>
		</g>
		<g>
			<g>
				<g>
					<g>
						<path class="st13" d="M249,75.9l-5-0.3c-0.2,0-0.3-0.2-0.3-0.4l4-13.9c0.1-0.2,0.2-0.3,0.4-0.2l5.1,2.2
							c0.2,0.1,0.2,0.2,0.2,0.4l-4.2,12C249.3,75.8,249.1,75.9,249,75.9z"/>
					</g>
				</g>
			</g>
		</g>
		<g>
			<g>
				<g>
					<g>
						<path class="st12" d="M253.5,68.6c0-0.1-0.1-0.3-0.1-0.4c0,0,0,0,0-0.1c-0.1-0.2-0.1-0.5-0.1-0.7c0.1-0.3,0.2-0.5,0.1-0.8
							c0-0.1-0.1-0.2-0.1-0.3c-0.2-0.4-0.4-0.9-0.6-1.3c-0.4,0.1-0.6,0.5-0.5,0.9c0.1,0.2,0.3,0.4,0.4,0.7c0,0.1,0,0.2,0,0.3
							c0,0.3-0.1,0.5-0.2,0.8c-0.4-0.1-0.8-0.2-1.2-0.2c-0.1,0-0.2,0-0.3,0c-0.1,0-0.2,0.1-0.2,0.2c0,0.1,0.1,0.2,0.2,0.2
							c0.4,0.2,0.7,0.3,1.1,0.5l0,0.1c-0.5-0.1-1-0.2-1.5-0.3c-0.2,0-0.4-0.1-0.6,0.1c-0.1,0.1-0.1,0.3,0,0.4
							c0.1,0.1,0.2,0.2,0.3,0.2c-0.1,0-0.1,0-0.2,0c-0.1,0.1-0.1,0.2-0.1,0.3c0.1,0.2,0.3,0.3,0.5,0.4c0.3,0.2,0.6,0.4,1,0.5
							l-0.1,0.5c-0.4,0.2-0.8,0.4-1.3,0.6c-0.1,0-0.1,0.1-0.2,0.1c0,0.1,0,0.2,0.1,0.2c0.1,0,0.2,0,0.2,0c0.3,0,0.5-0.1,0.8-0.1l0,0
							c0,0,0.1,0,0.1,0c0.1,0,0.2,0,0.3-0.1c0,0,0.1,0,0.1,0c0.2,0,0.4-0.1,0.5-0.2c0.2-0.1,0.3-0.1,0.5-0.2
							c0.3-0.1,0.7-0.3,0.9-0.5C253.8,70,253.7,69.3,253.5,68.6z M251.2,69.1c0.2,0,0.3,0.1,0.5,0.1l0,0.1
							C251.5,69.2,251.3,69.1,251.2,69.1z"/>
					</g>
				</g>
			</g>
		</g>
	</g>
</g>
<g>
	<g>
		<g>
			<g>
				<g>
					<g>
						<g>
							<path class="st12" d="M90.9,133.2c-1.5-0.8-1.5-0.7-2.7-1.9c0,0-0.7-0.6-0.7-0.6c-0.9-0.9-1.1-2.1-1.2-3.5
								c-0.8-17.9,1.4-23.4-0.1-24.8c-1.4,0.2-2.8-0.1-4.2,0.6c-0.3,0.2-0.7,0.4-0.9,0.7c-0.8,0.9-1.3,1.9-1.4,3.2
								c-0.3,2.7,0.3,7.5,1,10.1c1.4,5.1,1.8,7,2.5,10.4c0.2,0.9,0.2,2,0,2.8c-0.1,0.6-0.4,1.6-0.4,2.2c0,1,0.2,1.4,1.1,1.6
								c1,0.3,1.3,0,1.9,0.2c0.6,0.2,0.9,0.4,1.5,0.7c1.4,0.8,2.1,0.4,3.7,0c0.8-0.2,1.3-0.8,0.6-1.2
								C91.5,133.5,91.2,133.3,90.9,133.2z"/>
						</g>
					</g>
				</g>
			</g>
		</g>
		<g>
			<g>
				<g>
					<g>
						<g>
							<path class="st11" d="M86.8,105c0.1-1.4,0-2.2-0.5-2.7c-1.4,0.2-2.8-0.1-4.2,0.6c-0.3,0.2-0.7,0.4-0.9,0.7
								c-0.8,0.9-1.3,1.9-1.4,3.2c-0.3,2.7,0.3,7.5,1,10.1c1.4,5.1,1.8,7,2.5,10.4c0.2,0.9,0.2,2,0,2.8c-0.1,0.6-0.4,1.6-0.4,2.2
								c0,1,0.2,1.4,1.1,1.6c0.2-1,0.4-2,0.4-2.8C84.8,122.9,80.6,112.3,86.8,105z"/>
						</g>
					</g>
				</g>
			</g>
		</g>
		<g>
			<g>
				<g>
					<g>
						<g>
							<path class="st15" d="M85.4,106.7c0.4-0.4,0.8-0.7,1.3-1c0.1-1.9,0.1-2.9-0.4-3.4c-1.4,0.2-2.8-0.1-4.2,0.6
								c-0.3,0.2-0.7,0.4-0.9,0.7c-0.8,0.9-1.3,1.9-1.4,3.2c-0.3,2.7,0.3,7.5,1,10.1c0.2,0.7,0.4,1.4,0.6,2
								C82.1,114.5,81.8,109.6,85.4,106.7z"/>
						</g>
					</g>
				</g>
			</g>
		</g>
		<g>
			<g>
				<g>
					<g>
						<g>
							<path class="st15" d="M91.8,133.6c-0.3-0.2-0.6-0.3-0.9-0.5c-0.4-0.2-0.7-0.4-1-0.5c-0.3,0.4-0.7,0.8-1,0.9
								c-2.5-0.4-4.7-0.3-5.8-2.2c-0.1,0.2-0.2,0.6-0.2,0.8c0,1,0.2,1.5,1.1,1.7c1,0.3,1.4,0,2,0.2c0.6,0.2,0.9,0.4,1.5,0.7
								c1.4,0.8,2,0.3,3.7,0C91.9,134.7,92.5,134,91.8,133.6z"/>
						</g>
					</g>
				</g>
			</g>
		</g>
	</g>
	<g>
		<g>
			<g>
				<g>
					<g>
						<g>
							<path class="st12" d="M80.1,133.9c0,0-0.3-2.5-0.5-3.4c0.3-10,2.8-25.7,1.9-28.8c-2.5,0.2-4.5,1.2-7,1
								c-0.9,9.5,1.7,21,2.1,28.4c-0.2,1.4-0.3,2.1-1,3.2c-0.2,0.4-0.5,0.7-0.7,1c-0.2,0.4-0.2,0.8-0.1,1.2c0.1,0.9,0.3,1.6,0.7,2.3
								c0.3,0.6,0.9,0.5,1.4,0.5c0.7-0.1,1.4-0.3,1.9-0.8c0.7-0.7,1.3-2,1.3-3.1C80.3,135.1,80.2,134.4,80.1,133.9z"/>
						</g>
					</g>
				</g>
			</g>
		</g>
		<g>
			<g>
				<g>
					<g>
						<g>
							<path class="st11" d="M75.7,134.5c-0.2,0.4-0.5,0.7-0.7,1c-0.2,0.4-0.2,0.8-0.1,1.2c0,0.5,0.2,1,0.3,1.5
								c0.5-1.6,0.9-3.3,1.1-5.1C76.1,133.5,76,134,75.7,134.5z"/>
						</g>
						<g>
							<path class="st11" d="M77.5,109.8c0.4-1.2,2.1-2.3,4-2.2c0.2-2.8,0.3-4.9,0-5.8c-2.5,0.2-4.5,1.2-7,1
								c-0.8,8.9,1.4,19.5,2,26.9C76.8,123.3,76.1,116.5,77.5,109.8z"/>
						</g>
					</g>
				</g>
			</g>
		</g>
		<g>
			<g>
				<g>
					<g>
						<g>
							<path class="st15" d="M81.6,107.2c0.2-2.6,0.2-4.5,0-5.4c-2.5,0.2-4.5,1.2-7,1c-0.1,1.3-0.2,2.7-0.2,4
								C76.7,107.5,79.2,107.6,81.6,107.2z"/>
						</g>
					</g>
				</g>
			</g>
		</g>
		<g>
			<g>
				<g>
					<g>
						<g>
							<path class="st15" d="M75.9,136.7c-0.7-0.2-0.7-1.1-0.5-1.8c-0.1,0.2-0.3,0.4-0.4,0.6c-0.2,0.4-0.2,0.8-0.1,1.2
								c0.1,0.9,0.3,1.6,0.7,2.3c0.3,0.6,0.9,0.5,1.4,0.5c0.7-0.1,1.4-0.3,1.9-0.8c0.7-0.7,1.3-2,1.3-3.1c0-0.5-0.1-1.2-0.2-1.7
								c0,0,0-0.1,0-0.1C79.6,136.3,78.8,137.4,75.9,136.7z"/>
						</g>
					</g>
				</g>
			</g>
		</g>
	</g>
	<g>
		<g>
			<g>
				<g>
					<g>
						<g>
							<path class="st13" d="M87.6,104.2c0.7-6.3,0.5-12.3,0.3-18.7c-5.4,0.2-10.8-0.4-16.1-1.8c-1,3.6-0.3,7.5,0.6,11.2
								s2,7.4,1.6,11.1C79.4,107.8,85.5,104.9,87.6,104.2z"/>
						</g>
					</g>
				</g>
			</g>
		</g>
		<g>
			<g>
				<g>
					<g>
						<g>
							<path class="st15" d="M71.9,83.6c-0.5,2-0.6,4-0.3,6.1c5.2,0.2,11.1,0.2,16.5-1c0-1.1,0-2.1-0.1-3.2
								C82.5,85.7,77.1,85.1,71.9,83.6z"/>
						</g>
					</g>
				</g>
			</g>
		</g>
	</g>
	<g>
		<g>
			<g>
				<g>
					<g>
						<g>
							<g>
								<path class="st5" d="M93,66.7c-0.7-1.7-1.4-3.4-2.1-5c-1.1-2.6-1.7-4.3-3.1-6.6L87,55c-1.1,0-2.3,1.3-2.4,2.4
									c-0.2,1.1,0.2,2.1,0.5,3.1c0.5,1.6,1.1,3.2,1.6,4.8c0.4,1.1,0.7,2.2,1.3,3.2c0.6,1,1.3,1.9,2.3,2.5c0.6,0.4,1.4,0.6,2.1,0.3
									c0.8-0.3,1.3-1.3,1.3-2.1C93.7,68.3,93.3,67.5,93,66.7z"/>
							</g>
						</g>
					</g>
				</g>
			</g>
			<g>
				<g>
					<g>
						<g>
							<g>
								<path class="st15" d="M86.4,55.1c-0.9,0.4-1.7,1.4-1.8,2.2c-0.2,1.1,0.2,2.1,0.5,3.1c0.5,1.6,1.1,3.2,1.6,4.8
									c0.4,1.1,0.7,2.2,1.3,3.2c0.6,1,1.4,1.8,2.3,2.5c0.6,0.4,1.4,0.6,2.1,0.3c0,0,0,0,0.1,0c-0.2-0.2-0.3-0.5-0.4-0.8
									C89.1,65.9,91.5,60.7,86.4,55.1z"/>
							</g>
						</g>
					</g>
				</g>
			</g>
		</g>
		<g>
			<g>
				<g>
					<g>
						<g>
							<g>
								<path class="st5" d="M91.6,71.3c0.9,0.1,1.8-0.4,2.4-1.1c0.6-0.7,0.8-1.6,1.2-2.5c1-2.9,2.3-5.6,3.9-8.2
									c-0.7-1.4-2.1-1.2-3.1-1.8c-1.7,2.5-3.2,5-4.8,7.5c-0.7,1-1.3,2.1-1.4,3.4C89.6,69.7,90.3,71.1,91.6,71.3z"/>
							</g>
						</g>
					</g>
				</g>
			</g>
			<g>
				<g>
					<g>
						<g>
							<g>
								<path class="st15" d="M98.5,59.3c0-0.1-0.1-0.2-0.2-0.3c-0.7-0.5-1.5-0.9-2.3-1c-0.1,1,0.3,2.1,1,2.9c0.3,0,0.6-0.2,0.8-0.4
									c0.2-0.2,0.4-0.5,0.6-0.7C98.4,59.6,98.5,59.5,98.5,59.3z"/>
							</g>
						</g>
					</g>
				</g>
			</g>
			<g>
				<g>
					<g>
						<g>
							<path class="st12" d="M102.8,55.8c-0.1-0.1-0.2-0.1-0.2-0.1c-0.1,0-0.2,0.1-0.3,0.1c-0.5,0.3-0.9,0.5-1.4,0.8
								c0,0,0,0-0.1-0.1c0.6-0.4,1.1-0.8,1.6-1.2c0.1,0,0.1-0.1,0.2-0.2c0-0.1,0.1-0.2,0-0.2c0-0.1-0.1-0.1-0.2-0.1
								c-0.1,0-0.2,0-0.2,0.1c-0.7,0.3-1.3,0.7-2,1.1c0,0,0,0-0.1,0c0.6-0.5,1.3-0.9,1.9-1.4c0.1-0.1,0.2-0.2,0.2-0.3
								c0-0.1-0.1-0.1-0.2-0.1c-0.1,0-0.2,0-0.2,0.1c-0.9,0.3-1.7,0.9-2.5,1.4c0,0,0,0-0.1,0c0.6-0.5,1.3-0.9,1.9-1.4
								c0.1-0.1,0-0.3-0.1-0.3c0,0-0.1,0-0.2,0c-0.6,0.3-1.2,0.6-1.7,1c-0.3,0.2-0.6,0.5-0.9,0.6c-0.1,0-0.2,0-0.4,0
								c-0.3,0-0.4,0-0.5-0.3c-0.1-0.2-0.1-0.4-0.1-0.6c0-0.2-0.4-1-0.6-1c-0.2,0-0.3,0.6-0.3,0.9c0,0.2,0.2,0.6,0.2,0.8
								c0.2,0.5,0.2,0.8,0.1,1.4c-0.1,0.5-0.3,1.1-0.3,1.6c0,0.6,0.3,1.1,0.7,1.4c0.1,0.1,0.3,0.1,0.4,0.1c0.1,0,0.2-0.1,0.3-0.2
								c0.2-0.2,0.5-0.4,0.7-0.6c1-0.4,1.9-1,2.7-1.7c0.5-0.3,1-0.6,1.5-1.1c0.1-0.1,0.1-0.1,0.2-0.2
								C102.8,55.9,102.9,55.8,102.8,55.8z"/>
						</g>
					</g>
				</g>
			</g>
			<g>
				<path class="st11" d="M97.7,56c0,0,0,0.1,0,0.2c0.2,0.4,0.3,0.9,0.1,1.4c0,0.1-0.1,0.2-0.1,0.3c0,0.1,0,0.2,0.1,0.3
					c0.1,0.1,0.2,0,0.3,0c0.6-0.2,1.2-0.4,1.8-0.7c0.1-0.1,0-0.3-0.1-0.5c-0.1-0.1-0.3-0.2-0.3-0.4c0-0.1-0.1-0.2-0.1-0.2
					c-0.1-0.1-0.2-0.1-0.3-0.1c-0.1,0-0.3-0.1-0.4-0.1C98.4,55.9,98.1,55.8,97.7,56C97.7,56,97.7,56,97.7,56z"/>
			</g>
		</g>
	</g>
	<g>
		<g>
			<g>
				<g>
					<g>
						<g>
							<path class="st5" d="M72.1,54.9c0.6-0.7,1.5-1.1,2.3-1.4c3.8-1.1,7.9-0.9,11.6,0.6c0.7,0.3,1.3,0.6,1.7,1.2
								c0.5,0.9,0.3,1.9,0.3,2.9c0.1,2.3,1.6,4.4,1,6.6c-0.5,1.5-1.6,2.5-2.4,3.8c-0.7,1.1-0.8,2.5-0.6,3.8c0.2,1.3,0.6,2.6,0.9,3.8
								c0.9,3.7,2,6.1,1.9,10.9c-5.8,0.1-12.2,1-18,0.5c-0.6-4.4,2.1-9,2.7-13.3c0.8-5.6-2.2-11.2-2.1-16.9
								C71.4,56.6,71.5,55.6,72.1,54.9z"/>
						</g>
					</g>
				</g>
			</g>
		</g>
		<g>
			<g>
				<g>
					<path class="st14" d="M79.7,53.2c0.9,1.6,1.6,3.3,1.8,5.1c0.3,2.2,0.1,4.4-0.1,6.6c-0.3,3.2-0.6,6.4-0.8,9.7
						c1.6,0,3.2,0.1,4.7,0.1c2.2-7.1,1.5-15.1-2.1-21.7C82,53.1,80.8,53.2,79.7,53.2z"/>
				</g>
			</g>
		</g>
		<g>
			<path class="st15" d="M85,70.8c-0.1-2.9-0.1-5.8-0.5-8.7c-0.4-3.3-1.2-6-2.3-8.3l0.2-0.1c1.2,2.4,1.9,5.1,2.4,8.4
				c0.4,2.9,0.4,5.9,0.5,8.7L85,70.8z"/>
		</g>
		<g>
			<g>
				<g>
					<g>
						<g>
							<path class="st8" d="M72.6,84.4c4.1-1.9,9.4-0.6,14.1-0.3c0-2.5,0.6-5.3-0.9-7.5c-2.2-3.4-6.6-4.7-8.8-8.2
								c-1.6-2.8,1.3-5.6-0.3-8.5c-1.1-2.2-2.9-3.6-5.1-4.4c-0.1,0.4-0.1,0.9-0.1,1.4c-0.1,5.7,2.9,11.3,2.1,16.9
								c-0.6,4.1-2.9,8.3-2.8,12.4C71,85.4,71.7,84.8,72.6,84.4z"/>
						</g>
					</g>
				</g>
			</g>
		</g>
	</g>
	<g>
		<g>
			<g>
				<g>
					<g>
						<g>
							<polygon class="st15" points="85.9,83.6 74.2,83.4 77.4,65.1 89.2,65.4 							"/>
						</g>
					</g>
				</g>
			</g>
		</g>
		<g>
			<g>
				<g>
					<g>
						<g>
							<polygon class="st6" points="87,82.4 75.3,82.5 75.2,82 78.4,63.8 90.1,64.1 90.3,64.5 							"/>
						</g>
					</g>
				</g>
			</g>
		</g>
		<g>
			<g>
				<g>
					<g>
						<g>
							<polygon class="st13" points="87.1,82.7 75.3,82.5 78.6,64.2 90.3,64.4 							"/>
						</g>
					</g>
				</g>
			</g>
		</g>
	</g>
	<g>
		<g>
			<g>
				<g>
					<g>
						<path class="st15" d="M76.2,77.5c2.8,2.1,5.9,3.8,9.1,5.2l1.8,0l0.7-4.1c-3.8-1.5-7.4-3.4-10.7-5.9L76.2,77.5z"/>
					</g>
				</g>
			</g>
		</g>
	</g>
	<g>
		<g>
			<g>
				<g>
					<g>
						<g>
							<g>
								<path class="st12" d="M83.6,52.7c-0.3-1.3-0.6-3.1-0.6-4.4c-1.2,0.2-2.5,0-3.7-0.3c-0.1,1.5-0.6,3.3-1.4,4.6
									C80,53.5,81.9,53.6,83.6,52.7z"/>
							</g>
						</g>
					</g>
				</g>
			</g>
			<g>
				<g>
					<g>
						<g>
							<g>
								<path class="st11" d="M79.4,48c-0.1,1.5-0.6,3.3-1.4,4.6c1.2,0.5,2.4,0.8,3.5,0.7c-0.9-1.5-1.4-3.4-1.6-5.2
									C79.7,48.1,79.5,48,79.4,48z"/>
							</g>
						</g>
					</g>
				</g>
			</g>
			<g>
				<g>
					<g>
						<path class="st14" d="M77.5,52.3c0.1-0.1,0.3-0.1,0.4-0.2c0.1-0.1,0.1-0.2,0.1-0.3c0-0.1,0-0.2,0.1-0.3c0.1-0.1,0.2-0.1,0.2,0
							c0.4,0.4,0.9,0.5,1.4,0.6c1.1,0.2,2.3,0.2,3.4-0.2c0.1,0,0.2-0.1,0.3-0.1c0.1,0,0.2,0.1,0.3,0.1c0.1,0.1,0,0.3,0,0.4
							c0,0.1,0.1,0.1,0.2,0.2c0,0.1,0,0.2-0.1,0.3c-0.1,0.1-0.2,0.1-0.2,0.2c-1.1,0.6-2.4,0.6-3.7,0.5c-0.5-0.1-1-0.2-1.5-0.4
							c-0.3-0.1-0.6-0.3-0.8-0.5c-0.1-0.1-0.1-0.1-0.2-0.2C77.4,52.5,77.4,52.4,77.5,52.3z"/>
					</g>
				</g>
			</g>
			<g>
				<g>
					<g>
						<g>
							<g>
								<path class="st15" d="M79.8,48.1c0.1,2,1.7,3.1,3.6,3.5c-0.2-1.1-0.4-2.2-0.4-3.3C81.9,48.5,80.8,48.4,79.8,48.1z"/>
							</g>
						</g>
					</g>
				</g>
			</g>
			<g>
				<g>
					<g>
						<g>
							<g>
								<path class="st13" d="M82,41.2c0.2-0.6,0.7-1,1.3-1.2c0.6-0.3,1.3-0.3,1.9,0c0.7,0.4,1,1.4,0.8,2.2
									c-0.2,0.8-0.8,1.5-1.4,2.1c-0.2,0.1-0.3,0.3-0.5,0.3c-0.3,0.1-0.7-0.1-0.9-0.4c-0.4-0.4-0.8-0.8-1.1-1.3
									C81.8,42.3,81.8,41.7,82,41.2z"/>
							</g>
						</g>
					</g>
				</g>
			</g>
			<g>
				<g>
					<g>
						<g>
							<g>
								<path class="st12" d="M82.7,40.3c0.6,0.1,1.1,0.2,1.6,0.5c0.5,0.3,0.9,1.1,0.9,1.6c0,0.9-0.2,1.3-0.2,1.6
									c0,0.2,0.1,0.4,0.1,0.6c0.3,0.8,0.4,2.1,0.1,2.9c-0.3,0.7-0.7,1.4-1.1,2.1c-0.1,0.2-0.3,0.4-0.6,0.4c-1.5,0-2.9-0.5-4-1.4
									c-1.2-1-2-2.5-2-4.1c0-1.6,1-3.1,2.4-3.8C80.7,40.3,81.7,40.2,82.7,40.3z"/>
							</g>
						</g>
					</g>
				</g>
			</g>
			<g>
				<g>
					<g>
						<g>
							<g>
								<path class="st11" d="M84,41.7c0.4,0.4,0.7,1,1.1,1.5c0-0.1,0-0.1,0-0.2c0.1-0.6-0.3-1.8-0.8-2.1c-0.5-0.3-1.1-0.5-1.6-0.5
									c-1-0.1-2-0.1-2.8,0.3c-1.1,0.5-1.9,1.5-2.2,2.6c0.5,0.4,1,0.8,1.7,1C81.4,45.2,82.7,43,84,41.7z"/>
							</g>
						</g>
					</g>
				</g>
			</g>
			<g>
				<g>
					<g>
						<g>
							<g>
								<path class="st13" d="M78.9,38.9c-1.1,0.3-2.3,0.8-2.8,1.9c-1.6,3.4-0.9,4.6-0.1,5.4c0,0.2,0.1,0.5,0.2,0.7
									c0.5,1,2.3,1.3,3,2.1c0.5-0.5,0-1.3,0.2-1.9c0.2-0.6,0.4-1.7,0.8-2.2c1.1-0.5,2-1.2,2.5-2.4c0.2-0.6,0.4-1.2,0.7-1.7
									c0.3-0.5,0.9-1,1.5-1C84.7,37.9,80.9,38.3,78.9,38.9z"/>
							</g>
						</g>
					</g>
				</g>
			</g>
			<g>
				<g>
					<g>
						<g>
							<g>
								<path class="st12" d="M79.5,44.9c-0.2-0.1-0.4-0.4-0.5-0.6c-0.1-0.2-0.2-0.3-0.4-0.4c-0.3,0-0.5,0.2-0.7,0.4
									c-0.1,0.2-0.2,0.7-0.2,0.9c0,0.5,0.2,0.8,0.4,1.3c0.1,0.3,0.1,0.4,0.3,0.5c0.2,0.2,1.1,0,1.3-0.2L79.5,44.9z"/>
							</g>
						</g>
					</g>
				</g>
			</g>
		</g>
	</g>
	<g>
		<g>
			<g>
				<g>
					<g>
						<g>
							<path class="st12" d="M83.1,76.2c0.4,0.3,1,0.4,1.5,0.3c0.5-0.1,1-0.3,1.5-0.4c0.5-0.1,1.1-0.1,1.6,0.2
								c0.1,0,0.1,0.2,0.1,0.3c0,0.1-0.4,0.2-0.5,0.2c-0.3,0.1-0.5-0.1-0.8,0c-0.2,0.1-0.3,0.4-0.2,0.6c0,0.1,0.1,0.1,0.2,0.2
								c0.3,0.1,0.6,0.2,0.9,0.3c0.2,0,0.8-0.1,0.9,0.1c0.2,0.2,0.1,0.7,0.1,0.9c-0.1,0.6-0.1,0.9-0.5,1.3c-0.5,0.5-1.7,0.7-2.4,0.5
								c-1.3-0.3-2.5-1.2-3.4-2.1C82.4,77.8,82.7,77,83.1,76.2z"/>
						</g>
					</g>
				</g>
			</g>
		</g>
		<g>
			<g>
				<g>
					<g>
						<g>
							<path class="st5" d="M81.8,79.5c-3.7-2.3-7.7-4-10.7-7.1c-0.5-0.5-1-1.1-1.4-1.7c-0.3-0.6-0.4-1.5-0.4-2.2
								c-0.2-1.7,0.2-3.3,0.3-4.9c0.1-1.7,0.2-3.5,0.7-5.2c0.4-1.4,0.7-3.1,1.8-4.1c0.8-0.8,1.5-0.6,2.2,0.2c0.8,1,1.1,2.3,1.2,3.6
								c0.2,2.6,0.1,5.3-0.5,7.9c-0.2,0.8-0.4,1.6-0.1,2.4C75,69,75.5,69.6,76,70c2.5,2.4,4.7,4,7.7,5.8
								C82.9,76.9,82.6,78.4,81.8,79.5z"/>
						</g>
					</g>
				</g>
			</g>
		</g>
		<g>
			<g>
				<g>
					<g>
						<g>
							<path class="st15" d="M74.6,68C74.6,68,74.6,68,74.6,68c-0.1,0-0.1-0.1-0.1-0.1c0.7-3,1.3-6.3,0.8-9.8c0-0.1,0-0.1,0.1-0.1
								c0.1,0,0.1,0,0.1,0.1c0.5,3.5-0.1,6.8-0.8,9.9C74.7,67.9,74.6,68,74.6,68z"/>
						</g>
					</g>
				</g>
			</g>
		</g>
		<g>
			<g>
				<g>
					<g>
						<g>
							<path class="st15" d="M83.7,75.9C83.7,75.9,83.6,75.9,83.7,75.9c-0.6-0.4-1.1-0.7-1.7-1.1c-2.6-1.7-5.3-3.5-7.1-5.9
								c0,0,0-0.1,0-0.2c0,0,0.1,0,0.2,0c1.8,2.3,4.4,4.1,7,5.8c0.6,0.4,1.1,0.7,1.6,1.1C83.8,75.8,83.8,75.8,83.7,75.9
								C83.8,75.9,83.7,75.9,83.7,75.9z"/>
						</g>
					</g>
				</g>
			</g>
		</g>
		<g>
			<g>
				<g>
					<g>
						<g>
							<path class="st15" d="M81.8,79.5C81.7,79.5,81.7,79.5,81.8,79.5c-0.1-0.1-0.1-0.2-0.1-0.2c0.5-0.4,0.7-1.1,1-1.7l0-0.1
								c0.2-0.6,0.5-1.3,0.9-1.8c0,0,0.1,0,0.2,0c0,0,0,0.1,0,0.2c-0.4,0.5-0.7,1.1-0.9,1.7l0,0.1C82.7,78.4,82.4,79.1,81.8,79.5
								C81.8,79.5,81.8,79.5,81.8,79.5z"/>
						</g>
					</g>
				</g>
			</g>
		</g>
		<g>
			<g>
				<g>
					<g>
						<g>
							<path class="st15" d="M80.4,78.8C80.4,78.8,80.4,78.8,80.4,78.8c-0.1,0-0.1-0.1-0.1-0.2c0.5-1,1-2,1.3-3.1
								c0-0.1,0.1-0.1,0.1-0.1c0.1,0,0.1,0.1,0.1,0.1c-0.4,1.1-0.8,2.1-1.3,3.1C80.5,78.8,80.5,78.8,80.4,78.8z"/>
						</g>
					</g>
				</g>
			</g>
		</g>
	</g>
</g>
<g>
	<g>
		<g>
			<g>
				<g>
					<g>
						<g>
							<path class="st12" d="M123.2,79.6c-2.1-0.5-4.4-0.7-6.6-0.9c1-1.7,1.7-3.9,1.7-5.9c1.5,0.1,3.1,0.1,4.6-0.1
								C123,75,123.1,77.3,123.2,79.6z"/>
						</g>
					</g>
				</g>
				<g>
					<g>
						<g>
							<path class="st12" d="M127,68c0.1,0.8,0.2,1.6-0.1,2.3c-0.1,0.2-0.3,0.5-0.3,0.7c-0.1,0.3,0.1,0.7,0.1,1
								c0.1,0.7-0.1,1.4-0.4,2c-0.3,0.8-0.6,1.6-0.9,2.4c-0.1,0.2-0.2,0.5-0.4,0.6c-0.3,0.2-0.7,0.2-1,0.1c-0.8-0.1-1.5-0.3-2.3-0.4
								c-1-0.2-2.1-0.6-2.7-1.4c-0.6-0.8-0.7-1.8-0.7-2.7c0-1.2,0.2-2.3,0.6-3.4c0.2-0.6,0.4-1.2,0.8-1.8c0.4-0.5,0.9-1,1.5-1.2
								c0.8-0.3,1.8-0.2,2.6-0.1c0.5,0.1,1,0.2,1.5,0.4c0.5,0.2,0.9,0.5,1.2,1L127,68z"/>
						</g>
					</g>
				</g>
				<g>
					<g>
						<g>
							<path class="st13" d="M125.2,70.6c-0.4,0.6-0.7,1.4-1,2c-1,1.8-3.6,2.7-6.1,3.1c0.7-1.2,2-2.7,2.7-3.9
								c0.6-1.2,1.4-2.3,2.5-3.1c1.1-0.8,2.5-1.2,3.8-0.9c0,0.6-0.3,1.1-0.7,1.5S125.5,70.2,125.2,70.6z"/>
						</g>
					</g>
				</g>
				<g>
					<g>
						<path class="st5" d="M129.2,66c-0.2,0.4-0.6,0.6-1,0.8c0.6-0.5,0.9-1.4,0.6-2.1c-0.1,0.5-0.6,0.9-1.1,0.9
							c0.3-0.1,0.5-0.5,0.4-0.8c-0.3,0.4-0.7,0.4-1.1,0.4c-0.4,0-0.8,0-1.1,0c0.3-0.4,0.6-0.9,0.5-1.4c-0.3,0.7-1,1.1-1.7,1.3
							c0,0,0,0-0.1,0c-0.1,0-0.1,0-0.2,0c0.2-0.2,0.3-0.5,0.3-0.8c-0.3,0.3-0.7,0.4-1.1,0.4c0.2-0.1,0.3-0.3,0.3-0.5
							c-0.4,0.2-0.9,0.4-1.4,0.5c-0.9-0.2-1.8-0.1-2.8,0c-0.5,0-1.1,0.1-1.5,0.4c-0.3,0.2-0.5,0.5-0.7,0.9c-0.6,1.1-1.1,2.3-1.3,3.6
							c-0.1,0.7,0.2,1.6,0.4,2.3c0.4,1.6,0.8,2.7,1.2,4.3c1.5-1.3,3.9-1.3,5.2-2.4c0.9-0.8,1.3-2,1.6-3.2c0.1-0.6,0.7-1,1.3-1.2
							c0.5-0.1,0.9-0.3,1.2-0.7c0,0,0,0,0,0C128.3,67.9,129,67,129.2,66z"/>
					</g>
					<g>
						<path class="st8" d="M124.9,69.7c-0.3,0-0.5,0-0.8-0.1c-0.9-0.1-1.8-0.2-2.7-0.2c-1.1,0-2.2,0.2-3.1,0.8
							c-0.1,0.3-0.2,0.7-0.2,1c0.2-0.1,0.4-0.1,0.7-0.1c0.4,0,0.8,0,1.2,0c0.8-0.1,1.4-0.7,2.2-0.9c0.8-0.3,1.7-0.2,2.6-0.1
							c-0.1,0.2-0.4,0.2-0.6,0.2c-0.2,0-0.4,0-0.7-0.1c-0.7,0-1.4,0.3-2.1,0.5c-1.1,0.4-2.2,0.6-3.3,0.6c-0.1,0.9,0,1.8-0.3,2.6
							c0,0.1-0.1,0.1-0.1,0.2c0.1,0.5,0.3,1,0.4,1.6c1.5-1.3,3.9-1.3,5.2-2.4c0.9-0.8,1.3-2,1.6-3.2c0.1-0.2,0.1-0.4,0.3-0.5
							C125,69.7,125,69.7,124.9,69.7z"/>
					</g>
					<g>
						<path class="st8" d="M118.5,69.9c0,0.1-0.1,0.1-0.1,0.2c0.5-0.4,1.1-0.6,1.8-0.8c0.9-0.1,1.8-0.1,2.7,0c0.8,0.1,1.7,0.2,2.5,0
							c0.2-0.2,0.5-0.3,0.8-0.4c0.2,0,0.3-0.1,0.4-0.1C123.7,68.8,120.6,67.1,118.5,69.9z"/>
					</g>
				</g>
				<g>
					<g>
						<g>
							<path class="st12" d="M124.8,71.7c-0.3,0-0.5-0.3-0.5-0.6c-0.1-0.3-0.1-0.6-0.3-0.8c-0.3-0.2-0.6-0.1-0.8,0.1
								c-0.2,0.2-0.3,0.5-0.4,0.8c-0.2,0.7-0.3,1.5,0,2.2c0.1,0.2,0.3,0.5,0.5,0.6c0.2,0.1,0.5,0.2,0.8,0.1L124.8,71.7z"/>
						</g>
					</g>
				</g>
				<g>
					<g>
						<g>
							<path class="st13" d="M123.1,76.5c0.5,0.2,0.9,0.4,1.3,0.7c-0.4,0-0.8,0-1.1-0.1c-0.1,0-0.2,0-0.2-0.1
								C123,76.8,123.1,76.6,123.1,76.5z"/>
						</g>
					</g>
				</g>
			</g>
			<g>
				<g>
					<path class="st12" d="M141.2,71.4c-0.1,0-0.2,0-0.3,0c-0.7,0.3-1.7,0.7-2.3,0.8c0.3-0.6,1.5-1.6,2.1-2.3
						c0.1-0.1,0.2-0.3,0.1-0.4c-0.1-0.2-0.4-0.1-0.6,0c-0.4,0.3-1.3,0.9-1.7,1.3c-0.3,0.2-0.7,0.4-0.8,0.3c-0.1-0.1,0.1-0.6,0.3-0.9
						c0.3-0.5,0.6-1.1,1-1.6c0.1-0.2,0.3-0.5,0.1-0.6c-0.2-0.1-0.4,0.1-0.5,0.2c-0.6,0.7-1.3,1.7-1.8,2.3c-0.4-0.2,0.5-1.7,0.8-2.3
						c0-0.1,0.1-0.2,0.1-0.3c0-0.2-0.2-0.2-0.3-0.2c-0.2,0.1-0.4,0.2-0.5,0.4c-0.7,1-0.9,1.8-2.2,3.2c-0.3,0.3-0.6,0.6-0.9,0.5
						c-0.3-0.1-0.4-0.5-0.6-0.9c-0.2-0.5-0.8-0.8-1.3-0.8c0.2,1.1,1,2,1.3,3c0.1,0.4,0.2,0.9,0.2,1.3c-2.3,3.9-4.8,7.9-7.1,11.8
						c1.3,0.7,2.5,1.4,3.8,2.1c0.2,0.1,0.4,0.2,0.7,0.2c0.2-0.1,0.4-0.2,0.5-0.4c2.4-3.2,3-6.8,4-10.7c0.1-0.4,0.5-1.2,0.7-1.9
						c0.2-0.2,0.4-0.4,0.6-0.6c0.7-0.7,1.6-1.2,2.5-1.7c0.8-0.4,1.5-0.9,2.3-1.3c0.1-0.1,0.2-0.1,0.3-0.3
						C141.3,71.7,141.3,71.5,141.2,71.4z"/>
				</g>
				<g>
					<path class="st11" d="M127.9,87.4c0.6,0.3,1.2,0.7,1.8,1c0.2,0.1,0.4,0.2,0.7,0.2c0.2-0.1,0.4-0.2,0.5-0.4
						c2.4-3.2,3-6.8,4-10.7c0.1-0.4,0.5-1.2,0.7-1.9C133.6,74.4,131.1,83.7,127.9,87.4z"/>
				</g>
				<g>
					<g>
						<g>
							<g>
								<path class="st10" d="M134.1,77.9L134.1,77.9c-0.1,0-0.1,0-0.2,0l-0.8-0.3c-0.1,0-0.2-0.1-0.2-0.2c0-0.1,0-0.2,0.1-0.3
									l0.5-0.9c0.1-0.1,0.2-0.2,0.4-0.1c0.2,0.1,0.5,0.2,0.7,0.4c0.1,0,0.2,0.1,0.2,0.3c0,0.1,0,0.2,0,0.3l-0.3,0.8
									C134.4,77.7,134.3,77.9,134.1,77.9C134.2,77.9,134.2,77.9,134.1,77.9z M133.8,76.3C133.7,76.3,133.7,76.3,133.8,76.3
									l-0.5,0.9c0,0,0,0.1,0,0.1c0,0,0,0,0.1,0l0.8,0.3c0,0,0.1,0,0.1,0v0.1l0-0.1c0,0,0,0,0-0.1l0.3-0.8c0,0,0-0.1,0-0.1
									c0,0-0.1-0.1-0.1-0.1C134.2,76.5,134,76.3,133.8,76.3C133.8,76.3,133.8,76.3,133.8,76.3z"/>
							</g>
						</g>
					</g>
					<g>
						<path class="st13" d="M132.6,75.7c-0.1,0-0.2-0.1-0.3,0c-0.1,0-0.1,0.1-0.1,0.2c-0.1,0.3-0.3,0.5-0.5,0.7c0,0.1,0,0.1,0.1,0.2
							c0.4,0.1,1.2,0.4,1.6,0.6c0.2-0.4,0.2-0.6,0.5-1C133.5,76.1,133,75.8,132.6,75.7z"/>
					</g>
					<g>
						<g>
							<path class="st10" d="M133.2,76.4c0,0.1-0.1,0.2-0.1,0.3c0.4,0.1,0.9,0.3,1.3,0.5c0-0.1,0.1-0.1,0.1-0.2
								C134,76.8,133.6,76.6,133.2,76.4z"/>
						</g>
					</g>
					<g>
						<path class="st13" d="M135.1,77c-0.1-0.1-0.4-0.2-0.6-0.3c-0.1,0-0.2,0-0.2,0.1c-0.1,0.2-0.1,0.4-0.2,0.6c0,0.1,0,0.2,0.1,0.2
							c0.4,0.2,0.5,0.5,0.7,0.6c0.1,0.1,0.2,0,0.2-0.1c0.1-0.3,0.1-0.6,0.2-0.8C135.3,77.2,135.2,77.1,135.1,77z"/>
					</g>
				</g>
			</g>
			<g>
				<g>
					<g>
						<g>
							<path class="st14" d="M144.6,135c0.2-1.5-0.1-3-0.7-4.2c1.5,0,3-0.2,4.5-0.8c0.2,1.5,0.5,2.9,0.9,4.3
								C147.8,135.2,146.1,135.4,144.6,135z"/>
						</g>
					</g>
				</g>
				<g>
					<g>
						<g>
							<g>
								<path class="st13" d="M144.6,133.8c0.2-0.4,0.9-0.5,1.2-0.3c0.4,0.2,0.6,0.6,1,0.8c0.7,0.5,1.8,0.2,2.5-0.5
									c0.2-0.2,0.4-0.5,0.7-0.6c0.2-0.1,0.5,0,0.7,0.1c0.2,0.1,0.3,0.4,0.5,0.5c0.5,0.6,1.1,1,1.8,1.2c0.5,0.1,1,0.2,1.4,0.5
									c0.4,0.4,0.4,1.2,0.3,1.9c-0.3,0-0.6,0-0.9,0.1l-9.7,0c-0.2-0.9-0.1-1.9,0.2-2.8C144.2,134.6,144.3,134,144.6,133.8z"/>
							</g>
						</g>
					</g>
				</g>
				<g>
					<g>
						<g>
							<g>
								<path class="st15" d="M143.8,136.8c0,0.3,0,0.6,0.1,0.8l9.7,0c0.3,0,0.6,0,0.9-0.1c0.1-0.3,0.1-0.5,0.1-0.8H143.8z"/>
							</g>
						</g>
					</g>
				</g>
				<g>
					<g>
						<g>
							<path class="st13" d="M130.3,102c5.3,0.5,10.4,2,15,4.5c0.9,0.5,1.8,1,2.2,2c0.4,0.7,0.4,1.6,0.5,2.5
								c0.5,7.1,1,14.2,1.5,21.3c-2,0.3-2.2,0.7-4.1,0.7c-0.5,0-1.9-0.1-2.2-0.4c-0.4-0.4-0.4-1.3-0.4-2c0-2.4-0.4-4.1-1-6.4
								c-0.4-1.6-0.8-2.9-1.1-4.5c-0.2-1.6-0.1-3.5,0.4-6.3c-2.6-1.3-6.8-0.6-9.9-0.5c-3.1,0.1-6.5-0.3-8.1-2.9
								c-1.3-1.9-1.3-4.7-1.3-7.3c3.5-0.8,6.9-1.7,10.4-2.5c0.1,0.5,0.1,1.1,0.2,1.6L130.3,102z"/>
						</g>
					</g>
				</g>
				<g>
					<g>
						<g>
							<path class="st15" d="M148.2,114.7c-0.1-1.2-0.2-2.4-0.3-3.7c-0.1-0.9-0.1-1.7-0.5-2.5c-0.5-0.9-1.4-1.5-2.2-2
								c-4.5-2.5-9.6-4-15-4.5l2-0.2c-0.1-0.5-0.1-1.1-0.2-1.6c-3.5,0.8-6.9,1.7-10.4,2.5c0,2.6,0,5.3,1.3,7.3
								c1.7,2.5,5,2.9,8.1,2.9c3.1-0.1,7.3-0.8,9.9,0.5c-0.5,2.8-0.6,4.7-0.4,6.3c0.2,1.6,0.7,3,1.1,4.5c0.6,2.3,1,4,1,6.4
								c0,0.7,0,1.6,0.4,2c0.2,0.2,0.6,0.3,1,0.3C142.9,124.9,139.7,115.8,148.2,114.7z"/>
						</g>
					</g>
				</g>
			</g>
			<g>
				<g>
					<g>
						<g>
							<path class="st14" d="M157.5,135.5c-0.1-1.5-0.5-3-1.4-4.2c1.5,0,3-0.2,4.4-0.8c0.4,1.5,0.9,2.9,1.6,4.3
								C160.7,135.7,159.1,135.9,157.5,135.5z"/>
						</g>
					</g>
				</g>
				<g>
					<g>
						<g>
							<path class="st13" d="M156.8,134.3c0.2-0.4,0.8-0.5,1.3-0.3c0.4,0.2,0.8,0.6,1.2,0.8c0.8,0.5,2,0.2,2.6-0.5
								c0.2-0.2,0.3-0.5,0.6-0.6c0.2-0.1,0.5,0,0.7,0.1c0.2,0.1,0.4,0.4,0.6,0.5c0.6,0.6,1.3,1,2.1,1.2c0.5,0.1,1.1,0.2,1.5,0.5
								c0.5,0.4,0.6,1.2,0.6,1.9c-0.3,0-0.7,0-1,0.1l-10.2,0c-0.3-0.9-0.4-1.9-0.2-2.8C156.5,135,156.5,134.5,156.8,134.3z"/>
						</g>
					</g>
				</g>
				<g>
					<g>
						<g>
							<path class="st15" d="M156.4,137.3c0,0.3,0.1,0.6,0.2,0.8l10.2,0c0.3,0,0.7,0,1-0.1c0-0.3,0-0.5,0-0.8H156.4z"/>
						</g>
					</g>
				</g>
				<g>
					<g>
						<g>
							<path class="st13" d="M136,102.2c5.9,0.5,11.8,2,17.2,4.5c1.1,0.5,2.1,1,2.8,2c0.5,0.7,0.7,1.6,1,2.5
								c1.8,7.1,3.6,14.1,5.5,21.2c-2.1,0.3-2.3,0.7-4.4,0.7c-0.6,0-2.1-0.1-2.5-0.4c-0.6-0.4-0.7-1.3-0.8-2
								c-0.5-2.4-1.2-4.1-2.2-6.3c-0.7-1.5-1.4-2.9-2-4.5c-0.5-1.6-0.8-3.4-0.7-6.3c-3.1-1.3-7.5-0.6-10.9-0.5
								c-3.4,0.1-7.1-0.3-9.4-2.8c-1.8-1.9-2.3-4.6-2.7-7.2c3.6-0.8,7.3-1.7,10.9-2.5c0.2,0.5,0.4,1.1,0.5,1.6L136,102.2z"/>
						</g>
					</g>
				</g>
			</g>
			<g>
				<g>
					<g>
						<g>
							<path class="st13" d="M115.1,79.9c3.1-0.1,6.3,0,9.4,0.4c0.1-0.6,0.3-0.4,0.4-1c-3.1-1.1-6.3-0.8-9.6-0.8
								C115.4,79.5,115.2,78.9,115.1,79.9z"/>
						</g>
					</g>
				</g>
				<g>
					<path class="st14" d="M138,100.1c-0.3-0.4-0.7-0.7-1.1-1.1c-1.6-1.5-2.9-3.4-3.7-5.4c-0.8-2-1-4.2-1.6-6.2
						c-0.5-2.1-1.3-4.2-2.9-5.7c-1.3-1.2-3-1.9-4.7-2.3c-1.7-0.4-3.5-0.4-5.3-0.4c-1.2,0-2.4,0-3.5,0.4c-0.8,0.3-1.5,0.6-2.2,1.1
						c-0.9,0.7-0.8,1.4-1.3,2.4c-0.8,1.6-0.3,6.1,0.2,7.8c1.5,5.1,2.9,7.5,5.3,12.2c0.5,0.9,1,1.8,1.6,2.7c0.3,0.9,0.7,1.7,1,2.6
						c0.1,0.3,0.2,0.6,0.4,0.8c0.4,0.5,1.1,0.8,1.7,1c2,0.7,4.1,1.4,6.3,1.6c2.1,0.2,4.4,0,6.3-1.1c1.5-0.9,2.7-2.2,3.6-3.8
						c0.9-1.5,1.5-3.1,2.1-4.8C139.5,101.3,138.8,100.7,138,100.1z"/>
				</g>
				<g>
					<path class="st13" d="M127.3,94.9c-0.4-1.2-0.6-2.4-1.4-3.4c-1.1-1.3-3-1.7-4.1-3c-0.9-1.1-1.1-2.7-2.2-3.7
						c-1-1-2.5-1.1-3.9-1.2c-1.2-0.1-2.6-0.1-3.3,0.9c-0.4,0.6-0.4,1.3-0.4,1.9c0.1,4.4,1.6,8.8,4.1,12.5c1.4,2.1,3.2,4,4.1,6.4
						c0.3,1,0.5,2.1,1.1,2.9c0.7,0.9,1.8,1.5,2.9,1.8c2,0.6,4.1,0.8,6.1,0.6c1.9-0.2,4-1,4.7-2.8c0.6-1.5-0.1-3.2-1.1-4.4
						c-1-1.2-2.3-2.2-3.5-3.3C129.1,98.8,128,96.9,127.3,94.9z"/>
				</g>
				<g>
					<path class="st6" d="M138,100.1c-0.3-0.4-0.7-0.7-1.1-1.1c-1.6-1.5-2.9-3.4-3.7-5.4c-0.8-2-1-4.2-1.6-6.2
						c-0.5-2.1-1.3-4.2-2.9-5.7c-0.6-0.6-1.3-1-2.1-1.4c1.2,0.9,2.2,1.8,2.6,3.2c1.6,8,4.3,15.2,10.2,20.3c0.3-0.6,0.5-1.2,0.7-1.9
						C139.5,101.3,138.8,100.7,138,100.1z"/>
				</g>
				<g>
					<g>
						<g>
							<path class="st13" d="M122.1,84.9c0.9,3.2,3.8,5.7,7,6.1c0.7,0.1,1.5,0.1,2.1-0.4c0.8-0.7,0.5-2,0.1-3
								c-0.6-1.5-1.3-3-2.4-4.2c-1.1-1.2-2.7-2-4.3-2c-0.9,0-1.9,0.4-2.4,1.1C121.7,83.2,121.8,84.1,122.1,84.9z"/>
						</g>
					</g>
				</g>
				<g>
					<g>
						<g>
							<path class="st13" d="M137.5,105.8c0.2-0.8-0.1-1.7-0.7-2.5c-0.5-0.6-1-1-1.6-1.4c-0.1-0.1-0.3-0.2-0.4-0.3
								c-3.3-2.5-5.6-6.1-6.6-10.1l0-0.2c-0.1-0.5-0.3-1-0.6-1.5c-0.3-0.5-1-0.9-1.6-0.7l0.1,0.3c0.5-0.1,1,0.2,1.3,0.6
								c0.3,0.4,0.4,0.9,0.5,1.4l0,0.2c1,4.1,3.4,7.7,6.7,10.3c0.1,0.1,0.3,0.2,0.4,0.3c0.5,0.4,1.1,0.8,1.6,1.4
								c0.6,0.7,0.9,1.6,0.7,2.3L137.5,105.8z"/>
						</g>
					</g>
				</g>
			</g>
			<g>
				<g>
					<g>
						<g>
							<path class="st12" d="M142.4,86.8c0.5,1,0.4,2.2-0.1,3.1c-0.5,0.9-1.6,1.6-2.7,1.7c-1.6,0.1-3.1-0.9-4.3-2
								c-1.2-1.1-2.3-2.4-3.8-3c0-0.9-2.3-3.1-2-3.9c0.3-0.8,3.1-0.4,4-0.6c0.9-0.2,1.9,0.3,2.8,0.7c1.2,0.5,2.4,1.1,3.6,1.7
								C140.9,85.1,141.9,85.8,142.4,86.8z"/>
						</g>
					</g>
				</g>
				<g>
					<g>
						<g>
							<path class="st13" d="M140.5,87.7c-1.3-2.8-4.2-5.1-7.4-5.1c-0.5,0.3-0.9,0.9-1.1,1.5c-0.3,0.8-0.3,1.7-0.3,2.6
								c1.5,0.6,2.6,1.9,3.8,3c1.2,1.1,2.6,2.1,4.3,2c0.4,0,0.8-0.1,1.2-0.3C141.2,90.2,141,88.9,140.5,87.7z"/>
						</g>
					</g>
				</g>
				<g>
					<path class="st12" d="M141,86.4c-0.8-0.7-1.9-1.1-2.9-1.6c-1.2-0.5-2.4-1-3.6-1.5c0,2.5-0.8,4.6-2.1,6.4
						c0.2,0.1,0.4,0.1,0.5,0.2c1.2,0.4,2.2,1,3.4,1.4c1.2,0.4,2.4,0.7,3.6,0.4c1.2-0.3,2.3-1.2,2.5-2.5
						C142.5,88.2,141.9,87.1,141,86.4z"/>
				</g>
				<g>
					<path class="st11" d="M133.4,88c-0.3,0.6-0.7,1.2-1.1,1.7c0.2,0.1,0.4,0.1,0.5,0.2c1.2,0.4,2.2,1,3.4,1.4
						c1.2,0.4,2.4,0.7,3.6,0.4c0.8-0.2,1.5-0.7,2-1.4C139.1,90.5,136.1,89.5,133.4,88z"/>
				</g>
				<g>
					<g>
						<g>
							<g>
								<path class="st14" d="M135.3,83.3c-1.7-0.7-3.4-1.3-5.1-2c-1.2-0.5-2.5-1-3.8-1.1c-1.3-0.1-2.7,0.4-3.6,1.4
									c-0.9,1.2-0.8,2.9,0,4.2c0.8,1.3,2.1,2.1,3.4,2.7c2.1,0.9,4.4,1.2,6.6,1.9C134.4,88.5,135.3,86.1,135.3,83.3z"/>
							</g>
						</g>
					</g>
				</g>
			</g>
		</g>
		<g>
			<path class="st8" d="M110.7,112.1c0.4,0.8,0.8,1.5,1.5,2c0.3,0.2,0.5,0.3,0.8,0.5h21.1c0,0,0.1,0,0.1,0
				c0.4-0.1,11.4-0.1,11.8-0.3c0.4-0.2,0.6-0.6,0.6-1c0-0.7-11.5-1.1-12.1-1.5c-1.4-0.8-2.3-2.4-3.1-3.9c-2.9-5.6-5-11.7-6.2-17.9
				c-0.2-1.2-0.5-2.4-1.3-3.2c-0.9-0.8-2.2-0.9-3.3-0.9c-3.9,0-7.5-0.8-11.2,0.6c-0.8,4-1.5,9.7-1.4,13.8
				C108.1,104.3,108.9,108.5,110.7,112.1z"/>
		</g>
		<g>
			<path class="st13" d="M134.2,113.5c-2.6,0-3.2-0.5-4.8-3.1c-1.6-2.5-3.1-5.9-4.7-10.3c-0.5-1.5-1-3.5-1.5-5.4
				c-0.5-1.9-0.9-3.9-1.4-5.4c-0.5-1.5-1.1-2-2.6-2.6l0.1-0.3c1.5,0.6,2.2,1.2,2.8,2.8c0.5,1.5,1,3.5,1.5,5.4
				c0.5,1.9,0.9,3.9,1.4,5.4c1.5,4.4,3,7.8,4.6,10.2c1.7,2.6,2.1,3,5.2,2.9l0,0.3C134.6,113.5,134.4,113.5,134.2,113.5z"/>
		</g>
	</g>
	<g>
		<g>
			<g>
				<g>
					<path class="st15" d="M113.2,134.2c-1,0-1.8,0.8-1.8,1.8s0.8,1.8,1.8,1.8c1,0,1.8-0.8,1.8-1.8S114.2,134.2,113.2,134.2z"/>
				</g>
			</g>
			<g>
				<g>
					<path class="st15" d="M146.8,134.2c-1,0-1.8,0.8-1.8,1.8c0,1,0.8,1.8,1.8,1.8s1.8-0.8,1.8-1.8
						C148.6,135.1,147.8,134.2,146.8,134.2z"/>
				</g>
			</g>
			<g>
				<g>
					<path class="st15" d="M146.6,133.3c-2.2-0.2-8.6-0.7-11-1c-3-0.4-4.2-1.9-4.2-1.9H131v-10.2h-0.4v-5.9h-1.5v5.9h-0.4v10.2h-0.4
						c0,0-1.2,1.6-4.2,1.9c-2.5,0.3-8.8,0.8-11,1c-0.4,0-0.7,0.4-0.7,0.8v0.4l15.3-1.2c-0.3,0.2-0.6,0.5-0.9,0.7
						c-0.3,0.2-0.5,0.3-0.7,0.6c-0.1,0.1-0.2,0.2-0.2,0.4h-0.9v3.4h3v-3.4h-1c0-0.1,0-0.2,0-0.3c1.2-0.2,2.3-0.7,3.2-1.5l16.9,1.4
						v-0.4C147.4,133.7,147,133.3,146.6,133.3z"/>
				</g>
			</g>
		</g>
		<g>
			<path class="st15" d="M117.9,114.4c-0.1,0.1-0.1,0.3-0.1,0.5c0,0.5,0.4,0.9,0.9,0.9h22.7c0.5,0,0.9-0.4,0.9-0.9
				c0-0.2-0.1-0.4-0.1-0.5H117.9z"/>
		</g>
	</g>
	<g>
		<path class="st11" d="M124.2,72.1c0-0.1,0-0.2,0-0.2c0-0.2-0.1-0.4-0.1-0.7c0-0.2-0.1-0.5-0.3-0.5c-0.2-0.1-0.4,0.1-0.4,0.3
			s0,0.4,0.2,0.6c0,0.1,0.1,0.2,0,0.2c0,0-0.1,0-0.2,0.1c-0.1,0-0.2,0.1-0.2,0.2c0,0.1,0,0.2,0,0.4c0,0.2,0,0.4,0.1,0.6
			c0.1,0.2,0.2,0.4,0.4,0.5c0-0.2,0-0.4,0.2-0.4c0.1-0.1,0.3,0,0.4-0.1c0.1-0.2-0.2-0.4-0.1-0.7C124,72.3,124.1,72.2,124.2,72.1z"/>
	</g>
	<g>
		<path class="st11" d="M134.1,72.1c0.4,0.1,0.7,0.5,0.8,0.8c0.1,0.4,0.2,0.8,0.1,1.2c0.7-0.6,1.6-1,2.5-1.1c0-0.3,0-0.5-0.1-0.8
			c-0.1-0.2-0.2-0.5-0.5-0.6c-0.2-0.1-0.6-0.1-0.8-0.2c-0.1-0.1-0.2-0.2-0.4-0.2c-0.2-0.1-0.5,0.1-0.7,0.3S134.3,72,134.1,72.1z"/>
	</g>
</g>
<path class="st17" d="M299.6,140H0.4c-0.2,0-0.4-0.2-0.4-0.4l0,0c0-0.2,0.2-0.4,0.4-0.4h299.2c0.2,0,0.4,0.2,0.4,0.4l0,0
	C300,139.8,299.8,140,299.6,140z"/>
</svg>
