<?xml version="1.0" encoding="utf-8"?>
<!-- Generator: Adobe Illustrator 25.0.1, SVG Export Plug-In . SVG Version: 6.00 Build 0)  -->
<svg version="1.1" xmlns="http://www.w3.org/2000/svg" xmlns:xlink="http://www.w3.org/1999/xlink" x="0px" y="0px"
	 viewBox="0 0 500 500" style="enable-background:new 0 0 500 500;" xml:space="preserve">
<style type="text/css">
	.st0{fill:#EBEBEB;}
	.st1{fill:#E0E0E0;}
	.st2{fill:#F5F5F5;}
	.st3{fill:#E5E5E5;}
	.st4{fill:#407BFF;}
	.st5{opacity:0.6;fill:#FFFFFF;enable-background:new    ;}
	.st6{opacity:0.3;fill:#FFFFFF;}
	.st7{fill:#FFFFFF;}
	.st8{opacity:0.5;fill:#FFFFFF;}
	.st9{opacity:0.5;fill:#FFFFFF;enable-background:new    ;}
	.st10{opacity:0.4;fill:#FFFFFF;enable-background:new    ;}
	.st11{opacity:0.7;fill:#FFFFFF;enable-background:new    ;}
	.st12{opacity:0.2;enable-background:new    ;}
	.st13{fill:#263238;}
	.st14{opacity:0.2;fill:#FFFFFF;enable-background:new    ;}
	.st15{opacity:0.1;fill:#FFFFFF;enable-background:new    ;}
	.st16{opacity:0.2;fill:#FFFFFF;}
	.st17{fill:#EBB376;}
	.st18{opacity:0.8;fill:#FFFFFF;}
	.st19{fill:#D58745;}
	.st20{fill:none;stroke:#263238;stroke-width:0.5263;stroke-linecap:round;stroke-linejoin:round;stroke-miterlimit:10;}
</style>
<g id="Background_Complete">
	<g>
		<rect y="382.4" class="st0" width="500" height="0.2"/>
		<rect x="416.8" y="398.5" class="st0" width="33.1" height="0.2"/>
		<rect x="322.5" y="401.2" class="st0" width="8.7" height="0.2"/>
		<rect x="396.6" y="389.2" class="st0" width="19.2" height="0.2"/>
		<rect x="52.5" y="390.9" class="st0" width="43.2" height="0.2"/>
		<rect x="104.6" y="390.9" class="st0" width="6.3" height="0.2"/>
		<rect x="131.5" y="395.1" class="st0" width="93.7" height="0.2"/>
		<path class="st0" d="M237,337.8H43.9c-3.1,0-5.7-2.6-5.7-5.7V60.7c0-3.1,2.6-5.7,5.7-5.7H237c3.1,0,5.7,2.6,5.7,5.7v271.4
			C242.7,335.2,240.2,337.8,237,337.8z M43.9,55.2c-3,0-5.5,2.4-5.5,5.5v271.4c0,3,2.4,5.5,5.5,5.5H237c3,0,5.5-2.4,5.5-5.5V60.7
			c0-3-2.4-5.5-5.5-5.5H43.9z"/>
		<path class="st0" d="M453.3,337.8H260.2c-3.1,0-5.7-2.6-5.7-5.7V60.7c0-3.1,2.6-5.7,5.7-5.7h193.1c3.1,0,5.7,2.6,5.7,5.7v271.4
			C459,335.2,456.5,337.8,453.3,337.8z M260.2,55.2c-3,0-5.5,2.4-5.5,5.5v271.4c0,3,2.4,5.5,5.5,5.5h193.1c3,0,5.5-2.4,5.5-5.5V60.7
			c0-3-2.4-5.5-5.5-5.5H260.2z"/>
	</g>
	<g>
		<g>
			<rect x="316.8" y="138.6" class="st1" width="130.4" height="6.7"/>
			<rect x="322.8" y="113.9" class="st0" width="5.7" height="24.7"/>
			<rect x="350.6" y="113.9" class="st0" width="5.7" height="24.7"/>
			
				<rect x="384.3" y="113.6" transform="matrix(0.9855 -0.1698 0.1698 0.9855 -15.7674 67.5832)" class="st0" width="5.7" height="24.7"/>
			<rect x="329.9" y="117.2" class="st0" width="5.7" height="21.4"/>
			<rect x="343.1" y="117.2" class="st0" width="5.7" height="21.4"/>
			<rect x="376.5" y="117.2" class="st0" width="5.7" height="21.4"/>
			
				<rect x="360.5" y="116.8" transform="matrix(0.9762 -0.2169 0.2169 0.9762 -19.0079 81.8563)" class="st0" width="5.7" height="21.4"/>
			<rect x="337.8" y="112.7" class="st0" width="2.9" height="25.9"/>
			<rect x="371.9" y="112.7" class="st0" width="2.9" height="25.9"/>
			<rect x="406.7" y="119.1" class="st0" width="28" height="19.3"/>
		</g>
		<g>
			
				<rect x="316.8" y="188.6" transform="matrix(-1 -1.224647e-16 1.224647e-16 -1 764.0399 383.9934)" class="st1" width="130.4" height="6.7"/>
			
				<rect x="435.5" y="163.9" transform="matrix(-1 -1.224647e-16 1.224647e-16 -1 876.7242 352.5877)" class="st0" width="5.7" height="24.7"/>
			
				<rect x="407.7" y="163.9" transform="matrix(-1 -1.224647e-16 1.224647e-16 -1 821.1509 352.5877)" class="st0" width="5.7" height="24.7"/>
			
				<rect x="374" y="163.6" transform="matrix(-0.9855 -0.1698 0.1698 -0.9855 718.4167 413.4259)" class="st0" width="5.7" height="24.7"/>
			
				<rect x="428.4" y="167.2" transform="matrix(-1 -1.224647e-16 1.224647e-16 -1 862.4832 355.8432)" class="st0" width="5.7" height="21.4"/>
			
				<rect x="415.2" y="167.2" transform="matrix(-1 -1.224647e-16 1.224647e-16 -1 836.0665 355.8432)" class="st0" width="5.7" height="21.4"/>
			
				<rect x="381.8" y="167.2" transform="matrix(-1 -1.224647e-16 1.224647e-16 -1 769.3875 355.8432)" class="st0" width="5.7" height="21.4"/>
			
				<rect x="397.8" y="166.8" transform="matrix(-0.9762 -0.2169 0.2169 -0.9762 753.2187 437.7754)" class="st0" width="5.7" height="21.4"/>
			
				<rect x="423.4" y="162.7" transform="matrix(-1 -1.224647e-16 1.224647e-16 -1 849.6718 351.3612)" class="st0" width="2.9" height="25.9"/>
			
				<rect x="389.2" y="162.7" transform="matrix(-1 -1.224647e-16 1.224647e-16 -1 781.311 351.3612)" class="st0" width="2.9" height="25.9"/>
			
				<rect x="329.3" y="169.1" transform="matrix(-1 -1.224647e-16 1.224647e-16 -1 686.6338 357.5175)" class="st0" width="28" height="19.3"/>
		</g>
		<g>
			<polygon class="st1" points="53,266 53,383 59,383 59,278 165,278 165,383 172,383 172,266 			"/>
			<polygon class="st2" points="119,266 119,383 125,383 125,278 231,278 231,383 238,383 238,266 			"/>
		</g>
		<g>
			<g>
				<path class="st1" d="M156.9,222.4c-1.3-2.2-3.5-0.3-3.5-0.3c0.3-4.2-3.6-7.1-3.6-7.1s4.5,0,5.1-4.3c0.6-4.3-1.6-2.3-3.6-2.3
					c-2.1,0-4.2,6-1.5,9.4c2.7,3.4,2,9.2-4.3,14.8c-1.5,1.4-2.6,3.2-3.3,5.1c0.5-5.1,0.7-12.3-0.8-17.2c-2.6-8.2,2.3-10.4,3.7-14.5
					c1.4-4.1-3.7-7.6-3.7-7.6s4.8-2.2,2.5-4.7c-2.4-2.5-7.2-2.2-7.2,1.1c0,3.3,3.3,4.6,3.3,4.6s3.8,3.9,3.8,6c0,2-3.8,6.5-3.8,6.5
					s1.7-3.8-1.7-3.9c-3.5-0.2-4.6,4.4-3.1,6.4c1.4,2,3.8,0.3,3.8,0.3s0.3,4.4,1.1,7.1c0.4,1.2,0.2,5.8-0.1,10.6
					c-0.7-1.7-1.7-3.3-3.1-4.5c-6.3-5.6-7-11.4-4.3-14.8c2.7-3.4,0.6-9.4-1.5-9.4c-2.1,0-4.3-2-3.6,2.3c0.6,4.3,5.1,4.3,5.1,4.3
					s-3.9,2.9-3.6,7.1c0,0-2.2-1.9-3.5,0.3c-2.4,3.9,3.1,6.4,4.1,4.4c0,0,11.7,8.3,8.9,20.3l0.7,1c-0.1,1-0.1,1.5-0.1,1.5l0.9-0.4
					l1,1.5c-0.1,3,0.3,5.2,0.3,5.2l2.8-4.1c-2.8-12,8.9-20.3,8.9-20.3C153.7,228.8,159.3,226.3,156.9,222.4z"/>
			</g>
			<polygon class="st0" points="149.8,266 146,244.3 147.1,238 135.1,238 136.2,244.3 132.4,266 			"/>
		</g>
	</g>
</g>
<g id="Shadow">
	<ellipse id="_x3C_Path_x3E__359_" class="st3" cx="250" cy="416.2" rx="193.9" ry="11.3"/>
</g>
<g id="Files">
	<g>
		<g>
			
				<rect x="257" y="96.2" transform="matrix(0.8799 0.4752 -0.4752 0.8799 89.5726 -116.1227)" class="st4" width="35" height="45.7"/>
			
				<rect x="257" y="96.2" transform="matrix(0.8799 0.4752 -0.4752 0.8799 89.5726 -116.1227)" class="st5" width="35" height="45.7"/>
		</g>
		<g>
			
				<rect x="269.4" y="104.5" transform="matrix(0.8799 0.4752 -0.4752 0.8799 84.1085 -121.1417)" class="st4" width="24.6" height="2.5"/>
			
				<rect x="267.3" y="108.3" transform="matrix(0.8799 0.4752 -0.4752 0.8799 85.6699 -119.7078)" class="st4" width="24.6" height="2.5"/>
			
				<rect x="265.3" y="112.2" transform="matrix(0.8799 0.4752 -0.4752 0.8799 87.2312 -118.274)" class="st4" width="24.6" height="2.5"/>
			
				<rect x="263.2" y="116" transform="matrix(0.8799 0.4752 -0.4752 0.8799 88.7926 -116.8402)" class="st4" width="24.6" height="2.5"/>
			
				<rect x="261.1" y="119.8" transform="matrix(0.8799 0.4752 -0.4752 0.8799 90.354 -115.4063)" class="st4" width="24.6" height="2.5"/>
			
				<rect x="259.1" y="123.6" transform="matrix(0.8799 0.4752 -0.4752 0.8799 91.9153 -113.9725)" class="st4" width="24.6" height="2.5"/>
			
				<rect x="257" y="127.4" transform="matrix(0.8799 0.4752 -0.4752 0.8799 93.4767 -112.5386)" class="st4" width="24.6" height="2.5"/>
			
				<rect x="255.5" y="129.1" transform="matrix(0.8799 0.4752 -0.4752 0.8799 93.6037 -109.5428)" class="st4" width="15.9" height="2.5"/>
		</g>
	</g>
	<g>
		<path class="st4" d="M218.9,107.6c-12.1-1.2-21-12.1-19.8-24.3c1.2-12.1,12.1-21,24.3-19.8c12.1,1.2,21,12.1,19.8,24.3
			C241.9,100,231,108.8,218.9,107.6z"/>
		
			<ellipse transform="matrix(0.9971 -7.664888e-02 7.664888e-02 0.9971 -5.907 17.2024)" class="st6" cx="221.1" cy="85.6" rx="20.2" ry="20.2"/>
		<path class="st7" d="M228,79c-2.3-1.7-5.6-7.3-5.6-7.3l-2.1,20.4c0-0.5-1.8-0.9-3-1.1c-2.9-0.3-5.4,1.1-5.6,3.1
			c-0.2,2,2,3.8,5,4.1c2.9,0.3,5.4-1.1,5.6-3.1c0-0.3-0.2-0.6-0.2-0.9l1.6-15.7c0,0,1.6,2,4.3,3.3c2.2,1,3,4.1,3,4.1
			S231.6,81.6,228,79z"/>
		
			<ellipse transform="matrix(0.8877 -0.4604 0.4604 0.8877 -12.678 109.8185)" class="st8" cx="218.8" cy="80.9" rx="15.9" ry="13.2"/>
	</g>
	<g>
		
			<rect x="131.6" y="58.7" transform="matrix(0.9967 -8.099688e-02 8.099688e-02 0.9967 -5.6906 12.8415)" class="st4" width="47.7" height="35.8"/>
		<g>
			
				<rect x="134" y="61" transform="matrix(0.9967 -8.099663e-02 8.099663e-02 0.9967 -5.685 12.8459)" class="st4" width="43" height="31"/>
			
				<rect x="134" y="61" transform="matrix(0.9967 -8.099663e-02 8.099663e-02 0.9967 -5.685 12.8459)" class="st8" width="43" height="31"/>
			<polygon class="st4" points="177.8,86 178.2,90.2 135.3,93.7 134.1,78.7 142.3,70.2 156.5,81.9 163,76.3 			"/>
			<polygon class="st6" points="177.8,86 178.2,90.2 135.3,93.7 134.1,78.7 142.3,70.2 156.5,81.9 163,76.3 			"/>
			<g>
				<path class="st4" d="M169.2,68c0.2,1.9-1.3,3.6-3.2,3.7c-1.9,0.2-3.6-1.3-3.7-3.2c-0.2-1.9,1.3-3.6,3.2-3.7
					C167.4,64.7,169,66.1,169.2,68z"/>
				<path class="st6" d="M169.2,68c0.2,1.9-1.3,3.6-3.2,3.7c-1.9,0.2-3.6-1.3-3.7-3.2c-0.2-1.9,1.3-3.6,3.2-3.7
					C167.4,64.7,169,66.1,169.2,68z"/>
			</g>
		</g>
	</g>
	<g>
		<path class="st4" d="M86.4,98.9l-1.8-1.1c-0.7-0.4-1.5-0.5-2.2-0.2l-8.2,3.4c-0.7,0.3-1.2,0.9-1.3,1.7l-0.3,2
			c-0.1,0.7-0.6,1.4-1.3,1.7l-4.9,2c-1.2,0.5-1.7,1.8-1.1,3l13,26.6c0.6,1.1,2,1.7,3.1,1.2l38.7-16.2c1.2-0.5,1.7-1.8,1.1-3
			l-13-26.6c-0.6-1.1-2-1.7-3.1-1.2l-16.5,6.9C87.9,99.4,87.1,99.3,86.4,98.9z"/>
		<path class="st4" d="M110,93.2L74.6,108c-1.5,0.6-2.3,2.4-1.8,3.9l7.8,24.5c0.5,1.5,2.1,2.3,3.5,1.6l35.4-14.8
			c1.5-0.6,2.3-2.4,1.8-3.9l-7.8-24.5C113.1,93.3,111.5,92.5,110,93.2z"/>
		<path class="st8" d="M110,93.2L74.6,108c-1.5,0.6-2.3,2.4-1.8,3.9l7.8,24.5c0.5,1.5,2.1,2.3,3.5,1.6l35.4-14.8
			c1.5-0.6,2.3-2.4,1.8-3.9l-7.8-24.5C113.1,93.3,111.5,92.5,110,93.2z"/>
	</g>
</g>
<g id="Cloud">
	<g>
		<path class="st4" d="M238.5,152c0.4-2,0.7-4.1,0.7-6.3c0-16.5-13.4-29.8-29.8-29.8c-1.9,0-3.7,0.2-5.5,0.5c-0.8-0.1-1.5,0-2.3-0.1
			c-5.5-12.1-17.8-20.3-32-20.3c-1.9,0-9.1,0-11,0c-19.4,0-35.2,15.5-35.2,34.9c0,0.3,0,0.4,0,0.6c-13.9,2.5-24.3,14.4-24.3,29
			c0,16.4,13.3,29.5,29.8,29.5c2.3,0,6.2,0,11,0c25.3,0,78,0,86,0c5.3,0,9.2,0,11,0c10.6,0,19.2-8.4,19.2-19
			C256,160.9,248.3,152.9,238.5,152z"/>
		<path class="st9" d="M238.5,152c0.4-2,0.7-4.1,0.7-6.3c0-16.5-13.4-29.8-29.8-29.8c-1.9,0-3.7,0.2-5.5,0.5c-0.8-0.1-1.5,0-2.3-0.1
			c-5.5-12.1-17.8-20.3-32-20.3c-1.9,0-9.1,0-11,0c-19.4,0-35.2,15.5-35.2,34.9c0,0.3,0,0.4,0,0.6c-13.9,2.5-24.3,14.4-24.3,29
			c0,16.4,13.3,29.5,29.8,29.5c2.3,0,6.2,0,11,0c25.3,0,78,0,86,0c5.3,0,9.2,0,11,0c10.6,0,19.2-8.4,19.2-19
			C256,160.9,248.3,152.9,238.5,152z"/>
		<path class="st10" d="M238.5,152c0.4-2,0.7-4.1,0.7-6.3c0-16.5-13.4-29.8-29.8-29.8c-1.9,0-3.7,0.2-5.5,0.5
			c-0.8-0.1-1.5,0-2.3-0.1c-5.5-12.1-17.8-20.3-32-20.3c-1.9,0,1.9,0,0,0c-19.4,0-35.2,15.5-35.2,34.9c0,0.3,0,0.4,0,0.6
			c-13.9,2.5-24.3,14.4-24.3,29c0,16.4,13.3,29.5,29.8,29.5c2.3,0,6.2,0,11,0c25.3,0,67,0,75,0c5.3,0,9.2,0,11,0
			c10.6,0,19.2-8.4,19.2-19C256,160.9,248.3,152.9,238.5,152z"/>
	</g>
	<g>
		<g>
			<path class="st4" d="M267.7,239H234c-27.6,0-50-22.4-50-50v-10h-10v10c0,33.1,26.9,60,60,60h33.7V239z"/>
		</g>
		<g>
			<polygon class="st4" points="178.9,172.3 170.2,181 187.5,181 			"/>
		</g>
	</g>
</g>
<g id="Stuff">
	<g>
		<g>
			<g>
				<path class="st4" d="M104.3,367.3L98.3,349c0,0,8.8-8.3,21.7-5.8l5,17.2L104.3,367.3z"/>
				<path class="st11" d="M104.3,367.3L98.3,349c0,0,8.8-8.3,21.7-5.8l5,17.2L104.3,367.3z"/>
			</g>
			<g class="st12">
				<path d="M101.1,353.3c0,0,0.8-1,2.4-2.2c0.8-0.6,1.7-1.2,2.8-1.8c0.5-0.3,1.1-0.6,1.7-0.8c0.6-0.2,1.2-0.5,1.8-0.7
					c0.6-0.2,1.2-0.4,1.9-0.5c0.3-0.1,0.6-0.1,0.9-0.2c0.3,0,0.6-0.1,0.9-0.1c0.3,0,0.6-0.1,0.9-0.1c0.3,0,0.6,0,0.9,0
					c0.6,0,1.1,0,1.6,0.1c0.5,0,0.9,0.1,1.3,0.2c0.4,0.1,0.7,0.2,1,0.2c0.5,0.1,0.9,0.2,0.9,0.2s-0.3,0-0.9,0c-0.3,0-0.6,0-1-0.1
					c-0.4,0-0.8,0-1.3,0c-0.5,0-1,0.1-1.5,0.1c-0.5,0-1.1,0.1-1.7,0.2c-0.3,0.1-0.6,0.1-0.9,0.2c-0.3,0.1-0.6,0.2-0.9,0.2
					c-0.6,0.1-1.2,0.3-1.8,0.5c-0.6,0.2-1.2,0.4-1.8,0.6c-0.6,0.2-1.1,0.5-1.7,0.7c-0.5,0.3-1,0.5-1.5,0.8c-0.5,0.3-0.9,0.5-1.3,0.7
					c-0.8,0.5-1.5,0.9-2,1.2C101.4,353.2,101.1,353.3,101.1,353.3z"/>
				<path d="M101.7,355c0,0,0.2-0.2,0.7-0.5c0.4-0.3,1.1-0.8,1.9-1.2c0.8-0.5,1.7-1,2.8-1.5c1-0.5,2.2-0.9,3.3-1.4
					c0.6-0.2,1.2-0.4,1.8-0.5c0.6-0.1,1.2-0.3,1.7-0.4c0.6-0.1,1.1-0.2,1.6-0.3c0.5-0.1,1-0.1,1.5-0.1c0.9,0,1.7,0,2.2,0.1
					c0.5,0.1,0.8,0.1,0.8,0.1s-0.3,0-0.8,0.1c-0.3,0-0.6,0-0.9,0.1c-0.4,0.1-0.8,0.1-1.2,0.2c-0.4,0.1-0.9,0.2-1.4,0.3
					c-0.5,0.1-1,0.3-1.6,0.4c-0.5,0.1-1.1,0.3-1.7,0.5c-0.6,0.2-1.1,0.4-1.7,0.5c-2.3,0.8-4.5,1.7-6.2,2.4c-0.8,0.4-1.5,0.6-2,0.9
					C101.9,354.9,101.7,355,101.7,355z"/>
				<path d="M103.1,358.4c0,0,0.2-0.2,0.6-0.5c0.4-0.3,1-0.8,1.7-1.3c0.7-0.5,1.6-1.1,2.6-1.6c1-0.5,2.1-1,3.2-1.5
					c1.1-0.4,2.3-0.8,3.4-1c0.6-0.1,1.1-0.2,1.6-0.2c0.5,0,1-0.1,1.5-0.1c0.5,0,0.9,0,1.2,0c0.4,0,0.7,0.1,0.9,0.1
					c0.5,0.1,0.8,0.1,0.8,0.1s-0.3,0-0.8,0.1c-0.3,0-0.6,0-0.9,0.1c-0.4,0.1-0.8,0.1-1.2,0.2c-0.4,0.1-0.9,0.2-1.4,0.3
					c-0.5,0.1-1,0.3-1.5,0.4c-0.5,0.1-1.1,0.3-1.6,0.5c-0.5,0.2-1.1,0.4-1.6,0.6c-0.5,0.2-1.1,0.4-1.6,0.6c-0.5,0.2-1.1,0.4-1.6,0.7
					c-1,0.4-1.9,0.9-2.7,1.3c-0.8,0.4-1.5,0.7-1.9,1C103.3,358.3,103.1,358.4,103.1,358.4z"/>
				<path d="M103.9,360.8c0,0,0.8-0.9,2.3-1.9c0.7-0.5,1.6-1,2.6-1.5c0.5-0.2,1-0.5,1.5-0.7c0.5-0.2,1.1-0.4,1.7-0.6
					c0.6-0.2,1.1-0.3,1.7-0.4c0.6-0.1,1.1-0.2,1.7-0.3c0.6-0.1,1.1-0.1,1.6-0.1c0.5,0,1,0,1.4,0.1c0.4,0,0.8,0.1,1.2,0.2
					c0.3,0.1,0.7,0.2,0.9,0.2c0.5,0.1,0.8,0.2,0.8,0.2s-0.3,0-0.8,0c-0.3,0-0.6,0-0.9,0c-0.4,0-0.7,0-1.2,0c-0.4,0-0.9,0.1-1.4,0.1
					c-0.5,0-1,0.1-1.5,0.2c-0.5,0.1-1.1,0.2-1.6,0.3c-0.5,0.1-1.1,0.3-1.6,0.4c-1.1,0.3-2.1,0.7-3.1,1.1c-1,0.4-1.9,0.8-2.7,1.2
					c-0.8,0.4-1.4,0.7-1.9,1C104.2,360.6,103.9,360.8,103.9,360.8z"/>
				<path d="M105.1,363.9c0,0,0.2-0.2,0.6-0.5c0.4-0.3,0.9-0.8,1.7-1.3c0.7-0.5,1.6-1.1,2.5-1.6c0.5-0.3,1-0.5,1.5-0.8
					c0.5-0.3,1.1-0.5,1.6-0.7c0.6-0.2,1.1-0.4,1.7-0.6c0.6-0.1,1.1-0.3,1.7-0.4c0.5-0.1,1.1-0.2,1.6-0.2c0.5,0,1-0.1,1.4-0.1
					c0.4,0,0.8,0.1,1.2,0.1c0.4,0,0.7,0.1,0.9,0.2c0.5,0.1,0.8,0.2,0.8,0.2s-0.3,0-0.8,0c-0.3,0-0.6,0-0.9,0c-0.3,0-0.7,0.1-1.2,0.1
					c-0.4,0-0.9,0.2-1.4,0.2c-0.5,0.1-1,0.2-1.5,0.3c-0.5,0.1-1,0.3-1.6,0.5c-0.5,0.2-1.1,0.4-1.6,0.6c-0.5,0.2-1.1,0.4-1.6,0.6
					c-0.5,0.2-1,0.4-1.5,0.7c-1,0.4-1.9,0.9-2.6,1.3c-0.8,0.4-1.4,0.7-1.8,1C105.3,363.7,105.1,363.9,105.1,363.9z"/>
			</g>
			<path class="st4" d="M101.7,367.5l12.3-9.3c0.3-0.2,0.7-0.3,1.1-0.3l14.1,2.7c1.2,0.2,1.5,1.9,0.4,2.5l-11.6,6.3
				c-0.2,0.1-0.4,0.2-0.6,0.2l-14.8,0.4C101.2,369.9,100.6,368.3,101.7,367.5z"/>
		</g>
		<g>
			<path class="st4" d="M123.9,373c0,0,18.9-45.8,22.3-48.7c3.3-2.8,24.5,9.5,24.5,9.5l-18.8,48.4L123.9,373z"/>
			<path class="st12" d="M129.3,372.7c0,0,18.1-43.8,20.8-45.7s18.2,6.2,18.2,6.2s-16.1-9.8-21.1-8.2c-4.9,1.7-21.8,46.7-21.8,46.7
				L129.3,372.7z"/>
		</g>
		<g>
			<rect x="87.1" y="368.5" class="st13" width="80.4" height="47.5"/>
			<rect x="87.1" y="368.5" class="st14" width="80.4" height="47.5"/>
			<rect x="117.6" y="368.5" class="st10" width="49.9" height="47.5"/>
			<polygon class="st13" points="117.6,369 136.5,353.7 178.8,356.6 167.5,369 			"/>
			<polygon class="st13" points="117.6,369 103.2,352.5 73,355.8 87.1,368.5 			"/>
			<polygon class="st15" points="117.6,369 103.2,352.5 73,355.8 87.1,368.5 			"/>
			<polygon class="st10" points="117.6,369 136.5,353.7 178.8,356.6 167.5,369 			"/>
		</g>
		<g>
			<path class="st4" d="M152.3,390.4c-7.1,0-12.8,5.7-12.8,12.8c0,7.1,5.7,12.8,12.8,12.8c7.1,0,12.8-5.7,12.8-12.8
				C165,396.1,159.3,390.4,152.3,390.4z M152.3,408.2c-2.8,0-5.1-2.3-5.1-5.1c0-2.8,2.3-5.1,5.1-5.1c2.8,0,5.1,2.3,5.1,5.1
				C157.4,406,155.1,408.2,152.3,408.2z"/>
			<path class="st11" d="M163.8,397.6c-0.2-0.5-0.5-0.9-0.8-1.4c-0.4-0.6-0.8-1.1-1.3-1.7c-2.1-2.3-5.1-3.9-8.5-4.1
				c-0.3,0-0.7-0.1-1-0.1c-7.1,0-12.8,5.7-12.8,12.8c0,1.1,0.1,2.1,0.4,3.1c0.1,0.5,0.3,1,0.5,1.4c0.3,0.7,0.6,1.4,1,2
				c2.1,3.4,5.7,5.8,9.8,6.1c0.4,0,0.7,0.1,1.1,0.1c7.1,0,12.8-5.7,12.8-12.8C165.1,401.1,164.6,399.3,163.8,397.6z M152.3,408.2
				c-0.2,0-0.3,0-0.5,0c-1.9-0.2-3.5-1.4-4.2-3.1c-0.1-0.3-0.2-0.6-0.3-0.9c0-0.2-0.1-0.4-0.1-0.6c0-0.1,0-0.3,0-0.4
				c0-2.8,2.3-5.1,5.1-5.1c0.1,0,0.2,0,0.4,0c1.1,0.1,2.1,0.5,2.9,1.1c0.2,0.2,0.4,0.4,0.6,0.6c0.1,0.2,0.3,0.3,0.4,0.5
				c0.6,0.8,0.9,1.8,0.9,2.9C157.4,406,155.1,408.2,152.3,408.2z"/>
			<path class="st16" d="M151.8,408.2l-0.6,7.7c-4.2-0.4-7.8-2.7-9.8-6.1l6.2-4.6C148.3,406.8,149.9,408,151.8,408.2z"/>
			<path class="st16" d="M161.7,394.5l-6.2,4.6c-0.8-0.6-1.8-1-2.9-1.1l0.6-7.6C156.6,390.6,159.6,392.2,161.7,394.5z"/>
			<path class="st16" d="M147.3,404.2l-6.9,3.5c-0.2-0.5-0.3-0.9-0.5-1.4l7.3-2.6C147.2,403.8,147.2,404,147.3,404.2z"/>
			<path class="st16" d="M163.8,397.6l-7.3,2.6c-0.1-0.2-0.2-0.3-0.4-0.5l6.9-3.5C163.3,396.7,163.6,397.1,163.8,397.6z"/>
		</g>
		<g>
			<path class="st4" d="M161.6,393.9c-7.1,0-10.8,4.9-8.4,11c2.4,6.1,10.1,11,17.1,11c7.1,0,10.8-4.9,8.4-11
				C176.3,398.8,168.7,393.9,161.6,393.9z M167.7,409.3c-2.8,0-5.9-2-6.8-4.4c-1-2.4,0.6-4.4,3.4-4.4c2.8,0,5.9,2,6.8,4.4
				C172,407.3,170.5,409.3,167.7,409.3z"/>
			<path class="st15" d="M175.6,400.1c-0.4-0.4-0.8-0.8-1.2-1.2c-0.6-0.5-1.2-1-1.8-1.4c-2.9-2-6.4-3.4-9.9-3.6c-0.3,0-0.7,0-1,0
				c-7.1,0-10.8,4.9-8.4,11c0.4,0.9,0.8,1.8,1.4,2.7c0.3,0.4,0.6,0.8,0.9,1.2c0.5,0.6,1.1,1.2,1.7,1.7c3.2,2.9,7.6,5,11.9,5.3
				c0.4,0,0.8,0,1.1,0c7.1,0,10.8-4.9,8.4-11C178,403.2,177,401.6,175.6,400.1z M167.7,409.3c-0.2,0-0.3,0-0.5,0
				c-2-0.1-4-1.2-5.3-2.7c-0.2-0.2-0.4-0.5-0.6-0.8c-0.1-0.2-0.2-0.3-0.3-0.5c-0.1-0.1-0.1-0.3-0.2-0.4c-1-2.4,0.5-4.4,3.4-4.4
				c0.1,0,0.2,0,0.4,0c1.1,0.1,2.2,0.4,3.3,1c0.3,0.1,0.5,0.3,0.7,0.5c0.2,0.1,0.4,0.3,0.6,0.4c0.9,0.7,1.5,1.6,1.9,2.5
				C172,407.3,170.5,409.3,167.7,409.3z"/>
			<path class="st16" d="M167.2,409.3l2,6.6c-4.3-0.3-8.7-2.4-11.9-5.3l4.7-4C163.2,408,165.2,409.1,167.2,409.3z"/>
			<path class="st16" d="M172.5,397.5l-4.7,4c-1-0.6-2.1-0.9-3.3-1l-2-6.6C166,394.2,169.6,395.5,172.5,397.5z"/>
			<path class="st16" d="M161.3,405.8l-5.7,3c-0.3-0.4-0.7-0.8-0.9-1.2l6.4-2.3C161.1,405.5,161.2,405.6,161.3,405.8z"/>
			<path class="st16" d="M175.6,400.1l-6.4,2.3c-0.2-0.2-0.4-0.3-0.6-0.4l5.8-3C174.8,399.3,175.2,399.7,175.6,400.1z"/>
		</g>
	</g>
</g>
<g id="Chair">
	<g>
		<polygon class="st4" points="372.4,330 372.8,345.6 374.4,416 379.8,416 381.4,345.6 381.8,330 		"/>
		<polygon class="st10" points="372.4,330 372.8,345.6 374.4,416 379.8,416 381.4,345.6 381.8,330 		"/>
		<polygon class="st12" points="372.4,330 372.8,346 381.4,346 381.8,330 		"/>
		<g>
			<g>
				<polygon class="st4" points="343,415.8 348,331.1 356.2,331.1 349.2,415.8 				"/>
				<polygon class="st9" points="349.2,415.8 343,415.8 347.6,338.7 348,331 356.2,331 355.6,338.7 				"/>
				<polygon class="st12" points="356.2,331 355.6,339 347.6,339 348,331 				"/>
			</g>
			<g>
				<polygon class="st4" points="405,415.8 398,331.1 406.2,331.1 411.2,415.8 				"/>
				<polygon class="st9" points="405,415.8 398.7,338.7 398,331 406.2,331 406.6,338.7 411.2,415.8 				"/>
				<polygon class="st12" points="398,331 398.7,339 406.6,339 406.2,331 				"/>
			</g>
		</g>
		<path class="st4" d="M348.6,322.3h56.9c2.8,0,5,2.2,5,5v6.7h-66.9v-6.7C343.6,324.6,345.9,322.3,348.6,322.3z"/>
		<g>
			<path class="st4" d="M342.5,328.2h69.3c1.1,0,2,0.9,2,2v1.8c0,1.1-0.9,2-2,2h-69.3c-1.1,0-2-0.9-2-2v-1.8
				C340.4,329.1,341.3,328.2,342.5,328.2z"/>
			<path class="st5" d="M342.5,328.2h69.3c1.1,0,2,0.9,2,2v1.8c0,1.1-0.9,2-2,2h-69.3c-1.1,0-2-0.9-2-2v-1.8
				C340.4,329.1,341.3,328.2,342.5,328.2z"/>
		</g>
	</g>
</g>
<g id="Character">
	<g id="_x3C_Group_x3E__12_">
		<path class="st13" d="M353.1,227.5c0,0-0.3,0.8-0.8,2c-0.5,1.3-1.3,3.1-2.2,5.2c-2.3,5-5.6,11.4-9.1,14.8c-1,1-2.1,1.8-3.1,2.2
			c-3.7,1.4-13.1,1.7-21.4,1.6c-8.2-0.1-15.5-0.5-15.5-0.5v-6.3l27.4-7.3c0,0,14.4-26.1,23-29.9L353.1,227.5z"/>
		<path class="st12" d="M352.3,229.5c-0.5,1.3-1.3,3.1-2.2,5.2c-2.3,5-5.6,11.4-9.1,14.8c-3.5-13.1,9.6-25.5,9.6-25.5L352.3,229.5z"
			/>
		<polygon class="st17" points="348.8,408.8 340.8,407.7 339.7,388.8 347.6,389.9 		"/>
		<polygon class="st12" points="347.6,389.9 339.7,388.8 340.3,399.6 348.3,400.3 		"/>
		<path class="st4" d="M348.4,297.5l1.9-12.2l44.7-2.7c0,0,4.7,25.3,1.1,32.1c-6.5,12.1-41.6,6-51.9,7.2c6.1,25.1,5.5,74.2,5.5,74.2
			l-14.7,1.1c0,0-11.3-52.9-13.6-78C320,302.2,334.1,302.6,348.4,297.5z"/>
		<polygon class="st4" points="351.5,396.7 333.9,397.9 332.4,390.3 351.7,389.4 		"/>
		<polygon class="st17" points="330.4,401.7 322.4,402.3 317.3,384 325.3,383.4 		"/>
		<g>
			<path class="st4" d="M321.3,402.6c0,0-0.1,0-0.1,0c0,0-0.1,0-0.1,0s0,0,0,0c0,0,0.1,0,0.1,0c0-0.1-0.4-2.4-1.4-2.9
				c-0.3-0.1-0.5-0.1-0.8,0c-0.3,0.1-0.5,0.4-0.5,0.7c0,0.5,0.6,1.1,1.2,1.6c-0.8-0.2-1.8-0.3-2.2,0.1c-0.2,0.1-0.3,0.4-0.3,0.6
				c0,0.4,0.2,0.8,0.5,0.9c0.5,0.2,1.1,0.2,1.6,0c0.7-0.2,1.3-0.5,2-0.8c0,0,0,0,0.1,0C321.2,402.7,321.2,402.7,321.3,402.6
				C321.3,402.6,321.3,402.6,321.3,402.6z M318.9,400.3c0-0.1,0-0.3,0.3-0.4l0.1,0c0.1,0,0.3,0,0.4,0.1c0.6,0.3,1,1.5,1.2,2.3
				c-0.1,0-0.1,0-0.2-0.1C319.9,401.8,318.9,400.9,318.9,400.3z M317.8,403.3c-0.2-0.1-0.3-0.4-0.3-0.6c0-0.1,0-0.2,0.1-0.3
				c0.5-0.3,1.9-0.1,3,0.3C319.3,403.3,318.3,403.5,317.8,403.3z"/>
		</g>
		<polygon class="st12" points="325.3,383.4 317.3,384 320.2,394.5 328.1,393.5 		"/>
		<path class="st4" d="M314.6,393.2l14.1-4.1c0,0-8.4-47.6-17-64.1c0.6-0.2,1.5-0.5,2.5-0.8c1.9-0.6,4.4-1.3,7.4-2.1
			c20.5-5.7,62.1-16.4,62.1-16.4l-19-17.7c0,0-75.7,11.5-77.2,31.5C286.8,329,314.6,393.2,314.6,393.2z"/>
		<polygon class="st4" points="330.6,389.3 313.6,394.2 310.5,387.1 329.3,382.2 		"/>
		<path class="st12" d="M314.3,324.2c1.9-0.6,4.4-1.3,7.4-2.1c-0.6-4.8-0.6-10.4,1.7-13.2c4.6-5.6,16.5-8.9,23.3-10.1
			c5.7-1,24.7-3,24.7-3s-24.7-2.4-50,5C308.9,304.4,311.4,316.6,314.3,324.2z"/>
		<g>
			<path class="st13" d="M397.5,295.3c3-2.3,0.1-23.6,1.6-44.5c2.3-31.9,0-42.1-2.4-43.1c-4.3-0.8-8.7-1.2-13.1-1.3
				c-6.4-0.2-12.9-0.1-19.3,0.4c-4.4,0.5-8.7,1.4-13,2.6c0,0-10.5,33.5-3.8,81.7L397.5,295.3z"/>
			<path class="st18" d="M400,234.4C400,234.4,400,234.4,400,234.4c-0.1,4.7-0.4,10.1-0.9,16.4c-1.5,20.9,1.3,42.2-1.6,44.5
				l-49.9-4.2c-3.7-26.6-2.2-48.7-0.1-63.2c4.1-6.3,11.9-13.6,15.6-16.7c0.8,1,2.3,1.9,4.6,2.4c3.9,0.8,8.3-1.1,12-3.2
				c2.9,2.9,8.4,8.7,10.8,13.7c0.3,0.5,0.5,1.1,0.7,1.6c1.5,4.3,6.2-1,8.6-7.9C400.1,221.8,400.2,227.2,400,234.4z"/>
		</g>
		<path class="st17" d="M381.3,184.7c-1.1,6.2-2.1,17.6,2.4,21.7c0,0-4.8,6-14,6.4c-8,0.4-5.3-5.9-5.3-5.9c6.9-1.8,6.6-6.9,5.3-11.7
			L381.3,184.7z"/>
		<path class="st12" d="M376.6,188.9l-6.9,6.1c0.3,1.1,0.5,2.3,0.7,3.4c2.6-0.4,6.2-3.4,6.4-6.2C376.9,191.2,376.9,190,376.6,188.9z
			"/>
		<g>
			<path class="st13" d="M366.2,168.6c3.4,2.3,1.9,6.3-5.9,12.5c-3.2-4.1-3.7-12.1-1.2-14.1C361.6,165,363.2,166.5,366.2,168.6z"/>
			<path class="st17" d="M381,175c-0.4,8.4-0.2,13.4-4.3,17.8c-6.3,6.6-16.7,2.9-18.9-5.4c-1.9-7.5-1-20,7.2-23.5
				c5.8-2.5,12.6,0.2,15.1,6C380.8,171.4,381.1,173.2,381,175z"/>
			<path class="st13" d="M368.5,177.5c0,0.7-0.3,1.2-0.8,1.3c-0.4,0-0.8-0.5-0.8-1.2c0-0.7,0.3-1.2,0.8-1.3
				C368.1,176.3,368.4,176.8,368.5,177.5z"/>
			<path class="st13" d="M360.7,177.6c0,0.7-0.3,1.2-0.8,1.3c-0.4,0-0.8-0.5-0.8-1.2c0-0.7,0.3-1.2,0.8-1.3
				C360.3,176.4,360.7,177,360.7,177.6z"/>
			<path class="st19" d="M363.3,177.9c-0.8,2.1-1.9,4.1-3.2,5.9c1.3,1.1,3.3,0.6,3.3,0.6L363.3,177.9z"/>
			<path class="st13" d="M370.6,175c0.1,0,0.2,0,0.3-0.1c0.2-0.1,0.2-0.4,0.1-0.6c-0.8-1-2-1.6-3.3-1.6c-0.2,0-0.4,0.2-0.4,0.4
				c0,0,0,0,0,0c0,0.2,0.2,0.4,0.4,0.4l0,0c1,0,2,0.5,2.6,1.3C370.3,175,370.5,175,370.6,175z"/>
			<path class="st13" d="M357.1,175.1c0.2,0,0.3-0.1,0.4-0.2c0.4-0.9,1.2-1.6,2.2-1.9c0.2,0,0.4-0.2,0.3-0.5c0-0.2-0.2-0.4-0.4-0.3
				c-1.3,0.3-2.3,1.1-2.9,2.3c-0.1,0.2,0,0.4,0.2,0.5c0,0,0,0,0,0C357,175.1,357.1,175.1,357.1,175.1z"/>
			<path class="st13" d="M377.5,167.6c-3.9,1.4-3.4,5.7,2.7,13.6c4.1-3.2,6.5-10.8,4.6-13.4C382.9,165.2,381,166.3,377.5,167.6z"/>
			<path class="st17" d="M385.1,181.6c-0.6,2.1-1.9,3.8-3.7,4.9c-2.4,1.4-4.3-0.6-4.2-3.3c0.1-2.4,1.5-6,4.2-6.3
				C384.1,176.6,385.8,179.1,385.1,181.6z"/>
			<path class="st20" d="M369.7,185.8c0,0-1.5,2.8-5.5,2.6"/>
			<path class="st13" d="M369,166.2c0,0,1.3,8.4,9.4,9c8.1,0.5,9.9-4.5,9.9-4.5s-1.2,0.2-2,0.2c0,0,2.4-4.1,0-8.1
				c-2.4-4-10.5-8.1-16.5-6c0,0-5.7-2.2-11.4,1.1c-5.6,3.3-4.6,10.4-4.6,10.4s-0.2-4.3,2.4-5.5c0,0-3.2,8.9,1.6,11.3
				C357.8,174.1,358.2,165.4,369,166.2z"/>
		</g>
		<path class="st17" d="M355.2,246c0,0-29-0.7-30.6-0.8c-1.6-0.2-8.5-4-10-4.2c-1.5-0.2-5.4,6-5.9,7.4c-0.5,1.5,11,5.3,12.1,5.2
			c1.1-0.2,3.7-1.4,3.7-1.4l29.6,3.8L355.2,246z"/>
		<g>
			<path class="st13" d="M271,252v2.6c0,0.8,1.4,1.4,2.1,1.4h61.8c0.8,0,2.1-0.6,2.1-1.4V252H271z"/>
			<path class="st5" d="M271,252v2.6c0,0.8,1.4,1.4,2.1,1.4h61.8c0.8,0,2.1-0.6,2.1-1.4V252H271z"/>
			<path class="st12" d="M271,252v2.6c0,0.8,1.4,1.4,2.1,1.4h40.8c0.8,0,2.1-0.6,2.1-1.4V252H271z"/>
			<path class="st13" d="M261.1,219.5l7.4,33.5c0.2,1.1,1.3,2,2.4,2H311c1.1,0,1.8-1.1,1.5-2.2l-7.3-33.1c-0.2-1.1-1.3-1.6-2.4-1.6
				h-40.2C261.5,218,260.9,218.4,261.1,219.5z"/>
			<path class="st5" d="M261.1,219.5l7.4,33.5c0.2,1.1,1.3,2,2.4,2H311c1.1,0,1.8-1.1,1.5-2.2l-7.3-33.1c-0.2-1.1-1.3-1.6-2.4-1.6
				h-40.2C261.5,218,260.9,218.4,261.1,219.5z"/>
			<path class="st10" d="M261.1,219.5l7.4,33.5c0.2,1.1,1.3,2,2.4,2h38.8c1.1,0,1.8-1.1,1.5-2.2l-7.4-33.1c-0.2-1.1-1.3-1.6-2.4-1.6
				h-38.8C261.5,218,260.9,218.4,261.1,219.5z"/>
			<path class="st12" d="M284.7,241c-1.9,0-3.8-2-4.3-4.5c-0.5-2.5,0.6-4.5,2.5-4.5c0.4,0,0.7,0.1,1,0.2c0.4,1.9,1.8,3.6,3.2,4.1
				c0,0.1,0,0.1,0,0.2C287.7,239,286.6,241,284.7,241z"/>
		</g>
		<path class="st12" d="M400,234.4C400,234.4,400,234.4,400,234.4c-4.3,7-10.3,14.5-16.4,14.1c-6.3-0.4,0.1-13.2,6.8-24.4
			c0.3,0.5,0.5,1.1,0.7,1.6c1.5,4.3,6.2-1,8.6-7.9C400.1,221.8,400.2,227.2,400,234.4z"/>
		<path class="st13" d="M396.8,207.7c14.8,5.3-11.2,45.5-19.3,49.6c-8.1,4.1-29.4-0.6-29.4-0.6l1.3-12.4c0,0,16.8,1.1,20.2,0.3
			c3.3-0.8,11.3-18,15.9-26C390.1,210.4,396.8,207.7,396.8,207.7z"/>
		<polygon class="st16" points="351.5,396.7 333.9,397.9 332.4,390.3 351.7,389.4 		"/>
		<polygon class="st16" points="330.6,389.3 313.6,394.2 310.5,387.1 329.3,382.2 		"/>
		<path class="st13" d="M321.6,401.5l8.7-2.4c0.3-0.1,0.6,0.1,0.7,0.4c0,0,0,0,0,0l2.3,6.8c0.2,0.7-0.2,1.5-1,1.7
			c-3,0.8-4.5,1-8.4,2.1c-2.3,0.6-6.9,2.2-10.3,2.5c-3.3,0.4-3.6-2.9-2.3-3.4c3.3-1.1,7.2-4.5,8.9-6.8
			C320.7,401.9,321.1,401.6,321.6,401.5z"/>
		<g>
			<path class="st4" d="M340,407.7C340,407.7,340,407.7,340,407.7C340,407.7,340,407.7,340,407.7c0-0.1-0.1-2.4-1-3.1
				c-0.2-0.2-0.6-0.3-0.9-0.2c-0.3,0-0.6,0.3-0.7,0.6c-0.1,0.5,0.3,1.2,0.8,1.8c-0.8-0.3-1.7-0.6-2.2-0.4c-0.2,0.1-0.4,0.3-0.4,0.6
				c-0.1,0.4,0,0.8,0.3,1c0.5,0.3,1,0.4,1.5,0.3c0.7-0.1,1.4-0.2,2.1-0.4c0,0,0,0,0.1,0c0,0,0,0,0-0.1c0,0,0.2,0,0.2-0.1
				C339.8,407.7,340,407.7,340,407.7C340,407.7,340,407.7,340,407.7z M337.8,405c0-0.1,0.1-0.2,0.3-0.3l0.1,0c0.2,0,0.3,0,0.4,0.1
				c0.5,0.4,0.6,1.7,0.7,2.5c-0.1,0-0.1-0.1-0.2-0.1C338.5,406.7,337.7,405.6,337.8,405z M336.1,407.7c-0.2-0.2-0.2-0.4-0.2-0.7
				c0-0.1,0.1-0.2,0.2-0.3c0.5-0.2,1.9,0.4,2.9,0.9C337.6,408,336.5,408,336.1,407.7z"/>
		</g>
		<path class="st13" d="M340.2,406.7l9-0.6c0.3,0,0.6,0.2,0.6,0.5c0,0,0,0,0,0l0.9,7.1c0,0.8-0.5,1.4-1.3,1.5
			c-3.1,0.1-4.7,0.1-8.6,0.3c-2.4,0.1-7.2,0.7-10.6,0.3c-3.4-0.3-2.9-3.6-1.5-3.8c3.4-0.4,8-2.9,10.1-4.8
			C339.2,406.9,339.7,406.8,340.2,406.7z"/>
	</g>
</g>
<g id="Table">
	<g>
		<g>
			<polygon class="st4" points="300.1,416 306.2,416 307.2,262.8 299.1,262.8 			"/>
			<polygon class="st10" points="299.1,263 299.3,287.7 300.1,416 306.2,416 307.1,287.7 307.2,263 			"/>
			<polygon class="st12" points="299.1,263 299.3,288 307.1,288 307.2,263 			"/>
		</g>
		<g>
			<polygon class="st4" points="235.1,416 241.2,416 252.2,262.8 244.1,262.8 			"/>
			<polygon class="st9" points="235.1,416 241.2,416 251.7,270.4 252.2,263 244.1,263 243.6,270.4 			"/>
			<polygon class="st12" points="243.6,270 251.7,270 252.2,263 244.1,263 			"/>
		</g>
		<g>
			<polygon class="st4" points="365.1,416 371.3,416 362.3,262.8 354.1,262.8 			"/>
			<polygon class="st9" points="354.1,263 354.7,270.4 365.2,416 371.3,416 362.7,270.4 362.3,263 			"/>
			<polygon class="st12" points="362.3,263 354.1,263 354.7,270 362.7,270 			"/>
		</g>
		<g>
			<path class="st4" d="M239.8,266.6h126.8c1.2,0,2.2-1,2.2-2.2v-5.5H237.6v5.5C237.6,265.6,238.6,266.6,239.8,266.6z"/>
			<path class="st5" d="M239.8,266.6h126.8c1.2,0,2.2-1,2.2-2.2v-5.5H237.6v5.5C237.6,265.6,238.6,266.6,239.8,266.6z"/>
		</g>
		
			<rect x="237.6" y="258.9" transform="matrix(-1 -1.224647e-16 1.224647e-16 -1 606.3417 521.6686)" class="st12" width="131.1" height="3.8"/>
		<g>
			<path class="st4" d="M233.8,259.9h138.7c1.2,0,2.2-1,2.2-2.2l0,0c0-1.2-1-2.2-2.2-2.2H233.8c-1.2,0-2.2,1-2.2,2.2l0,0
				C231.7,258.9,232.6,259.9,233.8,259.9z"/>
			<path class="st5" d="M233.8,259.9h138.7c1.2,0,2.2-1,2.2-2.2l0,0c0-1.2-1-2.2-2.2-2.2H233.8c-1.2,0-2.2,1-2.2,2.2l0,0
				C231.7,258.9,232.6,259.9,233.8,259.9z"/>
		</g>
	</g>
</g>
</svg>
