<?xml version="1.0" encoding="utf-8"?>
<!-- Generator: Adobe Illustrator 25.0.1, SVG Export Plug-In . SVG Version: 6.00 Build 0)  -->
<svg version="1.1" id="Layer_1" xmlns="http://www.w3.org/2000/svg" xmlns:xlink="http://www.w3.org/1999/xlink" x="0px" y="0px"
	 viewBox="0 0 300 140" style="enable-background:new 0 0 300 140;" xml:space="preserve">
<style type="text/css">
	.st0{fill:none;}
	.st1{fill:#3F4293;}
	.st2{fill:#ED7D2B;}
	.st3{fill:#78ACEA;}
	.st4{fill:#699DEE;}
	.st5{fill:#5288D8;}
	.st6{fill:#D7E9FF;}
	.st7{fill:#F99746;}
	.st8{fill:#AFCDFB;}
	.st9{fill:#FFFFFF;}
	.st10{fill:#C65447;}
	.st11{fill:#FFB27D;}
	.st12{fill:#233862;}
	.st13{fill:#2B478B;}
	.st14{fill:#ED985F;}
	.st15{fill:#2C3A64;}
	.st16{fill:#3832B6;}
	.st17{fill:#201F95;}
	.st18{fill:#63C138;}
	.st19{fill:#57B567;}
	.st20{fill:#F59503;}
	.st21{fill:#373543;}
	.st22{fill:#E9E0D9;}
	.st23{fill:#F8461A;}
	.st24{fill:#D72C0F;}
	.st25{fill:#1A100E;}
	.st26{fill:#564CDE;}
	.st27{fill:#FBA691;}
	.st28{fill:#E97C00;}
	.st29{fill:#FB876B;}
	.st30{fill:#D45C48;}
	.st31{fill:#F4F4F4;}
	.st32{fill:#2E3062;}
	.st33{fill:#EDEDED;}
	.st34{fill:#524E84;}
</style>
<rect class="st0" width="300" height="140"/>
<path class="st1" d="M299.6,140H0.4c-0.2,0-0.4-0.2-0.4-0.4l0,0c0-0.2,0.2-0.4,0.4-0.4h299.2c0.2,0,0.4,0.2,0.4,0.4l0,0
	C300,139.8,299.8,140,299.6,140z"/>
<g>
	<path class="st2" d="M157.4,45.9l-17.7,89.6c-0.4,1.8,1.1,3.5,3,3.5h9.3L157.4,45.9z"/>
	<path class="st3" d="M157.6,45.6l-11.7,88c-0.4,2.9,1.9,5.5,4.9,5.5H168l-9.7-93.8L157.6,45.6z"/>
	<path class="st4" d="M157.6,45.6l-5.2,87.4c-0.2,3.3,2.5,6.1,5.8,6.1h25.6L157.6,45.6z"/>
	<path class="st5" d="M157.4,46.3L160,133c-0.2,3.3,2.5,6.1,5.8,6.1h25.6L157.4,46.3z"/>
	<path class="st6" d="M280.2,139H179.1c-2.5,0-4.7-1.8-5.1-4.2l-15.4-82.5c-0.7-3.7,2.2-7.2,6.1-7.2h99.9c2.5,0,4.7,1.8,5.1,4.2
		l15.6,83.6C285.9,136.1,283.5,139,280.2,139z"/>
	<path class="st7" d="M160.5,63.1h111.8l-2.9-15.6c-0.2-1.4-1.4-2.3-2.8-2.3H158.3c-0.6,0-1,0.5-0.9,1.1L160.5,63.1z"/>
	<g>
		<g>
			<g>
				<path class="st3" d="M163.2,40.5c-2.7,0-4.8,2.1-4.8,4.7h0.9c0-2.1,1.8-3.8,3.9-3.8s3.9,1.7,3.9,3.8c0,0.4-0.1,0.8-0.2,1.2
					c-0.4,1.1-1.3,2-2.4,2.4c-0.3,0.1-0.7,0.2-1.1,0.2V50c0.4,0,0.8-0.1,1.2-0.2c1.6-0.5,2.8-1.7,3.2-3.3c0.1-0.4,0.2-0.8,0.2-1.2
					C168,42.6,165.8,40.5,163.2,40.5z"/>
			</g>
			<path class="st3" d="M164.7,49.5c0,0.1,0,0.2,0,0.3c-0.1,0.4-0.5,0.8-1,0.8c-0.6,0-1-0.5-1-1c0-0.6,0.5-1,1-1
				c0.3,0,0.6,0.2,0.8,0.4C164.6,49.1,164.7,49.3,164.7,49.5z"/>
		</g>
		<g>
			<g>
				<path class="st3" d="M180.5,40.5c-2.7,0-4.8,2.1-4.8,4.7h0.9c0-2.1,1.8-3.8,3.9-3.8c2.2,0,3.9,1.7,3.9,3.8
					c0,0.4-0.1,0.8-0.2,1.2c-0.4,1.1-1.3,2-2.4,2.4c-0.3,0.1-0.7,0.2-1.1,0.2V50c0.4,0,0.8-0.1,1.2-0.2c1.6-0.5,2.8-1.7,3.2-3.3
					c0.1-0.4,0.2-0.8,0.2-1.2C185.4,42.6,183.2,40.5,180.5,40.5z"/>
			</g>
			<path class="st3" d="M182,49.5c0,0.1,0,0.2,0,0.3c-0.1,0.4-0.5,0.8-1,0.8c-0.6,0-1-0.5-1-1c0-0.6,0.5-1,1-1
				c0.3,0,0.6,0.2,0.8,0.4C182,49.1,182,49.3,182,49.5z"/>
		</g>
		<g>
			<g>
				<path class="st3" d="M197.9,40.5c-2.7,0-4.8,2.1-4.8,4.7h0.9c0-2.1,1.8-3.8,3.9-3.8c2.2,0,3.9,1.7,3.9,3.8
					c0,0.4-0.1,0.8-0.2,1.2c-0.4,1.1-1.3,2-2.4,2.4c-0.3,0.1-0.7,0.2-1.1,0.2V50c0.4,0,0.8-0.1,1.2-0.2c1.6-0.5,2.8-1.7,3.2-3.3
					c0.1-0.4,0.2-0.8,0.2-1.2C202.8,42.6,200.6,40.5,197.9,40.5z"/>
			</g>
			<path class="st3" d="M199.4,49.5c0,0.1,0,0.2,0,0.3c-0.1,0.4-0.5,0.8-1,0.8c-0.6,0-1-0.5-1-1c0-0.6,0.5-1,1-1
				c0.3,0,0.6,0.2,0.8,0.4C199.3,49.1,199.4,49.3,199.4,49.5z"/>
		</g>
		<g>
			<g>
				<path class="st3" d="M215.3,40.5c-2.7,0-4.8,2.1-4.8,4.7h0.9c0-2.1,1.8-3.8,3.9-3.8c2.2,0,3.9,1.7,3.9,3.8
					c0,0.4-0.1,0.8-0.2,1.2c-0.4,1.1-1.3,2-2.4,2.4c-0.3,0.1-0.7,0.2-1.1,0.2V50c0.4,0,0.8-0.1,1.2-0.2c1.6-0.5,2.8-1.7,3.2-3.3
					c0.1-0.4,0.2-0.8,0.2-1.2C220.2,42.6,218,40.5,215.3,40.5z"/>
			</g>
			<path class="st3" d="M216.8,49.5c0,0.1,0,0.2,0,0.3c-0.1,0.4-0.5,0.8-1,0.8c-0.6,0-1-0.5-1-1c0-0.6,0.5-1,1-1
				c0.3,0,0.6,0.2,0.8,0.4C216.7,49.1,216.8,49.3,216.8,49.5z"/>
		</g>
		<g>
			<g>
				<path class="st3" d="M232.7,40.5c-2.7,0-4.8,2.1-4.8,4.7h0.9c0-2.1,1.8-3.8,3.9-3.8s3.9,1.7,3.9,3.8c0,0.4-0.1,0.8-0.2,1.2
					c-0.4,1.1-1.3,2-2.4,2.4c-0.3,0.1-0.7,0.2-1.1,0.2V50c0.4,0,0.8-0.1,1.2-0.2c1.6-0.5,2.8-1.7,3.2-3.3c0.1-0.4,0.2-0.8,0.2-1.2
					C237.5,42.6,235.4,40.5,232.7,40.5z"/>
			</g>
			<path class="st3" d="M234.2,49.5c0,0.1,0,0.2,0,0.3c-0.1,0.4-0.5,0.8-1,0.8c-0.6,0-1-0.5-1-1c0-0.6,0.5-1,1-1
				c0.3,0,0.6,0.2,0.8,0.4C234.1,49.1,234.2,49.3,234.2,49.5z"/>
		</g>
		<g>
			<g>
				<path class="st3" d="M250.1,40.5c-2.7,0-4.8,2.1-4.8,4.7h0.9c0-2.1,1.8-3.8,3.9-3.8c2.2,0,3.9,1.7,3.9,3.8
					c0,0.4-0.1,0.8-0.2,1.2c-0.4,1.1-1.3,2-2.4,2.4c-0.3,0.1-0.7,0.2-1.1,0.2V50c0.4,0,0.8-0.1,1.2-0.2c1.6-0.5,2.8-1.7,3.2-3.3
					c0.1-0.4,0.2-0.8,0.2-1.2C254.9,42.6,252.7,40.5,250.1,40.5z"/>
			</g>
			<path class="st3" d="M251.6,49.5c0,0.1,0,0.2,0,0.3c-0.1,0.4-0.5,0.8-1,0.8c-0.6,0-1-0.5-1-1c0-0.6,0.5-1,1-1
				c0.3,0,0.6,0.2,0.8,0.4C251.5,49.1,251.6,49.3,251.6,49.5z"/>
		</g>
		<g>
			<g>
				<path class="st3" d="M267.5,40.5c-2.7,0-4.8,2.1-4.8,4.7h0.9c0-2.1,1.8-3.8,3.9-3.8s3.9,1.7,3.9,3.8c0,0.4-0.1,0.8-0.2,1.2
					c-0.4,1.1-1.3,2-2.4,2.4c-0.3,0.1-0.7,0.2-1.1,0.2V50c0.4,0,0.8-0.1,1.2-0.2c1.6-0.5,2.8-1.7,3.2-3.3c0.1-0.4,0.2-0.8,0.2-1.2
					C272.3,42.6,270.1,40.5,267.5,40.5z"/>
			</g>
			<path class="st3" d="M268.9,49.5c0,0.1,0,0.2,0,0.3c-0.1,0.4-0.5,0.8-1,0.8c-0.6,0-1-0.5-1-1c0-0.6,0.5-1,1-1
				c0.3,0,0.6,0.2,0.8,0.4C268.9,49.1,268.9,49.3,268.9,49.5z"/>
		</g>
	</g>
	<path class="st7" d="M225.2,92.3h-5.7c-0.7,0-1.3-0.5-1.4-1.2l-1.1-5.5c-0.1-0.6,0.3-1.2,1-1.2h5.7c0.7,0,1.3,0.5,1.4,1.2l1.1,5.5
		C226.3,91.8,225.9,92.3,225.2,92.3z"/>
	<path class="st8" d="M239.5,92.3h-5.7c-0.7,0-1.3-0.5-1.4-1.2l-1.1-5.5c-0.1-0.6,0.3-1.2,1-1.2h5.7c0.7,0,1.3,0.5,1.4,1.2l1.1,5.5
		C240.6,91.8,240.1,92.3,239.5,92.3z"/>
	<path class="st3" d="M253.7,92.3h-5.7c-0.7,0-1.3-0.5-1.4-1.2l-1.1-5.5c-0.1-0.6,0.3-1.2,1-1.2h5.7c0.7,0,1.3,0.5,1.4,1.2l1.1,5.5
		C254.8,91.8,254.4,92.3,253.7,92.3z"/>
	<path class="st8" d="M182.4,92.3h-5.7c-0.7,0-1.3-0.5-1.4-1.2l-1.1-5.5c-0.1-0.6,0.3-1.2,1-1.2h5.7c0.7,0,1.3,0.5,1.4,1.2l1.1,5.5
		C183.5,91.8,183.1,92.3,182.4,92.3z"/>
	<path class="st7" d="M176.2,75.7h-2.4c-0.3,0-0.6-0.2-0.6-0.5l-0.5-2.4c-0.1-0.3,0.1-0.5,0.4-0.5h2.4c0.3,0,0.6,0.2,0.6,0.5
		l0.5,2.4C176.7,75.5,176.5,75.7,176.2,75.7z"/>
	<path class="st8" d="M196.7,92.3H191c-0.7,0-1.3-0.5-1.4-1.2l-1.1-5.5c-0.1-0.6,0.3-1.2,1-1.2h5.7c0.7,0,1.3,0.5,1.4,1.2l1.1,5.5
		C197.8,91.8,197.3,92.3,196.7,92.3z"/>
	<path class="st7" d="M211,92.3h-5.7c-0.7,0-1.3-0.5-1.4-1.2l-1.1-5.5c-0.1-0.6,0.3-1.2,1-1.2h5.7c0.7,0,1.3,0.5,1.4,1.2l1.1,5.5
		C212,91.8,211.6,92.3,211,92.3z"/>
	<path class="st3" d="M268,92.3h-5.7c-0.7,0-1.3-0.5-1.4-1.2l-1.1-5.5c-0.1-0.6,0.3-1.2,1-1.2h5.7c0.7,0,1.3,0.5,1.4,1.2l1.1,5.5
		C269.1,91.8,268.7,92.3,268,92.3z"/>
	<path class="st8" d="M222.8,80.3h-5.7c-0.7,0-1.3-0.5-1.4-1.2l-1.1-5.5c-0.1-0.6,0.3-1.2,1-1.2h5.7c0.7,0,1.3,0.5,1.4,1.2l1.1,5.5
		C223.9,79.8,223.5,80.3,222.8,80.3z"/>
	<path class="st7" d="M237.1,80.3h-5.7c-0.7,0-1.3-0.5-1.4-1.2l-1.1-5.5c-0.1-0.6,0.3-1.2,1-1.2h5.7c0.7,0,1.3,0.5,1.4,1.2l1.1,5.5
		C238.2,79.8,237.8,80.3,237.1,80.3z"/>
	<path class="st3" d="M251.4,80.3h-5.7c-0.7,0-1.3-0.5-1.4-1.2l-1.1-5.5c-0.1-0.6,0.3-1.2,1-1.2h5.7c0.7,0,1.3,0.5,1.4,1.2l1.1,5.5
		C252.5,79.8,252,80.3,251.4,80.3z"/>
	<path class="st3" d="M265.6,80.3H260c-0.7,0-1.3-0.5-1.4-1.2l-1.1-5.5c-0.1-0.6,0.3-1.2,1-1.2h5.7c0.7,0,1.3,0.5,1.4,1.2l1.1,5.5
		C266.7,79.8,266.3,80.3,265.6,80.3z"/>
	<path class="st7" d="M227.7,105.1h-5.7c-0.7,0-1.3-0.5-1.4-1.2l-1.1-5.5c-0.1-0.6,0.3-1.2,1-1.2h5.7c0.7,0,1.3,0.5,1.4,1.2l1.1,5.5
		C228.8,104.6,228.4,105.1,227.7,105.1z"/>
	<path class="st7" d="M242,105.1h-5.7c-0.7,0-1.3-0.5-1.4-1.2l-1.1-5.5c-0.1-0.6,0.3-1.2,1-1.2h5.7c0.7,0,1.3,0.5,1.4,1.2l1.1,5.5
		C243.1,104.6,242.6,105.1,242,105.1z"/>
	<path class="st3" d="M256.3,105.1h-5.7c-0.7,0-1.3-0.5-1.4-1.2l-1.1-5.5c-0.1-0.6,0.3-1.2,1-1.2h5.7c0.7,0,1.3,0.5,1.4,1.2l1.1,5.5
		C257.3,104.6,256.9,105.1,256.3,105.1z"/>
	<path class="st8" d="M184.9,105.1h-5.7c-0.7,0-1.3-0.5-1.4-1.2l-1.1-5.5c-0.1-0.6,0.3-1.2,1-1.2h5.7c0.7,0,1.3,0.5,1.4,1.2l1.1,5.5
		C186,104.6,185.6,105.1,184.9,105.1z"/>
	<path class="st8" d="M199.2,105.1h-5.7c-0.7,0-1.3-0.5-1.4-1.2l-1.1-5.5c-0.1-0.6,0.3-1.2,1-1.2h5.7c0.7,0,1.3,0.5,1.4,1.2l1.1,5.5
		C200.3,104.6,199.8,105.1,199.2,105.1z"/>
	<path class="st7" d="M213.5,105.1h-5.7c-0.7,0-1.3-0.5-1.4-1.2l-1.1-5.5c-0.1-0.6,0.3-1.2,1-1.2h5.7c0.7,0,1.3,0.5,1.4,1.2l1.1,5.5
		C214.5,104.6,214.1,105.1,213.5,105.1z"/>
	<path class="st3" d="M270.5,105.1h-5.7c-0.7,0-1.3-0.5-1.4-1.2l-1.1-5.5c-0.1-0.6,0.3-1.2,1-1.2h5.7c0.7,0,1.3,0.5,1.4,1.2l1.1,5.5
		C271.6,104.6,271.2,105.1,270.5,105.1z"/>
	<path class="st8" d="M230.2,117.8h-5.7c-0.7,0-1.3-0.5-1.4-1.2l-1.1-5.5c-0.1-0.6,0.3-1.2,1-1.2h5.7c0.7,0,1.3,0.5,1.4,1.2l1.1,5.5
		C231.3,117.3,230.9,117.8,230.2,117.8z"/>
	<path class="st8" d="M244.5,117.8h-5.7c-0.7,0-1.3-0.5-1.4-1.2l-1.1-5.5c-0.1-0.6,0.3-1.2,1-1.2h5.7c0.7,0,1.3,0.5,1.4,1.2l1.1,5.5
		C245.6,117.3,245.2,117.8,244.5,117.8z"/>
	<path class="st3" d="M258.8,117.8h-5.7c-0.7,0-1.3-0.5-1.4-1.2l-1.1-5.5c-0.1-0.6,0.3-1.2,1-1.2h5.7c0.7,0,1.3,0.5,1.4,1.2l1.1,5.5
		C259.8,117.3,259.4,117.8,258.8,117.8z"/>
	<path class="st7" d="M187.4,117.8h-5.7c-0.7,0-1.3-0.5-1.4-1.2l-1.1-5.5c-0.1-0.6,0.3-1.2,1-1.2h5.7c0.7,0,1.3,0.5,1.4,1.2l1.1,5.5
		C188.5,117.3,188.1,117.8,187.4,117.8z"/>
	<path class="st7" d="M201.7,117.8h-5.7c-0.7,0-1.3-0.5-1.4-1.2l-1.1-5.5c-0.1-0.6,0.3-1.2,1-1.2h5.7c0.7,0,1.3,0.5,1.4,1.2l1.1,5.5
		C202.8,117.3,202.4,117.8,201.7,117.8z"/>
	<path class="st7" d="M216,117.8h-5.7c-0.7,0-1.3-0.5-1.4-1.2l-1.1-5.5c-0.1-0.6,0.3-1.2,1-1.2h5.7c0.7,0,1.3,0.5,1.4,1.2l1.1,5.5
		C217.1,117.3,216.6,117.8,216,117.8z"/>
	<path class="st3" d="M273,117.8h-5.7c-0.7,0-1.3-0.5-1.4-1.2l-1.1-5.5c-0.1-0.6,0.3-1.2,1-1.2h5.7c0.7,0,1.3,0.5,1.4,1.2l1.1,5.5
		C274.1,117.3,273.7,117.8,273,117.8z"/>
	<path class="st7" d="M232.6,129.9h-5.7c-0.7,0-1.3-0.5-1.4-1.2l-1.1-5.5c-0.1-0.6,0.3-1.2,1-1.2h5.7c0.7,0,1.3,0.5,1.4,1.2l1.1,5.5
		C233.7,129.3,233.3,129.9,232.6,129.9z"/>
	<path class="st8" d="M246.9,129.9h-5.7c-0.7,0-1.3-0.5-1.4-1.2l-1.1-5.5c-0.1-0.6,0.3-1.2,1-1.2h5.7c0.7,0,1.3,0.5,1.4,1.2l1.1,5.5
		C248,129.3,247.5,129.9,246.9,129.9z"/>
	<path class="st3" d="M261.1,129.9h-5.7c-0.7,0-1.3-0.5-1.4-1.2l-1.1-5.5c-0.1-0.6,0.3-1.2,1-1.2h5.7c0.7,0,1.3,0.5,1.4,1.2l1.1,5.5
		C262.2,129.3,261.8,129.9,261.1,129.9z"/>
	<path class="st7" d="M189.8,129.9h-5.7c-0.7,0-1.3-0.5-1.4-1.2l-1.1-5.5c-0.1-0.6,0.3-1.2,1-1.2h5.7c0.7,0,1.3,0.5,1.4,1.2l1.1,5.5
		C190.9,129.3,190.5,129.9,189.8,129.9z"/>
	<path class="st8" d="M204.1,129.9h-5.7c-0.7,0-1.3-0.5-1.4-1.2l-1.1-5.5c-0.1-0.6,0.3-1.2,1-1.2h5.7c0.7,0,1.3,0.5,1.4,1.2l1.1,5.5
		C205.2,129.3,204.7,129.9,204.1,129.9z"/>
	<path class="st8" d="M218.3,129.9h-5.7c-0.7,0-1.3-0.5-1.4-1.2l-1.1-5.5c-0.1-0.6,0.3-1.2,1-1.2h5.7c0.7,0,1.3,0.5,1.4,1.2l1.1,5.5
		C219.4,129.3,219,129.9,218.3,129.9z"/>
	<path class="st8" d="M193.4,73.5h-15c-0.2,0-0.4-0.2-0.4-0.4l0,0c0-0.2,0.2-0.4,0.4-0.4h15c0.2,0,0.4,0.2,0.4,0.4l0,0
		C193.8,73.4,193.6,73.5,193.4,73.5z"/>
	<path class="st8" d="M193.8,75.3h-15c-0.2,0-0.4-0.2-0.4-0.4l0,0c0-0.2,0.2-0.4,0.4-0.4h15c0.2,0,0.4,0.2,0.4,0.4l0,0
		C194.2,75.1,194,75.3,193.8,75.3z"/>
	<g>
		<path class="st9" d="M177.3,60.3h-5.1c-0.4,0-0.8-0.3-0.8-0.7l0,0c0-0.4,0.3-0.7,0.8-0.7h5.1c0.4,0,0.8,0.3,0.8,0.7l0,0
			C178.1,60,177.7,60.3,177.3,60.3z"/>
		<path class="st9" d="M191.4,60.3h-5.1c-0.4,0-0.8-0.3-0.8-0.7l0,0c0-0.4,0.3-0.7,0.8-0.7h5.1c0.4,0,0.8,0.3,0.8,0.7l0,0
			C192.2,60,191.8,60.3,191.4,60.3z"/>
		<path class="st9" d="M205.5,60.3h-5.1c-0.4,0-0.8-0.3-0.8-0.7l0,0c0-0.4,0.3-0.7,0.8-0.7h5.1c0.4,0,0.8,0.3,0.8,0.7l0,0
			C206.3,60,205.9,60.3,205.5,60.3z"/>
		<path class="st9" d="M219.6,60.3h-5.1c-0.4,0-0.8-0.3-0.8-0.7l0,0c0-0.4,0.3-0.7,0.8-0.7h5.1c0.4,0,0.8,0.3,0.8,0.7l0,0
			C220.4,60,220,60.3,219.6,60.3z"/>
		<path class="st9" d="M233.7,60.3h-5.1c-0.4,0-0.8-0.3-0.8-0.7l0,0c0-0.4,0.3-0.7,0.8-0.7h5.1c0.4,0,0.8,0.3,0.8,0.7l0,0
			C234.5,60,234.1,60.3,233.7,60.3z"/>
		<path class="st9" d="M247.8,60.3h-5.1c-0.4,0-0.8-0.3-0.8-0.7l0,0c0-0.4,0.3-0.7,0.8-0.7h5.1c0.4,0,0.8,0.3,0.8,0.7l0,0
			C248.6,60,248.2,60.3,247.8,60.3z"/>
		<path class="st9" d="M261.9,60.3h-5.1c-0.4,0-0.8-0.3-0.8-0.7l0,0c0-0.4,0.3-0.7,0.8-0.7h5.1c0.4,0,0.8,0.3,0.8,0.7l0,0
			C262.7,60,262.3,60.3,261.9,60.3z"/>
	</g>
	<g>
		<path class="st10" d="M229.4,80.4c-1.1,0-2-0.4-2.4-1c-0.9-1.3-0.2-3.2,2-5.5c1.6-1.7,3.4-3,3.5-3c0.1-0.1,0.2,0,0.2,0
			c0.1,0.1,0,0.2,0,0.2c-0.1,0.1-7.2,5.2-5.4,8.1c0.6,0.9,1.9,1,2.8,0.9c1.8-0.2,4.1-1.1,6.2-2.5c2.2-1.4,3.7-3,4.2-4.4
			c0.3-0.9,0.2-1.5-0.3-1.9c-0.7-0.5-2.1-0.5-3.8,0c-1.6,0.4-3.3,1.2-4.3,2.1c-0.1,0.1-0.2,0-0.2,0c-0.1-0.1,0-0.2,0-0.2
			c1-0.9,2.7-1.7,4.4-2.1c1.8-0.5,3.3-0.5,4.1,0c0.5,0.3,0.9,1,0.4,2.3c-0.5,1.4-2.1,3.1-4.3,4.5c-2.1,1.4-4.5,2.3-6.3,2.6
			C229.9,80.4,229.6,80.4,229.4,80.4z"/>
	</g>
	<g>
		<path class="st11" d="M259.1,71.3l-0.6-1.1c0,0,0.3-1.9-2.2-3.1c0,0-0.9-0.4-1.4,0.4c-0.5,0.7,0.9,0.5,0.8,1.7
			c-0.1,1.1,0.5,1.8,1.2,2.2l0.6,0.7L259.1,71.3z"/>
		<path class="st12" d="M282.3,68.7c0,0-2.1,10.1-13.7,13.5c-3.6,1-11.9-10.7-11.9-10.7s0.3-1.1,2.1-0.8c0,0,8,5.2,9,5.8
			c0.9,0.5,6.8-6.4,9.5-7.6C280,67.8,282.3,68.7,282.3,68.7z"/>
		<g>
			<polygon class="st10" points="261,66.2 261.4,68.7 248.8,71 248.3,68.5 			"/>
			<polygon class="st11" points="245.6,70.3 248.8,71 248.3,68.5 			"/>
			<path class="st11" d="M262.6,66.8l0.1,0.8c0.1,0.5-0.2,0.9-0.7,1l-0.6,0.1l-0.5-2.5l0.6-0.1C262.1,66,262.5,66.3,262.6,66.8z"/>
		</g>
		<g>
			<path class="st12" d="M296.2,132.5c0,0,1.4,1.3,1.2,2.2c-0.3,0.9-1.6,1.5-1.8,2.6c-0.2,1.1-0.9,1.7-1.5,1.7c-0.6,0-3,0-3,0
				s-0.5-0.8,0.7-1c1.1-0.2,1.5-1.6,1.5-2.8c-0.1-1.2,0.1-2.8,0.1-2.8l2.4-0.5L296.2,132.5z"/>
			<path class="st12" d="M278.5,135.8c0,0,0.3,2.9-0.4,3.2l-8.1,0c0,0,0-0.9,1.3-1.1s3.6-0.9,4-2.6
				C275.7,133.7,278.5,135.8,278.5,135.8z"/>
			<path class="st7" d="M271.7,94.4c0,0,0.4,5.1,0.9,11.3c0.7,8.4,1.5,18.7,1.6,20.7c0.1,3.4,0.7,8.8,0.7,8.8s1.3,1.3,4,0.7
				c0,0,2.4-7.7,3.1-15.9c0-0.1,0-0.3,0-0.4c0.6-8.3,1.6-25.9,1.6-25.9L271.7,94.4z"/>
			<path class="st2" d="M271.7,94.4c0,0,0.4,5.1,0.9,11.3l9.4,14.3c0-0.1,0-0.3,0-0.4c0.6-8.3,1.6-25.9,1.6-25.9L271.7,94.4z"/>
			<path class="st7" d="M273.6,95c0,0,7.7,18.6,12.8,27.4c5.1,8.7,6.6,11.2,6.6,11.2s2.9-1.1,3.2-1.9c0,0-1.9-16.9-5.3-21
				c-1.9-2.3-4.2-9.3-4.3-11.7c-0.1-2.4-0.7-7.3-0.7-7.3L273.6,95z"/>
		</g>
		<path class="st11" d="M283.7,66.4c0,0-5.2,2.5-8.2,1.5c0,0,0.7-0.9,2-1.6c-0.1-0.6-0.2-1.1-0.2-1.5c-0.1-1-0.1-1.6-0.1-1.6l2-1.5
			l1.9-1.5C281,64.3,283.7,66.4,283.7,66.4z"/>
		<path class="st13" d="M271.3,94.9c0.1,0.1,0.2,0.1,0.3,0.1c1.1,0,4.4,0.6,7.2,0.3c2.4-0.2,4.4-0.9,6.7-1.8c0.3-0.1,1-0.5,1-0.8
			c0-0.4,0-0.9-0.1-1.5c-0.1-1.3-0.2-3.1-0.3-5.2c0-1.6,0-3.4,0.1-5.2c0-0.1,0-0.3,0-0.4c0-0.7,0.1-1.4,0.1-2.1
			c0-2.2-0.1-4.3-0.5-6.1c-0.6-3.2-1.6-5.8-3.2-6.9c-0.2-0.2-1.5,0.5-2.7,1c-1.1,0.5-2.2,0.6-3.2,0.4l-1,0.9c-1.3,1.1-2.6,2.7-3.3,5
			c-0.5,2-0.8,5.6-1,9.3c-0.1,1.7-0.1,3.4-0.2,5v0.1c0,0.2,0,0.3,0,0.5C271.2,91.5,271.2,94.8,271.3,94.9z"/>
		<path class="st14" d="M281.1,61.8c0,0-1.3,2.4-3.8,3c-0.1-1-0.1-1.6-0.1-1.6l2-1.5L281.1,61.8z"/>
		<path class="st11" d="M276.3,63.1c0,0,5,0.8,5.4-2.2c0.5-3,1.4-4.9-1.7-5.5c-3.2-0.6-3.9,0.4-4.4,1.4
			C275.2,57.7,275,62.9,276.3,63.1z"/>
		<path class="st15" d="M283.5,55c0-0.1,0.1-0.1,0.4-0.1c0,0-0.2-0.1-0.4-0.1c0-0.3-0.2-0.9-0.8-1c0,0,0.3,0.2,0.3,0.5
			c-0.6-0.6-2-1.1-5.8-0.8c-5,0.4-3.4,3.5-2.7,3.9c0.6,0.4,2.3-0.7,3.5-0.6c1.2,0.1,1.4,1.8,1.9,2c0.4,0.2,0.2-0.2,0.8-0.4
			s0.6,0.7,0.4,1.2c-0.2,0.6,0.6,1.4,0.6,1.4s0,0,0.8-0.8c0.8-0.8,1.5-4.3,1.1-5C283.6,55.2,283.5,55.1,283.5,55z"/>
		<path class="st11" d="M258.5,70.2c0,0,0.2-0.7-0.3-1c-0.5-0.3-0.9-1.1-1.1-1c-0.4,0.2,0.2,0.9,0.1,1.8
			C257.2,70.3,257.9,71.1,258.5,70.2z"/>
		<path class="st12" d="M286.1,85.9c0-1.6,0-3.4,0.1-5.2c0-0.1,0-0.3,0-0.4c-0.5-2.3-1.2-4.3-2.2-4.4
			C284,75.9,280.9,80.7,286.1,85.9z"/>
		<path class="st11" d="M290.3,94.2c0,0-0.3,2.5-0.5,3c-0.3,0.5-1.5,2-2,2.3c-0.5,0.3,0.3-2,0.2-2.4c-0.1-0.4-0.4,0.8-0.7,0.8
			c-0.2,0-0.2-1.1-0.2-1.5c0-0.4,1.1-1.4,1.5-2.3C289,93.2,290.3,94.2,290.3,94.2z"/>
		<path class="st13" d="M282.6,65.2c0,0,3.1,1.5,4.6,3.7c2.3,3.5,5,16.2,5.1,17.3c0.1,1.2-2,9.5-2,9.5s-2.1-0.1-2.6-1.1
			c0,0,0.4-8.5,0.2-9.1c-0.3-0.5-8.6-11.4-7.6-13.7C281.2,69.4,282.6,65.2,282.6,65.2z"/>
		<polygon class="st10" points="247.3,69.2 247.4,70.7 245.6,70.3 		"/>
	</g>
	<g>
		<path class="st10" d="M234.3,106.1c-1.1,0-2-0.4-2.4-1c-0.9-1.3-0.2-3.2,2-5.5c1.6-1.7,3.4-3,3.5-3c0.1-0.1,0.2,0,0.2,0
			c0.1,0.1,0,0.2,0,0.2c-0.1,0.1-7.2,5.2-5.4,8.1c0.6,0.9,1.9,1,2.8,0.9c1.8-0.2,4.1-1.1,6.2-2.5c2.2-1.4,3.7-3,4.2-4.4
			c0.3-0.9,0.2-1.5-0.3-1.9c-0.7-0.5-2.1-0.5-3.8,0c-1.6,0.4-3.3,1.2-4.3,2.1c-0.1,0.1-0.2,0-0.2,0c-0.1-0.1,0-0.2,0-0.2
			c1-0.9,2.7-1.7,4.4-2.1c1.8-0.5,3.3-0.5,4.1,0c0.5,0.3,0.9,1,0.4,2.3c-0.5,1.4-2.1,3.1-4.3,4.5c-2.1,1.4-4.5,2.3-6.3,2.6
			C234.7,106,234.5,106.1,234.3,106.1z"/>
	</g>
</g>
<g>
	<path class="st16" d="M128.3,71c-0.3,4.5-4.4,5.3-3.6,8.7c0.9,3.4-0.6,6.4-3.7,6.5c-3.1,0.1-5.3,0-5.9,3.6
		c-0.5,3.7-4.4,6.4-6.7,4.1c-0.6-0.6-1.2-1.2-1.8-1.8c-0.2-0.2-0.3-0.3-0.5-0.5c0,0-0.1-0.1-0.1-0.1c-2.5-2.4-2.8-6.3-0.6-9
		c0.9-1.1,2-1.9,3.6-1.8c4.8,0.3,2.1-3.9,4.4-6.5c2.6-3,5.8-1.1,7.5-3.5C123.3,67.5,128.6,66.5,128.3,71z"/>
	<g>
		<path class="st17" d="M123.4,74l-16.7,18.1c-0.2-0.2-0.3-0.3-0.5-0.5l16.7-18.1c0.1-0.1,0.3-0.2,0.5,0
			C123.5,73.7,123.5,73.9,123.4,74z"/>
	</g>
</g>
<g>
	<path class="st18" d="M132.9,89.2c-2.2,4.3-6.6,3.3-7.2,7c-0.6,3.7-3.4,6.1-6.4,4.8c-3-1.2-5.2-2.3-7.3,1.1c-2.1,3.4-7,4.4-8.3,1.2
		c-0.3-0.8-0.7-1.7-1-2.5c-0.1-0.2-0.2-0.5-0.3-0.7c0-0.1,0-0.1-0.1-0.2c-1.4-3.4,0-7.4,3.2-9.1c1.3-0.7,2.8-1,4.3-0.2
		c4.6,2.3,3.8-2.9,7-4.5c3.8-1.8,6.2,1.4,8.9-0.2C129.3,83.7,135,85,132.9,89.2z"/>
	<g>
		<path class="st16" d="M126.7,90.2l-24.1,10.7c-0.1-0.2-0.2-0.5-0.3-0.7l24.1-10.7c0.2-0.1,0.4,0,0.5,0.2
			C126.9,89.8,126.9,90.1,126.7,90.2z"/>
	</g>
</g>
<g>
	<path class="st16" d="M21.2,113c1.7,3.2,5,2.4,5.5,5.1c0.5,2.7,2.6,4.5,4.8,3.5c2.3-1,3.9-1.8,5.5,0.7c1.6,2.5,5.3,3.2,6.2,0.8
		c0.2-0.6,0.5-1.2,0.7-1.9c0.1-0.2,0.1-0.3,0.2-0.5c0,0,0-0.1,0-0.1c1-2.6-0.1-5.5-2.5-6.7c-1-0.5-2.1-0.7-3.2-0.1
		c-3.4,1.8-2.8-2.1-5.3-3.2c-2.8-1.3-4.6,1.1-6.6,0C23.7,108.8,19.5,109.8,21.2,113z"/>
	<g>
		<path class="st17" d="M25.8,113.6l18.1,7.6c0.1-0.2,0.1-0.3,0.2-0.5L26,113.1c-0.1-0.1-0.3,0-0.4,0.1S25.6,113.5,25.8,113.6z"/>
	</g>
</g>
<g>
	<path class="st19" d="M19.8,126.4c3.3,2.9,6.8,0.5,8.5,3.4c1.8,2.9,5,3.9,7.1,1.8c2.1-2.1,3.6-3.8,6.6-1.7c3,2.1,7.5,1.2,7.5-1.9
		c0-0.8,0-1.6,0-2.5c0-0.2,0-0.5,0-0.7c0-0.1,0-0.1,0-0.2c0-3.4-2.6-6.2-5.9-6.5c-1.4-0.1-2.7,0.2-3.7,1.3c-3.1,3.6-4.2-1.1-7.5-1.3
		c-3.8-0.2-4.7,3.4-7.5,2.9C20.9,120.4,16.5,123.5,19.8,126.4z"/>
	<g>
		<path class="st16" d="M25.4,124.9l24.1,0.5c0-0.2,0-0.5,0-0.7l-24.1-0.5c-0.2,0-0.3,0.1-0.3,0.3C25.1,124.8,25.2,124.9,25.4,124.9
			z"/>
	</g>
</g>
<g>
	<path class="st16" d="M32.8,58.4c0.7,3.9,4.4,4.3,4,7.3c-0.5,3,1.2,5.6,3.9,5.4c2.7-0.2,4.7-0.6,5.5,2.6c0.8,3.2,4.5,5.2,6.3,3
		c0.5-0.6,0.9-1.1,1.4-1.7c0.1-0.2,0.3-0.3,0.4-0.5c0,0,0.1-0.1,0.1-0.1c1.9-2.4,1.8-5.8-0.3-8c-0.9-0.9-2-1.4-3.3-1.2
		c-4.2,0.7-2.3-3.2-4.5-5.3c-2.6-2.3-5.2-0.4-7-2.3C36.9,54.9,32.1,54.5,32.8,58.4z"/>
	<g>
		<path class="st17" d="M37.5,60.7L53.9,75c0.1-0.2,0.3-0.3,0.4-0.5L37.9,60.2c-0.1-0.1-0.3-0.1-0.4,0
			C37.3,60.4,37.3,60.6,37.5,60.7z"/>
	</g>
</g>
<g>
	<path class="st19" d="M37.7,41.2c-0.7,4.8,3.6,6.7,1.9,10.1c-1.7,3.4-0.8,7,2.5,7.8c3.3,0.8,5.7,1.1,5.5,5.2
		c-0.2,4,3.3,7.8,6.2,5.9c0.7-0.5,1.5-1,2.3-1.5c0.2-0.1,0.4-0.3,0.6-0.4c0,0,0.1-0.1,0.1-0.1c3.1-2,4.3-6.1,2.6-9.5
		c-0.7-1.4-1.8-2.4-3.4-2.7c-5.2-0.8-1.4-4.6-3.2-7.9c-2.1-3.7-6-2.4-7.2-5.4C43.9,38.6,38.4,36.3,37.7,41.2z"/>
	<g>
		<path class="st16" d="M42.3,45.5l13.8,23c0.2-0.1,0.4-0.3,0.6-0.4l-13.8-23c-0.1-0.2-0.3-0.2-0.5-0.1
			C42.2,45.1,42.2,45.4,42.3,45.5z"/>
	</g>
</g>
<path class="st19" d="M112.2,55.5c4.1-1.9,7.7-4.5,5.6-5.9c-2.1-1.4-8.1,3.2-10.8,8.4l-1.3,1.5c2-3.7,2.4-9,0.5-10
	c-1.9-0.9-1.8,2.6-1.3,5.9c0.4,2.5,0.2,4.2-0.1,5l-6.3,7.3c3.2-5.9,3.8-14.3,0.8-15.7c-3-1.5-2.9,4.2-2,9.3c0.7,3.9,0.3,6.6-0.1,8
	l-1.2,1.5c0.2,0.3,0.4,0.5,0.7,0.8l7.4-8.7c0.9-0.3,2.3-0.5,4-0.5c3.3,0.1,6.8-0.4,5.6-2.1c-1-1.5-5-0.8-8.3,1l2.6-3
	C109.1,57.5,110.5,56.4,112.2,55.5z"/>
<path class="st20" d="M14.7,139H9.9c-0.7,0-1.2-0.7-1.4-1.8l-2-11c-0.1-0.5,0.1-0.9,0.4-1c3.7-0.5,7.4-0.5,11,0c0.3,0,0.4,0.5,0.4,1
	l-2,11C15.9,138.3,15.3,139,14.7,139z"/>
<path class="st21" d="M17.7,126c0,0.3-2.4,0.5-5.4,0.5c-3,0-5.4-0.2-5.4-0.5c0-0.3,2.4-0.5,5.4-0.5C15.3,125.5,17.7,125.7,17.7,126z
	"/>
<path class="st18" d="M21.4,111.1c-2.9-0.8-7.3,5.2-8.6,11.1v-8.5c0.7-1.2,2-3,4.3-4.9c3.6-2.9,7-6.7,4.1-7.5
	c-2.7-0.7-6.8,4.5-8.3,10v-10.9c0.5-0.7,1.2-1.7,2.5-2.7c2.3-1.9,4.4-4.2,2.6-4.7c-1.6-0.4-3.9,2.4-5,5.5V95
	c0.2-1.1,0.5-2.7,1.2-4.3c1.7-3.7,2.6-7.5,0.4-7.2c-2.2,0.3-3.7,6.9-2.4,11.9v1.8c-0.8-3.7-3.6-7.5-5.5-7.1C4.6,90.6,6.7,93,9,94.9
	c1.7,1.4,2.5,2.7,2.9,3.5v8.6c-1.3-5.9-5.7-11.9-8.6-11.2c-2.9,0.8,0.4,4.5,4.1,7.5c2.7,2.2,4,4.3,4.6,5.5V119
	c-1.4-5.8-5.7-11.6-8.6-10.8c-2.9,0.8-0.4,3.5,3.7,6.9c2.8,2.3,4.2,4.7,4.9,6v4.9c0.3,0.1,0.6,0.1,0.9,0V124
	c0.6-1.1,1.9-3.2,4.6-5.4C20.9,115.6,24.3,111.9,21.4,111.1z"/>
<ellipse transform="matrix(0.2567 -0.9665 0.9665 0.2567 -42.2098 141.9025)" class="st1" cx="71.2" cy="98.4" rx="41" ry="41"/>
<g>
	<path class="st22" d="M104.8,112.1c-1.8,4.3-4.4,8.3-7.7,11.6c-3.3,3.4-7.2,6-11.5,7.9c-4.5,1.9-9.2,3-14.1,3
		c-1.9,0-3.8-0.1-5.6-0.4c-2.9-0.4-5.8-1.2-8.6-2.3c-0.5-0.2-1-0.4-1.5-0.7c-3.7-1.7-7.1-4.1-10.1-7c-0.5-0.5-0.9-1-1.4-1.4
		c-2.7-3-4.9-6.3-6.5-10c-1-2.2-1.7-4.5-2.2-6.8c-0.3-1.2-0.4-2.4-0.6-3.6c0,0,0,0,0,0c-0.1-1.2-0.2-2.4-0.2-3.7
		c-0.1-4.9,0.9-9.7,2.7-14.2c1.8-4.3,4.4-8.3,7.7-11.6c3.3-3.4,7.1-6,11.5-7.9c4.5-1.9,9.2-3,14.1-3c2.5,0,4.9,0.2,7.3,0.6
		c2.3,0.4,4.6,1.1,6.9,2c3.7,1.5,7.1,3.6,10.2,6.3c0.5,0.4,1,0.9,1.5,1.4c3,2.9,5.4,6.2,7.2,9.9c0.2,0.5,0.5,1,0.7,1.5
		c1.2,2.7,2,5.6,2.5,8.5c0.2,1.4,0.4,2.8,0.4,4.2c0,0.5,0,0.9,0,1.4C107.5,102.9,106.6,107.7,104.8,112.1z"/>
	<path class="st9" d="M104.8,112.1c-1.8,4.3-4.4,8.3-7.7,11.6c-3.3,3.4-7.2,6-11.5,7.9c-4.5,1.9-9.2,3-14.1,3
		c-1.9,0-3.8-0.1-5.6-0.4c-2.9-0.4-5.8-1.2-8.6-2.3c-0.5-0.2-1-0.4-1.5-0.7c-3.7-1.7-7.1-4.1-10.1-7c-0.5-0.5-0.9-1-1.4-1.4
		c-2.7-3-4.9-6.3-6.5-10c-1-2.2-1.7-4.5-2.2-6.8c-0.3-1.2-0.4-2.4-0.6-3.6c0,0,0,0,0,0c0-0.5,0-1,0-1.5c-0.1-4.9,0.9-9.7,2.7-14.2
		c1.8-4.3,4.4-8.3,7.7-11.6c3.3-3.4,7.2-6,11.5-7.9c4.5-1.9,9.2-3,14.1-3c2.5,0,4.9,0.2,7.3,0.6c2.4,0.4,4.6,1.1,6.9,2
		c3.7,1.5,7.1,3.6,10.1,6.3c0.5,0.4,1,0.9,1.5,1.4c3,2.9,5.4,6.2,7.2,9.9c0.2,0.5,0.5,1,0.7,1.5c1.2,2.7,2,5.6,2.5,8.5
		c0.1,0.7,0.2,1.3,0.3,2c0,0.5,0,0.9,0,1.4C107.5,102.9,106.6,107.7,104.8,112.1z"/>
	<g>
		<g>
			<g>
				<path class="st21" d="M70.9,75.6L70.9,75.6c-0.3,0-0.6-0.3-0.6-0.6l-0.1-5.6c0-0.3,0.3-0.6,0.6-0.6l0,0c0.3,0,0.6,0.3,0.6,0.6
					l0.1,5.6C71.5,75.3,71.2,75.6,70.9,75.6z"/>
			</g>
			<g>
				<path class="st21" d="M71.5,128L71.5,128c-0.3,0-0.6-0.3-0.6-0.6l-0.1-5.6c0-0.3,0.3-0.6,0.6-0.6l0,0c0.3,0,0.6,0.3,0.6,0.6
					l0.1,5.6C72.1,127.7,71.8,128,71.5,128z"/>
			</g>
		</g>
		<g>
			<g>
				<path class="st21" d="M48.4,98.7L48.4,98.7c0,0.3-0.3,0.6-0.6,0.6l-5.6,0.1c-0.3,0-0.6-0.3-0.6-0.6l0,0c0-0.3,0.3-0.6,0.6-0.6
					l5.6-0.1C48.1,98,48.4,98.3,48.4,98.7z"/>
			</g>
			<g>
				<path class="st21" d="M100.8,98.1L100.8,98.1c0,0.3-0.3,0.6-0.6,0.6l-5.6,0.1c-0.3,0-0.6-0.3-0.6-0.6l0,0c0-0.3,0.3-0.6,0.6-0.6
					l5.6-0.1C100.5,97.5,100.7,97.7,100.8,98.1z"/>
			</g>
		</g>
		<g>
			<g>
				<g>
					<path class="st21" d="M87.1,82.1L87.1,82.1c-0.2-0.2-0.2-0.6,0-0.9l3.9-4c0.2-0.2,0.6-0.2,0.9,0l0,0c0.2,0.2,0.2,0.6,0,0.9
						l-3.9,4C87.7,82.3,87.3,82.3,87.1,82.1z"/>
				</g>
			</g>
			<g>
				<path class="st21" d="M50.5,119.6L50.5,119.6c-0.2-0.2-0.2-0.6,0-0.9l3.9-4c0.2-0.2,0.6-0.2,0.9,0l0,0c0.2,0.2,0.2,0.6,0,0.9
					l-3.9,4C51.1,119.8,50.7,119.8,50.5,119.6z"/>
			</g>
		</g>
		<g>
			<g>
				<path class="st21" d="M54.9,82.5L54.9,82.5c-0.2,0.2-0.6,0.2-0.9,0l-4-3.9c-0.2-0.2-0.2-0.6,0-0.9l0,0c0.2-0.2,0.6-0.2,0.9,0
					l4,3.9C55.1,81.8,55.1,82.2,54.9,82.5z"/>
			</g>
			<g>
				<path class="st21" d="M92.3,119.1L92.3,119.1c-0.2,0.2-0.6,0.2-0.9,0l-4-3.9c-0.2-0.2-0.2-0.6,0-0.9l0,0c0.2-0.2,0.6-0.2,0.9,0
					l4,3.9C92.6,118.5,92.6,118.8,92.3,119.1z"/>
			</g>
		</g>
		<g>
			<path class="st20" d="M81.7,102.8l-11.1-4.2l0.4-1l11.1,4.2c0.3,0.1,0.4,0.4,0.3,0.7l0,0C82.2,102.8,81.9,102.9,81.7,102.8z"/>
		</g>
		<g>
			<path class="st21" d="M71.7,98.9l-18.5,0.2c-0.3,0-0.5-0.2-0.5-0.5l0,0c0-0.3,0.2-0.5,0.5-0.5l17.5-0.2l-0.2-14.3
				c0-0.3,0.2-0.5,0.5-0.5l0,0c0.3,0,0.5,0.2,0.5,0.5L71.7,98.9z"/>
		</g>
	</g>
</g>
<g>
	<path class="st23" d="M76.3,40.6l2.9,11c0,0-2.6,1.2-6.6,1.4c-0.4,0-0.8,0-1.2,0c-0.4,0-0.8,0-1.1,0c-4-0.1-6.7-1.1-6.7-1.1
		l3.1-11.3l-3-9.2l5.5-2.1l4,0l6.1,2.2L76.3,40.6z"/>
	<path class="st23" d="M63.8,31.4c0,0-3,4.1-2.7,9.1c0.3,4.6,3.7,7.6,3.7,7.6l1.4-2.2c0,0-1.5-2.7-1.6-5.4c-0.1-2.7,0.7-4.3,0.7-4.3
		L63.8,31.4z"/>
	<path class="st23" d="M79.4,31.5c0,0,2.7,4,3,8.6c0.3,4.6-3.3,8.1-3.3,8.1l-1.4-2.2c0,0,1.3-2.4,1.4-5.2c0.1-2.7-1.5-4.6-1.5-4.6
		L79.4,31.5z"/>
	<g>
		<path class="st24" d="M71.8,40.1c0,0.3-0.2,0.5-0.5,0.5c-0.3,0-0.5-0.2-0.5-0.5c0-0.3,0.2-0.5,0.5-0.5
			C71.6,39.6,71.8,39.8,71.8,40.1z"/>
		<path class="st24" d="M71.8,42.6c0,0.3-0.2,0.5-0.5,0.5c-0.3,0-0.5-0.2-0.5-0.5s0.2-0.5,0.5-0.5C71.6,42.1,71.8,42.3,71.8,42.6z"
			/>
	</g>
	<polygon class="st24" points="69.3,29.3 67.2,30.1 67.9,33.3 69.3,33.3 68.3,34.5 69.3,37.4 71.3,37.3 	"/>
	<polygon class="st24" points="73.3,29.3 75.4,30.1 74.7,33.2 73.3,33.3 74.4,34.5 73.3,37.4 71.3,37.3 	"/>
	
		<rect x="73.6" y="46.5" transform="matrix(0.9349 -0.3549 0.3549 0.9349 -11.7281 29.7663)" class="st24" width="3.4" height="0.8"/>
	
		<rect x="66" y="46.5" transform="matrix(-0.9382 -0.346 0.346 -0.9382 114.9307 114.2868)" class="st24" width="3.4" height="0.8"/>
	<polygon class="st9" points="73.3,29.3 71.3,37.3 69.3,29.3 	"/>
	<path class="st9" d="M72.7,53c-0.4,0-0.8,0-1.2,0c-0.4,0-0.8,0-1.1,0l1.1-7.5L72.7,53z"/>
</g>
<g>
	<path class="st25" d="M63.4,54.7c0,0,3.6,3.6,8.4,3.6c5.9,0,8.4-3,8.4-3l-0.9-3.8l-15.8,0.3L63.4,54.7z"/>
	<g>
		<g>
			<path class="st26" d="M74.5,78.3c0,0-0.3-0.3-0.5,1.3c-0.2,1.5,0,3.8,0,3.8l0.7,0l0-1.9c0,0,1.7,3.7,4.4,3.4
				c2.6-0.3-2.1-6.6-2.1-6.6L74.5,78.3z"/>
			<path class="st27" d="M77,78.2c0,0,1.8,3.5,1.5,4.2c-0.5,1-3.3-1.1-4-4.2L77,78.2z"/>
		</g>
	</g>
</g>
<path class="st25" d="M72.1,56.7c-0.1-0.5,0-1.1,0.1-1.6c0.3-1.9,1.4-5.7,4.6-5.2c4.2,0.6,2.9,8.6,2.9,8.6L77,78.2l-2.7,0.1
	C74.3,78.3,73.2,66.8,72.1,56.7z"/>
<path class="st25" d="M59.3,49.9c0,0,3.9,5.8,8.3,8.1c4.7,2.4,6.9-2,6.9-2S64,48.6,59.3,49.9z"/>
<g>
	<path class="st20" d="M80.1,48.9H63l-1.6-9.2c-0.1-0.8,0.5-1.5,1.3-1.5h17.6c0.8,0,1.4,0.7,1.3,1.5L80.1,48.9z"/>
	<path class="st28" d="M78.3,50.9H64.8c-1,0-1.8-0.8-1.8-1.8v-0.2h17.1v0.2C80.1,50.1,79.3,50.9,78.3,50.9z"/>
	<path class="st28" d="M73.2,43.9c0,0.8-0.7,1.5-1.5,1.5s-1.5-0.7-1.5-1.5c0-0.8,0.7-1.5,1.5-1.5S73.2,43.1,73.2,43.9z"/>
</g>
<g>
	<g>
		<path class="st26" d="M88.1,58.7c0.7,0,1.4-0.1,1.8-0.5c0.9-0.8,1.8-2.1,2.2-2.7c0.1-0.1,0-0.3-0.2-0.3c-0.6,0-1.7,0.1-2.9,0.1
			c-1.2,0-2.3,0-2.8,0c-0.5,0-1.2-0.1-1.9,0c0,0,0,0,0,0c-0.9,0.1-1.7,0.2-1.9,0.5c0,0,0,0.1,0,0.1c0,0-0.2,0.9,0.4,1.3
			c0.4,0.3,2.5,1.8,3.8,2.7l0.5-0.6l-1.5-1.2c0,0,1.1,0.4,2.2,0.4L88.1,58.7z"/>
		<path class="st27" d="M82.7,56.1c0.2,0.1,0.4,0.1,0.6,0.2c0,0,0.1,0,0.1,0c1.5,0.4,3.8,0.7,4.8,0.3c1.3-0.6,0.8-1.2,0.8-1.2
			c-1.2,0-2.3,0-2.8,0c-0.5,0-1.2-0.1-1.9,0c0,0,0,0,0,0s-1,0-1.4-0.1C82.9,55.2,82.3,55.7,82.7,56.1z"/>
	</g>
	<path class="st21" d="M65,45.4c0,0-3.2-1.9-5.9,0c-2.7,1.9,0.2,5.4,3.1,6.6c2.9,1.2,20.6,5.4,20.6,5.4c0.3-0.6,0.5-0.9,0.8-2.1
		c0,0-5.5-3.3-8.4-5.1C68.6,45.9,65,45.4,65,45.4z"/>
</g>
<g>
	<path class="st25" d="M67.5,23.8c0,0-1.7-2.9-0.3-5.1c1.4-2.2,4.5-2,5.2-1.8c0.8,0.2,5.3,2.3,2.6,7.4L67.5,23.8z"/>
	<g>
		<path class="st29" d="M67.8,23c0,0-0.7-0.9-1.2-0.2c-0.5,0.8,0.2,3,1.5,2.4L67.8,23z"/>
		<g>
			<path class="st30" d="M67.7,24.6c0,0-0.1,0-0.1-0.1c-0.2-0.7-0.9-1-0.9-1c-0.1,0-0.1-0.1-0.1-0.1c0-0.1,0.1-0.1,0.1-0.1
				c0,0,0.8,0.3,1,1.1C67.9,24.5,67.8,24.6,67.7,24.6C67.8,24.6,67.8,24.6,67.7,24.6z"/>
		</g>
		<g>
			<g>
				<g>
					<path class="st30" d="M67,24.2C67,24.2,67,24.2,67,24.2c-0.1,0-0.1-0.1-0.1-0.2c0,0,0.1-0.2,0.4-0.3c0.1,0,0.1,0,0.1,0.1
						c0,0.1,0,0.1-0.1,0.1C67.2,24,67.1,24.2,67,24.2C67.1,24.2,67.1,24.2,67,24.2z"/>
				</g>
			</g>
		</g>
	</g>
	<g>
		<path class="st29" d="M74.8,23c0,0,0.7-0.9,1.2-0.2s-0.2,3-1.5,2.4L74.8,23z"/>
		<g>
			<path class="st30" d="M74.8,24.6c0,0,0.1,0,0.1-0.1c0.2-0.7,0.9-1,0.9-1c0.1,0,0.1-0.1,0.1-0.1c0-0.1-0.1-0.1-0.1-0.1
				c0,0-0.8,0.3-1,1.1C74.7,24.5,74.7,24.6,74.8,24.6C74.8,24.6,74.8,24.6,74.8,24.6z"/>
		</g>
		<g>
			<g>
				<g>
					<path class="st30" d="M75.5,24.2C75.5,24.2,75.6,24.2,75.5,24.2c0.1,0,0.1-0.1,0.1-0.2c0,0-0.1-0.2-0.4-0.3
						c-0.1,0-0.1,0-0.1,0.1c0,0.1,0,0.1,0.1,0.1C75.3,24,75.4,24.2,75.5,24.2C75.5,24.2,75.5,24.2,75.5,24.2z"/>
				</g>
			</g>
		</g>
	</g>
	<path class="st27" d="M73,27.2v2.2c0,0-0.7,1.1-1.6,1.2c-0.9,0.1-1.7-1-1.7-1v-2.3L73,27.2z"/>
	<path class="st29" d="M73,27.2v1c-0.6,0.7-1.7,0.8-3.2,0.6v-1.4L73,27.2z"/>
	<path class="st27" d="M75.3,21.5c0,0.9-0.1,1.9-0.3,2.8c0,0.2-0.1,0.4-0.1,0.6c-0.5,1.6-1.6,4.4-4.9,3.3c-1.4-0.5-2.1-2.1-2.4-3.8
		c-0.2-1.1-0.2-2.2-0.2-3c0-0.8,0.5-1.6,1.2-2c1.9-1.1,4-0.7,5.3-0.2C74.7,19.6,75.3,20.5,75.3,21.5z"/>
	<path class="st25" d="M70.4,18.3c0,0,4.3,6.9,4.9,4.4C76.1,19.1,73.6,16.9,70.4,18.3z"/>
	<path class="st25" d="M70.2,18.3c-2.9,0-4.3,3.3-3,3.7c1.8,0.5,3.5-2.1,3.9-3C70.9,18.8,70.5,18.5,70.2,18.3z"/>
	<circle class="st25" cx="72.6" cy="16.8" r="2.8"/>
	<path class="st25" d="M67.8,21.7c0,0,0.3,0.9,0,1.4c-0.3,0.6-0.2,1.6-0.1,2.7c0,0-0.5-0.7-0.5-1.8c0-1.1,0.2-2,0-2.4L67.8,21.7z"/>
	<path class="st25" d="M74.6,21.7c0,0-0.2,0.9,0.1,1.4c0.3,0.6,0.1,1.6,0,2.7c0,0,0.5-0.7,0.5-1.8c0-1.1-0.2-2,0-2.4L74.6,21.7z"/>
	<path class="st25" d="M69.8,23.2c0,0.2-0.1,0.4-0.3,0.4c-0.2,0-0.3-0.2-0.3-0.4c0-0.2,0.1-0.4,0.3-0.4C69.7,22.8,69.8,23,69.8,23.2
		z"/>
	<path class="st25" d="M73.2,23.2c0,0.2-0.1,0.4-0.3,0.4c-0.2,0-0.3-0.2-0.3-0.4c0-0.2,0.1-0.4,0.3-0.4C73.1,22.8,73.2,23,73.2,23.2
		z"/>
	<path class="st25" d="M69,21.8c0.2-0.1,0.7-0.2,1.2-0.2c0.1,0,0.2,0.1,0.2,0.2l0,0c0,0.1-0.1,0.2-0.2,0.2c-0.3,0-1.2,0-1.6,0.2
		c0-0.1,0-0.1,0.1-0.2C68.8,21.9,68.9,21.9,69,21.8z"/>
	<path class="st25" d="M73.4,21.9c-0.2-0.1-0.7-0.2-1.2-0.2c-0.1,0-0.2,0.1-0.2,0.2l0,0c0,0.1,0.1,0.2,0.2,0.2c0.3,0,1.2,0,1.6,0.2
		c0-0.1,0-0.1-0.1-0.2C73.7,22,73.6,21.9,73.4,21.9z"/>
	<g>
		<g>
			<g>
				<path class="st29" d="M71.3,25.1c-0.1,0-0.2,0-0.2-0.1c-0.1,0-0.1-0.1-0.2-0.3c0-0.4,0.1-1.6,0.1-1.7c0-0.1,0.1-0.1,0.1-0.1
					c0.1,0,0.1,0.1,0.1,0.1c0,0-0.1,1.2-0.1,1.6c0,0.1,0,0.1,0.1,0.1c0.1,0.1,0.3,0,0.4,0c0.1,0,0.1,0,0.1,0.1c0,0.1,0,0.1-0.1,0.1
					C71.7,25,71.5,25.1,71.3,25.1z"/>
			</g>
		</g>
	</g>
	<path class="st31" d="M70,25.7c0.1,0.4,0.3,1.1,1.2,1.1c0.9,0,1.1-0.7,1.2-1.1H70z"/>
	<g>
		<path class="st29" d="M71.2,27.5c-0.3,0-0.5-0.1-0.5-0.1c0,0-0.1-0.1,0-0.1c0,0,0.1-0.1,0.1,0l0,0c0,0,0.2,0.1,0.4,0.1
			c0.2,0,0.4-0.1,0.4-0.1c0,0,0.1,0,0.1,0c0,0,0,0.1,0,0.1C71.7,27.3,71.5,27.5,71.2,27.5z"/>
	</g>
	<g>
		<g>
			<path class="st9" d="M70.8,22.9c0-0.1,0-0.1-0.1-0.2c-0.1-0.2-0.3-0.3-0.5-0.3h-1.8c-0.1,0-0.3,0.1-0.4,0.2
				C68,22.6,68,22.6,68,22.7c0,0.1,0,0.1,0,0.2v0.2c0,0.4,0.2,0.8,0.4,1c0.3,0.3,0.6,0.4,0.9,0.4h0c0.4,0,0.8-0.2,1-0.4
				c0.3-0.3,0.4-0.7,0.4-1.1L70.8,22.9C70.8,22.9,70.8,22.9,70.8,22.9z M70.6,23.1c0,0.3-0.1,0.7-0.4,0.9c-0.2,0.2-0.6,0.4-0.9,0.4
				h0c-0.3,0-0.5-0.1-0.8-0.3c-0.2-0.2-0.4-0.5-0.4-0.9v-0.2c0-0.2,0.1-0.3,0.3-0.3h1.8c0.2,0,0.3,0.1,0.3,0.3V23.1z"/>
		</g>
		<g>
			<path class="st9" d="M74.6,22.7c0-0.1-0.1-0.1-0.1-0.2c-0.1-0.1-0.2-0.2-0.4-0.2h-1.8c-0.2,0-0.4,0.1-0.5,0.3c0,0.1,0,0.1,0,0.2
				c0,0,0,0,0,0v0.2c0,0.4,0.2,0.8,0.4,1c0.3,0.3,0.6,0.4,0.9,0.4h0c0.4,0,0.8-0.2,1-0.4c0.3-0.3,0.4-0.7,0.4-1.1v-0.2
				C74.6,22.8,74.6,22.8,74.6,22.7z M74.4,23.1c0,0.3-0.1,0.7-0.4,0.9c-0.2,0.2-0.6,0.4-0.9,0.4h0c-0.3,0-0.5-0.1-0.8-0.3
				c-0.2-0.2-0.4-0.5-0.4-0.9v-0.2c0-0.2,0.1-0.3,0.3-0.3h1.8c0.2,0,0.3,0.1,0.3,0.3V23.1z"/>
		</g>
		<g>
			<path class="st9" d="M70.7,22.9l-0.1-0.2c0,0,0.3-0.1,0.6-0.1c0.4,0,0.6,0.1,0.6,0.1l-0.1,0.2c0,0-0.2-0.1-0.5-0.1
				C71,22.8,70.7,22.9,70.7,22.9z"/>
		</g>
	</g>
</g>
<g>
	<path class="st16" d="M104.5,139.1h14.3c0-0.7-0.3-1.4-0.8-1.9c-0.5-0.5-1.1-0.8-1.9-0.8h0c0,0-3-0.4-3-2.9v-14.8h-2.9v14.8
		c0,2.5-3,2.9-3,2.9h0C105.7,136.4,104.5,137.6,104.5,139.1z"/>
	<polygon class="st17" points="110.2,118.7 110.2,119.3 113.1,120.2 113.1,118.7 	"/>
	<path class="st26" d="M97.9,118.7h27.5c-0.5-2.5-2.6-4.3-5.2-4.3l-8.6,0l-8.6,0C100.5,114.4,98.4,116.2,97.9,118.7z"/>
</g>
<g>
	<g>
		<path class="st28" d="M115.9,86.5c0.7,2.7,4.3,9.6,5.8,10.6c1.8,1.3,7.6,3.7,10.6,5c0.5,0.2-1.5,2.6-1.5,2.6s-7.7-2-10.9-4
			c-0.9-0.6-2.8-2.5-5.3-6.4c-0.7-1.2-2.5-3.5-2.6-5.2C111.7,87.2,113.9,85.9,115.9,86.5z"/>
	</g>
	<g>
		<g>
			<g>
				<path class="st27" d="M124.5,132.6l-0.1,2.9c0,0,0.7,0.5,2.2,0.3l0.6-3.1L124.5,132.6z"/>
				<g>
					<path class="st24" d="M125.9,135.8c0,0,0.5-0.6,0.8-0.6c0.4,0,3.3,2.2,4.2,2.4c1,0.2,0.9,1.4,0.5,1.5c-0.4,0.2-7.7,0-7.7,0
						s-0.3-2.6,0-3.3C124.1,135.2,125.2,135.9,125.9,135.8z"/>
				</g>
			</g>
			<path class="st25" d="M116.9,108c0,0,11.2-1.8,14.6,0.3c2.5,1.6-4,25-4,25c-1.2,0.4-2.8,0.2-3.5-0.3c0,0-1-3.1-0.1-11.2
				c0.1-1.1,0-3.5,1.1-7.8l-8.5-3.8L116.9,108z"/>
			<path class="st32" d="M128.1,131.6c0,0-0.1,1.4-0.3,1.9c0,0-3.2,0.6-4.3-0.7l0.1-1.4C123.7,131.4,126.3,132,128.1,131.6z"/>
		</g>
		<g>
			<path class="st20" d="M107,83.1c0,0-3.1,1-4.8,2.5c-1.7,1.5-0.3,5.8-0.3,8.3c0,2.5,0.4,16.8,3.9,18.6c2.7,1.4,13.9-0.7,13.1-4.4
				c-0.5-2.4-1.6-6.9-2.3-13c-0.5-4-0.3-6.9-0.7-8.6c-0.4-1.7-5.6-3.6-5.6-3.6L107,83.1z"/>
			<g>
				<path class="st28" d="M107.9,105.4c-0.1,0-0.1,0-0.1-0.1c0-0.1,0-0.1,0.1-0.1c4.2-0.5,5.9-7.7,5.9-7.8c0-0.1,0.1-0.1,0.1-0.1
					c0.1,0,0.1,0.1,0.1,0.1C114,97.7,112.2,104.9,107.9,105.4C107.9,105.4,107.9,105.4,107.9,105.4z"/>
			</g>
			<g>
				<path class="st28" d="M109.6,103.2C109.5,103.2,109.5,103.2,109.6,103.2c-0.1-0.1-0.1-0.2-0.1-0.2c2.2-1.4,2.6-3.4,2.6-3.4
					c0-0.1,0.1-0.1,0.1-0.1c0.1,0,0.1,0.1,0.1,0.1C112.3,99.7,111.9,101.8,109.6,103.2C109.6,103.2,109.6,103.2,109.6,103.2z"/>
			</g>
			<g>
				<polygon class="st9" points="113.2,101 111.7,105.2 109,101.3 108.8,88.6 108.8,88 109.5,87.9 109.6,88.7 				"/>
				<polygon class="st33" points="109.6,88.7 109.3,89.2 108.8,88.6 108.8,88 109.5,87.9 				"/>
				<polygon class="st9" points="107.7,87.2 109.2,88.7 110.2,87.2 108.9,85 				"/>
			</g>
			<path class="st28" d="M107,82.9l-0.4,0.3c-0.1,0.1-0.2,0.2-0.3,0.3c-0.3,0.3-0.4,0.5-0.3,1c0,0.1,0,0.1,0.1,0.2l0,0l1,4l2.1-3.9
				C109,84.8,107.4,84.7,107,82.9z"/>
			<path class="st28" d="M110.4,82.8c0,0,1.4,1.3,1.1,2.6l-1,2.6l-1.7-3C108.9,85,110.2,84.4,110.4,82.8z"/>
		</g>
		<g>
			<path class="st25" d="M114.2,76.4c-0.4,2.5-2.8,4.2-5.3,3.7c-2.5-0.4-4.2-2.8-3.7-5.3c0.4-2.5,2.8-4.2,5.3-3.7
				C113,71.5,114.6,73.9,114.2,76.4z"/>
			<path class="st25" d="M114.3,75.6c0,0,1.3-0.1,1.4-1.4c0-1.1-1.3-0.6-1.1-1.4c0.3-0.8,0.6-1.5-0.4-1.9c-0.9-0.3-1,0.3-2.1-0.9
				c-1.3-1.4-2.8,1-4.1,0.8c-1.9-0.2-2.4,0.8-2.7,1.6c-0.3,0.8,0.3,1.6,0.3,1.6L114.3,75.6z"/>
			<g>
				<path class="st29" d="M113.2,77.5c0,0,0.9-0.8,1.3,0.1c0.4,0.9-0.8,3.1-2,2.3L113.2,77.5z"/>
				<g>
					<path class="st30" d="M112.9,79.2c0,0,0.1,0,0.1-0.1c0.3-0.7,1.1-0.8,1.1-0.8c0.1,0,0.1-0.1,0.1-0.1c0-0.1-0.1-0.1-0.1-0.1
						c0,0-0.9,0.2-1.3,1C112.8,79.1,112.9,79.1,112.9,79.2C112.9,79.2,112.9,79.2,112.9,79.2z"/>
				</g>
				<g>
					<g>
						<path class="st30" d="M113.8,79C113.8,79,113.8,79,113.8,79c0.1,0,0.1-0.1,0.1-0.2c0,0-0.1-0.2-0.4-0.4c-0.1,0-0.1,0-0.2,0
							c0,0.1,0,0.1,0,0.2C113.6,78.7,113.7,78.9,113.8,79C113.7,78.9,113.7,78.9,113.8,79z"/>
					</g>
				</g>
			</g>
			<path class="st27" d="M107.3,81l-0.4,2.3c0,0,0.4,1.5,1.8,1.7c0.9,0.1,1.6-1,1.6-1l0.4-2.2L107.3,81z"/>
			<path class="st29" d="M107.3,81l-0.2,1c0.5,0.8,1.6,1.2,3.3,1.2l0.3-1.5L107.3,81z"/>
			<path class="st27" d="M105.9,74.6c-0.1,0.9-0.2,2-0.2,3c0,0.2,0,0.5,0,0.6c0.2,1.8,0.9,4.9,4.5,4.3c1.6-0.3,2.6-1.8,3.2-3.5
				c0.4-1.1,0.7-2.3,0.8-3.1c0.1-0.9-0.2-1.7-0.9-2.3c-1.8-1.5-4-1.4-5.5-1.2C106.8,72.7,106,73.5,105.9,74.6z"/>
			<path class="st25" d="M111.5,77.5c0,0.2,0,0.5,0.2,0.5c0.2,0,0.3-0.1,0.4-0.4c0-0.2,0-0.5-0.2-0.5
				C111.7,77.1,111.5,77.3,111.5,77.5z"/>
			<path class="st25" d="M108.1,76.9c0,0.2,0,0.5,0.2,0.5c0.2,0,0.3-0.1,0.4-0.4c0-0.2,0-0.5-0.2-0.5
				C108.3,76.5,108.2,76.7,108.1,76.9z"/>
			<path class="st25" d="M112.9,76.4c0,0-1.1-0.7-2.1-0.4l0,0.4c0,0,1,0,1.9,0.5C112.9,76.6,113,76.6,112.9,76.4z"/>
			<path class="st25" d="M107.5,75.4c0,0,1.3-0.3,2.1,0.3l-0.2,0.4c0,0-0.9-0.4-2-0.2C107.5,75.7,107.4,75.6,107.5,75.4z"/>
			<g>
				<g>
					<g>
						<path class="st29" d="M109.6,79c-0.2,0-0.4-0.1-0.4-0.2c-0.1,0-0.1-0.1,0-0.2c0-0.1,0.1-0.1,0.2,0c0.1,0.1,0.3,0.2,0.4,0.1
							c0,0,0.1,0,0.1-0.1c0.1-0.4,0.2-1.7,0.2-1.7c0-0.1,0.1-0.1,0.1-0.1c0.1,0,0.1,0.1,0.1,0.1c0,0.1-0.1,1.3-0.2,1.7
							c0,0.1-0.1,0.2-0.2,0.2C109.7,79,109.7,79,109.6,79z"/>
					</g>
				</g>
			</g>
			<path class="st9" d="M110.8,79.9c-0.2,0.4-0.6,1.2-1.6,1c-1-0.2-1.2-1-1.2-1.5L110.8,79.9z"/>
			<g>
				<path class="st29" d="M109.1,81.5c-0.3-0.1-0.5-0.2-0.5-0.2c0,0-0.1-0.1,0-0.2c0,0,0.1-0.1,0.2,0c0,0,0.2,0.2,0.4,0.2
					c0.2,0,0.4,0,0.4,0c0.1,0,0.1,0,0.1,0.1c0,0.1,0,0.1-0.1,0.1C109.7,81.5,109.4,81.6,109.1,81.5z"/>
			</g>
			<path class="st25" d="M113.2,78.3c0.2-0.4,0.3-1,0.3-1.3c0-0.5-0.4-0.9-0.2-1.4c0.2-0.5-0.2-1.1-0.6-1.3
				c-0.4-0.2-1.3-0.1-2.2-0.7c-0.8-0.6-2.4-0.5-2.7,0c-0.4,0.6,0,0.8-1,1.4c-0.4,0.2-0.1,1.1-0.2,1.6c0,0.2,0,0.3-0.1,0.6l0,0.1
				l-1-0.2c0-0.8,0.1-1.6,0.2-2.4c0.1-1,0.9-1.9,2-2.1c1.5-0.3,3.7-0.3,5.5,1.2c0.7,0.6,1,1.4,0.9,2.3c-0.1,0.7-0.3,1.5-0.6,2.4
				L113.2,78.3z"/>
			<g>
				<path class="st27" d="M106,77.4c0-0.3,0.1-0.5,0.1-0.8c0-0.4,0-0.7-0.4-0.9c-0.3-0.2-0.6-0.2-0.8,0.1c-0.7,0.7-0.5,3.2,0.9,2.9
					L106,77.4z"/>
				<g>
					<g>
						<g>
							<path class="st29" d="M105.7,78c0,0-0.1-0.1-0.1-0.1c0.1-0.8-0.5-1.3-0.5-1.3c0,0,0-0.1,0-0.2c0,0,0.1,0,0.2,0
								c0,0,0.7,0.6,0.6,1.5C105.8,78,105.8,78,105.7,78C105.7,78,105.7,78,105.7,78z"/>
						</g>
					</g>
				</g>
				<g>
					<g>
						<g>
							<path class="st29" d="M105.1,77.4C105.1,77.4,105.1,77.3,105.1,77.4c-0.1-0.1-0.1-0.2,0-0.2c0,0,0.2-0.1,0.5-0.2
								c0.1,0,0.1,0,0.1,0.1c0,0.1,0,0.1-0.1,0.1c-0.2,0-0.4,0.1-0.4,0.1C105.2,77.4,105.1,77.4,105.1,77.4z"/>
						</g>
					</g>
				</g>
			</g>
		</g>
		<g>
			<g>
				<path class="st27" d="M118.2,132.6l-0.2,3.2c0,0,0.9,0.2,2.3-0.1l0.6-3.1L118.2,132.6z"/>
				<g>
					<path class="st23" d="M119.7,135.8c0,0,0.5-0.6,0.8-0.6c0.4,0,3.3,2.2,4.2,2.4c1,0.2,0.9,1.4,0.5,1.5c-0.4,0.2-7.7,0-7.7,0
						s-0.3-2.6,0-3.3C117.9,135.2,119,135.9,119.7,135.8z"/>
				</g>
			</g>
			<path class="st21" d="M103.4,108.2c0,0,19.4-1.1,22.7,0c2.9,0.9-5,25.2-5,25.2c-1.2,0.4-2.8-0.1-3.4-0.8c0,0-0.6-1.4,0.4-9.5
				c0.1-1.1,0.3-4.4,1.4-8.7l-12.9,0.1c-2.8,0-3.6-2.3-3.3-5.1L103.4,108.2z"/>
			<path class="st34" d="M121.8,132.4c0,0-0.2,1-0.4,1.5c0,0-2.4,0.4-4.1-0.9l0.1-1.5C117.5,131.6,119.8,132.4,121.8,132.4z"/>
		</g>
	</g>
	<g>
		<path class="st27" d="M122.1,102.3c0,0,2.9,0.5,4.1,1.5s2.9,1.9,2.6,2.4c-0.2,0.5-2-0.6-2-0.6s-0.4,0.9-1.8,1.4
			c-1.4,0.4-4.4-2-4.4-2L122.1,102.3z"/>
		<g>
			<g>
				<path class="st28" d="M102.9,85.1c1.6,2.5,7.9,11,9.3,12c1.8,1.3,7,4,9.9,5.2c0.5,0.2-1.2,2.8-1.2,2.8s-7.4-2.4-10.5-4.4
					c-0.9-0.6-4.6-4.3-7-7.6c-0.8-1.1-2.1-2.7-2.3-4.4C100.9,86.8,101.5,85.8,102.9,85.1z"/>
			</g>
		</g>
	</g>
	<g>
		<path class="st24" d="M118.3,108.2h14.4c0.5,0,0.9-0.4,0.9-0.9v-0.2c0-0.5-0.4-0.9-0.9-0.9h-14.4c-0.5,0-0.9,0.4-0.9,0.9v0.2
			C117.3,107.8,117.7,108.2,118.3,108.2z"/>
		<path class="st23" d="M136.3,108.2l3.3-12.4c0.2-0.7-0.3-1.4-1.1-1.4h-7.3c-0.5,0-0.9,0.3-1.1,0.8l-3.6,12.9H136.3z"/>
		<path class="st24" d="M130.2,95.3l-3.6,12.8h-0.8l3.6-12.8c0.1-0.5,0.6-0.8,1.1-0.8h0.8C130.8,94.5,130.3,94.8,130.2,95.3z"/>
		<path class="st24" d="M132.1,101.9c-0.2,0.8,0.3,1.5,1.1,1.5c0.8,0,1.6-0.7,1.8-1.5c0.2-0.8-0.3-1.5-1.1-1.5
			C133.1,100.4,132.3,101.1,132.1,101.9z"/>
	</g>
</g>
</svg>
