<?xml version="1.0" encoding="utf-8"?>
<!-- Generator: Adobe Illustrator 21.0.0, SVG Export Plug-In . SVG Version: 6.00 Build 0)  -->
<svg version="1.1" id="Layer_1" xmlns="http://www.w3.org/2000/svg" xmlns:xlink="http://www.w3.org/1999/xlink" x="0px" y="0px"
	 viewBox="0 0 300 140" style="enable-background:new 0 0 300 140;" xml:space="preserve">
<style type="text/css">
	.st0{fill:none;}
	.st1{fill:#D86713;}
	.st2{fill:#F99746;}
	.st3{fill:#F1A34F;}
	.st4{opacity:0.4;fill:#D86713;}
	.st5{fill:#ED7D2B;}
	.st6{fill:#6B6BED;}
	.st7{fill:#E4EDF9;}
	.st8{fill:#AFAFF9;}
	.st9{fill:#E9F3FE;}
	.st10{fill:#CAE0FF;}
	.st11{fill:#D2E3FC;}
	.st12{fill:#1C468A;}
	.st13{fill:#78ACEA;}
	.st14{fill:#FFFFFF;}
	.st15{fill:#A8D29F;}
	.st16{fill:#D68D5D;}
	.st17{fill:#E49963;}
	.st18{fill:#4A75CB;}
	.st19{fill:#2B478B;}
	.st20{fill:#2A175E;}
	.st21{fill:#303030;}
	.st22{fill:#3F1D89;}
	.st23{fill:#EE9849;}
	.st24{fill:#757FEF;}
	.st25{fill:#2B876F;}
	.st26{fill:#FFB27D;}
	.st27{fill:#E2915A;}
	.st28{fill:#233862;}
	.st29{fill:#3F4293;}
	.st30{fill:#F4A269;}
	.st31{fill:#C65447;}
	.st32{fill:#B5453C;}
	.st33{fill:#9E332E;}
	.st34{fill:#FAFDFF;}
	.st35{fill:#F2F2F2;}
	.st36{fill:#AFCDFB;}
	.st37{fill:#5D4BC9;}
	.st38{fill:#FCA56B;}
	.st39{fill:#163560;}
</style>
<g>
	<rect class="st0" width="300" height="140"/>
	<path class="st1" d="M115.1,61.7l-6.4,73.5c0,0-0.7,4.5,2.8,4.5c5.7,0,28.1,0,28.1,0s-4.3-0.9-4.2-3c0.1-2.5,7.5-75.6,7.5-75.6
		L115.1,61.7z"/>
	<path class="st2" d="M141.5,138.3c-1.1,0-22.6,0.1-28.1,0c-2.4,0-2.8-2.1-2.8-3.4c0-0.6,0.1-1.1,0.1-1.1l0.2-1.9l0.4-4.9l0.4-4.3
		l0.5-5.5l0.4-4.7l4.6-52.2l27.8-0.7c0,0-3.1,30.6-5.3,52.9c-0.2,2.5-0.5,4.9-0.7,7.1c-0.1,0.7-0.1,1.4-0.2,2.1
		c-0.2,2.1-0.4,4-0.6,5.8c-0.1,0.9-0.2,1.7-0.2,2.5c-0.3,3-0.4,4.9-0.5,5.3c0,0.2,0,0.4,0.1,0.6C137.8,138.2,141,138.3,141.5,138.3z
		"/>
	<polygon class="st2" points="47.7,21.7 63.3,82.2 65.4,90.4 72.7,118.6 207.9,118.6 181.1,21.7 	"/>
	<polygon class="st2" points="47.7,21.7 45.5,22.4 69.8,120.7 72.7,118.6 	"/>
	<polygon class="st1" points="69.8,120.7 204.2,120.7 207.9,118.6 72.7,118.6 	"/>
	
		<rect x="117" y="138.3" transform="matrix(-1 -1.224647e-16 1.224647e-16 -1 263.0904 277.9084)" class="st3" width="29.1" height="1.3"/>
	<polygon class="st3" points="201.3,100.7 179.4,23 48,23 47.7,21.7 181.1,21.7 202.9,100.6 	"/>
	<polygon class="st1" points="138.7,120.7 138.5,121.7 111.2,127 111.6,122.7 111.7,120.7 	"/>
	<path class="st4" d="M141.5,138.3c-1.1,0-22.6,0.1-28.1,0c-2.4,0-2.8-2.1-2.8-3.4l27.2-4.9c-0.3,3-0.4,4.9-0.5,5.3
		c0,0.2,0,0.4,0.1,0.6C137.8,138.2,141,138.3,141.5,138.3z"/>
	<polygon class="st5" points="132.1,99 72.7,118.6 65.4,90.4 	"/>
	<polygon class="st6" points="47.7,21.7 181.1,21.7 202.7,99.6 67.8,99.6 	"/>
	<path class="st1" d="M143.9,109.4c-0.4-1.9-2.3-3.5-4.3-3.5c-2,0-3.3,1.5-2.9,3.5c0.4,1.9,2.3,3.5,4.3,3.5
		C143,112.9,144.3,111.3,143.9,109.4z"/>
	<polygon class="st7" points="196.4,96.2 71.5,96.2 57.4,41.9 56.3,37.8 55.3,34.2 53.2,25.9 176.3,25.9 178.7,34.2 179.7,37.8 
		180.9,41.9 	"/>
	<polygon class="st8" points="178.7,34.2 55.3,34.2 53.2,25.9 176.3,25.9 	"/>
	<g>
		<path class="st9" d="M58.3,29.6c-0.1-0.6,0.2-1,0.8-1c0.6,0,1.2,0.5,1.3,1c0.1,0.6-0.2,1-0.8,1C59,30.7,58.4,30.2,58.3,29.6z"/>
		<path class="st9" d="M61.9,29.6c-0.1-0.6,0.2-1,0.8-1c0.6,0,1.2,0.5,1.3,1c0.1,0.6-0.2,1-0.8,1C62.6,30.7,62,30.2,61.9,29.6z"/>
		<path class="st9" d="M65.7,29.6c-0.1-0.6,0.2-1,0.8-1c0.6,0,1.2,0.5,1.3,1c0.1,0.6-0.2,1-0.8,1C66.5,30.7,65.9,30.2,65.7,29.6z"/>
	</g>
	<polygon class="st10" points="168.9,91.4 76.4,91.4 62.3,38.2 153.5,38.2 	"/>
	<polygon class="st11" points="180.9,50.5 159.9,50.5 156.1,38.2 177.3,38.2 	"/>
	<polygon class="st12" points="124.3,43.3 112.3,43.3 111.8,41.6 123.8,41.6 	"/>
	<polygon class="st13" points="145.6,43.3 125.9,43.3 125.4,41.6 145.1,41.6 	"/>
	<polygon class="st13" points="126.3,48.1 105,48.1 104.5,46.4 125.8,46.4 	"/>
	<polygon class="st3" points="139.3,48.1 128.2,48.1 127.7,46.4 138.8,46.4 	"/>
	<polygon class="st6" points="127.9,56.4 115.9,56.4 115.4,54.6 127.4,54.6 	"/>
	<polygon class="st13" points="149.2,56.4 129.6,56.4 129.1,54.6 148.7,54.6 	"/>
	<polygon class="st14" points="129.9,61.2 108.6,61.2 108.2,59.4 129.4,59.4 	"/>
	<polygon class="st14" points="142.9,61.2 131.8,61.2 131.4,59.4 142.4,59.4 	"/>
	<polygon class="st12" points="117,68.6 76.4,68.6 76,66.9 116.6,66.9 	"/>
	<polygon class="st6" points="131.6,68.6 119.6,68.6 119.1,66.9 131.1,66.9 	"/>
	<polygon class="st13" points="152.9,68.6 133.3,68.6 132.8,66.9 152.4,66.9 	"/>
	<polygon class="st14" points="89.8,73.4 77.8,73.4 77.3,71.7 89.3,71.7 	"/>
	<polygon class="st3" points="133.7,73.4 112.4,73.4 111.9,71.7 133.2,71.7 	"/>
	<polygon class="st13" points="111.1,73.4 91.4,73.4 90.9,71.7 110.6,71.7 	"/>
	<polygon class="st13" points="146.6,73.4 135.6,73.4 135.1,71.7 146.1,71.7 	"/>
	<polygon class="st12" points="121.7,81.9 81.1,81.9 80.6,80.1 121.2,80.1 	"/>
	<polygon class="st6" points="136.2,81.9 124.2,81.9 123.8,80.1 135.8,80.1 	"/>
	<polygon class="st14" points="94.4,86.7 82.4,86.7 81.9,84.9 93.9,84.9 	"/>
	<polygon class="st3" points="138.3,86.7 117,86.7 116.5,84.9 137.8,84.9 	"/>
	<polygon class="st13" points="115.7,86.7 96,86.7 95.5,84.9 115.2,84.9 	"/>
	<polygon class="st13" points="151.2,86.7 140.2,86.7 139.7,84.9 150.7,84.9 	"/>
	<g>
		<polygon class="st13" points="170.4,54.4 161.2,54.4 161,53.6 170.2,53.6 		"/>
		<polygon class="st13" points="175.3,54.4 171.8,54.4 171.6,53.6 175.1,53.5 		"/>
		<polygon class="st13" points="182.3,54.3 176.2,54.4 176,53.5 182.1,53.5 		"/>
		<polygon class="st13" points="166.8,56.4 161.7,56.4 161.5,55.6 166.6,55.6 		"/>
		<polygon class="st13" points="174.2,56.4 167.6,56.4 167.4,55.6 174,55.6 		"/>
		<polygon class="st13" points="182.8,56.4 175.4,56.4 175.2,55.6 182.6,55.6 		"/>
	</g>
	<g>
		<polygon class="st13" points="171.5,58.7 162.3,58.8 162.1,58 171.3,57.9 		"/>
		<polygon class="st13" points="176.4,58.7 172.9,58.7 172.7,57.9 176.2,57.9 		"/>
		<polygon class="st13" points="183.4,58.7 177.3,58.7 177.1,57.9 183.2,57.9 		"/>
		<polygon class="st13" points="167.9,60.8 162.8,60.8 162.6,60 167.7,60 		"/>
		<polygon class="st13" points="175.3,60.8 168.7,60.8 168.5,60 175.1,60 		"/>
		<polygon class="st13" points="184,60.7 176.5,60.8 176.3,60 183.7,59.9 		"/>
	</g>
	<g>
		<polygon class="st14" points="164.3,39.9 158.7,39.9 158.6,39.4 164.2,39.4 		"/>
		<polygon class="st14" points="167.2,39.9 165.1,39.9 165,39.4 167.1,39.4 		"/>
		<polygon class="st14" points="171.5,39.9 167.8,39.9 167.6,39.4 171.3,39.4 		"/>
		<polygon class="st14" points="162.1,41.1 159,41.1 158.9,40.6 162,40.6 		"/>
		<polygon class="st14" points="166.5,41.1 162.6,41.1 162.5,40.6 166.4,40.6 		"/>
		<polygon class="st14" points="171.8,41.1 167.3,41.1 167.1,40.6 171.7,40.6 		"/>
	</g>
	<g>
		<polygon class="st14" points="165,42.5 159.4,42.5 159.3,42 164.8,42 		"/>
		<polygon class="st14" points="167.9,42.5 165.8,42.5 165.7,42 167.8,42 		"/>
		<polygon class="st14" points="172.1,42.5 168.4,42.5 168.3,42 172,42 		"/>
		<polygon class="st14" points="162.8,43.7 159.7,43.7 159.6,43.3 162.6,43.3 		"/>
		<polygon class="st14" points="167.2,43.7 163.3,43.7 163.1,43.3 167.1,43.2 		"/>
		<polygon class="st14" points="172.4,43.7 167.9,43.7 167.8,43.2 172.3,43.2 		"/>
	</g>
	<g>
		<polygon class="st13" points="173.4,66.2 164.2,66.2 164,65.4 173.2,65.4 		"/>
		<polygon class="st13" points="178.3,66.2 174.8,66.2 174.6,65.4 178.1,65.4 		"/>
		<polygon class="st13" points="185.3,66.1 179.2,66.2 179,65.4 185.1,65.3 		"/>
		<polygon class="st13" points="169.8,68.2 164.7,68.3 164.5,67.4 169.6,67.4 		"/>
		<polygon class="st13" points="177.1,68.2 170.6,68.2 170.4,67.4 176.9,67.4 		"/>
		<polygon class="st13" points="185.8,68.2 178.4,68.2 178.1,67.4 185.6,67.4 		"/>
	</g>
	<g>
		<polygon class="st13" points="175.3,73.5 166,73.5 165.8,72.7 175.1,72.7 		"/>
		<polygon class="st13" points="180.1,73.5 176.7,73.5 176.5,72.7 179.9,72.7 		"/>
		<polygon class="st13" points="187.2,73.5 181,73.5 180.8,72.7 187,72.6 		"/>
		<polygon class="st13" points="171.6,75.5 166.6,75.6 166.4,74.7 171.4,74.7 		"/>
		<polygon class="st13" points="179,75.5 172.5,75.5 172.3,74.7 178.8,74.7 		"/>
		<polygon class="st13" points="187.7,75.5 180.2,75.5 180,74.7 187.5,74.7 		"/>
	</g>
	<g>
		<polygon class="st13" points="176.9,80.1 167.7,80.1 167.5,79.3 176.7,79.3 		"/>
		<polygon class="st13" points="181.8,80.1 178.3,80.1 178.1,79.3 181.6,79.2 		"/>
		<polygon class="st13" points="188.8,80 182.7,80 182.5,79.2 188.6,79.2 		"/>
		<polygon class="st13" points="173.3,82.1 168.2,82.1 168,81.3 173.1,81.3 		"/>
		<polygon class="st13" points="180.7,82.1 174.1,82.1 173.9,81.3 180.5,81.3 		"/>
		<polygon class="st13" points="189.4,82.1 181.9,82.1 181.7,81.3 189.1,81.3 		"/>
	</g>
	<g>
		<g>
			<g>
				<path class="st15" d="M181.3,89.9c-1.5,0-3-1.2-3.5-2.6c-0.4-1.4,0.4-2.6,1.9-2.6c1.5,0,3,1.2,3.5,2.6
					C183.6,88.7,182.8,89.9,181.3,89.9z M179.9,85.1c-1.2,0-1.9,0.9-1.6,2.1c0.4,1.2,1.6,2.1,2.8,2.1c1.2,0,1.9-0.9,1.6-2.1
					S181.1,85.1,179.9,85.1z"/>
			</g>
			<g>
				<path class="st15" d="M180.8,88.6c-0.1,0-0.2,0-0.3-0.1l-1.5-1.2c-0.2-0.2-0.3-0.4-0.2-0.6c0.1-0.2,0.4-0.1,0.6,0l1.1,0.8
					l0.5-1.2c0.1-0.2,0.3-0.2,0.5-0.1c0.2,0.1,0.3,0.4,0.3,0.6l-0.7,1.6C181.1,88.5,181,88.6,180.8,88.6
					C180.9,88.6,180.9,88.6,180.8,88.6z"/>
			</g>
		</g>
		<g>
			<g>
				<path class="st3" d="M188.7,89.9c-1.5,0-3-1.2-3.5-2.6c-0.4-1.4,0.4-2.6,1.9-2.6c1.5,0,3,1.2,3.5,2.6
					C191,88.7,190.2,89.9,188.7,89.9z M187.3,85.1c-1.2,0-1.9,0.9-1.6,2.1s1.6,2.1,2.8,2.1c1.2,0,1.9-0.9,1.6-2.1
					C189.8,86.1,188.5,85.1,187.3,85.1z"/>
			</g>
			<g>
				<path class="st3" d="M188.1,87.7L188.1,87.7c-0.2,0-0.4-0.2-0.5-0.4l-0.3-1.1c-0.1-0.2,0.1-0.4,0.3-0.4l0,0
					c0.2,0,0.4,0.2,0.5,0.4l0.3,1.1C188.4,87.5,188.3,87.7,188.1,87.7z"/>
				<path class="st3" d="M188.4,88.5L188.4,88.5c-0.3,0-0.5-0.1-0.5-0.3l0,0c-0.1-0.2,0.1-0.3,0.2-0.3h0.1c0.2,0,0.4,0.1,0.4,0.3
					l0,0C188.6,88.4,188.5,88.5,188.4,88.5z"/>
			</g>
		</g>
	</g>
	<g>
		<g>
			<g>
				<path class="st15" d="M173,49.3c-0.8,0-1.7-0.6-1.9-1.4c-0.2-0.8,0.2-1.4,1-1.4c0.8,0,1.7,0.6,1.9,1.4
					C174.3,48.7,173.8,49.3,173,49.3z M172.2,46.8c-0.7,0-1,0.5-0.9,1.2c0.2,0.6,0.9,1.2,1.6,1.2c0.7,0,1-0.5,0.9-1.2
					C173.6,47.3,172.9,46.8,172.2,46.8z"/>
			</g>
			<g>
				<path class="st15" d="M172.8,48.6c-0.1,0-0.1,0-0.2-0.1l-0.8-0.6c-0.1-0.1-0.2-0.2-0.1-0.3c0.1-0.1,0.2-0.1,0.3,0l0.6,0.5
					l0.3-0.7c0-0.1,0.2-0.1,0.3,0c0.1,0.1,0.2,0.2,0.1,0.3l-0.4,0.9C172.9,48.6,172.9,48.6,172.8,48.6
					C172.8,48.6,172.8,48.6,172.8,48.6z"/>
			</g>
		</g>
		<g>
			<g>
				<path class="st15" d="M168.8,49.3c-0.8,0-1.7-0.6-1.9-1.4c-0.2-0.8,0.2-1.4,1-1.4s1.7,0.6,1.9,1.4
					C170.1,48.7,169.6,49.3,168.8,49.3z M168,46.8c-0.7,0-1,0.5-0.9,1.2c0.2,0.6,0.9,1.2,1.6,1.2c0.7,0,1-0.5,0.9-1.2
					C169.4,47.3,168.7,46.8,168,46.8z"/>
			</g>
			<g>
				<path class="st15" d="M168.5,48.6c-0.1,0-0.1,0-0.2-0.1l-0.8-0.6c-0.1-0.1-0.2-0.2-0.1-0.3c0.1-0.1,0.2-0.1,0.3,0l0.6,0.5
					l0.3-0.7c0-0.1,0.2-0.1,0.3,0c0.1,0.1,0.2,0.2,0.1,0.3l-0.4,0.9C168.7,48.6,168.6,48.6,168.5,48.6
					C168.6,48.6,168.6,48.6,168.5,48.6z"/>
			</g>
		</g>
		<g>
			<g>
				<path class="st15" d="M164.4,49.3c-0.8,0-1.7-0.6-1.9-1.4c-0.2-0.8,0.2-1.4,1-1.4c0.8,0,1.7,0.6,1.9,1.4
					C165.7,48.7,165.2,49.3,164.4,49.3z M163.6,46.8c-0.7,0-1,0.5-0.9,1.2c0.2,0.6,0.9,1.2,1.6,1.2c0.7,0,1-0.5,0.9-1.2
					C165,47.3,164.3,46.8,163.6,46.8z"/>
			</g>
			<g>
				<path class="st15" d="M164.2,48.6c-0.1,0-0.1,0-0.2-0.1l-0.8-0.6c-0.1-0.1-0.2-0.2-0.1-0.3c0.1-0.1,0.2-0.1,0.3,0l0.6,0.5
					l0.3-0.7c0-0.1,0.2-0.1,0.3,0c0.1,0.1,0.2,0.2,0.1,0.3l-0.4,0.9C164.3,48.6,164.3,48.6,164.2,48.6
					C164.2,48.6,164.2,48.6,164.2,48.6z"/>
			</g>
		</g>
		<g>
			<g>
				<path class="st3" d="M177.1,49.3c-0.8,0-1.7-0.6-1.9-1.4c-0.2-0.8,0.2-1.4,1-1.4c0.8,0,1.7,0.6,1.9,1.4
					C178.4,48.7,177.9,49.3,177.1,49.3z M176.3,46.8c-0.7,0-1,0.5-0.9,1.2c0.2,0.6,0.9,1.2,1.6,1.2c0.7,0,1-0.5,0.9-1.2
					C177.7,47.3,177,46.8,176.3,46.8z"/>
			</g>
			<g>
				<path class="st3" d="M176.7,48.2L176.7,48.2c-0.1,0-0.2-0.1-0.3-0.2l-0.2-0.6c0-0.1,0-0.2,0.1-0.2l0,0c0.1,0,0.2,0.1,0.3,0.2
					l0.2,0.6C176.9,48.1,176.8,48.2,176.7,48.2z"/>
				<path class="st3" d="M176.9,48.6L176.9,48.6c-0.1,0-0.3-0.1-0.3-0.2l0,0c0-0.1,0-0.2,0.1-0.2h0c0.1,0,0.2,0.1,0.2,0.2l0,0
					C177,48.6,177,48.6,176.9,48.6z"/>
			</g>
		</g>
	</g>
	<path class="st16" d="M24,63.8c0,0-0.1,0.9-0.4,2.5c-2.5-0.8-3.6-2.9-4-3.9c-0.1-0.3-0.2-0.4-0.2-0.4s0.1,0,0.3-0.1
		c0.4-0.1,1-0.2,1.7-0.3L24,63.8z"/>
	<g>
		<path class="st17" d="M39.6,88.7c0,0,2.2,0.5,3.6,0.1c1.4-0.4,3.8,0.3,4.2,0.8c0.4,0.5,0.2,0.7-0.5,0.9c-0.7,0.2-3.2,1.2-4.8,0.6
			c-1.6-0.6-3.8-0.6-3.8-0.6L39.6,88.7z"/>
		<path class="st18" d="M20.4,70.1c0,0,2.5,17.1,6.6,18.6c2,0.8,11.1,2.5,13.7,2.6c0,0,0.7-0.5,0.5-2.6c0,0-9.4-3.3-10.8-5.2
			c-2-2.7,1.2-11-1.3-13.6C26.6,67.5,22.4,66.4,20.4,70.1z"/>
	</g>
	<path class="st19" d="M22.2,137.9h0.4c0.8,0,1.5-0.7,1.5-1.5v-26.1c0-0.8-0.7-1.5-1.5-1.5h-0.4c-0.8,0-1.5,0.7-1.5,1.5v26.1
		C20.7,137.2,21.4,137.9,22.2,137.9z"/>
	<path class="st19" d="M11.7,139.8c1.1-2.2,5.5-3.9,10.7-3.9s9.5,1.7,10.7,3.9H11.7z"/>
	<path class="st19" d="M14.8,132.2H30c0.3,0,0.5-0.2,0.5-0.5v-0.1c0-0.3-0.2-0.5-0.5-0.5H14.8c-0.3,0-0.5,0.2-0.5,0.5v0.1
		C14.3,132,14.5,132.2,14.8,132.2z"/>
	<path class="st20" d="M21.2,106.1c0.7,1.2,1.6,2.3,2.4,3.4c2.7,3.3,5.6,6,6.1,8.5c0.1,0.5,0.3,1.1,0.5,1.6c0.2,0.6,0.5,1.2,0.8,1.8
		c1.1,2.4,2.8,5.1,4.5,7.5c2.9,4.2,5.7,7.7,5.7,7.7l5.1-0.2c-0.2-0.5-2.4-6.3-5.4-13.4c-1.2-2.9-2.5-5.9-3.7-8.9
		c-0.2-0.4-0.3-0.8-0.5-1.2c-0.4-0.9-0.7-1.8-1.1-2.7c-2.8-6.6-5-11.9-5-11.9s-11.1-4-12.3-1.4C17.4,99.1,18.2,101.2,21.2,106.1z"/>
	<path class="st21" d="M41.4,135.7c0,0,0.3,4,1.1,4.1c0.1,0,4.1,0,4.1,0l5.1,0c0,0,0-1.2-1.5-1.4c-1.5-0.3-4-1.3-4.9-3.2
		C44.3,133.2,41.4,135.7,41.4,135.7z"/>
	<path class="st21" d="M29.7,124.2c0,0-3.5,2.2-3.2,2.9c0,0.1,2,3.5,2,3.5l2.5,4.3c0,0,1.1-0.6,0.6-2c-0.5-1.4-0.8-4,0.5-5.7
		C33.4,125.4,29.7,124.2,29.7,124.2z"/>
	<path class="st22" d="M34.6,96.6c0,0,13.7,8.2,15.3,13.9c1.6,5.6-18.5,17.6-18.5,17.6s-2.2-1.9-2.6-3.2c0,0,9.1-10.5,11.1-12.8
		c1.2-1.4-17.9-5-20.2-8.5c-2.3-3.5-1.5-6.4-1.5-6.4L34.6,96.6z"/>
	<path class="st23" d="M10.5,114.7h23.7c1.9,0,3.4-1.5,3.4-3.4v-0.6c0-1.9-1.5-3.4-3.4-3.4H10.5c-1.9,0-3.4,1.5-3.4,3.4v0.6
		C7.1,113.1,8.7,114.7,10.5,114.7z"/>
	<path class="st17" d="M28,67.2c1.4,0.8,2.1,1.9,2.1,1.9c-3.3,0.8-8.9-2.1-8.9-2.1s2.1-1.4,2.9-4.4c0-0.2,0.1-0.3,0.1-0.5
		c0.1-0.5,0.2-1.1,0.2-1.7l1.5,1.3l2.5,2.2c0,0-0.1,0.9-0.4,2.5C28.1,66.6,28.1,66.8,28,67.2z"/>
	<path class="st24" d="M17.7,82.3c0.5,6.2-0.2,15.6,0.4,17.2c0.5,1.4,5.8,0.6,7.9,0.1c0.8-0.2,1.7-0.4,2.7-0.7
		c2.7-0.8,5.7-2,6.1-2.9c0,0,0-0.1,0-0.1c0-0.1,0-0.2,0-0.4c-0.1-0.4-0.5-0.9-0.6-2c-0.1-1.2,0-2.7-0.1-4.2c0-0.2,0-0.4,0-0.5l0-0.1
		c0,0,0-0.1,0-0.1c0-1.7-0.1-3.5-0.2-5.4c-0.1-1.1-0.1-2.3-0.2-3.3c-0.2-2.8-0.6-5.2-1-6.8C32,70.7,30.4,69,29,67.8L28,67
		c-1.1,0.2-2.5,0.1-3.7-0.5c-1.3-0.6-1.8-1-2-0.9C19.3,67.9,17.1,74.8,17.7,82.3z"/>
	<path class="st18" d="M28.8,99c2.7-0.8,5.7-2,6.1-2.9c0,0,0-0.1,0-0.1c0-0.1,0-0.2,0-0.4c-0.1-0.4-0.5-0.9-0.6-2
		c-0.1-1.2,0-2.7-0.1-4.2c0-0.2,0-0.4,0-0.5l0-0.1c0,0,0-0.1,0-0.1l-10.4-4.5C23.8,84.2,23.2,92.2,28.8,99z"/>
	<path class="st17" d="M29.6,63.8c0,0-5.5,0.6-5.8-2.7c-0.3-3.3-1.3-5.4,2.2-5.9c3.5-0.5,4.3,0.7,4.7,1.7C31,58,31,63.5,29.6,63.8z"
		/>
	<path class="st19" d="M23.8,61.3c0,0,0.3-4.4,5.3-4.8c3.4-0.3,1.5-3.1,1.1-3.6c0,0-2.6,0.3-5.3,0.8C19.4,54.6,23.2,60.6,23.8,61.3z
		"/>
	<g>
		<polygon class="st18" points="50.3,93 50.8,93.1 54.8,81 54.3,80.9 		"/>
		<polygon class="st18" points="36.9,92 50.8,92.3 50.8,93.1 36.9,92.8 		"/>
	</g>
	<g>
		<path class="st24" d="M38.4,91.3c0,0,2.1,0.8,3.6,0.5c1.5-0.3,3.8,0.7,4.1,1.2c0.3,0.5,0.2,0.7-0.5,0.8c-0.7,0.1-3.3,0.8-4.8,0.1
			c-1.6-0.8-3.7-1-3.7-1L38.4,91.3z"/>
		<path class="st24" d="M21.5,70.8c0,0,0.5,17.3,4.5,19.2c1.9,1,10.7,3.6,13.3,4.1c0,0,0.7-0.4,0.8-2.5c0,0-9-4.3-10.1-6.3
			c-1.7-2.9,2.5-10.8,0.3-13.6C28,68.9,23.9,67.3,21.5,70.8z"/>
	</g>
	<path class="st21" d="M166.4,139.2c0,0,0.2-1.5,0.7-2.4c0.5-0.9,3.4-0.3,3.4-0.3s0.6,0.5,0.7,2.8L166.4,139.2z"/>
	<path class="st21" d="M156.3,139.2c0.7-0.4,0.3-3.5,0.3-3.5s-3.2-2.5-3.7-0.6c-0.4,1.9-3.1,2.8-4.6,3c-1,0.2-1.4,0.7-1.5,1H156.3z"
		/>
	<path class="st22" d="M163,117c-0.1,0.7-0.2,1.3-0.2,1.7c-0.3,5.7-4.9,18.6-5.8,18.9c-1.3,0.5-3.3-0.5-4.4-0.9
		c-0.4-0.1-0.7-0.6-0.6-1c2.3-10.2,3.1-24.9,3.5-33.5c0.2-4.4,0.9-7.4,0.9-7.4s11.3-2.9,11.4,0.8C167.9,98.9,164.1,111.7,163,117z"
		/>
	<path class="st20" d="M163,117l-7.6-14.8c0.2-4.4,0.9-7.4,0.9-7.4s11.3-2.9,11.4,0.8C167.9,98.9,164.1,111.7,163,117z"/>
	<path class="st22" d="M160.5,95.6l6,41.8c0,0,2.6,0.6,4.7,0.1c0,0,1.8-22.2,1.6-27.6c-0.1-5.4,1.3-14.4-0.3-15.4
		C170.9,93.6,160.5,95.6,160.5,95.6z"/>
	<path class="st25" d="M172.9,84.9l0.7,10c0,0.4-0.2,0.7-0.6,0.8c-0.8,0.2-1.8,0.4-3.7,0.8c-1.7,0.3-4.1,0.7-7,0.7
		c-4.6,0-6.3-1.5-6.3-1.5c-0.2,0,0.1-0.9,0.4-5.3c0.1-1.5,0.2-3.4,0.2-5.8c0.1-2.1,0.1-4.7,0.1-7.7c0-3.6,5.9-7.6,6-7.6l0,0
		c0,0.5,0.9,1.5,2.2,1.6c1.6,0.1,3.5-0.7,3.5-1.5c0,0,2.8,4.4,3.8,9c0.1,0.6,0.2,1.2,0.3,1.9c0,0,0,0,0,0c0,0.1,0,0.2,0,0.4
		c0,0,0,0,0,0.1c0,0.1,0,0.2,0,0.3c0,0,0,0.1,0,0.1c0,0.1,0,0.2,0,0.3c0,0,0,0,0,0c0,0.1,0,0.2,0,0.2c0,0.1,0,0.1,0,0.2
		c0,0.1,0,0.2,0,0.3c0,0,0,0.1,0,0.1c0,0.1,0,0.2,0,0.3c0,0,0,0.1,0,0.1c0,0.1,0,0.3,0,0.4c0,0,0,0,0,0c0,0.1,0,0.2,0,0.4
		c0,0,0,0.1,0,0.1c0,0.1,0,0.2,0,0.4c0,0,0,0,0,0.1C172.9,84.3,172.9,84.6,172.9,84.9C172.9,84.9,172.9,84.9,172.9,84.9L172.9,84.9z
		"/>
	<path class="st19" d="M162.8,69.3c0,0-5.4,0-6.8,1.7c-1.3,1.8-4.2,11.3-2.7,14.4c1.5,3.2,4.3-1.3,5.9-3.2
		C160.8,80.3,162.8,69.3,162.8,69.3z"/>
	<path class="st26" d="M162.7,68.5l0,0.5c0,0-0.2,1.7,2,1.9c2.2,0.2,3.8-0.7,3.7-2c-0.2-1-0.4-1.7-0.4-2.5c0-0.3,0-0.6,0.1-1
		l-4.2-0.1l-1.2,0.2L162.7,68.5z"/>
	<path class="st27" d="M162.7,65.6l0,2.9c0.4,0.2,0.9,0.3,1.5,0.3c1.9,0,3.2-1.4,3.8-2.4c0-0.3,0-0.6,0.1-1l-4.2-0.1L162.7,65.6z"/>
	<path class="st26" d="M168.5,64.9c-0.5,2.5-3.9,2.4-5.3,2.3c-0.4,0-0.7-0.1-0.7-0.1c-0.5-0.1-0.7-0.8-0.8-1.7
		c-0.2-1.8,0.1-4.5,0.4-5.2c0.5-1,1.4-2.1,4.8-1.3C170.2,59.6,169.1,61.6,168.5,64.9z"/>
	<path class="st28" d="M157.2,76.4c0,0-2.1,4.5-2,5.8c0,0,1,0,2,0.3C158.9,83,157.2,76.4,157.2,76.4z"/>
	<path class="st28" d="M161,57.7c0,0,1.5-0.1,3.3-0.9c1.4-0.6,3.2,0.1,3.8,0.4c0-0.1-0.1-0.2-0.1-0.3c0,0,0.3,0.2,0.3,0.4
		c0,0,0,0,0,0c0,0,0.3-0.1,0.5,0c0,0-0.1,0-0.2,0.1c0,0,0,0,0,0c2.2,1,2.4,4.4,1.7,5.2c-0.9,0.9-1.9,3.1-1.9,3.1s-0.4-0.5-0.2-1.3
		c0.2-0.8-0.6-0.8-1.5-1.2c-0.9-0.4-0.2-1.4-1-2.1c-0.8-0.6-3.9-0.3-3.8-0.8C160.7,60,161,57.8,161,57.7z"/>
	<path class="st28" d="M169.1,84.8c-0.9,3.4-10.5,5.2-12.7,5.6c0.1-1.5,0.2-3.4,0.2-5.8L169.1,84.8z"/>
	<path class="st26" d="M167,85.9c0.1,0,2.1-0.3,2.5-0.5c0.4-0.2,2-2.5,0.9-3.1c-1.1-0.6-4,1.8-4,1.8L167,85.9z"/>
	<path class="st19" d="M154.6,86.6c0,0,7.9,0.4,13.2-0.7c0,0,0.1-1.5-1.5-2.1c0,0-8.3-1.7-10.3-1.2C154,83.1,154.6,86.6,154.6,86.6z
		"/>
	<path class="st19" d="M172.8,80.6c-1.6,1.9-3.8,3.5-6.2,3.8l0,0c0,0-0.7-1-0.6-2.5c0.1-0.7,0.3-1.5,0.9-2.3
		c0.2-0.3,0.3-0.6,0.5-0.9c1.3-3.2,1.1-9.3,1.1-9.3s5.5,0.6,7.2,2.9C176.7,73.7,175.4,77.6,172.8,80.6z"/>
	<path class="st27" d="M163.1,67.1c-0.4,0-0.7-0.1-0.7-0.1c-0.5-0.1-0.7-0.8-0.8-1.7c0.9,0.2,1.3,0.9,1.4,1.1
		C163.1,66.5,163.1,66.8,163.1,67.1z"/>
	<path class="st26" d="M160.9,68.6c0,0-1.9-3-0.4-3.1c1.5-0.1,2.1,0.8,2.3,1.2c0.2,0.4-0.1,1.9-0.1,1.9L160.9,68.6z"/>
	<path class="st19" d="M168.1,81.8c-0.1,0.4-0.2,0.7-0.3,1c-0.5,1-1.2,1.6-1.2,1.6l0,0c-4.9-2.1-5.9-9.5-6.1-13.5
		c-0.1-1.6,0-2.7,0-2.7c2.2-0.7,2.8,0.5,2.8,0.5s2.6,6,4,9.9C167.9,80.2,168.2,81.4,168.1,81.8z"/>
	<path class="st28" d="M172.8,80.6c-1.6,1.9-3.8,3.5-6.2,3.8l0,0c-4.9-2.1-5.9-9.5-6.1-13.5c0,0,2.3,8.1,5.5,11
		c0.6,0.5,1.2,0.9,1.8,0.9c0,0,4-1.1,4.8-2.1C172.7,80.7,172.7,80.6,172.8,80.6z"/>
	<path class="st29" d="M299.6,140H0.4c-0.2,0-0.4-0.2-0.4-0.4l0,0c0-0.2,0.2-0.4,0.4-0.4h299.2c0.2,0,0.4,0.2,0.4,0.4v0
		C300,139.8,299.8,140,299.6,140z"/>
	<path class="st2" d="M243.7,132.4c1,3.5,8,5.5,15.8,6.7h28.9c7-3.3,7-7.2,7.5-18c1.2-22.4-11.1-33.2-16.5-31.4
		c-0.2,0.1-0.5,0.2-0.7,0.2c-1.6,0.6-3.4,1.7-5.1,4.3c0,0-5.4,8.7-9.9,13.9c-1.4,1.7-2.8,3-3.8,3.5c0,0,0,0,0,0
		c-0.1,0-0.1,0.1-0.2,0.1c-2.4,1-5.7,3.2-8.7,6c0,0,0,0,0,0C246.3,121.9,242.3,127.5,243.7,132.4z"/>
	<path class="st5" d="M251.1,117.6c4.1,1.2,24.9,7,29.8,0.8c3.6-4.5,1.3-15.9-0.6-23.3c-0.8-3-4.8-3.7-6.6-1.1c0,0,0,0.1-0.1,0.1
		c0,0-5.4,8.7-9.9,13.9c-1.3,1.6-2.6,2.9-3.8,3.5c0,0,0,0,0,0c-0.1,0-0.1,0.1-0.2,0.1C257.4,112.7,254.1,114.8,251.1,117.6z"/>
	<path class="st30" d="M266.6,89.4c0,0-1.4,2.1-2.3,6.4c-0.7,3.8-1.4,5.2-2.4,6c-1,0.8-6.9,3.1-6.9,3.1l0.4,1c0,0,8.5-1.1,9.5-2.5
		c1-1.4,4.6-9.5,4.3-11.3C269,90.1,266.6,89.4,266.6,89.4z"/>
	<g>
		<path class="st26" d="M246.8,134.7c0.1,0.8-1.1,1-2.4,1.1c-1.3,0.1-0.9,0.3-2.8,0.6c-1.8,0.3-2.6-0.2-2.7-0.4
			c-0.1-0.2,0.7-0.5,1.6-0.9c0.1,0,0.2-0.1,0.3-0.1c1-0.4,1.6-1.3,2.4-2.1c0.8-0.8,1.5-3.3,1.5-3.3l2.5-0.5c0,0-0.7,2.2-0.9,3.2
			c-0.1,0.6,0.1,1.2,0.3,1.7C246.7,134.1,246.8,134.4,246.8,134.7z"/>
		<path class="st31" d="M244.4,135.7c-1.3,0.1-0.9,0.3-2.8,0.6c-1.8,0.3-2.6-0.2-2.7-0.4c-0.1-0.2,0.7-0.5,1.6-0.9l0,0
			c0,0,1.3,0.4,2.8,0c1.2-0.3,2.4-1,3.2-1.2c0.1,0.3,0.2,0.5,0.2,0.8C246.9,135.5,245.8,135.7,244.4,135.7z"/>
	</g>
	<path class="st20" d="M270.6,106.2c0,0-16.6-1.2-19.7,0.7c-3.1,1.9-8.1,24-8.1,24s0.3,0.2,1,0.3c0.6,0.1,2.1-0.3,2.1-0.3
		s7.2-9.9,7.7-12.4c0.5-2.5,0.4-4.7,1.5-4.8c1.2-0.1,15.5,1.7,17.7-2c2.2-3.7,0.4-7.3,0.4-7.3L270.6,106.2z"/>
	<g>
		<path class="st26" d="M253.2,137.2c0.1,0.8-1.1,1-2.4,1.1c-1.3,0.1-0.9,0.3-2.8,0.6c-1.8,0.3-2.6-0.2-2.7-0.4
			c-0.1-0.2,0.7-0.5,1.6-0.9c0.1,0,0.2-0.1,0.3-0.1c1-0.4,1.6-1.3,2.4-2.1c0.8-0.8,1.5-3.3,1.5-3.3l2.5-0.5c0,0-0.7,2.2-0.9,3.2
			c-0.1,0.6,0.1,1.2,0.3,1.7C253.1,136.7,253.2,136.9,253.2,137.2z"/>
		<path class="st31" d="M250.8,138.3c-1.3,0.1-0.9,0.3-2.8,0.6c-1.8,0.3-2.6-0.2-2.7-0.4c-0.1-0.2,0.7-0.5,1.6-0.9l0,0
			c0,0,1.3,0.4,2.8,0c1.2-0.3,2.4-1,3.2-1.2c0.1,0.3,0.2,0.5,0.2,0.8C253.3,138,252.1,138.2,250.8,138.3z"/>
	</g>
	<path class="st22" d="M273.8,107.2c0,0-14.7,0.7-17.8,2.7c-3,2-7.2,24.3-7.2,24.3s0.3,0.2,1,0.3c0.6,0,2-0.4,2-0.4
		s6.8-10.2,7.2-12.7c0.4-2.5,0.2-4.7,1.3-4.8s15.6,1.1,17.6-2.7C280.1,110.1,273.8,107.2,273.8,107.2z"/>
	<path class="st32" d="M268.8,88.3c-0.3-0.5-0.6-1.4-0.9-2.9c0,0.2,0.5,2.1,1.3,3.2c3.4,1.9,10.2,8.4,10.1,9.7c0,0,2-3.7,2-3.8
		c0,0,3.7-5.2-1.3-7.8c-2.6-1.3-2.7-3.2-2.7-4.8c0-1.6-1.3-8.5-6-6.4c0,0-0.8-0.3-1.2-0.2c0,0,0.3,0,0.4,0.2c-0.6,0-1.4,0.1-2,0.5
		C266.8,77,265.8,86,268.8,88.3z"/>
	<path class="st26" d="M274.4,87c0,0-1.4-0.1-2.7,0c-0.9,0.1-1.9,0.4-2.4,0.6c-1.3,0.5-1.2,2.7,1.6,2.3
		C273.6,89.5,274.6,87.7,274.4,87z"/>
	<path class="st26" d="M269.4,88.6c0,0-0.4,1.9,1.4,1.8c1.2,0,3.7-1.4,3.5-2.4c-0.1-0.5-1-1.6-1.2-4.4l-0.2,0.1l-3.6,0.9
		c0,0,0.2,1.1,0.2,2.1C269.6,87.7,269.6,88.5,269.4,88.6z"/>
	<path class="st30" d="M269.3,84.7c0,0,0.2,1.1,0.2,2.1c2-0.2,3-2,3.4-3.1L269.3,84.7z"/>
	<path class="st32" d="M273.3,83.4c0,0,1-1.7,1.1-3.1c0.1-1-0.7-4.6-4.5-3.9c0,0-1.1,0.2-2.1,0.9c-0.8,0.6-1.9,1.8-0.3,5l0.4,1.1
		L273.3,83.4z"/>
	<path class="st26" d="M268.7,85.7c0,0,4.8-0.2,4.6-3.1c-0.2-2.9,0.3-4.9-2.8-4.8c-3.1,0-3.6,1.2-3.8,2.1
		C266.6,80.9,267.5,85.7,268.7,85.7z"/>
	<path class="st32" d="M268.4,77.8c0,0,1.6,3.3,3.6,3.7c2.1,0.4,2.9-0.2,2.9-0.2s-1.6-1.1-2.1-3.1C272.8,78.2,269.2,76.2,268.4,77.8
		z"/>
	<path class="st32" d="M268.7,78.1c0,0-0.9,0.8-1.1,1.6c-0.2,0.7-0.2,2.3-0.7,2.2c0,0-1.2-2.2-0.1-3.6
		C267.9,76.8,268.7,78.1,268.7,78.1z"/>
	<path class="st22" d="M263.9,106.4c0.4,0.4,1.6,0.6,2.9,0.8c1,0.2,2.1,0.4,2.9,0.8c1.7,1,7.4,4.3,9.1,4.1c0.6-0.1,0.5-1.2,0.1-2.8
		c-0.6-2.5-1.9-5.9-1.9-7.4c0-0.8-0.3-2.8-0.7-5c0-0.2-0.1-0.4-0.1-0.5c-0.7-4.3-1.8-9.4-1.8-9.4s-1.2,2.4-3.4,2.4
		c-2.2,0-1.7-1.8-1.7-1.8s-2.1,0.2-2.5,0.7c-0.5,0.5-1.7,2.7-2,3.3c0,0,0,0.8,1.9,1.1c0,0-0.5,2-0.5,3.4c0,1,0.7,4.2,0.9,6.1
		c0.1,0.7,0.1,1.2,0,1.5c-0.1,0.3-0.6,0.6-1.2,0.9C264.8,105.3,263.4,105.9,263.9,106.4z"/>
	<path class="st20" d="M265.9,104.6c-1.3,2,3.4,2.7,4.1,3.1c1.7,1,7,4.6,8.7,4.4c0.6-0.1,0.5-1.2,0.1-2.8c-0.6-2.5-1.9-5.9-1.9-7.4
		c0-0.8-0.3-2.8-0.6-5l-2-1.9c0,0-2.2,5.3-4.2,6.2c-1.1,0.5-2.2,0.7-3,0.9c0.1,0.7,0.1,1.2,0,1.5C266.9,104,266.4,104.3,265.9,104.6
		z"/>
	<path class="st26" d="M275.1,88.6c0,0,1.7-1,3.4,0.9c1.7,1.9-1.2,15.5-3.6,16.2c-2.7,0.8-10.6-0.1-10.6-0.1l0.2-1.2
		c0,0,8.4-1.5,8.7-2C273.4,102,274.2,88.8,275.1,88.6z"/>
	<path class="st22" d="M274.4,87c0,0,3.5,0.3,4.5,1.4s1.3,4.1,1.3,4.1s-3.1,2.4-6.8,1.5L274.4,87z"/>
	<g>
		
			<rect x="258.7" y="106.2" transform="matrix(-1 -1.224647e-16 1.224647e-16 -1 522.1289 212.8831)" class="st33" width="4.6" height="0.5"/>
		<path class="st33" d="M259.7,106.6c0-0.2-4.3-6.6-4.3-6.6h-9.4l4.7,6.4L259.7,106.6z"/>
		<path class="st32" d="M259.3,106.7c0-0.2-4.3-6.6-4.3-6.6h-9l4.5,6.6H259.3z"/>
		<path class="st33" d="M251.4,103.4c0.1,0.3,0.4,0.5,0.7,0.5c0.3,0,0.4-0.2,0.3-0.5c-0.1-0.3-0.4-0.5-0.7-0.5
			C251.5,102.9,251.3,103.2,251.4,103.4z"/>
	</g>
	<path class="st26" d="M265,104.3c0,0-2.7-0.5-3-0.4c-0.3,0.1-2,1.6-1.8,1.9c0.2,0.3,0.9,0.5,1.7,0.3c0.8-0.3,2.5-0.4,2.8-0.8
		C265,104.9,265,104.3,265,104.3z"/>
	<polygon class="st34" points="217.1,30.7 131.4,30.7 124.8,10 210.5,10 	"/>
	<g>
		<path class="st29" d="M207.3,17l0.8,2.5c0.3,1.1-0.3,2-1.4,2h-71c-1.1,0-2.3-0.9-2.7-2l-0.8-2.5c-0.3-1.1,0.3-2,1.4-2h71
			C205.7,15,206.9,15.9,207.3,17z"/>
		<g>
			<path class="st35" d="M193.1,17.5H192l-0.1-0.3h1.5l0.1,0.3l-0.4,1.8h-0.4L193.1,17.5z"/>
			<path class="st35" d="M194,18.2c-0.2-0.6,0-1.1,0.6-1.1c0.6,0,1.1,0.5,1.3,1.1c0.2,0.6,0,1.1-0.6,1.1S194.2,18.9,194,18.2z
				 M195.5,18.2c-0.1-0.4-0.5-0.7-0.8-0.7c-0.3,0-0.4,0.3-0.3,0.7c0.1,0.4,0.5,0.7,0.8,0.7C195.5,19,195.6,18.7,195.5,18.2z"/>
			<path class="st35" d="M196,17.7c-0.1-0.3,0-0.5,0.3-0.5c0.3,0,0.6,0.2,0.7,0.5c0.1,0.3,0,0.5-0.3,0.5
				C196.4,18.2,196.1,18,196,17.7z M197.7,17.2h0.3l-0.9,2.1h-0.3L197.7,17.2z M196.8,17.7c-0.1-0.2-0.2-0.3-0.3-0.3
				c-0.1,0-0.2,0.1-0.1,0.3c0.1,0.2,0.2,0.3,0.3,0.3C196.8,18,196.8,17.9,196.8,17.7z M197.7,18.8c-0.1-0.3,0-0.5,0.3-0.5
				c0.3,0,0.6,0.2,0.7,0.5c0.1,0.3,0,0.5-0.3,0.5C198.1,19.3,197.8,19.1,197.7,18.8z M198.4,18.8c-0.1-0.2-0.2-0.3-0.3-0.3
				c-0.1,0-0.2,0.1-0.1,0.3c0.1,0.2,0.2,0.3,0.3,0.3C198.4,19.1,198.5,18.9,198.4,18.8z"/>
		</g>
		<g>
			<path class="st2" d="M181.6,15l2,6.4h-48c-0.9,0-1.9-0.6-2.4-1.5c-0.1-0.2-0.2-0.3-0.2-0.5l-0.8-2.5c-0.3-1.1,0.3-2,1.4-2H181.6z
				"/>
			<path class="st5" d="M142.1,15l-2,6.4h-4.4c-0.9,0-1.9-0.6-2.4-1.5l1.6-5H142.1z"/>
			<polygon class="st5" points="154.6,15 152.6,21.5 145.3,21.5 147.3,15 			"/>
			<polygon class="st5" points="167.2,15 165.2,21.5 157.8,21.5 159.9,15 			"/>
			<polygon class="st5" points="179.8,15 177.7,21.5 170.4,21.5 172.4,15 			"/>
		</g>
	</g>
	<g>
		<polygon class="st36" points="148.6,25.3 135.8,25.3 135.5,24.4 148.4,24.4 		"/>
		<polygon class="st36" points="145.9,27.7 136.5,27.7 136.3,26.8 145.6,26.8 		"/>
		<polygon class="st36" points="152,27.7 146.4,27.7 146.2,26.8 151.7,26.8 		"/>
		<polygon class="st36" points="161.5,27.7 153,27.7 152.7,26.8 161.2,26.8 		"/>
		<polygon class="st36" points="153.5,25.3 149.6,25.3 149.3,24.4 153.2,24.4 		"/>
		<polygon class="st36" points="168.9,25.3 154.8,25.3 154.5,24.4 168.7,24.4 		"/>
	</g>
	<polygon class="st34" points="101.4,62 41,62 31.7,32.4 92,32.4 	"/>
	<polygon class="st37" points="92.9,47.2 40.2,47.2 36.2,34.7 88.9,34.7 	"/>
	<g>
		<polygon class="st10" points="48.8,37.2 39.9,37.2 39.7,36.5 48.6,36.5 		"/>
		<polygon class="st10" points="58.4,37.2 51,37.2 50.7,36.5 58.2,36.5 		"/>
		<polygon class="st10" points="75.7,37.2 60.3,37.2 60.1,36.5 75.4,36.5 		"/>
		<polygon class="st10" points="49.6,39.6 40.7,39.6 40.5,38.9 49.4,38.9 		"/>
		<polygon class="st10" points="59.1,39.6 51.7,39.6 51.5,38.9 58.9,38.9 		"/>
		<polygon class="st10" points="67.9,39.6 60.5,39.6 60.3,38.9 67.7,38.9 		"/>
		<polygon class="st10" points="85.5,39.9 70.2,39.9 69.9,39.2 85.3,39.2 		"/>
	</g>
	<g>
		<polygon class="st10" points="50.6,42.7 41.6,42.7 41.4,42 50.4,42 		"/>
		<polygon class="st10" points="60.1,42.7 52.7,42.7 52.5,42 59.9,42 		"/>
		<polygon class="st10" points="77.4,42.7 62,42.7 61.8,42 77.2,42 		"/>
		<polygon class="st10" points="51.3,45.1 42.4,45.1 42.2,44.4 51.1,44.4 		"/>
		<polygon class="st10" points="60.9,45.1 53.4,45.1 53.2,44.4 60.7,44.4 		"/>
		<polygon class="st10" points="69.6,45.1 62.2,45.1 62,44.4 69.4,44.4 		"/>
		<polygon class="st10" points="87.2,45.3 71.9,45.3 71.7,44.7 87,44.7 		"/>
	</g>
	<g>
		<g>
			<g>
				<path class="st15" d="M75.5,57.6c-2,0-4.2-1.6-4.8-3.6c-0.6-2,0.5-3.6,2.6-3.6c2,0,4.2,1.6,4.8,3.6C78.7,56,77.5,57.6,75.5,57.6
					z M73.4,51.1c-1.7,0-2.6,1.3-2.1,2.9c0.5,1.6,2.3,2.9,4,2.9c1.7,0,2.6-1.3,2.1-2.9C76.9,52.5,75.1,51.1,73.4,51.1z"/>
			</g>
			<g>
				<path class="st15" d="M74.9,55.9c-0.1,0-0.3-0.1-0.4-0.2l-2.1-1.6c-0.3-0.2-0.4-0.6-0.2-0.8c0.2-0.2,0.5-0.2,0.8,0l1.5,1.1
					l0.7-1.7c0.1-0.2,0.4-0.3,0.7-0.1c0.3,0.2,0.5,0.5,0.4,0.8l-1,2.2C75.2,55.8,75.1,55.9,74.9,55.9C74.9,55.9,74.9,55.9,74.9,55.9
					z"/>
			</g>
		</g>
		<g>
			<g>
				<path class="st15" d="M64.9,57.6c-2,0-4.2-1.6-4.8-3.6c-0.6-2,0.5-3.6,2.6-3.6c2,0,4.2,1.6,4.8,3.6C68.1,56,66.9,57.6,64.9,57.6
					z M62.8,51.1c-1.7,0-2.6,1.3-2.1,2.9c0.5,1.6,2.3,2.9,4,2.9c1.7,0,2.6-1.3,2.1-2.9C66.3,52.5,64.5,51.1,62.8,51.1z"/>
			</g>
			<g>
				<path class="st15" d="M64.3,55.9c-0.1,0-0.3-0.1-0.4-0.2l-2.1-1.6c-0.3-0.2-0.4-0.6-0.2-0.8c0.2-0.2,0.5-0.2,0.8,0l1.5,1.1
					l0.7-1.7c0.1-0.2,0.4-0.3,0.7-0.1c0.3,0.2,0.5,0.5,0.4,0.8l-1,2.2C64.6,55.8,64.5,55.9,64.3,55.9C64.3,55.9,64.3,55.9,64.3,55.9
					z"/>
			</g>
		</g>
		<g>
			<g>
				<path class="st15" d="M53.9,57.6c-2,0-4.2-1.6-4.8-3.6c-0.6-2,0.5-3.6,2.6-3.6c2,0,4.2,1.6,4.8,3.6C57.1,56,55.9,57.6,53.9,57.6
					z M51.8,51.1c-1.7,0-2.6,1.3-2.1,2.9c0.5,1.6,2.3,2.9,4,2.9s2.6-1.3,2.1-2.9C55.3,52.5,53.5,51.1,51.8,51.1z"/>
			</g>
			<g>
				<path class="st15" d="M53.3,55.9c-0.1,0-0.3-0.1-0.4-0.2l-2.1-1.6c-0.3-0.2-0.4-0.6-0.2-0.8c0.2-0.2,0.5-0.2,0.8,0l1.5,1.1
					l0.7-1.7c0.1-0.2,0.4-0.3,0.7-0.1c0.3,0.2,0.5,0.5,0.4,0.8l-1,2.2C53.6,55.8,53.5,55.9,53.3,55.9C53.3,55.9,53.3,55.9,53.3,55.9
					z"/>
			</g>
		</g>
		<g>
			<g>
				<path class="st3" d="M85.7,57.6c-2,0-4.2-1.6-4.8-3.6c-0.6-2,0.5-3.6,2.6-3.6c2,0,4.2,1.6,4.8,3.6C88.9,56,87.8,57.6,85.7,57.6z
					 M83.7,51.1c-1.7,0-2.6,1.3-2.1,2.9c0.5,1.6,2.3,2.9,4,2.9s2.6-1.3,2.1-2.9C87.1,52.5,85.3,51.1,83.7,51.1z"/>
			</g>
			<g>
				<path class="st3" d="M84.8,54.6L84.8,54.6c-0.3,0-0.6-0.2-0.7-0.5l-0.5-1.5c-0.1-0.3,0.1-0.5,0.4-0.5l0,0c0.3,0,0.6,0.2,0.7,0.5
					l0.5,1.5C85.2,54.4,85.1,54.6,84.8,54.6z"/>
				<path class="st3" d="M85.2,55.8h-0.1c-0.3,0-0.5-0.2-0.6-0.5l0,0c-0.1-0.2,0.1-0.5,0.3-0.5h0.1c0.3,0,0.5,0.2,0.6,0.5l0,0
					C85.6,55.6,85.5,55.8,85.2,55.8z"/>
			</g>
		</g>
	</g>
	<path class="st5" d="M225.4,56.1c0,0,7.6,7.6,8,10.5c0.4,2.9-3.7,7.3-3.7,7.3L225.4,56.1z"/>
	<path class="st21" d="M221.9,135.1c0,0-0.3,4-1.1,4.1c-0.1,0-4.1,0-4.1,0l-5.1,0c0,0,0-1.2,1.5-1.4c1.5-0.2,4-1.3,4.9-3.2
		C219,132.5,221.9,135.1,221.9,135.1z"/>
	<path class="st21" d="M233.3,135.1c0,0-0.3,4-1.1,4.1c-0.1,0-4.1,0-4.1,0l-5.1,0c0,0,0-1.2,1.5-1.4c1.5-0.2,4-1.3,4.9-3.2
		C230.4,132.6,233.3,135.1,233.3,135.1z"/>
	<path class="st20" d="M216.4,91.6c0,0,1.3,8.2,6.3,22.9c5,14.7,5.6,21,5.6,21l5.4-0.1c0,0,0.1-16-2.2-23.4
		c-2.3-7.4-0.4-26.5-0.4-26.5L216.4,91.6z"/>
	<path class="st22" d="M213.8,85.9c0,0-0.2,12.4,2,27.7c2.2,15.3,1.4,21.7,1.4,21.7l5.3,0.2c0,0,3.2-15.3,2.3-22.9
		c-0.9-7.6,4.4-26.2,4.4-26.2L213.8,85.9z"/>
	<path class="st26" d="M224.2,56.8l-2.9,1.8l-4.1-0.7c0.1-0.3,0.3-1.6,0.6-2.8c0-0.1,0-0.1,0-0.2c0.2-1,0.4-1.9,0.4-1.9l3.8-1.6
		l1.4-0.6c0,0-0.1,1.1-0.1,1.3C223.1,54.9,224.2,56.8,224.2,56.8z"/>
	<path class="st5" d="M218.3,55.9c0.1,0,5-1.4,5.5-1.2c0.5,0.2,0.8,1.2,0.8,1.2l-8,1.7C216.6,57.6,217.2,56.3,218.3,55.9z"/>
	<path class="st2" d="M231.3,87.5c-0.8,3.6-14.6,4-18.1,0.7c-0.4-0.4-0.4-2.1-0.3-4.5c0.3-4.6,1.3-11.5,1.3-15.1
		c0-1.7,0.3-3.5,0.6-5c0.7-3.4,1.8-6,1.8-6s6.7-2.1,8-1.7C230.7,57.6,232.2,83.8,231.3,87.5z"/>
	<path class="st5" d="M212.9,83.7c0.3-4.6,1.3-11.5,1.3-15.1c0-1.7,0.3-3.5,0.6-5l4-0.7C218.9,62.9,222.8,78.5,212.9,83.7z"/>
	<path class="st26" d="M215.1,77.3c0,0,0.3,0.6-0.3,1.1c-0.6,0.4-1,1.1-0.8,1.6c0.1,0.5,1.4,1.3,1.8,1.2c0.4-0.1,1.3-0.8,1.2-1.1
		c-0.1-0.3,0.6-2.3-0.5-3.1C215.6,76.2,215.1,77.3,215.1,77.3z"/>
	<path class="st2" d="M219.7,56.6c0,0-3.9,0.7-7.1,5.2c-3.2,4.5-5.2,7.8-4.7,9.4c0.6,1.6,5.8,7.2,6.7,7.2c0.9,0,2.4-0.6,2.5-2.1
		c0,0-3.7-5.4-3-6.2c0.3-0.3,4.8-3.9,5.5-2.3C220.7,70.5,219.7,56.6,219.7,56.6z"/>
	<path class="st38" d="M223.1,52c-0.8,1.4-4,2.6-5.3,3c0-0.1,0-0.1,0-0.2c0.2-1,0.4-1.9,0.4-1.9l3.8-1.6
		C222.9,51.3,223.5,51.5,223.1,52z"/>
	<path class="st26" d="M216.8,52.7c0,0,6.2,1.9,7.3-1.9c1.2-3.7,2.7-6-1.2-7.4c-3.9-1.4-5.1-0.2-5.8,1
		C216.4,45.6,215.2,52.1,216.8,52.7z"/>
	<path class="st39" d="M217.4,44.1c0,0,0.4,4.3,1.3,4.2c0.9-0.2,1.8-0.3,1.6,1c-0.1,1.3-1.4,2.8,1.4,3.1c2.9,0.2,7-6.9,6.2-8.2
		C225.7,40.2,214.1,39.4,217.4,44.1z"/>
</g>
</svg>
