<svg xmlns="http://www.w3.org/2000/svg" viewBox="0 0 24 24" xmlns:v="https://vecta.io/nano"><linearGradient id="A" gradientUnits="userSpaceOnUse" x1="19.873" y1="21.057" x2="4.127" y2="2.943"><stop offset="0" stop-color="#5d3fd2"/><stop offset=".424" stop-color="#b829a9"/><stop offset=".501" stop-color="#be289d"/><stop offset=".638" stop-color="#d0257e"/><stop offset=".785" stop-color="#e62256"/><stop offset=".815" stop-color="#e83156"/><stop offset=".872" stop-color="#ee5755"/><stop offset=".95" stop-color="#f89554"/><stop offset="1" stop-color="#ffc153"/></linearGradient><path d="M12,0C5.4,0,0,5.4,0,12c0,6.6,5.4,12,12,12c6.6,0,12-5.4,12-12C24,5.4,18.6,0,12,0z" fill="url(#A)"/><path d="M8.6 17.8h0 0 0zm6.8-12.1h0 0 0z" fill="none" stroke="#fff" stroke-miterlimit="10"/><path d="M12 16.3c2.4 0 4.3-1.9 4.3-4.3S14.4 7.7 12 7.7 7.7 9.6 7.7 12s1.9 4.3 4.3 4.3zM8.8 12c0-1.8 1.5-3.2 3.2-3.2s3.2 1.5 3.2 3.2c0 1.8-1.5 3.2-3.2 3.2S8.8 13.8 8.8 12zm7.5 7.1H7.7c-1.6 0-2.9-1.3-2.9-2.9V7.8c0-1.6 1.3-2.9 2.9-2.9h8.5c1.6 0 2.9 1.3 2.9 2.9v8.4c.1 1.6-1.2 2.9-2.8 2.9zM7.7 5.9a1.79 1.79 0 0 0-1.8 1.8v8.4a1.79 1.79 0 0 0 1.8 1.8h8.5a1.79 1.79 0 0 0 1.8-1.8V7.8A1.79 1.79 0 0 0 16.2 6H7.7zm8.6 1.3a.68.68 0 0 0-.7.7.68.68 0 0 0 .7.7.68.68 0 0 0 .7-.7.68.68 0 0 0-.7-.7z" fill="#fff"/></svg>