<?xml version="1.0" encoding="utf-8"?>
<!-- Generator: Adobe Illustrator 25.0.1, SVG Export Plug-In . SVG Version: 6.00 Build 0)  -->
<svg version="1.1" id="Layer_1" xmlns="http://www.w3.org/2000/svg" xmlns:xlink="http://www.w3.org/1999/xlink" x="0px" y="0px"
	 viewBox="0 0 300 140" style="enable-background:new 0 0 300 140;" xml:space="preserve">
<style type="text/css">
	.st0{fill:none;}
	.st1{fill:#3F4293;}
	.st2{fill:#867CED;}
	.st3{fill:#FFFFFF;}
	.st4{fill:#5D4BC9;}
	.st5{fill:#3F1D89;}
	.st6{fill:#2B478B;}
	.st7{fill:#F99746;}
	.st8{clip-path:url(#SVGID_2_);}
	.st9{clip-path:url(#SVGID_4_);}
	.st10{fill:#13375B;}
	.st11{fill:#96D9C9;}
	.st12{fill:#50BFA5;}
	.st13{fill:#F7A491;}
	.st14{fill:#F47458;}
	.st15{fill:#ED7D2B;}
	.st16{clip-path:url(#SVGID_6_);}
	.st17{fill:#F29383;}
	.st18{fill:#C24C32;}
	.st19{clip-path:url(#SVGID_8_);}
	.st20{clip-path:url(#SVGID_10_);}
	.st21{fill:#BF7154;}
	.st22{fill:#A85D42;}
	.st23{clip-path:url(#SVGID_12_);}
	.st24{fill:#C5DBFC;}
	.st25{fill:#9BC1F9;}
	.st26{fill:#F5866E;}
	.st27{clip-path:url(#SVGID_14_);}
	.st28{fill:#F7CC7F;}
	.st29{clip-path:url(#SVGID_16_);}
	.st30{fill:#466EB6;}
	.st31{fill:#184655;}
	.st32{fill:#F48C7F;}
	.st33{clip-path:url(#SVGID_18_);}
	.st34{fill:#A3573C;}
	.st35{clip-path:url(#SVGID_20_);}
	.st36{clip-path:url(#SVGID_22_);}
	.st37{clip-path:url(#SVGID_24_);}
	.st38{clip-path:url(#SVGID_26_);}
	.st39{clip-path:url(#SVGID_28_);}
	.st40{fill:#47637F;}
	.st41{clip-path:url(#SVGID_30_);fill:#FFFFFF;}
	.st42{clip-path:url(#SVGID_32_);}
	.st43{clip-path:url(#SVGID_34_);}
	.st44{fill:#8CA5D2;}
	.st45{fill:#0E2E35;}
	.st46{clip-path:url(#SVGID_36_);}
	.st47{fill:#FADFAE;}
	.st48{fill:#96482A;}
	.st49{clip-path:url(#SVGID_38_);}
	.st50{fill:#B75742;}
	.st51{fill:#F8A492;}
	.st52{clip-path:url(#SVGID_40_);}
	.st53{opacity:0.5;fill:#F47458;enable-background:new    ;}
	.st54{clip-path:url(#SVGID_42_);}
	.st55{fill:#2A175E;}
	.st56{fill:#F7A079;}
	.st57{fill:#E0782B;}
	.st58{fill:#FFBF9D;}
	.st59{fill:#9E332E;}
	.st60{fill:#663E19;}
</style>
<rect class="st0" width="300" height="140"/>
<path class="st1" d="M299.6,140H0.4c-0.2,0-0.4-0.2-0.4-0.4l0,0c0-0.2,0.2-0.4,0.4-0.4h299.2c0.2,0,0.4,0.2,0.4,0.4l0,0
	C300,139.8,299.8,140,299.6,140z"/>
<g>
	<g>
		<path class="st2" d="M248.6,47.3l-0.9-0.4l-0.4,0.8l-3-3l-37.1-16l5.5-16.3l2.2-0.6l-0.3-0.9l-1.6,0.5l0,0l-0.9-0.3l-0.2,0.7
			l-26.7,7.6l-0.6-0.3L164,16v0.1h-0.1l-32.4-3.7l-0.1,0.3l-5.7,12.9L109,16.7l20.9-5.2l-0.2-0.9l-23.3,5.8l18.8,10.1l-7.5,16.9
			l-3.6,1l-30.4-28L83,17.2l30,27.5L74.4,55.2L73.9,55l-0.1,0.3l-1.4,0.4v-1.3l16.3-12.7l-0.1-0.3l-0.4-1.3l21.3,4.3l0.2-0.9
			l-21.8-4.4l-6.2-20.9l-0.9,0.3l6,20.5h-0.2l-0.2,0.9l0.7,0.1l0.4,1.5L71.4,54v2h-0.1h0.1v21.3L92.1,85l0.3-0.9l-20.1-7.4V76
			l0.3,0.5l17.8-11.2l26.7,13.1l0.2-0.2l6.5-5.5l19,6.4l-0.6,1.8l0.9,0.3l0.6-1.8l0.3,0.1l0.3-0.9l-0.3-0.1l0.1-0.2L166,89.8
			l0.4-0.8l-21.9-11.5l5.2-14.8l20.2,7.9l-2.6,18.8l0.9,0.1l2.6-18.9l0.7,0.5l10.9-14.7L195,79.8l0.8-0.5l-13-24l18.6-1.5l-1,27.8h1
			l1-28l36.9-3l-0.1-1l-36.7,3l0.2-5.7h-1l-0.2,5.8l-18.9,1.5L165,44l-0.5,0.8L182,55.2l-11.2,15.3l0.1-0.5l-0.4-0.1L150,61.8
			l6.5-18.5l5.1,2.8l0.5-0.8l-5.3-2.8l1.3-3.6l-0.9-0.3L156,42l-29.6-16l5.6-12.7l31.2,3.6l-3,24.9l0.6,0.1V42l0.7,0.1l-0.9,0.9
			l0.7,0.7l1.4-1.4L200,47l0.1-0.9l-36.5-4.7l20.3-20.7l1.5-0.4l20.8,9l-5.9,17.6l42.4,0.9v-1L201.6,46l5.5-16.3l36.8,15.9l3.1,3.2
			l-13.3,29.4l-11.7-21l-19.4,26.7l0.8,0.5l18.5-25.3l11.8,21.3l14-31l31.1,31.8l0.7-0.7l-31.3-32L248.6,47.3z M183.6,19.8l-0.2,0.1
			l-0.1,0.1l-20.9,21.3l-1.1-0.1l2.9-24.1L183.6,19.8z M211.7,12.8l-5.3,15.6l-19.6-8.5L211.7,12.8z M115,45.1l3.4-0.9l0.1-0.2
			l7.5-17l29.6,15.9l-6.5,18.6l-7-2.7v-2.5L140,58l-27-11.6l-0.4,0.9l26.6,11.3l-15.6,13.2l-28.2-9.5l17-10.7l-0.5-0.8L94.2,61.9
			L76,55.7l37.9-10.4l0.7,0.6l0.6-0.7L115,45.1z M141.2,58.2L141.2,58.2L141.2,58.2L141.2,58.2z M140.2,59l0.9,0.4v17.5l2.2,1.1
			l-0.1,0.4l-18.5-6.2L140.2,59z M142.1,76.2V59.7l6.7,2.6L143.6,77L142.1,76.2z M93.2,62.5l-2.8,1.8l-16.4-8l0.3-0.1L93.2,62.5z
			 M91.4,64.8l3-1.9l28.4,9.6l-5.8,4.9L91.4,64.8z M72.3,56.5l17.1,8.4L72.3,75.7V56.5z"/>
		<path class="st2" d="M294.8,70.2L294.8,70.2l0.5-0.8l-0.7-0.4l-7.1-21.3v-0.8L250.8,45l-2.4-1.3l-1.3-1.2l11-29.6l-0.9-0.3
			l-10.8,29.2l-28.5-25.6l-0.6,0.7L246,42.8l-0.9,2.5l0.9,0.3l0.8-2.1l1.1,1l1,0.5h-2.4v1l4.1-0.1l43.3,23.7l0.5,2.7l-12.7,8.2
			l0.5,0.8l13.2-8.5L294.8,70.2z M286.5,47.8l7,20.6l-41.1-22.5L286.5,47.8z"/>
		<polygon class="st2" points="255.8,75 232.9,81.1 233.2,82 255.3,76.2 255.2,76.4 279,85 279.4,84.1 256,75.6 		"/>
		
			<rect x="205.9" y="81.8" transform="matrix(0.9975 -7.052708e-02 7.052708e-02 0.9975 -5.2583 15.6645)" class="st2" width="26.6" height="1"/>
		
			<rect x="226.3" y="4.4" transform="matrix(0.2872 -0.9579 0.9579 0.2872 145.0263 229.6363)" class="st2" width="1" height="25.9"/>
	</g>
	<g>
		<g>
			<path class="st3" d="M130.6,22.6c-5,0-9-4-9-9s4-9,9-9s9,4,9,9S135.6,22.6,130.6,22.6z"/>
			<path class="st4" d="M130.6,5.1c4.7,0,8.5,3.8,8.5,8.5s-3.8,8.5-8.5,8.5s-8.5-3.8-8.5-8.5C122.1,8.9,125.9,5.1,130.6,5.1
				 M130.6,4.1c-5.3,0-9.5,4.3-9.5,9.5c0,5.3,4.3,9.5,9.5,9.5s9.5-4.3,9.5-9.5C140.1,8.3,135.9,4.1,130.6,4.1L130.6,4.1z"/>
		</g>
	</g>
	<g>
		<g>
			<path class="st3" d="M93.1,92.3c-5,0-9.1-4.1-9.1-9.1s4.1-9.1,9.1-9.1s9.1,4.1,9.1,9.1S98.1,92.3,93.1,92.3z"/>
			<path class="st4" d="M93.1,74.5c4.8,0,8.6,3.9,8.6,8.6c0,4.8-3.9,8.6-8.6,8.6c-4.8,0-8.6-3.9-8.6-8.6S88.3,74.5,93.1,74.5
				 M93.1,73.5c-5.3,0-9.6,4.3-9.6,9.6c0,5.3,4.3,9.6,9.6,9.6c5.3,0,9.6-4.3,9.6-9.6S98.4,73.5,93.1,73.5L93.1,73.5z"/>
		</g>
	</g>
	<g>
		<g>
			<circle class="st3" cx="200.9" cy="46.1" r="6.9"/>
			<path class="st5" d="M200.9,39.8c3.5,0,6.4,2.8,6.4,6.4c0,3.5-2.8,6.4-6.4,6.4c-3.5,0-6.4-2.8-6.4-6.4S197.4,39.8,200.9,39.8
				 M200.9,38.8c-4.1,0-7.4,3.3-7.4,7.4s3.3,7.4,7.4,7.4s7.4-3.3,7.4-7.4C208.2,42.1,204.9,38.8,200.9,38.8L200.9,38.8z"/>
		</g>
	</g>
	<g>
		<g>
			<path class="st3" d="M246.7,58.2c-7,0-12.7-5.7-12.7-12.7s5.7-12.7,12.7-12.7s12.7,5.7,12.7,12.7S253.6,58.2,246.7,58.2z"/>
			<path class="st5" d="M246.7,33.3c6.7,0,12.2,5.5,12.2,12.2s-5.5,12.2-12.2,12.2s-12.2-5.5-12.2-12.2S239.9,33.3,246.7,33.3
				 M246.7,32.3c-7.3,0-13.2,5.9-13.2,13.2s5.9,13.2,13.2,13.2s13.2-5.9,13.2-13.2C259.8,38.2,253.9,32.3,246.7,32.3L246.7,32.3z"/>
		</g>
	</g>
	<g>
		<g>
			<circle class="st3" cx="184.7" cy="19.2" r="5.7"/>
			<path class="st6" d="M184.7,14.1c2.9,0,5.2,2.3,5.2,5.2s-2.3,5.2-5.2,5.2s-5.2-2.3-5.2-5.2S181.9,14.1,184.7,14.1 M184.7,13.1
				c-3.4,0-6.2,2.8-6.2,6.2s2.8,6.2,6.2,6.2s6.2-2.8,6.2-6.2C190.9,15.8,188.1,13.1,184.7,13.1L184.7,13.1z"/>
		</g>
	</g>
	<g>
		<g>
			<circle class="st3" cx="256.2" cy="15.8" r="8.5"/>
			<path class="st4" d="M256.2,7.8c4.4,0,8,3.6,8,8s-3.6,8-8,8s-8-3.6-8-8C248.3,11.4,251.8,7.8,256.2,7.8 M256.2,6.8c-5,0-9,4-9,9
				s4,9,9,9s9-4,9-9C265.2,10.9,261.2,6.8,256.2,6.8L256.2,6.8z"/>
		</g>
	</g>
	<g>
		<g>
			<circle class="st3" cx="84.6" cy="20.2" r="7.5"/>
			<path class="st4" d="M84.6,13.2c3.8,0,7,3.1,7,7s-3.1,7-7,7c-3.8,0-7-3.1-7-7S80.7,13.2,84.6,13.2 M84.6,12.2c-4.4,0-8,3.6-8,8
				s3.6,8,8,8s8-3.6,8-8C92.5,15.7,89,12.2,84.6,12.2L84.6,12.2z"/>
		</g>
	</g>
	<g>
		<g>
			<path class="st3" d="M162.2,53.8c-6.2,0-11.2-5-11.2-11.2s5-11.2,11.2-11.2s11.2,5,11.2,11.2S168.4,53.8,162.2,53.8z"/>
			<path class="st7" d="M162.2,31.9c5.9,0,10.7,4.8,10.7,10.7s-4.8,10.7-10.7,10.7s-10.7-4.8-10.7-10.7S156.3,31.9,162.2,31.9
				 M162.2,30.9c-6.5,0-11.7,5.2-11.7,11.7s5.2,11.7,11.7,11.7s11.7-5.2,11.7-11.7S168.7,30.9,162.2,30.9L162.2,30.9z"/>
		</g>
	</g>
	<g>
		<g>
			<path class="st3" d="M71.7,65c-5.7,0-10.4-4.7-10.4-10.4S66,44.2,71.7,44.2s10.4,4.7,10.4,10.4S77.4,65,71.7,65z"/>
			<path class="st7" d="M71.7,44.6c5.5,0,9.9,4.4,9.9,9.9s-4.4,9.9-9.9,9.9s-9.9-4.4-9.9-9.9C61.7,49.1,66.2,44.6,71.7,44.6
				 M71.7,43.6c-6,0-10.9,4.9-10.9,10.9s4.9,10.9,10.9,10.9s10.9-4.9,10.9-10.9S77.7,43.6,71.7,43.6L71.7,43.6z"/>
		</g>
	</g>
	<g>
		<g>
			<circle class="st3" cx="286.8" cy="47.9" r="7.2"/>
			<path class="st7" d="M286.8,41.2c3.7,0,6.7,3,6.7,6.7s-3,6.7-6.7,6.7s-6.7-3-6.7-6.7C280,44.2,283.1,41.2,286.8,41.2 M286.8,40.2
				c-4.3,0-7.7,3.5-7.7,7.7c0,4.3,3.5,7.7,7.7,7.7s7.7-3.5,7.7-7.7C294.5,43.6,291,40.2,286.8,40.2L286.8,40.2z"/>
		</g>
	</g>
	<g>
		<g>
			<circle class="st3" cx="171.3" cy="70.7" r="4.8"/>
			<path class="st4" d="M171.3,66.4c2.4,0,4.3,1.9,4.3,4.3s-1.9,4.3-4.3,4.3c-2.4,0-4.3-1.9-4.3-4.3S168.9,66.4,171.3,66.4
				 M171.3,65.4c-2.9,0-5.3,2.4-5.3,5.3s2.4,5.3,5.3,5.3c2.9,0,5.3-2.4,5.3-5.3S174.2,65.4,171.3,65.4L171.3,65.4z"/>
		</g>
	</g>
	<g>
		<g>
			<circle class="st3" cx="233.7" cy="79.3" r="6.2"/>
			<path class="st5" d="M233.7,73.6c3.2,0,5.7,2.6,5.7,5.7c0,3.2-2.6,5.7-5.7,5.7s-5.7-2.6-5.7-5.7
				C227.9,76.1,230.5,73.6,233.7,73.6 M233.7,72.6c-3.7,0-6.7,3-6.7,6.7s3,6.7,6.7,6.7s6.7-3,6.7-6.7S237.4,72.6,233.7,72.6
				L233.7,72.6z"/>
		</g>
	</g>
	<g>
		<circle class="st5" cx="214.6" cy="12.5" r="10.8"/>
	</g>
	<g>
		<g>
			<defs>
				<circle id="SVGID_1_" cx="214.6" cy="12.5" r="10.2"/>
			</defs>
			<clipPath id="SVGID_2_">
				<use xlink:href="#SVGID_1_"  style="overflow:visible;"/>
			</clipPath>
			<g class="st8">
				<circle class="st3" cx="214.6" cy="12.5" r="10.8"/>
			</g>
		</g>
		<g>
			<defs>
				<circle id="SVGID_3_" cx="214.6" cy="12.5" r="10.2"/>
			</defs>
			<clipPath id="SVGID_4_">
				<use xlink:href="#SVGID_3_"  style="overflow:visible;"/>
			</clipPath>
			<g class="st9">
				<path class="st10" d="M219.5,11.1c0.1-1.4-0.2-2.8-0.8-4.1c-0.5-1.1-1.9-1.8-3.1-1.8c-3.9,0-4.4,5.2-6.9,7.2
					c-0.8,0.6-1.6,1.1-2.3,1.8c-2.7,2.4-1.5,6.9,1,9.1c1.7,1.5,4.4,2.3,6.4,1.2c1.1-0.6,1.9-1.6,2.5-2.7c0.8-1.6,1.4-3.4,2-5
					C218.9,14.8,219.4,13,219.5,11.1z"/>
				<path class="st11" d="M218.1,24.1c0,0-2.9-3-3.7-4.3c-0.8-1.3,0.5-0.5,1.8-0.8c0.5-0.1,0.4-3,1.3-2.1c1.5,1.5,3.4,4.2,3.4,4.2
					L218.1,24.1z"/>
				<path class="st12" d="M213.9,15.7c0,0-2.6-0.5-3.8,0.5s0.3,9.9,0.3,11.4s-0.8,5.3-0.8,5.3s8,1.7,9.2-0.5c0,0,0.4-8.4,0.3-9.5
					c-0.1-1.1-1.2-5.4-1.6-5.9C217.1,16.5,213.9,15.7,213.9,15.7z"/>
				<path class="st13" d="M213.9,11.6c0,0,0,0.1,0,0.2c-0.1,0.6-0.6,2.8-0.9,3.3c-0.4,0.7,1.3,3,2.9,2.7c0.5-0.1-0.4-2.1-0.4-2.3
					c0.1-0.4,0.2-1,0.3-1.5c0.1-0.3,0.1-0.6,0.2-0.9c0.2-0.9,0.3-1.6,0.3-1.6L213.9,11.6z"/>
				<path class="st14" d="M213.8,11.8c0-0.1,0-0.2,0-0.2l2.4-0.1c0,0-0.1,0.7-0.3,1.6c-0.1,0.3-0.1,0.6-0.2,0.9
					c-0.4-0.1-0.8-0.2-1.1-0.6c-0.4-0.4-0.7-0.8-0.9-1.3C213.8,12.1,213.8,11.9,213.8,11.8z"/>
				<path class="st13" d="M215.5,6.2c0,0-1.1-0.1-1.8,0.8s-1.5,3.7,0.3,5.3c1.8,1.5,3.5-0.2,3.7-2C217.9,8.4,218,6.1,215.5,6.2z"/>
				<path class="st10" d="M217.2,5.7c0,0-2.2,3.1-4.3,2.7l-0.1-1.3l0.2-0.5l1.1-0.7l1.7-0.4L217.2,5.7z"/>
				<path class="st13" d="M218.2,10.2c-0.2,0.4-0.6,0.6-0.8,0.5s-0.2-0.6,0-1s0.6-0.6,0.8-0.5S218.4,9.8,218.2,10.2z"/>
				<path class="st13" d="M213.3,9.4c0.1,0.5-0.1,0.9-0.4,1c-0.3,0.1-0.6-0.3-0.7-0.7c-0.1-0.5,0.1-0.9,0.4-1
					C212.9,8.6,213.2,8.9,213.3,9.4z"/>
				<path class="st3" d="M216.2,11.2l-1.7-0.1c0,0,0,0.6,0.7,0.7C216.1,11.9,216.2,11.2,216.2,11.2z"/>
				<path class="st3" d="M216.2,11.2l-1.7-0.1c0,0,0,0.6,0.7,0.7C216.1,11.9,216.2,11.2,216.2,11.2z"/>
				<path class="st11" d="M211.1,24c0,0-1.7-3.8-2-5.3s1-3.3,2.3-3.2s3.3,6.7,3.3,6.7L211.1,24z"/>
			</g>
		</g>
	</g>
	<g>
		<g>
			<path class="st3" d="M114.7,57.3c-6.5,0-11.8-5.3-11.8-11.8s5.3-11.8,11.8-11.8s11.8,5.3,11.8,11.8S121.2,57.3,114.7,57.3z"/>
			<path class="st4" d="M114.7,34.2c6.2,0,11.3,5.1,11.3,11.3s-5.1,11.3-11.3,11.3c-6.2,0-11.3-5.1-11.3-11.3
				C103.4,39.2,108.4,34.2,114.7,34.2 M114.7,33.2c-6.8,0-12.3,5.5-12.3,12.3s5.5,12.3,12.3,12.3S127,52.3,127,45.5
				S121.5,33.2,114.7,33.2L114.7,33.2z"/>
		</g>
	</g>
	<g>
		<g>
			<circle class="st3" cx="142.6" cy="77.4" r="6.2"/>
			<path class="st7" d="M142.6,71.7c3.1,0,5.7,2.5,5.7,5.7c0,3.1-2.5,5.7-5.7,5.7c-3.1,0-5.7-2.5-5.7-5.7
				C136.9,74.2,139.5,71.7,142.6,71.7 M142.6,70.7c-3.7,0-6.7,3-6.7,6.7s3,6.7,6.7,6.7s6.7-3,6.7-6.7S146.3,70.7,142.6,70.7
				L142.6,70.7z"/>
		</g>
	</g>
	<g>
		<g>
			<path class="st3" d="M200.9,92.8c-6.9,0-12.5-5.6-12.5-12.5s5.6-12.5,12.5-12.5s12.5,5.6,12.5,12.5
				C213.4,87.2,207.8,92.8,200.9,92.8z"/>
			<path class="st7" d="M200.9,68.3c6.6,0,12,5.4,12,12s-5.4,12-12,12s-12-5.4-12-12C188.9,73.7,194.3,68.3,200.9,68.3 M200.9,67.3
				c-7.2,0-13,5.8-13,13s5.8,13,13,13s13-5.8,13-13S208.1,67.3,200.9,67.3L200.9,67.3z"/>
		</g>
	</g>
	<g>
		<g>
			<circle class="st3" cx="279" cy="79.7" r="8"/>
			<path class="st6" d="M279,72.2c4.1,0,7.5,3.4,7.5,7.5s-3.4,7.5-7.5,7.5s-7.5-3.4-7.5-7.5C271.5,75.5,274.9,72.2,279,72.2
				 M279,71.2c-4.7,0-8.5,3.8-8.5,8.5s3.8,8.5,8.5,8.5s8.5-3.8,8.5-8.5S283.7,71.2,279,71.2L279,71.2z"/>
		</g>
	</g>
	<circle class="st6" cx="221.9" cy="58.7" r="3.5"/>
	<circle class="st7" cx="238.9" cy="21" r="2.1"/>
	<ellipse transform="matrix(0.1602 -0.9871 0.9871 0.1602 139.7228 316.2244)" class="st4" cx="255.7" cy="76" rx="3" ry="3"/>
	<circle class="st7" cx="164.2" cy="16.5" r="3"/>
	<circle class="st4" cx="107.7" cy="16.5" r="2.9"/>
	<circle class="st6" cx="141.9" cy="58.4" r="3.5"/>
	<circle class="st5" cx="167.7" cy="89.2" r="3.5"/>
	<circle class="st7" cx="182.4" cy="54.9" r="2.3"/>
	<circle class="st6" cx="117" cy="77.9" r="2.4"/>
	<circle class="st5" cx="71.9" cy="77.1" r="3.5"/>
	<circle class="st7" cx="88.1" cy="39.4" r="3.5"/>
	<circle class="st15" cx="294.8" cy="70.7" r="3.5"/>
	<g>
		<g>
			<defs>
				<circle id="SVGID_5_" cx="162.2" cy="42.6" r="10.8"/>
			</defs>
			<clipPath id="SVGID_6_">
				<use xlink:href="#SVGID_5_"  style="overflow:visible;"/>
			</clipPath>
			<g class="st16">
				<path class="st10" d="M158.4,35.9c3-1.6,6.4-0.2,6.7,4c0.3,4.1-2.7,5.6-5.5,5.3C156.9,44.9,154.1,37.6,158.4,35.9z"/>
				<circle class="st10" cx="163.2" cy="46.9" r="3"/>
				<path class="st17" d="M156.8,48.6l-10.1-0.3c0,0-7.9-2.5-8.1-2.5c-0.2-0.1-1.4-3.2-1.8-2.9c-0.3,0.3,0.7,1.6,0.3,1.8
					s-4.2-1-4.2-0.7c0,0.6,2.3,0.9,2.3,1.1c0,0.3-2.4-0.5-2.6-0.1c-0.2,0.4,2.3,0.5,2.3,0.8c0.1,0.2-2.4,0.2-2.2,0.7
					c0.1,0.3,2.2-0.1,2.1,0.3c-0.1,0.3-1.6,0.8-1.5,1.1s1.3-0.6,2.1-0.5s1.5-0.2,2.8,0.3c1.3,0.6,5.6,3.2,8.5,3.5s9.3,1,9.3,1
					L156.8,48.6z"/>
				<path class="st18" d="M158.8,48.1c5.5,0.3,0.7,4.9,0.7,4.9l-8.2-1.2c-0.2-1.6,0.2-3.6,0.2-4C153.2,47.7,157.4,48.1,158.8,48.1z"
					/>
				<path class="st14" d="M163,47.2c0,0,2.4,0,3.6,1.3c1.3,1.4-2,12.1-2.2,13.9s1.2,6.4,1.2,6.4s-7.5,1.5-9.6,0.1
					c0,0-0.2-12.6,0-13.9c0.2-1.3,2.1-6.3,2.6-6.8C159.1,47.8,163,47.2,163,47.2z"/>
				<path class="st13" d="M162,43c0,0,0,0.1,0,0.3c0.1,0.8,0.7,3.3,1.1,4c0.4,0.8-1.5,3.5-3.4,3.2c-0.6-0.1,0.5-2.5,0.4-2.7
					c-0.1-0.5-0.2-1.1-0.4-1.8c-0.1-0.4-0.2-0.8-0.2-1.1c-0.2-1-0.4-1.9-0.4-1.9H162z"/>
				<path class="st14" d="M162,43.2c0-0.2,0-0.3,0-0.3l-2.9-0.1c0,0,0.2,0.8,0.4,1.9c0.1,0.4,0.1,0.7,0.2,1.1
					c0.4-0.1,0.9-0.3,1.4-0.7s0.8-1,1-1.5C162.1,43.5,162,43.4,162,43.2z"/>
				<path class="st13" d="M160.1,36.5c0,0,1.3-0.2,2.2,0.9c0.8,1.1,1.8,4.5-0.3,6.3s-4.2-0.2-4.5-2.4
					C157.1,39.1,157,36.4,160.1,36.5z"/>
				<path class="st13" d="M156.8,41.2c0.2,0.5,0.7,0.8,0.9,0.6c0.3-0.2,0.3-0.7,0-1.2c-0.2-0.5-0.7-0.8-0.9-0.6
					S156.6,40.8,156.8,41.2z"/>
				<path class="st10" d="M159.9,36.1c0,0,1.8,3.2,3.1,3.4c1.3,0.1,1.5,1.9,1.5,1.9s-0.5-3.9-1.7-4.7
					C161.4,35.9,159.9,36.1,159.9,36.1z"/>
				<path class="st13" d="M162.7,40.3c-0.1,0.6,0.1,1.1,0.5,1.2c0.4,0.1,0.7-0.3,0.8-0.9c0.1-0.6-0.1-1.1-0.5-1.2
					C163.1,39.3,162.8,39.7,162.7,40.3z"/>
				<path class="st18" d="M159.9,58.1c0,0,5.8-3,7.1-4.6s1-4.6-0.6-5.3s-8.3,6-8.3,6L159.9,58.1z"/>
			</g>
		</g>
	</g>
	<g>
		<g>
			<defs>
				<circle id="SVGID_7_" cx="184.7" cy="19.2" r="5.5"/>
			</defs>
			<clipPath id="SVGID_8_">
				<use xlink:href="#SVGID_7_"  style="overflow:visible;"/>
			</clipPath>
			<g class="st19">
				<circle class="st3" cx="184.7" cy="19.2" r="5.9"/>
			</g>
		</g>
		<g>
			<defs>
				<circle id="SVGID_9_" cx="184.7" cy="19.2" r="5.5"/>
			</defs>
			<clipPath id="SVGID_10_">
				<use xlink:href="#SVGID_9_"  style="overflow:visible;"/>
			</clipPath>
			<g class="st20">
				<path class="st10" d="M186.6,15.8c-1.5-0.8-3.3-0.1-3.4,2c-0.1,2.1,1.4,2.9,2.8,2.7C187.4,20.4,188.9,16.7,186.6,15.8z"/>
				<circle class="st10" cx="183.4" cy="19.3" r="0.7"/>
				<circle class="st10" cx="184.1" cy="20" r="0.7"/>
				<circle class="st10" cx="185.1" cy="20.5" r="0.7"/>
				<circle class="st10" cx="183.1" cy="18.1" r="0.7"/>
				<circle class="st10" cx="183.3" cy="16.9" r="0.7"/>
				<circle class="st10" cx="184.2" cy="16.1" r="0.7"/>
				<circle class="st10" cx="185.3" cy="15.7" r="0.7"/>
				<circle class="st10" cx="186.4" cy="15.8" r="0.7"/>
				<circle class="st10" cx="187.3" cy="16.7" r="0.7"/>
				<circle class="st10" cx="187.3" cy="19" r="0.7"/>
				<circle class="st10" cx="186.5" cy="20.1" r="0.7"/>
				<circle class="st10" cx="187.6" cy="17.8" r="0.7"/>
				<circle class="st10" cx="185.5" cy="20.4" r="0.7"/>
				<path class="st17" d="M187.4,22.3l5.2-0.2c0,0,4-1.3,4.1-1.3s0.7-1.6,0.9-1.5s-0.4,0.8-0.1,0.9c0.2,0.1,2.2-0.5,2.2-0.4
					c0,0.3-1.2,0.4-1.2,0.6c0,0.1,1.2-0.3,1.3,0c0.1,0.2-1.2,0.3-1.2,0.4s1.2,0.1,1.1,0.3c-0.1,0.1-1.1,0-1.1,0.1
					c0,0.2,0.8,0.4,0.8,0.6c-0.1,0.1-0.6-0.3-1.1-0.2c-0.4,0.1-0.8-0.1-1.4,0.2c-0.7,0.3-2.8,1.6-4.3,1.8c-1.5,0.2-4.7,0.5-4.7,0.5
					L187.4,22.3z"/>
				<path class="st18" d="M186.5,22.1c-2.8,0.1-0.3,2.5-0.3,2.5l4.2-0.6c0.1-0.8-0.1-1.8-0.1-2C189.3,21.9,187.2,22,186.5,22.1z"/>
				<path class="st14" d="M184.3,21.6c0,0-1.2,0-1.9,0.7c-0.6,0.7,1,6.2,1.1,7.1c0.1,0.9-0.6,3.3-0.6,3.3s3.8,0.8,4.9,0
					c0,0,0.1-6.5,0-7.1s-1.1-3.2-1.3-3.5C186.3,21.9,184.3,21.6,184.3,21.6z"/>
				<path class="st21" d="M184.8,19.4c0,0,0,0,0,0.1c-0.1,0.4-0.4,1.7-0.5,2.1c-0.2,0.4,0.8,1.8,1.8,1.6c0.3-0.1-0.2-1.3-0.2-1.4
					c0-0.2,0.1-0.6,0.2-0.9c0-0.2,0.1-0.4,0.1-0.6c0.1-0.5,0.2-1,0.2-1L184.8,19.4z"/>
				<path class="st22" d="M184.8,19.6c0-0.1,0-0.1,0-0.1h1.5c0,0-0.1,0.4-0.2,1c0,0.2-0.1,0.4-0.1,0.6c-0.2,0-0.5-0.1-0.7-0.4
					c-0.3-0.2-0.4-0.5-0.5-0.8C184.8,19.7,184.8,19.6,184.8,19.6z"/>
				<path class="st21" d="M185.8,16.1c0,0-0.7-0.1-1.1,0.5c-0.4,0.6-0.9,2.3,0.2,3.2c1.1,0.9,2.1-0.1,2.3-1.3
					C187.3,17.4,187.4,16.1,185.8,16.1z"/>
				<path class="st21" d="M187.5,18.6c-0.1,0.2-0.3,0.4-0.5,0.3c-0.1-0.1-0.1-0.3,0-0.6c0.1-0.2,0.3-0.4,0.5-0.3
					C187.6,18,187.6,18.3,187.5,18.6z"/>
				<path class="st10" d="M185.9,15.9c0,0-0.9,1.6-1.6,1.7c-0.7,0.1-0.7,0.9-0.7,0.9s0.2-2,0.9-2.4
					C185.1,15.8,185.9,15.9,185.9,15.9z"/>
				<path class="st21" d="M184.5,18.1c0.1,0.3-0.1,0.6-0.2,0.6c-0.2,0-0.4-0.2-0.4-0.5c-0.1-0.3,0.1-0.6,0.2-0.6
					S184.4,17.8,184.5,18.1z"/>
				<path class="st18" d="M185.9,27.2c0,0-3-1.5-3.6-2.3c-0.7-0.8-0.5-2.4,0.3-2.7c0.8-0.4,4.3,3.1,4.3,3.1L185.9,27.2z"/>
			</g>
		</g>
	</g>
	<g>
		<g>
			<defs>
				<circle id="SVGID_11_" cx="246.7" cy="45.5" r="12.1"/>
			</defs>
			<clipPath id="SVGID_12_">
				<use xlink:href="#SVGID_11_"  style="overflow:visible;"/>
			</clipPath>
			<g class="st23">
				<path class="st14" d="M250.9,38c-2.6-1.4-6.5-0.7-7.5,4.5c-0.6,3-2.1,6.2-2.1,6.2c3.9,1.8,8.1,1.8,11.5,1.2
					C252.8,49.9,255.7,39.9,250.9,38z"/>
				<path class="st17" d="M252.6,52.2l11.3-0.4c0,0,8.8-2.8,9.1-2.8c0.3-0.1,1.6-3.6,2-3.3s-0.8,1.8-0.3,2c0.5,0.3,4.8-1.1,4.7-0.8
					c0,0.7-2.6,1-2.5,1.3s2.7-0.6,2.9-0.1c0.3,0.5-2.6,0.6-2.6,0.8c-0.1,0.2,2.7,0.2,2.5,0.8c-0.1,0.3-2.4-0.1-2.4,0.3
					c0.1,0.3,1.8,0.9,1.6,1.2c-0.2,0.3-1.4-0.7-2.3-0.5c-0.9,0.1-1.7-0.3-3.1,0.4s-6.2,3.6-9.5,3.9c-3.2,0.3-10.4,1.1-10.4,1.1
					L252.6,52.2z"/>
				<path class="st24" d="M250.5,51.7c-6.2,0.3-0.7,5.5-0.7,5.5l9.1-1.3c0.3-1.8-0.2-4-0.2-4.5C256.8,51.3,252,51.6,250.5,51.7z"/>
				<path class="st25" d="M245.7,50.7c0,0-2.7,0-4.1,1.5c-1.4,1.5,2.2,13.6,2.5,15.5c0.3,2-1.3,7.2-1.3,7.2s8.4,1.7,10.8,0.1
					c0,0,0.3-14.1,0-15.5s-2.4-7.1-2.9-7.7C250.2,51.3,245.7,50.7,245.7,50.7z"/>
				<path class="st13" d="M246.9,45.9c0,0,0,0.1-0.1,0.3c-0.2,0.9-0.8,3.7-1.2,4.5c-0.5,0.9,1.7,4,3.8,3.6c0.6-0.1-0.5-2.8-0.5-3.1
					c0.1-0.5,0.3-1.3,0.4-2c0.1-0.4,0.2-0.9,0.2-1.3c0.2-1.2,0.4-2.1,0.4-2.1L246.9,45.9z"/>
				<path class="st26" d="M246.8,46.2c0-0.2,0.1-0.3,0.1-0.3l3.2-0.1c0,0-0.2,0.9-0.4,2.1c-0.1,0.4-0.2,0.8-0.2,1.3
					c-0.5-0.1-1-0.3-1.5-0.8c-0.6-0.5-0.9-1.1-1.2-1.7C246.8,46.5,246.8,46.3,246.8,46.2z"/>
				<path class="st13" d="M249,38.6c0,0-1.5-0.2-2.4,1s-2,5,0.4,7.1c2.3,2.1,4.7-0.3,5-2.7C252.3,41.5,252.5,38.5,249,38.6z"/>
				<path class="st13" d="M252.7,44c-0.3,0.5-0.7,0.8-1,0.7c-0.3-0.2-0.3-0.8,0-1.3s0.7-0.8,1-0.7C252.9,42.8,253,43.4,252.7,44z"/>
				<path class="st14" d="M249.2,38.2c0,0-2,3.6-3.4,3.8s-1.6,2.1-1.6,2.1s0.5-4.4,1.9-5.3C247.5,38,249.2,38.2,249.2,38.2z"/>
				<path class="st13" d="M246.1,42.9c0.1,0.6-0.1,1.2-0.5,1.3s-0.8-0.4-0.9-1c-0.1-0.6,0.1-1.2,0.5-1.3
					C245.6,41.8,246,42.3,246.1,42.9z"/>
				<path class="st24" d="M249.3,62.9c0,0-6.5-3.3-7.9-5.1s-1.1-5.2,0.7-6s9.3,6.7,9.3,6.7L249.3,62.9z"/>
			</g>
		</g>
	</g>
	<g>
		<g>
			<defs>
				<circle id="SVGID_13_" cx="279" cy="79.7" r="7.5"/>
			</defs>
			<clipPath id="SVGID_14_">
				<use xlink:href="#SVGID_13_"  style="overflow:visible;"/>
			</clipPath>
			<g class="st27">
				<path class="st28" d="M276.4,75c2.1-1.1,4.5-0.1,4.6,2.8c0.2,2.9-1.8,3.9-3.8,3.7C275.3,81.3,273.4,76.2,276.4,75z"/>
				<circle class="st28" cx="279.7" cy="82.6" r="2"/>
				<path class="st17" d="M275.3,83.8l-7-0.2c0,0-5.5-1.7-5.6-1.8c-0.2,0-1-2.2-1.2-2s0.5,1.1,0.2,1.3c-0.3,0.2-2.9-0.7-2.9-0.5
					c0,0.4,1.6,0.6,1.6,0.8c0,0.2-1.7-0.4-1.8-0.1c-0.2,0.3,1.6,0.4,1.6,0.5c0,0.2-1.7,0.2-1.5,0.5c0.1,0.2,1.5,0,1.5,0.2
					s-1.1,0.6-1,0.7c0.1,0.2,0.9-0.4,1.5-0.3s1-0.2,1.9,0.2c0.9,0.4,3.9,2.2,5.9,2.4c2,0.2,6.4,0.7,6.4,0.7L275.3,83.8z"/>
				<path class="st11" d="M276.6,83.5c3.8,0.2,0.5,3.4,0.5,3.4l-5.7-0.8c-0.2-1.1,0.1-2.5,0.1-2.8C272.8,83.2,275.7,83.5,276.6,83.5
					z"/>
				<path class="st12" d="M279.6,82.9c0,0,1.6,0,2.5,0.9c0.9,1-1.4,8.4-1.5,9.6c-0.2,1.2,0.8,4.5,0.8,4.5s-5.2,1-6.7,0.1
					c0,0-0.2-8.8,0-9.6c0.2-0.9,1.5-4.4,1.8-4.8C276.8,83.2,279.6,82.9,279.6,82.9z"/>
				<path class="st13" d="M278.9,79.9c0,0,0,0.1,0,0.2c0.1,0.5,0.5,2.3,0.7,2.8c0.3,0.6-1.1,2.5-2.4,2.2c-0.4-0.1,0.3-1.7,0.3-1.9
					c-0.1-0.3-0.2-0.8-0.2-1.3c-0.1-0.3-0.1-0.5-0.2-0.8c-0.1-0.7-0.3-1.3-0.3-1.3L278.9,79.9z"/>
				<path class="st14" d="M278.9,80.1c0-0.1,0-0.2,0-0.2h-2c0,0,0.1,0.6,0.3,1.3c0,0.3,0.1,0.5,0.2,0.8c0.3,0,0.6-0.2,0.9-0.5
					s0.6-0.7,0.7-1.1C278.9,80.3,278.9,80.2,278.9,80.1z"/>
				<path class="st13" d="M277.5,75.4c0,0,0.9-0.1,1.5,0.7c0.6,0.8,1.2,3.1-0.2,4.4c-1.5,1.3-2.9-0.2-3.1-1.7
					C275.5,77.2,275.4,75.4,277.5,75.4z"/>
				<path class="st13" d="M275.3,78.7c0.2,0.3,0.5,0.5,0.7,0.4s0.2-0.5,0-0.8s-0.5-0.5-0.7-0.4C275.1,78,275.1,78.4,275.3,78.7z"/>
				<path class="st28" d="M277.4,75.2c0,0,1.2,2.2,2.1,2.3c0.9,0.1,1,1.3,1,1.3s-0.3-2.7-1.2-3.3C278.5,75,277.4,75.2,277.4,75.2z"
					/>
				<path class="st13" d="M279.3,78.1c-0.1,0.4,0.1,0.8,0.3,0.8c0.3,0.1,0.5-0.2,0.6-0.6s-0.1-0.8-0.3-0.8
					C279.7,77.4,279.4,77.7,279.3,78.1z"/>
				<path class="st11" d="M277.4,90.4c0,0,4-2.1,4.9-3.2s0.7-3.2-0.5-3.7c-1.1-0.5-5.8,4.2-5.8,4.2L277.4,90.4z"/>
			</g>
		</g>
	</g>
	<g>
		<g>
			<defs>
				<circle id="SVGID_15_" cx="200.9" cy="46.1" r="6.4"/>
			</defs>
			<clipPath id="SVGID_16_">
				<use xlink:href="#SVGID_15_"  style="overflow:visible;"/>
			</clipPath>
			<g class="st29">
				<path class="st14" d="M189.7,50.3c0,0,2.3-0.6,2.3-0.4c0.6,4,0.8,5.4,0.9,5.5c0.3,0.1,3.8-3.3,4.5-3.5c0.3-0.1,0.6-0.1,1-0.1
					c0.8,0,0.9,0,0.9,0l0,0v0.7c-0.9,0.8-1.7,16.4-1.9,16.4s-3.7,0-3.6-0.3c0,0,0.9-4.8,1.5-8c0.2-1.1,0.9-3.3,0.9-3.3
					c-0.9,0.5-4.2,2.2-4.8,2C189.8,58.6,189.7,50.3,189.7,50.3z"/>
				<path class="st30" d="M196.3,59.8c0.4-1.9,1.4-5,1.7-5.8c0.7-1.6,1.2-2.3,1.2-2.3l2.6,0.1h0.1c0.2,0,0.2,7.7,0.1,10.6
					c-0.1,2.9-0.8,6.6-0.8,6.6l-0.8-0.1c0,0.4,0,0.6,0,0.6c-3.8,0.7-6-1.2-6-1.2S195.8,62.2,196.3,59.8z"/>
				<path class="st14" d="M201.9,51.8c0,0,2.6-0.2,3.3-0.5c0.4-0.2,3.7-3,3.7-3l-0.2-7.3l2.4-0.2c0,0,1.4,8,1,8.9
					c-0.4,0.9-5.2,4.8-6.2,6.4c-0.5,0.9,0,13.8-0.2,13.9c-1.3,0.7-6.5,1.3-6.5,0.9C201.5,59.7,201.9,51.8,201.9,51.8z"/>
				<path class="st13" d="M201.7,49.4l0.1,2.3c0,0-1.6,3-2.5,2.6c-0.7-0.3-0.2-2.6-0.2-2.6s0.1-0.5,0.3-1.1c0.1-0.4,0.2-0.9,0.2-1.2
					C199.6,48.7,201.7,49.4,201.7,49.4z"/>
				<path class="st14" d="M199.7,49.5c0-0.8,2.1,0,2.1,0v0.2c-0.1,0.1-0.1,0.2-0.2,0.3c-0.5,0.5-1.4,0.7-2,0.6
					C199.6,50.2,199.7,49.8,199.7,49.5z"/>
				<g>
					<path class="st31" d="M199.6,44.2c0,0-0.8,1.3-0.9,2.4c0,1.1,0.2,1.9,0.2,1.9l2.7-3.4L199.6,44.2z"/>
					
						<ellipse transform="matrix(7.539316e-02 -0.9972 0.9972 7.539316e-02 137.4869 241.1422)" class="st32" cx="198.8" cy="46.4" rx="0.7" ry="0.4"/>
					<path class="st13" d="M202.5,45.6c0.1,0,0.1,3.2-0.8,4c-0.9,0.8-2.5,0.9-3,0.1c-0.5-0.8-0.1-4.2,1.2-5
						C201.3,44,202.5,45.6,202.5,45.6z"/>
					<path class="st31" d="M202.7,43.6c0.7,0.6,1.1,1.1,1.6,2.1c0.6,1.3-0.5,2.8-1.5,3.4c-1,0.6-1,1.3-1,1.3l-0.1-0.4
						c0-0.2,0-0.3,0-0.4c0-0.1,0.1-0.2,0.1-0.3c0.1-0.2,0.3-0.8,0.4-1c0.3-0.4,0.3-0.5,0.2-0.9c-0.1-0.3,0-1-0.2-1.5l-1.3-0.3
						c0,0-0.8-0.2-1.3-0.6C198.5,43.6,200.8,41.9,202.7,43.6z"/>
					
						<ellipse transform="matrix(0.3962 -0.9182 0.9182 0.3962 78.3893 214.805)" class="st13" cx="202.5" cy="47.8" rx="0.7" ry="0.4"/>
				</g>
			</g>
		</g>
	</g>
	<g>
		<g>
			<defs>
				<circle id="SVGID_17_" cx="71.7" cy="54.6" r="9.9"/>
			</defs>
			<clipPath id="SVGID_18_">
				<use xlink:href="#SVGID_17_"  style="overflow:visible;"/>
			</clipPath>
			<g class="st33">
				<path class="st28" d="M54.3,61c0,0,3.5-0.9,3.5-0.7c0.9,6.2,1.3,8.4,1.4,8.5c0.4,0.2,5.9-5.1,6.9-5.5c0.5-0.2,1-0.2,1.5-0.2
					c1.2,0,1.4,0,1.4,0l0,0v1.1c-1.3,1.2-2.6,25.4-2.9,25.4s-5.8,0-5.5-0.5c0,0,1.3-7.4,2.4-12.3c0.3-1.6,1.3-5.1,1.3-5.1
					c-1.3,0.7-6.6,3.5-7.4,3.1C54.5,73.9,54.3,61,54.3,61z"/>
				<path class="st28" d="M64.6,75.7c0.6-3,2.1-7.8,2.6-8.9c1-2.5,1.9-3.6,1.9-3.6l4.1,0.1h0.1c0.3,0.1,0.3,12,0.2,16.4
					C73.3,84.2,72.3,90,72.3,90l-1.2-0.1c0,0.6,0,1,0,1c-5.9,1-9.2-1.9-9.2-1.9S63.9,79.5,64.6,75.7z"/>
				<path class="st28" d="M73.2,63.3c0,0,4-0.3,5.1-0.8c0.6-0.3,5.7-4.6,5.7-4.6l-0.4-11.2l3.7-0.4c0,0,2.2,12.4,1.6,13.7
					c-0.6,1.4-8.1,7.4-9.6,9.9c-0.8,1.5,0,21.4-0.3,21.6c-1.9,1.1-10.1,2-10,1.4C72.6,75.6,73.2,63.3,73.2,63.3z"/>
				<path class="st21" d="M73,59.7l0.2,3.6c0,0-2.5,4.6-3.9,4c-1.2-0.5-0.2-4-0.2-4s0.2-0.8,0.4-1.7c0.2-0.6,0.3-1.3,0.3-1.8
					C69.7,58.5,73,59.7,73,59.7z"/>
				<path class="st34" d="M69.8,59.7c-0.1-1.2,3.2-0.1,3.2-0.1V60c-0.1,0.2-0.2,0.3-0.4,0.4c-0.9,0.7-2.1,1.1-3.1,1
					C69.7,60.8,69.8,60.2,69.8,59.7z"/>
				<g>
					<path class="st31" d="M69.6,51.5c0,0-1.3,2.1-1.3,3.8c-0.1,1.7,0.3,2.9,0.3,2.9l4.2-5.3L69.6,51.5z"/>
					
						<ellipse transform="matrix(7.534611e-02 -0.9972 0.9972 7.534611e-02 8.4746 119.0952)" class="st34" cx="68.5" cy="55" rx="1.1" ry="0.6"/>
					<path class="st21" d="M74.2,53.7c0.1,0,0.2,5-1.2,6.2c-1.4,1.2-3.9,1.4-4.7,0.2c-0.8-1.3-0.2-6.5,1.9-7.7
						C72.4,51.2,74.2,53.7,74.2,53.7z"/>
					<path class="st31" d="M74.5,50.6c1.1,0.9,1.7,1.6,2.5,3.3c1,2.1-0.8,4.3-2.3,5.2s-1.6,2-1.6,2L73,60.5c0-0.2,0-0.4,0-0.6
						c0-0.2,0.1-0.4,0.2-0.5c0.1-0.3,0.5-1.2,0.7-1.5c0.4-0.7,0.5-0.8,0.3-1.4c-0.2-0.5,0-1.6-0.3-2.3l-2.1-0.4c0,0-1.3-0.3-2-1
						C67.9,50.6,71.5,48.1,74.5,50.6z"/>
					
						<ellipse transform="matrix(0.3962 -0.9182 0.9182 0.3962 -7.6409 102.7211)" class="st21" cx="74.3" cy="57.2" rx="1.1" ry="0.6"/>
				</g>
			</g>
		</g>
	</g>
	<g>
		<g>
			<defs>
				<circle id="SVGID_19_" cx="130.6" cy="13.6" r="8.4"/>
			</defs>
			<clipPath id="SVGID_20_">
				<use xlink:href="#SVGID_19_"  style="overflow:visible;"/>
			</clipPath>
			<g class="st35">
				<circle class="st3" cx="130.6" cy="13.6" r="9.5"/>
			</g>
		</g>
		<g>
			<defs>
				<circle id="SVGID_21_" cx="130.6" cy="13.6" r="8.4"/>
			</defs>
			<clipPath id="SVGID_22_">
				<use xlink:href="#SVGID_21_"  style="overflow:visible;"/>
			</clipPath>
			<g class="st36">
				<path class="st10" d="M145.4,19.1c0,0-3-0.8-3-0.6c-0.8,5.3-1.1,7.2-1.2,7.2c-0.4,0.2-5.1-4.3-5.9-4.7c-0.4-0.2-0.9-0.1-1.3-0.1
					c-1,0-1.2,0-1.2,0l0,0v1c1.1,1.1,2.2,21.6,2.4,21.6s4.9,0,4.7-0.4c0,0-1.1-6.3-2-10.5c-0.3-1.4-1.1-4.3-1.1-4.3
					c1.1,0.6,5.6,3,6.3,2.7C145.3,30.1,145.4,19.1,145.4,19.1z"/>
				<path class="st30" d="M136.6,31.6c-0.5-2.5-1.8-6.7-2.2-7.6c-0.9-2.2-1.6-3.1-1.6-3.1l-3.5,0.1h-0.1c-0.3,0-0.3,10.2-0.1,14
					s1,8.7,1,8.7l1-0.1c0,0.5,0,0.8,0,0.8c5,0.9,7.9-1.6,7.9-1.6S137.2,34.9,136.6,31.6z"/>
				<path class="st10" d="M129.3,21c0,0-3.4-0.3-4.3-0.7c-0.5-0.3-4.9-3.9-4.9-3.9l0.3-9.6l-3.1-0.3c0,0-1.9,10.5-1.4,11.7
					c0.5,1.2,6.9,6.3,8.1,8.5c0.7,1.2,0,18.2,0.3,18.4c1.7,0.9,8.6,1.7,8.5,1.2C129.8,31.5,129.3,21,129.3,21z"/>
				<path class="st13" d="M129.4,18l-0.2,3.1c0,0,2.2,3.9,3.3,3.4c1-0.4,0.2-3.4,0.2-3.4s-0.2-0.7-0.4-1.5c-0.1-0.5-0.3-1.1-0.2-1.6
					C132.2,17,129.4,18,129.4,18z"/>
				<path class="st14" d="M132.2,18c0.1-1-2.7-0.1-2.7-0.1v0.3c0.1,0.1,0.2,0.3,0.3,0.4c0.7,0.6,1.8,0.9,2.7,0.8
					C132.3,19,132.2,18.4,132.2,18z"/>
				<g>
					<path class="st14" d="M132.3,11c0,0,1.1,1.8,1.2,3.2c0,1.5-0.3,2.4-0.3,2.4l-3.6-4.5L132.3,11z"/>
					
						<ellipse transform="matrix(0.9972 -7.529894e-02 7.529894e-02 0.9972 -0.6759 10.0774)" class="st32" cx="133.3" cy="14" rx="0.5" ry="0.9"/>
					<path class="st13" d="M128.4,12.9c-0.1,0-0.2,4.2,1,5.2s3.3,1.2,4,0.2c0.7-1.1,0.2-5.6-1.6-6.6C130,10.7,128.4,12.9,128.4,12.9
						z"/>
					<path class="st14" d="M128.2,10.2c-1,0.8-1.4,1.4-2.1,2.8c-0.8,1.8,0.7,3.7,2,4.5c1.3,0.8,1.4,1.7,1.4,1.7l0.1-0.6
						c0-0.2,0-0.4,0-0.5c0-0.2-0.1-0.3-0.2-0.5c-0.1-0.2-0.4-1.1-0.6-1.3c-0.4-0.6-0.4-0.7-0.2-1.2c0.1-0.4,0-1.3,0.2-2l1.8-0.3
						c0,0,1.1-0.2,1.7-0.9C133.8,10.2,130.7,8.1,128.2,10.2z"/>
					
						<ellipse transform="matrix(0.9182 -0.3962 0.3962 0.9182 4.2124 52.1757)" class="st13" cx="128.4" cy="15.9" rx="0.5" ry="0.9"/>
				</g>
			</g>
		</g>
	</g>
	<g>
		<g>
			<defs>
				<circle id="SVGID_23_" cx="171.3" cy="70.7" r="4.3"/>
			</defs>
			<clipPath id="SVGID_24_">
				<use xlink:href="#SVGID_23_"  style="overflow:visible;"/>
			</clipPath>
			<g class="st37">
				<path class="st28" d="M163.8,73.5c0,0,1.5-0.4,1.5-0.3c0.4,2.7,0.6,3.6,0.6,3.7c0.2,0.1,2.6-2.2,3-2.4c0.2-0.1,0.4-0.1,0.7-0.1
					c0.5,0,0.6,0,0.6,0l0,0v0.5c-0.6,0.5-1.1,11-1.2,11c-0.1,0-2.5,0-2.4-0.2c0,0,0.6-3.2,1-5.3c0.2-0.7,0.6-2.2,0.6-2.2
					c-0.6,0.3-2.8,1.5-3.2,1.4C163.8,79,163.8,73.5,163.8,73.5z"/>
				<path class="st30" d="M168.2,79.8c0.3-1.3,0.9-3.4,1.1-3.8c0.4-1.1,0.8-1.6,0.8-1.6l1.8,0.1c0,0,0,0,0.1,0s0.1,5.2,0.1,7.1
					c-0.1,1.9-0.5,4.4-0.5,4.4h-0.5c0,0.3,0,0.4,0,0.4c-2.6,0.5-4-0.8-4-0.8S167.9,81.5,168.2,79.8z"/>
				<path class="st28" d="M172,74.5c0,0,1.7-0.1,2.2-0.3c0.3-0.1,2.5-2,2.5-2l-0.2-4.9l1.6-0.2c0,0,1,5.3,0.7,5.9s-3.5,3.2-4.1,4.3
					c-0.4,0.6,0,9.2-0.1,9.3c-0.8,0.5-4.4,0.9-4.3,0.6C171.7,79.8,172,74.5,172,74.5z"/>
				<path class="st13" d="M171.9,72.9l0.1,1.6c0,0-1.1,2-1.7,1.7c-0.5-0.2-0.1-1.7-0.1-1.7s0.1-0.3,0.2-0.7c0.1-0.3,0.1-0.6,0.1-0.8
					C170.4,72.4,171.9,72.9,171.9,72.9z"/>
				<path class="st14" d="M170.5,72.9c0-0.5,1.4,0,1.4,0v0.2c0,0.1-0.1,0.1-0.2,0.2c-0.4,0.3-0.9,0.5-1.4,0.4
					C170.4,73.4,170.5,73.1,170.5,72.9z"/>
				<g>
					<path class="st10" d="M170.4,69.4c0,0-0.6,0.9-0.6,1.6s0.1,1.2,0.1,1.2l1.8-2.3L170.4,69.4z"/>
					
						<ellipse transform="matrix(7.533731e-02 -0.9972 0.9972 7.533731e-02 86.426 234.9623)" class="st32" cx="169.9" cy="70.9" rx="0.5" ry="0.3"/>
					<path class="st13" d="M172.4,70.3c0,0,0.1,2.1-0.5,2.7c-0.6,0.5-1.7,0.6-2,0.1c-0.4-0.6-0.1-2.8,0.8-3.3
						C171.6,69.2,172.4,70.3,172.4,70.3z"/>
					<path class="st10" d="M172.5,69c0.5,0.4,0.7,0.7,1.1,1.4c0.4,0.9-0.3,1.9-1,2.3c-0.6,0.4-0.7,0.8-0.7,0.8v-0.3
						c0-0.1,0-0.2,0-0.3c0-0.1,0.1-0.2,0.1-0.2c0.1-0.1,0.2-0.5,0.3-0.6c0.2-0.3,0.2-0.4,0.1-0.6c-0.1-0.2,0-0.7-0.1-1l-0.9-0.2
						c0,0-0.6-0.1-0.8-0.4C169.7,69,171.2,67.9,172.5,69z"/>
					
						<ellipse transform="matrix(0.3962 -0.9182 0.9182 0.3962 38.1368 201.6311)" class="st13" cx="172.4" cy="71.8" rx="0.5" ry="0.3"/>
				</g>
			</g>
		</g>
	</g>
	<g>
		<g>
			<defs>
				<circle id="SVGID_25_" cx="233.7" cy="79.3" r="5.7"/>
			</defs>
			<clipPath id="SVGID_26_">
				<use xlink:href="#SVGID_25_"  style="overflow:visible;"/>
			</clipPath>
			<g class="st38">
				<path class="st14" d="M243.7,83c0,0-2-0.5-2.1-0.4c-0.5,3.6-0.7,4.9-0.8,4.9c-0.3,0.1-3.4-3-4-3.2c-0.3-0.1-0.6-0.1-0.9-0.1
					c-0.7,0-0.8,0-0.8,0l0,0v0.7c0.8,0.7,1.5,14.7,1.7,14.7s3.3,0,3.2-0.3c0,0-0.8-4.3-1.4-7.2c-0.2-1-0.8-2.9-0.8-2.9
					c0.8,0.4,3.8,2,4.3,1.8C243.7,90.5,243.7,83,243.7,83z"/>
				<path class="st30" d="M237.7,91.5c-0.3-1.7-1.2-4.5-1.5-5.2c-0.6-1.5-1.1-2.1-1.1-2.1l-2.4,0.1h-0.1c-0.2,0-0.2,6.9-0.1,9.5
					c0.1,2.6,0.7,5.9,0.7,5.9l0.7-0.1c0,0.3,0,0.6,0,0.6c3.4,0.6,5.3-1.1,5.3-1.1S238.2,93.7,237.7,91.5z"/>
				<path class="st14" d="M232.8,84.3c0,0-2.3-0.2-2.9-0.5c-0.4-0.2-3.3-2.7-3.3-2.7l0.2-6.5l-2.1-0.2c0,0-1.3,7.2-0.9,8
					c0.4,0.8,4.7,4.3,5.5,5.8c0.5,0.9,0,12.4,0.2,12.5c1.1,0.6,5.9,1.2,5.8,0.8C233.1,91.5,232.8,84.3,232.8,84.3z"/>
				<path class="st13" d="M232.9,82.3l-0.1,2.1c0,0,1.5,2.7,2.3,2.3c0.7-0.3,0.1-2.3,0.1-2.3s-0.1-0.5-0.2-1
					c-0.1-0.4-0.2-0.8-0.2-1.1C234.8,81.6,232.9,82.3,232.9,82.3z"/>
				<path class="st14" d="M234.7,82.3c0-0.7-1.9,0-1.9,0v0.2c0.1,0.1,0.1,0.2,0.2,0.2c0.5,0.4,1.2,0.6,1.8,0.6
					C234.8,82.9,234.7,82.6,234.7,82.3z"/>
				<g>
					<path class="st31" d="M234.8,77.5c0,0,0.8,1.2,0.8,2.2s-0.2,1.7-0.2,1.7l-2.4-3.1L234.8,77.5z"/>
					
						<ellipse transform="matrix(0.9972 -7.531381e-02 7.531381e-02 0.9972 -5.3265 17.9635)" class="st32" cx="235.5" cy="79.6" rx="0.4" ry="0.6"/>
					<path class="st13" d="M232.2,78.8c-0.1,0-0.1,2.9,0.7,3.6s2.3,0.8,2.7,0.1c0.5-0.7,0.1-3.8-1.1-4.5
						C233.3,77.3,232.2,78.8,232.2,78.8z"/>
					<path class="st31" d="M232,77c-0.7,0.5-1,0.9-1.4,1.9c-0.6,1.2,0.5,2.5,1.3,3c0.9,0.5,0.9,1.1,0.9,1.1v-0.4c0-0.1,0-0.2,0-0.3
						c0-0.1-0.1-0.2-0.1-0.3c-0.1-0.2-0.3-0.7-0.4-0.9c-0.2-0.4-0.3-0.5-0.2-0.8s0-0.9,0.2-1.4l1.2-0.2c0,0,0.7-0.2,1.1-0.6
						C235.8,77,233.7,75.5,232,77z"/>
					
						<ellipse transform="matrix(0.9182 -0.3962 0.3962 0.9182 -13.0086 98.6053)" class="st13" cx="232.2" cy="80.8" rx="0.4" ry="0.6"/>
				</g>
			</g>
		</g>
	</g>
	<g>
		<g>
			<defs>
				<circle id="SVGID_27_" cx="200.9" cy="80.3" r="12"/>
			</defs>
			<clipPath id="SVGID_28_">
				<use xlink:href="#SVGID_27_"  style="overflow:visible;"/>
			</clipPath>
			<g class="st39">
				<path class="st10" d="M197.9,94.6c0,0,2.7-3.6,3.7-5.3c1-1.7-0.7-0.6-2.4-1c-0.6-0.2-0.1-3.7-1.3-2.5c-2,2-4,6.4-4,6.4
					L197.9,94.6z"/>
				<path class="st40" d="M198.2,85.5c1.8-0.5,5-0.8,5-0.8s2.1-0.3,2.7-0.2c1,0.2,2.8,0.3,3,4.6c0.1,3.1,0.5,10.6,0.8,15.7
					l-12.5,0.8C197.8,97.7,196.5,86,198.2,85.5z"/>
				<path class="st13" d="M201.5,81.1l2,3.6c0,0-1.5,2.6-2.9,2.7c-1.2,0.1-1-1.7-1-1.7s-0.2-2.2-0.7-3.3S201.5,81.1,201.5,81.1z"/>
				<path class="st14" d="M201.3,82.5c-0.4,0.5-1.2,1.1-2,1.5c-0.1-0.6-0.3-1.1-0.5-1.5c-0.3-0.5,0.3-0.8,0.9-1
					c0.9-0.2,1.7-0.4,1.7-0.4l0.4,0.7C201.8,82,201.5,82.4,201.3,82.5z"/>
				<g>
					<path class="st13" d="M200.5,75c0.1-0.1,2,4.5,1.2,6.1s-3.1,2.7-4.2,1.9c-1.2-0.9-2.6-5.9-1.1-7.8
						C197.9,73.4,200.5,75,200.5,75z"/>
					<path class="st28" d="M196.4,72.5c1.5-0.1,2.7,0.5,3.2,0.8c0.7-0.1,1.7,0,3,1.3c1.7,1.6,1.4,3.9,0.4,5.2
						c-1,1.4-0.7,2.6-0.7,2.6l-0.4-0.5c-0.3-0.4-0.5-0.9-0.6-1.4c0-0.3-0.1-0.6,0-0.9c0.1-0.8-1-0.9-1.4-1.4c-0.3-0.4-0.6-1.4-1.2-2
						l-0.6-0.4c0,0-1.1-0.5-2,0C195.3,76.1,194.5,72.6,196.4,72.5z"/>
					
						<ellipse transform="matrix(0.9679 -0.2515 0.2515 0.9679 -13.3451 53.0036)" class="st13" cx="200.7" cy="78.7" rx="0.6" ry="1.1"/>
				</g>
				<path class="st3" d="M198.6,80.8l-1.8,0.4c0,0,0.2,0.7,1,0.5C198.7,81.5,198.6,80.8,198.6,80.8z"/>
				<path class="st10" d="M204.5,95.2c0,0,3.3-4.2,4.1-5.8c0.8-1.6-0.1-4.2-1.6-4.5c-1.6-0.3-6.2,7.2-6.2,7.2L204.5,95.2z"/>
			</g>
		</g>
	</g>
	<g>
		<g>
			<defs>
				<circle id="SVGID_29_" cx="84.6" cy="20.2" r="7.2"/>
			</defs>
			<clipPath id="SVGID_30_">
				<use xlink:href="#SVGID_29_"  style="overflow:visible;"/>
			</clipPath>
			<circle class="st41" cx="84.6" cy="20.2" r="8.1"/>
		</g>
		<g>
			<defs>
				<circle id="SVGID_31_" cx="84.6" cy="20.2" r="7.2"/>
			</defs>
			<clipPath id="SVGID_32_">
				<use xlink:href="#SVGID_31_"  style="overflow:visible;"/>
			</clipPath>
			<g class="st42">
				<path class="st11" d="M86.3,28.7c0,0-1.6-2.2-2.2-3.2s0.4-0.4,1.4-0.6c0.4-0.1,0.1-2.2,0.8-1.5c1.2,1.2,2.4,3.8,2.4,3.8
					L86.3,28.7z"/>
				<path class="st12" d="M86.2,23.3c-1-0.3-3-0.5-3-0.5s-1.2-0.2-1.6-0.1c-0.6,0.1-1.7,0.2-1.8,2.7c-0.1,1.8-0.3,6.3-0.5,9.4
					l7.5,0.5C86.4,30.5,87.1,23.6,86.2,23.3z"/>
				<path class="st13" d="M84.2,20.6L83,22.8c0,0,0.9,1.6,1.7,1.6c0.7,0,0.6-1,0.6-1s0.1-1.3,0.4-1.9C86.1,20.8,84.2,20.6,84.2,20.6
					z"/>
				<path class="st14" d="M84.3,21.5c0.3,0.3,0.7,0.7,1.2,0.9c0.1-0.3,0.2-0.7,0.3-0.9c0.2-0.3-0.2-0.5-0.6-0.6
					c-0.5-0.1-1-0.2-1-0.2L84,21C84,21.2,84.2,21.4,84.3,21.5z"/>
				<g>
					<path class="st13" d="M84.8,17c0,0-1.2,2.7-0.7,3.6c0.5,1,1.8,1.6,2.5,1.1s1.5-3.5,0.7-4.6C86.3,16,84.8,17,84.8,17z"/>
					<path class="st31" d="M87.2,15.5c-0.9-0.1-1.6,0.3-1.9,0.5c-0.4-0.1-1,0-1.8,0.8c-1,0.9-0.8,2.3-0.2,3.1
						c0.6,0.8,0.4,1.5,0.4,1.5L84,21c0.2-0.2,0.3-0.5,0.3-0.8c0-0.2,0-0.4,0-0.5c-0.1-0.5,0.6-0.6,0.9-0.9c0.2-0.2,0.4-0.8,0.7-1.2
						l0.3-0.3c0,0,0.7-0.3,1.2,0S88.4,15.6,87.2,15.5z"/>
					
						<ellipse transform="matrix(0.2517 -0.9678 0.9678 0.2517 44.6876 96.3047)" class="st13" cx="84.6" cy="19.3" rx="0.6" ry="0.4"/>
				</g>
				<path class="st3" d="M85.9,20.4l1.1,0.2c0,0-0.1,0.4-0.6,0.3C85.8,20.9,85.9,20.4,85.9,20.4z"/>
				<path class="st11" d="M82.4,29c0,0-2-2.5-2.4-3.5c-0.5-1,0-2.5,1-2.7c0.9-0.2,3.7,4.3,3.7,4.3L82.4,29z"/>
			</g>
		</g>
	</g>
	<g>
		<g>
			<defs>
				<circle id="SVGID_33_" cx="114.7" cy="45.5" r="11.3"/>
			</defs>
			<clipPath id="SVGID_34_">
				<use xlink:href="#SVGID_33_"  style="overflow:visible;"/>
			</clipPath>
			<g class="st43">
				<path class="st44" d="M121.4,50.1c0.2,0,0.8,0.2,1.6,1.8c1.1,2,2.6,8.1,2.6,8.1l-4.6,1.7l-0.6-1.3l-1-9.7
					C119.4,50.6,121.4,50.1,121.4,50.1z"/>
				<path class="st30" d="M115.3,49.2c1.3,0,4.6,0.4,6.1,0.9c0,0,1.1,9.6-1,16.9c-0.5,1.6,0.4,6.8,0.4,6.8l-13.7-0.2
					c0,0,1.6-12.4,1-14.4s-0.6-9-0.6-9s0.1,0,3.1-0.5C112,49.4,113.9,49.2,115.3,49.2z"/>
				<path class="st13" d="M107.3,51.2c1.3-0.5,1.9,11.1,2.1,15.8c2.3,0.2,6.2,0,7.2-0.1c0.5,0,1.5-0.4,2-0.5s0.9-0.1,1.1-0.1
					c0.1,0,2.5,1,2.7,1.2c0.3,0.3,0.9,0.9,0.8,1.2c-0.1,0.3-1.3-0.8-1.3-0.8l-0.6-0.3c0.7,0.7,2.1,1.6,1.9,2
					c-0.2,0.3-1.4-0.6-2.3-1.3c0.8,0.7,1.7,1.9,1.5,2.1s-1.3-1.3-2.4-1.7c-0.4-0.2-0.9,0.3-1.2,0.3c-0.2,0-0.6,0.1-0.9,0l-1.2-0.4
					c-0.4,0-0.4,0.3-0.9,0.4s-1.3,0.2-1.9,0.4c-3.6,0.9-4.9,1.3-6,1.3C104.5,70.9,104.3,52.3,107.3,51.2z"/>
				<path class="st44" d="M104.9,62c-0.2-4.9-0.2-10.9,2.5-11.9c1.1-0.4,3,2,2.6,12C108.6,62.3,106.5,62.4,104.9,62z"/>
				<g>
					<path class="st45" d="M118.4,37.5c-0.4-0.1-0.8-0.3-1.1-0.5c-0.4-0.2-1-0.4-1.3-0.5c-0.7-0.1-2,0-2.6,0.7
						c-0.9,0.9-2.4,0.2-2.1,5c0.3,5.5,3.4,4.9,3.5,4.8c0.1-0.1,2.7-3.5,2.7-3.5l0.9,2C118.3,45.4,123.1,39.1,118.4,37.5z"/>
					<path class="st13" d="M116.1,47.5l0.3,2c0,0,0.6,2.8-0.2,3.4c-0.8,0.5-3.2-3.5-3.2-3.5l0.3-5L116.1,47.5z"/>
					<path class="st14" d="M113.1,46c0.6,1.7,2.1,2.7,3.2,3.1l-0.2-1.7l-2.9-3.1L113.1,46z"/>
					<path class="st13" d="M115.9,39c1.6-0.3,3.1,1,3,2.6c0,0.7-0.1,1.6-0.2,2.5c-0.3,2.3-1.9,4.3-2.9,4.1s-3.6-2.1-3.1-5.4
						C112.9,40.9,114.2,39.2,115.9,39z"/>
					
						<ellipse transform="matrix(0.1717 -0.9852 0.9852 0.1717 50.8025 146.6676)" class="st13" cx="112.6" cy="43.1" rx="0.9" ry="0.7"/>
					<path class="st45" d="M112.8,42.2c0,0,1.2,0.3,1.7-0.5s2.1-2.5,4.2-1.8s-1.8-1.7-2-1.7s-2.2,0-2.2,0s-1.5,1.3-1.6,1.4
						c-0.1,0.1-0.5,1.7-0.5,1.7L112.8,42.2z"/>
				</g>
				<path class="st3" d="M115,45.5l2.2,0.4c0,0-0.2,0.8-1.2,0.7C114.9,46.4,115,45.5,115,45.5z"/>
			</g>
		</g>
	</g>
	<g>
		<g>
			<defs>
				<circle id="SVGID_35_" cx="142.6" cy="77.4" r="5.7"/>
			</defs>
			<clipPath id="SVGID_36_">
				<use xlink:href="#SVGID_35_"  style="overflow:visible;"/>
			</clipPath>
			<g class="st46">
				<path class="st47" d="M146,79.7c0.1,0,0.4,0.1,0.8,0.9c0.5,1,1.3,4,1.3,4l-2.3,0.9l-0.3-0.6L145,80C145,79.9,146,79.7,146,79.7z
					"/>
				<path class="st28" d="M142.9,79.2c0.7,0,2.3,0.2,3.1,0.4c0,0,0.6,4.8-0.5,8.5c-0.2,0.8,0.2,3.4,0.2,3.4l-6.9-0.1
					c0,0,0.8-6.2,0.5-7.2s-0.3-4.5-0.3-4.5s0,0,1.5-0.3C141.3,79.3,142.2,79.2,142.9,79.2z"/>
				<path class="st13" d="M138.9,80.2c0.6-0.2,1,5.6,1,7.9c1.1,0.1,3.1,0,3.6,0c0.2,0,0.8-0.2,1-0.2s0.5,0,0.6,0
					c0,0,1.2,0.5,1.3,0.6s0.5,0.5,0.4,0.6s-0.7-0.4-0.7-0.4l-0.3-0.2c0.4,0.4,1.1,0.8,1,1s-0.7-0.3-1.2-0.6c0.4,0.3,0.9,1,0.7,1.1
					c-0.1,0.1-0.6-0.6-1.2-0.8c-0.2-0.1-0.4,0.1-0.6,0.2c-0.1,0-0.3,0.1-0.4,0l-0.6-0.2c-0.2,0-0.2,0.1-0.4,0.2s-0.7,0.1-1,0.2
					c-1.8,0.4-2.4,0.7-3,0.7C137.5,90.1,137.4,80.8,138.9,80.2z"/>
				<path class="st47" d="M137.7,85.7c-0.1-2.4-0.1-5.5,1.3-6c0.5-0.2,1.5,1,1.3,6C139.6,85.8,138.5,85.8,137.7,85.7z"/>
				<g>
					<path class="st45" d="M144.5,73.3c-0.2-0.1-0.4-0.1-0.6-0.2c-0.2-0.1-0.5-0.2-0.7-0.2c-0.4-0.1-1,0-1.3,0.4
						c-0.4,0.5-1.2,0.1-1,2.5c0.2,2.8,1.7,2.5,1.7,2.4l1.4-1.8l0.5,1C144.5,77.3,146.8,74.1,144.5,73.3z"/>
					<path class="st21" d="M143.3,78.3l0.1,1c0,0,0.3,1.4-0.1,1.7c-0.4,0.3-1.6-1.7-1.6-1.7l0.1-2.5L143.3,78.3z"/>
					<path class="st48" d="M141.8,77.6c0.3,0.9,1.1,1.4,1.6,1.6l-0.1-0.8l-1.4-1.6L141.8,77.6z"/>
					<path class="st21" d="M143.2,74.1c0.8-0.1,1.5,0.5,1.5,1.3c0,0.4,0,0.8-0.1,1.3c-0.2,1.1-1,2.1-1.5,2s-1.8-1.1-1.6-2.7
						C141.7,75,142.4,74.2,143.2,74.1z"/>
					
						<ellipse transform="matrix(0.1717 -0.9851 0.9851 0.1717 42.274 202.591)" class="st21" cx="141.6" cy="76.2" rx="0.5" ry="0.4"/>
					<path class="st45" d="M141.7,75.7c0,0,0.6,0.2,0.9-0.2c0.2-0.4,1.1-1.3,2.1-0.9s-0.9-0.9-1-0.9s-1.1,0-1.1,0s-0.8,0.6-0.8,0.7
						s-0.3,0.8-0.3,0.8L141.7,75.7z"/>
				</g>
				<path class="st3" d="M142.8,77.4l1.1,0.2c0,0-0.1,0.4-0.6,0.3C142.7,77.8,142.8,77.4,142.8,77.4z"/>
			</g>
		</g>
	</g>
	<g>
		<g>
			<defs>
				<circle id="SVGID_37_" cx="256.2" cy="15.8" r="8"/>
			</defs>
			<clipPath id="SVGID_38_">
				<use xlink:href="#SVGID_37_"  style="overflow:visible;"/>
			</clipPath>
			<g class="st49">
				<path class="st50" d="M249.7,27.5l3.8,0.4c0,0,0.2-3.1,0.2-4.6c0-1.8-0.2-4.1-0.4-4c-0.6,0.1-1.4,0.5-1.9,1.1
					C249.7,22.8,249.7,27.5,249.7,27.5z"/>
				<path class="st14" d="M251.6,23c-0.1,0.5-1.5,15.4-1.5,15.4c6.9,3.3,10.7,0.6,10.7,0.6s-0.2-10.4,0-11.8
					c0.2-0.9,0.4-7.2-0.2-7.3c-0.8-0.2-1.7-0.5-2.7-0.6c-0.8-0.1-4.1-0.1-4.6,0.1C253.2,19.3,251.9,20.7,251.6,23z"/>
				<path class="st13" d="M257,16.4l0.4,2.9c0,0-1.6,3.5-2.6,3.2c-0.8-0.3-0.3-3.3-0.3-3.3s0.4-1.7,0.3-2.5
					C254.7,15.8,257,16.4,257,16.4z"/>
				<path class="st14" d="M254.8,16.7c-0.1-0.8,2.1-0.3,2.1-0.3v0.2c-0.1,0.2-0.1,0.3-0.2,0.4c-0.5,0.5-1.3,0.9-2,0.9
					C254.8,17.5,254.9,17,254.8,16.7z"/>
				<g>
					<path class="st13" d="M257.3,12.3c0.1,0,0.5,3.3-0.3,4.2c-0.9,0.9-2.5,1.2-3.1,0.5c-0.7-0.8-0.6-4.4,0.7-5.3
						C255.9,10.7,257.3,12.3,257.3,12.3z"/>
					<path class="st45" d="M255.1,9.9c1,0.2,1.7,0.8,1.9,1.1c0.5,0.1,1.1,0.3,1.8,1.4c0.8,1.3,0.2,2.8-0.7,3.5
						c-0.9,0.7-0.9,1.6-0.9,1.6L257,17c-0.1-0.3-0.2-0.7-0.1-1c0-0.2,0.1-0.4,0.2-0.6c0.2-0.5-0.5-0.8-0.7-1.2
						c-0.2-0.3-0.2-1-0.4-1.5l-0.3-0.4c0,0-0.7-0.5-1.3-0.4C253.7,12,253.8,9.6,255.1,9.9z"/>
					
						<ellipse transform="matrix(1.701649e-02 -0.9999 0.9999 1.701649e-02 237.6599 271.2871)" class="st13" cx="256.8" cy="14.8" rx="0.7" ry="0.4"/>
				</g>
				<path class="st3" d="M255,15.7l-1.3-0.1c0,0,0,0.5,0.6,0.5C254.9,16.3,255,15.7,255,15.7z"/>
				<path class="st51" d="M267.5,38.6C267.5,38.5,267.5,38.5,267.5,38.6c-0.1-1.1-1-9.8-1.1-10.1c-0.1-0.3-4-5.8-4-5.8l-1.9,2.6
					l3.7,4.9c0.1,0.3,1.4,6.1,1.4,6.1s0.3,1.1,0.4,1.7c-0.1,0.2-0.1,0.3-0.2,0.4c-0.1,0.3-0.3,0.5-0.4,0.6c-0.2,0.2-0.4,0.7-0.5,0.8
					c0,0.1-0.1,0.5-0.1,0.6c0,0.2-0.1,0.4-0.1,0.5s-0.1,0.2-0.1,0.3c-0.1,0.1,0.1,0.3,0.2,0.2c0.1,0,0.2-0.2,0.3-0.3
					c0.2-0.3,0.3-0.9,0.3-0.8c0,0,0.2,1,0.2,1.1s0.2,1.2,0.3,1.4c0.1,0.2,0.2,0.2,0.3,0c0-0.1-0.1-1.6-0.1-1.6s0-0.2,0.1-0.1
					c0.1,0.1,0.2,1.5,0.3,1.7c0.1,0.2,0.2,0.3,0.3,0.1c0.1-0.2-0.1-1.7-0.1-1.7s0-0.2,0.1-0.2s0.2,1.2,0.2,1.3
					c0.1,0.1,0.2,0.1,0.3,0c0.1-0.2-0.1-1.5-0.1-1.5s0-0.1,0.1-0.1c0,0,0.2,1,0.3,1.1c0.1,0.1,0.2,0,0.2,0c0.2-0.1-0.1-1.1-0.1-1.6
					S267.5,39.2,267.5,38.6C267.5,38.7,267.5,38.6,267.5,38.6z"/>
				<path class="st14" d="M265.4,26.1l-3.3,2.2c0,0-1.8-2.7-2.8-3.7c-1.2-1.2,0.5-5,1.2-4.8C262.4,20.3,265.4,26.1,265.4,26.1z"/>
			</g>
		</g>
	</g>
	<g>
		<g>
			<defs>
				<circle id="SVGID_39_" cx="286.9" cy="47.7" r="6.9"/>
			</defs>
			<clipPath id="SVGID_40_">
				<use xlink:href="#SVGID_39_"  style="overflow:visible;"/>
			</clipPath>
			<g class="st52">
				<path class="st40" d="M283.1,53.5c1-2.9,2.1-2.8,2.1-2.8l-0.8,6.2c-0.6-0.2-1.4-0.5-2-0.7C282.5,55.2,282.8,54.2,283.1,53.5z"/>
				<path class="st28" d="M283.4,45.8c0.3-1.9,2-3.3,3.9-2.4c0.4,0.2,1,0.6,1.3,1c0.8,1,1,2.2,1.8,3.2c-0.3,0.2-0.6,0.5-1.1,0.7
					l-0.5-0.7l0.2,0.8c-1.2,0.6-3,1.1-5.3,1.1C283.2,48.2,283.2,46.9,283.4,45.8z"/>
				<path class="st10" d="M287.6,50.2c0,0,1.6-0.2,2.3,0.6c0.7,0.8-1.4,7-1.5,8s0.9,3.4,0.9,3.4s-4.5,0.8-5.7,0.1
					c0,0-0.1-6.9,0.1-7.6c0.1-0.7,1.2-3.6,1.5-3.8C285.4,50.4,287.6,50.2,287.6,50.2z"/>
				<path class="st13" d="M287,47.8L287,47.8c0.1,0.5,0.4,2,0.6,2.4c0.3,0.5-0.9,2-1.9,1.8c-0.3-0.1,0.3-1.4,0.2-1.5
					c-0.1-0.3-0.1-0.6-0.2-1c0-0.2-0.1-0.4-0.1-0.6c-0.1-0.6-0.2-1.1-0.2-1.1H287z"/>
				<path class="st53" d="M287.1,47.9C287.1,47.8,287.1,47.8,287.1,47.9l-1.6-0.1c0,0,0.1,0.5,0.2,1.1c0,0.2,0.1,0.4,0.1,0.6
					c0.2,0,0.5-0.2,0.8-0.4s0.5-0.5,0.6-0.9C287.1,48.1,287.1,48,287.1,47.9z"/>
				<path class="st13" d="M286,44.1c0,0,0.8-0.1,1.2,0.5c0.5,0.6,1,2.5-0.2,3.5s-2.3-0.1-2.5-1.4C284.3,45.6,284.2,44.1,286,44.1z"
					/>
				<path class="st13" d="M284.1,46.8c0.1,0.3,0.4,0.4,0.5,0.3c0.1-0.1,0.2-0.4,0-0.7c-0.1-0.3-0.4-0.4-0.5-0.3S284,46.5,284.1,46.8
					z"/>
				<path class="st28" d="M285.9,43.9c0,0,1,1.8,1.7,1.9c0.7,0.1,0.8,1,0.8,1s-0.3-2.2-1-2.6C286.7,43.8,285.9,43.9,285.9,43.9z"/>
				<path class="st13" d="M287.4,46.3c-0.1,0.3,0.1,0.6,0.3,0.7c0.2,0,0.4-0.2,0.5-0.5s-0.1-0.6-0.3-0.7
					C287.7,45.7,287.5,45.9,287.4,46.3z"/>
				<path class="st3" d="M286.5,47.4l-1.1,0.2c0,0,0.1,0.4,0.6,0.3C286.6,47.9,286.5,47.4,286.5,47.4z"/>
				<path class="st40" d="M289.6,50.5c0,0,0.6,0.3,1.1,1.5s0.6,6.9,0.6,6.9l-2.2-0.4l-0.8-2.7c-0.2-1.1-0.5-3.5,0.5-4.9
					C289.2,50.6,289.5,50.4,289.6,50.5z"/>
			</g>
		</g>
	</g>
	<g>
		<g>
			<defs>
				<circle id="SVGID_41_" cx="93.1" cy="83.2" r="8.6"/>
			</defs>
			<clipPath id="SVGID_42_">
				<use xlink:href="#SVGID_41_"  style="overflow:visible;"/>
			</clipPath>
			<g class="st54">
				<path class="st28" d="M97.2,81.9c0-1.2-0.1-2.4-0.7-3.5c-0.5-1-1.6-1.5-2.7-1.5c-3.3,0-3.7,4.4-5.8,6.1c-0.6,0.5-1.4,0.9-2,1.5
					c-2.3,2.1-1.2,5.9,0.8,7.7c1.4,1.3,3.7,2,5.5,1c0.9-0.5,1.6-1.4,2.1-2.3c0.7-1.3,1.2-2.8,1.7-4.2C96.7,85.1,97.2,83.5,97.2,81.9
					z"/>
				<path class="st14" d="M96,93c0,0-2.5-2.5-3.1-3.6s0.4-0.4,1.5-0.7c0.4-0.1,0.3-2.5,1.1-1.7c1.3,1.3,2.9,3.6,2.9,3.6L96,93z"/>
				<path class="st50" d="M92.5,85.8c0,0-2.2-0.4-3.2,0.4s0.2,8.4,0.2,9.6s-0.7,4.5-0.7,4.5s6.7,1.4,7.8-0.4c0,0,0.3-7.1,0.3-8
					s-1-4.6-1.3-5C95.2,86.5,92.5,85.8,92.5,85.8z"/>
				<path class="st13" d="M92.4,82.4c0,0,0,0.1,0,0.2c-0.1,0.5-0.5,2.3-0.8,2.8c-0.3,0.6,1.1,2.5,2.4,2.3c0.4-0.1-0.3-1.8-0.3-1.9
					c0.1-0.3,0.2-0.8,0.3-1.3c0.1-0.3,0.1-0.5,0.2-0.8c0.1-0.7,0.3-1.3,0.3-1.3L92.4,82.4z"/>
				<path class="st14" d="M92.4,82.6c0-0.1,0-0.2,0-0.2l2-0.1c0,0-0.1,0.6-0.3,1.3c-0.1,0.3-0.1,0.5-0.2,0.8c-0.3,0-0.6-0.2-1-0.5
					s-0.6-0.7-0.7-1.1C92.4,82.8,92.4,82.6,92.4,82.6z"/>
				<path class="st13" d="M93.8,77.8c0,0-1-0.1-1.5,0.7c-0.6,0.8-1.2,3.2,0.2,4.4c1.5,1.3,2.9-0.2,3.2-1.7
					C95.9,79.6,96,77.7,93.8,77.8z"/>
				<path class="st28" d="M95.3,77.4c0,0-1.9,2.7-3.6,2.3v-1.1l0.2-0.4l0.9-0.6l1.5-0.3L95.3,77.4z"/>
				<path class="st13" d="M96.1,81.2c-0.2,0.3-0.5,0.5-0.7,0.4s-0.2-0.5,0-0.8s0.5-0.5,0.7-0.4C96.3,80.4,96.3,80.8,96.1,81.2z"/>
				<path class="st13" d="M92,80.5c0.1,0.4-0.1,0.8-0.3,0.8c-0.3,0.1-0.5-0.2-0.6-0.6s0.1-0.8,0.3-0.8C91.6,79.8,91.9,80.1,92,80.5z
					"/>
				<path class="st3" d="M94.4,82H93c0,0,0,0.5,0.6,0.6C94.4,82.6,94.4,82,94.4,82z"/>
				<path class="st3" d="M94.4,82H93c0,0,0,0.5,0.6,0.6C94.4,82.6,94.4,82,94.4,82z"/>
				<path class="st14" d="M90.1,92.9c0,0-1.5-3.2-1.7-4.5s0.9-2.8,2-2.7c1.1,0.1,2.8,5.7,2.8,5.7L90.1,92.9z"/>
			</g>
		</g>
	</g>
</g>
<path class="st13" d="M44.4,132.1c0,0,0.3,3,0.1,3.9c0,0.1-0.1,0.3-0.1,0.5c-0.2,0.5,0.3,2.2,0.3,2.2h7.1c0.4,0,0.1-0.2-0.2-0.4
	c-0.5-0.4-0.9-0.6-2.6-1.3c-0.1,0-0.5-0.3-0.6-0.4c-0.4-0.2-0.7-0.5-1-0.8c-0.5-0.5-0.6-3.2-0.6-3.2L44.4,132.1z"/>
<path class="st28" d="M48.4,136.7c-1.9,0.5-3.3,0.2-4-0.1c-0.2,0.5-0.6,2.4-0.3,2.4c1.8,0,3.3,0.3,8.4,0.2c0.2,0,0.2-0.6,0-0.7
	C52.1,138.1,48.5,136.7,48.4,136.7z"/>
<path class="st13" d="M52.4,127.2c0,0,1.6,2.6,1.8,3.6c0,0.1,0.1,0.3,0.1,0.5c0.1,0.6,1.3,1.9,1.3,1.9l6.5-2.8
	c0.4-0.2,0-0.3-0.4-0.3c-0.6-0.1-1.1-0.2-2.9-0.2c-0.1,0-0.6-0.1-0.7-0.1c-0.4,0-0.9-0.2-1.3-0.4c-0.7-0.3-1.9-2.6-1.9-2.6
	L52.4,127.2z"/>
<path class="st28" d="M58,129.7c-1.5,1.2-2.9,1.5-3.7,1.5c0.1,0.6,0.5,2.4,0.7,2.3c1.6-0.7,3.1-1,7.7-3.1c0.2-0.1-0.1-0.6-0.3-0.7
	C62,129.6,58.2,129.8,58,129.7z"/>
<path class="st55" d="M30.3,105v1.5l15,3l3.7,10.7l-2.1-1.4l0.5,16.5h-3.2c0,0-5.5-13.9-3.7-20.8L24,114.9c0,0-7.5-2.8-3.7-11.2
	L30.3,105z"/>
<path class="st4" d="M30.3,106.6c0,0,15.6,0.1,16.7,0.9s9.4,21.1,9.4,21.1l-3.6,1.3c0,0-7.2-11.5-7.6-12.3c-0.4-0.8-3.2-6.8-4.2-7.4
	S30.3,106.6,30.3,106.6z"/>
<path class="st4" d="M31.5,79.4c0.1-1.7-0.2-3.4-0.9-5c-0.7-1.4-2.3-2.1-3.7-2.1c-4.7,0-5.3,6.2-8.3,8.6c-0.9,0.7-1.9,1.3-2.8,2.1
	c-3.2,2.9-1.7,8.3,1.2,10.8c2,1.8,5.2,2.8,7.7,1.4c1.3-0.7,2.3-1.9,3-3.2c1-1.9,1.6-4,2.4-6C30.7,83.9,31.4,81.7,31.5,79.4z"/>
<path class="st56" d="M44.4,97.2l-10.2-2.8c0,0-2.1-2.9-4.9-6.8c-0.9,0.9-1.4,2.3-2.3,3.2l6.7,7.5c0.2,0.3,0.6,0.4,1,0.4h9.4
	l3.2,0.3v-2.1L44.4,97.2z"/>
<path class="st57" d="M29.7,95.1c0,0-3.5-3.6-4.4-5.1c-0.9-1.6,0.6-0.5,2.2-1c0.6-0.2,0.4-3.6,1.5-2.5c1.8,1.8,4.1,5,4.1,5
	L29.7,95.1z"/>
<path class="st7" d="M24.7,84.9c0,0-3.1-0.6-4.6,0.6c-1.4,1.2,0.3,11.8,0.3,13.6c0,1.8-1,6.7-1,6.7s9.5,1.7,11-1
	c0,0,0.4-10.1,0.4-11.4c-0.1-1.3-1.5-6.5-1.9-7C28.6,85.9,24.7,84.9,24.7,84.9z"/>
<path class="st58" d="M24.7,80.1c0,0,0,0.1,0,0.3c-0.1,0.8-0.7,3.3-1.1,4c-0.4,0.8,1.5,3.5,3.4,3.2c0.6-0.1-0.5-2.5-0.4-2.7
	c0.1-0.5,0.2-1.1,0.4-1.8c0.1-0.4,0.2-0.8,0.2-1.1c0.2-1,0.4-1.9,0.4-1.9H24.7z"/>
<path class="st14" d="M24.7,80.3c0-0.2,0-0.3,0-0.3l2.9-0.1c0,0-0.2,0.8-0.4,1.9C27.1,82.2,27,82.6,27,83c-0.4-0.1-0.9-0.3-1.4-0.7
	c-0.5-0.4-0.8-1-1-1.5C24.6,80.6,24.6,80.4,24.7,80.3z"/>
<path class="st58" d="M26.6,73.6c0,0-1.3-0.2-2.2,0.9c-0.8,1.1-1.8,4.5,0.3,6.3s4.2-0.2,4.5-2.4C29.6,76.2,29.7,73.5,26.6,73.6z"/>
<path class="st13" d="M29.9,78.3c-0.3,0.5-0.7,0.8-0.9,0.6c-0.3-0.2-0.3-0.7,0-1.2s0.7-0.8,0.9-0.6C30.1,77.3,30.1,77.8,29.9,78.3z"
	/>
<path class="st4" d="M26.8,73.2c0,0-1.8,3.2-3.1,3.4c-1.3,0.1-1.5,1.9-1.5,1.9s0.5-3.9,1.7-4.7C25.2,73,26.8,73.2,26.8,73.2z"/>
<path class="st13" d="M24,77.4c0.1,0.6-0.1,1.1-0.5,1.2s-0.7-0.3-0.8-0.9c-0.1-0.6,0.1-1.1,0.5-1.2C23.5,76.4,23.9,76.8,24,77.4z"/>
<path class="st58" d="M38.7,96.9l-8.8-2c0,0-3.2-4.1-6.3-7.6c-0.9,0.9-1.4,2.3-2.3,3.2L28,98c0.2,0.3,0.6,0.4,1,0.4h9.4l3.2,0.3
	v-2.1L38.7,96.9z"/>
<path class="st57" d="M24.1,94.7c0,0-3.5-3.6-4.4-5.1C18.8,88,19.4,85.4,21,85c1.5-0.4,6.5,6.2,6.5,6.2L24.1,94.7z"/>
<path class="st59" d="M56.9,86.8H42.3c-0.4,0-0.7,0.2-0.9,0.6l-4.5,10.9h-8c-0.2,0-0.4,0.2-0.4,0.4l0,0c0,0.2,0.2,0.4,0.4,0.4h22.9
	c0.6,0,1.2-0.4,1.5-0.9l4.5-10.1C58,87.5,57.6,86.8,56.9,86.8z"/>
<ellipse transform="matrix(0.1961 -0.9806 0.9806 0.1961 -52.4229 122.0615)" class="st3" cx="48.2" cy="93" rx="0.9" ry="0.8"/>
<path class="st3" d="M27.4,79.6l-2-0.1c0,0,0,0.8,0.9,0.8C27.4,80.4,27.4,79.6,27.4,79.6z"/>
<path class="st60" d="M35.6,113.8c-0.2,0-0.7,0.1-1.3,0.1l-0.5-2.1c-0.7-3.1-3.5-5.3-6.6-5.5l-11.1-0.4l-3.7-12.3
	c-0.4-1.2-1.7-1.9-2.9-1.6c-1.2,0.4-1.9,1.7-1.6,2.9c1.8,6.2,6.7,23,7.1,23.4c0.2,0.2,4.9,0.2,9.6,0.1V137h-0.4
	c-0.5,0-0.9,0.4-0.9,0.9h-5c-0.6,0-1.1,0.5-1.1,1.1c0,0.1,0.1,0.2,0.2,0.2h14.7c0.1,0,0.2-0.1,0.2-0.2c0-0.6-0.5-1.1-1.1-1.1h-4.7
	c0-0.5-0.4-0.9-0.9-0.9h0.1v-18.6c3.6-0.1,7-0.2,7.8-0.2c2-0.1,3.3-0.5,3.8-1.6C37.9,115.5,37.2,113.5,35.6,113.8z M18.5,113.8
	l-2.1-6.8l10.7,0.4c2.7,0.1,5,2,5.6,4.6l0.4,1.8C28.4,113.9,18.5,113.8,18.5,113.8z"/>
<g>
	<path class="st57" d="M27.3,101.6h62.1c0.7,0,1.2-0.5,1.2-1.2l0,0c0-0.7-0.5-1.2-1.2-1.2H27.3c-0.7,0-1.2,0.5-1.2,1.2l0,0
		C26.1,101.1,26.6,101.6,27.3,101.6z"/>
	<polygon class="st57" points="41.6,139.1 43.3,139.1 39.6,101.6 37.8,101.6 	"/>
	<polygon class="st57" points="26.8,139.1 25.1,139.1 28.8,101.6 30.6,101.6 	"/>
	<polygon class="st57" points="88.9,139.1 90.6,139.1 86.9,101.6 85.1,101.6 	"/>
	<polygon class="st57" points="74.1,139.1 72.4,139.1 76.1,101.6 77.8,101.6 	"/>
</g>
</svg>
