<?xml version="1.0" encoding="utf-8"?>
<!-- Generator: Adobe Illustrator 21.0.0, SVG Export Plug-In . SVG Version: 6.00 Build 0)  -->
<svg version="1.1" id="Layer_1" xmlns="http://www.w3.org/2000/svg" xmlns:xlink="http://www.w3.org/1999/xlink" x="0px" y="0px"
	 viewBox="0 0 300 140" style="enable-background:new 0 0 300 140;" xml:space="preserve">
<style type="text/css">
	.st0{fill:#FF4F5B;}
	.st1{fill:#ED7D2B;}
	.st2{fill:#F99746;}
	.st3{fill:#1A2E35;}
	.st4{fill:#5D4BC9;}
	.st5{fill:none;stroke:#44555B;stroke-width:5.000000e-02;stroke-miterlimit:10;}
	.st6{fill:#FFBF9D;}
	.st7{fill:#FF9A6C;}
	.st8{fill:#3F1D89;}
	.st9{fill:#233862;}
	.st10{fill:#375A64;}
	.st11{fill:#9E332E;}
	.st12{opacity:0.3;}
	.st13{fill:#2A175E;}
	.st14{fill:none;}
	.st15{fill:#AFCDFB;}
	.st16{fill:#CDE0FB;}
	.st17{fill:#699DEE;}
	.st18{fill:#FFFFFF;}
	.st19{fill:#ED985F;}
	.st20{fill:#FFB27D;}
	.st21{fill:#B5453C;}
	.st22{fill:#DD6D22;}
	.st23{fill:#F4A269;}
	.st24{fill:#C65447;}
	.st25{fill:#EF7E29;}
	.st26{fill:#2B478B;}
	.st27{fill:#ED975D;}
	.st28{fill:#DFEBFA;}
	.st29{clip-path:url(#SVGID_4_);}
	.st30{fill:#B56F40;}
	.st31{fill:#99592E;}
	.st32{fill:#B64C41;}
	.st33{clip-path:url(#SVGID_8_);}
	.st34{fill:#E39B6B;}
	.st35{fill:#1C468A;}
	.st36{clip-path:url(#SVGID_11_);}
	.st37{clip-path:url(#SVGID_13_);}
	.st38{fill:#2C3A64;}
	.st39{fill:#A53D38;}
	.st40{clip-path:url(#SVGID_15_);}
	.st41{enable-background:new    ;}
	.st42{fill:#3F4293;}
</style>
<g>
	<g>
		<path class="st0" d="M290.1,139.6h-5.5c-2.9,0-5.2-2.3-5.2-5.2V134c0-2.9,2.3-5.2,5.2-5.2h5.5c3,0,5.4,2.4,5.4,5.4l0,0
			C295.6,137.2,293.1,139.6,290.1,139.6z"/>
	</g>
	<g>
		<path class="st1" d="M290.1,139.6h-5.5c-2.9,0-5.2-2.3-5.2-5.2V134c0-2.9,2.3-5.2,5.2-5.2h5.5c3,0,5.4,2.4,5.4,5.4l0,0
			C295.6,137.2,293.1,139.6,290.1,139.6z"/>
	</g>
	<g>
		<path class="st2" d="M293.2,139.6h-10.7c-3,0-5.4-2.4-5.4-5.4l0,0c0-3,2.4-5.4,5.4-5.4h10.7V139.6z"/>
	</g>
	<g>
		<g>
			<path class="st3" d="M293.2,139.7c0,0,0.1-2.4,0.1-5.4s0-5.4-0.1-5.4s-0.1,2.4-0.1,5.4C293.1,137.2,293.1,139.7,293.2,139.7z"/>
		</g>
	</g>
	<g>
		<g>
			<path class="st3" d="M289.3,128.6L289.3,128.6c-0.1-0.1-0.1-0.2-0.2-0.2c-0.1-0.1-0.3-0.3-0.6-0.5c-0.6-0.4-1.5-0.8-2.5-0.8
				c-1.1,0-2,0.5-2.5,0.9c-0.3,0.2-0.5,0.4-0.6,0.6c-0.1,0.1-0.1,0.1-0.1,0.2v0.1c0,0,0.3-0.3,0.8-0.7c0.5-0.4,1.4-0.8,2.4-0.9
				c1,0,1.9,0.3,2.5,0.7C289,128.3,289.3,128.6,289.3,128.6z"/>
		</g>
	</g>
	<g>
		<g>
			<path class="st3" d="M293.3,130.3L293.3,130.3c0,0.1,0,0.2,0,0.2c0,0.1,0,0.2,0,0.3s-0.1,0.2-0.1,0.4c-0.1,0.6-0.4,1.4-1,2.2
				c-0.6,0.9-1.4,1.8-2.6,2.5s-2.7,1.1-4.2,1.1c-1.6,0-3.1-0.5-4.2-1.2c-1.2-0.7-2-1.6-2.6-2.4c-0.6-0.8-1-1.6-1.2-2.1
				c-0.1-0.3-0.2-0.5-0.2-0.6s0-0.1-0.1-0.2v-0.1c0,0,0,0,0,0.1c0,0,0,0.1,0,0.2c0,0.1,0.1,0.4,0.2,0.6c0.2,0.5,0.6,1.3,1.2,2.2
				c0.6,0.8,1.5,1.8,2.7,2.5s2.7,1.2,4.3,1.2c1.6,0,3.1-0.4,4.3-1.1c1.2-0.7,2-1.7,2.6-2.5c0.5-0.9,0.8-1.7,0.9-2.3
				c0-0.1,0.1-0.3,0.1-0.4c0-0.1,0-0.2,0-0.3C293.3,130.5,293.3,130.4,293.3,130.3L293.3,130.3z"/>
		</g>
	</g>
	<g>
		<path class="st4" d="M290.1,117.3l0.3-15.7c0.1-4-3.2-7.3-7.2-7.4l0,0c-4,0-7.2,3.2-7.2,7.2l-0.1,15.8l14.2,0.6"/>
	</g>
	<g>
		<path class="st4" d="M290.1,120H268l0,0c0-1.5,1-2.6,2.5-2.6l19.6-0.1V120z"/>
	</g>
	<g>
		<rect x="270.3" y="120" class="st4" width="1.6" height="19.7"/>
	</g>
	<g>
		<rect x="286.8" y="120" class="st4" width="1.6" height="19.7"/>
	</g>
	<g>
		<g>
			<path class="st3" d="M288.3,117.4c0,0-4.1-0.1-9.2-0.1s-9.2,0-9.2,0.1c0,0,4.1,0.1,9.2,0.1C284.2,117.4,288.3,117.4,288.3,117.4z
				"/>
		</g>
	</g>
	<g>
		<g>
			<path class="st3" d="M289.7,120c0,0-4.8-0.1-10.8-0.1s-10.8,0-10.8,0.1s4.9,0,10.9,0C284.9,120,289.7,120,289.7,120z"/>
		</g>
	</g>
	<g>
		<g>
			<path class="st5" d="M288.6,117.2"/>
		</g>
	</g>
	<g>
		<g>
			<path class="st3" d="M288.6,97.1c0,0-0.1,4.5-0.1,10s0,10,0.1,10c0,0,0.1-4.5,0.1-10C288.6,101.5,288.6,97.1,288.6,97.1z"/>
		</g>
	</g>
	<g>
		<g>
			<path class="st6" d="M275.3,108.5c0,0-12.4-0.1-13.4,0c-1.8,0.1-2.9,2-3.2,3.1c-0.2,1-5.7,16.6-5.7,16.6l4.2,2.7l5.7-12.8l2.8-5
				l15.5,2.7L275.3,108.5z"/>
		</g>
		<g>
			<path class="st6" d="M265.7,112.7c0,0-2.3,0-3.5,1.8c-0.7,1.1-0.5,3-0.5,4.5c0,2,0.5,17.3,0.5,17.3c1.5,1,3.1,1.2,4.9,0.5l1.3-17
				l-0.3-2.5l8.5,0.2c0,0,1.5-2.8-0.6-5.1C275.7,112.1,265.7,112.7,265.7,112.7z"/>
		</g>
		<g>
			<g>
				<path class="st7" d="M264.7,112.8L264.7,112.8c-0.1,0-0.2,0-0.3,0c-0.2,0-0.4,0.1-0.7,0.2c-0.3,0.1-0.6,0.4-0.9,0.7
					c-0.3,0.3-0.6,0.7-0.8,1.3c-0.2,0.5-0.4,1.1-0.4,1.8c0,0.7,0,1.4,0.1,2.1s0.1,1.5,0.1,2.3s0.1,1.6,0.1,2.5
					c0.1,3.4,0.2,6.5,0.3,8.8c0,1.1,0.1,2,0.1,2.7c0,0.3,0,0.6,0,0.7c0,0.1,0,0.1,0,0.2v0.1c0,0,0,0,0-0.1c0,0,0-0.1,0-0.2
					c0-0.2,0-0.4,0-0.7c0-0.6,0-1.5-0.1-2.7c-0.1-2.2-0.1-5.4-0.2-8.8c0-0.9-0.1-1.7-0.1-2.5s-0.1-1.6-0.1-2.3
					c-0.1-0.7-0.1-1.4-0.1-2.1s0.2-1.3,0.4-1.8c0.2-0.5,0.5-0.9,0.8-1.3c0.3-0.3,0.6-0.5,0.9-0.7
					C264.3,112.8,264.7,112.8,264.7,112.8z"/>
			</g>
		</g>
	</g>
	<g>
		<g>
			<g>
				<g>
					<g>
						<g>
							<path class="st8" d="M262.2,136.2v0.3c0,0-5.3,2.1-5.4,3.1l10.5,0.1l-0.1-3.5C265.7,136.9,264,136.9,262.2,136.2z"/>
						</g>
					</g>
				</g>
				<g>
					<g>
						<g>
							<path class="st8" d="M267.4,139.6v-0.8l-10.1,0.3c0,0-0.5,0.2-0.4,0.5H267.4z"/>
						</g>
					</g>
				</g>
			</g>
		</g>
	</g>
	<g>
		<g>
			<g>
				<g>
					<g>
						<g>
							<path class="st8" d="M253.3,127.5l-0.1,0.3c0,0-5.7,0-6.1,0.9l9.8,3.9l1.2-3.3C256.3,129.4,254.7,128.9,253.3,127.5z"/>
						</g>
					</g>
				</g>
				<g>
					<g>
						<g>
							<path class="st8" d="M256.8,132.6l0.3-0.8l-9.5-3.5c0,0-0.5,0-0.6,0.3L256.8,132.6z"/>
						</g>
					</g>
				</g>
				<g>
					<g>
						<g>
							<g>
								<path class="st8" d="M253.1,127.8c0,0,0.2,0.2,0.4,0.4s0.2,0.5,0.3,0.5c0,0,0.1-0.3-0.1-0.6
									C253.5,127.8,253.1,127.8,253.1,127.8z"/>
							</g>
						</g>
					</g>
				</g>
			</g>
		</g>
	</g>
	<g>
		<path class="st6" d="M261.2,101.1l-1.9,0.3l-1.2,1.7l0.4,1.3l0.2,0.1v0.5c0,0.2,0.1,0.4,0.3,0.5l0,0l1-1.7l-0.4,1.7
			c0,0,0.2,0.1,0.7-0.1c0.4-0.2,0.9-2.1,0.9-2.1l0.7-0.4l-0.6,2.1c0,0,0.2,0.2,0.6,0.2s1.1-2,1.1-2l9.9,1.4v-1.3l-2.4-4L261.2,101.1
			z"/>
	</g>
	<g>
		<path class="st9" d="M285.9,81.2c0.5-0.3,1.2-0.3,1.8,0c0.5,0.3,0.9,0.9,0.9,1.5c0,0.9-0.6,1.7-0.2,2.5c0.2,0.5,0.8,0.8,1.1,1.2
			c0.3,0.4,0.3,1.3-0.2,1.4c0.8,0,1.4,0.6,1.6,1.3c0.2,0.7-0.1,1.5-0.6,2.1c-0.5,0.5-1.2,0.8-2,1c-1.1,0.2-2.2,0-3-0.7
			s-1.1-2-0.4-2.9c-0.4,0.4-1.2,0.3-1.5-0.1c-0.4-0.4-0.4-1.2,0.1-1.6c0.3-0.3,0.7-0.4,1.1-0.6c0.4-0.3,0.6-0.9,0.6-1.5
			s-0.2-1.1-0.4-1.6"/>
	</g>
	<g>
		<g>
			<path class="st10" d="M288.8,91.5c0,0,0.2-0.1,0.4-0.3c0.2-0.2,0.4-0.6,0.5-1.2c0.1-0.5-0.1-1.2-0.6-1.8
				c-0.2-0.3-0.5-0.5-0.9-0.7c-0.3-0.2-0.7-0.3-1-0.6c-0.2-0.1-0.3-0.3-0.4-0.4c-0.1-0.2-0.1-0.4-0.1-0.6c0-0.4,0.2-0.7,0.3-1.1
				c0.1-0.3,0.2-0.7,0.3-1c0-0.3,0-0.6-0.1-0.9c-0.2-0.5-0.5-0.9-0.7-1c-0.1-0.1-0.2-0.1-0.3-0.1h-0.1l0,0c0,0,0.2,0,0.4,0.2
				c0.2,0.2,0.5,0.5,0.7,1c0.1,0.3,0.1,0.5,0,0.9c0,0.3-0.2,0.6-0.3,1c-0.1,0.3-0.3,0.7-0.3,1.1c0,0.2,0,0.4,0.1,0.6
				s0.2,0.4,0.4,0.5c0.3,0.3,0.7,0.4,1,0.6s0.6,0.4,0.8,0.7c0.5,0.5,0.6,1.2,0.6,1.7c-0.1,0.5-0.3,0.9-0.5,1.1
				C288.9,91.4,288.8,91.5,288.8,91.5z"/>
		</g>
	</g>
	<g>
		<g>
			<path class="st11" d="M261.6,108.4c4-0.1,7.9-0.1,11.6,0l0,0l-1.3-12.2l5-8.5l3.8-0.6h1.3l1,0.6c1.3,1.1,3.7,3.6,3.7,3.6
				c0,0.1-3.2,15.5-3.2,15.5l-1.9,1.9l5.4,3.8c0,0-0.1,3.7-2.6,4.7s-13.7,0.2-15,0.1c0,0-4.9-1.9-5.6-2.5
				C263.2,114.3,261.4,109.7,261.6,108.4z"/>
		</g>
		<g>
			<g>
				<path class="st10" d="M274.9,110.2c0,0,0,0-0.1,0s-0.2,0-0.3,0.1c-0.3,0-0.7,0.1-1.2,0.2c-1,0.2-2.4,0.5-3.9,0.9s-2.9,0.8-3.9,1
					c-0.5,0.1-0.9,0.2-1.2,0.3c-0.1,0-0.2,0.1-0.3,0.1c-0.1,0-0.1,0-0.1,0s0,0,0.1,0s0.2,0,0.3-0.1c0.3-0.1,0.7-0.2,1.2-0.3
					c1-0.2,2.4-0.6,3.9-1s2.9-0.7,3.9-0.9c0.5-0.1,0.9-0.2,1.2-0.3c0.1,0,0.2-0.1,0.3-0.1C274.9,110.2,274.9,110.2,274.9,110.2z"/>
			</g>
		</g>
		<g>
			<g>
				<path class="st10" d="M276,108.4c0,0-0.4,0-0.9,0s-0.9,0.1-0.9,0.1s0.4,0,0.9,0S276,108.4,276,108.4z"/>
			</g>
		</g>
		<g>
			<g>
				<path class="st10" d="M276.1,106.2c0,0-0.3,0.4-0.8,0.8s-0.9,0.7-0.9,0.7s0.5-0.2,1-0.7C275.8,106.6,276.1,106.2,276.1,106.2z"
					/>
			</g>
		</g>
		<g>
			<g>
				<path class="st10" d="M276.3,99.8c0,0-0.2-0.2-0.4-0.5c-0.2-0.3-0.5-0.7-0.7-1.3c-0.2-0.5-0.3-1-0.3-1.4s0-0.6,0-0.6
					s0,0.1,0,0.2s0,0.3,0,0.4c0,0.4,0.1,0.9,0.2,1.4c0.2,0.5,0.5,1,0.7,1.3c0.1,0.1,0.2,0.3,0.3,0.3
					C276.3,99.7,276.3,99.8,276.3,99.8z"/>
			</g>
		</g>
	</g>
	<g>
		<path class="st2" d="M274.9,88.6L274.9,88.6c-1.4,0.9-2.7,2.8-3,5.1l-0.8,3.7c0,0-0.6-0.3-0.9,0.1c-0.4,0.5-0.3,1.1-0.3,1.1
			l-1.6,1.1l2.6,1.9l1.8,2.2c0,0-1.5,4.4-1.8,4.8c-0.2,0.4-0.7,1.2-0.7,1.2l2.3-0.4c0,0,1.5-1.1,1.5-3c-0.1-1.9-0.2-9,0-9.9
			s3.1-8.7,3.1-8.7L274.9,88.6z"/>
	</g>
	<g>
		<g>
			<path class="st3" d="M272.3,103.7C272.3,103.7,272.3,103.7,272.3,103.7c0-0.2,0-0.3,0-0.4c0-0.3,0-0.7,0-1.1c0-1-0.1-2.3-0.2-3.8
				s-0.1-2.8,0-3.8c0-0.5,0.1-0.9,0.1-1.1c0-0.1,0-0.2,0-0.3c0-0.1,0-0.1,0-0.1s0,0,0,0.1s0,0.2,0,0.3c0,0.3-0.1,0.7-0.1,1.1
				c-0.1,1-0.1,2.3,0,3.8s0.2,2.8,0.2,3.8c0,0.5,0,0.9,0,1.1C272.3,103.4,272.3,103.5,272.3,103.7L272.3,103.7z"/>
		</g>
	</g>
	<g>
		<g>
			<path class="st3" d="M275.1,88.8C275.1,88.8,275.1,88.9,275.1,88.8c-0.1,0.2-0.2,0.3-0.2,0.4c-0.2,0.3-0.4,0.6-0.6,1.1
				s-0.5,1-0.8,1.7c-0.1,0.3-0.2,0.7-0.3,1.1c0,0.1,0,0.2,0,0.3v0.2v0.1c0,0.2,0,0.4,0.1,0.6c0,0.2,0,0.4,0,0.6s-0.1,0.4-0.1,0.5
				c-0.1,0.2-0.1,0.4-0.2,0.5c0,0.1-0.1,0.2-0.1,0.3c0,0.1,0,0.2-0.1,0.3c-0.1,0.7,0,1.3,0.2,1.8s0.3,0.9,0.4,1.2
				c0.1,0.1,0.1,0.2,0.1,0.3c0,0.1,0.1,0.1,0.1,0.1s0,0,0-0.1s-0.1-0.2-0.1-0.3c-0.1-0.3-0.3-0.7-0.4-1.2s-0.3-1.1-0.1-1.8
				c0-0.1,0-0.2,0.1-0.3c0-0.1,0-0.2,0.1-0.3c0.1-0.2,0.1-0.3,0.2-0.5s0.1-0.4,0.1-0.6s0-0.4,0-0.6c0-0.4-0.1-0.8-0.1-1.2
				c0.1-0.4,0.2-0.7,0.3-1c0.2-0.6,0.5-1.2,0.8-1.7c0.2-0.5,0.4-0.8,0.6-1.1c0.1-0.1,0.1-0.2,0.2-0.3
				C275.1,88.9,275.1,88.8,275.1,88.8z"/>
		</g>
	</g>
	<g>
		<path class="st2" d="M277.2,101.8l0.6-4.3l5.2-9.7l4,1.9c0.1,0,0.2,0.1,0.3,0.1l0,0l0,0c0.4,0.2,0.7,0.6,1,1
			c0.6,1,0.8,2.1,0.6,3.2l-1.5,9.8c0,0-0.7,1.8-1.5,3.2l2.3,7.1c0,0-6,3-7.9,3c-1.6,0-3.1,0-3.3-3.2
			C276.7,110.8,277.2,101.8,277.2,101.8z"/>
	</g>
	<g>
		<g>
			<path class="st3" d="M282.2,103.7c0,0-0.1-0.2-0.2-0.5c0-0.2-0.1-0.3-0.2-0.6c-0.1-0.2-0.2-0.4-0.4-0.6c-0.2-0.2-0.5-0.2-0.7-0.2
				s-0.4,0-0.6,0.1s-0.3,0.2-0.3,0.2c-0.1,0.1-0.1,0.1-0.1,0.1s0.1-0.2,0.5-0.3c0.2-0.1,0.3-0.1,0.6-0.1c0.2,0,0.4,0.1,0.6,0.2
				c0.2,0.2,0.3,0.4,0.4,0.6s0.2,0.4,0.2,0.5C282.1,103.5,282.2,103.7,282.2,103.7z"/>
		</g>
	</g>
	<g>
		<g>
			<path class="st3" d="M283.5,99.8c0,0,0,0-0.1-0.1c-0.1,0-0.2,0-0.4,0c-0.3,0-0.8,0.1-1.2,0.5c-0.4,0.4-0.5,0.9-0.5,1.2
				c0,0.2,0,0.3,0.1,0.4c0,0.1,0.1,0.1,0.1,0.1s-0.1-0.2-0.1-0.5s0.1-0.8,0.5-1.2c0.3-0.4,0.8-0.5,1.1-0.5
				C283.3,99.8,283.5,99.8,283.5,99.8z"/>
		</g>
	</g>
	<g>
		<g>
			<path class="st3" d="M283.5,92c0,0,0,0.1-0.1,0.3c-0.1,0.2-0.1,0.5-0.2,0.8c-0.2,0.7-0.3,1.7-0.5,2.7c-0.1,1.1-0.2,2.1-0.2,2.8
				c0,0.4,0,0.6,0,0.8c0,0.2,0,0.3,0,0.3s0-0.1,0-0.3c0-0.2,0-0.5,0-0.8c0-0.7,0.1-1.7,0.2-2.8c0.1-1.1,0.3-2,0.5-2.7
				c0.1-0.3,0.1-0.6,0.2-0.8S283.5,92,283.5,92z"/>
		</g>
	</g>
	<g>
		<g>
			<path class="st3" d="M287,90c0,0-0.2,0-0.5,0s-0.7,0-1.1,0.2s-0.7,0.4-1,0.6c-0.2,0.2-0.3,0.3-0.3,0.3s0.5-0.5,1.3-0.8
				C286.3,90,287,90.1,287,90z"/>
		</g>
	</g>
	<g>
		<g>
			<path class="st3" d="M285.7,107.5c0,0,0,0-0.1,0.1s-0.1,0.2-0.2,0.3c-0.2,0.2-0.5,0.6-1,0.8c-0.5,0.3-1.2,0.4-1.9,0.4
				c-0.7-0.1-1.5-0.3-2.2-0.8c-0.2-0.1-0.3-0.3-0.5-0.4l0,0c0-1.6,0-3,0-4c0-0.5,0-0.9,0-1.2c0-0.1,0-0.2,0-0.3c0-0.1,0-0.1,0-0.1
				s0,0,0,0.1s0,0.2,0,0.3c0,0.3,0,0.7,0,1.2c0,1,0,2.4,0,4l0,0l0,0c0.2,0.1,0.3,0.3,0.5,0.4c0.7,0.5,1.5,0.8,2.3,0.9s1.5-0.1,2-0.4
				s0.8-0.6,1-0.9C285.7,107.8,285.8,107.7,285.7,107.5C285.6,107.5,285.7,107.5,285.7,107.5z"/>
		</g>
	</g>
	<g>
		<g>
			<path class="st3" d="M283.3,88.1C283.3,88.1,283.3,88.1,283.3,88.1c0,0.2,0,0.3,0,0.5c0,0.4-0.1,0.9-0.2,1.5s-0.3,1.4-0.6,2.2
				c-0.2,0.4-0.4,0.8-0.7,1.1c-0.1,0.2-0.3,0.4-0.5,0.5c-0.2,0.2-0.4,0.3-0.5,0.6c-0.1,0.2-0.1,0.5,0,0.8c0.1,0.2,0.2,0.4,0.2,0.7
				c0.1,0.5,0,0.9-0.1,1.3c-0.3,0.8-0.8,1.4-1.3,1.8s-0.9,0.7-1.3,0.9c-0.1,0.1-0.3,0.2-0.4,0.2c-0.1,0.1-0.1,0.1-0.1,0.1
				s0,0,0.1-0.1s0.2-0.1,0.4-0.2c0.3-0.2,0.8-0.4,1.3-0.8s1.1-1,1.4-1.8c0.1-0.4,0.2-0.9,0.1-1.3c0-0.2-0.1-0.5-0.2-0.7
				s-0.1-0.5,0-0.7s0.3-0.4,0.5-0.5c0.2-0.2,0.3-0.3,0.5-0.5c0.3-0.4,0.5-0.8,0.7-1.2c0.4-0.8,0.5-1.6,0.6-2.2s0.1-1.2,0.1-1.5
				c0-0.2,0-0.3,0-0.4C283.3,88.1,283.3,88.1,283.3,88.1z"/>
		</g>
	</g>
	<g class="st12">
		<g>
			<path d="M277,107.2c0.7,0.3,1.6,0.6,1.7,1.3c0,0.2,0,0.5,0.1,0.8c0.2,0.6,0.9,0.7,1.5,0.8c1,0.1,2.1,0.1,3.1-0.2
				c1-0.3,1.9-1.1,2.1-2.1c-0.9,0.6-1.3,1.2-2.3,1.4c-0.6,0.1-1.7-0.3-2.2-0.5c-0.6-0.2-1.2-0.9-1.2-0.9c0-0.2,0-0.8,0-0.6
				c0,0.1-0.9-0.5-1.4-0.7c-0.6-0.2-1.4-0.6-1.4-0.6"/>
		</g>
	</g>
	<g class="st12">
		<g>
			<path d="M281.6,102.2c0.2,0.7,0.6,1.8,0.8,2.5c0,0.1,0.1,0.2,0.2,0.3c0.1,0.1,0.2,0.2,0.3,0.1c0.2,0,0.3-0.2,0.3-0.4
				c0-0.2-0.1-0.3-0.2-0.5C282.5,103.6,282.1,102.9,281.6,102.2"/>
		</g>
	</g>
	<g class="st12">
		<g>
			<path d="M277.5,101.2c1.4-0.2,2.7-1.2,3.4-2.5c0.7-1.3,0.7-2.9,0.1-4.2c-0.2,0.5,0,0.9,0,1.4c0.1,1.2-0.5,2.4-1.5,3.1
				c-0.4,0.3-0.9,0.5-1.3,0.8S277.4,100.6,277.5,101.2"/>
		</g>
	</g>
	<g>
		<g>
			<g>
				<path class="st3" d="M285.3,110.9c0,0-0.1-0.1-0.2-0.3c-0.1-0.2-0.3-0.5-0.5-0.9l0,0l0,0c-0.5,0.2-1,0.4-1.6,0.5
					c-0.8,0.3-1.6,0.4-2.1,0.6c-0.3,0.1-0.5,0.1-0.6,0.2c-0.2,0-0.2,0.1-0.2,0.1s0.1,0,0.2,0c0.2,0,0.4-0.1,0.7-0.1
					c0.6-0.1,1.3-0.3,2.1-0.5c0.6-0.2,1.2-0.4,1.6-0.6h-0.1c0.2,0.4,0.4,0.7,0.6,0.9C285.2,110.8,285.3,110.9,285.3,110.9z"/>
			</g>
		</g>
		<g>
			<g>
				<path class="st3" d="M280.3,112.7c0,0-0.1-0.4-0.3-0.8c-0.2-0.5-0.3-0.8-0.3-0.8s0,0.4,0.2,0.9
					C280.1,112.4,280.3,112.8,280.3,112.7z"/>
			</g>
		</g>
		<g>
			<g>
				<path class="st3" d="M285.3,111c0,0-0.3,0.1-0.7,0.4c-0.4,0.2-1,0.5-1.7,0.7s-1.3,0.3-1.8,0.4s-0.8,0.1-0.8,0.1s0.1,0,0.2,0
					s0.3,0,0.6,0c0.5-0.1,1.1-0.2,1.8-0.4c0.7-0.2,1.3-0.5,1.7-0.7c0.2-0.1,0.4-0.2,0.5-0.3C285.2,111.1,285.3,111,285.3,111z"/>
			</g>
		</g>
	</g>
	<g class="st12">
		<g>
			<path d="M280.7,112.6c-0.1,0.1,0,0.3,0.1,0.3c0.1,0.1,0.3,0.1,0.4,0.1c1.4-0.1,2.9-0.6,4-1.5c0.1-0.1,0.2-0.3,0.1-0.4
				s-0.2,0-0.3,0C283.6,111.9,282.1,112.4,280.7,112.6"/>
		</g>
	</g>
	<g>
		<g>
			<path class="st10" d="M289.5,86.9c0,0,0.1-0.2,0.5-0.2c0.2,0,0.4,0,0.6,0.1c0.1,0.1,0.2,0.1,0.3,0.3c0.1,0.1,0.1,0.3,0.1,0.4
				c0,0.3-0.1,0.7-0.4,0.8c-0.3,0.2-0.7,0.1-1.1,0c-0.4-0.2-0.7-0.5-0.9-0.9c-0.2-0.4-0.3-0.9-0.2-1.3c0.1-0.5,0.3-0.9,0.5-1.3
				s0.3-0.8,0.4-1.2c0.1-0.4,0-0.8-0.2-1.2c-0.2-0.3-0.5-0.5-0.8-0.7c-0.6-0.3-1.1-0.2-1.5-0.2c-0.2,0-0.3,0.1-0.4,0.1
				s-0.1,0.1-0.1,0.1s0.2-0.1,0.5-0.1c0.3-0.1,0.9-0.1,1.4,0.2c0.3,0.1,0.5,0.4,0.7,0.7c0.2,0.3,0.3,0.7,0.2,1.1
				c0,0.4-0.2,0.8-0.4,1.2c-0.2,0.4-0.4,0.8-0.5,1.3s0,1,0.2,1.4s0.5,0.7,0.9,0.9c0.4,0.2,0.8,0.2,1.2,0c0.2-0.1,0.3-0.2,0.4-0.4
				c0.1-0.2,0.1-0.3,0.1-0.5s-0.1-0.3-0.1-0.4c-0.1-0.1-0.2-0.2-0.3-0.3c-0.2-0.1-0.5-0.1-0.6-0.1c-0.2,0-0.3,0.1-0.4,0.2
				C289.6,86.9,289.5,86.9,289.5,86.9z"/>
		</g>
	</g>
	<g>
		<path class="st0" d="M286.6,81.7c0.1-0.4-0.1-0.9-0.5-1c-0.4-0.2-0.9,0.1-0.9,0.5h-0.7c-0.5,1.2-0.9,2.5-1.2,3.8
			c-0.1,0.3-0.2,0.7-0.2,1s0.1,0.7,0.4,0.9c0.3,0.2,0.7,0.2,1,0.1s0.6-0.4,0.8-0.8c0.3-0.5,0.3-1.1,0.2-1.6c0.4,0,0.9-0.3,1-0.7
			c0.1-0.4-0.2-0.9-0.6-1.1C286.3,82.4,286.5,82.1,286.6,81.7z"/>
	</g>
	<g>
		<path class="st9" d="M281.7,87.2c1,0,2-0.6,2.6-1.5s0.7-2.1,0.4-3c0.9-1.1,0.8-2.9-0.2-3.8c-0.2-0.2-0.4-0.3-0.5-0.5
			c-0.2-0.4-0.2-0.9-0.3-1.4c-0.1-0.8-0.6-1.5-1.3-1.8c-0.7-0.3-1.5-0.3-2.2,0.1c-0.6-0.5-1.2-1-1.9-1.2c-0.7-0.2-1.6-0.1-2.1,0.5
			c-0.3,0.3-0.5,0.8-0.8,1c-0.4,0.2-0.8,0.1-1.2,0.3c-0.8,0.2-1.2,1.1-1.4,1.9s0.4,1.8-0.2,2.5c-0.3,0.3-0.6,0.6-0.8,1
			c-0.2,0.4-0.2,1,0,1.4s0.7,0.7,1.1,0.7c-0.5,0.6,0.8,2.8,2.6,2.8"/>
	</g>
	<g>
		<g>
			<g>
				<g>
					<g>
						<g>
							<g>
								<g>
									<g>
										<g>
											<g>
												<g>
													<g>
														<g>
															<g>
																<g>
																	<g>
																		<g>
																			<g>
																				<g>
																					<path class="st6" d="M282,89.1l0.6-11.1l0,0c0-0.5-0.3-0.8-0.8-0.9l-4.6-1.2c-1.5-0.2-2.5,1.6-2.6,3.1
																						c-0.1,1.6-0.2,3.7,0,4.9c0.4,2.5,2.3,2.8,2.3,2.8s0,1.2,0,2.6c0,1.2,1.1,2,2.3,1.7
																						C280.1,90.7,281.2,90.1,282,89.1z"/>
																				</g>
																			</g>
																		</g>
																	</g>
																</g>
															</g>
														</g>
													</g>
												</g>
											</g>
										</g>
									</g>
								</g>
								<g>
									<g>
										<g>
											<g>
												<g>
													<g>
														<g>
															<g>
																<g>
																	<g>
																		<g>
																			<g>
																				<g>
																					<g>
																						<path class="st3" d="M275.2,80.9c0,0.2,0.1,0.3,0.3,0.3c0.2,0,0.3-0.1,0.3-0.3c0-0.2-0.1-0.3-0.3-0.3
																							C275.4,80.6,275.2,80.7,275.2,80.9z"/>
																					</g>
																				</g>
																			</g>
																		</g>
																	</g>
																</g>
															</g>
														</g>
													</g>
												</g>
											</g>
										</g>
									</g>
									<g>
										<g>
											<g>
												<g>
													<g>
														<g>
															<g>
																<g>
																	<g>
																		<g>
																			<g>
																				<g>
																					<g>
																						<g>
																							<path class="st3" d="M275,80.2c0,0,0.3-0.1,0.6-0.1c0.3,0,0.6,0.2,0.6,0.1c0,0,0-0.1-0.1-0.2
																								s-0.3-0.2-0.5-0.2s-0.4,0.1-0.5,0.2S275,80.2,275,80.2z"/>
																						</g>
																					</g>
																				</g>
																			</g>
																		</g>
																	</g>
																</g>
															</g>
														</g>
													</g>
												</g>
											</g>
										</g>
									</g>
								</g>
								<g>
									<g>
										<g>
											<g>
												<g>
													<g>
														<g>
															<g>
																<g>
																	<g>
																		<g>
																			<g>
																				<g>
																					<g>
																						<path class="st3" d="M278.4,80.8c0,0.2,0.1,0.3,0.3,0.3c0.2,0,0.3-0.1,0.3-0.3c0-0.2-0.1-0.3-0.3-0.3
																							C278.6,80.5,278.5,80.6,278.4,80.8z"/>
																					</g>
																				</g>
																			</g>
																		</g>
																	</g>
																</g>
															</g>
														</g>
													</g>
												</g>
											</g>
										</g>
									</g>
									<g>
										<g>
											<g>
												<g>
													<g>
														<g>
															<g>
																<g>
																	<g>
																		<g>
																			<g>
																				<g>
																					<g>
																						<g>
																							<path class="st3" d="M278.4,80.2c0,0,0.3-0.1,0.6-0.1c0.3,0,0.6,0.2,0.6,0.1c0,0,0-0.1-0.1-0.2
																								s-0.3-0.2-0.5-0.2s-0.4,0.1-0.5,0.2S278.4,80.2,278.4,80.2z"/>
																						</g>
																					</g>
																				</g>
																			</g>
																		</g>
																	</g>
																</g>
															</g>
														</g>
													</g>
												</g>
											</g>
										</g>
									</g>
								</g>
								<g>
									<g>
										<g>
											<g>
												<g>
													<g>
														<g>
															<g>
																<g>
																	<g>
																		<g>
																			<g>
																				<g>
																					<g>
																						<g>
																							<path class="st3" d="M277.2,82.7c0,0-0.2-0.1-0.6-0.1c-0.1,0-0.2,0-0.2-0.1s0-0.2,0.1-0.3
																								c0.1-0.2,0.2-0.4,0.3-0.7c0.4-0.9,0.6-1.7,0.6-1.7s-0.4,0.7-0.7,1.7c-0.1,0.2-0.2,0.5-0.3,0.7
																								c0,0.1-0.1,0.2,0,0.3c0,0.1,0.1,0.1,0.1,0.1c0.1,0,0.1,0,0.1,0C276.9,82.7,277.2,82.7,277.2,82.7z"/>
																						</g>
																					</g>
																				</g>
																			</g>
																		</g>
																	</g>
																</g>
															</g>
														</g>
													</g>
												</g>
											</g>
										</g>
									</g>
								</g>
								<g>
									<g>
										<g>
											<g>
												<g>
													<g>
														<g>
															<g>
																<g>
																	<g>
																		<g>
																			<g>
																				<g>
																					<g>
																						<path class="st7" d="M276.9,86.7c0,0,1.7,0.1,3.3-0.8c0,0-0.9,1.7-3.3,1.5V86.7z"/>
																					</g>
																				</g>
																			</g>
																		</g>
																	</g>
																</g>
															</g>
														</g>
													</g>
												</g>
											</g>
										</g>
									</g>
								</g>
								<g>
									<g>
										<g>
											<g>
												<g>
													<g>
														<g>
															<g>
																<g>
																	<g>
																		<g>
																			<g>
																				<g>
																					<g>
																						<path class="st0" d="M277.3,83.5c0.1-0.2,0.3-0.2,0.6-0.2c0.1,0,0.3,0.1,0.4,0.2s0.1,0.3,0,0.4
																							s-0.3,0.2-0.4,0.1c-0.2,0-0.3-0.2-0.4-0.3l-0.1-0.1C277.3,83.6,277.2,83.5,277.3,83.5"/>
																					</g>
																				</g>
																			</g>
																		</g>
																	</g>
																</g>
															</g>
														</g>
													</g>
												</g>
											</g>
										</g>
									</g>
								</g>
								<g>
									<g>
										<g>
											<g>
												<g>
													<g>
														<g>
															<g>
																<g>
																	<g>
																		<g>
																			<g>
																				<g>
																					<g>
																						<g>
																							<path class="st3" d="M278.2,82.9c-0.1,0-0.1,0.4-0.4,0.6c-0.3,0.3-0.7,0.2-0.7,0.3c0,0,0.1,0.1,0.3,0.1
																								c0.2,0,0.4,0,0.6-0.2s0.3-0.4,0.3-0.5C278.2,83,278.2,82.9,278.2,82.9z"/>
																						</g>
																					</g>
																				</g>
																			</g>
																		</g>
																	</g>
																</g>
															</g>
														</g>
													</g>
												</g>
											</g>
										</g>
									</g>
								</g>
							</g>
						</g>
					</g>
					<g>
						<g>
							<g>
								<g>
									<g>
										<g>
											<g>
												<g>
													<g>
														<g>
															<g>
																<g>
																	<g>
																		<g>
																			<path class="st3" d="M278.3,79.3c0,0.1,0.4,0.1,0.8,0.1s0.7,0.2,0.8,0.1c0,0,0-0.1-0.2-0.2
																				c-0.1-0.1-0.3-0.2-0.6-0.2c-0.2,0-0.5,0-0.6,0.1C278.4,79.2,278.3,79.3,278.3,79.3z"/>
																		</g>
																	</g>
																</g>
															</g>
														</g>
													</g>
												</g>
											</g>
										</g>
									</g>
								</g>
							</g>
						</g>
					</g>
					<g>
						<g>
							<g>
								<g>
									<g>
										<g>
											<g>
												<g>
													<g>
														<g>
															<g>
																<g>
																	<g>
																		<g>
																			<path class="st3" d="M275,79.4c0.1,0.1,0.3,0,0.6,0c0.3,0,0.5,0.1,0.6,0c0,0,0-0.1-0.1-0.2s-0.3-0.1-0.5-0.1
																				s-0.4,0.1-0.5,0.2C275,79.3,274.9,79.4,275,79.4z"/>
																		</g>
																	</g>
																</g>
															</g>
														</g>
													</g>
												</g>
											</g>
										</g>
									</g>
								</g>
							</g>
						</g>
					</g>
				</g>
			</g>
		</g>
	</g>
	<g>
		<g>
			<g>
				<g>
					<g>
						<g>
							<g>
								<g>
									<path class="st9" d="M280.5,75.7c0,0.5-0.2,1-0.6,1.3s-0.9,0.4-1.4,0.4c-0.4-0.1-0.8-0.3-1.1-0.1c-0.3,0.2-0.4,0.7-0.7,1
										c-0.4,0.4-1.1,0-1.7,0.2c-0.4,0.1-0.7,0.5-1,0.9c-0.3,0.3-0.7,0.7-1.1,0.5c0-0.4,0.1-0.8,0.2-1.1c0.1-0.4,0.3-0.7,0.7-0.9
										c0.2-0.1,0.4-0.2,0.5-0.3c0.4-0.3,0.4-0.8,0.7-1.2c0.3-0.5,0.8-0.9,1.4-0.9c0.5,0,1,0.1,1.5,0c0.4-0.1,0.7-0.3,1-0.4
										c0.7-0.1,1.3,0.4,1.8,0.9"/>
								</g>
							</g>
						</g>
					</g>
				</g>
			</g>
		</g>
	</g>
	<g>
		<g>
			<path class="st9" d="M279.7,76.2c-0.3,0.5-0.4,1.8-0.2,2.3c0.2,0.5,0.7,0.9,1.2,1.1c-0.7,0.8-0.7,2.1,0.1,2.8
				c0.3,0.3,0.7,0.5,0.9,0.9c0.1,0.4-0.1,0.8-0.2,1.2c-0.2,0.6-0.1,1.2,0.3,1.7c0.2,0.3,0.5,0.6,0.8,0.6s0.6-0.2,0.8-0.5
				c0.8-0.9,1.1-2.2,0.9-3.4l-0.9-4.2l-1.1-2.5H279.7z"/>
		</g>
	</g>
	<g>
		<g>
			<g>
				<path class="st10" d="M284.5,82.8L284.5,82.8c0-0.1,0-0.2,0.1-0.3c0-0.2,0.1-0.5,0.1-0.9s0-0.9-0.2-1.4s-0.5-1-1-1.3
					s-1.1-0.4-1.6-0.5c-0.3,0-0.5-0.1-0.7-0.2s-0.4-0.2-0.5-0.3c-0.3-0.2-0.5-0.5-0.5-0.7c-0.1-0.2,0-0.3,0-0.3s0,0.1,0,0.3
					c0,0.2,0.2,0.5,0.5,0.8c0.2,0.1,0.3,0.2,0.6,0.3c0.2,0.1,0.5,0.1,0.7,0.2c0.5,0.1,1.1,0.2,1.6,0.5s0.8,0.8,1,1.3
					s0.2,0.9,0.2,1.3s0,0.7,0,0.9C284.5,82.7,284.5,82.8,284.5,82.8z"/>
			</g>
		</g>
	</g>
	<g>
		<g>
			<g>
				<path class="st10" d="M283.6,77.1c0,0,0,0-0.1-0.1c-0.1,0-0.3,0-0.5,0c-0.4,0.1-0.8,0.5-1.4,0.5c-0.6,0.1-1.1-0.2-1.4-0.4
					c-0.3-0.2-0.4-0.4-0.4-0.4s0,0.1,0.1,0.1c0.1,0.1,0.2,0.2,0.3,0.3c0.3,0.2,0.8,0.5,1.4,0.4c0.3,0,0.6-0.1,0.8-0.3
					c0.2-0.1,0.4-0.2,0.6-0.3C283.4,77,283.6,77.1,283.6,77.1z"/>
			</g>
		</g>
	</g>
	<g>
		<g>
			<g>
				<path class="st10" d="M272,82c0,0-0.1-0.2,0-0.4c0-0.3,0.2-0.7,0.6-1c0.2-0.2,0.4-0.4,0.6-0.6s0.3-0.5,0.4-0.9
					c0.1-0.3,0.1-0.7,0.2-1c0.1-0.4,0.2-0.7,0.4-1c0.1-0.1,0.3-0.3,0.4-0.4c0.2-0.1,0.3-0.1,0.5-0.1c0.4,0,0.7,0.1,1,0.2
					c0.2,0,0.3,0.1,0.5,0c0.2,0,0.3-0.1,0.5-0.1c0.3-0.1,0.5-0.3,0.7-0.4c0.4-0.3,0.9-0.4,1.1-0.3c0.1,0,0.2,0.1,0.3,0.1
					c0.1,0,0.1,0.1,0.1,0.1l0,0c0,0,0,0-0.1-0.1s-0.1-0.1-0.3-0.2c-0.3-0.1-0.7,0-1.2,0.3c-0.2,0.1-0.4,0.3-0.7,0.4
					c-0.1,0.1-0.3,0.1-0.4,0.1c-0.2,0-0.3,0-0.5-0.1c-0.3-0.1-0.7-0.2-1-0.2c-0.2,0-0.4,0-0.6,0.1s-0.3,0.2-0.5,0.4
					c-0.2,0.3-0.4,0.7-0.4,1.1c-0.1,0.4-0.1,0.7-0.2,1s-0.2,0.6-0.4,0.8c-0.2,0.2-0.4,0.4-0.6,0.6c-0.4,0.4-0.6,0.8-0.6,1
					c0,0.1,0,0.3,0,0.3C271.9,81.9,271.9,81.9,272,82L272,82z"/>
			</g>
		</g>
	</g>
	<g>
		<g>
			<g>
				<path class="st10" d="M276.2,74.7c0,0,0,0.1,0,0.2s0.2,0.2,0.3,0.3c0.2,0.1,0.4,0.2,0.7,0.2c0.3,0,0.6-0.1,0.9-0.1
					c0.3-0.1,0.6-0.1,0.8-0.1c0.3,0,0.5,0.1,0.6,0.3c0.1,0.1,0.2,0.3,0.2,0.4s0,0.2,0,0.2s0-0.1,0-0.2s-0.1-0.3-0.2-0.4
					s-0.4-0.3-0.6-0.3c-0.3,0-0.6,0-0.9,0.1s-0.6,0.1-0.8,0.1c-0.3,0-0.5-0.1-0.6-0.1c-0.2-0.1-0.3-0.2-0.3-0.3
					C276.2,74.8,276.2,74.7,276.2,74.7z"/>
			</g>
		</g>
	</g>
	<g>
		<g>
			<g>
				<path class="st10" d="M283.9,78.3c0,0,0-0.1,0.1-0.2c0.1-0.2,0.1-0.4,0.2-0.7c0.1-0.3,0.1-0.7,0-1.1c-0.1-0.2-0.2-0.4-0.3-0.6
					c-0.1-0.2-0.3-0.3-0.6-0.4c-0.2-0.1-0.5-0.1-0.7,0c-0.2,0-0.4,0.1-0.6,0.1c-0.4,0.1-0.7,0.2-1,0.3c-0.3,0.1-0.5,0.1-0.7,0.2
					c-0.2,0-0.2,0.1-0.2,0.1s0.1,0,0.3,0c0.2,0,0.4-0.1,0.7-0.2c0.3-0.1,0.6-0.2,1-0.3c0.2,0,0.4-0.1,0.6-0.1s0.4,0,0.6,0
					c0.4,0.1,0.7,0.5,0.8,0.9c0.1,0.4,0.1,0.7,0,1c0,0.3-0.1,0.5-0.2,0.7C284,78.2,283.9,78.3,283.9,78.3z"/>
			</g>
		</g>
	</g>
	<g>
		<g>
			<g>
				<path class="st3" d="M284.8,86.7c0,0-0.2-0.1-0.4-0.3c-0.2-0.2-0.3-0.4-0.4-0.4c0,0,0.1,0.2,0.3,0.4
					C284.5,86.7,284.8,86.7,284.8,86.7z"/>
			</g>
		</g>
	</g>
	<g>
		<g>
			<g>
				<path class="st3" d="M285.3,85.8c0,0-0.2-0.1-0.3-0.2c-0.2-0.1-0.3-0.3-0.3-0.2c0,0,0.1,0.2,0.3,0.3
					C285.1,85.8,285.3,85.8,285.3,85.8z"/>
			</g>
		</g>
	</g>
	<g>
		<g>
			<g>
				<path class="st3" d="M285.5,84.6c0,0-0.1-0.2-0.3-0.3c-0.2-0.1-0.4-0.1-0.4-0.1s0.2,0.1,0.4,0.2
					C285.3,84.5,285.5,84.6,285.5,84.6z"/>
			</g>
		</g>
	</g>
	<g>
		<g>
			<g>
				<path class="st3" d="M286.6,83.5c0,0-0.4-0.2-0.9-0.2s-0.9,0.1-0.9,0.1s0.4,0,0.9,0C286.2,83.5,286.5,83.5,286.6,83.5z"/>
			</g>
		</g>
	</g>
	<g>
		<g>
			<g>
				<path class="st3" d="M286,82.6c0,0-0.2-0.1-0.6-0.2c-0.3,0-0.6,0-0.6,0s0.3,0,0.6,0.1S286,82.7,286,82.6z"/>
			</g>
		</g>
	</g>
	<g>
		<g>
			<g>
				<path class="st3" d="M286.3,81.9c0,0-0.2-0.3-0.5-0.3c-0.3-0.1-0.6,0-0.6,0.1c0,0,0.3,0,0.6,0S286.3,81.9,286.3,81.9z"/>
			</g>
		</g>
	</g>
	<g>
		<g>
			<g>
				<g>
					<path class="st6" d="M279.7,102.4l-8.9-1.9l-1.9-0.5l-1.5,0.9c-0.2,0.1-0.4,0.3-0.4,0.6l-0.1,1l0.2,0.2l-0.2,0.4
						c-0.1,0.2-0.1,0.4,0.1,0.6l0,0l1.5-1.1l-1,1.4c0,0,0.2,0.2,0.7,0.2s1.6-1.6,1.6-1.6l0.8-0.1l-1.6,1.7c0,0-0.1,0.1,0.3,0.3
						c0.3,0.1,2.1-1.2,2.1-1.2l8.4,4.1"/>
				</g>
			</g>
			<g>
				<g>
					<g>
						<path class="st7" d="M279.7,107.1L279.7,107.1c-0.1,0-0.1-0.1-0.2-0.1c-0.1-0.1-0.3-0.1-0.4-0.2c-0.4-0.2-1-0.5-1.7-0.8
							c-1.5-0.7-3.6-1.8-6.1-3l0,0c-0.4,0.3-0.7,0.6-1.2,0.8c-0.2,0.1-0.4,0.3-0.6,0.4c-0.1,0-0.2,0.1-0.3,0.1c-0.1,0-0.1,0-0.2-0.1
							l-0.1-0.1l0,0c0.5-0.5,1.1-1.1,1.6-1.7v-0.1l0,0c-0.2,0-0.5,0.1-0.8,0.1l0,0c-0.3,0.4-0.6,0.8-0.9,1.1
							c-0.2,0.2-0.4,0.4-0.6,0.5c-0.2,0-0.5,0-0.7-0.1v0.1c0.1-0.1,0.2-0.3,0.3-0.4c0.2-0.3,0.5-0.7,0.7-1v-0.1c0,0,0,0-0.1,0
							c-0.4,0.3-0.8,0.6-1.2,0.9l-0.1,0.1l-0.1,0.1l0,0l0,0l0,0l0,0c-0.1,0,0.1,0,0.1,0l0,0l0,0l0,0c-0.1-0.1-0.1-0.2-0.1-0.3
							c0-0.1,0.1-0.2,0.1-0.3c0.1-0.1,0.1-0.2,0.2-0.3c0,0,0,0,0-0.1c-0.1-0.1-0.1-0.1-0.2-0.2l0,0c0-0.3,0.1-0.6,0.1-0.9
							s0.2-0.5,0.4-0.7c0.5-0.3,1-0.6,1.4-0.9l0,0c0.4,0.1,0.8,0.2,1.2,0.3c0.4,0.1,0.8,0.2,1.1,0.3c0.7,0.2,1.4,0.3,2.1,0.4
							c1.3,0.3,2.5,0.5,3.4,0.7s1.7,0.4,2.2,0.5c0.3,0.1,0.5,0.1,0.6,0.1s0.1,0,0.2,0h0.1c0,0,0,0-0.1,0c0,0-0.1,0-0.2,0
							s-0.3-0.1-0.6-0.1c-0.5-0.1-1.3-0.3-2.2-0.5c-1-0.2-2.1-0.5-3.4-0.7c-0.7-0.1-1.4-0.3-2.1-0.5c-0.4-0.1-0.7-0.2-1.1-0.3
							c-0.4-0.1-0.8-0.2-1.2-0.3l0,0c-0.5,0.3-0.9,0.6-1.4,0.9c-0.1,0.1-0.2,0.2-0.3,0.3c-0.1,0.1-0.1,0.3-0.1,0.4
							c0,0.3-0.1,0.6-0.1,0.9l0,0c0.1,0.1,0.1,0.1,0.2,0.2v-0.1c-0.1,0.1-0.1,0.2-0.2,0.3c-0.1,0.1-0.1,0.2-0.1,0.4
							c0,0.1,0,0.3,0.1,0.4l0,0l0,0l0,0h0.1l0,0l0,0l0,0l0,0l0.1-0.1l0.1-0.1c0.4-0.3,0.8-0.6,1.2-0.9l-0.1-0.1
							c-0.2,0.3-0.5,0.6-0.7,1c-0.1,0.1-0.2,0.3-0.3,0.4l0,0c0,0,0,0,0,0.1c0.1,0.1,0.2,0.1,0.4,0.2c0.1,0,0.1,0,0.2,0h0.1h0.1
							c0.3-0.1,0.4-0.3,0.6-0.5c0.4-0.4,0.7-0.8,1-1.1l0,0c0.3,0,0.5-0.1,0.8-0.1v-0.1c-0.6,0.6-1.1,1.2-1.6,1.7l0,0l0,0
							c0,0.1,0,0.2,0.1,0.2s0.1,0.1,0.2,0.1h0.1h0.1c0.1,0,0.1,0,0.2-0.1c0.2-0.1,0.4-0.2,0.6-0.4c0.4-0.3,0.8-0.5,1.2-0.8l0,0
							c2.5,1.2,4.6,2.2,6.1,3c0.7,0.4,1.3,0.6,1.7,0.8c0.2,0.1,0.3,0.2,0.5,0.2C279.6,107,279.6,107,279.7,107.1L279.7,107.1z"/>
					</g>
				</g>
			</g>
		</g>
		<g>
			<g>
				<g>
					<path class="st7" d="M267.5,103.8c0,0,0.1-0.2,0.4-0.5c0.2-0.3,0.5-0.7,0.8-1.1c0.1-0.2,0.3-0.4,0.5-0.5s0.4-0.1,0.6-0.1
						c0.3-0.1,0.6-0.1,0.6-0.1s-0.2,0-0.6,0.1c-0.2,0-0.4,0.1-0.6,0.1c-0.2,0.1-0.5,0.3-0.6,0.5c-0.3,0.4-0.6,0.9-0.8,1.2
						C267.6,103.6,267.4,103.8,267.5,103.8z"/>
				</g>
			</g>
		</g>
		<g>
			<g>
				<g>
					<path class="st7" d="M267.2,102.6c0,0,0.1-0.1,0.3-0.4c0.2-0.2,0.5-0.6,0.9-0.9c0.1-0.1,0.2-0.2,0.3-0.2l0.1-0.1l0.1-0.1l0,0
						l0,0l0,0c0.2,0,0.4,0,0.6,0c0.3,0,0.5,0,0.5,0s-0.2,0-0.5,0c-0.2,0-0.3,0-0.6,0l0,0l0,0l0,0l-0.1,0.1l-0.1,0.1
						c-0.1,0.1-0.2,0.2-0.3,0.2c-0.4,0.3-0.7,0.7-0.9,0.9C267.2,102.4,267.1,102.6,267.2,102.6z"/>
				</g>
			</g>
		</g>
	</g>
	<g>
		<g>
			<g>
				<g>
					<path class="st13" d="M253.4,105.8l-3.4-8.6c-0.3-0.7,0.2-1.6,1-1.6h10.7c0.5,0,0.9,0.3,1.1,0.8l3,8.7h3.4
						c0.3,0,0.5,0.4,0.5,0.7l0,0h-3.8H253.4z"/>
				</g>
			</g>
		</g>
		<g>
			<g>
				<g>
					<path class="st13" d="M257.9,101.2c0,0.4-0.3,0.7-0.7,0.7s-0.7-0.3-0.7-0.7c0-0.4,0.3-0.7,0.7-0.7S257.9,100.8,257.9,101.2z"/>
				</g>
			</g>
		</g>
	</g>
	<g>
		<g>
			<g>
				<path class="st4" d="M273.3,107.4h-29.1c-0.4,0-0.8-0.4-0.8-0.8l0,0c0-0.4,0.4-0.8,0.8-0.8h29.1c0.4,0,0.8,0.4,0.8,0.8l0,0
					C274.1,107,273.7,107.4,273.3,107.4z"/>
			</g>
		</g>
		<g>
			<g>
				<rect x="257.2" y="107.1" class="st4" width="2.5" height="32.5"/>
			</g>
		</g>
		<g>
			<g>
				<path class="st4" d="M249.9,139.6h17.3c-0.1,0-7.4-1.9-7.4-1.9h-2.5L249.9,139.6z"/>
			</g>
		</g>
		<g>
			<g>
				<g>
					<path class="st4" d="M273.4,107.3c0,0-6.6-0.1-14.7-0.1s-14.7,0-14.7,0.1s6.6,0.1,14.7,0.1
						C266.8,107.4,273.4,107.3,273.4,107.3z"/>
				</g>
			</g>
		</g>
	</g>
</g>
<rect class="st14" width="300" height="140"/>
<g>
	<path class="st15" d="M90,77.6c0,0,10.3-17.5,15.1-15.5C110,64,90,77.6,90,77.6z"/>
	<path class="st15" d="M89.7,80.4c0,0,22.9-19.3,30.9-14.9s-5.7,7.5-10.8,8.3C104.7,74.5,89.7,80.4,89.7,80.4z"/>
	<path class="st15" d="M87.8,77.9c0,0-0.1-0.7-0.2-1.7c-0.2-2-0.6-5.2-1-6.8c-0.6-2.4,0.9-4.7,3.7-2.9c2.8,1.8-2,10.5-2,10.5
		L87.8,77.9z"/>
</g>
<path class="st16" d="M115.4,125.4c-1.7-5.3,6.8-8.9,6.8-8.9s10.3,4.5,12,3.7c1.6-0.8-8.1-5.6-8.1-5.6c2.7-2.2,12.5-3.5,12.5-3.5
	s5.6,9.5,6.9,8.3c1.4-1.2-5.4-8.2-5.4-8.2c3.4-1,8.2,0.6,8.2,0.6c6.8,3.2,2.3,11.8,2.3,11.8s2,3.3,6.4,5.6l0,0c0,0,0.9,0.4,2.1,1.2
	l-0.8,0.5c-0.2-0.2-0.4-0.3-0.6-0.5l0,0l0,0c-0.1-0.1-0.3-0.2-0.5-0.3l0,0l0,0c-0.5-0.3-0.9-0.5-1.2-0.7l0,0c-1.6-1-3.9-2.2-4.8-2.1
	c0,0,0-0.2-0.1-0.5c0,0.1,0,0.3,0.1,0.5c0.5,3.7-5.7,8.5-9.9,10.1c-4.2,1.6-3.2-0.4-2.4-3.4c0.9-3,5.3-5.2,6.1-6.7s-1.4-0.9-3.7,0.8
	c-2.3,1.8-1.9,5-5.6,8c-3.7,3-11.6-2.5-11.6-2.5c3.3-0.9,7.2-5.6,6.8-6.7c-0.4-1.1-7.6,3.8-8.9,4.2
	C120.6,131.7,117.1,130.8,115.4,125.4z"/>
<path class="st16" d="M162.8,68.2c6.6-5,15.8,5.2,15.8,5.2s-1.3,16.7,0.6,18.6c1.9,1.9,3.9-14,3.9-14c4.4,2.7,11,15.8,11,15.8
	s-10.6,12.4-8.3,13.8s8.8-11.5,8.8-11.5c3,4.2,3.2,11.7,3.2,11.7c-1.2,11.1-15.3,9-15.3,9s-3.6,4.4-4.8,11.7l0,0
	c0,0-0.1,1.4-0.7,3.5l-1.1-0.8c0.1-0.4,0.3-0.7,0.4-1.1l0,0l0,0c0.1-0.2,0.1-0.5,0.2-0.9l0,0l0,0c0.2-0.9,0.3-1.5,0.4-2l0,0
	c0.6-2.8,1.2-6.5,0.7-7.8c0,0,0.2-0.1,0.6-0.3c-0.2,0.1-0.4,0.2-0.6,0.3c-4.9,2.5-14.6-3.9-19-8.9c-4.3-5-1-4.7,3.6-5
	c4.6-0.2,9.9,4.9,12.3,5.3c2.4,0.4,0.6-2.5-3-4.8c-3.6-2.4-8-0.3-13.9-4c-6-3.7-2.2-17.4-2.2-17.4c2.9,4.1,11.4,7.3,12.7,6.2
	c1.3-1.1-9-8.8-10.3-10.4C156.5,78.6,156.2,73.2,162.8,68.2z"/>
<path class="st17" d="M209.3,139.8H53.7v-82c0-10,8.1-18.1,18.1-18.1h119.4c10,0,18.1,8.1,18.1,18.1L209.3,139.8L209.3,139.8z"/>
<path class="st18" d="M207.5,137.6h-152V61.8c0-7.2,5.9-13.1,13.1-13.1h125.8c7.2,0,13.1,5.9,13.1,13.1V137.6z"/>
<g>
	<path class="st17" d="M84.1,94.1c-0.3,0-0.7,0-1,0c-0.2,0-0.3-0.2-0.3-0.3c0-0.2,0.2-0.3,0.3-0.3c0.6,0,1.3,0,1.9,0
		c0.2,0,0.3,0.1,0.3,0.3c0,0.2-0.1,0.3-0.3,0.3C84.7,94.1,84.4,94.1,84.1,94.1z M81.2,93.9C81.1,93.9,81.1,93.9,81.2,93.9
		c-0.7-0.1-1.4-0.3-2-0.4c-0.2,0-0.3-0.2-0.2-0.4c0-0.2,0.2-0.3,0.4-0.2c0.6,0.2,1.2,0.3,1.9,0.4c0.2,0,0.3,0.2,0.3,0.4
		C81.5,93.7,81.3,93.9,81.2,93.9z M87,93.9c-0.2,0-0.3-0.1-0.3-0.3c0-0.2,0.1-0.3,0.3-0.4c0.6-0.1,1.3-0.2,1.9-0.4
		c0.2,0,0.3,0.1,0.4,0.2c0,0.2-0.1,0.3-0.2,0.4C88.4,93.6,87.7,93.7,87,93.9L87,93.9z M77.4,92.8L77.4,92.8
		c-0.7-0.2-1.3-0.5-1.9-0.8c-0.2-0.1-0.2-0.3-0.1-0.4c0.1-0.2,0.3-0.2,0.4-0.1c0.6,0.3,1.2,0.6,1.7,0.8c0.2,0.1,0.2,0.2,0.2,0.4
		C77.6,92.7,77.5,92.8,77.4,92.8z M90.8,92.8c-0.1,0-0.2-0.1-0.3-0.2c-0.1-0.2,0-0.3,0.2-0.4c0.6-0.2,1.2-0.5,1.7-0.8
		c0.2-0.1,0.3,0,0.4,0.1c0.1,0.2,0,0.3-0.1,0.4C92.1,92.2,91.5,92.5,90.8,92.8C90.8,92.8,90.8,92.8,90.8,92.8z M73.9,91
		c-0.1,0-0.1,0-0.2-0.1c-0.5-0.4-1.1-0.8-1.6-1.2c-0.1-0.1-0.1-0.3,0-0.4s0.3-0.1,0.4,0c0.5,0.4,1,0.8,1.5,1.2
		c0.1,0.1,0.2,0.3,0.1,0.4C74.1,90.9,74.1,91,73.9,91z M94.2,91c-0.1,0-0.2,0-0.3-0.1c-0.1-0.1-0.1-0.3,0.1-0.4
		c0.5-0.4,1-0.8,1.5-1.2c0.1-0.1,0.3-0.1,0.4,0s0.1,0.3,0,0.4C95.4,90.1,94.9,90.5,94.2,91C94.3,91,94.3,91,94.2,91z M71,88.5
		c-0.1,0-0.2,0-0.2-0.1c-0.5-0.5-0.9-1-1.3-1.5c-0.1-0.1-0.1-0.3,0.1-0.4c0.1-0.1,0.3-0.1,0.4,0.1c0.4,0.5,0.8,1,1.2,1.5
		c0.1,0.1,0.1,0.3,0,0.4C71.1,88.4,71.1,88.5,71,88.5z M97.2,88.4c-0.1,0-0.2,0-0.2-0.1c-0.1-0.1-0.1-0.3,0-0.4
		c0.4-0.5,0.9-1,1.2-1.5c0.1-0.1,0.3-0.2,0.4-0.1s0.2,0.3,0.1,0.4c-0.4,0.5-0.8,1-1.3,1.5C97.4,88.4,97.3,88.4,97.2,88.4z
		 M68.6,85.4c-0.1,0-0.2-0.1-0.3-0.2c-0.3-0.6-0.7-1.2-0.9-1.8c-0.1-0.2,0-0.3,0.2-0.4s0.3,0,0.4,0.2c0.3,0.6,0.6,1.1,0.9,1.7
		c0.1,0.1,0,0.3-0.1,0.4C68.7,85.3,68.7,85.4,68.6,85.4z M99.6,85.3c-0.1,0-0.1,0-0.2,0c-0.1-0.1-0.2-0.3-0.1-0.4
		c0.3-0.5,0.6-1.1,0.9-1.7c0.1-0.2,0.3-0.2,0.4-0.2c0.2,0.1,0.2,0.3,0.2,0.4c-0.3,0.6-0.6,1.2-0.9,1.8
		C99.8,85.3,99.7,85.3,99.6,85.3z M67,81.8c-0.1,0-0.3-0.1-0.3-0.2c-0.2-0.6-0.4-1.3-0.5-1.9c0-0.2,0.1-0.3,0.2-0.4
		c0.2,0,0.3,0.1,0.4,0.2c0.1,0.6,0.3,1.2,0.5,1.9C67.4,81.6,67.3,81.7,67,81.8C67,81.8,67,81.8,67,81.8z M101.2,81.8L101.2,81.8
		c-0.3-0.1-0.4-0.2-0.3-0.4c0.2-0.6,0.4-1.2,0.5-1.9c0-0.2,0.2-0.3,0.4-0.2c0.2,0,0.3,0.2,0.2,0.4c-0.1,0.6-0.3,1.3-0.5,1.9
		C101.5,81.7,101.3,81.8,101.2,81.8z M66.1,78c-0.2,0-0.3-0.1-0.3-0.3c-0.1-0.7-0.1-1.3-0.1-2c0-0.2,0.1-0.3,0.3-0.3l0,0
		c0.2,0,0.3,0.1,0.3,0.3c0,0.6,0,1.3,0.1,1.9C66.5,77.8,66.3,78,66.1,78L66.1,78z M102,78L102,78c-0.2,0-0.3-0.2-0.3-0.3
		c0.1-0.6,0.1-1.3,0.1-1.9l0,0c0-0.2,0.1-0.3,0.3-0.3l0,0c0.2,0,0.3,0.1,0.3,0.3l0,0c0,0.7,0,1.3-0.1,2C102.3,77.9,102.2,78,102,78z
		 M66.1,74.1L66.1,74.1c-0.2,0-0.3-0.2-0.3-0.3c0.1-0.7,0.2-1.3,0.3-2c0-0.2,0.2-0.3,0.4-0.2c0.2,0,0.3,0.2,0.2,0.4
		c-0.1,0.6-0.2,1.3-0.3,1.9C66.4,74,66.3,74.1,66.1,74.1z M102,74c-0.2,0-0.3-0.1-0.3-0.3c-0.1-0.6-0.2-1.3-0.3-1.9
		c0-0.2,0.1-0.3,0.2-0.4c0.2,0,0.3,0.1,0.4,0.2c0.1,0.6,0.3,1.3,0.3,2C102.4,73.9,102.2,74,102,74C102.1,74,102,74,102,74z
		 M66.9,70.3L66.9,70.3c-0.3-0.1-0.4-0.2-0.3-0.4c0.2-0.6,0.5-1.2,0.7-1.8c0.1-0.2,0.3-0.2,0.4-0.2c0.2,0.1,0.2,0.3,0.2,0.4
		c-0.3,0.6-0.5,1.2-0.7,1.8C67.2,70.2,67.1,70.3,66.9,70.3z M101.2,70.2c-0.1,0-0.3-0.1-0.3-0.2c-0.2-0.6-0.4-1.2-0.7-1.8
		c-0.1-0.2,0-0.3,0.2-0.4s0.3,0,0.4,0.2c0.3,0.6,0.5,1.2,0.7,1.8C101.6,70,101.5,70.1,101.2,70.2C101.3,70.2,101.2,70.2,101.2,70.2z
		 M68.6,66.7c-0.1,0-0.1,0-0.2,0c-0.1-0.1-0.2-0.3-0.1-0.4c0.3-0.6,0.7-1.1,1.1-1.6c0.1-0.1,0.3-0.2,0.4-0.1s0.2,0.3,0.1,0.4
		c-0.4,0.5-0.7,1-1.1,1.6C68.8,66.7,68.7,66.7,68.6,66.7z M99.5,66.7c-0.1,0-0.2-0.1-0.3-0.2c-0.3-0.5-0.7-1.1-1.1-1.6
		c-0.1-0.1-0.1-0.3,0.1-0.4c0.1-0.1,0.3-0.1,0.4,0.1c0.4,0.5,0.8,1.1,1.1,1.6C99.8,66.3,99.7,66.5,99.5,66.7
		C99.7,66.7,99.6,66.7,99.5,66.7z M70.9,63.6c-0.1,0-0.2,0-0.2-0.1c-0.1-0.1-0.1-0.3,0-0.4c0.5-0.5,0.9-0.9,1.4-1.4
		c0.1-0.1,0.3-0.1,0.4,0s0.1,0.3,0,0.4c-0.5,0.4-1,0.9-1.4,1.3C71.1,63.6,71,63.6,70.9,63.6z M97.2,63.6c-0.1,0-0.2,0-0.2-0.1
		c-0.4-0.5-0.9-0.9-1.4-1.3c-0.1-0.1-0.1-0.3,0-0.4c0.1-0.1,0.3-0.1,0.4,0c0.5,0.4,1,0.9,1.4,1.4c0.1,0.1,0.1,0.3,0,0.4
		C97.3,63.6,97.2,63.6,97.2,63.6z M73.9,61.1c-0.1,0-0.2,0-0.3-0.1c-0.1-0.1-0.1-0.3,0.1-0.4c0.5-0.4,1.1-0.7,1.7-1
		c0.2-0.1,0.3,0,0.4,0.1c0.1,0.2,0,0.3-0.1,0.4c-0.6,0.3-1.1,0.6-1.6,1C74,61.1,74,61.1,73.9,61.1z M94.2,61.1c-0.1,0-0.1,0-0.2-0.1
		c-0.5-0.4-1.1-0.7-1.6-1c-0.2-0.1-0.2-0.3-0.1-0.4c0.1-0.2,0.3-0.2,0.4-0.1c0.6,0.3,1.2,0.7,1.7,1c0.1,0.1,0.2,0.3,0.1,0.4
		C94.4,61,94.3,61.1,94.2,61.1z M77.4,59.3c-0.1,0-0.2-0.1-0.3-0.2c-0.1-0.2,0-0.3,0.2-0.4c0.6-0.2,1.2-0.5,1.9-0.6
		c0.2,0,0.3,0.1,0.4,0.2c0,0.2-0.1,0.3-0.2,0.4c-0.6,0.2-1.2,0.4-1.8,0.6C77.4,59.2,77.4,59.3,77.4,59.3z M90.7,59.2L90.7,59.2
		c-0.7-0.2-1.3-0.4-1.9-0.6c-0.2,0-0.3-0.2-0.2-0.4S88.8,58,89,58c0.6,0.2,1.3,0.4,1.9,0.6c0.2,0.1,0.2,0.2,0.2,0.4
		C91,59.2,90.9,59.2,90.7,59.2z M81.1,58.2c-0.2,0-0.3-0.1-0.3-0.3s0.1-0.3,0.3-0.4c0.7-0.1,1.3-0.2,2-0.2c0.2,0,0.3,0.1,0.3,0.3
		s-0.1,0.3-0.3,0.3C82.5,58,81.8,58.1,81.1,58.2C81.2,58.2,81.1,58.2,81.1,58.2z M87,58.2C87,58.2,86.9,58.2,87,58.2
		c-0.7-0.1-1.3-0.2-2-0.2c-0.2,0-0.3-0.2-0.3-0.3c0-0.2,0.2-0.3,0.3-0.3c0.7,0,1.3,0.1,2,0.2c0.2,0,0.3,0.2,0.3,0.4
		C87.3,58.1,87.1,58.2,87,58.2z"/>
</g>
<g>
	<path class="st17" d="M86.6,131.9c-0.3,0-0.7,0-1,0c-0.2,0-0.3-0.2-0.3-0.3c0-0.2,0.2-0.3,0.3-0.3c0.3,0,0.6,0,0.9,0l0,0
		c0.3,0,0.6,0,0.9,0c0.2,0,0.3,0.1,0.3,0.3s-0.1,0.3-0.3,0.3S86.9,131.9,86.6,131.9z M83.7,131.6L83.7,131.6
		c-0.7-0.2-1.3-0.3-1.9-0.6c-0.2-0.1-0.2-0.2-0.2-0.4c0.1-0.2,0.2-0.2,0.4-0.2c0.6,0.2,1.2,0.4,1.8,0.5c0.2,0,0.3,0.2,0.2,0.4
		C84,131.5,83.9,131.6,83.7,131.6z M89.4,131.6c-0.1,0-0.3-0.1-0.3-0.2c0-0.2,0.1-0.3,0.2-0.4c0.6-0.1,1.2-0.3,1.8-0.6
		c0.2-0.1,0.3,0,0.4,0.2s0,0.3-0.2,0.4C90.8,131.2,90.1,131.4,89.4,131.6C89.5,131.6,89.4,131.6,89.4,131.6z M80.1,130.2
		c-0.1,0-0.1,0-0.2,0c-0.6-0.3-1.1-0.7-1.6-1.1c-0.1-0.1-0.2-0.3,0-0.4c0.1-0.1,0.3-0.2,0.4,0c0.5,0.4,1,0.7,1.5,1.1
		c0.2,0.1,0.2,0.3,0.1,0.4C80.4,130.1,80.3,130.2,80.1,130.2z M93,130.2c-0.1,0-0.2-0.1-0.3-0.2c-0.1-0.2,0-0.3,0.1-0.4
		c0.5-0.3,1.1-0.7,1.5-1.1c0.1-0.1,0.3-0.1,0.4,0s0.1,0.3,0,0.4c-0.5,0.4-1.1,0.8-1.6,1.1C93.1,130.2,93,130.2,93,130.2z
		 M77.2,127.8c-0.1,0-0.2,0-0.2-0.1c-0.4-0.5-0.9-1-1.2-1.5c-0.1-0.1-0.1-0.3,0.1-0.4c0.1-0.1,0.3-0.1,0.4,0.1
		c0.4,0.5,0.7,1,1.2,1.5c0.1,0.1,0.1,0.3,0,0.4C77.3,127.8,77.2,127.8,77.2,127.8z M96,127.8c-0.1,0-0.2,0-0.2-0.1
		c-0.1-0.1-0.1-0.3,0-0.4c0.4-0.5,0.8-0.9,1.2-1.5c0.1-0.1,0.3-0.2,0.4-0.1s0.2,0.3,0.1,0.4c-0.4,0.5-0.8,1.1-1.2,1.5
		C96.1,127.8,96,127.8,96,127.8z M75,124.7c-0.1,0-0.2-0.1-0.3-0.2c-0.3-0.6-0.5-1.2-0.7-1.8c-0.1-0.2,0-0.3,0.2-0.4s0.3,0,0.4,0.2
		c0.2,0.6,0.4,1.2,0.7,1.7c0.1,0.2,0,0.3-0.1,0.4C75.1,124.6,75,124.7,75,124.7z M98.1,124.6L98.1,124.6c-0.3-0.1-0.3-0.3-0.2-0.4
		c0.3-0.6,0.5-1.1,0.7-1.7c0.1-0.2,0.2-0.3,0.4-0.2c0.2,0.1,0.3,0.2,0.2,0.4c-0.2,0.6-0.4,1.2-0.7,1.8
		C98.3,124.6,98.2,124.6,98.1,124.6z M73.9,121c-0.2,0-0.3-0.1-0.3-0.3c-0.1-0.6-0.1-1.3-0.1-2c0-0.2,0.1-0.3,0.3-0.3l0,0
		c0.2,0,0.3,0.1,0.3,0.3c0,0.6,0,1.3,0.1,1.9C74.2,120.8,74.1,121,73.9,121L73.9,121z M99.2,121L99.2,121c-0.2,0-0.3-0.2-0.3-0.4
		c0.1-0.6,0.1-1.2,0.1-1.9l0,0c0-0.2,0.1-0.3,0.3-0.3c0.2,0,0.3,0.1,0.3,0.3l0,0c0,0.7,0,1.3-0.1,2C99.5,120.9,99.4,121,99.2,121z
		 M73.9,117.2C73.9,117.2,73.8,117.2,73.9,117.2c-0.2,0-0.3-0.2-0.3-0.4c0.1-0.6,0.2-1.3,0.4-1.9c0.1-0.2,0.2-0.3,0.4-0.2
		c0.2,0.1,0.3,0.2,0.2,0.4c-0.2,0.6-0.3,1.2-0.4,1.8C74.2,117.1,74,117.2,73.9,117.2z M99.2,117.1c-0.2,0-0.3-0.1-0.3-0.3
		c-0.1-0.6-0.2-1.2-0.4-1.8c-0.1-0.2,0-0.3,0.2-0.4s0.3,0,0.4,0.2c0.2,0.6,0.3,1.3,0.4,1.9C99.6,117,99.5,117.1,99.2,117.1
		C99.3,117.1,99.2,117.1,99.2,117.1z M75,113.5L75,113.5c-0.3-0.1-0.3-0.3-0.2-0.4c0.3-0.6,0.6-1.2,1-1.7c0.1-0.1,0.3-0.2,0.4-0.1
		s0.2,0.3,0.1,0.4c-0.4,0.5-0.7,1.1-0.9,1.6C75.2,113.5,75.1,113.5,75,113.5z M98.1,113.5c-0.1,0-0.2-0.1-0.3-0.2
		c-0.3-0.6-0.6-1.1-0.9-1.6c-0.1-0.1-0.1-0.3,0.1-0.4c0.1-0.1,0.3-0.1,0.4,0.1c0.4,0.5,0.7,1.1,1,1.7c0.1,0.2,0,0.3-0.1,0.4
		C98.2,113.5,98.1,113.5,98.1,113.5z M77.1,110.4c-0.1,0-0.2,0-0.2-0.1c-0.1-0.1-0.1-0.3,0-0.4c0.4-0.5,0.9-0.9,1.4-1.3
		c0.1-0.1,0.3-0.1,0.4,0s0.1,0.3,0,0.4c-0.5,0.4-0.9,0.8-1.4,1.3C77.3,110.3,77.2,110.4,77.1,110.4z M95.9,110.3
		c-0.1,0-0.2,0-0.2-0.1c-0.4-0.5-0.9-0.9-1.4-1.3c-0.1-0.1-0.2-0.3-0.1-0.4s0.3-0.2,0.4-0.1c0.5,0.4,1,0.9,1.4,1.3
		c0.1,0.1,0.1,0.3,0,0.4C96.1,110.3,96,110.3,95.9,110.3z M80.1,108c-0.1,0-0.2-0.1-0.3-0.2c-0.1-0.2,0-0.3,0.1-0.4
		c0.6-0.3,1.2-0.6,1.8-0.9c0.2-0.1,0.3,0,0.4,0.2s0,0.3-0.2,0.4c-0.6,0.2-1.1,0.5-1.7,0.8C80.2,108,80.2,108,80.1,108z M92.9,108
		c-0.1,0-0.1,0-0.2,0c-0.5-0.3-1.1-0.6-1.7-0.8c-0.2-0.1-0.2-0.2-0.2-0.4c0.1-0.2,0.2-0.2,0.4-0.2c0.6,0.2,1.2,0.5,1.8,0.9
		c0.2,0.1,0.2,0.3,0.1,0.4C93.2,107.9,93.1,108,92.9,108z M83.7,106.6c-0.1,0-0.3-0.1-0.3-0.2c0-0.2,0.1-0.3,0.2-0.4
		c0.6-0.1,1.3-0.2,1.9-0.3c0.2,0,0.3,0.1,0.3,0.3c0,0.2-0.1,0.3-0.3,0.3C85,106.3,84.4,106.4,83.7,106.6L83.7,106.6z M89.4,106.6
		C89.4,106.6,89.3,106.6,89.4,106.6c-0.7-0.1-1.3-0.2-1.9-0.3c-0.2,0-0.3-0.2-0.3-0.3c0-0.2,0.2-0.3,0.3-0.3c0.7,0,1.3,0.1,1.9,0.3
		c0.2,0,0.3,0.2,0.2,0.4C89.7,106.5,89.5,106.6,89.4,106.6z"/>
</g>
<g>
	<path class="st17" d="M176.8,134.2L176.8,134.2c-0.7,0-1.3-0.1-2-0.3c-0.2,0-0.3-0.2-0.2-0.4c0-0.2,0.2-0.3,0.4-0.2
		c0.6,0.1,1.2,0.2,1.9,0.3c0.2,0,0.3,0.2,0.3,0.3C177.1,134.1,176.9,134.2,176.8,134.2z M178.7,134.2c-0.2,0-0.3-0.1-0.3-0.3
		s0.1-0.3,0.3-0.3c0.6,0,1.3-0.1,1.9-0.3c0.2,0,0.3,0.1,0.4,0.2c0,0.2-0.1,0.3-0.2,0.4C180,134.1,179.4,134.2,178.7,134.2
		L178.7,134.2z M173,133.4h-0.1c-0.6-0.2-1.2-0.5-1.8-0.8c-0.2-0.1-0.2-0.3-0.1-0.4c0.1-0.2,0.3-0.2,0.4-0.1
		c0.6,0.3,1.1,0.5,1.7,0.8c0.2,0.1,0.2,0.2,0.2,0.4C173.2,133.4,173.1,133.4,173,133.4z M182.5,133.4c-0.1,0-0.3-0.1-0.3-0.2
		c-0.1-0.2,0-0.3,0.2-0.4c0.6-0.2,1.2-0.5,1.7-0.8c0.2-0.1,0.3,0,0.4,0.1c0.1,0.2,0,0.3-0.1,0.4
		C183.8,132.8,183.2,133.1,182.5,133.4C182.5,133.4,182.5,133.4,182.5,133.4z M169.6,131.7c-0.1,0-0.1,0-0.2-0.1
		c-0.5-0.4-1.1-0.8-1.5-1.2c-0.1-0.1-0.1-0.3,0-0.4c0.1-0.1,0.3-0.1,0.4,0c0.5,0.4,1,0.8,1.5,1.2c0.1,0.1,0.2,0.3,0.1,0.4
		C169.8,131.6,169.7,131.7,169.6,131.7z M185.9,131.7c-0.1,0-0.2,0-0.3-0.1s-0.1-0.3,0.1-0.4c0.5-0.4,1-0.8,1.5-1.2
		c0.1-0.1,0.3-0.1,0.4,0c0.1,0.1,0.1,0.3,0,0.4c-0.5,0.4-1,0.9-1.5,1.2C186,131.6,185.9,131.7,185.9,131.7z M166.8,129
		c-0.1,0-0.2,0-0.2-0.1c-0.4-0.5-0.8-1.1-1.1-1.6c-0.1-0.1,0-0.3,0.1-0.4s0.3,0,0.4,0.1c0.3,0.5,0.7,1.1,1.1,1.5
		c0.1,0.1,0.1,0.3,0,0.4C166.9,129,166.8,129,166.8,129z M188.7,129c-0.1,0-0.1,0-0.2-0.1c-0.1-0.1-0.2-0.3,0-0.4
		c0.4-0.5,0.8-1,1.1-1.5c0.1-0.1,0.3-0.2,0.4-0.1c0.1,0.1,0.2,0.3,0.1,0.4c-0.3,0.6-0.7,1.1-1.1,1.6C188.9,129,188.8,129,188.7,129z
		 M164.8,125.8c-0.1,0-0.2-0.1-0.3-0.2c-0.3-0.6-0.5-1.2-0.7-1.9c0-0.2,0.1-0.3,0.2-0.4c0.2,0,0.3,0.1,0.4,0.2
		c0.2,0.6,0.4,1.2,0.6,1.8C165.1,125.5,165,125.6,164.8,125.8C164.8,125.8,164.8,125.8,164.8,125.8z M190.7,125.7h-0.1
		c-0.2-0.1-0.2-0.3-0.2-0.4c0.3-0.6,0.5-1.2,0.6-1.8c0-0.2,0.2-0.3,0.4-0.2c0.2,0,0.3,0.2,0.2,0.4c-0.2,0.6-0.4,1.3-0.7,1.9
		C190.9,125.7,190.8,125.7,190.7,125.7z M163.7,122.1c-0.2,0-0.3-0.1-0.3-0.3c-0.1-0.6-0.1-1.3-0.1-2c0-0.2,0.1-0.3,0.3-0.3l0,0
		c0.2,0,0.3,0.1,0.3,0.3c0,0.6,0,1.3,0.1,1.9C164.1,121.9,163.9,122,163.7,122.1L163.7,122.1z M191.7,122L191.7,122
		c-0.2,0-0.3-0.2-0.3-0.4c0.1-0.6,0.1-1.3,0.1-1.9l0,0c0-0.2,0.1-0.3,0.3-0.3s0.3,0.1,0.3,0.3l0,0c0,0.7,0,1.3-0.1,2
		C192,121.9,191.9,122,191.7,122z M163.7,118.2L163.7,118.2c-0.2,0-0.3-0.2-0.3-0.4c0.1-0.7,0.2-1.3,0.4-1.9c0-0.2,0.2-0.3,0.4-0.2
		c0.2,0,0.3,0.2,0.2,0.4c-0.2,0.6-0.3,1.2-0.4,1.8C164,118.1,163.9,118.2,163.7,118.2z M191.7,118.2c-0.2,0-0.3-0.1-0.3-0.3
		c-0.1-0.6-0.2-1.2-0.4-1.8c0-0.2,0.1-0.3,0.2-0.4c0.2,0,0.3,0.1,0.4,0.2c0.2,0.6,0.3,1.3,0.4,1.9C192.1,118,192,118.1,191.7,118.2
		C191.8,118.2,191.7,118.2,191.7,118.2z M164.7,114.5h-0.1c-0.2-0.1-0.2-0.3-0.2-0.4c0.3-0.6,0.6-1.2,0.9-1.8
		c0.1-0.1,0.3-0.2,0.4-0.1c0.1,0.1,0.2,0.3,0.1,0.4c-0.3,0.5-0.6,1.1-0.9,1.7C165,114.4,164.9,114.5,164.7,114.5z M190.7,114.5
		c-0.1,0-0.2-0.1-0.3-0.2c-0.3-0.6-0.5-1.1-0.9-1.7c-0.1-0.1,0-0.3,0.1-0.4s0.3,0,0.4,0.1c0.3,0.6,0.6,1.1,0.9,1.7
		C191,114.2,190.9,114.3,190.7,114.5C190.8,114.4,190.7,114.5,190.7,114.5z M166.7,111.2c-0.1,0-0.1,0-0.2-0.1
		c-0.1-0.1-0.2-0.3,0-0.4c0.4-0.5,0.9-1,1.3-1.4c0.1-0.1,0.3-0.1,0.4,0c0.1,0.1,0.1,0.3,0,0.4c-0.5,0.4-0.9,0.9-1.3,1.4
		C166.9,111.2,166.8,111.2,166.7,111.2z M188.7,111.2c-0.1,0-0.2,0-0.2-0.1c-0.4-0.5-0.8-0.9-1.3-1.4c-0.1-0.1-0.1-0.3,0-0.4
		s0.3-0.1,0.4,0c0.5,0.4,0.9,0.9,1.3,1.4c0.1,0.1,0.1,0.3,0,0.4C188.8,111.1,188.8,111.2,188.7,111.2z M169.6,108.6
		c-0.1,0-0.2,0-0.3-0.1s-0.1-0.3,0.1-0.4c0.5-0.4,1.1-0.7,1.7-1c0.2-0.1,0.3,0,0.4,0.1c0.1,0.2,0,0.3-0.1,0.4
		c-0.6,0.3-1.1,0.6-1.6,1C169.7,108.5,169.6,108.6,169.6,108.6z M185.9,108.5c-0.1,0-0.1,0-0.2-0.1c-0.5-0.4-1.1-0.7-1.6-1
		c-0.2-0.1-0.2-0.3-0.1-0.4c0.1-0.2,0.3-0.2,0.4-0.1c0.6,0.3,1.1,0.6,1.7,1c0.1,0.1,0.2,0.3,0.1,0.4
		C186.1,108.5,186,108.5,185.9,108.5z M173,106.8c-0.1,0-0.2-0.1-0.3-0.2c-0.1-0.2,0-0.3,0.2-0.4c0.6-0.2,1.3-0.4,1.9-0.5
		c0.2,0,0.3,0.1,0.4,0.2c0,0.2-0.1,0.3-0.2,0.4c-0.6,0.1-1.2,0.3-1.8,0.5C173,106.8,173,106.8,173,106.8z M182.4,106.8h-0.1
		c-0.6-0.2-1.2-0.4-1.8-0.5c-0.2,0-0.3-0.2-0.2-0.4c0-0.2,0.2-0.3,0.4-0.2c0.6,0.1,1.3,0.3,1.9,0.5c0.2,0.1,0.2,0.2,0.2,0.4
		C182.7,106.7,182.6,106.8,182.4,106.8z M176.7,106c-0.2,0-0.3-0.1-0.3-0.3c0-0.2,0.1-0.3,0.3-0.3c0.7,0,1.3,0,2,0
		c0.2,0,0.3,0.2,0.3,0.3c0,0.2-0.2,0.3-0.3,0.3C178,106,177.4,106,176.7,106C176.8,106,176.7,106,176.7,106z"/>
</g>
<path class="st19" d="M215.9,110.7c0,0,8,3.5,9.5,3.4s10.4-2.7,10.4-2.7l-0.2,1.5c0,0-6.9,4-9.4,4.2c-2.4,0.2-10.5-2.1-11.3-2.6
	C214.2,114,213.7,111.2,215.9,110.7z"/>
<path class="st9" d="M214.7,97.8c0,0-3-0.6-4.4,0.5c-2.7,2-2.8,8.7-3.8,9.7s-3.4,0.6-3.6,5.8c-0.2,5.2,1,5.6-0.4,7.9
	s0.6,4.6,0.6,4.6s-0.8-1.3-0.5-2.2c0,0,0.3,2,1.6,2.5s1.5,0.8,1.7,1.5c0,0,11-5.7,11-9.7s2.2-8,1.1-9.7c0,0,0.5,0.7,0.5,1.6
	c0,0,0.6-1.2-0.5-2.4c-1.1-1.1,1.3-3.5,0.9-6.2C218.8,100,217.5,97.9,214.7,97.8z"/>
<path class="st20" d="M216.9,114.5c-0.7,0.5-1.6,0.9-2.7,1.1c-4.2,1-5.8-2.6-6.4-5c0.6-0.3,1.1-0.4,1.4-0.4c0.3,0,0.6-0.1,0.9-0.1
	c0.5-0.4,1.2-1.8,1.3-4.1l0.2,0.1l3.3,0.9c0,0-0.2,1-0.2,2c-0.1,0.8-0.1,1.5,0.1,1.7c0.3,0.1,0.4,0.1,0.4,0.1l0,0
	C215.3,110.9,216.2,112.5,216.9,114.5z"/>
<path class="st19" d="M214.9,107c0,0-0.2,1-0.2,2c-1.9-0.2-2.7-2-3.1-2.9L214.9,107z"/>
<path class="st20" d="M215.5,108c0,0-4.4-0.2-4.2-3c0.2-2.7-0.2-4.6,2.6-4.6s3.3,1.1,3.5,2.1C217.5,103.4,216.7,108,215.5,108z"/>
<path class="st9" d="M217.3,101c-0.6-0.9-1.1-0.7-1.5-0.5c-2.3-1.5-5-0.5-5-0.5c-0.4,1.9-1,3.8-1,3.8s0.8,0.6,2.7,0.2
	c0.6-0.1,1.1-0.5,1.6-0.9c-0.8,1.2-1.9,2-1.9,2c2.3-0.9,3.4-3.9,3.5-4.2c0.3,0.3,0.7,0.8,0.9,1.3c0.2,0.7,0.9,1.8,1.3,1.8
	C217.9,104.1,218.2,102.3,217.3,101z"/>
<path class="st21" d="M206.6,123.5c-0.4-2-1.7-10.2-0.4-12.8c0.5-0.9,2.3-1,4.3-0.9c0.6,0.4,3,1.9,4,1.7c0,0,0,0,0.1,0
	c0.5-0.1,0.6-0.4,0.3-0.7c0,0,1-0.1,2.2,0.1c0.7,0.1,2.6,1.1,2.6,1.1s-0.9,1.7-2.3,2.3c0.2,2.1-0.1,3.1-2.3,8
	c-1.9,4.1,0.3,7.9,0.3,7.9s-11,8.8-11,4.3C204.1,131.1,207.1,126.1,206.6,123.5z"/>
<path class="st22" d="M215.7,139.7c0.6-0.1,1.1-0.4,1.5-0.9c0.1-0.1,0.1-0.2,0.2-0.3c1.2-1.9,1.7-7.7,4.5-13.8
	c0.7-1.5,3.1-1.8,3.8-3.5c0,0,1.6-5.5-3.2-5.7s-12.9,15.3-13,16.9C209.5,134.1,206.4,140.8,215.7,139.7z"/>
<path class="st11" d="M234.8,139.6H228c0,0-0.3-1.1,0.2-1.8c0.4-0.7,0.2-1,0-1.6c0.3,0.1,0.7,0.2,1.2,0.2c0.3,0,0.7-0.2,1-0.4
	c0.3,0.3,1.6,1.8,1.9,2C232.7,138.4,234.7,138.3,234.8,139.6z"/>
<path class="st11" d="M207.3,112.8c0,0-0.9,8.1,4.9,9.8c5.8,1.7,7.4-7.4,2.7-8.1C210.3,113.9,207.3,112.8,207.3,112.8z"/>
<path class="st1" d="M225.9,117.2c0.4,3.1,2,12.8,4.9,17.6c0.9,1.5-2.3,2.4-2.3,2.4c-0.4-0.1-1.1-0.8-1.5-1.1c-2.3-2.1-7-7.9-7-12.6
	c0-2.3,0-6.7,1.6-7.8C222.6,114.9,225.7,116,225.9,117.2z"/>
<path class="st2" d="M211.7,139.6c0,0,0.3-0.4,0.7-1c0.5-0.8,1.1-2.4,1.8-4.4c0.7-2.1,1.6-4.7,2.7-7.4c0.3-0.8,0.7-1.7,1.1-2.5
	c0.7-1.5,2.6-1.3,3.2-3c0,0,2.6-5.9-2.2-6s-13.9,15.7-14.4,17.3C204,134.2,201.2,141.2,211.7,139.6z"/>
<path class="st21" d="M229.8,139.6H223c0,0-0.3-1.1,0.2-1.8c0.4-0.7,0.2-1,0-1.6c0.3,0.1,0.7,0.2,1.2,0.2c0.3,0,0.7-0.2,1-0.4
	c0.3,0.3,1.6,1.8,1.9,2C227.7,138.4,229.7,138.3,229.8,139.6z"/>
<path class="st1" d="M214.2,134.2c0.7-2.1,1.6-4.7,2.7-7.4c-0.3-2-0.9-3.8-1.9-4.6C214.9,122.3,212.4,130.1,214.2,134.2z"/>
<path class="st2" d="M221.9,117c0.4,3.1,1,13,3.8,17.8c0.9,1.5-2.3,2.4-2.3,2.4c-0.4-0.1-1.1-0.8-1.5-1.1c-2.3-2.1-7-7.9-7-12.6
	c0-2.3,2.7-6.5,4.4-7.6C220.3,115.1,221.7,115.8,221.9,117z"/>
<g>
	<path class="st11" d="M236.7,107.4l-7-0.7c-0.2,0-0.4,0.1-0.5,0.3l-2.5,6.6c-0.1,0.3,0.1,0.6,0.4,0.6l6.9,0.3
		c0.2,0,0.4-0.1,0.4-0.3l2.6-6.1C237.2,107.8,237,107.5,236.7,107.4z"/>
	<path class="st21" d="M237.3,107.5l-7-0.7c-0.2,0-0.4,0.1-0.5,0.3l-2.5,6.6c-0.1,0.3,0.1,0.6,0.4,0.6l6.9,0.3
		c0.2,0,0.4-0.1,0.4-0.3l2.6-6.1C237.8,107.8,237.6,107.5,237.3,107.5z"/>
	<path class="st11" d="M233.4,110.6c0.1-0.2,0-0.4-0.3-0.4c-0.2,0-0.5,0.2-0.6,0.4s0,0.4,0.3,0.4S233.3,110.8,233.4,110.6z"/>
	<path class="st11" d="M237.1,108.1c0-0.1,0-0.2-0.1-0.2s-0.2,0.1-0.3,0.2c0,0.1,0,0.2,0.1,0.2C236.9,108.3,237,108.2,237.1,108.1z"
		/>
</g>
<path class="st20" d="M207.9,110.7c0,0,9.7,3.6,11.2,3.5c0.9,0,8.8-2.8,8.8-2.8l0.7,1.3c0,0-7.6,4.9-9.7,4.9
	c-4.1,0-11.1-2.6-11.9-3.1C206.1,114,205.6,111.2,207.9,110.7z"/>
<path class="st20" d="M227.8,111.4c0,0,0.7-1.1,1.4-1.1s1.9,0.5,2.3,0.6c0.4,0.1,1.6,0.5,1.2,1c-0.3,0.6-2,0.7-2.7,0.6
	s-1.6,0.3-1.6,0.3L227.8,111.4z"/>
<path class="st20" d="M229,110.3c0,0,1.1-0.5,1.4-0.6c0.3-0.1,0.3,0,0.2,0.3s-0.7,0.6-0.7,0.7S229,110.3,229,110.3z"/>
<path class="st20" d="M236.6,110.8c0,0-0.7-1.1-0.9-1.2c-0.7-0.1-0.7,0.8-0.6,1.4c0.2,0.6,0.7,1.2,0.8,1.2
	C236.1,112.2,236.7,111.4,236.6,110.8z"/>
<path class="st20" d="M236.6,111c0,0,0.2,1.2-1,1.9L236.6,111z"/>
<path class="st18" d="M216.3,106.4c0,0-0.4-0.2-1.6-0.1c0,0,0.1,0.5,0.9,0.5C216.2,106.9,216.3,106.4,216.3,106.4z"/>
<path class="st21" d="M212.9,112.5c0,0-0.9,2.7-3.8,3.4c0,0-4.9-1.5-2.5-4.9C206.5,111,209,109.2,212.9,112.5z"/>
<path class="st23" d="M76.2,15.8c0,0,1.3,1.9,2,5.9c0.6,3.5,1.2,4.8,2.1,5.5s6.1,2.8,6.1,2.8l-0.3,1c0,0-7.6-1-8.4-2.3
	s-4.1-8.7-3.8-10.5C74.1,16.5,76.2,15.8,76.2,15.8z"/>
<g>
	<path class="st20" d="M94.8,57.6c-0.1,0.7,1,0.9,2.1,1c1.2,0.1,0.8,0.3,2.5,0.6c1.6,0.3,2.3-0.2,2.4-0.4s-0.7-0.5-1.5-0.8
		c-0.1,0-0.2-0.1-0.3-0.1c-0.9-0.4-1.4-1.2-2.1-2c-0.7-0.7-1.3-3-1.3-3l-2.2-0.5c0,0,0.6,2.1,0.8,2.9c0.1,0.5-0.1,1.1-0.2,1.5
		C94.9,57.1,94.8,57.3,94.8,57.6z"/>
	<path class="st24" d="M96.9,58.5c1.2,0.1,0.8,0.3,2.5,0.6c1.6,0.3,2.3-0.2,2.4-0.4s-0.7-0.5-1.5-0.8l0,0c0,0-1.1,0.4-2.5,0
		c-1.1-0.3-2.1-0.9-2.9-1.1c-0.1,0.2-0.2,0.5-0.2,0.7C94.7,58.3,95.7,58.5,96.9,58.5z"/>
</g>
<path class="st25" d="M72.7,31.3c0,0,14.7-1.1,17.5,0.6C93,33.6,97.4,54,97.4,54s-0.3,0.2-0.9,0.3S94.7,54,94.7,54
	s-6.4-9.1-6.8-11.4c-0.4-2.3-0.3-4.3-1.4-4.4s-13.8,1.6-15.7-1.9c-1.9-3.4-0.3-6.8-0.3-6.8L72.7,31.3z"/>
<g>
	<path class="st20" d="M89.1,59.9c-0.1,0.7,1,0.9,2.1,1c1.2,0.1,0.8,0.3,2.5,0.6c1.6,0.3,2.3-0.2,2.4-0.4s-0.7-0.5-1.5-0.8
		c-0.1,0-0.2-0.1-0.3-0.1c-0.9-0.4-1.4-1.2-2.1-2c-0.7-0.7-1.3-3-1.3-3l-2.2-0.5c0,0,0.6,2.1,0.8,2.9c0.1,0.5-0.1,1.1-0.2,1.5
		C89.2,59.4,89.1,59.7,89.1,59.9z"/>
	<path class="st24" d="M91.3,60.9c1.2,0.1,0.8,0.3,2.5,0.6c1.6,0.3,2.3-0.2,2.4-0.4s-0.7-0.5-1.5-0.8l0,0c0,0-1.1,0.4-2.5,0
		c-1.1-0.3-2.1-0.9-2.9-1.1c-0.1,0.2-0.2,0.5-0.2,0.7C89.1,60.7,90.1,60.8,91.3,60.9z"/>
</g>
<path class="st2" d="M69.8,32.2c0,0,13.1,0.6,15.8,2.5c2.7,1.9,6.4,22.4,6.4,22.4s-0.3,0.2-0.9,0.3c-0.6,0-1.8-0.3-1.8-0.3
	s-6-9.4-6.4-11.7s-0.2-4.4-1.2-4.5s-13.8,1-15.6-2.5C64.2,34.9,69.8,32.2,69.8,32.2z"/>
<path class="st21" d="M74.5,3.4c-0.6-0.4-1.3-0.5-1.8-0.5c0.1-0.1,0.4-0.2,0.4-0.2C72.8,2.7,72,3,72,3c-4.2-2-5.4,4.4-5.4,5.9
	s-0.1,3.2-2.4,4.4c-4.5,2.3-1.2,7.2-1.2,7.2l3,3.9c0-1.2,4.8-7.6,7.8-9.4c0.8-1,1.1-2.8,1.2-3c-0.2,1.4-0.5,2.2-0.8,2.7
	C76.9,12.7,76,4.4,74.5,3.4z"/>
<path class="st20" d="M69.3,13.6c0,0,1.2-0.1,2.4,0c0.8,0.1,1.6,0.3,2.1,0.5c1.2,0.5,1,2.5-1.4,2.1C70,15.9,69.1,14.2,69.3,13.6z"/>
<path class="st20" d="M73.7,15.1c0,0,0.3,1.8-1.2,1.7c-1,0-3.3-1.3-3.1-2.2c0.1-0.4,0.9-1.5,1-4l0.2,0.1l3.2,0.9c0,0-0.1,1-0.2,2
	C73.5,14.3,73.5,15,73.7,15.1z"/>
<path class="st23" d="M73.8,11.5c0,0-0.1,1-0.2,2c-1.8-0.2-2.6-1.9-3-2.8L73.8,11.5z"/>
<path class="st21" d="M70.3,10.3c0,0-0.8-1.6-1-2.8c-0.1-0.9,0.6-4.3,4-3.6c0,0,1,0.2,1.9,0.9c0.7,0.5,1.7,1.7,0.3,4.6l-0.4,1
	L70.3,10.3z"/>
<path class="st20" d="M74.3,12.4c0,0-4.3-0.2-4.1-2.9C70.4,6.8,69.9,5,72.7,5c2.7,0,3.2,1.1,3.4,2C76.2,8,75.5,12.4,74.3,12.4z"/>
<path class="st21" d="M74.7,5.2c0,0-1.4,3-3.2,3.4c-1.8,0.3-2.6-0.2-2.6-0.2s0.5-1.9,0.9-3.8C69.8,4.6,73.9,3.6,74.7,5.2z"/>
<path class="st21" d="M74.4,5.4c0,0,0.8,0.8,1,1.4c0.2,0.7,0.2,2.1,0.6,2.1c0,0,1-2.1,0.1-3.3C75.1,4.3,74.4,5.4,74.4,5.4z"/>
<path class="st4" d="M78.6,31.5c-0.3,0.4-1.4,0.5-2.6,0.7c-0.9,0.1-1.9,0.3-2.5,0.7c-1.5,0.9-6.6,4-8,3.8c-0.6-0.1-0.5-1.1-0.1-2.6
	c0.5-2.3,1.7-5.5,1.7-6.8c0-0.8,0.3-2.5,0.6-4.6c0-0.2,0.1-0.3,0.1-0.5c0.7-4,1.6-8.6,1.6-8.6s1,2.2,3,2.2s1.5-1.7,1.5-1.7
	s1.8,0.2,2.2,0.7c0.4,0.5,1.5,2.5,1.7,3c0,0,0,0.7-1.7,1c0,0,0.4,1.9,0.5,3.1c0,0.9-0.6,3.8-0.8,5.6c-0.1,0.6-0.1,1.1,0,1.4
	s0.6,0.6,1.1,0.9C77.8,30.5,79,31,78.6,31.5z"/>
<path class="st13" d="M76.8,29.9c1.1,1.9-3,2.4-3.7,2.8c-1.5,0.9-6.3,4.2-7.7,4c-0.6-0.1-0.5-1.1-0.1-2.6c0.5-2.3,1.7-5.5,1.7-6.8
	c0-0.8,0.3-2.5,0.6-4.6l1.8-1.7c0,0,1.9,4.9,3.7,5.7c1,0.4,1.9,0.7,2.7,0.9c-0.1,0.6-0.1,1.1,0,1.4S76.4,29.6,76.8,29.9z"/>
<path class="st20" d="M68.7,15.1c0,0-1.5-0.9-3,0.8s1,14.3,3.2,14.9c2.4,0.7,9.4-0.1,9.4-0.1l-0.1-1.1c0,0-7.4-1.4-7.7-1.8
	C70.2,27.4,69.5,15.3,68.7,15.1z"/>
<path class="st4" d="M69.3,13.6c0,0-3.1,0.3-4,1.3s-1.2,3.8-1.2,3.8s2.7,2.2,6.1,1.4L69.3,13.6z"/>
<g>
	<rect x="79.1" y="31.3" class="st11" width="4.1" height="0.5"/>
	<path class="st11" d="M82.3,31.7c0-0.2,3.8-6,3.8-6h8.3l-4.2,5.9L82.3,31.7z"/>
	<path class="st21" d="M82.7,31.8c0-0.2,3.8-6.1,3.8-6.1h8l-4,6.1H82.7z"/>
	<path class="st11" d="M89.7,28.8c-0.1,0.2-0.3,0.4-0.6,0.4c-0.2,0-0.4-0.2-0.3-0.4c0.1-0.2,0.3-0.4,0.6-0.4
		C89.7,28.3,89.8,28.5,89.7,28.8z"/>
</g>
<path class="st20" d="M77.6,29.6c0,0,2.4-0.5,2.7-0.4c0.3,0.1,1.8,1.5,1.6,1.8c-0.2,0.3-0.8,0.5-1.5,0.2c-0.7-0.2-2.2-0.4-2.5-0.7
	C77.7,30.1,77.6,29.6,77.6,29.6z"/>
<path class="st20" d="M48.5,76.2c-0.3,0.9-0.9,2-1.6,2.3c-0.7,0.3-1,0.7-1,0.7l-0.6-0.3l-0.7-0.4c0,0,0-0.1,0-0.2s0.1-0.3,0.2-0.5
	c0,0,0.2-0.3,0.1-0.6c-0.1-0.3-0.1-0.9,0.1-1.2c0.2-0.3,0.4-1.1,0.6-1.1c0.3,0.1-0.2,1.1,0,1.3c0.1,0.2,0.3,0.1,0.3,0.1l0,0
	c0.9-0.4,2-2.5,2.5-2.2C48.5,74.2,48.6,75.8,48.5,76.2z"/>
<g>
	<path class="st26" d="M45.4,77.5l1.1,0.8c0.1,0.1,0.2,0,0.2,0l2.9-4.1c0.1-0.1,0-0.2,0-0.2l-1.1-0.8c-0.1-0.1-0.2,0-0.2,0l-2.9,4.1
		C45.3,77.4,45.3,77.5,45.4,77.5z"/>
	<path class="st9" d="M46.4,78.2l0.7,0.5c0.1,0,0.1,0,0.2,0l2.9-4.2c0-0.1,0-0.1,0-0.2l-0.7-0.5c-0.1,0-0.1,0-0.2,0L46.4,78
		C46.3,78.1,46.3,78.2,46.4,78.2z"/>
</g>
<path class="st8" d="M29.2,71.6c0,0,5.7,10,7.8,11.8l7.6-5.7c0,0,1.1,0.3,1.6,1.4c0,0-4.6,9.4-9.2,9.8S26.1,77.6,26.1,77.6
	L29.2,71.6z"/>
<g>
	<path class="st9" d="M16.2,139.6h-3.3c-0.4-0.2-0.8-0.7-0.9-1.5c-0.2-1.1-1.4-1.6-1.6-2.5c-0.3-0.9,1.1-2.1,1.1-2.1l0.2-0.3
		l0.2-0.3l2.2,0.5c0,0,0.1,0.5,0.1,1.2c0,0.5,0,1,0,1.5c-0.1,1.2,0.3,2.4,1.4,2.6C16.3,138.9,16.3,139.4,16.2,139.6z"/>
	<path class="st9" d="M35.5,139.6h-7.6c-0.4-0.4-0.2-2.1-0.2-2.6c0-0.1,0-0.2,0-0.2s2.6-2.1,2.9-0.5v0.1c0.4,1.5,2.5,2.2,3.6,2.3
		C35.1,138.9,35.3,139.3,35.5,139.6z"/>
	<path class="st2" d="M34,97.3c0,0-0.4,4.9-0.9,10.8c-0.6,8-1.4,17.8-1.5,19.7c-0.1,3.2-0.6,8.4-0.6,8.4s-1.2,1.2-3.7,0.7
		c0,0-2.2-7.4-2.8-15.2c0-0.1,0-0.3,0-0.4c-0.6-7.9-1.5-24.7-1.5-24.7L34,97.3z"/>
	<path class="st1" d="M34,97.3c0,0-0.4,4.9-0.9,10.8l-8.6,13.6c0-0.1,0-0.3,0-0.4c-0.6-7.9-1.5-24.7-1.5-24.7L34,97.3z"/>
	<path class="st2" d="M32.2,97.9c0,0-7.1,17.7-11.7,26.1c-4.7,8.3-6.1,10.7-6.1,10.7s-2.7-1.1-2.9-1.8c0,0,1.8-16.1,4.9-20
		c1.8-2.2,3.8-8.9,3.9-11.2c0.1-2.3,0.6-6.9,0.6-6.9L32.2,97.9z"/>
</g>
<path class="st20" d="M30.5,72.1C27.7,73,23,70.6,23,70.6s2.5-1.9,2.4-5.9l2.1,1.7l1.5,1.2c0,0,0,0.7-0.2,1.9c0,0.3-0.1,0.7-0.2,1.1
	C29.8,71.2,30.5,72.1,30.5,72.1z"/>
<path class="st27" d="M28.9,67.6c0,0,0,0.7-0.2,1.9c-1.6-0.3-3.4-2.9-3.4-2.9c0.8-0.2,1.5-0.3,2.1-0.2L28.9,67.6z"/>
<path class="st20" d="M29.8,67.5c0,0-4.6,0.8-5-2.1s-1.3-4.7,1.6-5.3s3.6,0.4,4,1.3C30.7,62.4,30.9,67.2,29.8,67.5z"/>
<path class="st4" d="M34.3,97.7c-0.1,0.1-0.2,0.1-0.3,0.1c-1,0-4.1,0.6-6.6,0.3c-2.2-0.2-4.1-0.8-6.1-1.8c-0.3-0.1-0.9-0.5-0.9-0.8
	s0-0.8,0.1-1.4c0.1-2.1,0.4-5.8,0.2-10c0-0.8-0.1-1.6-0.1-2.3c0-5.7,1.1-10.7,3.4-12.4c0.2-0.1,1.4,0.4,2.5,1c1,0.5,2,0.6,3,0.4
	l1,0.8c1.2,1.1,2.4,2.5,3,4.8c0.5,1.9,0.7,5.3,0.9,8.9c0.1,1.6,0.1,3.2,0.1,4.8v0.1c0,0.2,0,0.3,0,0.5
	C34.4,94.6,34.4,97.7,34.3,97.7z"/>
<path class="st8" d="M20.5,94.2c0.1-2.1,0.4-5.8,0.2-10c0-0.8-0.1-1.6-0.1-2.3c0.9-2.3,1.7-4,1.7-4h2.4
	C24.7,77.9,26.4,89.9,20.5,94.2z"/>
<g>
	<path class="st9" d="M8.3,107.7l10.2,1.4c1.3,0.2,2.6-0.7,2.7-2.1l0.6-4.4c0.2-1.3-0.7-2.6-2.1-2.7L9.6,98.5
		c-1.3-0.2-2.6,0.7-2.7,2.1L6.2,105C6,106.3,6.9,107.5,8.3,107.7z"/>
	<path class="st26" d="M20.3,101.3L20.3,101.3c-0.3-0.7-0.9-1.3-1.7-1.5l0,0l0,0c-0.1,0-0.2,0-0.2,0l-2-0.3l0.1-1
		c0-0.2,0-0.4-0.2-0.6c-0.1-0.2-0.3-0.3-0.5-0.3l-0.5-0.1l-2.1-0.3l-0.4-0.1c-0.4-0.1-0.8,0.2-0.9,0.7l-0.1,1l-3.5-0.5
		C7,98.1,5.7,99,5.5,100.4l-0.6,4.5c-0.2,1.3,0.7,2.6,2.1,2.8l10.1,1.4c0.2,0,0.4,0,0.5,0l0,0l0,0c0.3,0,0.5-0.1,0.8-0.2
		c0.7-0.3,1.3-1,1.4-1.9l0.6-4.5C20.5,102.1,20.5,101.6,20.3,101.3z M12.4,97.9c0-0.1,0.1-0.2,0.2-0.3h0.1l0.5,0.1l1.7,0.2l0.9,0.1
		c0.2,0,0.3,0.2,0.3,0.3l-0.1,1l-3.6-0.5L12.4,97.9z"/>
</g>
<path class="st20" d="M16,94.6c0,0-0.5,0.7-0.6,1c-0.1,1.9,0.7,2.2-1.5,3.3c0,0-1,0.4-1-0.4s0.7-0.8,0.5-1.8
	c-0.1-1.2-0.1-1.2,0.7-1.9l0.5-0.9L16,94.6z"/>
<path class="st4" d="M14.6,95.2c0.9,0.2,1.8,0.1,1.8,0.1s2.5-7.9,2.9-8.6c0.3-0.7,7.6-9.2,7.6-9.2l-3-7.5c0,0-7.8,13.1-8.6,14.9
	c-1.3,3-1.8,9.8-1.8,9.8S14,95,14.6,95.2z"/>
<path class="st26" d="M24.8,65.2c0,0,0.5-0.1,0.4-0.7s-0.1-1.5,0.5-1.3c0.5,0.2,0.6,0.6,0.8,0.3c0.2-0.2,0.2-1.3,1.8-1.4
	c1.6-0.1,2.2,0.5,2.9,0.2c0.7-0.3,0.8-1.4,0.8-1.4s-0.2,0.4-0.5,0.5c0,0,1.2-1.7-0.2-2.8c-1.4-1.1-2.8-0.4-3.6-0.3
	c-1.8,0.1-2.9,0.2-3.5,1.4C23.4,60.8,23.6,64,24.8,65.2z"/>
<path class="st20" d="M15.2,95.5c0,0,0.5,0.5,0.5,0.8c0.1,0.7,0.3,1,0.2,1.1c-0.2,0.2-0.6-0.4-0.7-0.8C15,96,15.2,95.5,15.2,95.5z"
	/>
<g>
	<g>
		<g>
			<circle id="SVGID_1_" class="st28" cx="175.2" cy="72.7" r="16.8"/>
		</g>
		<g>
			<defs>
				<circle id="SVGID_2_" cx="175.2" cy="72.7" r="16.8"/>
			</defs>
			<clipPath id="SVGID_4_">
				<use xlink:href="#SVGID_2_"  style="overflow:visible;"/>
			</clipPath>
			<g class="st29">
				<path class="st9" d="M175.1,60.8c-0.4-0.1-1.1-0.7-1.8-0.1c-0.5,0.5-0.8-0.3-1.5,0.9c-0.2,0.4-0.9-0.4-1.4,0.5s-0.5,1.9-0.4,4.1
					c0.1,2.3,1.6,6.4,3.9,6.9c3.8-0.5,2.8,0.8,4-0.4c1.2-1.2,2.5-3.1,2.4-6.1s-0.2-3.9-0.8-4.7s-0.9-0.9-1.3-0.8
					c-0.7,0.2-1.2-1-1.9-0.5C175.6,61.1,175.1,60.8,175.1,60.8z"/>
				<path class="st30" d="M172.6,71.9c0,0,0,3.4-0.4,5l-3.4,2.5l13.1,1.7l-3.2-4.2c0,0-1-4.6-0.6-6.3
					C178.5,68.8,172.6,71.9,172.6,71.9z"/>
				<path class="st31" d="M172.6,72.4c0,0,1.1,2.5,3,2.4s2.3-2.3,2.3-2.3L172.6,72.4z"/>
				<path class="st30" d="M175.4,73.8c-1.4,0-4-1.8-4.1-4.1l-0.1-3.6c0-0.8,0.6-1.6,1.3-1.6l5.4-0.1c0.7,0,1.3,0.7,1.3,1.5l0.1,3.4
					C179.3,71.7,177,73.8,175.4,73.8z"/>
				<path class="st9" d="M170.5,68c1.1-0.8,0.9-2.1,2.3-2.4c1.1-0.2,1.7-1.1,3-0.7c1.1,0.4,2.2,0.1,2.8,0.9c0.6,0.7,0.6,1.5,1.2,2.4
					c0.6-3.1-0.9-4.7-2.9-5.1s-4.6-0.1-5.7,1.5C170.2,66.2,170.5,68,170.5,68z"/>
				<path class="st32" d="M163.2,92.9c0,0,0,0.8,0.2,0.3c-0.1,3.9-0.2,6.7-0.4,9.3h24.2c-0.1-1.8-0.3-5.4,0.5-9.1
					c0.2-0.8-1.7-3.6-1.5-4.4c1.9-5.9-2.5-11.4-2.5-11.4c-1.8-0.4-3.5-0.7-5-0.9c-1.2,1.6-1.9,2.8-3,3.3c-1.8-0.2-3.5-3.1-3.5-3.2
					c-2.6,0.3-4,0.9-4,0.9l0,0c-0.5,0.2-5.4,3.2-4.1,9.7C164.2,88.7,163,90.8,163.2,92.9z"/>
				<path class="st32" d="M172.2,76.9l-4,9.8l-3.8,2.4l-3.8,1.9c0.4-0.8,2.2-3.9-0.2-6.5c-1.2-1.3-3.1-1.1-4.7-0.6
					c0.1-0.1,0.3-0.1,0.4-0.2l0,0c4.4-2.1,7.4-4.9,9.5-6c1.2-0.6,2.8-1,3.6-1.1C170.4,76.6,172.3,76.9,172.2,76.9z"/>
				<path class="st32" d="M184.1,76.8c2.3,1.1,9.6,7.3,9.6,7.3c-0.2-0.1-2.9-1.7-4.9,0.7c-2.2,2.5-1.7,4.9-1.7,4.9l-0.9-0.7l0,0
					l-4.3-3.9l-3.2-8.3C178.6,76.8,182.7,76.1,184.1,76.8z"/>
			</g>
		</g>
	</g>
</g>
<g>
	<g>
		<g>
			<circle id="SVGID_3_" class="st28" cx="177.7" cy="119.8" r="12.9"/>
		</g>
		<g>
			<defs>
				<circle id="SVGID_6_" cx="177.7" cy="119.8" r="12.9"/>
			</defs>
			<clipPath id="SVGID_8_">
				<use xlink:href="#SVGID_6_"  style="overflow:visible;"/>
			</clipPath>
			<g class="st33">
				<path class="st9" d="M178.7,113.5c-1.5-1.1-5.6-0.2-5.2,3.8c0.4,3.7,2.3,5.1,3.5,5.8c2.5,0,2.7-0.8,2.8-1c2-2.2,1.9-4.6,1.4-6.8
					C180.8,113.8,179.4,113.2,178.7,113.5z"/>
				<path class="st2" d="M178.4,111.4c-0.7-1-1.9-1.4-2.4-0.3c-0.6,1.3-2.2-1-2.4,1.2c-0.1,1.5-2.8-0.4-2,2.1c0.5,1.7-2,1.6-0.5,3.1
					c1.1,1.1-1,3,0.8,3.3c1.4,0.3,1.7,0.2,1.7,0.9c-0.1,1.2,0.5,1.8,2.1,1.6c1.6-0.1,2-0.4,3.2,0.4c1,0.7,1.5-1.1,3.2-1.4
					c1.6-0.3-0.1-2.4,0.8-2.9c1.8-1-0.2-1.9,0.2-2.5c0.7-1.3,1-2.8-0.4-3.4c-1.6-0.6-0.9-2.3-2.6-2.1
					C179,111.4,178.6,111.7,178.4,111.4z"/>
				<path class="st20" d="M175.9,121.3c0,0,0.6,3-0.6,3.9l-2.6,1.9l10.1,1.3l-2.5-3.3c0,0-1.2-1.2-0.7-3.9
					C179.9,119.9,175.9,121.3,175.9,121.3z"/>
				<path class="st34" d="M176,121.8c0,0.2,0,0.4,0.1,0.6c0.4,0.5,1,1.2,2,1.2c0.8,0,1.3-0.6,1.5-1c0-0.2,0-0.5,0-0.7L176,121.8z"/>
				<path class="st20" d="M177.8,122.8c-1.1,0-3.1-1.4-3.2-3.2l-0.1-2.8c0-0.7,0.4-1.7,1-1.7l4.1-0.1c0.6,0,1,1.1,1,1.7l0.1,2.6
					C180.9,121.2,179.1,122.8,177.8,122.8z"/>
				<path class="st2" d="M174.5,119.8c0.8-1,0.6-2.6,1.6-2.8c0.8-0.2,2-0.8,3-1.7c0.5,0.1,1.2,0.7,1.5,1.5c0.3,0.7,0.2,0.8,0.7,1.3
					c0.5-2.4-0.8-3.1-2.3-3.5s-3.5-0.1-4.4,1.2C173.8,117,174.5,119.8,174.5,119.8z"/>
				<path class="st35" d="M175.3,125.2l-3.1,7.5l-2.9,1.8l-3,1.5c0.3-0.6,1.7-3-0.1-5c-0.9-1-2.4-0.9-3.6-0.5c0.1,0,0.2-0.1,0.3-0.1
					l0,0c3.3-1.6,5.7-3.8,7.3-4.6c0.9-0.4,2.2-0.8,2.8-0.8C174,125,175.4,125.2,175.3,125.2z"/>
				<path class="st35" d="M184.6,125.2c1.8,0.9,7.4,5.6,7.4,5.6c-0.2-0.1-2.2-1.3-3.8,0.5c-1.7,1.9-1.3,3.8-1.3,3.8l-0.7-0.5l0,0
					l-3.3-3l-2.5-6.4C180.3,125.2,183.5,124.6,184.6,125.2z"/>
				<path class="st35" d="M169.5,137.3L169.5,137.3c0,0.5,0,1.2-0.1,2h15.9c0.1-0.9,0.2-1.8,0.3-2.9c0.1-0.6,0.3-1.2,0.5-1.8
					c1.5-4.5-1.9-8.7-1.9-8.7c-1.4-0.3-2.7-0.5-3.9-0.7c-0.9,1.3-1.4,2.1-2.3,2.5c-1.4-0.2-2.7-2.4-2.7-2.5c-2,0.2-3.1,0.7-3.1,0.7
					l0,0c-0.4,0.2-4.2,2.5-3.2,7.5C169.3,134.3,169.4,135.8,169.5,137.3z"/>
			</g>
		</g>
	</g>
</g>
<g>
	<g>
		<g>
			<circle id="SVGID_5_" class="st28" cx="131.5" cy="94.2" r="19.5"/>
		</g>
		<g>
			<defs>
				<circle id="SVGID_10_" cx="131.5" cy="94.2" r="19.5"/>
			</defs>
			<clipPath id="SVGID_11_">
				<use xlink:href="#SVGID_10_"  style="overflow:visible;"/>
			</clipPath>
			<g class="st36">
				<path class="st9" d="M133,83c-2.3-1.7-8.5-0.3-7.9,5.8c0.5,5.6,3.5,7.6,5.3,8.8c3.8,0,4.1-1.2,4.3-1.5c3-3.3,2.9-7,2.1-10.2
					C136.3,83.5,134,82.6,133,83z"/>
				<path class="st9" d="M133.9,82.3c-3.1-3.9-9.5,0.6-9.1,5.5c0.3,4.9-4.5,4.4-2.1,8.9c2.3,4.5-9.3,2.1-5.7,8.8
					c13.5,6.1,29.8,4.2,29.9-1.4c0.1-5.7-4-5-5.8-7.6C139.2,93.9,140.1,81.3,133.9,82.3z"/>
				<path class="st20" d="M128.8,94.7c0,0,0.4,3.5-0.9,6l-4,2.9l15.2,2l-3.7-4.9c0,0-1.6-2-0.9-7.4
					C134.8,91.2,128.8,94.7,128.8,94.7z"/>
				<path class="st34" d="M134.4,96.4c0-0.3,0-0.6,0-0.9l-5.5-0.1c0,0.2,0,0.5,0,0.8c0.6,0.8,1.6,2,3.1,2
					C133.4,98.2,134.1,97.2,134.4,96.4z"/>
				<path class="st20" d="M131.7,97.1c-1.6,0-4.7-2.1-4.8-4.8l-0.1-4.2c0-1,0.7-2.6,1.5-2.6l6.3-0.1c0.8,0,1.5,1.6,1.6,2.6l0.1,4
					C136.3,94.7,133.6,97.1,131.7,97.1z"/>
				<path class="st9" d="M126.7,92.5c1.1-1.4,0.9-4,2.5-4.3c1.3-0.3,3.1-1.1,4.5-2.6c0.8,0.1,1.7,2,2.1,3.2c0.4,1.1,1,3.1,1.8,3.9
					c0.7-3.6-1.2-8.8-4.3-8.9c-2.4-0.1-5,0.7-6.3,2.6C125.6,88.4,126.7,92.5,126.7,92.5z"/>
				<path class="st2" d="M128,100.7l-4.7,11.4l-4.4,2.7l-4.5,2.2c0.4-0.9,2.6-4.5-0.2-7.6c-1.4-1.5-3.6-1.3-5.5-0.7
					c0.2-0.1,0.3-0.1,0.4-0.2l0,0c5.1-2.5,8.6-5.7,11.1-6.9c1.3-0.6,3.3-1.2,4.2-1.2C126,100.4,128.1,100.7,128,100.7z"/>
				<path class="st2" d="M141.9,100.6c2.7,1.3,11.1,8.5,11.1,8.5c-0.3-0.2-3.4-2-5.7,0.8c-2.5,2.9-2,5.7-2,5.7l-1.1-0.8l0,0l-5-4.5
					l-3.7-9.7C135.5,100.6,140.2,99.8,141.9,100.6z"/>
				<path class="st2" d="M119.1,118.6h25.1c0-0.2,0-0.4,0.1-0.6c0.2-0.9-0.4-2.2-0.1-3.1c2.2-6.9-2.9-13.2-2.9-13.2
					c-2.1-0.5-4.1-0.8-5.8-1c-1.4,1.9-2.2,3.2-3.4,3.8c-2.1-0.2-4.1-3.6-4.1-3.7c-3,0.4-4.7,1-4.7,1l0,0c-0.6,0.3-6.3,3.8-4.8,11.3
					C118.7,114.3,119,116.4,119.1,118.6z"/>
			</g>
		</g>
	</g>
</g>
<g>
	<g>
		<g>
			<circle id="SVGID_7_" class="st28" cx="86.6" cy="118.8" r="11.5"/>
		</g>
		<g>
			<defs>
				<circle id="SVGID_12_" cx="86.6" cy="118.8" r="11.5"/>
			</defs>
			<clipPath id="SVGID_13_">
				<use xlink:href="#SVGID_12_"  style="overflow:visible;"/>
			</clipPath>
			<g class="st37">
				<path class="st38" d="M87.2,111.7c-3.4-2.1-6.2,1.6-6.1,4.8c0.1,3.2,1.8,4.8,1.8,4.8h9c-1.5-2.6,0.1-5.7-1.5-8
					C89.1,111.5,87.2,111.7,87.2,111.7z"/>
				<path class="st30" d="M84.6,118.7c0,0,0.4,2.7-0.4,3.5l-2.3,1.7l9,1.2l-2.2-2.9c0,0-1.1-0.9-0.4-4.3
					C88.5,116.6,84.6,118.7,84.6,118.7z"/>
				<path class="st31" d="M84.6,119.4c0.4,0.5,1.1,1.1,1.9,1c0.6,0,1.2-0.5,1.4-0.9c0-0.2,0-0.3,0-0.5h-3.4
					C84.6,119.1,84.6,119.2,84.6,119.4z"/>
				<path class="st30" d="M86.4,120c-1,0-2.8-1.2-2.8-2.8l-0.1-2.5c0-0.6,0.4-1.1,0.9-1.1l3.7-0.1c0.5,0,0.9,0.5,0.9,1v2.3
					C89.1,118.6,87.5,120,86.4,120z"/>
				<path class="st39" d="M84.2,122.1l-2.8,6.7l-2.6,1.6l-2.6,1.3c0.2-0.5,1.5-2.6-0.1-4.5c-0.8-0.9-2.1-0.8-3.2-0.4
					c0.1,0,0.2-0.1,0.3-0.1l0,0c3-1.5,5.1-3.4,6.5-4.1c0.8-0.4,1.9-0.7,2.5-0.7C83,121.9,84.2,122.1,84.2,122.1z"/>
				<path class="st39" d="M92.4,122.1c1.6,0.8,6.6,5,6.6,5c-0.2-0.1-2-1.2-3.4,0.5c-1.5,1.7-1.2,3.4-1.2,3.4l-0.6-0.5l0,0l-2.9-2.7
					l-2.2-5.7C88.6,122.1,91.4,121.6,92.4,122.1z"/>
				<path class="st39" d="M78.9,132.2h15.3c-0.3-0.7-0.6-1.5-0.5-1.7c1.3-4.1-1.7-7.8-1.7-7.8c-1.2-0.3-2.4-0.5-3.4-0.6
					c-0.8,1.1-1.3,1.9-2,2.2c-1.2-0.1-2.4-2.2-2.4-2.2c-1.8,0.2-2.8,0.6-2.8,0.6l0,0c-0.3,0.2-3.7,2.2-2.8,6.7
					C78.7,130.1,78.8,131.1,78.9,132.2z"/>
			</g>
		</g>
	</g>
</g>
<g>
	<g>
		<g>
			<circle id="SVGID_9_" class="st28" cx="84.1" cy="75.7" r="16.3"/>
		</g>
		<g>
			<defs>
				<circle id="SVGID_14_" cx="84.1" cy="75.7" r="16.3"/>
			</defs>
			<clipPath id="SVGID_15_">
				<use xlink:href="#SVGID_14_"  style="overflow:visible;"/>
			</clipPath>
			<g class="st40">
				<path class="st21" d="M84.4,65.6c-4.9-2.4-12.7,2.7-8.3,17.6c12.5,6.8,15.1-1.8,15.1-1.8C92.1,71.1,89.8,64.8,84.4,65.6z"/>
				<path class="st20" d="M81.3,75.6c0,0,0.6,3.8-0.6,4.9l-3.3,2.4l12.7,1.6L87,80.4c0,0-1.5-1.2-0.6-6.1
					C86.7,72.6,81.3,75.6,81.3,75.6z"/>
				<path class="st34" d="M81.4,76.6c0.5,0.7,1.5,1.5,2.7,1.4c0.9-0.1,1.6-0.7,2-1.3c0-0.2,0-0.5,0.1-0.7l-4.8-0.1
					C81.3,76.1,81.4,76.4,81.4,76.6z"/>
				<path class="st20" d="M83.8,77.5c-1.4,0-3.9-1.8-4-4V70c0-0.8,0.5-1.5,1.2-1.5l5.2-0.1c0.7,0,1.3,0.6,1.3,1.5l0.1,3.3
					C87.7,75.5,85.4,77.5,83.8,77.5z"/>
				<path class="st17" d="M80.7,80.5l-3.9,9.4l-3.7,2.3L69.4,94c0.3-0.8,2.1-3.7-0.2-6.3c-1.1-1.3-3-1.1-4.6-0.6
					c0.1-0.1,0.2-0.1,0.4-0.2l0,0c4.2-2,7.1-4.8,9.2-5.8c1.1-0.5,2.7-1,3.5-1C79,80.2,80.8,80.5,80.7,80.5z"/>
				<path class="st17" d="M92.3,80.4c2.3,1.1,9.3,7.1,9.3,7.1c-0.2-0.1-2.8-1.6-4.8,0.7c-2.1,2.4-1.7,4.7-1.7,4.7l-0.9-0.7l0,0
					l-4.1-3.7L87,80.4C87,80.4,90.9,79.7,92.3,80.4z"/>
				<path class="st17" d="M73.3,94.6h21.6c-0.4-1-0.8-2-0.7-2.4c1.8-5.7-2.4-11-2.4-11c-1.7-0.4-3.4-0.7-4.9-0.8
					c-1.1,1.6-1.8,2.7-2.9,3.1c-1.7-0.2-3.4-3-3.4-3.1c-2.5,0.3-3.9,0.9-3.9,0.9l0,0c-0.5,0.2-5.2,3.1-4,9.4
					C73,91.7,73.2,93.1,73.3,94.6z"/>
				<path class="st21" d="M88.2,72.6c-1.1-2.7-3.2-4-3.2-4c-3.5,0.4-3,4.6-6.6,5.3c0.9-4.9,0.8-7.2,4-6.9c3.2,0.3,5.7-0.3,6,1.4
					C88.7,70,88.2,72.6,88.2,72.6z"/>
			</g>
		</g>
	</g>
</g>
<g>
	<path class="st17" d="M175.3,91.5c-0.2,0-0.3-0.1-0.3-0.3c0-0.2,0.1-0.3,0.3-0.3c0.6,0,1.3,0,1.9-0.1c0.2,0,0.3,0.1,0.3,0.3
		c0,0.2-0.1,0.3-0.3,0.3C176.6,91.5,175.9,91.5,175.3,91.5L175.3,91.5z M173.3,91.4L173.3,91.4c-0.7-0.1-1.3-0.2-2-0.3
		c-0.2,0-0.3-0.2-0.2-0.4c0-0.2,0.2-0.3,0.4-0.2c0.6,0.1,1.2,0.2,1.9,0.3c0.2,0,0.3,0.2,0.3,0.3C173.6,91.3,173.5,91.4,173.3,91.4z
		 M179.1,91.1c-0.1,0-0.3-0.1-0.3-0.2c0-0.2,0.1-0.3,0.2-0.4c0.6-0.1,1.2-0.3,1.8-0.5c0.2-0.1,0.3,0,0.4,0.2c0.1,0.2,0,0.3-0.2,0.4
		C180.4,90.8,179.8,91,179.1,91.1L179.1,91.1z M169.6,90.6C169.5,90.6,169.5,90.6,169.6,90.6c-0.7-0.2-1.3-0.5-1.9-0.7
		c-0.2-0.1-0.2-0.3-0.2-0.4c0.1-0.2,0.3-0.2,0.4-0.2c0.6,0.3,1.2,0.5,1.8,0.7c0.2,0.1,0.3,0.2,0.2,0.4
		C169.8,90.5,169.7,90.6,169.6,90.6z M182.8,89.9c-0.1,0-0.2-0.1-0.3-0.2c-0.1-0.2,0-0.3,0.2-0.4c0.6-0.3,1.1-0.5,1.7-0.9
		c0.2-0.1,0.3,0,0.4,0.1c0.1,0.2,0,0.3-0.1,0.4C184.1,89.2,183.5,89.5,182.8,89.9C182.9,89.9,182.8,89.9,182.8,89.9z M166,89
		c-0.1,0-0.1,0-0.2,0c-0.6-0.3-1.1-0.7-1.6-1.1c-0.1-0.1-0.2-0.3-0.1-0.4c0.1-0.1,0.3-0.2,0.4-0.1c0.5,0.4,1,0.7,1.6,1
		c0.2,0.1,0.2,0.3,0.1,0.4C166.2,89,166.1,89,166,89z M186.1,88c-0.1,0-0.2,0-0.3-0.1s-0.1-0.3,0.1-0.4c0.5-0.4,1-0.8,1.5-1.2
		c0.1-0.1,0.3-0.1,0.4,0c0.1,0.1,0.1,0.3,0,0.4c-0.5,0.4-1,0.9-1.5,1.2C186.2,88,186.2,88,186.1,88z M162.9,86.8
		c-0.1,0-0.1,0-0.2-0.1c-0.5-0.4-1-0.9-1.4-1.4c-0.1-0.1-0.1-0.3,0-0.4s0.3-0.1,0.4,0c0.4,0.5,0.9,0.9,1.3,1.3
		c0.1,0.1,0.1,0.3,0,0.4C163.1,86.7,163,86.8,162.9,86.8z M189,85.4c-0.1,0-0.1,0-0.2-0.1c-0.1-0.1-0.1-0.3,0-0.4
		c0.4-0.5,0.8-1,1.2-1.5c0.1-0.1,0.3-0.2,0.4-0.1c0.1,0.1,0.2,0.3,0.1,0.4c-0.4,0.5-0.8,1-1.2,1.5C189.1,85.4,189.1,85.4,189,85.4z
		 M160.3,83.9c-0.1,0-0.2,0-0.3-0.1c-0.4-0.5-0.7-1.1-1.1-1.6c-0.1-0.2,0-0.3,0.1-0.4c0.2-0.1,0.3,0,0.4,0.1c0.3,0.5,0.7,1.1,1,1.6
		C160.5,83.6,160.5,83.8,160.3,83.9C160.4,83.9,160.4,83.9,160.3,83.9z M191.2,82.3c-0.1,0-0.1,0-0.2,0c-0.2-0.1-0.2-0.3-0.1-0.4
		c0.3-0.5,0.6-1.1,0.9-1.7c0.1-0.2,0.3-0.2,0.4-0.2c0.2,0.1,0.2,0.3,0.2,0.4c-0.3,0.6-0.6,1.2-0.9,1.8
		C191.5,82.2,191.4,82.3,191.2,82.3z M158.4,80.6c-0.1,0-0.2-0.1-0.3-0.2c-0.3-0.6-0.5-1.2-0.7-1.8c-0.1-0.2,0-0.3,0.2-0.4
		s0.3,0,0.4,0.2c0.2,0.6,0.4,1.2,0.7,1.8C158.8,80.4,158.7,80.5,158.4,80.6C158.5,80.5,158.4,80.6,158.4,80.6z M192.8,78.7
		L192.8,78.7c-0.3-0.1-0.4-0.2-0.3-0.4c0.2-0.6,0.4-1.2,0.5-1.8c0-0.2,0.2-0.3,0.4-0.2c0.2,0,0.3,0.2,0.2,0.4
		c-0.1,0.6-0.3,1.3-0.5,1.9C193.1,78.7,193,78.7,192.8,78.7z M157.2,76.9c-0.1,0-0.3-0.1-0.3-0.2c-0.1-0.6-0.2-1.3-0.3-1.9
		c0-0.2,0.1-0.3,0.3-0.3s0.3,0.1,0.3,0.3c0.1,0.6,0.2,1.3,0.3,1.9C157.5,76.7,157.4,76.8,157.2,76.9L157.2,76.9z M193.6,75L193.6,75
		c-0.2,0-0.3-0.2-0.3-0.3c0.1-0.6,0.1-1.3,0.1-1.9l0,0c0-0.2,0.1-0.3,0.3-0.3l0,0c0.2,0,0.3,0.1,0.3,0.3l0,0c0,0.7,0,1.3-0.1,2
		C193.9,74.8,193.8,75,193.6,75z M156.8,73c-0.2,0-0.3-0.1-0.3-0.3l0,0c0-0.7,0-1.3,0.1-1.9c0-0.2,0.2-0.3,0.3-0.3
		c0.2,0,0.3,0.2,0.3,0.3c-0.1,0.6-0.1,1.3-0.1,1.9l0,0C157.1,72.9,157,73,156.8,73z M193.6,71.1c-0.2,0-0.3-0.1-0.3-0.3
		c-0.1-0.6-0.2-1.3-0.3-1.9c0-0.2,0.1-0.3,0.2-0.4c0.2,0,0.3,0.1,0.4,0.2c0.1,0.6,0.2,1.3,0.3,1.9C193.9,70.9,193.8,71,193.6,71.1
		L193.6,71.1z M157.2,69.2C157.2,69.2,157.1,69.2,157.2,69.2c-0.2,0-0.3-0.2-0.3-0.4c0.1-0.6,0.3-1.3,0.5-1.9
		c0.1-0.2,0.2-0.3,0.4-0.2c0.2,0.1,0.3,0.2,0.2,0.4c-0.2,0.6-0.4,1.2-0.5,1.8C157.4,69.1,157.3,69.2,157.2,69.2z M192.8,67.3
		c-0.1,0-0.3-0.1-0.3-0.2c-0.2-0.6-0.4-1.2-0.7-1.8c-0.1-0.2,0-0.3,0.2-0.4s0.3,0,0.4,0.2c0.3,0.6,0.5,1.2,0.7,1.8
		C193.2,67,193.1,67.2,192.8,67.3C192.9,67.3,192.8,67.3,192.8,67.3z M158.4,65.5h-0.1c-0.2-0.1-0.2-0.3-0.2-0.4
		c0.3-0.6,0.6-1.2,0.9-1.8c0.1-0.2,0.3-0.2,0.4-0.1c0.2,0.1,0.2,0.3,0.1,0.4c-0.3,0.5-0.6,1.1-0.9,1.7
		C158.6,65.5,158.5,65.5,158.4,65.5z M191.2,63.8c-0.1,0-0.2-0.1-0.3-0.2c-0.3-0.5-0.7-1.1-1-1.6c-0.1-0.1-0.1-0.3,0.1-0.4
		c0.1-0.1,0.3-0.1,0.4,0.1c0.4,0.5,0.7,1.1,1.1,1.6c0.1,0.1,0,0.3-0.1,0.4C191.3,63.7,191.3,63.8,191.2,63.8z M160.3,62.2
		c-0.1,0-0.1,0-0.2-0.1c-0.1-0.1-0.2-0.3-0.1-0.4c0.4-0.5,0.8-1,1.2-1.5c0.1-0.1,0.3-0.1,0.4,0c0.1,0.1,0.1,0.3,0,0.4
		C161.2,61.1,160.8,61.6,160.3,62.2C160.5,62.1,160.4,62.2,160.3,62.2z M189,60.6c-0.1,0-0.2,0-0.2-0.1c-0.4-0.5-0.9-0.9-1.3-1.3
		c-0.1-0.1-0.1-0.3,0-0.4c0.1-0.1,0.3-0.1,0.4,0c0.5,0.4,1,0.9,1.4,1.4c0.1,0.1,0.1,0.3,0,0.4C189.1,60.6,189,60.6,189,60.6z
		 M162.9,59.3c-0.1,0-0.2,0-0.2-0.1c-0.1-0.1-0.1-0.3,0-0.4c0.5-0.4,1-0.9,1.5-1.2c0.1-0.1,0.3-0.1,0.4,0.1c0.1,0.1,0.1,0.3-0.1,0.4
		C164,58.5,163.5,58.9,162.9,59.3C163,59.3,162.9,59.3,162.9,59.3z M186.1,58.1c-0.1,0-0.1,0-0.2-0.1c-0.5-0.4-1-0.7-1.6-1
		c-0.2-0.1-0.2-0.3-0.1-0.4c0.1-0.2,0.3-0.2,0.4-0.1c0.6,0.3,1.1,0.7,1.6,1.1c0.1,0.1,0.2,0.3,0.1,0.4
		C186.3,58,186.2,58.1,186.1,58.1z M166,57c-0.1,0-0.2-0.1-0.3-0.2c-0.1-0.1,0-0.3,0.1-0.4c0.6-0.3,1.2-0.6,1.7-0.9
		c0.2-0.1,0.3,0,0.4,0.2c0.1,0.2,0,0.3-0.2,0.4C167.1,56.4,166.6,56.6,166,57C166.1,57,166,57,166,57z M182.7,56.1h-0.1
		c-0.6-0.3-1.2-0.5-1.8-0.7c-0.2-0.1-0.3-0.2-0.2-0.4s0.2-0.3,0.4-0.2c0.6,0.2,1.2,0.4,1.8,0.7c0.2,0.1,0.2,0.3,0.2,0.4
		C183,56.1,182.9,56.1,182.7,56.1z M169.5,55.5c-0.1,0-0.3-0.1-0.3-0.2c-0.1-0.2,0-0.3,0.2-0.4c0.6-0.2,1.3-0.4,1.9-0.5
		c0.2,0,0.3,0.1,0.4,0.2c0,0.2-0.1,0.3-0.2,0.4C170.8,55.1,170.2,55.3,169.5,55.5C169.6,55.5,169.5,55.5,169.5,55.5z M179.1,55
		C179,55,179,54.9,179.1,55c-0.7-0.1-1.3-0.2-1.9-0.3c-0.2,0-0.3-0.2-0.3-0.3c0-0.2,0.2-0.3,0.3-0.3c0.7,0.1,1.3,0.2,1.9,0.3
		c0.2,0,0.3,0.2,0.2,0.4C179.3,54.8,179.2,55,179.1,55z M173.3,54.7c-0.2,0-0.3-0.1-0.3-0.3s0.1-0.3,0.3-0.3c0.6-0.1,1.3-0.1,2-0.1
		l0,0c0.2,0,0.3,0.1,0.3,0.3s-0.1,0.3-0.3,0.3C174.6,54.6,173.9,54.6,173.3,54.7L173.3,54.7z"/>
</g>
<g>
	<path class="st17" d="M130.5,116.1L130.5,116.1c-0.7,0-1.3-0.1-2-0.2c-0.2,0-0.3-0.2-0.3-0.4s0.2-0.3,0.4-0.3
		c0.6,0.1,1.3,0.1,1.9,0.2c0.2,0,0.3,0.2,0.3,0.3C130.8,116,130.7,116.1,130.5,116.1z M132.5,116.1c-0.2,0-0.3-0.1-0.3-0.3
		c0-0.2,0.1-0.3,0.3-0.3c0.6,0,1.3-0.1,1.9-0.2c0.2,0,0.3,0.1,0.4,0.3c0,0.2-0.1,0.3-0.3,0.4C133.8,116,133.1,116.1,132.5,116.1
		L132.5,116.1z M126.7,115.6C126.7,115.6,126.6,115.6,126.7,115.6c-0.7-0.2-1.3-0.3-2-0.5c-0.2-0.1-0.3-0.2-0.2-0.4
		c0.1-0.2,0.2-0.3,0.4-0.2c0.6,0.2,1.2,0.4,1.8,0.5c0.2,0,0.3,0.2,0.2,0.4C127,115.5,126.8,115.6,126.7,115.6z M136.3,115.6
		c-0.1,0-0.3-0.1-0.3-0.2c0-0.2,0.1-0.3,0.2-0.4c0.6-0.1,1.2-0.3,1.8-0.5c0.2-0.1,0.3,0,0.4,0.2c0.1,0.2,0,0.3-0.2,0.4
		C137.7,115.3,137,115.5,136.3,115.6C136.4,115.6,136.3,115.6,136.3,115.6z M123,114.4L123,114.4c-0.7-0.3-1.3-0.5-1.9-0.9
		c-0.2-0.1-0.2-0.3-0.1-0.4c0.1-0.2,0.3-0.2,0.4-0.1c0.6,0.3,1.1,0.6,1.7,0.8c0.2,0.1,0.2,0.3,0.2,0.4
		C123.2,114.3,123.1,114.4,123,114.4z M140,114.4c-0.1,0-0.2-0.1-0.3-0.2c-0.1-0.2,0-0.3,0.2-0.4c0.6-0.2,1.2-0.5,1.7-0.8
		c0.2-0.1,0.3,0,0.4,0.1s0,0.3-0.1,0.4C141.3,113.8,140.7,114.1,140,114.4C140.1,114.4,140,114.4,140,114.4z M119.6,112.6
		c-0.1,0-0.1,0-0.2-0.1c-0.5-0.4-1.1-0.7-1.6-1.2c-0.1-0.1-0.2-0.3,0-0.4c0.1-0.1,0.3-0.2,0.4,0c0.5,0.4,1,0.8,1.5,1.1
		c0.1,0.1,0.2,0.3,0.1,0.4C119.8,112.5,119.7,112.6,119.6,112.6z M143.4,112.6c-0.1,0-0.2,0-0.3-0.1s-0.1-0.3,0.1-0.4
		c0.5-0.4,1-0.7,1.5-1.1c0.1-0.1,0.3-0.1,0.4,0c0.1,0.1,0.1,0.3,0,0.4C144.6,111.8,144.1,112.2,143.4,112.6
		C143.5,112.5,143.5,112.6,143.4,112.6z M116.5,110.2c-0.1,0-0.2,0-0.2-0.1c-0.5-0.5-0.9-0.9-1.4-1.4c-0.1-0.1-0.1-0.3,0-0.4
		s0.3-0.1,0.4,0c0.4,0.5,0.9,0.9,1.3,1.4c0.1,0.1,0.1,0.3,0,0.4C116.7,110.1,116.6,110.2,116.5,110.2z M146.4,110.1
		c-0.1,0-0.2,0-0.2-0.1c-0.1-0.1-0.1-0.3,0-0.4c0.5-0.4,0.9-0.9,1.3-1.4c0.1-0.1,0.3-0.1,0.4,0c0.1,0.1,0.1,0.3,0,0.4
		c-0.4,0.5-0.9,1-1.4,1.4C146.6,110.1,146.5,110.1,146.4,110.1z M114,107.2c-0.1,0-0.2,0-0.3-0.1c-0.4-0.5-0.8-1.1-1.1-1.6
		c-0.1-0.1,0-0.3,0.1-0.4s0.3,0,0.4,0.1c0.3,0.5,0.7,1.1,1.1,1.6C114.3,106.9,114.3,107.1,114,107.2
		C114.1,107.2,114.1,107.2,114,107.2z M149,107.2c-0.1,0-0.1,0-0.2-0.1c-0.1-0.1-0.2-0.3-0.1-0.4c0.4-0.5,0.7-1.1,1.1-1.6
		c0.1-0.1,0.3-0.2,0.4-0.1c0.1,0.1,0.2,0.3,0.1,0.4c-0.3,0.6-0.7,1.1-1.1,1.6C149.2,107.2,149.1,107.2,149,107.2z M112,103.9
		c-0.1,0-0.2-0.1-0.3-0.2c-0.3-0.6-0.5-1.2-0.8-1.8c-0.1-0.2,0-0.3,0.2-0.4s0.3,0,0.4,0.2c0.2,0.6,0.5,1.2,0.8,1.8
		c0.1,0.2,0,0.3-0.1,0.4C112.1,103.9,112,103.9,112,103.9z M151,103.9h-0.1c-0.2-0.1-0.2-0.3-0.1-0.4c0.3-0.6,0.5-1.2,0.8-1.8
		c0.1-0.2,0.2-0.2,0.4-0.2c0.2,0.1,0.2,0.2,0.2,0.4c-0.2,0.6-0.5,1.2-0.8,1.8C151.2,103.8,151.1,103.9,151,103.9z M110.6,100.3
		c-0.1,0-0.3-0.1-0.3-0.2c-0.2-0.6-0.3-1.3-0.4-1.9c0-0.2,0.1-0.3,0.3-0.4c0.2,0,0.3,0.1,0.4,0.3c0.1,0.6,0.3,1.3,0.4,1.9
		C111,100.1,110.9,100.2,110.6,100.3C110.7,100.3,110.7,100.3,110.6,100.3z M152.3,100.3L152.3,100.3c-0.3-0.1-0.3-0.2-0.3-0.4
		c0.2-0.6,0.3-1.2,0.4-1.9c0-0.2,0.2-0.3,0.4-0.3s0.3,0.2,0.3,0.4c-0.1,0.6-0.3,1.3-0.4,1.9C152.6,100.2,152.5,100.3,152.3,100.3z
		 M109.9,96.5c-0.2,0-0.3-0.1-0.3-0.3c-0.1-0.6-0.1-1.3-0.1-2c0-0.2,0.1-0.3,0.3-0.3l0,0c0.2,0,0.3,0.1,0.3,0.3c0,0.6,0,1.3,0.1,1.9
		C110.3,96.3,110.1,96.5,109.9,96.5C110,96.5,109.9,96.5,109.9,96.5z M153,96.4L153,96.4c-0.2,0-0.3-0.2-0.3-0.3
		c0.1-0.6,0.1-1.3,0.1-1.9l0,0c0-0.2,0.1-0.3,0.3-0.3l0,0c0.2,0,0.3,0.1,0.3,0.3v0.1c0,0.7,0,1.3-0.1,2
		C153.3,96.3,153.2,96.4,153,96.4z M109.9,92.6L109.9,92.6c-0.2,0-0.3-0.2-0.3-0.3c0.1-0.7,0.1-1.3,0.3-2c0-0.2,0.2-0.3,0.4-0.3
		c0.2,0,0.3,0.2,0.3,0.4c-0.1,0.6-0.2,1.3-0.3,1.9C110.2,92.5,110.1,92.6,109.9,92.6z M153,92.5c-0.2,0-0.3-0.1-0.3-0.3
		c-0.1-0.6-0.1-1.3-0.3-1.9c0-0.2,0.1-0.3,0.3-0.4c0.2,0,0.3,0.1,0.4,0.3c0.1,0.6,0.2,1.3,0.3,2C153.4,92.4,153.2,92.5,153,92.5
		L153,92.5z M110.6,88.8L110.6,88.8c-0.3-0.1-0.3-0.2-0.3-0.4c0.2-0.6,0.4-1.3,0.6-1.9c0.1-0.2,0.2-0.2,0.4-0.2
		c0.2,0.1,0.2,0.2,0.2,0.4c-0.2,0.6-0.4,1.2-0.6,1.8C110.9,88.7,110.8,88.8,110.6,88.8z M152.3,88.7c-0.1,0-0.3-0.1-0.3-0.2
		c-0.2-0.6-0.4-1.2-0.6-1.8c-0.1-0.2,0-0.3,0.2-0.4s0.3,0,0.4,0.2c0.2,0.6,0.4,1.2,0.6,1.9C152.7,88.5,152.6,88.6,152.3,88.7
		C152.4,88.7,152.4,88.7,152.3,88.7z M112,85.1L112,85.1c-0.3-0.1-0.3-0.3-0.2-0.4c0.3-0.6,0.6-1.2,0.9-1.7c0.1-0.1,0.3-0.2,0.4-0.1
		s0.2,0.3,0.1,0.4c-0.3,0.5-0.6,1.1-0.9,1.7C112.2,85.1,112.1,85.1,112,85.1z M151,85.1c-0.1,0-0.2-0.1-0.3-0.2
		c-0.3-0.6-0.6-1.1-0.9-1.7c-0.1-0.1,0-0.3,0.1-0.4s0.3,0,0.4,0.1c0.3,0.6,0.7,1.1,0.9,1.7C151.3,84.8,151.2,84.9,151,85.1
		C151.1,85.1,151,85.1,151,85.1z M114,81.8c-0.1,0-0.1,0-0.2-0.1s-0.2-0.3-0.1-0.4c0.4-0.5,0.8-1,1.2-1.5c0.1-0.1,0.3-0.1,0.4,0
		s0.1,0.3,0,0.4c-0.4,0.5-0.8,1-1.2,1.5C114.2,81.8,114.1,81.8,114,81.8z M149,81.8c-0.1,0-0.2,0-0.3-0.1c-0.4-0.5-0.8-1-1.2-1.5
		c-0.1-0.1-0.1-0.3,0-0.4s0.3-0.1,0.4,0c0.4,0.5,0.8,1,1.2,1.5C149.2,81.4,149.2,81.6,149,81.8C149.1,81.7,149,81.8,149,81.8z
		 M116.5,78.9c-0.1,0-0.2,0-0.2-0.1c-0.1-0.1-0.1-0.3,0-0.4c0.5-0.5,1-0.9,1.5-1.3c0.1-0.1,0.3-0.1,0.4,0s0.1,0.3,0,0.4
		c-0.5,0.4-1,0.8-1.4,1.3C116.7,78.9,116.6,78.9,116.5,78.9z M146.4,78.8c-0.1,0-0.2,0-0.2-0.1c-0.5-0.4-0.9-0.9-1.4-1.3
		c-0.1-0.1-0.2-0.3-0.1-0.4c0.1-0.1,0.3-0.2,0.4-0.1c0.5,0.4,1,0.8,1.5,1.3c0.1,0.1,0.1,0.3,0,0.4C146.6,78.8,146.5,78.8,146.4,78.8
		z M119.5,76.5c-0.1,0-0.2,0-0.3-0.1c-0.1-0.1-0.1-0.3,0.1-0.4c0.5-0.4,1.1-0.7,1.7-1c0.2-0.1,0.3,0,0.4,0.1c0.1,0.2,0,0.3-0.1,0.4
		c-0.6,0.3-1.1,0.6-1.6,1C119.7,76.5,119.6,76.5,119.5,76.5z M143.4,76.4c-0.1,0-0.1,0-0.2-0.1c-0.5-0.3-1.1-0.7-1.6-1
		c-0.2-0.1-0.2-0.3-0.1-0.4c0.1-0.2,0.3-0.2,0.4-0.1c0.6,0.3,1.1,0.6,1.7,1c0.1,0.1,0.2,0.3,0.1,0.4
		C143.6,76.4,143.5,76.4,143.4,76.4z M122.9,74.6c-0.1,0-0.2-0.1-0.3-0.2c-0.1-0.2,0-0.3,0.2-0.4c0.6-0.3,1.2-0.5,1.8-0.7
		c0.2-0.1,0.3,0,0.4,0.2s0,0.3-0.2,0.4C124.2,74.1,123.6,74.3,122.9,74.6C123,74.6,123,74.6,122.9,74.6z M139.9,74.6h-0.1
		c-0.6-0.2-1.2-0.5-1.8-0.7c-0.2-0.1-0.3-0.2-0.2-0.4c0.1-0.2,0.2-0.3,0.4-0.2c0.6,0.2,1.2,0.4,1.8,0.7c0.2,0.1,0.2,0.3,0.2,0.4
		C140.2,74.5,140.1,74.6,139.9,74.6z M126.6,73.4c-0.1,0-0.3-0.1-0.3-0.2c0-0.2,0.1-0.3,0.2-0.4c0.6-0.1,1.3-0.3,1.9-0.4
		c0.2,0,0.3,0.1,0.4,0.3c0,0.2-0.1,0.3-0.3,0.4C128,73.2,127.3,73.3,126.6,73.4C126.7,73.4,126.7,73.4,126.6,73.4z M136.3,73.4
		C136.2,73.4,136.2,73.4,136.3,73.4c-0.7-0.1-1.3-0.3-2-0.3c-0.2,0-0.3-0.2-0.3-0.4c0-0.2,0.2-0.3,0.4-0.3c0.6,0.1,1.3,0.2,1.9,0.3
		c0.2,0,0.3,0.2,0.2,0.4C136.5,73.3,136.4,73.4,136.3,73.4z M130.5,72.9c-0.2,0-0.3-0.1-0.3-0.3c0-0.2,0.1-0.3,0.3-0.3
		c0.3,0,0.7,0,1,0s0.6,0,0.9,0c0.2,0,0.3,0.2,0.3,0.3c0,0.2-0.2,0.3-0.3,0.3c-0.3,0-0.6,0-0.9,0l0,0
		C131.1,72.9,130.8,72.9,130.5,72.9L130.5,72.9z"/>
</g>
<g>
	<path class="st17" d="M110.7,83.6L110.7,83.6l-1.9-0.7c-0.2-0.1-0.2-0.2-0.2-0.4c0.1-0.2,0.2-0.2,0.4-0.2l1.8,0.7
		c0.2,0.1,0.2,0.2,0.2,0.4C111,83.5,110.8,83.6,110.7,83.6z M107.1,82.2L107.1,82.2l-1.9-0.7c-0.2-0.1-0.2-0.2-0.2-0.4
		c0.1-0.2,0.2-0.2,0.4-0.2l1.8,0.7c0.2,0.1,0.2,0.2,0.2,0.4C107.3,82.1,107.2,82.2,107.1,82.2z M103.5,80.9L103.5,80.9l-1.9-0.7
		c-0.2-0.1-0.2-0.2-0.2-0.4c0.1-0.2,0.2-0.2,0.4-0.2l1.8,0.7c0.2,0.1,0.2,0.2,0.2,0.4C103.7,80.8,103.6,80.9,103.5,80.9z"/>
</g>
<g>
	<path class="st17" d="M98,113.2c-0.1,0-0.2-0.1-0.3-0.2c-0.1-0.2,0-0.3,0.1-0.4l1.7-0.8c0.2-0.1,0.3,0,0.4,0.1
		c0.1,0.2,0,0.3-0.1,0.4L98,113.2C98.1,113.2,98,113.2,98,113.2z M101.5,111.6c-0.1,0-0.2-0.1-0.3-0.2c-0.1-0.2,0-0.3,0.1-0.4
		l1.7-0.8c0.2-0.1,0.3,0,0.4,0.1c0.1,0.2,0,0.3-0.1,0.4L101.5,111.6C101.6,111.6,101.5,111.6,101.5,111.6z M105,109.9
		c-0.1,0-0.2-0.1-0.3-0.2c-0.1-0.2,0-0.3,0.1-0.4l1.7-0.8c0.2-0.1,0.3,0,0.4,0.1c0.1,0.2,0,0.3-0.1,0.4L105,109.9
		C105.1,109.9,105,109.9,105,109.9z M108.5,108.2c-0.1,0-0.2-0.1-0.3-0.2c-0.1-0.2,0-0.3,0.1-0.4l1.7-0.8c0.2-0.1,0.3,0,0.4,0.1
		c0.1,0.2,0,0.3-0.1,0.4L108.5,108.2C108.5,108.2,108.5,108.2,108.5,108.2z M111.9,106.5c-0.1,0-0.2-0.1-0.3-0.2
		c-0.1-0.2,0-0.3,0.1-0.4l1.2-0.6c0.2-0.1,0.3,0,0.4,0.1s0,0.3-0.1,0.4L111.9,106.5C112,106.5,112,106.5,111.9,106.5z"/>
</g>
<g>
	<path class="st17" d="M152.7,83.3c-0.1,0-0.2-0.1-0.3-0.2c-0.1-0.2,0-0.3,0.1-0.4l1.7-0.9c0.2-0.1,0.3,0,0.4,0.1
		c0.1,0.2,0,0.3-0.1,0.4L152.7,83.3C152.8,83.3,152.8,83.3,152.7,83.3z M156.1,81.4c-0.1,0-0.2-0.1-0.3-0.2c-0.1-0.2,0-0.3,0.1-0.4
		l1.7-0.9c0.2-0.1,0.3,0,0.4,0.1c0.1,0.2,0,0.3-0.1,0.4L156.1,81.4C156.2,81.4,156.1,81.4,156.1,81.4z"/>
</g>
<g>
	<path class="st17" d="M164.9,114.1h-0.1l-1.7-0.9c-0.2-0.1-0.2-0.3-0.1-0.4c0.1-0.2,0.3-0.2,0.4-0.1l1.7,0.9
		c0.2,0.1,0.2,0.3,0.1,0.4C165.2,114,165.1,114.1,164.9,114.1z M161.5,112.3h-0.1l-1.7-0.9c-0.2-0.1-0.2-0.3-0.1-0.4
		c0.1-0.2,0.3-0.2,0.4-0.1l1.7,0.9c0.2,0.1,0.2,0.3,0.1,0.4C161.7,112.2,161.6,112.3,161.5,112.3z M158,110.5h-0.1l-1.7-0.9
		c-0.2-0.1-0.2-0.3-0.1-0.4c0.1-0.2,0.3-0.2,0.4-0.1l1.7,0.9c0.2,0.1,0.2,0.3,0.1,0.4C158.3,110.5,158.2,110.5,158,110.5z
		 M154.6,108.8h-0.1l-1.7-0.9c-0.2-0.1-0.2-0.3-0.1-0.4c0.1-0.2,0.3-0.2,0.4-0.1l1.7,0.9c0.2,0.1,0.2,0.3,0.1,0.4
		C154.8,108.7,154.7,108.8,154.6,108.8z M151.1,107H151l-1.5-0.8c-0.2-0.1-0.2-0.3-0.1-0.4c0.1-0.2,0.3-0.2,0.4-0.1l1.5,0.8
		c0.2,0.1,0.2,0.3,0.1,0.4C151.4,107,151.3,107,151.1,107z"/>
</g>
<g>
	<path class="st17" d="M84.1,106.3c-0.2,0-0.3-0.1-0.3-0.3v-0.3c0-0.2,0.1-0.3,0.3-0.4c0.2,0,0.3,0.1,0.4,0.3v0.3
		C84.4,106.1,84.3,106.2,84.1,106.3L84.1,106.3z M83.7,104.1c-0.2,0-0.3-0.1-0.3-0.3l-0.3-1.9c0-0.2,0.1-0.3,0.3-0.4
		c0.2,0,0.3,0.1,0.4,0.3l0.3,1.9C84.1,103.9,83.9,104,83.7,104.1L83.7,104.1z M83.1,100.2c-0.2,0-0.3-0.1-0.3-0.3L82.5,98
		c0-0.2,0.1-0.3,0.3-0.4c0.2,0,0.3,0.1,0.4,0.3l0.3,1.9C83.4,100,83.3,100.2,83.1,100.2L83.1,100.2z M82.4,96.4
		c-0.2,0-0.3-0.1-0.3-0.3l-0.3-1.9c0-0.2,0.1-0.3,0.3-0.4c0.2,0,0.3,0.1,0.4,0.3l0.3,1.9C82.8,96.2,82.7,96.4,82.4,96.4
		C82.5,96.4,82.5,96.4,82.4,96.4z"/>
</g>
<g>
	<path class="st17" d="M163.9,123.1H162c-0.2,0-0.3-0.1-0.3-0.3c0-0.2,0.1-0.3,0.3-0.3h1.9c0.2,0,0.3,0.1,0.3,0.3
		S164.1,123.1,163.9,123.1z M160,123.1h-1.9c-0.2,0-0.3-0.1-0.3-0.3c0-0.2,0.1-0.3,0.3-0.3h1.9c0.2,0,0.3,0.1,0.3,0.3
		S160.2,123.1,160,123.1z M156.2,123.1h-1.9c-0.2,0-0.3-0.1-0.3-0.3c0-0.2,0.1-0.3,0.3-0.3h1.9c0.2,0,0.3,0.1,0.3,0.3
		S156.3,123.1,156.2,123.1z M152.3,123.1h-1.9c-0.2,0-0.3-0.1-0.3-0.3c0-0.2,0.1-0.3,0.3-0.3h1.9c0.2,0,0.3,0.1,0.3,0.3
		S152.5,123.1,152.3,123.1z M148.4,123.1h-1.9c-0.2,0-0.3-0.1-0.3-0.3c0-0.2,0.1-0.3,0.3-0.3h1.9c0.2,0,0.3,0.1,0.3,0.3
		S148.6,123.1,148.4,123.1z M144.5,123.1h-1.9c-0.2,0-0.3-0.1-0.3-0.3c0-0.2,0.1-0.3,0.3-0.3h1.9c0.2,0,0.3,0.1,0.3,0.3
		C144.9,123,144.7,123.1,144.5,123.1z M140.7,123.1h-1.9c-0.2,0-0.3-0.1-0.3-0.3c0-0.2,0.1-0.3,0.3-0.3h1.9c0.2,0,0.3,0.1,0.3,0.3
		S140.8,123.1,140.7,123.1z M136.8,123.1h-1.9c-0.2,0-0.3-0.1-0.3-0.3c0-0.2,0.1-0.3,0.3-0.3h1.9c0.2,0,0.3,0.1,0.3,0.3
		S137,123.1,136.8,123.1z M132.9,123.1H131c-0.2,0-0.3-0.1-0.3-0.3c0-0.2,0.1-0.3,0.3-0.3h1.9c0.2,0,0.3,0.1,0.3,0.3
		S133.1,123.1,132.9,123.1z M129,123.1h-1.9c-0.2,0-0.3-0.1-0.3-0.3c0-0.2,0.1-0.3,0.3-0.3h1.9c0.2,0,0.3,0.1,0.3,0.3
		C129.4,123,129.2,123.1,129,123.1z M125.2,123.1h-1.9c-0.2,0-0.3-0.1-0.3-0.3c0-0.2,0.1-0.3,0.3-0.3h1.9c0.2,0,0.3,0.1,0.3,0.3
		S125.3,123.1,125.2,123.1z M121.3,123.1h-1.9c-0.2,0-0.3-0.1-0.3-0.3c0-0.2,0.1-0.3,0.3-0.3h1.9c0.2,0,0.3,0.1,0.3,0.3
		C121.6,123,121.5,123.1,121.3,123.1z M117.4,123.1h-1.9c-0.2,0-0.3-0.1-0.3-0.3c0-0.2,0.1-0.3,0.3-0.3h1.9c0.2,0,0.3,0.1,0.3,0.3
		C117.7,123,117.6,123.1,117.4,123.1z M113.6,123.1h-1.9c-0.2,0-0.3-0.1-0.3-0.3c0-0.2,0.1-0.3,0.3-0.3h1.9c0.2,0,0.3,0.1,0.3,0.3
		S113.7,123.1,113.6,123.1z M109.7,123.1h-1.9c-0.2,0-0.3-0.1-0.3-0.3c0-0.2,0.1-0.3,0.3-0.3h1.9c0.2,0,0.3,0.1,0.3,0.3
		S109.9,123.1,109.7,123.1z M105.8,123.1h-1.9c-0.2,0-0.3-0.1-0.3-0.3c0-0.2,0.1-0.3,0.3-0.3h1.9c0.2,0,0.3,0.1,0.3,0.3
		C106.1,123,106,123.1,105.8,123.1z M101.9,123.1H100c-0.2,0-0.3-0.1-0.3-0.3c0-0.2,0.1-0.3,0.3-0.3h1.9c0.2,0,0.3,0.1,0.3,0.3
		C102.2,123,102.1,123.1,101.9,123.1z"/>
</g>
<g>
	<path class="st17" d="M158.3,64.9h-1.9c-0.2,0-0.3-0.1-0.3-0.3s0.1-0.3,0.3-0.3h1.9c0.2,0,0.3,0.1,0.3,0.3S158.5,64.9,158.3,64.9z
		 M154.5,64.9h-1.9c-0.2,0-0.3-0.1-0.3-0.3s0.1-0.3,0.3-0.3h1.9c0.2,0,0.3,0.1,0.3,0.3S154.6,64.9,154.5,64.9z M150.6,64.9h-1.9
		c-0.2,0-0.3-0.1-0.3-0.3s0.1-0.3,0.3-0.3h1.9c0.2,0,0.3,0.1,0.3,0.3S150.8,64.9,150.6,64.9z M146.7,64.9h-1.9
		c-0.2,0-0.3-0.1-0.3-0.3s0.1-0.3,0.3-0.3h1.9c0.2,0,0.3,0.1,0.3,0.3S146.9,64.9,146.7,64.9z M142.8,64.9h-1.9
		c-0.2,0-0.3-0.1-0.3-0.3s0.1-0.3,0.3-0.3h1.9c0.2,0,0.3,0.1,0.3,0.3S143,64.9,142.8,64.9z M139,64.9h-2c-0.2,0-0.3-0.1-0.3-0.3
		s0.1-0.3,0.3-0.3h1.9c0.2,0,0.3,0.1,0.3,0.3S139.1,64.9,139,64.9z M135.1,64.9h-1.9c-0.2,0-0.3-0.1-0.3-0.3s0.1-0.3,0.3-0.3h1.9
		c0.2,0,0.3,0.1,0.3,0.3S135.3,64.9,135.1,64.9z M131.2,64.9h-1.9c-0.2,0-0.3-0.1-0.3-0.3s0.1-0.3,0.3-0.3h1.9
		c0.2,0,0.3,0.1,0.3,0.3S131.4,64.9,131.2,64.9z M127.3,64.9h-1.9c-0.2,0-0.3-0.1-0.3-0.3s0.1-0.3,0.3-0.3h1.9
		c0.2,0,0.3,0.1,0.3,0.3S127.5,64.9,127.3,64.9z M123.5,64.9h-1.9c-0.2,0-0.3-0.1-0.3-0.3s0.1-0.3,0.3-0.3h1.9
		c0.2,0,0.3,0.1,0.3,0.3S123.6,64.9,123.5,64.9z M119.6,64.9h-1.9c-0.2,0-0.3-0.1-0.3-0.3s0.1-0.3,0.3-0.3h1.9
		c0.2,0,0.3,0.1,0.3,0.3S119.8,64.9,119.6,64.9z M115.7,64.9h-1.9c-0.2,0-0.3-0.1-0.3-0.3s0.1-0.3,0.3-0.3h1.9
		c0.2,0,0.3,0.1,0.3,0.3S115.9,64.9,115.7,64.9z M111.9,64.9H110c-0.2,0-0.3-0.1-0.3-0.3s0.1-0.3,0.3-0.3h1.9c0.2,0,0.3,0.1,0.3,0.3
		S112,64.9,111.9,64.9z M108,64.9h-2c-0.2,0-0.3-0.1-0.3-0.3s0.1-0.3,0.3-0.3h1.9c0.2,0,0.3,0.1,0.3,0.3S108.2,64.9,108,64.9z
		 M104.1,64.9h-1.9c-0.2,0-0.3-0.1-0.3-0.3s0.1-0.3,0.3-0.3h1.9c0.2,0,0.3,0.1,0.3,0.3S104.3,64.9,104.1,64.9z M100.2,64.9h-1.9
		c-0.2,0-0.3-0.1-0.3-0.3s0.1-0.3,0.3-0.3h1.9c0.2,0,0.3,0.1,0.3,0.3S100.4,64.9,100.2,64.9z"/>
</g>
<g>
	<path class="st17" d="M177.7,105.1c-0.2,0-0.3-0.1-0.3-0.3v-1.9c0-0.2,0.1-0.3,0.3-0.3s0.3,0.1,0.3,0.3v1.9
		C178,104.9,177.9,105.1,177.7,105.1z M177.7,101.2c-0.2,0-0.3-0.1-0.3-0.3V99c0-0.2,0.1-0.3,0.3-0.3s0.3,0.1,0.3,0.3v1.9
		C178,101,177.9,101.2,177.7,101.2z M177.7,97.3c-0.2,0-0.3-0.1-0.3-0.3v-1.9c0-0.2,0.1-0.3,0.3-0.3s0.3,0.1,0.3,0.3V97
		C178,97.2,177.9,97.3,177.7,97.3z M177.7,93.4c-0.2,0-0.3-0.1-0.3-0.3v-1.9c0-0.2,0.1-0.3,0.3-0.3s0.3,0.1,0.3,0.3v1.9
		C178,93.3,177.9,93.4,177.7,93.4z"/>
</g>
<g class="st41">
	<path class="st26" d="M106.5,44.7v1.9h-0.9v-4.9h1.5c0.3,0,0.6,0,0.9,0.1c0.2,0.1,0.4,0.2,0.6,0.3c0.2,0.1,0.3,0.3,0.3,0.4
		c0.1,0.2,0.1,0.4,0.1,0.6c0,0.2,0,0.3-0.1,0.5c0,0.1-0.1,0.3-0.2,0.4c-0.1,0.1-0.2,0.2-0.3,0.3c-0.1,0.1-0.3,0.2-0.5,0.2
		c0.1,0.1,0.2,0.2,0.3,0.3l1.2,1.8h-0.8c-0.1,0-0.1,0-0.2,0c-0.1,0-0.1-0.1-0.1-0.1l-1-1.6c0-0.1-0.1-0.1-0.1-0.1c0,0-0.1,0-0.2,0
		H106.5z M106.5,44.1h0.6c0.2,0,0.3,0,0.5-0.1s0.2-0.1,0.3-0.2c0.1-0.1,0.1-0.2,0.2-0.3c0-0.1,0.1-0.2,0.1-0.3
		c0-0.2-0.1-0.4-0.2-0.6s-0.4-0.2-0.8-0.2h-0.6V44.1z"/>
	<path class="st26" d="M113.1,41.7v0.7h-2.2v1.4h1.7v0.7h-1.7v1.4h2.2v0.7H110v-4.9H113.1z"/>
	<path class="st26" d="M116.4,44.8c0,0.1,0.1,0.2,0.1,0.2c0-0.1,0.1-0.2,0.1-0.2c0-0.1,0.1-0.2,0.1-0.2l1.5-2.7c0,0,0-0.1,0.1-0.1
		c0,0,0,0,0.1,0c0,0,0.1,0,0.1,0c0,0,0.1,0,0.1,0h0.7v4.9h-0.8v-3.2c0-0.1,0-0.1,0-0.2c0-0.1,0-0.1,0-0.2l-1.5,2.8
		c0,0.1-0.1,0.1-0.1,0.1s-0.1,0.1-0.2,0.1h-0.1c-0.1,0-0.1,0-0.2-0.1s-0.1-0.1-0.1-0.1l-1.5-2.8c0,0.1,0,0.1,0,0.2s0,0.1,0,0.2v3.2
		h-0.8v-4.9h0.7c0,0,0.1,0,0.1,0c0,0,0.1,0,0.1,0c0,0,0,0,0.1,0c0,0,0,0,0.1,0.1l1.5,2.7C116.3,44.7,116.4,44.7,116.4,44.8z"/>
	<path class="st26" d="M124.9,44.2c0,0.4-0.1,0.7-0.2,1s-0.3,0.6-0.5,0.8c-0.2,0.2-0.5,0.4-0.8,0.5c-0.3,0.1-0.6,0.2-1,0.2
		c-0.4,0-0.7-0.1-1-0.2c-0.3-0.1-0.6-0.3-0.8-0.5c-0.2-0.2-0.4-0.5-0.5-0.8c-0.1-0.3-0.2-0.6-0.2-1c0-0.4,0.1-0.7,0.2-1
		c0.1-0.3,0.3-0.6,0.5-0.8c0.2-0.2,0.5-0.4,0.8-0.5s0.6-0.2,1-0.2c0.4,0,0.7,0.1,1,0.2s0.6,0.3,0.8,0.5s0.4,0.5,0.5,0.8
		C124.8,43.5,124.9,43.8,124.9,44.2z M123.9,44.2c0-0.3,0-0.5-0.1-0.7s-0.2-0.4-0.3-0.5c-0.1-0.1-0.3-0.3-0.5-0.3s-0.4-0.1-0.6-0.1
		c-0.2,0-0.5,0-0.6,0.1c-0.2,0.1-0.4,0.2-0.5,0.3s-0.2,0.3-0.3,0.5c-0.1,0.2-0.1,0.5-0.1,0.7c0,0.3,0,0.5,0.1,0.7
		c0.1,0.2,0.2,0.4,0.3,0.5s0.3,0.3,0.5,0.3c0.2,0.1,0.4,0.1,0.6,0.1c0.2,0,0.5,0,0.6-0.1s0.4-0.2,0.5-0.3c0.1-0.1,0.2-0.3,0.3-0.5
		S123.9,44.5,123.9,44.2z"/>
	<path class="st26" d="M128.8,41.7v0.8h-1.5v4.2h-0.9v-4.2h-1.5v-0.8H128.8z"/>
	<path class="st26" d="M132.5,41.7v0.7h-2.2v1.4h1.7v0.7h-1.7v1.4h2.2v0.7h-3.1v-4.9H132.5z"/>
	<path class="st26" d="M138.7,46.6h-0.9v-2.1h-2.3v2.1h-0.9v-4.9h0.9v2.1h2.3v-2.1h0.9V46.6z"/>
	<path class="st26" d="M140.7,46.6h-0.9v-4.9h0.9V46.6z"/>
	<path class="st26" d="M142.8,44.7v1.9h-0.9v-4.9h1.5c0.3,0,0.6,0,0.9,0.1c0.2,0.1,0.4,0.2,0.6,0.3c0.2,0.1,0.3,0.3,0.3,0.4
		c0.1,0.2,0.1,0.4,0.1,0.6c0,0.2,0,0.3-0.1,0.5c0,0.1-0.1,0.3-0.2,0.4c-0.1,0.1-0.2,0.2-0.3,0.3c-0.1,0.1-0.3,0.2-0.5,0.2
		c0.1,0.1,0.2,0.2,0.3,0.3l1.2,1.8h-0.8c-0.1,0-0.1,0-0.2,0c-0.1,0-0.1-0.1-0.1-0.1l-1-1.6c0-0.1-0.1-0.1-0.1-0.1c0,0-0.1,0-0.2,0
		H142.8z M142.8,44.1h0.6c0.2,0,0.3,0,0.5-0.1s0.2-0.1,0.3-0.2c0.1-0.1,0.1-0.2,0.2-0.3c0-0.1,0.1-0.2,0.1-0.3
		c0-0.2-0.1-0.4-0.2-0.6s-0.4-0.2-0.8-0.2h-0.6V44.1z"/>
	<path class="st26" d="M147.3,46.6h-0.9v-4.9h0.9V46.6z"/>
	<path class="st26" d="M149,41.7C149,41.7,149,41.7,149,41.7c0.1,0,0.1,0,0.1,0.1c0,0,0,0,0.1,0.1l2.6,3.3c0-0.1,0-0.2,0-0.2
		c0-0.1,0-0.1,0-0.2v-3h0.8v4.9h-0.5c-0.1,0-0.1,0-0.2,0s-0.1-0.1-0.1-0.1l-2.6-3.3c0,0.1,0,0.1,0,0.2s0,0.1,0,0.2v3h-0.8v-4.9h0.5
		C148.9,41.7,149,41.7,149,41.7z"/>
	<path class="st26" d="M155.8,46c0.2,0,0.4,0,0.5-0.1c0.2,0,0.3-0.1,0.4-0.2v-0.9h-0.6c-0.1,0-0.1,0-0.1,0c0,0-0.1-0.1-0.1-0.1v-0.5
		h1.6v2c-0.1,0.1-0.3,0.2-0.4,0.2s-0.3,0.1-0.4,0.2c-0.2,0-0.3,0.1-0.5,0.1c-0.2,0-0.4,0-0.6,0c-0.4,0-0.7-0.1-1-0.2
		c-0.3-0.1-0.6-0.3-0.8-0.5c-0.2-0.2-0.4-0.5-0.5-0.8c-0.1-0.3-0.2-0.6-0.2-1c0-0.4,0.1-0.7,0.2-1s0.3-0.6,0.5-0.8s0.5-0.4,0.8-0.5
		c0.3-0.1,0.7-0.2,1.1-0.2c0.4,0,0.7,0.1,1,0.2c0.3,0.1,0.5,0.3,0.7,0.5l-0.3,0.4c-0.1,0.1-0.1,0.1-0.2,0.1c-0.1,0-0.1,0-0.2-0.1
		c-0.1,0-0.1-0.1-0.2-0.1c-0.1,0-0.2-0.1-0.3-0.1c-0.1,0-0.2-0.1-0.3-0.1c-0.1,0-0.2,0-0.4,0c-0.2,0-0.5,0-0.7,0.1
		c-0.2,0.1-0.4,0.2-0.5,0.4c-0.1,0.2-0.2,0.3-0.3,0.5c-0.1,0.2-0.1,0.5-0.1,0.7c0,0.3,0,0.5,0.1,0.8c0.1,0.2,0.2,0.4,0.3,0.6
		s0.3,0.3,0.5,0.3C155.3,45.9,155.6,46,155.8,46z"/>
</g>
<path class="st42" d="M299.6,140H0.4c-0.2,0-0.4-0.2-0.4-0.4l0,0c0-0.2,0.2-0.4,0.4-0.4h299.2c0.2,0,0.4,0.2,0.4,0.4l0,0
	C300,139.8,299.8,140,299.6,140z"/>
</svg>
