<svg xmlns="http://www.w3.org/2000/svg" viewBox="0 0 24 24" xmlns:v="https://vecta.io/nano"><path d="M24,12c0-6.6-5.4-12-12-12C5.4,0,0,5.4,0,12c0,6.6,5.4,12,12,12C18.6,24,24,18.6,24,12z" fill="#00a9ff"/><path d="M19 8.4c-.5.2-1 .3-1.5.4.6-.3 1-.9 1.2-1.5 0 0 0-.1-.1-.1-.5.3-1.1.5-1.7.6-.6-.5-1.3-.8-2.2-.8-1.6 0-2.9 1.3-2.9 2.9 0 .2 0 .4.1.7-2.4-.1-4.6-1.3-6-3-.3.4-.4.8-.4 1.4 0 1 .5 1.8 1.2 2.4-.4 0-.9-.1-1.2-.3 0 .1 0 .7.2 1.1.3.8 1.1 1.4 2.1 1.6-.2.1-.5.1-.8.1h-.5c.4 1.1 1.4 1.9 2.7 2-1 .8-2.2 1.2-3.6 1.2h-.7c1.3.8 2.8 1.3 4.5 1.3 2.3 0 4.1-.8 5.5-2s2.3-2.8 2.6-4.5l.2-1.7v-.4c.5-.3.9-.8 1.3-1.4z" fill="#fff"/></svg>